<svg width="218" height="173" viewBox="0 0 218 173" fill="none" xmlns="http://www.w3.org/2000/svg">
<g opacity="0.15">
<path d="M137.563 39.3837C137.875 39.4889 138.112 39.6615 138.295 39.917C138.464 40.1524 138.584 40.4521 138.608 40.6989C138.618 40.7969 138.614 40.8583 138.583 41.0413C138.542 41.298 138.487 41.4517 138.308 41.829C138.188 42.0814 138.078 42.3327 138.032 42.4597C137.983 42.5951 137.934 42.9039 137.943 43.0254C137.961 43.2638 138.051 43.4978 138.212 43.726C138.369 43.9474 138.486 44.0484 138.909 44.3335C139.35 44.6288 139.537 44.7902 140.018 45.2906C140.303 45.5883 140.397 45.678 140.529 45.7725C140.886 46.0317 141.173 46.0987 142.326 46.1927C143.567 46.2939 144.668 46.5851 146.002 47.1682C146.522 47.3954 146.643 47.4214 147.248 47.4331C147.459 47.4373 147.583 47.4475 147.757 47.4764C148.027 47.5198 148.096 47.5476 148.47 47.7564C148.854 47.9712 148.911 47.9925 149.205 48.04C149.365 48.0651 149.552 48.0844 149.72 48.0916C150.198 48.1133 150.376 48.1252 150.647 48.1568C150.794 48.1726 150.962 48.1842 151.019 48.1817C151.332 48.1673 151.65 48.0587 151.878 47.8849C151.94 47.839 151.995 47.8022 152.002 47.8034C152.017 47.8058 152.046 47.8521 152.062 47.9006C152.089 47.9865 152.031 48.1369 151.93 48.2385C151.905 48.2626 151.899 48.2762 151.913 48.2726C151.925 48.2702 151.992 48.2591 152.063 48.2487C152.226 48.2255 152.269 48.2121 152.349 48.1587L152.412 48.1159L152.391 48.2011C152.374 48.2636 152.344 48.3207 152.278 48.4149C152.105 48.66 152.114 48.7221 152.364 49.0717C152.608 49.4129 152.648 49.5379 152.619 49.8736C152.602 50.0618 152.603 50.0916 152.631 50.299C152.64 50.3657 152.646 50.4615 152.644 50.5129L152.639 50.6053L152.505 50.6971C152.295 50.8414 152.139 50.9042 151.971 50.9132C151.823 50.9213 151.027 50.8007 150.901 50.7516C150.7 50.6723 150.519 50.6703 150.262 50.7431L150.132 50.7792L150.123 50.8872C150.112 51.0231 150.124 51.2901 150.152 51.5376C150.171 51.7006 150.17 51.7596 150.147 51.9661C150.111 52.2977 150.125 52.3873 150.258 52.6877C150.414 53.0395 150.581 53.2953 151.137 54.0302C151.377 54.3471 151.641 54.6988 151.724 54.8118C151.934 55.0985 151.995 55.153 152.225 55.2565C152.404 55.338 152.513 55.4435 152.555 55.5793C152.593 55.6981 152.556 55.7704 152.403 55.8798C152.132 56.0745 151.838 56.0568 151.5 55.8259C151.306 55.6928 151.099 55.4808 150.8 55.1067C150.348 54.5401 150.304 54.4943 149.929 54.2024C149.479 53.8523 149.402 53.7772 149.084 53.3795C148.577 52.7459 148.432 52.6284 147.919 52.4483C147.633 52.3489 147.529 52.2976 147.361 52.1748C147.193 52.0537 147.176 52.0494 146.94 52.0605C146.718 52.071 146.604 52.0948 146.348 52.187C146.087 52.2799 146.027 52.3143 145.892 52.4429C145.641 52.681 145.429 53.0188 145.089 53.7158C144.917 54.0619 144.906 54.0926 144.927 54.1108C145.151 54.2991 145.271 54.4404 145.291 54.54C145.321 54.6946 145.204 54.8558 145.043 54.8852C144.947 54.9019 144.852 54.8816 144.607 54.7905C144.488 54.7455 144.379 54.7082 144.368 54.7062C144.333 54.7005 144.196 54.5741 144.157 54.5098C144.076 54.381 144.053 54.192 144.083 53.9334C144.124 53.5908 144.241 53.2416 144.457 52.8112C144.692 52.3469 144.775 52.1342 144.835 51.8451C144.865 51.6962 144.876 51.6061 144.876 51.4967C144.876 51.4167 144.875 51.3469 144.872 51.3449C144.87 51.3416 144.792 51.339 144.7 51.34C144.49 51.3422 144.304 51.3289 143.798 51.2729C143.324 51.2222 143.204 51.217 142.668 51.2331C142.243 51.2452 142.119 51.2425 141.811 51.2163C141.397 51.1831 141.187 51.2503 140.716 51.5688C140.597 51.6496 140.389 51.7883 140.254 51.8753C140.012 52.0306 139.848 52.1573 139.758 52.2534C139.701 52.3163 139.689 52.3884 139.723 52.4652C139.764 52.5578 139.956 52.8251 140.139 53.0436C140.23 53.1521 140.316 53.2581 140.329 53.2794C140.377 53.3541 140.415 53.3708 140.576 53.3873C140.717 53.4003 140.731 53.4042 140.799 53.4509C140.982 53.5746 141.069 53.8334 140.98 53.9873C140.914 54.0993 140.819 54.1339 140.622 54.1219C140.472 54.1117 139.906 53.9806 139.787 53.9281C139.452 53.7791 139.055 53.3845 138.706 52.8497C138.58 52.657 138.368 52.2841 138.28 52.1022C138.226 51.9911 138.226 51.9897 138.246 51.8819C138.271 51.7395 138.318 51.6614 138.499 51.4651C138.671 51.2789 138.709 51.2186 138.759 51.0611C138.79 50.9626 138.797 50.918 138.8 50.7734C138.804 50.5859 138.791 50.4476 138.77 50.4441C138.762 50.4429 138.65 50.4744 138.519 50.5149C138.222 50.6076 138.205 50.6107 137.696 50.6505C136.816 50.7188 136.528 50.7745 136.257 50.9233C135.908 51.114 135.28 51.8994 135.093 52.3761C135.001 52.6067 134.872 52.6947 134.658 52.674C134.522 52.6602 134.449 52.6199 134.384 52.5203C134.291 52.3776 134.264 52.2206 134.297 52.0129C134.32 51.8774 134.325 51.8621 134.356 51.845C134.385 51.8291 134.395 51.8056 134.421 51.6973C134.47 51.479 134.571 51.3106 134.908 50.8871C135.095 50.6516 135.128 50.601 135.294 50.2954C135.447 50.013 135.507 49.9222 135.636 49.7689C135.762 49.6211 135.82 49.5361 135.858 49.452C135.88 49.4008 135.9 49.3775 135.926 49.3686C135.947 49.3617 136.044 49.3335 136.142 49.3053C136.636 49.1654 137.14 48.8495 137.437 48.4946C137.56 48.3493 137.619 48.2421 137.767 47.9085C137.923 47.5612 137.962 47.4834 138.073 47.296C138.173 47.1305 138.228 47.0671 138.487 46.829C138.733 46.6033 138.855 46.4786 138.861 46.4455C138.863 46.4311 138.852 46.3641 138.835 46.2962C138.726 45.8413 138.49 45.454 137.906 44.7751C137.593 44.4136 137.558 44.3663 137.45 44.1854C137.078 43.5639 136.959 42.9713 137.072 42.2956C137.123 41.9888 137.178 41.807 137.349 41.3824C137.545 40.8982 137.539 40.7448 137.312 40.3827C136.987 39.8668 136.926 39.4258 137.164 39.3337C137.234 39.3067 137.396 39.3277 137.563 39.3837Z" fill="black"/>
</g>
<path d="M154.956 118.947C159.309 102.912 173.93 98.4112 187.638 102.133C195.203 104.187 199.473 106.873 204.144 111.404L200.668 124.207L196.724 123.136C196.866 119.287 197.184 109.931 186.451 107.017C178.433 104.841 171.561 112.764 168.858 122.721C165.891 133.649 168.517 142.901 176.664 145.113C178.474 145.604 181.36 145.971 183.722 145.71L186.601 135.106C187.461 131.937 186.031 130.3 182.087 129.229L183.228 125.026L205.6 131.1L204.459 135.303C201.161 134.407 199.1 135.097 198.239 138.266L194.869 150.68C189.546 151.873 182.671 151.881 173.102 149.283C159.652 145.632 150.602 134.983 154.956 118.947Z" fill="#FFADB3"/>
<path d="M157.719 135.427L94.5984 122.557L96.0139 115.614C102.529 116.943 106.317 115.824 107.406 110.484L116.9 63.918C117.967 58.6847 114.941 56.0654 108.426 54.737L109.842 47.7949L152.67 56.5272L151.254 63.4694C144.739 62.141 138.499 61.6474 137.193 68.0555L126.348 121.243L139.164 123.856C147.815 125.62 153.952 119.529 158.821 109.287L165.229 110.593L157.719 135.427Z" fill="#FFADB3"/>
<path d="M79.6453 128.293L32.2259 139.683L30.2828 131.593C37.8749 129.769 40.7271 126.846 39.2325 120.623L26.199 66.3585C24.7342 60.26 20.8357 58.8268 13.2436 60.6503L11.3006 52.5604L59.8401 40.902C83.2387 35.282 92.8684 41.3941 95.8577 53.8401C97.9204 62.4279 93.4067 73.7799 75.5643 79.5134L75.7138 80.1357C97.415 76.7664 107.224 83.6253 109.885 94.7022C113.412 109.389 106.653 121.806 79.6453 128.293ZM47.9931 52.9622L54.9582 81.9615L60.8079 80.5565C69.3956 78.4939 72.9093 71.1996 70.9064 62.8607C68.8737 54.3974 62.1816 49.5544 53.3449 51.6768L47.9931 52.9622ZM57.0508 90.6737L64.7333 122.66L70.8319 121.195C80.7887 118.804 85.1486 110.648 82.9066 101.314C80.6945 92.1035 73.1061 86.8175 63.1493 89.209L57.0508 90.6737Z" fill="#FFADB3"/>
<path d="M129.695 86.0112C132.489 73.8972 142.566 67.8309 155.171 70.7383C167.776 73.6457 174.178 83.513 171.384 95.627C168.59 107.741 158.513 113.807 145.908 110.9C133.303 107.992 126.901 98.1251 129.695 86.0112ZM141.427 88.7172C139.023 99.1395 140.795 105.41 146.852 106.807C152.909 108.204 157.248 103.343 159.652 92.921C162.056 82.4986 160.284 76.2279 154.227 74.8309C148.17 73.4338 143.831 78.2948 141.427 88.7172Z" fill="#FFADB3"/>
</svg>
