<svg width="197" height="148" viewBox="0 0 197 148" fill="none" xmlns="http://www.w3.org/2000/svg">
<path d="M144.015 128.059L84.6315 117.691L85.7718 111.16C91.9011 112.23 95.4147 111.083 96.2919 106.059L103.941 62.2501C104.801 57.3266 101.901 54.9565 95.7717 53.8863L96.9121 47.3552L137.205 54.3902L136.064 60.9214C129.935 59.8512 124.085 59.5546 123.032 65.5834L114.295 115.622L126.353 117.728C134.492 119.149 140.071 113.289 144.355 103.579L150.384 104.632L144.015 128.059Z" fill="#FFADB3"/>
<g opacity="0.15">
<path d="M118.631 38.5431C118.912 38.6369 119.125 38.7918 119.291 39.0215C119.444 39.2331 119.553 39.5028 119.575 39.725C119.585 39.8132 119.581 39.8686 119.554 40.0336C119.518 40.2649 119.469 40.4036 119.308 40.744C119.201 40.9718 119.103 41.1984 119.061 41.313C119.017 41.4352 118.975 41.7135 118.983 41.8229C119 42.0377 119.082 42.2482 119.227 42.4533C119.369 42.6524 119.475 42.743 119.857 42.9986C120.255 43.2635 120.424 43.4084 120.859 43.8578C121.117 44.1252 121.202 44.2057 121.321 44.2905C121.643 44.523 121.902 44.5825 122.941 44.6639C124.059 44.7515 125.052 45.0106 126.256 45.5322C126.725 45.7353 126.834 45.7585 127.379 45.7673C127.569 45.7704 127.681 45.7792 127.838 45.8048C128.081 45.8431 128.143 45.868 128.481 46.055C128.827 46.2474 128.878 46.2664 129.144 46.3084C129.288 46.3305 129.457 46.3473 129.608 46.3534C130.039 46.3716 130.199 46.3817 130.443 46.4095C130.576 46.4232 130.727 46.4332 130.778 46.4308C131.061 46.4169 131.347 46.3182 131.552 46.161C131.608 46.1194 131.657 46.0861 131.663 46.0872C131.676 46.0893 131.703 46.1309 131.717 46.1746C131.742 46.2519 131.69 46.3875 131.6 46.4794C131.577 46.5011 131.571 46.5135 131.584 46.5102C131.595 46.508 131.655 46.4978 131.719 46.4882C131.866 46.4668 131.905 46.4546 131.977 46.4062L132.034 46.3675L132.014 46.4444C132 46.5007 131.973 46.5523 131.914 46.6373C131.758 46.8586 131.766 46.9145 131.993 47.2288C132.214 47.5354 132.25 47.648 132.225 47.9505C132.21 48.1201 132.211 48.1469 132.237 48.3337C132.245 48.3938 132.251 48.4801 132.249 48.5264L132.245 48.6097L132.125 48.6928C131.936 48.8233 131.795 48.8804 131.644 48.889C131.511 48.8967 130.794 48.7904 130.68 48.7465C130.499 48.6756 130.335 48.6744 130.104 48.7406L129.987 48.7735L129.979 48.8709C129.97 48.9934 129.981 49.2339 130.007 49.4568C130.025 49.6035 130.024 49.6568 130.004 49.8429C129.973 50.1417 129.985 50.2223 130.105 50.4926C130.248 50.8091 130.399 51.0391 130.901 51.6996C131.119 51.9844 131.357 52.3005 131.433 52.4021C131.623 52.6598 131.678 52.7087 131.886 52.8013C132.047 52.8742 132.145 52.9689 132.184 53.0912C132.218 53.1981 132.185 53.2634 132.048 53.3623C131.804 53.5385 131.539 53.5234 131.234 53.3164C131.058 53.197 130.872 53.0066 130.601 52.6705C130.192 52.1612 130.152 52.1201 129.814 51.8582C129.408 51.5441 129.338 51.4767 129.051 51.1192C128.592 50.5499 128.46 50.4444 127.998 50.2836C127.74 50.1949 127.646 50.149 127.494 50.0389C127.343 49.9303 127.328 49.9265 127.115 49.9371C126.915 49.9472 126.812 49.969 126.582 50.0528C126.347 50.1373 126.293 50.1684 126.172 50.2846C125.947 50.4999 125.756 50.8048 125.452 51.4337C125.298 51.746 125.289 51.7738 125.307 51.7901C125.509 51.9591 125.618 52.0861 125.636 52.1757C125.664 52.3149 125.559 52.4605 125.414 52.4875C125.328 52.5027 125.242 52.4847 125.021 52.4034C124.913 52.3632 124.815 52.3299 124.805 52.3282C124.774 52.3231 124.65 52.2096 124.614 52.1518C124.542 52.0359 124.52 51.8658 124.546 51.6327C124.582 51.3239 124.686 51.009 124.88 50.6206C125.09 50.2016 125.164 50.0097 125.217 49.7491C125.245 49.6149 125.254 49.5337 125.254 49.4351C125.254 49.363 125.252 49.3001 125.25 49.2984C125.247 49.2954 125.177 49.2933 125.095 49.2945C124.906 49.297 124.737 49.2856 124.282 49.2366C123.854 49.1923 123.746 49.1879 123.264 49.204C122.881 49.2161 122.769 49.214 122.491 49.1913C122.119 49.1626 121.929 49.2237 121.506 49.512C121.399 49.5851 121.212 49.7107 121.09 49.7895C120.873 49.9301 120.726 50.0447 120.645 50.1316C120.593 50.1884 120.583 50.2534 120.614 50.3225C120.651 50.4058 120.824 50.646 120.99 50.8424C121.073 50.9398 121.15 51.0351 121.162 51.0543C121.205 51.1214 121.24 51.1364 121.385 51.1508C121.512 51.1621 121.525 51.1655 121.586 51.2075C121.751 51.3184 121.83 51.5513 121.75 51.6902C121.691 51.7913 121.607 51.8228 121.429 51.8125C121.293 51.8037 120.784 51.6873 120.676 51.6403C120.373 51.507 120.015 51.1527 119.699 50.6718C119.585 50.4986 119.392 50.1633 119.313 49.9996C119.264 49.8997 119.264 49.8984 119.281 49.8012C119.304 49.6729 119.346 49.6024 119.509 49.425C119.662 49.2567 119.696 49.2023 119.741 49.0602C119.769 48.9714 119.775 48.9312 119.778 48.801C119.78 48.632 119.769 48.5075 119.749 48.5043C119.743 48.5033 119.641 48.532 119.523 48.5688C119.256 48.6532 119.241 48.6561 118.783 48.6934C117.99 48.7574 117.73 48.8085 117.486 48.9433C117.173 49.1162 116.609 49.8255 116.442 50.2556C116.36 50.4636 116.244 50.5432 116.051 50.5252C115.928 50.5131 115.863 50.4771 115.804 50.3875C115.72 50.2592 115.695 50.1178 115.724 49.9306C115.744 49.8085 115.749 49.7947 115.777 49.7792C115.803 49.7648 115.812 49.7436 115.835 49.6459C115.879 49.4491 115.969 49.2971 116.271 48.9146C116.439 48.7019 116.469 48.6561 116.618 48.3804C116.755 48.1255 116.808 48.0435 116.924 47.905C117.037 47.7715 117.089 47.6948 117.123 47.6189C117.143 47.5728 117.161 47.5517 117.184 47.5436C117.203 47.5373 117.291 47.5116 117.379 47.4859C117.823 47.3584 118.276 47.0724 118.543 46.7518C118.653 46.6205 118.706 46.5238 118.839 46.2228C118.978 45.9095 119.013 45.8393 119.112 45.6702C119.202 45.5208 119.251 45.4635 119.484 45.2482C119.705 45.0442 119.815 44.9314 119.82 44.9016C119.822 44.8886 119.812 44.8283 119.796 44.7671C119.697 44.3577 119.483 44.0094 118.955 43.3995C118.672 43.0746 118.64 43.0322 118.542 42.8695C118.205 42.3106 118.097 41.777 118.196 41.168C118.241 40.8914 118.29 40.7274 118.443 40.3444C118.618 39.9076 118.613 39.7694 118.407 39.4439C118.113 38.98 118.057 38.5829 118.271 38.4992C118.333 38.4747 118.479 38.4931 118.631 38.5431Z" fill="black"/>
</g>
<path d="M141.91 112.162C145.679 98.2805 158.336 94.3846 170.202 97.6062C176.751 99.3842 180.447 101.71 184.49 105.632L181.481 116.715L178.067 115.788C178.19 112.456 178.466 104.357 169.174 101.835C162.233 99.9503 156.285 106.809 153.944 115.429C151.376 124.889 153.649 132.898 160.702 134.813C162.269 135.238 164.767 135.556 166.812 135.33L169.304 126.15C170.049 123.407 168.811 121.99 165.396 121.063L166.384 117.424L185.751 122.682L184.763 126.32C181.909 125.545 180.124 126.143 179.379 128.885L176.462 139.632C171.854 140.665 165.902 140.672 157.618 138.423C145.976 135.262 138.141 126.044 141.91 112.162Z" fill="#FFADB3"/>
<path d="M76.4093 129.071L32.7237 139.563L31.0497 132.593C38.6418 130.77 41.494 127.847 39.9994 121.624L26.4278 65.1188C24.963 59.0202 21.0645 57.5871 13.4724 59.4106L11.7984 52.4408L56.6041 41.6792C77.7624 36.5973 88.2633 42.5001 91.2527 54.9462C93.3153 63.534 88.8017 74.886 73.1996 80.0814L73.349 80.7037C92.81 77.8725 102.619 84.7313 105.28 95.8083C108.807 110.495 101.177 123.122 76.4093 129.071ZM43.9902 52.7389L51.344 83.3562L58.9361 81.5327C69.7641 78.9319 72.9788 70.393 70.9461 61.9297C68.8834 53.342 61.9125 48.4343 51.9557 50.8257L43.9902 52.7389ZM53.1675 90.9482L61.2686 124.677L69.9808 122.584C80.0621 120.163 85.6666 111.708 83.1854 101.378C80.764 91.2969 71.961 86.4343 61.8797 88.8557L53.1675 90.9482Z" fill="#FFADB3"/>
<path d="M115.09 85.3389C117.468 74.4965 126.406 68.9828 137.688 71.4565C148.97 73.9301 154.781 82.6777 152.404 93.5202C150.027 104.363 141.088 109.876 129.806 107.403C118.524 104.929 112.713 96.1813 115.09 85.3389ZM125.591 87.6412C123.546 96.9696 125.188 102.551 130.61 103.74C136.031 104.928 139.858 100.546 141.903 91.2178C143.949 81.8894 142.306 76.3081 136.885 75.1195C131.464 73.9308 127.636 78.3128 125.591 87.6412Z" fill="#FFADB3"/>
</svg>
