<?xml version="1.0" standalone="no"?>
<!DOCTYPE svg PUBLIC "-//W3C//DTD SVG 20010904//EN"
 "http://www.w3.org/TR/2001/REC-SVG-20010904/DTD/svg10.dtd">
<svg version="1.0" xmlns="http://www.w3.org/2000/svg"
 width="1280.000000pt" height="1006.000000pt" viewBox="0 0 1280.000000 1006.000000"
 preserveAspectRatio="xMidYMid meet">
<metadata>
Created by potrace 1.15, written by Peter Selinger 2001-2017
</metadata>
<g transform="translate(0.000000,1006.000000) scale(0.100000,-0.100000)"
fill="#000000" stroke="none">
<path d="M8655 10039 c-71 -10 -182 -23 -245 -29 -63 -6 -302 -32 -530 -57
-311 -34 -457 -46 -580 -47 -165 -1 -165 -1 -237 31 -40 17 -75 28 -78 23 -7
-11 51 -55 84 -65 18 -6 21 -9 10 -15 -30 -16 -110 -21 -144 -9 -31 11 -45 10
-112 -10 -43 -12 -85 -28 -93 -36 -8 -7 -41 -25 -72 -39 -70 -33 -109 -78
-147 -171 -43 -104 -56 -182 -41 -245 14 -60 7 -78 -10 -25 -16 49 -47 45 -42
-5 2 -19 7 -40 11 -47 3 -7 62 -71 129 -142 147 -156 201 -187 367 -215 55
-10 118 -25 140 -35 23 -10 65 -24 95 -31 81 -19 88 -24 57 -45 -43 -28 -132
-31 -204 -6 -39 13 -88 21 -130 21 -97 0 -240 18 -271 34 -15 7 -43 17 -62 21
-19 4 -49 20 -66 34 -16 15 -44 33 -62 40 -42 18 -40 29 6 33 l37 3 -43 28
c-23 15 -47 38 -52 50 -6 12 -24 45 -40 72 -69 115 -86 197 -56 269 20 47 20
56 2 56 -19 0 -56 -47 -56 -71 0 -11 -4 -19 -10 -19 -19 0 -10 79 15 126 14
26 25 52 25 59 0 7 28 44 63 84 73 83 182 156 300 201 93 37 256 56 320 39 45
-12 58 -6 35 17 -12 12 -37 16 -111 15 -117 -1 -254 -35 -380 -93 -83 -38 -93
-40 -149 -34 -70 8 -206 40 -262 62 -66 26 -132 34 -166 22 -21 -7 -35 -7 -41
-1 -7 7 3 12 30 17 51 8 59 21 30 52 -31 33 -59 31 -184 -16 -137 -52 -159
-63 -217 -112 l-48 -39 -97 17 c-54 9 -132 27 -174 40 -42 13 -128 35 -190 49
l-114 25 -15 -20 c-9 -12 -19 -17 -25 -12 -14 13 -134 36 -142 28 -4 -4 2 -15
13 -26 14 -14 81 -30 264 -65 335 -63 432 -83 443 -94 6 -6 1 -35 -13 -78 -13
-37 -25 -74 -26 -81 -3 -9 -14 -11 -36 -7 -18 3 -121 21 -228 41 -193 35 -285
43 -303 25 -13 -13 18 -28 78 -36 28 -4 77 -16 110 -26 33 -10 101 -25 150
-34 118 -21 125 -24 125 -42 0 -8 17 -36 38 -62 41 -49 127 -178 183 -275 35
-61 119 -160 149 -176 9 -5 52 -14 96 -19 43 -6 106 -15 139 -21 33 -5 105
-14 160 -20 55 -6 154 -24 220 -40 66 -16 167 -34 225 -40 58 -6 123 -15 145
-20 22 -5 54 -10 72 -10 37 0 48 -12 34 -38 -7 -14 -31 -21 -100 -30 -218 -29
-510 -105 -710 -185 -101 -40 -109 -46 -215 -147 -104 -99 -190 -161 -261
-188 -65 -25 -253 -63 -339 -69 -182 -12 -275 31 -338 156 -21 40 -38 86 -38
102 0 37 31 105 69 153 36 45 36 46 16 46 -8 0 -33 -16 -54 -35 -30 -28 -45
-54 -65 -111 -29 -86 -29 -83 42 -206 43 -73 48 -78 115 -109 69 -31 72 -32
221 -32 145 -1 156 1 278 36 70 20 147 46 170 58 46 23 125 88 249 205 93 88
148 118 304 163 39 11 115 34 170 51 155 47 425 93 425 72 0 -23 -87 -55 -302
-112 -291 -77 -343 -117 -885 -674 -70 -72 -122 -104 -179 -112 -31 -3 -74
-16 -97 -28 -35 -19 -49 -21 -87 -14 -86 17 -270 -16 -270 -47 0 -8 15 -22 33
-31 60 -31 61 -34 17 -74 -26 -24 -40 -46 -40 -62 0 -25 27 -58 48 -58 25 0
10 -38 -34 -91 -44 -50 -185 -220 -228 -275 -19 -23 -19 -24 -2 -37 18 -13 16
-16 -19 -52 -102 -101 -239 -153 -376 -142 -198 17 -314 169 -247 325 21 49
28 55 81 77 80 32 122 39 136 21 18 -22 25 -81 12 -105 -15 -27 -31 -28 -24
-1 7 26 -6 25 -47 -2 -43 -30 -47 -45 -16 -59 39 -18 102 3 121 41 20 39 19
76 -5 129 l-20 44 -68 -5 c-54 -4 -79 -12 -128 -42 -54 -32 -65 -44 -89 -97
-22 -50 -26 -69 -20 -107 15 -104 59 -164 165 -225 47 -27 65 -31 135 -33 115
-4 147 -11 141 -32 -2 -9 -7 -113 -11 -231 l-7 -214 -34 -80 c-68 -159 -121
-226 -196 -247 -29 -9 -35 -6 -74 33 -45 45 -63 90 -47 116 5 9 30 27 56 40
53 26 53 41 -1 41 -45 0 -76 -20 -98 -62 -32 -62 10 -156 90 -198 l42 -23 58
26 c68 31 143 90 152 120 7 21 7 21 14 2 6 -18 8 -18 22 5 27 42 56 170 63
275 8 114 25 209 57 310 26 84 93 178 202 282 41 40 77 81 81 92 6 18 52 38
63 26 3 -3 -10 -18 -29 -34 -40 -34 -34 -46 34 -71 23 -9 43 -23 45 -33 2 -11
-27 -47 -82 -100 -84 -80 -97 -104 -77 -136 7 -11 17 -8 53 13 81 47 91 27 26
-51 -166 -199 -213 -284 -176 -321 7 -7 32 -12 57 -12 72 0 76 -7 51 -79 -11
-34 -43 -105 -70 -157 -27 -52 -53 -118 -59 -145 -18 -85 -164 -347 -251 -452
-87 -104 -228 -243 -310 -304 -78 -58 -367 -203 -416 -210 -50 -6 -84 20 -84
66 0 33 17 43 59 35 16 -3 39 -1 51 6 13 7 56 20 96 30 91 21 119 40 128 81 3
18 17 46 30 63 13 17 26 42 31 56 4 14 14 35 22 48 24 38 2 55 -64 46 -51 -6
-53 -5 -53 17 0 13 7 37 15 53 20 38 14 52 -24 61 -45 10 -71 48 -71 104 0 85
-37 93 -122 26 -56 -44 -59 -45 -100 -36 -50 12 -168 -11 -193 -36 -11 -10
-15 -37 -15 -93 0 -94 -11 -110 -75 -110 -56 0 -63 -18 -35 -96 11 -32 20 -66
20 -76 0 -39 -82 -42 -102 -5 -14 28 -14 89 2 127 27 65 -49 83 -125 29 -37
-27 -45 -29 -63 -18 -16 10 -29 10 -57 2 -33 -11 -38 -10 -42 7 -6 22 -47 31
-85 18 -35 -12 -36 -23 -2 -41 14 -7 31 -24 37 -38 11 -21 19 -24 67 -22 89 2
126 13 156 44 15 16 31 29 35 29 4 0 11 -29 14 -65 6 -49 15 -75 37 -106 30
-41 30 -41 83 -37 77 6 89 20 81 88 -3 30 -9 67 -12 83 -5 23 -3 27 16 27 13
0 37 15 56 36 27 28 34 44 34 76 0 35 3 40 19 35 30 -7 59 19 63 56 2 26 8 33
30 35 15 2 41 -4 58 -13 35 -18 33 -19 107 47 49 44 63 47 63 16 0 -12 10 -55
22 -95 16 -52 27 -73 38 -73 24 0 30 -10 18 -30 -9 -14 -7 -26 6 -54 15 -31
22 -36 51 -36 30 0 35 -3 35 -23 0 -14 -14 -37 -35 -56 -25 -23 -35 -40 -35
-62 0 -26 -6 -32 -47 -51 -34 -15 -70 -22 -123 -23 -78 -1 -103 -9 -134 -44
-23 -25 -17 -82 14 -123 l20 -27 -47 -32 c-53 -37 -141 -52 -168 -29 -22 18
-19 29 10 36 34 8 32 20 -6 33 -26 9 -29 14 -23 33 20 66 62 113 125 138 93
38 259 167 259 200 0 17 -29 11 -39 -9 -13 -23 -131 -114 -139 -106 -3 3 6 18
21 33 31 32 80 135 75 159 -7 35 -25 21 -52 -42 -15 -36 -32 -65 -36 -65 -4 0
-10 41 -12 91 -3 50 -11 96 -17 102 -6 6 -12 9 -13 7 0 -3 -4 -72 -7 -155 l-6
-149 -40 -8 c-61 -13 -121 -79 -154 -170 -6 -16 -14 -28 -19 -28 -5 0 -30 18
-55 40 -40 36 -67 50 -67 35 0 -16 51 -71 93 -101 38 -27 47 -40 47 -64 0 -26
-4 -30 -38 -36 -62 -12 -99 -7 -144 20 -24 14 -70 38 -103 54 -33 16 -68 38
-77 48 -26 30 -47 86 -54 149 -8 64 -19 77 -36 40 -9 -20 -8 -41 5 -102 11
-49 13 -81 7 -87 -17 -17 -117 12 -139 40 -23 29 -41 105 -41 174 0 27 -4 52
-10 55 -20 12 -10 51 20 77 42 37 38 48 -18 48 -74 0 -106 -52 -66 -108 8 -12
14 -30 12 -40 -3 -13 -12 -8 -49 26 -40 36 -52 42 -90 42 -69 0 -298 -37 -314
-50 -19 -16 -19 -56 0 -64 24 -9 17 -30 -20 -63 -43 -38 -44 -49 -5 -71 34
-19 36 -28 14 -53 -24 -27 -11 -65 27 -78 17 -6 61 -13 97 -16 131 -12 132
-12 132 -50 0 -46 -34 -70 -91 -62 -42 5 -79 30 -79 53 0 7 -12 22 -27 34 -49
39 -177 9 -290 -68 -99 -67 -128 -119 -73 -132 23 -5 16 -12 -72 -79 -54 -40
-100 -82 -104 -94 -6 -19 9 -39 40 -50 6 -3 -16 -33 -50 -68 -77 -80 -94 -106
-94 -142 0 -43 -24 -80 -87 -136 -55 -48 -57 -52 -39 -66 11 -8 40 -14 75 -13
39 1 72 -6 108 -23 50 -23 52 -25 47 -56 -5 -29 -3 -33 21 -39 15 -4 61 -4
103 -1 76 6 76 6 114 -29 35 -31 44 -34 99 -34 90 0 255 36 327 72 53 27 65
29 73 17 5 -8 9 -17 9 -20 0 -8 43 -24 95 -35 l40 -9 8 -90 c4 -49 5 -103 2
-119 -5 -26 -3 -28 22 -21 15 3 49 24 76 46 27 21 55 39 61 39 6 0 29 -12 51
-25 22 -14 48 -25 58 -25 27 0 95 38 107 60 22 40 80 74 141 81 73 8 123 39
179 110 60 76 110 105 196 113 71 7 71 7 113 -29 24 -19 46 -35 49 -35 18 1
58 34 160 130 84 78 116 115 129 148 13 34 25 48 50 59 46 18 56 51 48 145 -6
69 -5 80 14 104 13 16 21 41 21 63 0 32 -9 45 -67 103 -121 119 -242 151 -334
88 -47 -32 -69 -36 -100 -20 -22 12 -25 42 -6 58 7 6 44 18 82 28 39 9 105 35
149 56 96 48 307 138 323 138 11 0 124 90 260 208 30 26 62 65 72 88 22 48 87
124 107 124 8 0 32 -6 54 -12 29 -10 40 -18 40 -33 0 -69 -84 -934 -100 -1035
-6 -36 -15 -101 -21 -145 -5 -44 -27 -132 -48 -195 -22 -63 -44 -134 -50 -156
-12 -46 -74 -103 -141 -129 -64 -26 -149 -71 -181 -97 -105 -84 -171 -278
-125 -366 32 -62 64 -79 159 -87 63 -5 87 -11 87 -20 0 -15 -15 -21 -82 -31
-59 -8 -61 -23 -11 -60 47 -35 93 -76 93 -84 0 -3 -15 -14 -33 -24 -69 -40
-121 -106 -83 -106 8 0 24 -9 37 -20 l24 -20 -33 -30 c-32 -30 -62 -39 -62
-20 0 28 -32 3 -61 -47 -20 -36 -79 -104 -153 -178 -229 -228 -402 -295 -760
-295 -133 0 -157 2 -147 14 6 7 39 21 74 30 94 26 157 49 157 58 0 5 -5 17
-12 28 -11 17 -8 24 16 48 l27 30 -15 52 c-17 58 -17 60 41 144 43 63 35 72
-51 56 -84 -16 -114 -9 -118 28 -3 25 -7 27 -61 33 -78 9 -101 30 -92 85 5 39
3 46 -45 104 -27 35 -50 70 -50 79 0 9 11 36 25 60 14 23 25 47 25 53 0 6 -33
8 -82 6 -80 -3 -82 -2 -88 22 -9 35 -32 30 -121 -25 -41 -25 -90 -50 -109 -55
-51 -14 -83 -46 -77 -78 7 -38 -2 -52 -33 -52 -32 0 -70 -40 -70 -72 0 -10 10
-36 22 -57 19 -33 20 -41 9 -55 -23 -28 -58 -19 -91 22 -17 22 -51 49 -77 62
-42 21 -53 22 -150 16 l-104 -7 17 26 c9 14 14 28 11 31 -3 4 -66 7 -139 8
-123 1 -137 3 -188 28 -30 15 -66 36 -80 47 -37 29 -65 34 -84 16 -12 -12 -13
-21 -6 -35 7 -14 5 -19 -10 -23 -16 -4 -20 -14 -20 -45 0 -35 4 -43 35 -61 25
-15 35 -27 35 -46 0 -14 -5 -25 -11 -25 -6 0 -41 27 -77 60 -53 48 -86 67
-167 100 -129 51 -197 64 -313 56 -112 -7 -148 -22 -219 -94 -42 -43 -53 -61
-53 -86 0 -39 37 -77 98 -102 38 -15 51 -15 100 -4 76 17 110 35 118 64 15 61
-18 87 -41 33 -21 -51 -49 -67 -118 -67 -51 0 -62 4 -88 29 -16 16 -29 35 -29
41 0 21 92 109 138 131 40 20 61 23 147 22 238 -3 398 -104 499 -316 39 -83
76 -199 76 -242 0 -14 -7 -16 -42 -10 -24 4 -54 15 -68 26 -14 10 -38 26 -55
35 -16 9 -44 30 -62 46 -35 34 -117 58 -196 58 -44 0 -51 -4 -93 -47 -50 -51
-91 -131 -105 -203 -9 -45 -54 -100 -82 -100 -7 0 -21 -13 -30 -30 -22 -36
-14 -53 40 -99 95 -80 97 -85 63 -128 -11 -14 -20 -35 -20 -45 0 -15 -4 -18
-17 -13 -37 15 -81 22 -94 15 -8 -6 -2 -13 22 -23 70 -29 76 -50 71 -215 -1
-48 -6 -74 -14 -76 -7 -2 -65 -12 -128 -21 -141 -20 -174 -14 -311 55 -99 50
-169 71 -169 51 0 -7 21 -21 48 -31 26 -11 79 -36 117 -56 192 -100 302 -129
448 -117 37 3 67 2 67 -3 -1 -5 -11 -29 -23 -54 -20 -40 -26 -45 -60 -48 -25
-2 -49 4 -71 17 -67 42 -126 22 -126 -42 0 -26 -16 -37 -57 -37 -17 0 -43 19
-87 65 -34 35 -79 72 -101 81 -22 9 -47 22 -55 29 -8 7 -26 16 -40 19 -58 16
-82 30 -95 56 -9 17 -31 33 -60 44 -31 12 -45 23 -43 34 3 14 111 97 182 140
16 9 61 38 100 64 51 33 89 50 134 59 75 14 93 5 68 -34 -14 -21 -15 -26 -2
-36 19 -16 52 0 61 29 7 21 -18 66 -45 80 -18 9 -129 -3 -171 -19 -14 -5 -47
-27 -75 -49 -28 -22 -69 -49 -90 -60 -36 -18 -108 -68 -176 -121 -31 -25 -47
-79 -27 -92 8 -5 31 -14 51 -19 26 -7 43 -20 53 -40 11 -20 31 -34 72 -50 32
-12 65 -27 73 -34 8 -7 31 -19 50 -26 19 -8 65 -43 103 -79 63 -60 71 -65 120
-68 65 -5 100 12 107 52 6 35 20 36 90 10 79 -29 149 4 166 78 26 120 127 161
378 155 152 -3 177 -14 102 -42 -24 -9 -99 -51 -166 -93 -98 -61 -134 -91
-189 -154 -91 -105 -156 -218 -179 -310 -11 -41 -26 -88 -35 -106 -28 -53 -46
-151 -62 -334 -22 -253 -48 -375 -96 -455 -20 -33 -80 -64 -123 -64 -29 0 -89
24 -104 42 -36 44 -18 161 30 187 40 23 78 3 78 -42 0 -19 3 -37 7 -40 13 -13
33 16 33 49 0 87 -139 83 -185 -5 -20 -39 -20 -130 0 -158 9 -13 39 -29 67
-38 121 -36 203 -8 249 84 15 30 29 66 32 80 3 14 14 50 25 79 l19 52 25 -37
c14 -21 33 -51 42 -67 19 -30 67 -75 121 -114 71 -51 251 -69 330 -33 44 20
95 73 95 98 0 38 -26 96 -53 119 -33 28 -97 34 -97 9 0 -8 9 -15 19 -15 28 0
70 -40 80 -76 20 -72 -39 -114 -159 -114 -41 0 -91 5 -110 10 -53 15 -149 97
-207 178 -71 99 -81 151 -59 288 9 56 16 124 16 151 0 76 19 162 50 228 15 33
36 82 47 108 10 27 54 96 98 155 62 83 96 118 150 155 115 80 187 119 245 133
30 8 87 30 125 50 71 37 128 49 361 73 44 5 114 18 155 30 205 57 368 57 589
-2 25 -7 82 -11 128 -9 45 1 82 0 82 -4 0 -3 -30 -62 -67 -132 -53 -99 -84
-143 -144 -205 l-76 -79 -36 15 c-19 9 -59 34 -87 56 -66 52 -128 70 -266 78
-126 7 -154 2 -133 -23 12 -14 9 -20 -16 -40 -29 -23 -29 -24 -7 -24 14 0 36
13 53 31 l29 31 92 -11 c103 -12 183 -45 252 -105 l39 -34 -16 -41 c-10 -23
-17 -50 -17 -61 0 -16 -7 -20 -36 -20 -45 0 -83 38 -115 115 -12 30 -29 55
-36 55 -18 0 -9 -38 24 -108 14 -29 22 -56 19 -59 -10 -11 -117 62 -136 93
-11 17 -28 39 -39 49 -19 16 -21 17 -27 1 -4 -10 -1 -28 6 -41 7 -13 10 -28 6
-33 -3 -6 4 -14 16 -18 13 -4 39 -17 58 -29 19 -13 52 -29 73 -36 20 -7 37
-16 37 -20 0 -6 -161 -79 -174 -79 -3 0 -3 13 0 28 7 34 -28 84 -46 66 -8 -8
-8 -18 2 -39 11 -25 10 -29 -11 -47 -33 -26 -55 -19 -59 17 -6 51 -19 58 -90
52 -40 -4 -96 -20 -150 -43 -107 -46 -125 -59 -111 -86 8 -15 7 -24 -6 -38
-35 -39 -100 -75 -178 -100 -80 -25 -100 -44 -67 -60 159 -78 204 -105 269
-158 57 -47 79 -74 90 -104 11 -32 21 -43 57 -58 46 -20 51 -29 33 -62 -11
-20 -33 -277 -25 -286 3 -2 20 1 39 7 40 14 80 2 92 -26 4 -10 10 -45 14 -78
6 -57 7 -60 33 -58 24 1 141 53 198 87 14 8 52 27 85 41 99 45 104 47 154 90
27 23 70 54 95 69 25 15 46 30 46 34 0 3 -12 16 -27 28 -23 18 -25 24 -14 37
25 31 47 29 86 -7 l38 -35 48 25 c27 13 51 24 54 24 3 0 17 -25 31 -56 14 -32
30 -54 37 -51 6 2 26 28 42 58 22 38 43 61 73 77 32 18 44 32 51 60 12 42 16
219 6 243 -3 9 -24 31 -46 48 -21 18 -39 36 -39 42 0 5 41 9 101 8 61 -1 104
2 111 9 8 8 0 27 -28 67 -22 31 -54 80 -71 108 -18 29 -42 60 -54 69 -11 10
-30 47 -41 83 -16 55 -30 78 -85 136 l-67 70 -63 -7 c-40 -4 -63 -3 -63 4 0 5
43 54 95 108 52 55 95 102 95 106 0 17 147 162 195 194 28 18 103 59 166 90
119 60 238 146 266 195 10 16 20 29 24 29 4 0 9 9 12 21 3 12 11 19 17 17 15
-5 80 -161 126 -303 35 -106 36 -113 26 -180 -12 -78 -29 -100 -87 -111 -87
-16 -150 90 -89 150 21 21 27 20 39 -6 14 -31 34 -34 44 -7 20 56 -23 83 -92
58 -48 -17 -77 -64 -77 -127 0 -81 80 -125 191 -104 34 6 68 17 77 24 29 25
45 83 50 189 5 105 -5 160 -49 279 -12 34 -29 154 -29 213 0 46 2 49 37 64 21
8 74 18 118 20 72 5 83 3 115 -19 19 -13 40 -34 47 -48 15 -29 44 -45 103 -55
65 -11 76 -19 90 -70 11 -38 20 -50 47 -63 34 -16 36 -16 91 14 202 107 281
144 305 144 13 0 17 -9 17 -44 0 -38 -5 -48 -35 -75 -20 -17 -37 -31 -38 -31
-1 0 -29 -4 -61 -10 -101 -16 -144 -81 -95 -144 25 -32 52 -33 104 -1 51 32
87 32 119 0 19 -19 24 -32 20 -57 -4 -25 3 -46 28 -88 43 -72 67 -76 129 -22
l45 40 29 -24 c59 -46 65 -54 65 -84 0 -19 7 -33 19 -40 24 -12 81 -13 100 -1
21 14 3 31 -32 31 -26 0 -36 6 -50 32 -28 51 -103 128 -124 128 -11 0 -42 -16
-69 -35 -59 -42 -70 -36 -80 50 -4 33 -12 67 -19 75 -7 8 -15 24 -17 35 -5 28
-62 31 -150 10 -55 -14 -71 -15 -83 -5 -25 21 6 46 72 59 79 15 141 48 158 82
8 15 15 53 15 84 0 50 -2 56 -26 65 -14 6 -35 10 -47 10 -19 0 -131 -48 -281
-121 -33 -16 -65 -29 -72 -29 -19 0 -44 40 -44 70 0 40 -18 50 -92 50 -58 0
-71 3 -86 21 -69 85 -70 86 -130 93 -102 12 -132 18 -132 26 0 17 123 79 139
70 9 -4 41 -11 71 -14 30 -4 90 -14 133 -22 62 -12 85 -13 107 -4 16 6 37 10
47 8 13 -2 -1 -15 -47 -42 -79 -47 -100 -65 -100 -83 0 -24 24 -14 115 50 75
52 167 97 198 97 15 0 6 -27 -14 -46 -12 -10 -32 -38 -46 -62 -20 -34 -23 -46
-14 -55 10 -9 17 -7 32 12 10 13 19 29 19 35 0 7 12 23 26 37 14 13 36 44 49
69 12 25 32 64 44 88 28 55 46 54 60 -5 11 -40 10 -52 -5 -85 -17 -37 -17 -39
2 -53 10 -8 22 -15 26 -15 10 0 135 126 182 184 l40 49 23 -27 c31 -36 29 -73
-7 -129 -67 -106 -81 -151 -64 -214 10 -37 22 -26 29 25 6 51 42 130 80 177
l24 29 24 -22 c13 -13 36 -47 51 -77 33 -63 30 -91 -15 -159 -46 -68 -70 -147
-61 -193 11 -51 25 -48 34 7 5 25 13 62 19 83 12 43 85 163 100 161 5 -1 13
-2 19 -2 16 -3 47 -72 74 -167 30 -103 30 -106 12 -99 -9 4 -22 -16 -40 -62
-15 -37 -34 -77 -42 -88 -15 -22 -19 -56 -6 -56 15 0 37 32 68 97 16 35 32 63
35 63 4 0 11 -36 17 -79 7 -56 17 -90 33 -113 19 -26 24 -29 27 -15 2 10 -1
32 -8 50 -6 18 -13 66 -17 107 l-6 75 126 -122 c114 -111 157 -142 157 -113 0
5 -56 65 -124 132 -75 76 -136 145 -155 180 -18 32 -37 61 -42 64 -15 9 -11
74 5 74 8 0 45 -16 83 -36 37 -20 82 -43 98 -52 17 -8 45 -26 63 -40 30 -22
33 -28 27 -59 -5 -30 -4 -34 12 -31 20 4 39 48 30 72 -7 19 -126 97 -217 142
-58 28 -156 99 -217 155 -19 18 -73 103 -73 117 0 2 15 2 32 -1 18 -3 85 -15
148 -26 170 -30 213 -40 224 -51 17 -17 48 -12 44 7 -2 13 -21 21 -73 30 -266
47 -415 97 -455 153 -17 25 -27 60 -16 60 2 0 32 -10 67 -21 45 -15 106 -24
204 -29 89 -5 156 -14 185 -25 25 -9 61 -23 80 -30 76 -29 42 12 -40 49 -53
24 -80 28 -208 35 -113 7 -160 13 -202 30 -114 45 -160 94 -175 189 -7 41 -6
42 23 42 37 0 99 -21 177 -59 33 -17 101 -44 150 -62 50 -17 124 -50 165 -72
41 -22 91 -49 110 -59 35 -18 75 -23 104 -12 28 11 17 21 -26 28 -41 6 -228
94 -228 107 0 4 20 10 45 13 37 6 53 16 94 59 105 112 132 148 121 163 -17 19
-5 46 46 109 32 39 52 55 69 55 13 0 26 -4 30 -9 3 -6 29 -2 61 9 31 11 78 23
105 26 46 6 53 4 79 -21 23 -22 46 -30 107 -40 43 -7 91 -18 106 -24 24 -9 26
-13 17 -32 -16 -29 0 -44 73 -69 34 -11 67 -24 74 -28 7 -5 -27 -43 -97 -107
-102 -93 -124 -125 -100 -140 19 -12 10 -23 -37 -46 -27 -13 -72 -48 -102 -78
l-53 -56 -213 -5 c-117 -3 -217 -8 -221 -13 -14 -14 -8 -70 10 -82 9 -7 38
-16 64 -19 150 -20 182 -29 220 -61 20 -18 56 -68 80 -112 46 -87 46 -86 -15
-117 -28 -14 -33 -22 -33 -51 0 -27 -4 -35 -18 -35 -10 0 -26 -6 -35 -13 -17
-11 -16 -17 12 -83 16 -40 32 -86 36 -102 6 -28 4 -32 -22 -37 -15 -3 -41 -12
-58 -20 -16 -7 -43 -16 -58 -20 -37 -8 -74 -48 -82 -88 -4 -18 -14 -56 -23
-86 l-16 -53 -58 6 c-57 7 -57 7 -93 -33 l-36 -40 -77 62 c-42 34 -103 88
-135 119 -55 54 -77 68 -77 51 0 -22 47 -78 129 -153 50 -46 100 -99 111 -117
11 -18 25 -33 32 -33 7 0 35 25 61 55 27 30 55 55 64 55 8 0 29 -11 45 -25 17
-14 37 -25 46 -23 9 2 25 43 47 121 37 137 51 158 91 137 24 -14 28 -13 48 11
13 17 35 28 60 32 22 4 44 11 49 16 17 17 9 76 -18 136 -14 32 -25 61 -25 65
0 5 16 14 35 20 44 15 50 24 30 53 -14 22 -13 25 9 46 23 22 26 22 48 7 53
-37 63 -7 21 64 -14 25 -38 70 -53 100 -29 58 -86 117 -141 146 -18 9 -72 20
-121 24 -81 6 -121 20 -106 36 18 18 100 24 251 18 l167 -7 68 73 c41 45 83
80 110 91 40 18 43 21 41 53 -4 37 7 52 99 142 47 46 74 62 160 95 40 16 19
32 -66 50 -111 24 -138 38 -134 70 3 34 -36 55 -149 80 -51 11 -96 22 -101 25
-5 3 -2 16 6 29 28 42 2 47 -118 23 -94 -19 -112 -20 -157 -9 -48 13 -51 12
-89 -14 -21 -15 -47 -39 -56 -54 -9 -14 -46 -65 -81 -113 -68 -92 -95 -108
-146 -89 -14 6 -34 22 -43 37 -18 26 -18 27 9 50 15 13 27 28 27 33 0 6 22 26
49 43 44 29 56 46 105 143 30 61 65 125 76 142 l22 33 -29 10 c-47 17 -58 26
-58 51 0 13 -3 29 -7 35 -12 19 -91 26 -163 14 -73 -12 -105 -7 -105 16 0 16
-57 44 -91 44 -24 0 -164 -74 -223 -118 -39 -29 -40 -29 -70 -12 -17 10 -48
21 -69 24 l-37 7 0 79 c0 132 -22 253 -86 470 -12 41 -16 95 -15 216 1 89 -3
173 -8 187 -6 15 -6 28 0 34 15 15 47 336 65 661 3 68 10 120 14 115 11 -13
38 -93 60 -177 35 -137 94 -244 189 -343 100 -105 194 -140 346 -130 107 7
188 30 218 60 12 12 31 27 42 32 27 14 45 56 52 119 5 45 2 56 -18 80 -19 21
-35 28 -80 33 -52 5 -58 3 -92 -27 -40 -35 -56 -85 -38 -119 18 -32 30 -25 37
21 4 22 15 49 26 60 26 26 81 23 114 -5 26 -22 26 -25 14 -63 -25 -78 -101
-131 -223 -155 -78 -15 -171 -4 -248 29 -53 23 -198 162 -221 212 -55 118 -74
228 -92 537 -8 131 -19 251 -25 266 -6 16 -11 65 -11 111 0 143 93 481 166
607 36 60 58 79 92 79 25 0 32 -18 32 -78 0 -63 9 -92 28 -92 8 0 42 24 76 54
l61 53 30 -44 c17 -25 34 -51 40 -59 9 -13 7 -23 -19 -85 -5 -10 5 -32 26 -60
32 -42 37 -44 93 -49 l60 -5 11 -65 c7 -36 15 -86 18 -111 4 -26 13 -54 20
-64 12 -17 17 -17 45 -5 18 7 51 26 73 43 40 29 150 77 172 77 6 -1 22 -23 35
-49 18 -39 22 -57 16 -90 -4 -23 -1 -73 5 -111 14 -83 24 -87 91 -36 68 51 74
51 109 1 30 -44 32 -45 86 -45 57 0 111 -24 229 -99 22 -14 49 -31 60 -37 11
-6 22 -24 25 -40 4 -21 11 -29 25 -29 17 0 27 20 61 117 42 121 57 148 80 148
30 0 54 39 54 88 0 44 3 51 43 83 23 20 55 60 71 88 28 52 28 53 11 90 -9 21
-15 55 -13 77 3 37 5 40 53 55 38 12 51 21 53 38 10 66 -32 99 -44 36 -5 -26
-13 -37 -31 -41 -31 -8 -37 -1 -24 24 6 12 11 45 11 74 0 42 4 56 20 66 11 7
20 21 20 32 0 18 7 20 65 20 35 0 82 7 103 16 39 15 40 15 69 -15 19 -19 52
-35 89 -46 32 -8 85 -23 117 -32 56 -16 59 -16 85 4 38 28 39 63 3 101 -16 18
-34 32 -40 32 -22 0 -23 -32 -2 -60 32 -44 28 -53 -21 -45 -91 14 -178 37
-185 48 -4 6 -12 34 -18 62 l-11 50 -47 3 c-41 3 -47 1 -47 -17 0 -56 -47 -68
-129 -31 -63 29 -72 27 -69 -17 3 -33 0 -38 -20 -41 -40 -6 -115 40 -193 119
-83 84 -140 119 -190 119 -18 0 -40 7 -49 15 -9 8 -52 19 -96 25 -43 6 -103
15 -133 21 l-53 11 -30 66 c-60 131 -91 242 -69 242 8 0 88 -36 131 -59 8 -5
42 -41 76 -82 33 -41 68 -75 77 -77 24 -5 22 2 -18 54 -68 89 -72 84 67 84 68
1 143 5 168 11 38 8 179 27 230 30 24 2 143 -32 166 -47 11 -8 49 -62 84 -122
62 -104 172 -233 187 -219 3 4 -3 20 -15 35 -40 49 -113 156 -147 215 -32 54
-33 58 -12 51 12 -4 33 -15 46 -25 28 -22 41 -24 41 -6 0 12 -29 34 -98 75
l-32 19 111 6 c62 3 117 11 122 16 8 8 -43 11 -173 12 -102 0 -223 7 -270 14
-47 7 -78 13 -70 14 8 1 27 7 41 15 42 21 130 46 193 54 63 7 85 27 43 38 -41
10 -133 -15 -287 -77 -95 -38 -171 -62 -219 -69 -91 -13 -115 1 -43 24 50 17
104 57 85 63 -13 5 -189 -55 -219 -74 -17 -11 -33 -10 -98 7 -115 29 -156 55
-180 112 -16 38 -18 55 -10 85 8 34 13 39 59 51 28 7 79 21 115 32 36 10 94
26 130 35 74 19 200 64 214 76 25 22 -32 17 -118 -10 -53 -17 -108 -31 -122
-31 -25 0 -26 1 -12 23 8 12 26 27 39 34 13 6 53 37 88 67 51 45 69 55 85 49
37 -14 287 -3 284 12 -2 6 -53 9 -137 7 l-134 -3 15 23 c8 13 25 28 38 34 12
7 41 30 64 52 66 65 87 72 156 56 41 -9 68 -10 91 -4 19 6 53 10 76 10 49 0
93 15 93 31 0 8 -16 10 -52 5 -133 -16 -185 -18 -192 -8 -10 17 69 53 131 59
56 6 73 17 54 36 -22 22 -213 -39 -298 -97 -20 -14 -41 -22 -46 -17 -7 7 18
121 38 173 9 22 -10 31 -25 13 -7 -8 -25 -63 -41 -122 -29 -108 -29 -108 -92
-168 -90 -84 -157 -138 -157 -126 0 10 33 111 65 200 11 30 13 47 6 54 -6 6
-13 9 -15 6 -7 -7 -106 -268 -106 -278 0 -21 -120 -138 -167 -163 -99 -54
-153 -44 -153 29 0 30 10 46 68 107 37 39 73 83 79 97 21 50 25 131 9 184 -26
84 -23 93 55 167 39 37 95 81 124 98 29 17 58 37 65 45 7 8 16 15 21 15 17 0
50 -45 59 -81 11 -40 18 -44 91 -54 36 -5 54 -2 87 15 57 30 133 30 173 1 37
-28 57 -27 65 4 4 15 15 27 28 30 11 2 62 13 112 25 105 23 163 25 187 7 17
-12 17 -16 1 -82 -21 -87 -52 -172 -77 -208 -10 -15 -61 -58 -112 -97 -110
-81 -125 -102 -93 -124 12 -9 28 -16 35 -16 27 0 11 -26 -34 -55 -65 -41 -64
-41 -225 -65 -168 -25 -227 -42 -258 -75 l-23 -25 22 -24 c36 -38 126 -49 301
-38 131 8 149 7 189 -10 32 -13 69 -18 137 -18 51 0 95 -4 99 -9 3 -5 0 -22
-7 -36 -11 -25 -10 -30 20 -56 17 -15 58 -36 89 -45 32 -9 72 -24 88 -34 17
-10 45 -21 63 -25 31 -6 32 -8 17 -25 -14 -16 -61 -39 -107 -54 -22 -7 -23
-28 -4 -64 8 -15 17 -44 21 -64 4 -20 20 -48 36 -64 34 -32 30 -44 -15 -44
-55 0 -60 -18 -23 -89 25 -48 36 -61 52 -59 16 2 21 12 23 53 4 53 15 75 41
75 9 0 29 11 46 24 26 21 28 26 15 40 -9 12 -25 16 -49 14 -33 -3 -36 -1 -39
27 -2 17 -15 44 -28 62 -13 17 -24 36 -24 41 0 11 81 72 129 97 18 9 31 21 29
27 -4 12 -221 87 -254 87 -12 1 -32 9 -45 20 -20 16 -21 21 -10 34 7 9 26 19
42 22 36 8 37 21 4 29 -14 4 -25 13 -25 20 0 8 -8 22 -17 32 -15 14 -31 16
-124 10 -103 -7 -108 -6 -123 15 -16 23 -36 24 -232 3 -79 -8 -227 4 -250 20
-16 12 -15 15 10 31 32 21 84 32 225 45 144 13 200 28 237 65 17 16 43 38 57
48 40 27 35 51 -15 70 l-42 17 40 34 c21 20 44 35 49 36 6 0 34 23 63 51 40
38 58 49 70 42 9 -4 60 -8 112 -9 128 0 134 -1 161 -23 l22 -18 -22 -37 c-33
-52 -27 -145 11 -183 37 -36 103 -42 160 -14 58 27 59 27 43 -13 -24 -56 5
-127 60 -151 33 -13 35 -17 35 -63 0 -27 5 -64 11 -81 11 -30 9 -35 -17 -59
-85 -78 -60 -219 44 -250 32 -10 42 -20 61 -62 12 -27 36 -61 53 -75 l30 -26
-11 -59 c-18 -89 -8 -124 46 -159 25 -17 68 -35 97 -42 47 -10 56 -9 92 9 47
24 65 43 93 99 12 24 41 63 66 88 25 24 45 52 45 61 0 9 14 34 31 55 29 37 31
44 26 97 -3 31 -8 66 -12 78 -5 15 0 23 18 31 13 6 34 32 46 57 19 38 21 50
11 85 -12 46 -47 78 -96 87 -53 10 -50 22 10 49 47 21 60 32 77 69 21 42 24
44 76 49 58 6 136 45 153 77 14 27 12 115 -4 153 -7 18 -35 52 -61 75 -45 40
-47 43 -32 60 9 10 22 32 27 49 8 21 23 36 48 46 20 9 53 26 72 37 19 11 44
20 55 20 45 0 105 99 105 172 0 16 -7 42 -15 59 l-16 29 46 28 c25 15 48 37
51 50 11 38 24 24 24 -25 0 -50 13 -83 27 -69 4 4 10 100 11 212 2 112 5 204
8 204 2 0 42 -23 89 -51 135 -79 185 -98 185 -70 0 5 -51 37 -112 71 -62 35
-126 73 -143 85 -16 12 -73 42 -126 68 -53 25 -99 52 -102 60 -3 8 -29 20 -59
27 -29 7 -91 23 -138 36 -47 14 -131 31 -188 39 -56 8 -113 20 -125 27 -21 12
-19 13 23 16 63 5 260 -26 353 -55 43 -13 86 -23 95 -21 34 7 -32 37 -153 68
-96 25 -149 32 -262 37 -104 4 -143 3 -143 -6 0 -6 -5 -11 -11 -11 -5 0 -7 5
-3 11 9 15 -15 29 -52 29 -37 0 -70 22 -59 40 11 18 166 7 266 -19 43 -11 126
-24 186 -30 60 -5 122 -15 137 -21 15 -5 38 -10 52 -10 14 0 42 -9 64 -20 22
-11 52 -20 67 -20 15 0 44 -10 64 -23 54 -33 151 -125 144 -137 -3 -6 -51 13
-115 45 -60 30 -122 55 -137 54 -27 0 -26 -1 13 -22 65 -35 103 -56 199 -112
217 -126 257 -145 300 -145 32 0 47 -6 65 -25 l24 -26 -44 3 c-35 2 -45 -1
-48 -14 -2 -12 10 -23 42 -37 25 -11 71 -38 103 -60 31 -23 62 -41 70 -41 8 0
35 -20 61 -44 78 -72 195 -167 232 -189 20 -11 51 -40 70 -65 19 -24 112 -119
208 -211 193 -185 264 -267 342 -398 30 -48 68 -110 86 -138 l32 -50 -9 -1540
-8 -1540 -31 -149 c-19 -95 -27 -153 -21 -159 6 -6 16 5 27 32 27 68 37 37 24
-74 -6 -53 -9 -114 -5 -135 8 -47 -10 -123 -65 -268 -70 -186 -65 -259 6 -85
26 65 45 99 56 101 16 3 17 -12 12 -220 -3 -149 -10 -247 -21 -296 l-16 -72
24 -26 23 -25 8 -377 c9 -384 12 -442 27 -442 18 0 21 53 21 358 0 290 1 312
18 312 47 1 51 15 72 310 19 270 38 384 74 435 16 22 20 42 18 80 -4 65 53
321 78 357 21 28 24 42 66 228 49 215 48 209 38 398 -5 100 -3 119 14 160 11
26 25 92 32 147 7 55 23 144 36 198 15 60 24 128 24 175 0 42 7 124 15 181 8
56 17 160 20 230 8 172 20 284 61 571 35 238 39 340 14 355 -15 9 -68 108 -85
160 -10 28 -56 138 -104 245 -143 319 -149 339 -112 386 24 30 34 123 25 227
-6 68 -11 84 -31 103 -18 17 -30 45 -42 106 -26 122 -45 333 -38 434 5 78 -4
287 -17 427 l-5 47 39 0 c27 0 48 -8 67 -24 25 -22 26 -27 16 -45 -24 -39 -15
-77 36 -152 49 -73 49 -73 35 -112 -8 -22 -14 -63 -14 -91 0 -46 4 -56 33 -83
61 -59 137 -69 224 -29 58 27 73 48 73 103 1 34 5 41 45 65 37 22 46 35 59 79
9 29 16 70 16 92 0 46 23 88 59 110 60 36 78 67 89 156 9 71 8 89 -6 118 -15
31 -15 35 5 61 13 18 33 29 59 34 102 17 122 24 164 57 56 45 60 50 60 83 0
15 4 29 8 32 5 3 64 12 133 21 106 13 195 26 367 51 19 3 30 9 26 15 -10 17
-97 8 -564 -56 -63 -8 -218 -24 -345 -35 -126 -11 -295 -26 -374 -35 -185 -19
-317 -20 -324 -1 -9 23 11 148 25 157 7 5 15 9 18 9 9 0 282 31 355 40 39 5
158 16 265 25 107 9 210 21 229 27 18 5 69 12 112 14 43 2 102 10 131 18 29 8
107 18 173 22 66 4 125 10 130 14 6 4 19 10 30 13 38 9 -151 7 -286 -3 -73 -6
-170 -17 -214 -25 -80 -14 -244 -35 -430 -55 -55 -6 -166 -20 -246 -31 -80
-11 -174 -19 -210 -17 -63 3 -64 4 -67 33 -5 39 15 130 39 177 10 20 16 43 13
51 -8 22 15 33 111 51 146 26 210 34 410 51 105 9 258 24 340 35 83 11 270 33
417 50 224 25 270 32 286 48 15 15 46 22 138 31 151 16 225 28 238 41 15 15
-65 13 -154 -4 -41 -8 -122 -17 -180 -21 -117 -7 -612 -55 -875 -85 -93 -10
-249 -26 -345 -35 -96 -9 -191 -20 -210 -25 -45 -13 -80 -13 -80 -1 0 6 36 42
80 80 72 63 85 71 121 71 23 0 83 7 133 15 135 21 598 81 861 110 127 15 280
33 340 41 61 8 134 18 163 21 28 3 52 10 52 14 0 13 -81 11 -210 -6 -63 -8
-169 -19 -235 -25 -137 -12 -574 -58 -622 -64 -29 -4 -33 -2 -33 17 0 16 -10
25 -37 35 -97 35 -122 36 -303 13 l-175 -21 -150 -75 -150 -75 -205 -20 c-113
-11 -279 -22 -370 -25 -167 -6 -436 -30 -745 -65 -428 -48 -492 -53 -557 -42
-81 13 -118 28 -118 46 0 22 6 24 125 41 60 9 134 23 164 30 60 15 176 28 388
45 75 6 160 19 195 30 37 11 92 20 131 20 71 0 112 13 101 32 -9 15 -264 2
-459 -22 -82 -10 -204 -24 -270 -30 -66 -5 -241 -24 -390 -40 -148 -16 -400
-43 -560 -60 -159 -16 -326 -34 -370 -40 -89 -11 -326 -35 -480 -49 -55 -5
-176 -19 -270 -30 -93 -12 -192 -21 -220 -19 l-50 3 -17 50 c-22 68 -31 137
-19 155 8 12 17 12 62 1 57 -15 155 -11 449 15 91 8 275 24 410 36 322 27 385
33 445 47 28 6 111 15 185 21 426 32 669 53 813 71 89 11 243 29 342 39 254
27 396 48 412 61 26 22 14 32 -29 23 -24 -4 -83 -7 -131 -6 -75 2 -524 -39
-742 -68 -38 -6 -167 -19 -285 -30 -118 -11 -336 -34 -485 -50 -615 -67 -782
-82 -1010 -90 -292 -11 -438 -25 -486 -46 -33 -14 -39 -14 -67 0 -39 20 -61
20 -69 0 -8 -21 14 -34 59 -34 58 0 68 -8 68 -50 0 -21 7 -54 16 -75 17 -41
12 -79 -13 -107 -8 -9 -12 -22 -8 -28 8 -13 3 -13 240 19 99 14 187 21 230 18
71 -5 384 -59 555 -96 106 -23 146 -26 155 -11 12 20 23 9 27 -27 3 -21 11
-59 18 -85 22 -74 12 -79 -113 -56 -56 10 -242 36 -414 58 -171 22 -351 48
-400 59 -48 10 -121 24 -161 31 -41 7 -96 24 -127 41 -29 15 -84 33 -122 39
-37 6 -74 17 -82 24 -26 27 -25 100 4 193 22 73 35 96 73 136 77 80 90 83 322
96 113 6 221 16 240 22 19 6 127 15 240 19 113 5 227 13 253 19 27 6 85 16
130 21 128 14 320 40 337 45 8 2 83 11 165 20 83 8 211 24 285 35 74 12 169
25 210 31 111 16 170 30 170 40 0 14 -163 8 -305 -12z m-2985 -187 c-19 -15
-52 -44 -73 -65 -30 -31 -41 -36 -52 -27 -27 22 3 51 103 101 53 26 63 22 22
-9z m384 -38 c66 -13 122 -26 124 -29 3 -3 0 -16 -6 -30 -7 -14 -12 -44 -12
-65 0 -35 -3 -40 -23 -40 -62 0 -455 86 -490 107 -13 8 8 33 54 64 43 29 46
29 139 23 52 -3 149 -17 214 -30z m5425 -60 c104 -31 109 -34 46 -29 -33 3
-100 7 -148 8 -77 3 -90 1 -98 -15 -7 -13 -21 -18 -49 -18 -34 0 -40 3 -40 20
0 24 11 29 83 40 87 13 147 11 206 -6z m-5162 -20 c-3 -3 -12 -4 -19 -1 -8 3
-5 6 6 6 11 1 17 -2 13 -5z m4748 -34 c-16 -11 -34 -20 -40 -20 -17 1 36 40
54 40 10 0 6 -7 -14 -20z m-5535 -2 c0 -7 -9 -37 -20 -67 -26 -66 -38 -189
-29 -279 4 -37 6 -68 4 -70 -1 -2 -17 22 -34 52 -37 66 -39 110 -12 223 24
100 49 153 73 153 10 0 18 -6 18 -12z m267 -38 c87 -17 181 -37 209 -45 28 -8
73 -18 100 -21 27 -4 57 -11 66 -16 16 -8 16 -11 -1 -51 -10 -24 -22 -62 -26
-86 -6 -39 -9 -42 -33 -37 -15 3 -126 24 -247 46 -326 60 -329 61 -333 94 -2
15 9 53 25 86 34 72 24 71 240 30z m473 15 c0 -22 -40 -41 -51 -24 -16 26 -9
39 21 39 20 0 30 -5 30 -15z m4780 -50 c-19 -19 -44 -35 -55 -35 -31 0 -135
-98 -183 -173 -23 -35 -42 -67 -42 -72 0 -8 -71 -167 -116 -260 l-15 -30 5 36
c8 65 92 256 152 345 63 94 109 137 200 190 77 44 97 44 54 -1z m-155 -17
c-16 -12 -61 -52 -98 -90 -46 -45 -81 -71 -105 -77 -41 -11 -185 -26 -403 -41
-80 -5 -330 -32 -555 -60 -718 -87 -964 -112 -1034 -106 -36 3 -104 6 -152 5
-47 0 -112 6 -145 14 -86 22 -169 36 -256 43 -85 8 -100 20 -34 28 367 44 907
82 938 65 15 -8 30 -7 57 4 69 27 336 57 887 101 110 9 234 20 275 26 41 5
108 10 148 10 40 0 82 5 92 10 10 6 40 11 65 13 47 2 48 1 72 -42 1 -2 19 7
40 19 39 23 210 97 228 99 6 0 -3 -9 -20 -21z m-2181 -84 c9 -3 16 -9 16 -13
0 -10 -69 -1 -76 10 -6 10 36 12 60 3z m-118 -24 c5 -5 50 -17 98 -25 49 -9
96 -20 105 -24 21 -12 -1 -15 -304 -41 -137 -11 -290 -25 -340 -31 -191 -21
-238 -21 -401 0 -237 30 -250 42 -72 60 232 25 309 31 522 46 120 8 221 17
224 20 10 9 158 5 168 -5z m-2956 -91 c41 -6 120 -22 175 -34 55 -13 141 -31
190 -40 105 -19 135 -35 135 -70 0 -41 48 -147 83 -185 18 -19 39 -43 47 -53
12 -16 11 -17 -15 -7 -15 6 -114 17 -220 25 -298 22 -354 49 -460 220 -40 65
-70 147 -57 159 3 3 14 4 26 1 12 -2 55 -9 96 -16z m5055 -40 c-4 -17 -19 -61
-34 -98 -15 -36 -38 -96 -50 -133 -13 -40 -29 -69 -39 -72 -25 -8 -281 -36
-327 -36 -75 1 -12 20 132 41 145 20 169 26 160 35 -8 8 -348 -23 -667 -61
-157 -18 -337 -39 -400 -45 -63 -6 -236 -25 -385 -42 -148 -16 -322 -31 -385
-32 l-115 -1 -3 121 -3 121 103 7 c141 9 543 54 653 72 50 9 117 18 150 20 67
5 276 30 625 74 129 16 293 34 364 40 71 6 132 12 134 15 3 3 25 5 49 5 l45 0
-7 -31z m-2485 -120 c30 -5 87 -14 125 -19 189 -26 197 -37 209 -264 l6 -119
-87 7 c-122 9 -463 86 -476 108 -8 12 -6 32 7 76 19 60 18 76 -5 165 -11 41
-10 50 2 57 15 10 129 4 219 -11z m-1390 -54 c74 -14 176 -29 225 -35 50 -6
144 -22 210 -35 134 -26 239 -40 425 -55 131 -11 224 -32 237 -53 4 -6 8 -28
8 -49 l1 -37 -73 -6 c-40 -4 -173 -2 -295 5 -123 7 -271 10 -330 6 -94 -5
-113 -4 -163 15 -31 11 -65 19 -76 16 -29 -8 -136 17 -203 47 -90 40 -226 167
-226 211 0 13 52 7 260 -30z m-590 1 c8 -22 22 -37 37 -41 24 -6 52 -49 39
-62 -17 -18 -84 58 -101 115 -10 35 10 26 25 -12z m-535 -156 c-10 -15 -21
-12 -54 15 -31 27 -112 141 -104 148 8 8 164 -153 158 -163z m5049 -232 c4
-134 12 -283 17 -333 6 -49 14 -252 19 -450 8 -369 22 -506 65 -634 8 -25 15
-59 15 -76 0 -17 7 -40 15 -51 25 -33 14 -134 -14 -134 -12 0 -65 149 -81 223
-9 44 -23 72 -61 119 -48 60 -49 63 -50 132 -1 39 -5 134 -11 211 -14 221 -19
402 -9 385 4 -8 11 -42 14 -75 4 -33 15 -98 26 -145 11 -47 25 -141 32 -210
18 -200 20 -210 35 -210 15 0 38 36 30 49 -3 5 -15 87 -26 182 -11 96 -29 221
-40 278 -15 79 -18 112 -11 134 8 23 5 43 -15 102 -19 54 -23 79 -16 92 6 11
10 126 9 284 0 235 2 271 18 317 11 29 22 52 26 52 3 0 10 -109 13 -242z
m-4949 201 c16 -16 -19 -9 -40 7 -19 16 -19 16 5 9 14 -4 29 -11 35 -16z
m4786 -261 c0 -150 4 -304 8 -343 10 -82 -3 -473 -20 -593 -8 -62 -8 -87 0
-95 14 -14 14 -47 0 -47 -6 0 -48 35 -93 78 -44 43 -106 96 -136 119 -30 22
-117 101 -193 176 -80 80 -172 159 -220 191 -100 67 -195 151 -157 139 14 -4
90 -8 170 -7 112 1 174 7 275 27 72 14 164 28 206 32 85 8 114 19 90 34 -18
11 -78 6 -226 -21 -60 -11 -163 -23 -227 -25 -103 -4 -119 -3 -124 11 -4 9 -5
19 -3 21 12 12 237 56 304 60 257 14 327 27 298 56 -7 7 -71 5 -219 -8 -115
-9 -265 -18 -334 -18 l-125 0 -3 49 c-5 71 4 96 32 96 13 0 44 9 69 20 42 19
76 24 347 50 208 20 285 39 261 63 -7 7 -46 4 -138 -11 -71 -13 -198 -29 -283
-38 -85 -8 -181 -18 -212 -21 -76 -8 -88 3 -88 76 0 103 -13 95 193 115 100
10 196 22 212 27 17 5 84 15 151 22 67 8 130 19 140 25 44 26 44 26 45 -260z
m-4396 222 c-3 -5 -15 -10 -26 -10 -11 0 -17 5 -14 10 3 6 15 10 26 10 11 0
17 -4 14 -10z m182 -37 c62 -32 76 -63 17 -38 -20 8 -44 15 -53 15 -9 0 -27 7
-40 16 -18 13 -20 18 -10 25 21 13 27 11 86 -18z m3327 -13 c59 -13 86 -46 93
-112 3 -34 1 -58 -5 -62 -6 -3 -32 -2 -59 4 -26 6 -152 27 -280 46 -127 18
-243 38 -258 44 -14 5 -54 10 -88 11 -70 1 -121 13 -97 22 23 8 112 17 365 37
284 22 281 22 329 10z m2084 -41 c5 -25 -46 -79 -74 -79 -14 0 -46 11 -72 25
-26 14 -56 25 -67 25 -11 0 -26 4 -33 9 -9 5 12 11 56 15 38 4 82 11 98 16 43
13 88 8 92 -11z m-3918 -8 c0 -18 -93 -36 -117 -22 -15 8 -14 10 12 16 17 4
35 8 40 10 22 7 65 4 65 -4z m760 -21 c0 -5 -4 -10 -10 -10 -5 0 -10 5 -10 10
0 6 5 10 10 10 6 0 10 -4 10 -10z m2026 -73 c-6 -68 -11 -85 -20 -76 -10 9 7
158 17 152 6 -3 7 -33 3 -76z m868 49 c20 -19 36 -41 36 -50 0 -28 -22 -64
-47 -75 -31 -14 -43 -7 -43 25 0 14 -6 24 -15 24 -20 0 -35 32 -35 74 0 34 2
36 34 36 24 0 43 -9 70 -34z m-3505 18 c17 -4 28 -11 25 -16 -6 -10 -74 0 -88
13 -12 11 18 12 63 3z m821 -4 c0 -5 -4 -10 -10 -10 -5 0 -10 5 -10 10 0 6 5
10 10 10 6 0 10 -4 10 -10z m2531 -9 c-6 -10 -17 -21 -24 -24 -8 -3 -17 -19
-20 -36 -4 -17 -18 -38 -32 -47 -29 -19 -44 -12 -25 11 10 12 8 16 -12 24 -53
20 -64 69 -18 82 14 4 51 7 83 8 54 1 57 0 48 -18z m-278 -18 c12 -7 -1 -22
-44 -48 -21 -14 -51 -43 -66 -66 -18 -27 -45 -50 -85 -70 -92 -47 -98 -42 -98
76 0 47 5 76 13 83 7 6 53 16 102 22 49 6 92 13 95 16 5 6 69 -4 83 -13z
m-1803 -44 c257 -46 434 -84 468 -101 29 -15 52 -57 52 -95 0 -55 -7 -57 -125
-38 -112 17 -135 16 -135 -10 0 -8 -2 -15 -3 -15 -2 0 -46 23 -97 51 -51 27
-126 61 -166 74 -39 14 -94 34 -120 46 -27 11 -78 30 -114 41 -36 11 -83 29
-104 40 l-39 20 39 18 c46 22 38 23 344 -31z m-1430 32 c0 -5 -13 -14 -30 -20
-23 -8 -30 -7 -30 3 0 7 3 16 7 19 10 10 53 8 53 -2z m-227 -28 c25 -11 34
-19 25 -24 -22 -14 -156 -22 -187 -11 -21 7 -49 7 -95 -1 -59 -10 -89 -6 -74
9 3 3 40 8 82 11 55 4 80 11 92 24 13 14 26 17 68 13 28 -3 68 -13 89 -21z
m547 -3 c0 -12 -27 -12 -55 0 -16 7 -13 9 18 9 20 1 37 -3 37 -9z m-1000 -30
c0 -13 -20 -13 -40 0 -12 8 -9 10 13 10 15 0 27 -4 27 -10z m873 3 c-7 -2 -19
-2 -25 0 -7 3 -2 5 12 5 14 0 19 -2 13 -5z m-1115 -21 c4 -14 -144 -89 -155
-78 -17 16 105 100 136 94 8 -2 16 -9 19 -16z m1362 -8 c22 -9 40 -20 40 -25
0 -5 -26 -9 -57 -9 -32 0 -83 -3 -113 -6 -69 -8 -58 11 14 25 26 5 53 14 59
20 14 14 9 14 57 -5z m2820 -2 c33 -26 17 -42 -41 -42 -55 0 -61 9 -23 39 33
26 36 26 64 3z m105 8 c3 -5 -1 -10 -9 -10 -9 0 -16 5 -16 10 0 6 4 10 9 10 6
0 13 -4 16 -10z m-3585 -53 c-47 -24 -134 -69 -193 -101 -64 -35 -158 -74
-229 -97 -100 -31 -207 -83 -195 -95 5 -5 73 20 88 33 31 25 179 63 179 46 0
-5 -39 -41 -87 -80 -125 -101 -219 -201 -204 -216 9 -9 33 10 103 81 51 52
119 114 152 140 34 25 81 63 104 83 24 21 60 43 80 50 21 6 49 23 65 37 15 14
27 22 27 17 0 -5 -18 -45 -40 -89 -38 -77 -43 -82 -100 -110 -33 -16 -66 -39
-74 -51 -8 -12 -42 -32 -75 -44 -100 -36 -141 -82 -156 -171 -8 -49 -18 -60
-55 -60 -13 0 -62 -10 -109 -22 -82 -21 -84 -21 -98 -2 -8 10 -17 32 -20 47
-3 16 -14 34 -24 40 -11 7 -19 21 -19 32 0 44 31 135 60 178 16 25 30 48 30
51 0 3 -18 6 -40 6 -22 0 -40 4 -40 8 0 14 60 95 88 120 38 32 148 87 213 106
73 21 304 61 469 81 74 10 137 19 139 21 2 2 14 4 25 3 12 0 -16 -19 -64 -42z
m3786 28 c-23 -17 -36 -19 -36 -6 0 11 18 19 40 20 11 0 10 -3 -4 -14z m-4296
-5 c31 -9 25 -11 -95 -40 -49 -12 -105 -26 -123 -32 -41 -12 -61 1 -35 24 50
46 181 70 253 48z m776 -25 c11 -27 -40 -99 -99 -139 -44 -31 -60 -37 -69 -28
-7 7 -43 12 -87 12 -101 0 -109 6 -80 59 29 49 63 65 192 87 51 9 94 18 96 20
10 10 42 3 47 -11z m636 4 c70 -15 90 -34 26 -25 -26 4 -67 13 -90 21 -36 11
-39 13 -16 14 15 1 51 -4 80 -10z m603 -25 c49 -20 104 -43 122 -50 17 -8 34
-14 38 -14 21 0 162 -81 257 -146 58 -41 110 -74 116 -74 5 0 56 -33 113 -73
57 -40 129 -89 160 -110 84 -55 349 -330 349 -362 0 -16 23 -50 70 -102 70
-79 130 -173 111 -173 -6 0 -11 4 -11 10 0 5 -28 42 -62 81 -35 39 -89 106
-121 148 -73 96 -114 138 -204 211 -72 59 -241 173 -300 204 -18 9 -55 36 -82
60 -27 24 -60 47 -73 51 -13 4 -48 29 -78 55 -61 52 -124 87 -246 135 -44 18
-105 48 -135 68 -55 37 -140 117 -124 117 5 0 50 -16 100 -36z m2151 15 c3 -6
-5 -23 -19 -37 -25 -24 -27 -25 -51 -8 -33 21 -33 32 2 44 37 14 59 14 68 1z
m-3286 -3 c0 -3 -4 -8 -10 -11 -5 -3 -10 -1 -10 4 0 6 5 11 10 11 6 0 10 -2
10 -4z m380 -21 c249 -47 490 -105 536 -129 l51 -27 6 -67 c6 -59 1 -112 -9
-112 -2 0 -25 14 -51 30 -39 25 -57 30 -110 30 -62 0 -63 0 -82 38 -23 46 -46
67 -95 87 -45 19 -91 8 -134 -32 -24 -22 -27 -23 -33 -6 -16 42 -92 83 -154
83 -19 0 -61 -9 -92 -20 -79 -28 -128 -26 -175 6 -42 30 -46 43 -20 67 27 25
70 38 167 52 118 16 109 16 195 0z m-1720 -18 c0 -30 -121 -111 -295 -197 -99
-49 -220 -115 -270 -147 -138 -90 -322 -284 -407 -427 -15 -26 -35 -49 -45
-53 -10 -3 -26 -13 -36 -22 -17 -14 -20 -14 -33 4 -31 42 -18 82 58 184 99
131 191 228 333 352 220 191 188 173 453 250 131 38 238 68 240 69 1 0 2 -6 2
-13z m1287 -9 c-3 -8 -6 -5 -6 6 -1 11 2 17 5 13 3 -3 4 -12 1 -19z m3523 7
c60 -31 78 -109 34 -144 -37 -29 -75 -28 -71 2 2 17 -4 23 -25 25 -21 3 -29
10 -34 30 -10 48 -14 54 -34 59 -32 9 -18 27 26 34 65 10 74 10 104 -6z m-386
-30 c5 -11 19 -33 29 -48 l19 -29 -29 -30 c-29 -31 -83 -64 -83 -51 0 4 10 17
21 29 l21 23 -20 26 c-23 29 -37 79 -27 95 11 17 57 7 69 -15z m-124 -43 c0
-52 -17 -75 -25 -36 -4 16 -9 35 -11 43 -5 17 15 43 27 35 5 -3 9 -22 9 -42z
m219 35 c6 -8 8 -17 4 -20 -7 -8 -33 11 -33 24 0 13 16 11 29 -4z m-4441 -8
c-6 -17 -145 -95 -154 -86 -10 10 111 86 154 96 2 1 2 -4 0 -10z m3909 -36
c-3 -10 -5 -4 -5 12 0 17 2 24 5 18 2 -7 2 -21 0 -30z m203 12 c0 -19 -36 -39
-45 -25 -11 18 3 40 25 40 11 0 20 -7 20 -15z m-4000 -11 c0 -3 -21 -29 -46
-58 -61 -67 -94 -133 -74 -146 8 -5 18 -6 23 -3 5 3 2 -8 -6 -24 -21 -39 -49
-182 -43 -210 4 -12 20 -32 37 -44 35 -25 26 -38 -26 -39 -16 0 -61 -12 -100
-25 -112 -40 -164 -30 -149 29 5 19 0 31 -22 51 -64 59 -95 48 -291 -112 -42
-35 -78 -61 -80 -59 -5 5 40 75 93 146 60 80 297 295 388 352 99 62 224 137
236 141 21 8 60 8 60 1z m4518 -79 c43 -43 52 -65 29 -65 -36 0 -97 77 -96
121 0 23 1 23 12 5 7 -10 31 -38 55 -61z m-3398 46 c53 -28 51 -55 -7 -90 -26
-16 -67 -43 -89 -60 -41 -29 -42 -30 -59 -11 -27 30 -80 43 -146 36 l-59 -7 0
28 c0 69 71 102 93 43 12 -32 29 -38 46 -17 6 6 22 26 36 42 25 29 26 29 19 5
-7 -27 -7 -28 -5 -47 2 -22 38 -14 55 12 9 13 16 38 16 55 0 27 3 30 33 30 18
0 48 -8 67 -19z m3259 0 c10 -6 24 -29 31 -51 13 -40 13 -43 -11 -61 -26 -20
-101 -35 -118 -24 -24 15 -11 35 23 35 43 0 49 8 34 48 -9 24 -9 34 1 46 16
19 17 19 40 7z m-2833 -46 c9 -13 22 -44 29 -67 14 -48 33 -55 51 -20 14 28
62 80 86 93 12 7 27 5 45 -5 60 -31 94 -96 73 -136 -10 -19 -12 -19 -34 -5
-13 9 -55 19 -93 22 -67 5 -70 5 -106 -27 l-37 -32 -52 26 c-58 29 -106 33
-146 12 -35 -18 -85 -72 -106 -112 -27 -55 -144 -75 -182 -33 -18 20 -18 21 1
36 11 8 38 24 60 35 55 28 58 37 25 71 -36 37 -59 32 -87 -18 -19 -34 -23 -36
-23 -16 0 13 14 37 34 57 47 47 108 48 178 3 45 -29 50 -30 67 -15 9 9 22 16
28 16 20 0 73 58 73 79 0 26 -14 26 -56 0 -39 -23 -45 -13 -11 18 37 34 60 42
114 43 45 0 55 -4 69 -25z m1455 -13 l31 -32 -58 0 c-59 0 -130 26 -155 57
-12 14 -5 15 68 12 77 -4 84 -6 114 -37z m-1716 -2 c3 -5 1 -10 -4 -10 -6 0
-11 5 -11 10 0 6 2 10 4 10 3 0 8 -4 11 -10z m-605 -21 c0 -5 11 -26 24 -45
23 -35 23 -35 5 -72 -11 -21 -19 -57 -19 -88 l0 -52 -77 5 c-91 7 -111 15
-119 48 -12 48 23 115 61 115 22 0 18 -18 -10 -52 -28 -33 -33 -76 -10 -85 21
-7 48 19 70 67 15 33 20 37 35 28 22 -14 50 -4 50 18 0 9 -9 29 -21 45 -14 20
-19 38 -15 54 6 24 26 35 26 14z m3547 -78 c18 -18 45 -31 71 -36 47 -8 51
-16 22 -45 -58 -58 -187 -20 -205 62 -8 36 4 48 52 48 21 0 41 -9 60 -29z
m278 7 c14 -6 25 -14 25 -17 0 -3 -19 -18 -42 -33 -32 -20 -46 -24 -60 -17
-22 12 -23 37 -1 61 19 21 42 23 78 6z m-3700 -63 c-46 -39 -60 -44 -45 -14
12 22 71 62 79 53 3 -3 -12 -21 -34 -39z m125 23 c30 -32 26 -52 -7 -43 -38 9
-46 19 -38 44 8 27 19 27 45 -1z m-1530 8 c0 -3 -4 -8 -10 -11 -5 -3 -10 -1
-10 4 0 6 5 11 10 11 6 0 10 -2 10 -4z m2354 -25 c34 -14 76 -78 76 -119 0
-37 -37 -82 -68 -82 -11 0 -25 -7 -32 -15 -19 -23 -38 -18 -54 13 -8 15 -30
36 -50 46 -45 24 -53 53 -29 97 l18 34 3 -35 c5 -63 11 -80 32 -80 22 0 50 36
50 63 0 10 -9 30 -20 44 -11 14 -17 29 -14 34 7 12 56 11 88 0z m270 -1 c31
-12 60 -64 52 -96 -14 -55 -92 -115 -111 -84 -3 5 -24 14 -45 20 -53 14 -57
44 -5 34 l35 -6 0 45 c0 27 -6 49 -15 57 -8 7 -15 19 -15 26 0 17 65 19 104 4z
m-2702 -78 c-162 -186 -235 -298 -281 -435 -17 -50 -18 -51 -60 -52 -52 -1
-61 14 -36 60 21 41 12 59 -26 51 -16 -3 -29 -2 -29 2 0 4 21 33 48 65 26 32
57 73 70 90 45 62 118 129 195 178 43 28 83 61 89 74 10 21 64 47 81 38 4 -3
-19 -35 -51 -71z m2173 44 c26 -26 41 -67 32 -90 -3 -7 -23 -22 -44 -33 -23
-12 -39 -28 -41 -41 -4 -27 19 -29 71 -7 20 8 44 15 53 15 21 0 84 -63 84 -84
0 -9 -19 -29 -42 -46 -32 -23 -52 -30 -88 -30 -52 0 -60 8 -60 60 0 36 -24 60
-59 60 -19 0 -34 9 -49 30 -28 38 -28 41 6 34 41 -8 56 15 48 70 -4 24 -13 50
-21 56 -23 19 -8 30 41 30 34 0 51 -6 69 -24z m1273 12 c14 -14 16 -28 2 -28
-5 0 -14 9 -20 20 -12 22 -1 27 18 8z m1758 -45 c4 -16 2 -36 -7 -52 -20 -35
-76 -71 -110 -71 -32 0 -89 44 -89 69 0 29 38 55 98 67 92 18 101 17 108 -13z
m-4088 -27 c12 -19 39 -47 62 -61 l41 -26 -20 -27 c-54 -76 -103 -101 -132
-66 -7 8 -29 24 -50 34 -55 29 -66 76 -27 125 20 26 69 54 95 55 6 0 20 -16
31 -34z m516 -2 c14 -15 26 -32 26 -39 0 -7 20 -66 45 -132 25 -65 45 -125 45
-133 -1 -19 -36 -61 -76 -88 -25 -17 -37 -19 -69 -12 -71 16 -112 62 -85 95
21 26 37 16 46 -27 7 -33 15 -43 37 -51 16 -5 31 -7 33 -4 3 3 -4 27 -15 52
-26 60 -26 63 3 77 28 12 60 68 46 82 -5 5 -29 -5 -57 -23 -26 -17 -59 -35
-72 -38 -32 -8 -90 23 -110 58 -29 53 12 145 84 185 55 30 87 29 119 -2z m373
-6 c-3 -7 -5 -2 -5 12 0 14 2 19 5 13 2 -7 2 -19 0 -25z m-1957 -13 c-13 -14
-28 -25 -34 -25 -5 0 3 13 19 30 16 16 31 28 33 25 3 -3 -5 -16 -18 -30z
m4884 -1 c15 -15 22 -54 10 -54 -20 0 -44 24 -44 45 0 29 12 32 34 9z m-1279
-61 c67 -37 158 -116 165 -143 4 -14 35 -66 69 -117 59 -90 70 -113 52 -113
-10 0 -108 112 -134 153 -11 17 -17 42 -15 64 3 35 1 38 -40 52 -23 9 -76 45
-117 81 -75 65 -100 99 -47 64 15 -10 45 -28 67 -41z m-1721 -25 c15 -13 29
-37 32 -54 5 -27 1 -36 -25 -60 -17 -15 -31 -36 -31 -46 0 -22 -16 -24 -24 -3
-3 9 -18 15 -40 15 -26 0 -40 7 -60 31 -28 33 -32 50 -16 80 16 29 30 23 24
-11 -6 -27 -4 -30 19 -30 29 0 51 29 41 54 -8 20 13 46 37 46 10 0 29 -10 43
-22z m-624 -9 c0 -6 -10 -29 -22 -50 -17 -31 -20 -45 -12 -67 13 -37 39 -39
74 -4 l29 29 20 -21 c30 -32 27 -61 -6 -74 -56 -21 -72 -23 -106 -8 -46 19
-67 51 -67 104 0 35 6 49 29 73 30 29 61 39 61 18z m-1356 -11 c-4 -7 -18 -27
-31 -44 -12 -17 -45 -69 -73 -115 -27 -46 -50 -77 -50 -69 0 25 140 240 156
240 3 0 2 -6 -2 -12z m5036 1 c25 -6 57 -13 73 -16 18 -3 27 -12 27 -24 0 -34
-23 -68 -53 -79 -39 -13 -39 -13 -27 10 10 18 7 21 -20 26 -17 4 -33 11 -36
15 -10 17 -45 9 -52 -12 -8 -20 -8 -20 -25 -1 -19 21 -38 77 -29 86 9 9 92 6
142 -5z m-2388 -26 c56 -58 60 -134 10 -173 l-26 -21 -12 64 c-14 73 -36 122
-59 130 -28 12 -15 27 23 27 29 0 45 -7 64 -27z m-568 1 c4 -10 1 -14 -6 -12
-15 5 -23 28 -10 28 5 0 13 -7 16 -16z m56 -55 c0 -10 -7 -19 -15 -19 -15 0
-21 31 -9 43 11 10 24 -3 24 -24z m414 -9 c23 -58 20 -85 -15 -125 -32 -36
-76 -46 -109 -25 -12 7 -11 13 9 34 l23 25 -21 27 c-11 15 -21 35 -21 45 0 26
48 59 85 59 29 0 35 -5 49 -40z m-1334 -22 c0 -18 -52 -118 -61 -118 -5 0 -26
16 -47 34 -31 29 -35 38 -26 53 18 30 134 57 134 31z m860 -23 c0 -3 -17 -5
-37 -5 -35 1 -37 2 -19 15 13 10 24 11 37 4 11 -5 19 -12 19 -14z m310 -35 c0
-5 -4 -10 -10 -10 -5 0 -10 5 -10 10 0 6 5 10 10 10 6 0 10 -4 10 -10z m1639
-35 c31 -33 41 -53 41 -77 0 -20 14 -56 35 -90 37 -62 32 -79 -8 -25 -22 30
-127 222 -127 232 0 15 22 0 59 -40z m-1721 12 c6 -5 12 -13 12 -17 0 -8 -80
-63 -85 -58 -2 2 -10 20 -19 41 -15 37 -15 38 6 46 24 9 67 3 86 -12z m-1034
-18 c19 -15 26 -29 26 -57 0 -23 10 -50 26 -74 15 -21 24 -41 21 -44 -7 -8
-89 29 -104 47 -18 23 -22 149 -4 149 4 0 20 -9 35 -21z m864 9 c30 -30 1 -68
-52 -68 -14 0 -31 -9 -40 -21 -19 -28 -36 -16 -36 25 0 37 14 53 57 66 40 12
57 12 71 -2z m-614 -24 c12 -31 6 -81 -12 -97 -10 -9 -39 -20 -64 -23 -41 -6
-49 -3 -72 19 -14 14 -26 36 -26 49 0 21 2 20 20 -9 11 -18 26 -33 34 -33 21
0 36 23 26 40 -19 30 -11 48 28 58 53 14 59 14 66 -4z m416 -51 c0 -45 -2 -49
-40 -71 -27 -15 -48 -20 -65 -16 -14 3 -25 8 -25 11 0 12 63 94 82 108 38 26
48 19 48 -32z m-820 21 c42 -17 60 -39 60 -72 0 -23 -18 -32 -61 -32 -26 0
-28 2 -20 18 7 14 5 27 -10 51 -18 30 -24 51 -14 51 2 0 23 -7 45 -16z m3146
-26 c24 -17 44 -34 44 -37 0 -3 27 -37 60 -75 34 -40 60 -79 60 -92 0 -12 22
-66 49 -120 98 -199 105 -215 102 -258 -2 -29 -24 -5 -78 83 -25 42 -56 92
-68 111 -13 20 -25 59 -29 94 -9 80 -25 110 -117 218 -99 116 -105 135 -23 76z
m-4340 -80 c15 -62 15 -71 -1 -119 -18 -54 -56 -99 -83 -99 -12 0 -14 11 -9
68 7 70 39 200 60 236 11 21 11 21 14 1 2 -11 11 -50 19 -87z m2476 90 c25
-21 48 -61 48 -83 0 -34 -36 -65 -75 -65 -41 0 -125 38 -125 57 0 17 10 16 31
-3 10 -9 25 -14 33 -11 12 5 13 11 3 36 -16 43 3 81 41 81 15 0 35 -6 44 -12z
m-3078 -43 c4 -12 14 -14 40 -9 24 4 42 1 58 -10 30 -21 50 -20 95 4 53 28 79
26 87 -6 4 -14 16 -38 27 -53 l20 -28 -25 -48 c-43 -80 -30 -138 49 -223 56
-61 74 -94 67 -125 -3 -16 -6 -16 -34 4 -16 12 -54 55 -84 95 -30 41 -65 81
-78 90 -32 20 -184 84 -202 84 -29 0 -12 -17 35 -34 83 -29 157 -82 194 -139
19 -29 47 -63 61 -76 53 -49 33 -49 -121 1 -87 28 -129 30 -105 6 21 -21 257
-98 299 -98 29 0 63 -17 63 -30 0 -6 -12 -20 -26 -33 -14 -12 -32 -36 -39 -53
-26 -63 -150 -135 -265 -153 -143 -23 -204 -11 -368 75 -67 35 -95 45 -103 37
-8 -8 2 -18 37 -36 27 -14 79 -41 116 -60 38 -20 88 -39 113 -43 25 -3 45 -10
45 -13 0 -4 -39 -25 -87 -45 -49 -21 -108 -50 -133 -66 -25 -15 -82 -44 -128
-65 -68 -30 -90 -35 -121 -30 -45 7 -65 -10 -36 -31 34 -25 133 2 255 70 52
30 96 50 98 45 2 -4 -8 -27 -22 -51 -28 -48 -86 -186 -86 -205 0 -17 15 -16
29 1 7 8 27 50 45 93 65 157 147 232 291 267 114 27 115 27 115 12 0 -14 -83
-130 -101 -141 -5 -4 -9 -13 -9 -21 0 -35 35 -6 106 87 42 56 96 115 122 132
25 18 68 51 96 75 28 23 57 41 64 40 9 -2 22 -33 32 -75 21 -81 69 -199 104
-258 l24 -39 -20 -41 c-27 -54 -72 -108 -200 -243 -94 -99 -108 -118 -108
-148 0 -43 25 -46 33 -5 4 18 39 64 89 118 46 49 112 121 148 161 35 40 70 72
77 72 15 0 53 -80 53 -112 0 -35 -59 -132 -127 -209 -102 -115 -119 -151 -92
-200 15 -30 27 -14 27 35 -1 42 4 50 92 151 82 93 116 125 133 125 7 0 19 -70
19 -116 1 -57 -23 -100 -109 -201 -112 -130 -123 -147 -123 -181 0 -44 16 -40
38 11 26 58 193 252 203 235 4 -7 15 -105 25 -218 18 -208 25 -250 44 -250 7
0 9 20 4 60 -5 42 -3 60 5 60 6 0 11 -4 11 -10 0 -5 5 -10 10 -10 16 0 12 30
-15 105 -16 46 -25 92 -25 134 l0 64 93 -91 c92 -91 175 -162 190 -162 23 0
-6 36 -117 142 -74 71 -127 129 -131 145 -3 15 -17 40 -31 56 -29 35 -30 41
-3 84 12 18 18 40 15 48 -7 20 -4 19 65 -16 36 -18 94 -62 143 -110 80 -76
106 -93 106 -67 0 24 -137 145 -219 193 -116 68 -150 105 -184 199 -16 43 -26
80 -24 83 3 2 32 -17 64 -43 32 -26 82 -59 112 -72 52 -24 56 -24 84 -9 47 27
125 22 191 -12 81 -43 125 -79 147 -122 22 -44 23 -59 8 -111 -7 -27 -17 -40
-34 -44 -29 -7 -30 -15 -11 -52 7 -15 16 -43 20 -63 5 -29 2 -39 -15 -55 -16
-14 -19 -26 -14 -50 8 -44 -14 -64 -70 -64 -24 0 -47 -5 -50 -11 -4 -5 5 -27
19 -48 33 -47 34 -88 4 -100 -42 -16 -81 -77 -93 -146 -15 -79 -36 -83 -117
-20 -60 48 -139 81 -223 93 -45 7 -52 11 -73 50 -27 49 -41 52 -127 22 -31
-11 -62 -17 -67 -13 -10 5 -6 72 7 133 4 18 -1 33 -20 54 -14 16 -25 38 -25
48 0 29 -21 31 -114 9 -85 -20 -159 -51 -171 -71 -24 -39 -55 30 -55 122 0 31
-3 70 -6 88 l-7 32 -62 -7 c-57 -6 -64 -4 -94 20 l-31 27 27 50 c35 64 110
132 171 154 56 20 121 58 167 97 24 20 35 39 40 70 11 70 28 87 85 87 60 0
108 16 92 32 -7 7 -38 8 -89 4 -43 -4 -107 -9 -143 -11 -132 -9 -197 -61 -283
-228 -59 -115 -75 -122 -109 -52 -28 57 -55 59 -117 10 -24 -19 -47 -32 -52
-29 -5 3 -9 27 -9 53 0 85 1 84 -195 61 -218 -26 -242 -26 -250 0 -6 19 16 73
35 85 6 3 28 32 49 63 21 31 58 75 80 97 44 42 71 84 71 109 0 8 -20 22 -44
31 l-44 17 41 36 c52 48 75 86 69 117 -4 25 -47 75 -64 75 -5 0 1 13 13 29 30
41 13 71 -41 71 -22 0 -40 3 -40 6 0 4 16 32 35 63 40 66 142 168 176 175 31
7 150 26 166 26 7 0 14 -24 18 -57 9 -77 31 -120 69 -140 42 -22 132 -22 173
0 41 22 73 83 73 138 0 35 -6 48 -38 79 -31 32 -47 39 -92 45 -60 7 -212 -6
-275 -25 -82 -24 -90 -24 -109 4 -9 14 -25 26 -35 26 -10 0 -25 7 -32 16 -15
18 -11 22 50 56 35 19 42 59 15 89 -14 16 -14 19 10 34 44 29 94 29 184 0 66
-21 86 -24 98 -14 8 6 14 18 14 26 0 35 141 60 154 28z m2431 -36 c17 -26 35
-41 57 -47 22 -5 35 -16 39 -33 10 -36 10 -97 0 -104 -14 -8 -50 43 -57 82 -4
20 -16 41 -31 50 -36 24 -48 5 -26 -41 14 -30 15 -41 5 -56 -7 -11 -12 -29
-12 -40 0 -25 -35 -40 -90 -40 -30 0 -43 6 -59 26 -26 33 -27 48 -2 34 45 -24
71 -8 71 45 0 43 -10 55 -47 55 -31 0 -34 2 -22 16 17 21 64 44 89 44 14 0 24
9 31 30 13 35 21 32 54 -21z m-165 22 c0 -12 -20 -25 -27 -18 -7 7 6 27 18 27
5 0 9 -4 9 -9z m433 -47 c71 -36 87 -76 45 -114 -13 -12 -32 -30 -43 -40 -25
-24 -34 -25 -64 -3 l-24 16 22 9 c18 6 20 11 11 28 -8 14 -8 26 1 41 8 16 8
24 -1 33 -9 8 -17 4 -35 -19 -27 -33 -40 -30 -26 8 10 27 47 57 69 57 7 0 27
-7 45 -16z m157 -19 c-7 -8 -16 -15 -21 -15 -13 0 -11 24 3 38 18 18 35 -3 18
-23z m-656 -10 c-4 -8 -10 -15 -15 -15 -4 0 -6 7 -3 15 4 8 10 15 15 15 4 0 6
-7 3 -15z m-1793 -208 c-5 -5 -21 -7 -35 -3 -39 10 -55 73 -32 124 10 22 30
52 44 68 l27 29 3 -104 c1 -58 -2 -109 -7 -114z m2541 159 c33 -14 36 -19 42
-70 8 -58 1 -79 -33 -110 -19 -17 -26 -18 -55 -8 -18 7 -40 12 -48 12 -27 0
-58 49 -58 89 0 28 8 46 35 75 37 41 45 42 117 12z m1991 -14 c9 -10 28 -46
41 -79 13 -33 48 -102 79 -154 56 -96 79 -147 58 -135 -6 4 -23 28 -37 54 -15
26 -55 90 -90 142 -62 94 -103 173 -104 198 0 16 27 3 53 -26z m-2765 -64 c-3
-81 -3 -83 -37 -105 -45 -30 -67 -29 -102 6 -23 24 -29 38 -29 73 0 69 44 108
123 108 l48 0 -3 -82z m955 13 c15 -10 35 -27 43 -39 18 -25 29 -101 20 -137
-8 -33 -82 -71 -120 -61 -29 7 -56 52 -56 93 1 27 1 27 15 9 8 -11 15 -27 15
-37 0 -9 7 -19 15 -23 20 -7 37 27 33 67 -2 26 -8 33 -32 37 -26 4 -27 7 -13
18 8 7 18 31 22 53 8 44 17 47 58 20z m-610 -59 l28 -4 -23 -25 c-47 -51 -88
-52 -88 -4 0 33 19 54 40 45 8 -4 28 -9 43 -12z m-2604 -8 c106 -22 116 -168
14 -204 -87 -30 -143 25 -143 141 l0 69 49 0 c27 0 62 -3 80 -6z m2859 -45
c23 -22 42 -44 42 -47 -1 -10 -58 -72 -67 -72 -5 0 -27 -10 -50 -22 -56 -30
-79 -18 -74 37 1 21 7 49 12 61 12 33 -6 39 -40 14 -34 -23 -45 -15 -28 20 17
34 53 50 113 50 46 0 55 -4 92 -41z m-372 -27 c29 -33 29 -33 3 -76 -31 -53
-59 -67 -114 -57 -25 5 -49 11 -52 14 -3 4 -6 24 -7 46 -1 45 21 76 69 97 39
18 71 10 101 -24z m2894 -77 c0 -25 -4 -45 -9 -45 -9 0 -27 41 -41 95 -4 17
-11 39 -15 50 -4 13 6 7 29 -17 30 -32 36 -45 36 -83z m-2774 -22 c-4 -8 -11
-13 -18 -11 -18 6 -26 41 -16 68 l10 25 15 -34 c8 -18 12 -40 9 -48z m460 21
c7 -28 -8 -89 -29 -118 -17 -24 -66 -24 -101 -1 -29 19 -35 45 -11 45 27 0 65
47 65 79 0 50 63 46 76 -5z m-136 -18 c0 -14 -27 -42 -34 -35 -2 2 0 14 5 27
9 24 29 30 29 8z m-80 -56 c0 -11 -4 -20 -10 -20 -5 0 -10 9 -10 20 0 11 5 20
10 20 6 0 10 -9 10 -20z m-298 -40 c-1 -14 -5 -51 -9 -82 -5 -57 -6 -58 -37
-58 -47 0 -76 25 -76 65 0 27 8 40 42 70 50 42 85 44 80 5z m237 -7 c47 -59
36 -112 -33 -155 -45 -29 -111 -39 -104 -16 3 7 15 15 27 18 12 3 22 9 23 13
1 16 -56 97 -67 94 -5 -2 -17 -17 -25 -35 -18 -38 -30 -41 -30 -7 0 61 67 115
142 115 39 0 50 -5 67 -27z m2656 -106 c28 -87 31 -107 14 -90 -16 16 -59 140
-59 171 0 39 15 13 45 -81z m-2554 10 c-13 -13 -15 1 -4 30 7 17 8 17 11 -1 2
-10 -1 -23 -7 -29z m57 -73 c28 -19 52 -65 52 -98 0 -25 -34 -60 -71 -71 -25
-8 -80 23 -99 57 -20 36 -5 76 39 105 40 27 49 28 79 7z m-405 -18 c15 1 27
-1 27 -4 0 -2 -13 -20 -30 -39 -16 -18 -30 -41 -31 -51 0 -9 -10 -35 -22 -57
-18 -32 -28 -41 -54 -43 -23 -2 -35 3 -47 20 -23 32 -20 47 12 59 58 22 99 77
81 110 -10 19 -9 20 13 13 12 -5 35 -8 51 -8z m2851 -49 c14 -23 44 -87 66
-142 47 -112 63 -135 96 -135 30 0 39 -18 65 -131 20 -89 21 -111 15 -419 -4
-179 -10 -347 -14 -375 l-8 -50 -7 55 c-3 30 -7 199 -9 375 -2 306 -3 323 -26
398 -15 46 -31 81 -42 87 -32 17 -63 70 -96 164 -17 50 -43 122 -58 159 -29
74 -21 80 18 14z m-44 -69 c15 -35 33 -83 40 -107 6 -24 32 -90 57 -145 72
-162 74 -166 63 -166 -5 0 -10 8 -10 18 0 10 -5 23 -10 28 -20 20 -121 240
-142 309 -12 39 -27 79 -35 91 -11 18 -9 34 4 34 2 0 17 -28 33 -62z m-2606
33 c9 -10 19 -40 22 -67 8 -61 -8 -77 -89 -94 -50 -10 -61 -9 -83 4 -25 17
-28 24 -18 50 5 12 10 13 31 3 28 -12 43 1 43 39 0 12 3 36 6 53 6 27 11 31
39 31 18 0 39 -8 49 -19z m2776 -43 c21 -35 27 -84 9 -73 -15 10 -47 105 -34
105 3 0 14 -15 25 -32z m-210 -93 c13 -38 30 -83 38 -100 9 -17 16 -60 17
-100 1 -43 10 -93 23 -128 22 -59 43 -154 83 -377 20 -109 23 -154 21 -344 -2
-304 -16 -441 -59 -605 -19 -75 -49 -197 -65 -271 -31 -146 -69 -276 -93 -318
-13 -24 -15 78 -15 928 1 967 7 1408 20 1393 4 -4 18 -39 30 -78z m-6176 63
c-4 -7 -15 -24 -24 -38 -10 -14 -22 -38 -28 -55 -10 -29 -10 -29 -11 15 -1 52
20 90 50 90 13 0 18 -4 13 -12z m3794 -51 c6 -7 14 -36 18 -65 5 -43 3 -56
-11 -72 -27 -30 -55 -26 -55 8 0 37 -22 67 -44 59 -23 -9 -20 -54 4 -69 23
-15 27 -38 7 -38 -23 0 -50 38 -49 70 1 27 17 92 29 113 7 12 90 8 101 -6z
m-190 -96 c18 -10 -36 -68 -72 -77 -39 -9 -83 13 -95 48 -6 17 -11 34 -11 38
0 8 160 0 178 -9z m-1864 -71 c22 -5 44 -16 48 -25 6 -10 16 -14 30 -9 11 3
19 2 16 -2 -2 -5 -10 -22 -18 -37 -16 -34 -7 -55 33 -75 29 -14 36 -32 13 -32
-15 0 -178 124 -215 164 l-24 26 39 0 c21 0 57 -5 78 -10z m1921 -40 c26 -11
63 -20 83 -20 l37 -1 -30 -24 c-37 -31 -64 -31 -101 -3 -34 26 -44 38 -44 56
0 16 0 16 55 -8z m-2476 -41 c16 -45 14 -54 -14 -87 -23 -28 -169 -110 -223
-127 -22 -6 -22 -4 12 62 45 89 80 128 141 158 65 31 71 31 84 -6z m803 5 c24
-12 58 -59 58 -80 0 -9 -69 2 -142 23 -64 17 -76 39 -35 68 25 18 72 13 119
-11z m4304 -30 c14 -31 23 -59 20 -61 -5 -6 -56 91 -56 107 0 23 12 7 36 -46z
m-2726 26 c0 -5 25 -28 55 -50 64 -47 68 -67 24 -105 -28 -23 -37 -25 -78 -19
-51 7 -106 36 -115 60 -13 34 -6 103 12 113 22 13 102 14 102 1z m3016 -104
c9 -28 25 -66 36 -85 10 -18 30 -61 45 -95 25 -59 25 -63 13 -151 -17 -127
-26 -133 -32 -19 -5 100 -42 239 -74 274 -11 13 -34 121 -34 155 1 21 30 -30
46 -79z m-6146 -61 c0 -3 -11 -28 -25 -55 -42 -83 -81 -191 -105 -290 -12 -52
-32 -126 -42 -165 -31 -107 -33 -167 -9 -288 23 -117 31 -374 11 -362 -5 3
-10 21 -10 38 0 18 -9 70 -20 117 -11 47 -20 120 -20 162 0 75 -12 106 -31 77
-13 -22 -10 -146 6 -222 10 -51 12 -88 5 -150 -5 -45 -12 -147 -15 -227 -4
-80 -18 -268 -31 -419 -28 -320 -31 -560 -9 -641 8 -30 22 -89 30 -130 8 -41
18 -87 21 -102 12 -53 -7 -27 -58 78 -46 94 -50 108 -39 127 12 19 11 24 -20
49 -31 26 -35 27 -46 11 -7 -9 -13 -23 -13 -30 0 -7 -5 -13 -11 -13 -7 0 -9
10 -4 28 12 44 11 67 -4 67 -26 0 -91 -187 -132 -378 -40 -191 -45 -232 -29
-242 16 -10 11 -25 -9 -25 -36 0 -45 25 -33 93 6 34 18 113 26 175 12 88 23
129 50 185 19 40 39 92 46 117 6 25 18 56 27 68 26 41 54 141 63 225 4 45 17
150 28 232 11 83 26 206 32 275 6 69 20 195 30 280 11 85 29 252 40 370 11
118 23 245 26 282 5 44 3 72 -4 81 -12 14 -5 49 49 242 95 336 110 365 185
365 24 0 44 -2 44 -5z m5973 -36 c8 -29 -3 -56 -14 -37 -11 17 -11 58 0 58 5
0 11 -9 14 -21z m181 -196 c4 -54 12 -124 17 -156 11 -64 2 -87 -32 -87 -18 0
-19 10 -19 133 0 215 22 285 34 110z m-195 40 c17 -77 18 -143 2 -143 -12 0
-18 29 -27 118 -8 84 8 99 25 25z m-6271 -340 c-10 -39 -67 -133 -80 -133 -10
0 6 41 45 111 37 68 50 75 35 22z m6427 -135 c-4 -68 -11 -130 -16 -138 -10
-15 -4 161 8 228 11 68 15 27 8 -90z m75 40 c-1 -102 -56 -716 -65 -726 -1 -2
-6 23 -10 55 -4 32 -11 64 -17 70 -11 14 11 211 43 374 10 54 22 130 25 169 4
38 11 70 15 70 5 0 9 -6 9 -12z m-6534 -133 c-9 -21 -20 -34 -26 -30 -13 8 -5
39 18 75 23 35 28 4 8 -45z m-216 -172 c-50 -72 -84 -107 -188 -191 -86 -70
-156 -117 -217 -147 -126 -61 -170 -67 -57 -7 51 27 100 56 110 64 9 9 31 23
47 31 42 22 189 157 281 259 43 48 80 85 82 83 2 -2 -24 -43 -58 -92z m6535
28 c3 -5 1 -12 -5 -16 -5 -3 -10 1 -10 9 0 18 6 21 15 7z m-8401 -231 c24 -22
52 -40 62 -40 30 0 41 -12 47 -55 3 -22 9 -55 13 -74 l7 -34 -66 5 c-51 3 -76
11 -116 35 -33 21 -53 28 -57 21 -8 -13 40 -58 60 -58 8 0 20 -8 27 -17 13
-15 11 -16 -20 -10 -65 13 -140 54 -151 82 -11 28 -33 29 -38 2 -6 -28 40 -67
103 -86 90 -28 166 -35 209 -20 29 11 43 10 82 -2 72 -22 56 -40 -49 -54 -42
-6 -47 -8 -36 -22 15 -17 45 -14 181 19 l88 21 77 -35 c43 -20 87 -39 98 -43
28 -9 12 -17 -125 -55 -135 -38 -287 -101 -420 -173 l-95 -52 -135 2 c-81 1
-161 8 -200 18 -36 8 -69 16 -75 18 -5 1 -12 -2 -15 -8 -8 -18 44 -33 178 -51
72 -10 132 -21 132 -25 0 -24 -138 -82 -237 -101 -53 -10 -72 -9 -123 5 -72
20 -70 20 -70 4 0 -22 47 -37 115 -37 35 0 67 -4 70 -10 8 -13 -93 -62 -217
-105 -109 -38 -168 -68 -168 -85 0 -16 15 -12 66 15 26 14 53 25 61 25 8 0 38
11 66 24 54 25 155 52 163 43 2 -2 -15 -26 -39 -53 -81 -90 -158 -216 -143
-232 9 -8 20 6 108 128 65 92 259 290 282 290 11 0 3 -34 -35 -142 -70 -200
-95 -249 -141 -271 -40 -18 -50 -37 -20 -37 31 0 80 38 106 83 15 24 48 102
75 173 91 239 88 235 196 285 39 18 90 48 114 66 24 18 50 33 58 33 8 0 32 9
54 21 23 11 43 18 46 16 2 -3 -19 -27 -47 -53 -29 -27 -58 -60 -65 -74 -24
-47 -88 -251 -80 -258 13 -13 45 41 66 112 41 142 45 148 140 237 50 46 102
90 115 97 66 35 393 94 511 92 45 -1 -86 -64 -240 -115 -154 -51 -265 -100
-324 -144 -41 -30 -55 -51 -33 -51 5 0 42 21 81 48 39 26 76 50 83 53 25 15
196 62 202 56 3 -3 -32 -46 -80 -96 -47 -50 -92 -104 -100 -120 -16 -29 -109
-107 -164 -135 -29 -15 -81 -68 -100 -102 -9 -16 -12 -16 -37 4 -50 40 -155
22 -223 -37 -22 -19 -23 -25 -17 -94 l7 -74 -40 -34 c-50 -43 -141 -76 -250
-90 -104 -14 -126 -8 -157 42 -24 38 -28 39 -63 33 -20 -4 -47 -11 -60 -15
-32 -12 -82 -11 -82 1 0 6 10 10 21 10 56 0 -62 66 -171 97 -33 9 -60 19 -60
23 0 4 25 35 55 69 68 76 80 97 60 105 -8 3 -15 10 -15 16 0 5 38 51 85 102
47 51 84 99 83 108 -2 8 -16 16 -31 18 -15 2 -27 7 -27 11 0 9 95 90 135 115
44 27 85 68 79 78 -3 4 -18 8 -35 8 -36 0 -37 9 -1 42 74 68 183 113 244 100
9 -2 33 -26 53 -54 33 -46 39 -50 67 -44 17 3 55 6 85 6 76 0 103 27 103 104
0 52 -1 55 -31 65 -18 6 -50 11 -73 11 -46 0 -156 17 -164 25 -3 3 4 15 16 28
31 32 28 57 -8 70 -16 6 -30 14 -30 17 0 3 16 21 35 40 41 40 44 56 10 72 -14
6 -25 15 -25 19 0 13 61 29 111 29 26 0 51 5 54 10 3 6 35 10 71 10 61 0 67
-2 108 -40z m8477 -77 c-8 -15 -10 -15 -11 -2 0 17 10 32 18 25 2 -3 -1 -13
-7 -23z m-106 -30 c-30 -231 -94 -493 -185 -758 -22 -66 -44 -139 -47 -162 -8
-58 -23 -55 -23 5 1 59 8 93 60 267 69 237 79 276 104 401 13 66 28 129 33
140 6 10 18 49 28 87 21 77 39 90 30 20z m-7075 -93 c0 -5 -5 -10 -11 -10 -5
0 -7 5 -4 10 3 6 8 10 11 10 2 0 4 -4 4 -10z m7240 -184 c-11 -49 -25 -134
-31 -190 -6 -55 -24 -150 -39 -211 -15 -60 -31 -132 -35 -160 -4 -27 -15 -72
-25 -100 -11 -27 -33 -100 -49 -162 -17 -61 -60 -190 -96 -285 -86 -226 -94
-243 -106 -231 -7 7 -2 34 16 84 15 41 42 120 61 177 18 56 40 115 48 130 25
43 83 229 101 322 9 47 30 141 46 210 15 69 40 195 53 280 14 85 31 177 37
203 10 42 13 47 26 35 12 -12 11 -27 -7 -102z m-95 57 c-3 -21 -19 -92 -36
-157 -16 -66 -29 -129 -29 -141 0 -11 -23 -85 -50 -165 -28 -80 -59 -192 -70
-250 -11 -58 -35 -157 -53 -220 -19 -63 -42 -148 -52 -187 -9 -40 -21 -73 -25
-73 -4 0 -8 62 -9 138 -1 116 2 145 20 192 11 30 25 82 30 114 5 33 29 120 54
195 24 75 56 180 70 234 14 54 32 113 40 130 8 18 22 58 31 90 8 31 26 70 40
86 13 16 24 34 24 40 0 6 5 11 11 11 7 0 9 -13 4 -37z m-7501 -138 l17 -56
-35 -62 c-19 -34 -51 -84 -70 -112 -37 -51 -45 -90 -26 -126 17 -32 30 -22 30
24 0 34 10 57 53 122 29 44 57 80 62 80 11 0 19 -176 10 -212 -7 -28 -135
-183 -151 -183 -6 0 -17 7 -24 15 -32 39 -102 -9 -116 -80 -6 -33 -1 -101 11
-160 5 -24 0 -37 -25 -68 -41 -48 -74 -65 -147 -73 -73 -8 -116 -28 -134 -60
-21 -40 -67 -74 -100 -74 -16 0 -29 4 -29 10 0 5 -11 17 -25 26 -24 16 -28 15
-90 -15 -36 -18 -69 -29 -75 -26 -5 3 -10 43 -10 89 0 50 -5 87 -12 94 -7 7
-33 12 -59 12 -38 0 -51 5 -63 22 -9 12 -16 28 -16 35 0 7 31 33 68 57 38 24
79 57 91 72 12 16 35 45 51 64 16 19 43 51 59 71 33 39 115 88 128 76 12 -13
-41 -104 -133 -227 -105 -139 -95 -161 18 -39 42 46 80 81 83 77 3 -3 9 -46
12 -95 5 -77 3 -95 -16 -138 -15 -35 -18 -52 -11 -59 33 -32 86 131 70 214
-16 81 -11 148 17 228 44 129 53 131 87 19 45 -146 50 -182 33 -232 -18 -51
-8 -66 23 -35 30 30 28 133 -5 225 -27 78 -30 115 -14 181 9 34 9 47 -1 59
-11 13 -4 23 41 65 30 28 57 50 60 50 3 0 3 -37 1 -82 -3 -66 0 -95 16 -141
16 -43 19 -71 15 -109 -5 -45 -4 -50 13 -46 27 5 29 53 8 157 -33 169 -16 237
83 318 47 39 166 102 194 103 10 0 21 -19 33 -55z m320 31 c23 -13 58 -29 79
-36 25 -8 48 -26 67 -52 42 -57 44 -73 19 -108 -22 -28 -22 -33 -11 -105 6
-41 9 -81 6 -89 -3 -8 -21 -17 -39 -20 -42 -8 -48 -17 -51 -80 -2 -47 -6 -54
-51 -93 -26 -24 -55 -45 -63 -48 -8 -3 -35 -30 -59 -60 -24 -30 -47 -55 -50
-55 -4 0 -24 9 -46 20 -30 15 -59 20 -126 20 l-87 0 -7 30 c-10 45 1 67 89
172 90 109 94 110 120 19 19 -64 20 -103 5 -118 -7 -7 -9 -19 -5 -29 6 -16 8
-16 25 0 36 33 34 85 -13 251 -29 102 -34 185 -12 185 21 0 108 -71 150 -123
42 -51 82 -81 91 -68 8 14 -136 163 -201 207 -100 69 -115 144 -28 144 13 0
43 14 66 30 50 36 78 38 132 6z m7105 -423 c-6 -21 -18 -76 -29 -123 -36 -165
-51 -220 -81 -307 -17 -48 -36 -103 -43 -120 -23 -68 -24 -30 0 55 13 48 31
116 39 152 55 231 101 380 118 380 3 0 1 -17 -4 -37z m-8819 -13 c0 -5 -4 -10
-10 -10 -5 0 -10 5 -10 10 0 6 5 10 10 10 6 0 10 -4 10 -10z m474 -156 c20 -8
20 -43 0 -72 -12 -18 -101 -72 -118 -72 -2 0 -9 14 -15 32 -14 40 3 69 57 97
40 22 52 24 76 15z m766 -32 c7 -20 10 -51 8 -67 -2 -24 -8 -30 -28 -30 -30 0
-37 32 -20 94 13 51 26 52 40 3z m7631 -204 c-7 -53 -25 -113 -56 -183 -24
-58 -65 -169 -90 -247 -46 -143 -60 -172 -76 -162 -17 10 -9 57 30 157 21 56
48 129 59 162 141 417 157 450 133 273z m-6382 -137 c14 -9 46 -60 73 -112 42
-84 50 -109 70 -232 l22 -138 -24 -97 c-32 -129 -35 -134 -54 -92 -8 19 -18
48 -21 64 -8 38 -62 86 -158 142 -43 25 -81 52 -84 60 -11 30 48 318 82 400
13 32 18 35 42 30 16 -4 39 -15 52 -25z m-239 -79 c0 -13 -7 -51 -15 -85 -8
-34 -22 -98 -31 -141 -13 -64 -22 -85 -45 -105 -35 -31 -36 -46 -6 -65 27 -19
67 -21 129 -7 42 9 52 8 105 -19 70 -35 127 -92 141 -140 14 -47 57 -162 72
-191 7 -13 24 -36 38 -51 25 -27 25 -28 7 -48 -27 -29 -51 -33 -82 -13 -15 10
-35 23 -44 28 -111 67 -162 114 -195 178 -13 26 -28 47 -34 47 -58 0 62 -161
159 -212 54 -29 29 -38 -89 -31 -90 5 -117 3 -155 -11 -55 -22 -60 -41 -7 -32
83 15 128 17 151 9 22 -9 20 -12 -43 -63 -67 -54 -78 -70 -50 -70 21 0 52 17
99 56 22 17 60 42 83 55 43 22 45 22 98 5 50 -16 54 -19 54 -47 0 -48 -30
-167 -46 -180 -8 -6 -14 -17 -14 -25 0 -26 -31 -44 -75 -44 -57 0 -188 -19
-206 -31 -10 -6 -11 -11 -3 -19 8 -8 36 -8 95 -1 140 16 143 14 70 -59 -56
-56 -90 -68 -212 -77 -65 -4 -117 0 -218 17 -73 13 -135 28 -137 35 -3 6 34
51 81 99 65 66 91 86 103 80 77 -33 121 -43 155 -33 43 12 56 32 64 99 l6 50
-89 0 c-89 0 -153 18 -161 46 -6 17 43 70 77 84 40 17 42 61 3 94 -14 12 -23
27 -20 33 4 6 30 23 59 38 95 49 98 59 34 94 -25 13 -53 32 -63 43 -15 17 -15
21 -3 29 8 5 34 8 58 6 50 -5 60 5 38 38 -9 13 -16 35 -16 49 0 33 -20 76 -35
76 -7 0 -20 -9 -30 -20 -35 -39 -142 -23 -189 29 -16 18 -18 30 -12 93 9 101
32 164 75 207 39 39 148 106 215 132 45 17 56 11 56 -29z m916 -342 l38 -31
108 7 107 7 10 -25 c5 -14 22 -34 37 -45 l27 -20 -31 -59 c-17 -32 -40 -79
-52 -104 -28 -58 -43 -75 -109 -119 -103 -69 -112 -73 -170 -66 -29 3 -57 8
-61 10 -4 3 17 29 46 58 30 30 54 59 54 65 0 23 -25 12 -66 -29 -37 -37 -164
-122 -171 -115 -1 1 16 38 38 82 41 81 62 164 40 164 -6 0 -14 -8 -17 -17 -18
-52 -69 -154 -109 -213 -47 -71 -82 -91 -156 -89 l-34 1 32 14 c18 7 37 23 43
34 6 12 11 70 11 132 0 105 -2 115 -31 174 -18 34 -30 70 -28 80 5 30 51 29
103 -2 25 -14 48 -25 50 -23 3 2 33 30 68 63 55 52 117 85 178 95 3 1 23 -13
45 -29z m5554 -75 c0 -14 -4 -25 -10 -25 -5 0 -10 11 -10 25 0 14 5 25 10 25
6 0 10 -11 10 -25z m-101 -22 c0 -10 -4 -27 -9 -38 -7 -16 -9 -13 -9 18 -1 20
4 37 9 37 6 0 10 -8 9 -17z m-5898 -120 c29 -46 30 -52 27 -140 -4 -113 -15
-129 -58 -88 -29 27 -29 30 -11 37 18 6 19 9 5 54 -16 55 -19 184 -4 184 6 0
24 -21 41 -47z m5969 22 c0 -8 -7 -15 -15 -15 -16 0 -20 12 -8 23 11 12 23 8
23 -8z m-8117 -31 c30 -25 44 -26 93 -7 15 6 16 2 11 -32 -7 -43 1 -62 54
-126 35 -42 39 -53 39 -102 0 -31 5 -59 10 -62 20 -12 9 -24 -38 -39 -65 -22
-119 -68 -133 -116 -11 -37 -5 -110 9 -110 4 -1 27 -5 52 -10 83 -16 101 0
115 105 9 66 20 84 60 101 55 23 75 19 75 -15 0 -35 18 -43 93 -41 28 1 55 1
59 1 4 -1 -2 -21 -13 -45 -16 -37 -18 -52 -9 -88 5 -24 10 -46 10 -49 0 -3
-13 -23 -30 -44 -16 -21 -30 -46 -30 -56 0 -25 -10 -29 -90 -38 l-70 -7 0 26
c0 40 -10 42 -37 9 -30 -35 -49 -29 -29 9 17 32 123 145 150 159 29 16 11 34
-22 22 -35 -13 -143 -120 -179 -176 -27 -43 -45 -50 -87 -34 -22 8 -15 15 27
25 40 10 33 26 -12 26 -69 0 -109 61 -126 190 -4 25 -11 55 -17 66 -6 14 -8
53 -4 100 12 135 12 167 0 171 -7 2 -19 -24 -29 -64 -25 -94 -31 -104 -44 -73
-41 100 -51 120 -60 120 -6 0 -11 -6 -11 -13 0 -23 49 -159 71 -195 42 -71 93
-251 76 -268 -16 -16 -75 26 -149 107 -45 49 -87 89 -94 89 -25 0 -25 -21 0
-75 14 -30 21 -55 16 -55 -5 0 -11 4 -14 9 -3 5 -30 25 -60 45 -31 21 -58 48
-66 66 -7 16 -27 39 -44 49 -17 11 -47 47 -66 80 -55 95 -84 77 -34 -20 14
-28 23 -53 20 -57 -3 -3 -32 11 -63 30 -79 49 -335 120 -365 102 -18 -11 22
-34 59 -34 41 0 207 -53 251 -80 18 -11 30 -25 27 -30 -3 -6 -45 -10 -93 -10
-71 0 -98 5 -147 26 -33 14 -94 36 -137 49 -103 32 -117 40 -138 88 -11 23
-30 57 -44 76 -36 48 -33 55 17 48 24 -4 48 -2 54 4 6 6 16 2 28 -11 14 -15
31 -20 69 -20 79 -1 126 -15 157 -50 27 -29 33 -31 92 -30 34 1 74 -1 89 -5
19 -5 31 -2 47 14 26 26 37 26 103 1 36 -14 58 -29 70 -49 24 -44 71 -65 112
-51 52 17 63 37 64 113 0 37 -4 67 -9 67 -5 0 -9 5 -9 10 0 6 9 10 20 10 35 0
70 23 76 49 3 14 7 32 10 39 2 7 27 24 56 37 29 13 69 36 88 49 19 14 37 25
39 26 2 0 17 -12 34 -26z m8097 -73 c0 -29 -18 -71 -30 -71 -13 0 -13 31 0 64
11 31 30 34 30 7z m-50 -197 l-19 -79 3 55 c2 30 9 68 15 84 21 52 22 21 1
-60z m-5496 17 c52 -5 72 -12 80 -25 51 -86 91 -116 154 -116 52 0 38 -18 -44
-57 l-77 -37 -102 17 c-57 9 -118 25 -136 36 -19 10 -73 32 -121 47 -49 15
-88 31 -88 35 0 4 29 19 64 34 35 15 83 40 107 56 32 22 51 28 69 23 14 -4 56
-10 94 -13z m-405 -113 c12 -33 30 -112 26 -116 -6 -7 -42 72 -48 106 -7 37 9
44 22 10z m-3204 -52 c19 -7 19 -8 3 -20 -25 -18 -23 -23 20 -86 30 -44 58
-67 137 -115 l98 -60 96 -1 c59 -1 97 -6 99 -13 2 -6 -8 -22 -23 -37 -21 -21
-32 -25 -56 -20 -16 3 -42 9 -57 12 -22 4 -36 -1 -60 -21 -17 -14 -29 -32 -26
-40 3 -7 -2 -24 -10 -37 -14 -21 -14 -27 -2 -44 13 -17 12 -21 -2 -37 -24 -27
-5 -35 96 -39 78 -2 96 -6 107 -22 29 -40 244 -50 353 -17 70 21 70 21 13 -42
-32 -35 -35 -105 -6 -137 24 -27 102 -25 119 3 9 15 5 23 -26 49 -60 48 -47
88 28 88 35 0 47 -5 64 -27 39 -50 184 -164 247 -194 34 -16 64 -33 67 -38 6
-9 -148 -21 -285 -21 -65 0 -121 7 -175 21 -43 11 -124 29 -179 39 -109 19
-217 62 -343 135 -99 57 -122 80 -145 144 -17 50 -56 98 -110 136 -20 14 -33
36 -42 70 -8 28 -22 73 -33 100 -11 28 -28 84 -38 125 -9 41 -28 99 -41 129
-12 29 -23 57 -23 61 0 4 26 -2 58 -15 31 -12 66 -26 77 -29z m1225 -48 c0
-74 -9 -97 -36 -104 -33 -8 -54 12 -54 51 0 23 10 41 37 68 20 21 40 37 45 37
4 0 8 -24 8 -52z m1931 21 c3 -13 23 -49 43 -79 52 -79 54 -91 15 -154 -35
-60 -106 -146 -118 -146 -11 0 -31 103 -31 157 0 41 29 166 52 226 13 32 29
31 39 -4z m-646 -43 c23 -16 49 -22 106 -25 73 -3 76 -4 71 -25 -13 -54 -55
-60 -133 -19 -67 35 -82 28 -172 -77 -54 -63 -88 -92 -131 -114 -57 -30 -57
-30 -35 -46 l22 -17 -29 -10 c-16 -6 -49 -27 -73 -46 -40 -31 -46 -34 -56 -20
-10 13 -24 15 -69 10 -31 -3 -56 -3 -56 1 0 4 28 22 63 40 48 25 77 51 132
117 39 47 77 87 85 90 9 3 54 43 100 90 78 80 86 85 114 79 17 -4 45 -16 61
-28z m-2330 10 c25 -11 76 -15 177 -15 140 -1 144 -1 203 -32 69 -36 165 -105
165 -119 0 -6 -49 -10 -120 -10 -107 0 -128 3 -181 26 -75 31 -108 25 -64 -11
27 -21 28 -24 11 -31 -68 -26 -342 146 -311 196 9 15 81 12 120 -4z m-598 -95
c18 -5 50 -23 70 -40 165 -132 150 -124 213 -117 l58 7 11 -32 c6 -18 11 -41
11 -51 0 -34 90 -148 117 -148 7 0 20 -11 29 -25 24 -37 17 -174 -11 -205 -19
-22 -24 -22 -159 -16 -140 6 -169 13 -149 38 6 7 14 34 17 60 4 25 23 78 42
117 32 66 36 91 14 91 -15 0 -90 -146 -90 -176 -1 -67 -18 -49 -95 102 -44 85
-89 163 -100 174 -22 20 -22 20 -40 0 -18 -20 -18 -22 18 -93 37 -73 67 -157
67 -191 0 -24 -32 -17 -118 26 -34 17 -64 29 -67 26 -13 -13 37 -55 104 -85
91 -41 107 -54 122 -100 10 -31 8 -42 -12 -84 l-22 -49 -79 0 -80 0 -61 53
c-97 82 -102 92 -67 149 11 18 20 40 20 49 0 25 -38 68 -80 89 -21 11 -42 30
-46 42 -7 22 -3 26 78 95 17 13 28 36 33 63 11 67 53 151 98 198 35 36 47 42
82 42 22 0 55 -4 72 -9z m1273 -76 c20 -24 6 -28 -15 -5 -10 11 -13 20 -8 20
6 0 16 -7 23 -15z m54 -85 c21 0 146 -53 146 -62 0 -9 -76 -21 -135 -20 -27 0
-86 13 -130 27 -67 23 -91 27 -152 22 -77 -6 -122 -22 -105 -39 7 -7 27 -6 62
1 79 17 124 13 195 -16 74 -30 73 -39 -4 -67 -28 -10 -54 -23 -58 -29 -11 -18
84 1 143 29 57 27 104 27 104 0 0 -23 -25 -36 -107 -56 -44 -10 -109 -30 -145
-43 -55 -21 -72 -24 -114 -16 -73 13 -79 16 -64 34 8 9 30 15 56 15 45 0 94
14 94 27 0 14 -171 -2 -180 -16 -6 -11 -28 -11 -111 -2 -56 6 -105 14 -108 16
-2 3 1 11 7 17 19 19 14 48 -8 48 -27 0 -25 16 5 46 21 21 29 23 41 14 18 -16
86 -7 120 15 14 9 33 33 41 53 8 20 17 39 20 42 2 3 64 7 136 10 129 5 133 4
183 -22 28 -16 58 -28 68 -28z m327 -114 c-13 -13 -50 -39 -84 -57 -34 -18
-80 -50 -103 -71 -47 -43 -53 -44 -96 -22 l-31 16 43 37 c23 20 50 52 59 71
18 39 41 46 165 49 l69 1 -22 -24z m154 -77 c124 -40 307 -35 444 12 30 11 58
19 62 19 5 0 -5 -21 -21 -46 -16 -25 -32 -58 -35 -73 -10 -46 -60 -96 -166
-167 -115 -76 -154 -88 -294 -88 -120 0 -178 27 -320 152 -36 32 -37 35 -24
59 8 15 27 39 42 55 47 47 200 112 237 101 8 -3 42 -13 75 -24z m570 -30 c-30
-30 -41 -36 -43 -24 -6 28 26 65 55 65 l27 0 -39 -41z m115 5 c-15 -37 -14
-131 0 -184 24 -88 -9 -45 -39 51 -16 50 -14 63 15 120 27 54 42 62 24 13z
m-2436 -59 c3 -8 1 -15 -4 -15 -6 0 -10 7 -10 15 0 8 2 15 4 15 2 0 6 -7 10
-15z m2285 -71 c-61 -101 -122 -151 -288 -239 -164 -86 -256 -154 -311 -231
-38 -54 -55 -42 -24 18 21 41 102 123 130 132 19 6 54 67 54 95 0 7 9 9 24 5
27 -6 118 39 196 99 24 17 58 41 75 52 56 35 129 89 150 112 32 35 30 17 -6
-43z m-2229 -56 c17 -46 36 -90 41 -98 28 -46 69 -131 69 -144 0 -19 70 -85
98 -92 12 -4 22 -11 22 -16 0 -6 -7 -7 -16 -4 -9 3 -29 6 -45 6 -18 0 -29 5
-29 14 0 8 -10 23 -22 33 -24 19 -78 122 -98 185 -6 20 -18 42 -25 48 -27 22
-61 171 -36 156 5 -3 23 -43 41 -88z m531 -3 c88 -59 242 -135 298 -146 34 -7
61 -16 61 -20 0 -11 -300 -107 -375 -120 -36 -6 -94 -9 -128 -5 -129 12 -185
22 -200 35 -9 7 -35 47 -58 88 -32 60 -38 77 -27 84 18 12 20 11 58 -7 26 -13
50 -16 115 -11 109 8 154 29 179 85 11 23 24 42 30 42 6 0 28 -11 47 -25z
m-840 -187 c59 -48 87 -58 157 -58 65 0 103 16 117 48 14 31 23 28 43 -16 25
-54 60 -100 82 -107 11 -4 20 -9 20 -13 0 -5 -413 -8 -504 -3 -18 1 -18 7 -13
81 4 44 2 91 -3 104 -18 48 11 38 101 -36z m1474 -36 c16 -9 -4 -11 -100 -12
-68 0 -150 -7 -190 -16 -116 -25 -132 -27 -116 -16 8 6 49 18 90 27 42 9 87
20 101 25 34 12 190 7 215 -8z m560 -2 c-12 -19 -61 -37 -152 -55 l-92 -19
-118 28 c-65 15 -120 30 -122 32 -2 2 27 5 65 5 38 1 130 5 204 8 215 12 222
12 215 1z m-2117 -177 c-4 -24 -69 -41 -158 -42 -78 -1 -127 13 -79 22 13 3
53 12 89 20 36 8 84 15 108 16 36 1 43 -2 40 -16z m1970 -420 c55 -54 59 -62
65 -116 5 -48 10 -61 37 -84 38 -31 77 -90 86 -130 4 -15 14 -36 22 -45 14
-17 13 -18 -9 -18 -13 0 -46 7 -72 15 -63 19 -87 8 -87 -39 0 -31 39 -86 60
-86 25 0 47 -170 30 -232 -7 -24 -18 -39 -33 -44 -12 -4 -36 -23 -53 -42 l-30
-35 -31 22 c-27 20 -35 22 -83 13 -50 -9 -55 -8 -78 15 -31 31 -77 27 -128
-12 -47 -36 -56 -56 -41 -94 11 -29 10 -34 -8 -44 -11 -6 -40 -29 -65 -52 -46
-43 -295 -169 -359 -181 -26 -6 -31 -4 -31 14 0 11 -12 45 -26 76 -21 46 -30
56 -50 56 -49 0 -62 15 -69 83 -6 53 -3 72 15 115 12 28 30 58 41 68 20 18 25
39 10 49 -5 3 -33 10 -62 15 -66 13 -80 24 -72 60 4 24 1 31 -28 45 -18 10
-63 40 -100 69 -69 52 -112 77 -161 95 -42 16 -34 34 30 64 60 28 177 98 195
116 7 7 6 15 -2 24 -9 12 -4 21 25 46 50 45 92 58 172 52 22 -1 22 -2 6 -26
-20 -31 -13 -41 33 -50 69 -14 144 -8 172 12 49 37 210 104 238 101 23 -2 29
-8 31 -35 7 -69 -44 -121 -177 -179 -73 -32 -93 -36 -223 -44 -235 -16 -312
-38 -295 -84 5 -13 11 -14 39 -2 18 8 61 17 96 21 69 8 77 0 42 -45 -23 -30
-27 -80 -5 -80 8 0 23 20 34 44 31 72 97 106 236 122 33 3 77 13 98 22 21 8
39 13 41 11 2 -2 -4 -20 -15 -39 -51 -95 -77 -161 -88 -217 -18 -97 -34 -123
-127 -224 -100 -109 -120 -141 -100 -158 11 -9 20 -1 44 42 31 55 61 81 106
93 36 9 61 61 98 203 36 141 75 228 158 350 70 105 63 105 110 -7 l31 -73 -12
-98 c-11 -89 -11 -101 4 -125 10 -14 24 -26 31 -26 11 0 11 7 -1 42 -20 59 -3
178 26 178 5 0 33 -45 62 -100 30 -55 57 -100 62 -100 23 -1 1 67 -48 148 -30
50 -55 94 -55 97 0 6 76 -33 126 -66 35 -22 73 -17 53 7 -6 8 -19 14 -29 14
-10 0 -46 20 -81 45 -35 25 -80 54 -101 65 -26 14 -41 32 -54 65 -9 25 -14 48
-11 51 3 3 27 -1 54 -10 26 -9 77 -20 113 -25 36 -5 78 -14 93 -20 16 -6 43
-11 60 -10 l32 1 -43 20 c-24 11 -41 22 -37 26 3 4 29 9 57 12 28 3 53 10 55
16 7 20 -41 24 -112 8 -124 -28 -148 -28 -193 -5 -23 12 -48 21 -56 21 -22 0
-27 15 -16 44 5 15 17 26 28 26 21 0 67 46 76 76 13 43 47 61 123 63 39 1 48
-4 101 -56z"/>
<path d="M11655 8850 c-3 -5 6 -17 20 -26 20 -13 29 -14 38 -5 9 10 8 16 -7
27 -23 16 -42 18 -51 4z"/>
<path d="M7370 8590 c0 -5 5 -10 10 -10 6 0 10 5 10 10 0 6 -4 10 -10 10 -5 0
-10 -4 -10 -10z"/>
<path d="M7278 8573 c-21 -9 -38 -20 -38 -25 0 -5 3 -7 8 -5 4 3 26 10 50 16
23 7 42 16 42 21 0 13 -18 11 -62 -7z"/>
<path d="M6925 8342 c-38 -24 -58 -48 -50 -62 11 -17 34 -11 46 13 6 12 23 32
38 44 33 28 9 31 -34 5z"/>
<path d="M11215 8180 c-9 -14 3 -47 20 -53 7 -3 19 1 26 9 9 11 8 18 -6 34
-20 22 -31 25 -40 10z"/>
<path d="M7650 8120 l-21 -41 28 -44 c32 -51 45 -54 78 -20 31 30 31 43 3 54
-14 5 -26 22 -32 46 -15 52 -31 54 -56 5z"/>
<path d="M4997 6839 c-22 -13 -13 -29 17 -29 12 0 44 -7 70 -16 35 -12 51 -13
59 -5 21 21 -115 69 -146 50z"/>
<path d="M8290 7536 c-13 -35 3 -76 29 -76 28 0 36 18 17 39 -9 10 -16 25 -16
34 0 27 -20 29 -30 3z"/>
<path d="M7482 7568 c-7 -7 -12 -24 -12 -38 0 -32 17 -50 47 -50 18 0 23 6 23
24 0 60 -30 92 -58 64z"/>
<path d="M7715 7369 c-20 -38 -13 -61 17 -57 19 2 24 10 26 46 4 52 -19 58
-43 11z"/>
<path d="M8233 7010 c-31 -13 -30 -54 2 -85 41 -42 78 -25 47 23 -12 18 -12
25 -1 38 10 13 10 17 -2 25 -17 10 -18 10 -46 -1z"/>
<path d="M7987 6513 c-4 -3 -7 -19 -7 -35 0 -20 6 -31 22 -37 23 -8 61 -3 56
8 -31 59 -54 81 -71 64z"/>
<path d="M2594 2924 c-9 -20 -14 -56 -12 -82 l4 -47 16 35 c22 48 34 130 19
130 -7 0 -19 -16 -27 -36z"/>
<path d="M2912 1018 c3 -7 13 -15 22 -16 12 -3 17 1 14 10 -3 7 -13 15 -22 16
-12 3 -17 -1 -14 -10z"/>
<path d="M2286 608 c12 -84 9 -145 -6 -163 -15 -18 -7 -30 15 -21 37 14 44
133 13 214 -20 52 -31 37 -22 -30z"/>
<path d="M6297 9403 c-33 -32 74 -274 143 -323 29 -21 47 -24 74 -14 22 9 20
34 -3 34 -35 0 -50 11 -81 60 -35 55 -100 205 -100 232 0 18 -20 24 -33 11z"/>
<path d="M4960 8653 c-8 -2 -22 -7 -30 -10 -8 -3 22 -11 68 -18 92 -14 112
-25 112 -64 0 -35 -17 -51 -52 -51 -35 0 -47 -25 -24 -48 12 -13 19 -13 28 -4
7 7 20 12 29 12 9 0 31 16 49 36 37 42 35 75 -5 111 -39 34 -126 53 -175 36z"/>
<path d="M8963 7783 c-10 -99 -11 -3447 0 -4804 l8 -1027 -53 -62 c-72 -84
-94 -122 -113 -198 -9 -36 -27 -84 -41 -108 -19 -33 -24 -51 -19 -76 4 -23 0
-51 -14 -86 -12 -29 -26 -74 -32 -100 -14 -62 -21 -551 -8 -594 10 -36 44
-199 54 -263 9 -59 35 -133 52 -150 8 -8 30 -15 50 -15 l36 0 -8 43 c-14 73
-1 185 23 203 12 9 13 21 3 76 -14 80 -14 111 -1 103 6 -3 10 -18 10 -33 0
-45 50 -266 66 -289 19 -30 38 -30 30 -1 -15 53 -55 310 -61 393 -4 49 -11
100 -16 113 -16 42 -29 12 -29 -69 0 -74 -10 -100 -24 -63 -5 13 -9 14 -21 4
-8 -7 -15 -20 -16 -29 0 -12 -3 -10 -9 5 -5 12 -3 57 3 105 13 94 14 195 4
206 -4 4 -18 -3 -30 -15 -21 -21 -22 -32 -27 -230 -6 -254 -21 -247 -28 13 -3
144 -7 183 -20 198 -8 9 -12 20 -8 24 4 5 12 0 17 -10 16 -27 29 -20 29 16 0
55 29 215 50 275 11 31 31 66 45 78 20 16 25 28 23 55 -3 28 0 34 17 34 34 0
29 -37 -24 -172 -66 -171 -70 -203 -21 -203 33 0 35 2 19 28 -11 17 -10 22 46
172 7 19 19 35 27 35 25 0 20 -59 -13 -130 -35 -78 -47 -180 -20 -180 8 0 18
11 21 25 4 14 13 44 19 68 14 51 27 54 36 6 8 -43 35 -104 47 -104 10 0 9 48
-2 120 -10 62 -34 551 -29 590 8 66 -14 4016 -28 4910 -3 179 1 490 7 692 12
348 9 498 -10 498 -5 0 -12 -35 -17 -77z m-67 -6105 c-6 -32 -22 -56 -30 -47
-7 7 18 79 28 79 5 0 6 -14 2 -32z m-105 -305 c-17 -54 -37 -120 -45 -148 -10
-38 -14 -43 -15 -23 -1 40 36 192 61 251 34 79 33 32 -1 -80z m29 -961 c0 -15
-2 -15 -10 -2 -13 20 -13 33 0 25 6 -3 10 -14 10 -23z"/>
<path d="M9843 7818 c-13 -15 -30 -839 -19 -911 13 -89 23 -47 29 121 3 92 11
304 17 471 10 260 10 305 -2 318 -12 11 -17 12 -25 1z"/>
<path d="M6710 6951 c0 -5 28 -67 62 -138 51 -103 75 -141 128 -197 91 -94
113 -83 28 15 -68 77 -89 112 -132 218 -25 62 -60 111 -78 111 -4 0 -8 -4 -8
-9z"/>
<path d="M6410 6913 c0 -3 39 -45 88 -95 86 -88 153 -138 185 -138 31 0 17 18
-36 48 -30 17 -80 61 -115 100 -35 39 -76 75 -92 81 -17 5 -30 7 -30 4z"/>
<path d="M9826 6680 c-20 -80 -5 -4230 14 -4230 38 0 43 202 31 1130 -6 476
-14 1349 -17 1940 -4 591 -10 1102 -13 1135 -7 58 -7 59 -15 25z"/>
<path d="M5915 2873 c-38 -5 -400 -100 -437 -115 -16 -6 -28 -13 -28 -17 0 -7
18 -8 206 -15 87 -3 144 -10 169 -20 42 -18 75 -21 75 -6 0 22 -51 34 -222 55
-27 4 -48 9 -48 13 0 12 201 62 289 72 89 10 97 13 86 29 -6 11 -32 12 -90 4z"/>
<path d="M1873 1389 c-64 -31 -70 -44 -37 -74 15 -14 33 -25 40 -25 8 0 31
-15 51 -34 26 -23 51 -35 81 -39 43 -5 44 -5 37 20 -5 21 -3 24 15 18 44 -14
40 8 -7 35 -42 25 -50 27 -60 14 -10 -13 -17 -12 -52 12 -53 35 -56 69 -8 83
28 8 29 9 7 10 -14 1 -44 -8 -67 -20z"/>
<path d="M9060 901 c0 -83 6 -135 25 -213 14 -57 25 -111 25 -121 0 -28 -18
-10 -26 26 -3 17 -12 45 -19 62 -7 16 -18 59 -24 95 -5 36 -13 82 -16 103 -6
38 -31 60 -44 38 -19 -30 33 -263 81 -361 36 -75 48 -86 65 -63 18 23 25 11
30 -49 6 -75 10 -83 28 -68 23 19 18 64 -26 246 -24 101 -45 218 -52 292 -10
107 -13 122 -29 122 -16 0 -18 -11 -18 -109z"/>
</g>
</svg>
