<svg width="253" height="330" viewBox="0 0 253 330" fill="none" xmlns="http://www.w3.org/2000/svg">
<g opacity="0.15">
<path d="M76.7494 145.155C76.4746 145.228 75.9107 145.633 75.4769 146.066C74.8551 146.703 74.5081 147.252 73.7417 148.843C73.2212 149.942 72.3825 151.691 71.8909 152.732C69.8086 157.099 67.4372 159.716 64.0825 161.379C63.374 161.741 62.2751 162.175 61.6388 162.363C60.5977 162.666 60.4387 162.768 59.6578 163.606C58.5733 164.763 57.4455 166.44 55.8115 169.347C53.4401 173.555 53.0208 174.581 52.4713 177.386C52.1676 178.919 52.0809 179.512 51.5748 183.778C51.3 186.077 50.8373 188.578 50.5481 189.33C50.2445 190.154 47.338 193.365 45.1401 195.317C44.822 195.606 44.128 196.329 43.5929 196.936C42.2193 198.454 40.7154 199.626 38.9658 200.508C38.1416 200.927 37.0571 201.592 36.5365 202.012C35.0472 203.197 33.3409 204.426 28.0775 208.099C20.703 213.261 18.6931 214.866 15.0492 218.496C12.3741 221.185 11.2173 222.559 9.56892 225.032C6.89385 229.037 5.3611 232.594 3.65484 238.826C2.339 243.656 1.94858 246.519 1.94858 251.623C1.93412 256.496 2.22332 259.359 3.84282 270.855C4.36338 274.557 4.81163 278.519 5.01407 281.411C5.10083 282.596 5.23097 284.158 5.31773 284.866C5.60692 287.469 5.04299 290.159 3.35119 294.352C1.37019 299.24 0.921932 300.642 0.603815 303.028C0.0977206 306.744 0.560436 310.605 1.9775 314.234C2.98969 316.823 5.18759 320.033 7.25534 321.927C11.6367 325.961 19.257 328.651 29.3066 329.721C32.2998 330.053 40.0503 330.097 43.1881 329.808C50.3168 329.157 56.7369 327.711 61.9136 325.6C64.285 324.617 65.7454 323.575 65.9623 322.665C66.0491 322.332 65.9768 322.173 65.5719 321.768C64.7477 320.944 63.027 320.553 59.6 320.438C56.7514 320.336 54.2209 320.597 52.4857 321.175C49.8541 322.072 38.9513 322.766 35.5966 322.26C35.0472 322.187 33.5289 322.043 32.2564 321.97C28.5402 321.754 25.7784 321.059 20.2981 318.992C17.3049 317.864 16.0325 317.069 14.225 315.189C12.7645 313.67 11.3186 311.559 11.0149 310.475C10.6679 309.289 10.5088 308.132 10.5088 306.701C10.5088 304.04 11.3909 302.479 13.2128 301.929C14.1238 301.654 14.9046 301.669 16.553 302.016C19.0401 302.522 22.5249 302.883 27.7594 303.173C31.6491 303.404 56.5345 303.418 62.0582 303.202C74.7394 302.71 81.9983 301.423 86.3218 298.936C87.7099 298.126 89.0981 296.752 89.2138 296.044C89.4017 294.844 88.7655 293.962 87.3918 293.557C86.9725 293.427 85.4976 293.195 84.1094 293.036C81.3765 292.733 79.8872 292.429 79.3955 292.111C79.1497 291.952 79.0485 291.619 78.846 290.347C78.5858 288.727 77.6314 284.042 76.2288 277.434C74.002 267.009 73.3224 259.996 74.1177 256.034C74.9419 251.927 77.0964 246.577 80.2197 240.88C80.9427 239.564 81.8248 237.915 82.2007 237.207C82.5767 236.469 83.4298 235.211 84.2251 234.228C86.3796 231.567 87.0159 230.497 87.4497 228.849C87.5364 228.488 87.8834 227.75 88.216 227.186C90.0813 224.063 90.5296 221.778 90.7899 214.071C90.9779 208.128 90.9489 207.81 89.9657 202.46C89.1704 198.165 88.9824 196.473 89.0692 194.362C89.2282 190.342 89.9946 189.07 93.5951 186.858C94.9543 186.019 95.7785 185.383 96.6172 184.544C99.0754 182.071 100.796 178.803 100.984 176.287C101.172 173.916 100.304 172.73 97.3402 171.183C95.258 170.099 94.347 169.462 93.8264 168.682C91.3827 165.067 88.7077 162.869 85.4108 161.755C84.9047 161.582 83.907 161.365 83.184 161.278L81.8682 161.105L81.5356 160.425C80.9716 159.297 80.7837 157.663 80.6535 152.79C80.5089 147.917 80.3788 147.006 79.6992 145.98C79.1208 145.098 78.0218 144.779 76.7494 145.155Z" fill="black"/>
</g>
<g opacity="0.15">
<path d="M190.624 1.51791C190.624 3.32999 191.008 14.9953 191.278 21.9718C191.436 25.6186 191.414 27.3627 191.188 28.8804C191.008 30.1715 190.94 32.3233 191.008 34.7697C191.166 40.6363 190.827 41.2252 187.78 40.002C186.132 39.3452 184.89 39.2546 183.716 39.7529C182.701 40.1833 180.105 42.6749 179.54 43.7621C178.999 44.8041 178.953 47.3636 179.45 49.221C179.766 50.4668 180.059 51.0784 182.046 54.7026C182.971 56.4014 182.949 56.6279 181.707 56.6279C180.376 56.6279 177.622 57.3301 176.177 58.0323C174.168 59.0063 171.978 61.2261 170.895 63.3779C170.059 65.0315 170.059 65.0541 170.195 67.1154C170.375 69.4937 170.014 71.5323 169.066 73.3671C167.847 75.7907 164.574 77.4442 162.791 76.5382C160.579 75.4056 160.466 73.4124 162.52 71.6229C164.055 70.2639 165.364 70.4224 164.461 71.8721C163.287 73.7748 164.552 75.0206 166.199 73.5482C167.328 72.5063 166.493 69.2899 164.89 68.633C164.326 68.3838 164.055 68.4065 163.242 68.7236C161.346 69.4484 158.818 72.4384 158.795 73.9786C158.795 74.93 159.495 76.7421 160.24 77.7387C160.962 78.6674 161.165 78.7806 162.452 79.0525C164.032 79.3469 164.664 79.6187 164.664 80.0038C164.664 80.4342 163.084 82.201 159.563 85.7572C153.603 91.7823 151.188 95.7689 148.118 104.761C145.116 113.595 143.49 122.384 142.384 135.907C142.091 139.553 142.023 143.495 142.023 154.141C142.001 179.012 142.294 213.419 142.542 215.865C142.723 217.609 142.971 218.696 143.49 219.942C144.235 221.777 144.393 223.294 143.919 224.404C143.513 225.401 142.046 226.126 138.005 227.326C134.348 228.391 131.391 229.682 130.195 230.679C129.788 231.018 129.134 231.879 128.727 232.581C128.005 233.827 127.983 233.963 128.005 236.138C128.028 238.108 128.118 238.72 128.84 240.849C129.676 243.295 130.624 244.994 131.933 246.376C132.994 247.508 135.409 249.139 136.967 249.819C137.757 250.136 138.637 250.566 138.931 250.77L139.45 251.11L138.682 254.372C138.05 257.135 137.915 258.109 137.915 260.419C137.915 263.047 137.937 263.206 138.479 263.772C139.292 264.655 139.946 264.859 140.849 264.474C142.023 263.976 142.181 263.047 141.752 258.97C141.572 257.112 141.301 255.006 141.188 254.258C140.714 251.359 140.872 251.155 143.581 251.11C145.319 251.087 145.77 250.997 146.899 250.408C148.524 249.592 150.872 247.463 151.662 246.104C152.588 244.541 152.655 243.386 151.91 241.71C150.421 238.38 145.545 236.205 142.746 237.61C140.217 238.878 139.089 241.053 139.856 243.25C140.104 243.975 141.639 245.085 142.384 245.085C143.107 245.085 144.551 244.36 144.687 243.929C144.958 243.091 144.439 242.82 142.836 242.978C141.12 243.137 140.804 242.888 141.323 241.868C142.452 239.648 146.876 239.852 148.163 242.14C148.886 243.431 148.818 245.175 147.983 246.466C146.741 248.437 145.432 249.049 142.746 248.89C139.585 248.732 136.651 246.784 134.371 243.295C133.039 241.257 132.52 239.626 132.52 237.383C132.497 235.888 132.587 235.503 133.31 234.099C133.919 232.898 134.439 232.242 135.454 231.426C139.54 228.096 143.897 227.575 149.518 229.705C153.558 231.222 157.937 234.076 166.154 240.577C171.64 244.881 174.394 246.761 176.335 247.44C177.87 247.984 180.962 248.482 182.746 248.482C185.567 248.482 189.111 247.237 190.24 245.855C190.669 245.334 190.985 245.13 191.12 245.266C191.482 245.628 191.662 257.565 191.324 258.177C190.985 258.834 190.782 258.811 189.45 257.996C188.073 257.135 187.418 257.135 186.786 257.928C186.357 258.471 186.312 258.766 186.403 259.921C186.538 261.688 186.967 262.481 188.773 264.451C190.421 266.241 191.595 267.781 192.52 269.389C193.378 270.862 194.1 271.02 194.981 269.978C196.403 268.302 198.163 263.727 198.75 260.216C198.976 258.924 198.953 258.607 198.637 257.905C198.118 256.818 197.554 256.863 196.493 258.041C195.748 258.879 195.567 258.97 195.206 258.766C194.981 258.607 194.823 258.313 194.868 258.086C194.935 257.679 194.935 257.271 194.89 255.844C194.868 254.983 195.297 250.249 195.5 249.117C195.613 248.505 195.545 248.097 195.274 247.712C194.845 247.033 194.8 246.421 195.184 246.036C195.342 245.877 195.522 245.175 195.59 244.473C195.658 243.726 195.816 243.159 195.996 243.091C196.154 243.046 197.012 243.771 197.915 244.722C200.24 247.169 200.985 247.463 204.845 247.44C207.622 247.44 208.028 247.395 209.473 246.829C213.4 245.266 216.696 243.114 224.258 237.134C232.994 230.203 236.087 228.549 240.127 228.549C242.769 228.549 244.89 229.908 247.125 233.057C251.188 238.72 251.301 244.156 247.419 247.418C245.523 248.981 244.371 249.456 242.317 249.479C240.895 249.479 240.443 249.388 239.473 248.89C238.841 248.55 237.983 247.893 237.577 247.44C236.787 246.512 235.771 244.45 235.771 243.703C235.771 242.752 236.403 241.755 237.464 241.053C238.344 240.464 238.796 240.328 239.744 240.328C240.714 240.328 241.008 240.419 241.279 240.826C242.046 241.914 241.64 242.593 240.285 242.593C239.36 242.593 238.931 242.82 238.931 243.273C238.931 244.79 240.782 245.538 242.656 244.768C243.671 244.337 243.965 243.703 243.852 242.208C243.762 241.211 243.604 240.849 242.994 240.215C241.866 239.037 241.03 238.742 238.976 238.742C236.358 238.742 235.839 238.901 234.62 240.079C233.762 240.917 233.513 241.347 233.31 242.321C233.039 243.658 233.107 244.156 233.807 245.991C234.687 248.346 237.306 251.427 238.412 251.427C238.976 251.427 240.489 252.31 240.737 252.809C241.098 253.443 240.872 254.304 239.586 257.339C238.615 259.649 238.48 260.148 238.48 261.575C238.48 263.115 238.525 263.228 239.27 263.976C240.647 265.38 242.362 265.312 243.152 263.84C243.671 262.866 243.671 259.106 243.152 257.43C242.114 254.032 242.001 253.511 242.272 252.922C242.611 252.174 243.513 251.721 245.523 251.314C248.322 250.725 249.811 249.706 250.85 247.69C251.798 245.855 252.046 244.337 252.182 239.943L252.317 235.843L251.64 234.393C251.256 233.601 250.714 232.717 250.421 232.4C249.315 231.222 247.08 229.75 243.92 228.096C241.866 227.032 240.466 226.148 240.195 225.763C239.766 225.174 239.721 224.789 239.721 221.799C239.721 219.965 239.857 217.337 239.992 215.978C240.331 212.988 240.85 181.322 240.669 175.546C240.602 173.258 240.331 170.2 240.037 168.298C239.608 165.466 239.541 164.039 239.518 157.991C239.495 154.118 239.631 148.41 239.811 145.284C240.037 141.388 240.082 137.583 239.992 133.279C239.789 124.219 239.225 120.074 236.877 110.424C236.132 107.298 235.252 103.674 234.958 102.338C232.994 93.7983 230.353 88.4527 224.981 82.2689C223.807 80.8872 220.737 78.0332 219.066 76.7421C218.344 76.1758 218.321 76.1078 218.592 75.5869C218.75 75.2697 219.631 74.2051 220.511 73.2311C222.836 70.6716 223.197 70.1053 223.22 68.9501C223.243 67.7949 222.498 66.8888 220.917 66.1187C218.954 65.1447 215.545 65.9375 214.552 67.5684C213.965 68.4971 213.965 70.0147 214.507 70.513C215.161 71.1019 216.267 71.2378 216.922 70.8075C217.689 70.3092 217.667 69.4031 216.877 68.5877L216.267 67.9534L216.764 67.4551C217.757 66.4358 219.879 67.1154 220.714 68.7009C221.098 69.4484 221.121 69.6976 220.895 70.4677C219.947 73.6615 214.078 72.8234 213.22 69.3805C213.039 68.6783 212.994 67.5684 213.084 66.2546C213.265 63.8309 212.881 61.6791 211.978 60.1615C211.075 58.6212 209.405 57.0356 207.893 56.2881C206.651 55.6992 206.267 55.6313 203.536 55.5407L200.534 55.4501L200.692 54.7252C200.759 54.3402 201.279 53.185 201.82 52.1883C202.746 50.4668 202.836 50.1497 203.062 47.7713C203.513 43.3544 202.701 40.8854 200.443 39.7529C199.224 39.1413 196.267 38.9827 195.838 39.5037C195.5 39.9114 194.236 40.002 194.236 39.6396C194.236 39.5037 194.642 38.575 195.161 37.5557L196.087 35.721L195.229 32.2101C194.303 28.382 194.303 28.1329 195.229 23.8971C195.703 21.6773 196.041 18.0758 196.041 15.0859C196.041 12.5037 195.409 0.79306 195.251 0.272095C195.184 0.0908813 194.506 0.000274658 192.881 0.000274658H190.624V1.51791ZM193.965 1.63116C194.078 1.7897 194.303 2.35599 194.439 2.87695C194.913 4.64374 193.897 5.93484 192.452 5.41388C191.504 5.05145 191.301 3.12613 192.114 1.85767C192.475 1.29138 193.581 1.17813 193.965 1.63116ZM194.687 8.63034C195.071 9.35516 194.732 11.9601 194.213 12.2318C192.881 12.9567 191.888 10.8728 192.813 9.26456C193.039 8.90213 193.378 8.6077 193.604 8.6077C193.829 8.6077 194.01 8.49442 194.01 8.38116C194.01 7.99609 194.439 8.13202 194.687 8.63034ZM194.687 15.924C194.687 16.4676 193.874 18.1438 193.491 18.3929C193.197 18.5741 192.61 18.3703 192.272 17.9399C191.595 17.1018 192.181 14.9047 193.175 14.4969C193.558 14.3384 193.784 14.429 194.19 14.8594C194.461 15.1765 194.687 15.6522 194.687 15.924ZM194.19 22.1983C194.416 23.127 194.394 23.2856 193.852 24.0557C192.588 25.9131 191.075 24.4634 191.73 22.0171C191.956 21.247 192.114 21.0431 192.723 20.8846C193.626 20.6354 193.874 20.8392 194.19 22.1983ZM193.671 28.3141C194.123 29.1975 194.1 30.0809 193.581 31.0322C193.107 31.9609 192.565 32.1421 191.956 31.5759C191.143 30.851 191.504 28.518 192.52 27.8158C192.994 27.4987 193.333 27.6346 193.671 28.3141ZM194.032 34.815C194.416 35.8569 194.281 36.8762 193.694 37.2613C192.971 37.7369 192.294 37.3972 191.865 36.4005C191.617 35.7889 191.617 35.5851 191.911 34.9962C192.114 34.6337 192.362 34.2487 192.475 34.1807C192.904 33.9089 193.829 34.2713 194.032 34.815ZM192.588 41.5423C192.497 41.7462 192.339 41.9047 192.204 41.9047C191.956 41.9047 191.888 40.7042 192.136 40.4551C192.385 40.2285 192.746 41.1346 192.588 41.5423ZM197.78 41.2252C200.759 42.5616 201.64 43.898 201.391 46.6161C201.211 48.4735 200.85 49.4249 198.434 54.4761C197.373 56.6732 196.448 58.6892 196.358 58.961C196.29 59.2328 196.087 59.5952 195.951 59.7764C195.816 59.9576 195.59 60.4559 195.477 60.909C195.251 61.6564 195.161 61.7244 194.348 61.7924C193.513 61.8603 193.468 61.8603 193.829 61.4526C194.348 60.8637 194.529 60.0709 194.506 58.7118C194.484 57.2848 194.326 56.7185 193.739 55.9257L193.288 55.3141L193.807 54.5893C194.552 53.5927 194.574 51.3049 193.874 50.3536L193.378 49.6967L193.874 48.6774C194.326 47.794 194.461 47.6808 195.251 47.6355C197.351 47.5222 198.525 46.5935 198.525 45.0759C198.525 43.9886 198.096 43.6262 197.057 43.8074C196.267 43.966 196.154 44.1472 195.996 45.5289L195.929 46.0952L195.387 45.5515C194.89 45.0532 194.868 44.872 194.958 43.2411C195.026 42.2672 195.184 41.3158 195.364 41.1346C195.748 40.6589 196.628 40.6816 197.78 41.2252ZM188.186 41.5876C189.495 41.7688 190.15 42.2898 190.308 43.2864C190.421 43.9433 190.308 44.2831 189.721 45.1665C188.863 46.4349 187.802 47.0012 186.899 46.6615C186.561 46.5255 186.335 46.2764 186.335 45.9819C186.335 45.5515 186.651 45.393 187.915 45.2571C188.344 45.2118 188.502 45.0306 188.547 44.5549C188.728 42.9467 187.283 42.8108 185.771 44.2604C184.8 45.1665 184.732 45.325 184.822 46.1858C184.935 47.4316 185.5 47.9526 186.967 48.247C187.938 48.4282 188.299 48.4056 188.818 48.1338C189.653 47.7034 189.947 47.7034 189.947 48.1564C189.947 48.3603 190.127 48.8133 190.33 49.1757C190.692 49.81 190.692 49.8553 190.037 51.2143C189.269 52.8678 189.111 54.8838 189.743 55.3595C190.082 55.6086 190.105 55.6992 189.789 56.4014C189.608 56.8318 189.405 57.8737 189.337 58.7118C189.224 59.935 189.292 60.3427 189.608 60.841C190.037 61.4979 189.879 61.7924 189.044 61.883C188.615 61.9509 188.457 61.7924 188.186 61.0449C187.283 58.5986 186.335 56.7185 184.71 54.091C182.272 50.1497 181.775 48.9719 181.64 46.9786C181.549 45.5062 181.594 45.2118 182.114 44.351C182.881 43.0373 183.581 42.4257 184.89 41.9047C186.087 41.4291 186.651 41.3838 188.186 41.5876ZM192.678 44.6682C192.678 44.9626 192.813 45.5515 192.971 45.9819C193.22 46.6615 193.197 46.888 192.836 47.6128C192.61 48.0885 192.339 48.4735 192.227 48.4735C191.82 48.4735 191.459 47.0918 191.595 46.0952C191.82 44.5776 192.633 43.4677 192.678 44.6682ZM192.543 51.7126C192.746 52.7319 192.136 54.2043 191.595 54.091C191.03 53.9777 190.962 52.8905 191.436 51.8259C191.911 50.7613 192.362 50.716 192.543 51.7126ZM192.588 56.8091C192.994 57.0583 193.355 58.2135 193.197 58.7571C192.949 59.6179 192.452 60.6371 192.114 60.909C191.685 61.2714 191.391 61.0902 190.94 60.2068C190.488 59.3234 190.692 57.987 191.414 57.2168C192.001 56.5826 192.159 56.5373 192.588 56.8091ZM206.493 57.3301C207.328 57.7831 209.45 59.7991 209.879 60.5692C210.218 61.1808 210.263 61.6564 210.127 64.1028C210.014 66.4358 210.082 67.3872 210.466 69.5164C210.737 70.9434 210.895 72.1439 210.85 72.1892C210.805 72.2345 209.902 72.0306 208.863 71.7135L206.944 71.1246L206.064 69.3805C205.59 68.4291 204.597 67.0021 203.852 66.1867L202.52 64.7143L203.513 64.1934C204.89 63.5138 205.251 63.0382 205.409 61.7018C205.545 60.6824 205.522 60.4786 205.048 60.0482C204.371 59.414 203.897 59.4366 203.062 60.1615C202.362 60.7504 202.136 61.6564 202.588 61.9509C202.949 62.1774 202.859 62.4039 202.159 62.8117C201.256 63.3553 200.917 63.31 199.992 62.4945C199.292 61.883 199.202 61.6564 199.202 60.7278C199.202 59.8217 199.315 59.5499 199.947 58.9836C200.872 58.0776 201.843 57.4434 202.701 57.1262C203.491 56.8318 205.771 56.945 206.493 57.3301ZM184.213 58.2135C185.184 58.8251 185.545 59.6179 185.522 61.0902C185.5 62.6984 185.116 63.4459 183.987 64.0575C183.581 64.2613 182.881 64.6464 182.43 64.8729C181.504 65.3712 180.692 65.1674 180.24 64.3519C180.037 63.9442 180.127 63.8083 180.895 63.31C181.978 62.6304 182.272 62.1548 182.114 61.3393C181.933 60.4106 181.527 60.1841 180.421 60.3653C179.743 60.4786 179.202 60.7731 178.615 61.362C177.125 62.8796 177.17 64.4878 178.795 66.0961C179.337 66.6623 179.789 67.1833 179.789 67.2966C179.789 67.3872 179.45 67.7496 179.021 68.112C178.073 68.9274 177.17 70.513 176.967 71.7362C176.786 72.8914 176.493 73.1632 174.416 74.0466C173.513 74.4316 172.543 74.8847 172.272 75.0885C172.001 75.2697 171.707 75.4283 171.617 75.4283C171.324 75.4283 171.414 74.6355 171.798 73.7068C172.114 72.982 172.136 72.4384 171.978 70.6716C171.64 66.6623 171.752 65.0541 172.452 63.6497C173.987 60.5918 175.793 59.2328 179.879 58.0776C181.188 57.7152 183.536 57.7831 184.213 58.2135ZM199.834 72.4157C201.03 73.5709 201.82 75.0206 202.701 77.6481C203.852 81.0231 204.371 83.2882 204.597 85.8931C204.71 87.1842 205.071 89.3134 205.387 90.6045C206.019 93.1867 207.757 105.464 207.735 107.14C207.712 107.706 207.825 109.178 207.983 110.424C208.209 112.214 208.209 113.324 208.005 115.702C207.847 117.378 207.802 119.439 207.87 120.3C208.141 122.995 208.75 122.792 201.324 122.724L194.913 122.656V117.899C194.913 115.271 195.093 110.855 195.297 108.046C195.545 104.331 195.658 98.7589 195.725 87.5466C195.793 70.0826 195.613 71.5776 197.757 71.5776C198.841 71.5776 199.044 71.6682 199.834 72.4157ZM193.626 71.9627C193.694 72.0759 193.626 73.0046 193.513 74.0692C193.378 75.1791 193.242 83.8998 193.22 94.7949C193.13 116.223 193.062 122.452 192.859 122.656C192.768 122.724 189.789 122.701 186.199 122.61L179.698 122.429L179.518 121.636C179.427 121.206 179.45 119.824 179.563 118.579C179.698 117.333 179.879 115.136 180.014 113.709C180.127 112.282 180.398 109.767 180.579 108.159C180.782 106.528 181.03 102.972 181.143 100.231C181.324 95.4065 181.617 93.0055 182.497 89.4719C182.723 88.5432 182.971 87.3654 183.039 86.8671C183.378 84.8285 184.597 80.3209 185.297 78.5315C186.154 76.357 187.96 72.914 188.479 72.4837C188.66 72.3251 189.608 72.1212 190.556 72.0306C193.107 71.7815 193.513 71.7815 193.626 71.9627ZM185.883 72.8914C185.883 73.0046 185.545 73.4803 185.116 73.9786C184.236 74.9979 182.497 78.3956 181.978 80.0718C181.166 82.6766 179.495 91.6238 178.773 97.0374C178.412 99.8461 177.983 106.37 177.509 116.132C177.351 119.281 177.147 121.954 177.057 122.112C176.786 122.565 174.619 122.61 172.384 122.225C171.166 122.022 169.021 121.863 167.17 121.863C164.439 121.863 163.965 121.818 163.513 121.433L162.971 121.002L163.513 118.216C163.807 116.676 164.19 114.071 164.348 112.463C164.732 108.907 165.838 102.066 166.448 99.4384C167.734 93.9115 170.353 87.2974 172.543 84.0583C173.062 83.3109 174.1 82.0197 174.822 81.227C175.567 80.4342 176.651 79.1884 177.238 78.4182C177.847 77.6481 179.111 76.4702 180.127 75.7454C181.12 75.0206 182.181 74.2278 182.497 73.956C182.813 73.6615 183.378 73.2764 183.739 73.0952C184.461 72.7102 185.883 72.5743 185.883 72.8914ZM205.432 76.1531C217.893 89.0189 222.294 97.5131 224.529 112.916C224.642 113.777 224.687 115.475 224.619 116.653C224.529 117.831 224.461 119.371 224.416 120.051L224.371 121.274L221.211 121.568C219.473 121.727 217.283 121.954 216.358 122.089C212.656 122.633 210.85 122.746 210.669 122.475C210.488 122.18 210.33 115.136 210.443 111.783C210.556 108.318 210.105 102.7 209.247 96.8109C208.254 89.9476 207.441 85.576 206.99 84.7152C206.809 84.3528 206.493 83.5147 206.312 82.8578C205.545 80.0718 204.574 77.5348 203.604 75.7227C203.039 74.6582 202.588 73.7521 202.588 73.6842C202.588 73.435 203.965 74.6129 205.432 76.1531ZM211.459 75.7681C216.674 77.4669 223.017 83.5147 227.577 91.1028C229.45 94.2513 229.766 94.9308 231.482 99.6649C232.588 102.768 234.642 112.893 234.642 115.339C234.642 116.268 234.755 117.378 234.913 117.786C235.139 118.443 235.116 118.579 234.71 118.896C234.1 119.394 227.464 120.866 227.17 120.572C227.035 120.436 226.899 119.258 226.832 117.899C226.787 116.563 226.674 115.362 226.583 115.226C226.493 115.068 226.358 113.844 226.267 112.463C225.884 105.871 223.084 96.1767 219.721 89.6985C217.057 84.602 215.116 81.8385 210.443 76.5155C209.224 75.1565 208.728 74.3637 209.428 74.9526C209.608 75.0885 210.511 75.4509 211.459 75.7681ZM173.22 79.0298C169.54 82.7899 167.283 86.3461 164.913 92.0315C164.145 93.8889 162.52 98.9401 162.091 100.82C161.64 102.859 160.804 107.842 160.601 109.971C159.63 119.575 159.405 120.957 158.795 120.957C158.57 120.957 156.583 120.504 154.371 119.938C152.181 119.371 150.24 118.918 150.082 118.918C149.946 118.918 149.743 119.1 149.653 119.303C149.45 119.87 150.217 120.413 151.504 120.594C152.091 120.685 153.197 120.912 153.942 121.115C154.687 121.297 155.996 121.546 156.877 121.636C159.089 121.886 159.337 122.225 159.134 124.808C158.773 129.813 158.299 134.978 157.892 138.172C157.644 140.097 156.989 146.1 156.425 151.513C155.477 160.642 155.409 161.797 155.387 167.822C155.364 174.436 155.229 175.795 154.484 175.954C154.303 175.976 152.971 175.591 151.572 175.07C148.637 174.006 146.831 173.689 146.831 174.277C146.831 174.889 152.633 177.358 154.077 177.358C154.687 177.358 154.687 177.358 154.867 179.555C154.958 180.778 155.026 186.622 155.003 192.534C154.958 202.455 155.342 215.14 155.793 217.654L155.928 218.424L154.755 218.288C154.123 218.221 152.949 217.881 152.181 217.518C150.24 216.658 146.493 214.551 146.064 214.075C145.161 213.079 145.048 203.293 145.816 191.288C145.996 188.298 146.154 184.38 146.132 182.568C146.064 173.575 146.809 149.044 147.509 137.379C148.299 124.423 148.705 120.119 149.653 114.954C150.24 111.738 152.181 104.829 153.4 101.658C154.348 99.2345 157.667 92.5751 158.705 91.0575C160.014 89.1322 163.423 85.1003 164.732 83.8998C166.154 82.6087 170.827 79.211 172.678 78.1011C174.98 76.7421 175.613 76.3796 175.725 76.357C175.793 76.3343 174.664 77.5348 173.22 79.0298ZM235.297 124.626C236.471 142.226 236.538 144.129 236.561 156.859C236.583 165.24 236.696 170.042 236.854 171.016C236.99 171.831 237.125 173.213 237.125 174.119V175.75L235.274 176.316C231.978 177.29 228.051 178.287 227.689 178.219C227.373 178.151 227.328 176.429 227.215 162.861C227.103 145.556 227.125 141.66 227.419 134.774C227.554 131.603 227.554 128.794 227.396 126.733C227.08 122.135 227.08 122.089 227.915 122.089C228.164 122.089 229.089 121.84 229.947 121.523C230.85 121.206 232.001 120.957 232.678 120.957C233.333 120.957 234.01 120.844 234.191 120.73C234.936 120.232 235.026 120.504 235.297 124.626ZM167.035 123.109C168.141 123.199 169.134 123.29 169.224 123.358C169.315 123.426 169.134 123.924 168.84 124.513C168.524 125.079 168.276 125.668 168.276 125.827C168.276 126.235 166.696 128.59 165.477 130.017C164.89 130.697 164.055 131.965 163.626 132.826C162.971 134.14 162.858 134.615 162.858 135.929C162.858 136.767 162.768 137.515 162.655 137.583C162.542 137.673 162.294 138.149 162.114 138.693C161.843 139.508 161.843 139.803 162.091 140.686C162.52 142.136 162.949 142.475 163.513 141.773L163.942 141.23L164.439 141.683C165.319 142.498 165.635 143.381 165.635 145.194C165.635 146.145 165.522 147.277 165.387 147.708C164.574 150.29 164.19 157.833 164.755 160.143C165.838 164.583 169.901 171.356 172.204 172.579C174.236 173.643 174.032 175.478 171.685 177.766C169.427 179.94 169.405 179.963 168.118 179.533C167.531 179.351 165.974 178.966 164.664 178.717C162.226 178.219 158.682 177.381 158.186 177.199C157.825 177.064 157.802 173.281 158.141 170.789C158.254 169.861 158.457 166.486 158.57 163.314C158.795 157.108 159.111 153.959 160.037 149.157C160.466 146.87 160.601 145.533 160.556 143.88C160.488 141.683 160.895 137.288 161.707 131.603C161.956 129.927 162.226 127.48 162.317 126.167C162.52 122.86 162.588 122.724 163.919 122.86C164.529 122.928 165.906 123.041 167.035 123.109ZM224.303 123.698C224.394 124.128 224.461 127.82 224.439 131.943C224.349 145.307 224.371 151.649 224.484 165.285C224.552 174.617 224.529 178.762 224.349 178.944C224.01 179.283 221.346 179.804 217.283 180.303C215.342 180.552 213.423 180.846 213.039 180.982C212.656 181.118 211.888 181.209 211.369 181.163L210.376 181.095L210.24 174.98C209.992 163.133 210.263 124.672 210.624 124.105C210.692 123.992 211.233 123.902 211.843 123.902C212.452 123.902 214.552 123.698 216.493 123.449C218.457 123.199 220.805 122.995 221.708 123.018C222.633 123.041 223.446 122.995 223.513 122.905C223.807 122.61 224.145 122.928 224.303 123.698ZM176.854 124.853C176.854 126.801 176.719 127.163 175.883 127.435C175.477 127.571 174.777 127.865 174.326 128.069C173.265 128.522 173.22 128.409 174.213 127.82C175.138 127.254 175.658 125.85 175.251 124.943C175.093 124.626 174.89 124.355 174.8 124.355C174.71 124.355 173.852 125.125 172.881 126.053C171.933 127.005 171.12 127.73 171.075 127.684C171.03 127.639 171.143 127.277 171.346 126.869C171.572 126.416 171.662 125.917 171.549 125.532C171.482 125.193 171.346 124.581 171.278 124.173L171.166 123.449H174.01H176.854V124.853ZM189.947 124.083L192.768 124.241L192.723 126.28C192.701 127.39 192.61 131.173 192.565 134.661C192.43 141.773 192.159 146.779 191.64 151.128C191.459 152.736 191.301 154.548 191.301 155.115C191.301 156.157 191.008 156.995 190.804 156.61C190.737 156.496 190.624 156.089 190.534 155.726C190.443 155.341 190.127 154.435 189.834 153.688C189.54 152.94 188.795 151.038 188.186 149.452C186.854 146.077 185.093 143.019 183.604 141.524C183.017 140.912 182.114 139.599 181.594 138.579C181.053 137.537 180.217 136.201 179.698 135.589C178.637 134.298 178.682 134.797 178.999 128.205C179.089 126.031 179.247 124.128 179.337 124.015C179.54 123.766 184.958 123.811 189.947 124.083ZM207.96 127.526C207.983 129.451 207.915 131.852 207.802 132.826C207.667 133.913 207.667 136.382 207.78 139.055C207.893 141.501 208.028 151.173 208.118 160.574L208.254 177.652L206.832 177.517C203.762 177.222 203.355 177.041 200.917 174.549C196.786 170.314 193.31 164.945 192.655 161.819C192.339 160.324 192.452 157.493 192.971 153.235C193.423 149.633 194.168 136.79 194.394 128.318C194.484 125.079 194.552 124.423 194.868 124.173C195.161 123.947 196.628 123.902 201.572 123.947L207.893 124.015L207.96 127.526ZM176.561 130.131C176.538 131.263 176.425 131.354 175.838 130.697C175.454 130.266 175.454 130.244 175.974 129.678C176.267 129.383 176.538 129.111 176.538 129.111C176.561 129.111 176.561 129.564 176.561 130.131ZM176.583 176.588C177.26 177.064 177.215 177.313 176.154 178.491L175.251 179.51L175.364 178.083C175.545 176.09 175.68 175.931 176.583 176.588ZM184.303 176.724C184.777 176.996 185.342 177.517 185.545 177.879C185.748 178.241 186.47 179.147 187.148 179.895C187.825 180.642 188.367 181.367 188.367 181.481C188.367 181.843 179.111 181.277 177.26 180.801L176.628 180.642L177.396 179.736C178.592 178.355 180.105 176.905 180.376 176.905C180.511 176.905 180.759 176.746 180.917 176.565C181.346 176.044 183.242 176.135 184.303 176.724ZM237.238 178.219C237.306 178.694 237.306 184.38 237.238 190.858C237.148 197.314 237.057 204.947 237.012 207.824C236.945 212.875 236.899 213.509 236.403 215.163C236.2 215.865 235.929 216.046 233.423 217.224C230.105 218.787 226.809 219.874 226.425 219.489C226.064 219.127 225.996 211.606 226.312 204.675C226.448 201.436 226.629 194.55 226.719 189.408C226.854 180.484 226.877 180.031 227.283 179.714C227.531 179.533 228.096 179.397 228.57 179.397C229.608 179.397 234.349 178.219 235.229 177.72C235.59 177.539 236.155 177.381 236.493 177.358C237.012 177.358 237.103 177.471 237.238 178.219ZM208.412 179.872L208.344 181.073L206.651 181.345C205.725 181.503 203.378 181.616 201.459 181.639H197.96L197.328 180.846C196.583 179.986 196.741 179.918 198.389 180.416C199.811 180.846 200.872 180.846 201.233 180.416C201.459 180.121 201.459 179.986 201.143 179.646C200.782 179.238 200.872 179.238 203.423 179.102C204.89 179.034 206.538 178.83 207.102 178.649C207.667 178.468 208.209 178.4 208.299 178.491C208.412 178.581 208.457 179.193 208.412 179.872ZM161.956 179.306C164.123 179.759 167.441 180.461 169.292 180.846L172.678 181.548L172.723 183.247C173.107 196.929 173.265 204.313 173.265 209.183C173.287 213.373 173.4 216.091 173.694 218.583C173.919 220.508 174.055 222.162 173.965 222.23C173.694 222.479 169.969 222.026 167.102 221.392C161.707 220.236 158.682 219.534 158.073 219.285L157.486 219.059L157.396 212.648C157.351 209.115 157.396 205.106 157.486 203.747C157.712 200.439 157.689 201.164 157.531 190.722C157.396 182.115 157.486 178.491 157.87 178.491C157.937 178.491 159.789 178.853 161.956 179.306ZM172.61 179.895C172.497 180.008 172.114 180.076 171.752 180.031L171.098 179.963L171.888 179.442C172.565 179.012 172.678 178.989 172.746 179.306C172.791 179.51 172.746 179.759 172.61 179.895ZM224.394 181.118C224.484 181.435 224.484 182.59 224.394 183.678C224.145 187.279 224.01 215.661 224.236 217.337C224.642 220.169 224.665 220.055 224.033 220.123C223.717 220.169 223.017 220.35 222.452 220.508C221.233 220.893 219.27 221.21 215.342 221.618C213.739 221.799 212.136 222.003 211.82 222.094C211.256 222.23 211.233 222.207 211.075 220.825C210.872 218.719 210.917 214.823 211.188 211.244C211.391 208.594 211.369 207.733 211.075 205.808C210.782 203.996 210.692 201.323 210.647 193.055L210.601 182.568L211.504 182.477C212.001 182.409 213.333 182.251 214.439 182.115C218.276 181.662 219.856 181.413 221.549 181.005C223.942 180.393 224.213 180.416 224.394 181.118ZM180.353 182.387C181.098 182.522 183.175 182.658 184.98 182.704C190.511 182.817 190.443 182.749 190.714 188.525C190.804 190.79 190.917 194.075 190.94 195.819C191.12 208.662 191.459 219.262 191.753 221.528C192.046 223.634 192.001 223.657 188.818 223.476C187.396 223.385 184.1 223.226 181.482 223.113C178.886 223 176.583 222.864 176.38 222.773C175.861 222.57 175.5 217.043 175.5 209.07C175.5 205.4 175.477 197.767 175.477 192.127V181.843L177.238 182.002C178.208 182.069 179.608 182.251 180.353 182.387ZM208.547 182.953C208.728 183.61 208.795 192.715 208.615 192.897C208.525 192.987 208.457 192.942 208.457 192.783C208.457 192.647 208.209 192.285 207.915 192.013C207.622 191.741 206.922 190.971 206.38 190.314C205.816 189.658 204.755 188.593 204.01 187.936C203.265 187.279 201.82 185.875 200.827 184.81L198.976 182.84L202.181 182.817C203.942 182.794 205.432 182.726 205.5 182.681C205.545 182.613 206.245 182.568 207.012 182.568C208.163 182.568 208.457 182.636 208.547 182.953ZM194.506 190.609C195.026 191.47 195.635 192.693 195.861 193.327C197.441 197.631 199.111 200.1 200.308 199.964C201.075 199.873 201.549 198.899 201.549 197.404L201.572 196.249L202.317 196.77C203.175 197.336 205.342 198.197 205.951 198.197C206.516 198.197 206.674 197.45 206.267 196.838C205.816 196.204 205.951 196.113 206.899 196.385C207.306 196.521 207.938 196.611 208.276 196.611H208.908L208.954 202.433C209.044 214.483 209.066 216.273 209.224 219.308L209.405 222.388L208.186 222.524C205.635 222.773 196.312 223.362 194.981 223.34H193.581L193.423 222.298C193.333 221.709 193.378 217.971 193.513 213.985C193.649 209.998 193.716 206.646 193.649 206.533C193.581 206.442 193.423 203.112 193.31 199.148C193.175 195.207 193.017 191.107 192.971 190.043C192.859 187.823 192.881 187.823 194.506 190.609ZM163.987 233.601C166.493 234.144 170.895 234.778 178.366 235.662C179.653 235.82 180.737 236.002 180.804 236.07C180.872 236.115 180.601 236.455 180.24 236.817C179.653 237.383 179.563 237.632 179.563 238.742C179.563 241.075 181.459 243.046 183.671 243.046C185.116 243.046 185.206 242.933 185.206 241.211C185.206 239.966 185.139 239.603 184.845 239.49C184.303 239.286 183.784 239.694 183.581 240.509C183.287 241.619 182.114 241.393 181.594 240.124C181.211 239.15 181.459 238.403 182.43 237.723C184.032 236.658 185.522 237.089 187.78 239.263C189.224 240.645 189.269 240.713 189.269 241.8C189.269 243.386 188.637 244.111 187.035 244.405C185.184 244.745 180.353 244.677 178.66 244.269C176.967 243.884 173.491 242.163 171.143 240.577C170.24 239.988 168.502 238.833 167.26 238.063C164.687 236.432 160.059 233.17 159.676 232.717C159.45 232.445 159.563 232.445 160.285 232.717C160.782 232.876 162.43 233.283 163.987 233.601ZM223.333 233.918C223.152 234.122 222.498 234.507 221.888 234.778C221.211 235.096 219.676 236.273 218.073 237.7C216.606 239.014 215.319 240.101 215.251 240.101C215.184 240.101 214.552 240.6 213.875 241.234C213.152 241.914 212.091 242.57 211.256 242.91C210.466 243.227 209.179 243.794 208.344 244.201C205.184 245.696 201.662 245.47 199.202 243.59C197.938 242.638 197.622 241.936 197.622 240.169C197.622 239.06 197.712 238.878 198.547 237.95C199.337 237.089 199.608 236.93 200.33 236.93C202.114 236.93 203.242 237.746 202.926 238.765C202.791 239.15 202.656 239.218 202.181 239.082C200.556 238.697 200.33 238.697 200.195 239.082C199.834 239.988 201.617 241.687 202.926 241.687C204.281 241.687 205.161 240.034 204.642 238.471C204.507 238.04 204.123 237.338 203.829 236.93C203.513 236.5 203.31 236.115 203.378 236.07C203.423 236.024 205.432 235.888 207.825 235.775C210.895 235.639 212.746 235.458 214.1 235.141C215.161 234.869 216.651 234.665 217.396 234.665C218.163 234.665 219.224 234.507 219.766 234.325C220.624 234.008 222.362 233.646 223.333 233.555C223.581 233.533 223.581 233.601 223.333 233.918ZM191.233 236.409C190.737 237.904 190.488 238.516 190.376 238.516C190.308 238.516 189.969 238.199 189.608 237.836C189.247 237.451 188.841 237.157 188.66 237.157C188.344 237.157 187.87 236.387 188.073 236.16C188.141 236.092 188.931 236.024 189.789 236.024C191.188 236.024 191.346 236.07 191.233 236.409ZM196.719 236.387C196.719 236.455 196.516 236.772 196.267 237.089C196.019 237.406 195.816 237.587 195.816 237.474C195.816 237.361 195.748 237.044 195.68 236.749C195.567 236.319 195.635 236.251 196.132 236.251C196.448 236.251 196.719 236.319 196.719 236.387ZM193.829 237.406C194.168 237.587 194.236 237.791 194.123 238.244C193.762 239.739 192.723 240.373 192.204 239.422C192.023 239.06 192.091 238.788 192.543 238.063C193.175 237.066 193.175 237.066 193.829 237.406ZM195.567 241.687C195.59 241.891 195.455 241.823 195.229 241.506C195.048 241.234 194.958 240.894 195.048 240.736C195.229 240.464 195.545 241.03 195.567 241.687ZM194.597 243.182C194.777 243.907 194.484 244.836 193.965 245.175C193.446 245.492 192.655 244.768 192.655 243.997C192.655 242.706 194.303 242.027 194.597 243.182ZM194.078 248.188C194.326 249.003 193.874 250.136 193.288 250.249C193.084 250.294 192.746 250.068 192.543 249.751C192.204 249.23 192.204 249.139 192.565 248.437C193.22 247.146 193.762 247.055 194.078 248.188ZM193.513 253.941C193.558 254.372 193.423 254.915 193.265 255.164C192.971 255.527 192.881 255.549 192.565 255.3C192.091 254.915 192.114 254.258 192.61 253.579C193.107 252.854 193.423 252.99 193.513 253.941Z" fill="black"/>
</g>
</svg>
