<svg width="239" height="424" viewBox="0 0 239 424" fill="none" xmlns="http://www.w3.org/2000/svg">
<g opacity="0.15">
<path d="M176.624 1.5179C176.624 3.32999 177.008 14.9953 177.278 21.9718C177.436 25.6186 177.414 27.3628 177.188 28.8804C177.008 30.1715 176.94 32.3233 177.008 34.7696C177.166 40.6363 176.827 41.2252 173.78 40.002C172.132 39.3452 170.89 39.2546 169.716 39.7529C168.701 40.1833 166.105 42.6749 165.54 43.7621C164.999 44.8041 164.953 47.3636 165.45 49.221C165.766 50.4668 166.059 51.0784 168.046 54.7026C168.971 56.4014 168.949 56.6279 167.707 56.6279C166.376 56.6279 163.622 57.3301 162.177 58.0323C160.168 59.0063 157.978 61.2261 156.895 63.3779C156.059 65.0315 156.059 65.0541 156.195 67.1154C156.375 69.4937 156.014 71.5323 155.066 73.367C153.847 75.7907 150.574 77.4442 148.791 76.5382C146.579 75.4056 146.466 73.4123 148.52 71.6229C150.055 70.2639 151.364 70.4224 150.461 71.8721C149.287 73.7748 150.552 75.0206 152.199 73.5483C153.328 72.5063 152.493 69.2899 150.89 68.633C150.326 68.3838 150.055 68.4065 149.242 68.7236C147.346 69.4484 144.818 72.4384 144.795 73.9786C144.795 74.93 145.495 76.7421 146.24 77.7387C146.962 78.6674 147.165 78.7806 148.452 79.0525C150.032 79.3469 150.664 79.6187 150.664 80.0038C150.664 80.4342 149.084 82.201 145.563 85.7572C139.603 91.7824 137.188 95.7689 134.118 104.761C131.116 113.595 129.49 122.384 128.384 135.907C128.091 139.553 128.023 143.495 128.023 154.141C128.001 179.012 128.294 213.419 128.542 215.865C128.723 217.609 128.971 218.696 129.49 219.942C130.235 221.777 130.393 223.294 129.919 224.404C129.513 225.401 128.046 226.126 124.005 227.326C120.348 228.391 117.391 229.682 116.195 230.679C115.788 231.018 115.134 231.879 114.727 232.581C114.005 233.827 113.983 233.963 114.005 236.138C114.028 238.108 114.118 238.72 114.84 240.849C115.676 243.295 116.624 244.994 117.933 246.376C118.994 247.508 121.409 249.139 122.967 249.819C123.757 250.136 124.637 250.566 124.931 250.77L125.45 251.11L124.682 254.372C124.05 257.135 123.915 258.109 123.915 260.419C123.915 263.047 123.937 263.206 124.479 263.772C125.292 264.655 125.946 264.859 126.849 264.474C128.023 263.976 128.181 263.047 127.752 258.97C127.572 257.112 127.301 255.006 127.188 254.258C126.714 251.359 126.872 251.155 129.581 251.11C131.319 251.087 131.77 250.997 132.899 250.408C134.524 249.592 136.872 247.463 137.662 246.104C138.588 244.541 138.655 243.386 137.91 241.71C136.421 238.38 131.545 236.205 128.746 237.61C126.217 238.878 125.089 241.053 125.856 243.25C126.104 243.975 127.639 245.085 128.384 245.085C129.107 245.085 130.551 244.36 130.687 243.929C130.958 243.091 130.439 242.82 128.836 242.978C127.12 243.137 126.804 242.888 127.323 241.868C128.452 239.648 132.876 239.852 134.163 242.14C134.886 243.431 134.818 245.175 133.983 246.466C132.741 248.437 131.432 249.049 128.746 248.89C125.585 248.732 122.651 246.784 120.371 243.295C119.039 241.257 118.52 239.626 118.52 237.383C118.497 235.888 118.587 235.503 119.31 234.099C119.919 232.898 120.439 232.242 121.454 231.426C125.54 228.096 129.897 227.575 135.518 229.705C139.558 231.222 143.937 234.076 152.154 240.577C157.64 244.881 160.394 246.761 162.335 247.44C163.87 247.984 166.962 248.482 168.746 248.482C171.567 248.482 175.111 247.237 176.24 245.855C176.669 245.334 176.985 245.13 177.12 245.266C177.482 245.628 177.662 257.565 177.324 258.177C176.985 258.834 176.782 258.811 175.45 257.996C174.073 257.135 173.418 257.135 172.786 257.928C172.357 258.471 172.312 258.766 172.403 259.921C172.538 261.688 172.967 262.481 174.773 264.451C176.421 266.241 177.595 267.781 178.52 269.389C179.378 270.862 180.1 271.02 180.981 269.978C182.403 268.302 184.163 263.727 184.75 260.216C184.976 258.924 184.953 258.607 184.637 257.905C184.118 256.818 183.554 256.863 182.493 258.041C181.748 258.879 181.567 258.97 181.206 258.766C180.981 258.607 180.823 258.313 180.868 258.086C180.935 257.679 180.935 257.271 180.89 255.844C180.868 254.983 181.297 250.249 181.5 249.117C181.613 248.505 181.545 248.097 181.274 247.712C180.845 247.033 180.8 246.421 181.184 246.036C181.342 245.877 181.522 245.175 181.59 244.473C181.658 243.726 181.816 243.159 181.996 243.091C182.154 243.046 183.012 243.771 183.915 244.722C186.24 247.169 186.985 247.463 190.845 247.44C193.622 247.44 194.028 247.395 195.473 246.829C199.4 245.266 202.696 243.114 210.258 237.134C218.994 230.203 222.087 228.549 226.127 228.549C228.769 228.549 230.89 229.908 233.125 233.057C237.188 238.72 237.301 244.156 233.419 247.418C231.523 248.981 230.371 249.456 228.317 249.479C226.895 249.479 226.443 249.388 225.473 248.89C224.841 248.55 223.983 247.893 223.577 247.44C222.787 246.512 221.771 244.45 221.771 243.703C221.771 242.752 222.403 241.755 223.464 241.053C224.344 240.464 224.796 240.328 225.744 240.328C226.714 240.328 227.008 240.419 227.279 240.826C228.046 241.914 227.64 242.593 226.285 242.593C225.36 242.593 224.931 242.82 224.931 243.273C224.931 244.79 226.782 245.538 228.656 244.768C229.671 244.337 229.965 243.703 229.852 242.208C229.762 241.211 229.604 240.849 228.994 240.215C227.866 239.037 227.03 238.742 224.976 238.742C222.358 238.742 221.838 238.901 220.62 240.079C219.762 240.917 219.513 241.347 219.31 242.321C219.039 243.658 219.107 244.156 219.807 245.991C220.687 248.346 223.306 251.427 224.412 251.427C224.976 251.427 226.489 252.31 226.737 252.809C227.098 253.443 226.872 254.304 225.586 257.339C224.615 259.649 224.48 260.148 224.48 261.575C224.48 263.115 224.525 263.228 225.27 263.976C226.647 265.38 228.362 265.312 229.152 263.84C229.671 262.866 229.671 259.106 229.152 257.43C228.114 254.032 228.001 253.511 228.272 252.922C228.611 252.174 229.513 251.721 231.523 251.314C234.322 250.725 235.811 249.706 236.85 247.69C237.798 245.855 238.046 244.337 238.182 239.943L238.317 235.843L237.64 234.393C237.256 233.601 236.714 232.717 236.421 232.4C235.315 231.222 233.08 229.75 229.92 228.096C227.866 227.032 226.466 226.148 226.195 225.763C225.766 225.174 225.721 224.789 225.721 221.799C225.721 219.965 225.857 217.337 225.992 215.978C226.331 212.988 226.85 181.322 226.669 175.546C226.601 173.258 226.331 170.2 226.037 168.298C225.608 165.466 225.541 164.039 225.518 157.991C225.495 154.118 225.631 148.41 225.811 145.284C226.037 141.388 226.082 137.583 225.992 133.279C225.789 124.219 225.225 120.074 222.877 110.424C222.132 107.298 221.252 103.674 220.958 102.338C218.994 93.7983 216.353 88.4526 210.981 82.2689C209.807 80.8872 206.737 78.0332 205.066 76.7421C204.344 76.1758 204.321 76.1078 204.592 75.5868C204.75 75.2697 205.631 74.2051 206.511 73.2311C208.836 70.6716 209.197 70.1053 209.22 68.9501C209.243 67.7949 208.498 66.8888 206.917 66.1187C204.954 65.1447 201.545 65.9375 200.552 67.5684C199.965 68.4971 199.965 70.0147 200.507 70.513C201.161 71.1019 202.267 71.2378 202.922 70.8075C203.689 70.3092 203.667 69.4031 202.877 68.5877L202.267 67.9534L202.764 67.4551C203.757 66.4358 205.879 67.1154 206.714 68.7009C207.098 69.4484 207.121 69.6976 206.895 70.4677C205.947 73.6615 200.078 72.8234 199.22 69.3805C199.039 68.6783 198.994 67.5684 199.084 66.2546C199.265 63.831 198.881 61.6791 197.978 60.1615C197.075 58.6212 195.405 57.0356 193.893 56.2881C192.651 55.6992 192.267 55.6313 189.536 55.5407L186.534 55.4501L186.692 54.7252C186.759 54.3402 187.279 53.185 187.82 52.1883C188.746 50.4668 188.836 50.1497 189.062 47.7714C189.513 43.3544 188.701 40.8854 186.443 39.7529C185.224 39.1413 182.267 38.9827 181.838 39.5037C181.5 39.9114 180.236 40.002 180.236 39.6396C180.236 39.5037 180.642 38.575 181.161 37.5557L182.087 35.721L181.229 32.2101C180.303 28.3821 180.303 28.1329 181.229 23.8971C181.703 21.6773 182.041 18.0758 182.041 15.0859C182.041 12.5037 181.409 0.793068 181.251 0.272094C181.184 0.0908851 180.506 0.000280867 178.881 0.000280867H176.624V1.5179ZM179.965 1.63116C180.078 1.78971 180.303 2.35599 180.439 2.87696C180.913 4.64375 179.897 5.93486 178.452 5.41388C177.504 5.05147 177.301 3.12613 178.114 1.85767C178.475 1.29139 179.581 1.17814 179.965 1.63116ZM180.687 8.63033C181.071 9.35517 180.732 11.96 180.213 12.2319C178.881 12.9567 177.888 10.8728 178.813 9.26456C179.039 8.90215 179.378 8.60768 179.604 8.60768C179.829 8.60768 180.01 8.49443 180.01 8.38117C180.01 7.9961 180.439 8.13201 180.687 8.63033ZM180.687 15.924C180.687 16.4676 179.874 18.1438 179.491 18.3929C179.197 18.5741 178.61 18.3703 178.272 17.9399C177.595 17.1018 178.181 14.9047 179.175 14.497C179.558 14.3384 179.784 14.429 180.19 14.8594C180.461 15.1765 180.687 15.6522 180.687 15.924ZM180.19 22.1983C180.416 23.127 180.394 23.2856 179.852 24.0557C178.588 25.9131 177.075 24.4634 177.73 22.0171C177.956 21.247 178.114 21.0431 178.723 20.8846C179.626 20.6354 179.874 20.8393 180.19 22.1983ZM179.671 28.3141C180.123 29.1975 180.1 30.0809 179.581 31.0322C179.107 31.9609 178.565 32.1421 177.956 31.5759C177.143 30.851 177.504 28.518 178.52 27.8158C178.994 27.4987 179.333 27.6346 179.671 28.3141ZM180.032 34.815C180.416 35.8569 180.281 36.8762 179.694 37.2613C178.971 37.7369 178.294 37.3972 177.865 36.4005C177.617 35.7889 177.617 35.5851 177.911 34.9962C178.114 34.6337 178.362 34.2487 178.475 34.1807C178.904 33.9089 179.829 34.2713 180.032 34.815ZM178.588 41.5423C178.497 41.7462 178.339 41.9047 178.204 41.9047C177.956 41.9047 177.888 40.7042 178.136 40.4551C178.385 40.2286 178.746 41.1346 178.588 41.5423ZM183.78 41.2252C186.759 42.5616 187.64 43.898 187.391 46.6161C187.211 48.4735 186.85 49.4249 184.434 54.4761C183.373 56.6732 182.448 58.6892 182.358 58.961C182.29 59.2328 182.087 59.5952 181.951 59.7764C181.816 59.9576 181.59 60.4559 181.477 60.909C181.251 61.6564 181.161 61.7244 180.348 61.7924C179.513 61.8603 179.468 61.8603 179.829 61.4526C180.348 60.8637 180.529 60.0709 180.506 58.7118C180.484 57.2848 180.326 56.7185 179.739 55.9257L179.288 55.3142L179.807 54.5893C180.552 53.5927 180.574 51.3049 179.874 50.3536L179.378 49.6967L179.874 48.6774C180.326 47.794 180.461 47.6807 181.251 47.6354C183.351 47.5222 184.525 46.5935 184.525 45.0759C184.525 43.9886 184.096 43.6262 183.057 43.8074C182.267 43.966 182.154 44.1472 181.996 45.5289L181.929 46.0952L181.387 45.5516C180.89 45.0532 180.868 44.872 180.958 43.2411C181.026 42.2671 181.184 41.3158 181.364 41.1346C181.748 40.6589 182.628 40.6816 183.78 41.2252ZM174.186 41.5876C175.495 41.7688 176.15 42.2898 176.308 43.2864C176.421 43.9433 176.308 44.2831 175.721 45.1665C174.863 46.4349 173.802 47.0012 172.899 46.6615C172.561 46.5255 172.335 46.2764 172.335 45.9819C172.335 45.5516 172.651 45.393 173.915 45.2571C174.344 45.2118 174.502 45.0306 174.547 44.5549C174.728 42.9467 173.283 42.8108 171.771 44.2604C170.8 45.1665 170.732 45.325 170.822 46.1858C170.935 47.4316 171.5 47.9526 172.967 48.247C173.938 48.4282 174.299 48.4056 174.818 48.1338C175.653 47.7034 175.947 47.7034 175.947 48.1564C175.947 48.3603 176.127 48.8133 176.33 49.1757C176.692 49.8099 176.692 49.8553 176.037 51.2143C175.269 52.8678 175.111 54.8838 175.743 55.3595C176.082 55.6086 176.105 55.6992 175.789 56.4014C175.608 56.8318 175.405 57.8737 175.337 58.7118C175.224 59.935 175.292 60.3427 175.608 60.841C176.037 61.4979 175.879 61.7924 175.044 61.883C174.615 61.9509 174.457 61.7924 174.186 61.0449C173.283 58.5986 172.335 56.7185 170.71 54.091C168.272 50.1497 167.775 48.9719 167.64 46.9786C167.549 45.5062 167.594 45.2118 168.114 44.351C168.881 43.0373 169.581 42.4257 170.89 41.9047C172.087 41.4291 172.651 41.3838 174.186 41.5876ZM178.678 44.6682C178.678 44.9626 178.813 45.5516 178.971 45.9819C179.22 46.6615 179.197 46.888 178.836 47.6128C178.61 48.0885 178.339 48.4735 178.227 48.4735C177.82 48.4735 177.459 47.0918 177.595 46.0952C177.82 44.5776 178.633 43.4677 178.678 44.6682ZM178.543 51.7126C178.746 52.7319 178.136 54.2043 177.595 54.091C177.03 53.9777 176.962 52.8905 177.436 51.8259C177.911 50.7613 178.362 50.716 178.543 51.7126ZM178.588 56.8091C178.994 57.0583 179.355 58.2135 179.197 58.7571C178.949 59.6179 178.452 60.6372 178.114 60.909C177.685 61.2714 177.391 61.0902 176.94 60.2068C176.488 59.3234 176.692 57.987 177.414 57.2168C178.001 56.5826 178.159 56.5373 178.588 56.8091ZM192.493 57.3301C193.328 57.7831 195.45 59.7991 195.879 60.5692C196.218 61.1808 196.263 61.6564 196.127 64.1028C196.014 66.4358 196.082 67.3872 196.466 69.5164C196.737 70.9434 196.895 72.1439 196.85 72.1892C196.805 72.2345 195.902 72.0306 194.863 71.7135L192.944 71.1246L192.064 69.3805C191.59 68.4291 190.597 67.0021 189.852 66.1867L188.52 64.7143L189.513 64.1934C190.89 63.5138 191.251 63.0382 191.409 61.7018C191.545 60.6825 191.522 60.4786 191.048 60.0482C190.371 59.414 189.897 59.4366 189.062 60.1615C188.362 60.7504 188.136 61.6564 188.588 61.9509C188.949 62.1774 188.859 62.4039 188.159 62.8117C187.256 63.3553 186.917 63.31 185.992 62.4945C185.292 61.883 185.202 61.6564 185.202 60.7278C185.202 59.8217 185.315 59.5499 185.947 58.9836C186.872 58.0776 187.843 57.4434 188.701 57.1262C189.491 56.8318 191.771 56.945 192.493 57.3301ZM170.213 58.2135C171.184 58.8251 171.545 59.6179 171.522 61.0902C171.5 62.6984 171.116 63.4459 169.987 64.0575C169.581 64.2613 168.881 64.6464 168.43 64.8729C167.504 65.3712 166.692 65.1674 166.24 64.3519C166.037 63.9442 166.127 63.8083 166.895 63.31C167.978 62.6304 168.272 62.1548 168.114 61.3393C167.933 60.4106 167.527 60.1841 166.421 60.3653C165.743 60.4786 165.202 60.7731 164.615 61.362C163.125 62.8796 163.17 64.4878 164.795 66.0961C165.337 66.6623 165.789 67.1833 165.789 67.2966C165.789 67.3872 165.45 67.7496 165.021 68.112C164.073 68.9274 163.17 70.513 162.967 71.7362C162.786 72.8914 162.493 73.1632 160.416 74.0466C159.513 74.4316 158.543 74.8847 158.272 75.0885C158.001 75.2697 157.707 75.4283 157.617 75.4283C157.324 75.4283 157.414 74.6355 157.798 73.7068C158.114 72.982 158.136 72.4384 157.978 70.6716C157.64 66.6623 157.752 65.0541 158.452 63.6497C159.987 60.5919 161.793 59.2328 165.879 58.0776C167.188 57.7152 169.536 57.7831 170.213 58.2135ZM185.834 72.4157C187.03 73.5709 187.82 75.0206 188.701 77.6481C189.852 81.0231 190.371 83.2882 190.597 85.8931C190.71 87.1842 191.071 89.3134 191.387 90.6045C192.019 93.1867 193.757 105.464 193.735 107.14C193.712 107.706 193.825 109.178 193.983 110.424C194.209 112.214 194.209 113.324 194.005 115.702C193.847 117.378 193.802 119.439 193.87 120.3C194.141 122.996 194.75 122.792 187.324 122.724L180.913 122.656V117.899C180.913 115.271 181.093 110.855 181.297 108.046C181.545 104.331 181.658 98.7589 181.725 87.5466C181.793 70.0826 181.613 71.5776 183.757 71.5776C184.841 71.5776 185.044 71.6682 185.834 72.4157ZM179.626 71.9627C179.694 72.0759 179.626 73.0046 179.513 74.0692C179.378 75.1791 179.242 83.8998 179.22 94.7949C179.13 116.223 179.062 122.452 178.859 122.656C178.768 122.724 175.789 122.701 172.199 122.61L165.698 122.429L165.518 121.636C165.427 121.206 165.45 119.824 165.563 118.579C165.698 117.333 165.879 115.136 166.014 113.709C166.127 112.282 166.398 109.767 166.579 108.159C166.782 106.528 167.03 102.972 167.143 100.231C167.324 95.4065 167.617 93.0055 168.497 89.4719C168.723 88.5433 168.971 87.3654 169.039 86.8671C169.378 84.8285 170.597 80.3209 171.297 78.5315C172.154 76.357 173.96 72.914 174.479 72.4837C174.66 72.3251 175.608 72.1212 176.556 72.0306C179.107 71.7815 179.513 71.7815 179.626 71.9627ZM171.883 72.8914C171.883 73.0046 171.545 73.4803 171.116 73.9786C170.236 74.9979 168.497 78.3956 167.978 80.0718C167.166 82.6766 165.495 91.6238 164.773 97.0374C164.412 99.8461 163.983 106.37 163.509 116.132C163.351 119.281 163.147 121.954 163.057 122.112C162.786 122.565 160.619 122.61 158.384 122.225C157.166 122.022 155.021 121.863 153.17 121.863C150.439 121.863 149.965 121.818 149.513 121.433L148.971 121.002L149.513 118.216C149.807 116.676 150.19 114.071 150.348 112.463C150.732 108.907 151.838 102.066 152.448 99.4384C153.734 93.9116 156.353 87.2974 158.543 84.0583C159.062 83.3109 160.1 82.0197 160.822 81.227C161.567 80.4342 162.651 79.1884 163.238 78.4182C163.847 77.6481 165.111 76.4702 166.127 75.7454C167.12 75.0206 168.181 74.2278 168.497 73.956C168.813 73.6615 169.378 73.2764 169.739 73.0952C170.461 72.7102 171.883 72.5743 171.883 72.8914ZM191.432 76.1531C203.893 89.0189 208.294 97.5131 210.529 112.916C210.642 113.777 210.687 115.475 210.619 116.653C210.529 117.831 210.461 119.371 210.416 120.051L210.371 121.274L207.211 121.568C205.473 121.727 203.283 121.954 202.358 122.089C198.656 122.633 196.85 122.746 196.669 122.475C196.488 122.18 196.33 115.136 196.443 111.783C196.556 108.318 196.105 102.7 195.247 96.8109C194.254 89.9476 193.441 85.576 192.99 84.7152C192.809 84.3528 192.493 83.5147 192.312 82.8578C191.545 80.0718 190.574 77.5348 189.604 75.7228C189.039 74.6582 188.588 73.7521 188.588 73.6842C188.588 73.435 189.965 74.6129 191.432 76.1531ZM197.459 75.7681C202.674 77.4669 209.017 83.5147 213.577 91.1028C215.45 94.2513 215.766 94.9308 217.482 99.6649C218.588 102.768 220.642 112.893 220.642 115.339C220.642 116.268 220.755 117.378 220.913 117.786C221.139 118.443 221.116 118.579 220.71 118.896C220.1 119.394 213.464 120.866 213.17 120.572C213.035 120.436 212.899 119.258 212.832 117.899C212.787 116.563 212.674 115.362 212.583 115.226C212.493 115.068 212.358 113.844 212.267 112.463C211.884 105.871 209.084 96.1767 205.721 89.6985C203.057 84.602 201.116 81.8385 196.443 76.5155C195.224 75.1565 194.728 74.3637 195.428 74.9526C195.608 75.0885 196.511 75.4509 197.459 75.7681ZM159.22 79.0298C155.54 82.7899 153.283 86.3461 150.913 92.0315C150.145 93.8889 148.52 98.9401 148.091 100.82C147.64 102.859 146.804 107.842 146.601 109.971C145.63 119.575 145.405 120.957 144.795 120.957C144.57 120.957 142.583 120.504 140.371 119.938C138.181 119.371 136.24 118.918 136.082 118.918C135.946 118.918 135.743 119.1 135.653 119.303C135.45 119.87 136.217 120.413 137.504 120.594C138.091 120.685 139.197 120.912 139.942 121.115C140.687 121.297 141.996 121.546 142.877 121.636C145.089 121.886 145.337 122.225 145.134 124.808C144.773 129.813 144.299 134.978 143.892 138.172C143.644 140.097 142.989 146.1 142.425 151.513C141.477 160.642 141.409 161.797 141.387 167.822C141.364 174.436 141.229 175.795 140.484 175.954C140.303 175.976 138.971 175.591 137.572 175.07C134.637 174.006 132.831 173.689 132.831 174.277C132.831 174.889 138.633 177.358 140.077 177.358C140.687 177.358 140.687 177.358 140.867 179.555C140.958 180.778 141.026 186.622 141.003 192.534C140.958 202.455 141.342 215.14 141.793 217.654L141.928 218.424L140.755 218.288C140.123 218.221 138.949 217.881 138.181 217.518C136.24 216.658 132.493 214.551 132.064 214.075C131.161 213.079 131.048 203.293 131.816 191.288C131.996 188.298 132.154 184.38 132.132 182.568C132.064 173.575 132.809 149.044 133.509 137.379C134.299 124.423 134.705 120.119 135.653 114.954C136.24 111.738 138.181 104.829 139.4 101.658C140.348 99.2345 143.667 92.5751 144.705 91.0575C146.014 89.1322 149.423 85.1003 150.732 83.8998C152.154 82.6087 156.827 79.211 158.678 78.1011C160.98 76.7421 161.613 76.3796 161.725 76.357C161.793 76.3343 160.664 77.5348 159.22 79.0298ZM221.297 124.626C222.471 142.226 222.538 144.129 222.561 156.859C222.583 165.24 222.696 170.042 222.854 171.016C222.99 171.831 223.125 173.213 223.125 174.119V175.75L221.274 176.316C217.978 177.29 214.051 178.287 213.689 178.219C213.373 178.151 213.328 176.429 213.215 162.861C213.103 145.556 213.125 141.66 213.419 134.774C213.554 131.603 213.554 128.794 213.396 126.733C213.08 122.135 213.08 122.089 213.915 122.089C214.164 122.089 215.089 121.84 215.947 121.523C216.85 121.206 218.001 120.957 218.678 120.957C219.333 120.957 220.01 120.844 220.191 120.73C220.936 120.232 221.026 120.504 221.297 124.626ZM153.035 123.109C154.141 123.199 155.134 123.29 155.224 123.358C155.315 123.426 155.134 123.924 154.84 124.513C154.524 125.079 154.276 125.668 154.276 125.827C154.276 126.235 152.696 128.59 151.477 130.017C150.89 130.697 150.055 131.965 149.626 132.826C148.971 134.14 148.858 134.615 148.858 135.929C148.858 136.767 148.768 137.515 148.655 137.583C148.542 137.673 148.294 138.149 148.114 138.693C147.843 139.508 147.843 139.803 148.091 140.686C148.52 142.136 148.949 142.475 149.513 141.773L149.942 141.23L150.439 141.683C151.319 142.498 151.635 143.381 151.635 145.194C151.635 146.145 151.522 147.277 151.387 147.708C150.574 150.29 150.19 157.833 150.755 160.143C151.838 164.583 155.901 171.356 158.204 172.579C160.236 173.643 160.032 175.478 157.685 177.766C155.427 179.94 155.405 179.963 154.118 179.533C153.531 179.351 151.974 178.966 150.664 178.717C148.226 178.219 144.682 177.381 144.186 177.199C143.825 177.064 143.802 173.281 144.141 170.789C144.254 169.861 144.457 166.486 144.57 163.314C144.795 157.108 145.111 153.959 146.037 149.157C146.466 146.87 146.601 145.533 146.556 143.88C146.488 141.683 146.895 137.288 147.707 131.603C147.956 129.927 148.226 127.48 148.317 126.167C148.52 122.86 148.588 122.724 149.919 122.86C150.529 122.928 151.906 123.041 153.035 123.109ZM210.303 123.698C210.394 124.128 210.461 127.82 210.439 131.943C210.349 145.307 210.371 151.649 210.484 165.285C210.552 174.617 210.529 178.762 210.349 178.944C210.01 179.283 207.346 179.804 203.283 180.303C201.342 180.552 199.423 180.846 199.039 180.982C198.656 181.118 197.888 181.209 197.369 181.163L196.376 181.095L196.24 174.98C195.992 163.133 196.263 124.672 196.624 124.105C196.692 123.992 197.233 123.902 197.843 123.902C198.452 123.902 200.552 123.698 202.493 123.449C204.457 123.199 206.805 122.996 207.708 123.018C208.633 123.041 209.446 122.996 209.513 122.905C209.807 122.61 210.145 122.928 210.303 123.698ZM162.854 124.853C162.854 126.801 162.719 127.163 161.883 127.435C161.477 127.571 160.777 127.865 160.326 128.069C159.265 128.522 159.22 128.409 160.213 127.82C161.138 127.254 161.658 125.85 161.251 124.943C161.093 124.626 160.89 124.355 160.8 124.355C160.71 124.355 159.852 125.125 158.881 126.053C157.933 127.005 157.12 127.73 157.075 127.684C157.03 127.639 157.143 127.277 157.346 126.869C157.572 126.416 157.662 125.917 157.549 125.532C157.482 125.193 157.346 124.581 157.278 124.173L157.166 123.449H160.01H162.854V124.853ZM175.947 124.083L178.768 124.241L178.723 126.28C178.701 127.39 178.61 131.173 178.565 134.661C178.43 141.773 178.159 146.779 177.64 151.128C177.459 152.736 177.301 154.548 177.301 155.115C177.301 156.157 177.008 156.995 176.804 156.61C176.737 156.496 176.624 156.089 176.534 155.726C176.443 155.341 176.127 154.435 175.834 153.688C175.54 152.94 174.795 151.038 174.186 149.452C172.854 146.077 171.093 143.019 169.604 141.524C169.017 140.912 168.114 139.599 167.594 138.579C167.053 137.537 166.217 136.201 165.698 135.589C164.637 134.298 164.682 134.797 164.999 128.205C165.089 126.031 165.247 124.128 165.337 124.015C165.54 123.766 170.958 123.811 175.947 124.083ZM193.96 127.526C193.983 129.451 193.915 131.852 193.802 132.826C193.667 133.913 193.667 136.382 193.78 139.055C193.893 141.501 194.028 151.173 194.118 160.574L194.254 177.652L192.832 177.517C189.762 177.222 189.355 177.041 186.917 174.549C182.786 170.314 179.31 164.945 178.655 161.819C178.339 160.324 178.452 157.493 178.971 153.235C179.423 149.633 180.168 136.79 180.394 128.319C180.484 125.079 180.552 124.423 180.868 124.173C181.161 123.947 182.628 123.902 187.572 123.947L193.893 124.015L193.96 127.526ZM162.561 130.131C162.538 131.263 162.425 131.354 161.838 130.697C161.454 130.266 161.454 130.244 161.974 129.678C162.267 129.383 162.538 129.111 162.538 129.111C162.561 129.111 162.561 129.564 162.561 130.131ZM162.583 176.588C163.26 177.064 163.215 177.313 162.154 178.491L161.251 179.51L161.364 178.083C161.545 176.09 161.68 175.931 162.583 176.588ZM170.303 176.724C170.777 176.996 171.342 177.517 171.545 177.879C171.748 178.241 172.47 179.147 173.148 179.895C173.825 180.642 174.367 181.367 174.367 181.481C174.367 181.843 165.111 181.277 163.26 180.801L162.628 180.642L163.396 179.736C164.592 178.355 166.105 176.905 166.376 176.905C166.511 176.905 166.759 176.746 166.917 176.565C167.346 176.044 169.242 176.135 170.303 176.724ZM223.238 178.219C223.306 178.694 223.306 184.38 223.238 190.858C223.148 197.314 223.057 204.947 223.012 207.824C222.945 212.875 222.899 213.509 222.403 215.163C222.2 215.865 221.929 216.046 219.423 217.224C216.105 218.787 212.809 219.874 212.425 219.489C212.064 219.127 211.996 211.606 212.312 204.675C212.448 201.436 212.629 194.55 212.719 189.408C212.854 180.484 212.877 180.031 213.283 179.714C213.531 179.533 214.096 179.397 214.57 179.397C215.608 179.397 220.349 178.219 221.229 177.72C221.59 177.539 222.155 177.381 222.493 177.358C223.012 177.358 223.103 177.471 223.238 178.219ZM194.412 179.872L194.344 181.073L192.651 181.345C191.725 181.503 189.378 181.616 187.459 181.639H183.96L183.328 180.846C182.583 179.986 182.741 179.918 184.389 180.416C185.811 180.846 186.872 180.846 187.233 180.416C187.459 180.121 187.459 179.986 187.143 179.646C186.782 179.238 186.872 179.238 189.423 179.102C190.89 179.034 192.538 178.83 193.102 178.649C193.667 178.468 194.209 178.4 194.299 178.491C194.412 178.581 194.457 179.193 194.412 179.872ZM147.956 179.306C150.123 179.759 153.441 180.461 155.292 180.846L158.678 181.548L158.723 183.247C159.107 196.929 159.265 204.313 159.265 209.183C159.287 213.373 159.4 216.091 159.694 218.583C159.919 220.508 160.055 222.162 159.965 222.23C159.694 222.479 155.969 222.026 153.102 221.392C147.707 220.236 144.682 219.534 144.073 219.285L143.486 219.059L143.396 212.648C143.351 209.115 143.396 205.106 143.486 203.747C143.712 200.439 143.689 201.164 143.531 190.722C143.396 182.115 143.486 178.491 143.87 178.491C143.937 178.491 145.789 178.853 147.956 179.306ZM158.61 179.895C158.497 180.008 158.114 180.076 157.752 180.031L157.098 179.963L157.888 179.442C158.565 179.012 158.678 178.989 158.746 179.306C158.791 179.51 158.746 179.759 158.61 179.895ZM210.394 181.118C210.484 181.435 210.484 182.59 210.394 183.678C210.145 187.279 210.01 215.661 210.236 217.337C210.642 220.169 210.665 220.055 210.033 220.123C209.717 220.169 209.017 220.35 208.452 220.508C207.233 220.893 205.27 221.21 201.342 221.618C199.739 221.799 198.136 222.003 197.82 222.094C197.256 222.23 197.233 222.207 197.075 220.825C196.872 218.719 196.917 214.823 197.188 211.244C197.391 208.594 197.369 207.733 197.075 205.808C196.782 203.996 196.692 201.323 196.647 193.055L196.601 182.568L197.504 182.477C198.001 182.409 199.333 182.251 200.439 182.115C204.276 181.662 205.856 181.413 207.549 181.005C209.942 180.393 210.213 180.416 210.394 181.118ZM166.353 182.387C167.098 182.522 169.175 182.658 170.98 182.704C176.511 182.817 176.443 182.749 176.714 188.525C176.804 190.79 176.917 194.075 176.94 195.819C177.12 208.662 177.459 219.262 177.753 221.528C178.046 223.634 178.001 223.657 174.818 223.476C173.396 223.385 170.1 223.226 167.482 223.113C164.886 223 162.583 222.864 162.38 222.773C161.861 222.57 161.5 217.043 161.5 209.07C161.5 205.4 161.477 197.767 161.477 192.127V181.843L163.238 182.001C164.208 182.069 165.608 182.251 166.353 182.387ZM194.547 182.953C194.728 183.61 194.795 192.715 194.615 192.897C194.525 192.987 194.457 192.942 194.457 192.783C194.457 192.647 194.209 192.285 193.915 192.013C193.622 191.741 192.922 190.971 192.38 190.314C191.816 189.658 190.755 188.593 190.01 187.936C189.265 187.279 187.82 185.875 186.827 184.81L184.976 182.84L188.181 182.817C189.942 182.794 191.432 182.726 191.5 182.681C191.545 182.613 192.245 182.568 193.012 182.568C194.163 182.568 194.457 182.636 194.547 182.953ZM180.506 190.609C181.026 191.47 181.635 192.693 181.861 193.327C183.441 197.631 185.111 200.1 186.308 199.964C187.075 199.873 187.549 198.899 187.549 197.404L187.572 196.249L188.317 196.77C189.175 197.336 191.342 198.197 191.951 198.197C192.516 198.197 192.674 197.45 192.267 196.838C191.816 196.204 191.951 196.113 192.899 196.385C193.306 196.521 193.938 196.611 194.276 196.611H194.908L194.954 202.433C195.044 214.483 195.066 216.273 195.224 219.308L195.405 222.388L194.186 222.524C191.635 222.773 182.312 223.362 180.981 223.34H179.581L179.423 222.298C179.333 221.709 179.378 217.971 179.513 213.985C179.649 209.998 179.716 206.646 179.649 206.533C179.581 206.442 179.423 203.112 179.31 199.148C179.175 195.207 179.017 191.107 178.971 190.043C178.859 187.823 178.881 187.823 180.506 190.609ZM149.987 233.601C152.493 234.144 156.895 234.778 164.366 235.662C165.653 235.82 166.737 236.002 166.804 236.07C166.872 236.115 166.601 236.455 166.24 236.817C165.653 237.383 165.563 237.632 165.563 238.742C165.563 241.075 167.459 243.046 169.671 243.046C171.116 243.046 171.206 242.933 171.206 241.211C171.206 239.966 171.139 239.603 170.845 239.49C170.303 239.286 169.784 239.694 169.581 240.509C169.287 241.619 168.114 241.393 167.594 240.124C167.211 239.15 167.459 238.403 168.43 237.723C170.032 236.658 171.522 237.089 173.78 239.263C175.224 240.645 175.269 240.713 175.269 241.8C175.269 243.386 174.637 244.111 173.035 244.405C171.184 244.745 166.353 244.677 164.66 244.269C162.967 243.884 159.491 242.163 157.143 240.577C156.24 239.988 154.502 238.833 153.26 238.063C150.687 236.432 146.059 233.17 145.676 232.717C145.45 232.445 145.563 232.445 146.285 232.717C146.782 232.876 148.43 233.283 149.987 233.601ZM209.333 233.918C209.152 234.122 208.498 234.507 207.888 234.778C207.211 235.096 205.676 236.273 204.073 237.7C202.606 239.014 201.319 240.101 201.251 240.101C201.184 240.101 200.552 240.6 199.875 241.234C199.152 241.914 198.091 242.57 197.256 242.91C196.466 243.227 195.179 243.794 194.344 244.201C191.184 245.696 187.662 245.47 185.202 243.59C183.938 242.638 183.622 241.936 183.622 240.169C183.622 239.06 183.712 238.878 184.547 237.95C185.337 237.089 185.608 236.93 186.33 236.93C188.114 236.93 189.242 237.746 188.926 238.765C188.791 239.15 188.656 239.218 188.181 239.082C186.556 238.697 186.33 238.697 186.195 239.082C185.834 239.988 187.617 241.687 188.926 241.687C190.281 241.687 191.161 240.033 190.642 238.471C190.507 238.04 190.123 237.338 189.829 236.93C189.513 236.5 189.31 236.115 189.378 236.07C189.423 236.024 191.432 235.888 193.825 235.775C196.895 235.639 198.746 235.458 200.1 235.141C201.161 234.869 202.651 234.665 203.396 234.665C204.163 234.665 205.224 234.507 205.766 234.325C206.624 234.008 208.362 233.646 209.333 233.555C209.581 233.533 209.581 233.601 209.333 233.918ZM177.233 236.409C176.737 237.904 176.488 238.516 176.376 238.516C176.308 238.516 175.969 238.199 175.608 237.836C175.247 237.451 174.841 237.157 174.66 237.157C174.344 237.157 173.87 236.387 174.073 236.16C174.141 236.092 174.931 236.024 175.789 236.024C177.188 236.024 177.346 236.07 177.233 236.409ZM182.719 236.387C182.719 236.455 182.516 236.772 182.267 237.089C182.019 237.406 181.816 237.587 181.816 237.474C181.816 237.361 181.748 237.044 181.68 236.749C181.567 236.319 181.635 236.251 182.132 236.251C182.448 236.251 182.719 236.319 182.719 236.387ZM179.829 237.406C180.168 237.587 180.236 237.791 180.123 238.244C179.762 239.739 178.723 240.373 178.204 239.422C178.023 239.06 178.091 238.788 178.543 238.063C179.175 237.066 179.175 237.066 179.829 237.406ZM181.567 241.687C181.59 241.891 181.455 241.823 181.229 241.506C181.048 241.234 180.958 240.894 181.048 240.736C181.229 240.464 181.545 241.03 181.567 241.687ZM180.597 243.182C180.777 243.907 180.484 244.836 179.965 245.175C179.446 245.492 178.655 244.768 178.655 243.997C178.655 242.706 180.303 242.027 180.597 243.182ZM180.078 248.188C180.326 249.003 179.874 250.136 179.288 250.249C179.084 250.294 178.746 250.068 178.543 249.751C178.204 249.23 178.204 249.139 178.565 248.437C179.22 247.146 179.762 247.055 180.078 248.188ZM179.513 253.941C179.558 254.372 179.423 254.915 179.265 255.164C178.971 255.527 178.881 255.549 178.565 255.3C178.091 254.915 178.114 254.258 178.61 253.579C179.107 252.854 179.423 252.99 179.513 253.941Z" fill="black"/>
</g>
<g opacity="0.15">
<path d="M108.188 237.326C108.652 237.648 109.132 238.48 109.524 239.62C109.582 239.81 109.742 239.854 110.264 239.795C111.455 239.649 112.704 240.716 113.111 242.22C113.285 242.892 113.198 243.608 112.806 244.529L112.544 245.157L113.198 245.77C113.982 246.53 114.142 247.173 113.779 248.137C113.546 248.736 112.661 249.715 110.773 251.424C110.192 251.936 110.076 252.155 109.93 252.871C109.698 254.069 109.132 254.945 107.374 256.844C105.312 259.08 105.24 259.226 105.124 261.622L105.036 263.535L104.296 265.055L103.555 266.589L103.468 269.277C103.047 280.643 101.014 290.577 97.0927 300.249C96.2795 302.25 94.5949 305.946 94.014 307.013C93.8397 307.349 92.8812 309.161 91.9083 311.045C88.4084 317.795 86.1429 321.666 85.1118 322.66C84.6907 323.069 84.6616 323.156 84.7923 323.609C85.0247 324.471 85.6346 328.255 85.8815 330.33C86.2155 333.105 86.3172 338.262 86.1139 340.921C85.7944 344.778 85.0537 348.416 83.9791 351.323C83.0497 353.865 80.2904 359.285 79.2739 360.586L78.8672 361.097L79.0851 362.85C79.2593 364.252 79.2739 365.275 79.1867 368.095C79.1141 370.023 79.0705 372.624 79.0705 373.865C79.0705 376.101 79.0851 376.174 79.8983 379.563C82.6576 391.251 84.5019 404.589 84.5019 413.033V415.02L85.1118 415.195C86.84 415.707 88.7714 417.255 89.5266 418.731C90.0349 419.739 90.0784 420.981 89.6283 421.857C89.2507 422.602 88.0018 423.786 87.4644 423.917C87.2321 423.976 86.6947 423.932 86.2446 423.83C85.3732 423.625 85.3297 423.625 83.921 423.771C83.253 423.83 82.8318 423.8 82.4688 423.654C82.0476 423.479 81.8879 423.479 81.3796 423.654C79.2448 424.399 76.3258 422.705 74.9753 419.943L74.4089 418.804L74.4525 415.458C74.496 411.791 74.4379 411.28 73.523 407.102C73.2471 405.816 72.9857 404.677 72.9421 404.574C72.8986 404.428 72.7243 404.501 72.3467 404.837C71.7077 405.407 70.909 405.758 69.1518 406.254C68.0046 406.576 67.8303 406.664 68.0336 406.81C68.3676 407.058 68.2224 407.233 67.4091 407.54C66.1312 408.022 63.7931 409.279 64.0545 409.337C64.4466 409.41 64.374 409.585 63.8367 409.834C63.5753 409.965 62.7039 410.608 61.9052 411.265C61.121 411.923 60.3804 412.507 60.2787 412.536C59.7849 412.741 60.2497 412.872 61.455 412.872C63.3429 412.872 64.3595 413.092 65.681 413.793C67.4672 414.757 68.4547 415.97 68.7452 417.562C68.9775 418.804 67.9465 420.44 66.7266 420.776C66.0586 420.966 64.5918 420.864 63.5753 420.586C63.1541 420.455 62.1811 420.411 60.7289 420.44L58.5215 420.484L58.2456 421.098C57.9406 421.799 57.1709 422.617 56.6626 422.821C56.4739 422.895 55.6897 422.953 54.949 422.953C53.8598 422.953 53.4677 423.011 53.0175 423.245C52.03 423.756 50.2583 423.903 47.7314 423.683C46.163 423.552 41.24 423.464 31.0598 423.391C15.8405 423.289 16.4214 423.304 12.0792 422.588C11.295 422.456 10.3801 422.208 10.0461 422.047C8.76812 421.448 7.53372 419.491 6.00888 415.648C5.47156 414.319 4.96328 413.194 4.87614 413.135C4.77449 413.077 4.49856 413.019 4.26621 413.019C3.38035 413.004 3.2206 412.887 2.88659 411.952C2.6978 411.455 2.04429 409.921 1.41984 408.563C0.098307 405.655 -0.105005 404.794 0.0402178 402.529C0.127352 400.922 0.461364 399.11 1.14391 396.349L1.57958 394.64L1.26009 393.5C0.795377 391.733 0.853466 390.973 1.71028 387.993C2.11691 386.561 2.81398 384.297 3.24964 382.952C4.16455 380.118 4.17907 380.089 8.14366 374.742C10.9319 370.958 13.0377 367.978 14.1559 366.196C15.521 364.063 16.6828 361.462 16.6828 360.6C16.6828 360.396 17.0168 359.738 17.4234 359.125C19.2532 356.407 21.3589 353.544 22.6224 352.039C25.1493 349.059 32.8461 341.564 33.9933 340.98C34.734 340.6 36.6219 338.774 38.0015 337.123C38.5969 336.392 39.7151 335.18 40.4848 334.42C41.7047 333.208 41.9225 332.901 42.2856 331.98C42.8084 330.651 43.1424 330.227 43.8249 330.037C44.6382 329.818 45.0739 329.409 45.5821 328.386C46.3082 326.882 46.497 325.085 46.1049 323.463C45.7564 322.031 44.217 318.452 41.2254 312.141C38.9745 307.393 37.3189 303.068 37.014 301.111C36.8252 299.913 36.8252 295.559 37.014 293.441C37.0866 292.55 37.2173 290.797 37.3044 289.54C37.4642 287.32 37.4496 287.217 37.1011 285.888C36.0991 282.075 36.1426 278.262 37.1882 277.517C37.682 277.181 38.6114 277.239 39.4247 277.677C40.8914 278.452 42.9972 280.307 44.4494 282.075L44.827 282.542L45.7128 281.651C46.3373 281.023 46.5987 280.643 46.5987 280.38C46.5987 280 46.6713 279.591 47.3974 276.348C47.6153 275.384 47.8621 273.777 47.9783 272.798C48.1816 270.855 48.3414 270.46 48.9077 270.65C49.082 270.694 49.3434 270.986 49.4886 271.278C49.8226 271.95 50.8102 277.677 50.8102 278.992V279.927H51.4346C51.7686 279.927 53.2644 279.825 54.7312 279.693C57.5485 279.46 58.9862 279.503 60.453 279.883C61.6002 280.161 62.1521 280.468 63.6043 281.578C66.0876 283.463 66.4797 283.594 69.5149 283.477C71.3883 283.419 71.7077 283.448 72.1579 283.682C72.8405 284.047 73.1309 284.617 73.3052 285.975C73.3923 286.779 73.5376 287.246 73.7554 287.509C73.9151 287.714 74.2491 288.298 74.496 288.795C75.0333 289.905 75.0914 291.133 74.6703 292.272C74.4234 292.915 74.4234 293.061 74.5977 293.587C74.6993 293.908 74.7719 294.42 74.7429 294.712C74.7139 295.019 74.7139 295.267 74.7429 295.267C74.7574 295.267 75.1786 295.062 75.6723 294.814C76.1661 294.566 77.5893 293.938 78.8237 293.412C83.3837 291.498 84.1243 290.943 85.3006 288.488C86.6802 285.61 87.508 282.893 89.0909 276.07C90.6158 269.452 91.1386 267.816 93.1426 263.492C95.1322 259.196 95.5679 257.998 95.7567 256.231C95.8728 255.164 96.1633 254.536 97.1798 253.119C98.3416 251.527 98.4288 251.132 98.4433 247.713C98.4433 244.952 98.4723 244.748 98.7918 244.047C98.9806 243.637 99.3872 243.097 99.6922 242.849C100.331 242.308 101.406 241.943 101.958 242.045C102.263 242.103 102.35 242.045 102.422 241.709C102.597 241.022 103.41 240.058 104.31 239.445C104.804 239.123 105.385 238.553 105.646 238.174C106.445 236.976 107.273 236.698 108.188 237.326Z" fill="black"/>
</g>
</svg>
