<svg width="225" height="296" viewBox="0 0 225 296" fill="none" xmlns="http://www.w3.org/2000/svg">
<path d="M216.216 116.804C211.818 116.987 207.602 116.712 206.869 116.254C206.136 115.795 202.012 115.429 197.613 115.429C193.215 115.337 189.366 115.062 188.999 114.695C187.899 113.687 192.023 106.994 195.872 103.51C198.805 100.851 199.263 100.209 197.613 100.667C196.422 101.034 194.406 102.501 193.031 103.785C190.557 106.352 186.708 113.412 186.708 115.429C186.708 116.07 186.25 116.896 185.7 117.262C184.875 117.721 184.784 117.171 185.242 115.245C186.616 109.653 187.716 104.151 188.541 99.3839C188.999 96.6333 189.824 94.1579 190.465 93.7911C191.015 93.4244 191.199 92.5992 190.924 92.0491C190.557 91.499 190.924 90.7655 191.657 90.4905C192.573 90.1237 193.123 88.7485 193.123 86.7314C193.123 84.0726 194.039 82.6973 198.53 78.1131C201.554 75.1792 204.578 72.7037 205.311 72.7037C206.044 72.7037 206.869 72.0619 207.236 71.3284C208.06 69.0363 203.662 69.6781 200.637 72.2453C199.171 73.4372 197.613 74.1706 197.247 73.8039C196.789 73.4372 196.789 73.6205 197.064 74.1706C197.338 74.6291 196.605 76.2794 195.322 77.7463C193.306 80.0384 192.848 80.2218 190.74 79.2133C187.899 77.9297 186.616 78.6632 188.907 80.3135C191.107 81.9638 191.29 86.3647 189.274 90.3988C188.358 92.3242 187.075 96.2666 186.616 99.1088C186.067 101.951 185.242 104.702 184.784 105.252C184.325 105.71 183.959 107.819 183.959 109.928C183.959 114.695 181.851 117.446 179.652 115.612C178.735 114.879 174.428 114.328 168.013 114.053C158.3 113.778 157.658 113.595 152.984 110.661C150.327 108.919 147.944 106.994 147.669 106.26C147.394 105.527 145.836 104.427 144.279 103.785C141.254 102.501 137.405 99.4755 139.88 100.301C141.713 100.942 147.303 95.0747 147.944 91.8657C148.219 90.3071 150.327 87.2815 152.526 84.9894C156.65 80.6802 157.383 78.5715 153.717 81.5971C148.677 85.7229 145.47 90.4905 145.47 93.8828C145.47 95.7165 141.896 97.7335 134.198 100.301C131.266 101.218 127.6 102.593 125.95 103.326C117.703 106.902 117.336 106.994 112.296 104.885C109.638 103.876 104.781 102.868 101.482 102.685C96.6254 102.501 95.0675 101.951 93.0514 100.117C89.7523 97.0001 89.3858 94.3412 92.3183 93.9745C94.3344 93.6077 102.124 88.8402 103.407 87.0981C103.682 86.7314 105.973 86.273 108.447 86.0896C111.013 85.9979 114.22 85.0811 116.053 83.9809C117.703 82.8807 119.719 82.2389 120.36 82.5139C121.185 82.789 121.643 82.3306 121.643 81.047C121.643 79.9468 121.918 79.1216 122.376 79.1216C122.743 79.1216 123.568 77.838 124.301 76.2794C124.942 74.8124 127.142 72.5203 129.158 71.2367C131.449 69.7698 132.64 68.4862 132.274 67.5694C131.632 65.919 133.007 65.919 134.381 67.5694C136.397 69.9532 140.521 68.7613 144.737 64.6355C152.435 57.0257 155.275 53.8167 155.917 51.7996C156.467 50.0576 157.291 49.7826 161.14 49.7826C163.706 49.7826 166.456 49.4158 167.372 48.8657C168.472 48.3156 170.671 48.499 173.97 49.3242C176.719 50.0576 180.477 50.6994 182.309 50.6994C185.425 50.6994 185.975 51.0662 187.716 54.6419C188.816 56.7506 190.282 59.1344 191.015 60.0512C192.207 61.3348 192.207 61.7932 190.74 63.9937C189.549 65.8274 189.457 66.6525 190.282 67.4777C191.199 68.3028 191.29 68.2112 190.832 67.0193C190.374 65.919 191.015 65.0939 193.123 63.9937L196.055 62.435L193.856 60.0512C190.832 56.6589 189.091 52.8999 189.732 51.2495C190.099 50.4244 189.824 49.7826 189.182 49.7826C188.541 49.6909 189.274 49.0491 190.74 48.3156C192.115 47.4905 194.406 47.032 195.781 47.3071C197.064 47.5822 199.355 47.3071 200.912 46.6653C202.379 46.0235 204.12 45.6568 204.761 45.8402C205.311 46.0235 206.044 45.8402 206.319 45.3817C206.594 44.9233 205.769 44.5566 204.578 44.5566C203.295 44.5566 202.012 44.8316 201.737 45.29C201.462 45.7485 198.896 46.1152 195.964 46.1152C192.756 46.1152 190.007 46.6653 188.907 47.4905C187.075 48.8657 180.751 49.2325 175.895 48.3156C172.687 47.6738 168.197 41.9894 168.197 38.5971C168.197 37.4052 169.296 33.6461 170.579 30.0704C171.862 26.5864 172.962 23.3775 172.962 23.0107C172.962 22.644 169.388 20.6269 165.081 18.6099C156.192 14.3924 156.375 15.4926 163.615 7.14931C166.547 3.84867 168.747 2.29004 171.496 1.55656L175.253 0.639717L172.229 0.0896102C169.388 -0.277128 168.747 0.181295 161.965 7.33268C158.025 11.4585 154.267 14.9425 153.809 14.9425C153.259 14.9425 152.801 15.3092 152.801 15.8593C152.801 16.3178 153.443 16.5011 154.267 16.1344C155.734 15.5843 163.34 18.7016 167.83 21.7271C170.579 23.5608 170.763 25.8529 168.472 31.8124C167.647 33.8295 167.189 34.1962 166.181 33.3711C164.165 31.7207 163.523 34.838 165.173 38.1387C165.906 39.6056 166.547 41.4393 166.547 41.9894C166.547 42.6312 167.189 43.6397 168.013 44.3732C169.296 45.3817 169.205 45.6568 167.28 46.6653C166.089 47.3988 163.706 47.9489 161.965 48.0406C157.475 48.2239 154.176 49.2325 154.084 50.5161C153.992 51.1578 153.901 51.983 153.809 52.4414C153.809 52.8999 150.785 56.4755 147.119 60.2346C141.621 66.1024 140.063 67.2026 137.589 67.2026C133.465 67.2026 133.007 65.0022 136.581 62.7101C140.155 60.418 139.238 60.2346 135.114 62.3433C131.54 64.177 129.616 66.4691 130.991 67.2943C131.54 67.661 130.441 68.5779 128.7 69.4947C126.867 70.3199 123.843 73.0704 122.01 75.5459C118.344 80.2218 116.603 81.5054 115.595 79.9468C115.228 79.3967 114.587 79.8551 113.945 81.1387C113.396 82.2389 112.113 83.3391 111.196 83.5225C110.097 83.7975 109.73 83.5225 110.188 82.789C111.288 80.9553 107.256 82.5139 100.383 86.548C97.0836 88.4734 93.6929 90.1237 93.0514 90.1237C92.3183 90.1237 91.2186 90.6738 90.5771 91.3156C89.569 92.2325 89.3858 91.6824 89.7523 88.1984C90.0272 85.6312 89.7523 82.6973 88.9276 80.8636C88.1028 78.8465 87.9195 76.4627 88.2861 73.7122C88.8359 69.8615 88.8359 69.5864 87.3697 70.7783C86.1783 71.7868 85.9951 72.9787 86.3616 76.7378C86.7282 79.305 87.0947 83.8892 87.3697 86.9148L87.8279 92.4158L85.1703 89.6653C82.6044 86.9148 79.4886 85.6312 79.4886 87.1898C79.4886 87.6483 80.3133 88.29 81.413 88.5651C82.5127 88.8401 83.0626 89.4819 82.7876 90.032C82.4211 90.4905 83.0626 91.1323 84.0706 91.499C85.0787 91.8657 85.7201 92.4158 85.4452 92.8743C85.1703 93.3327 85.5369 94.708 86.3616 95.8999C87.553 97.7335 87.553 98.5587 86.5449 101.493C85.5369 104.427 84.6205 105.252 79.9468 107.085C76.1895 108.644 71.7908 109.469 65.3759 109.928C56.945 110.569 56.1202 110.753 53.4626 113.32L50.6218 115.979L53.371 114.145C55.3871 112.861 58.5029 112.22 65.101 111.761C70.7827 111.303 75.4564 110.478 77.9307 109.377C80.0384 108.369 82.4211 107.635 83.1542 107.635C84.0706 107.635 84.1622 107.819 83.3375 108.186C82.7876 108.369 82.4211 109.011 82.696 109.469C83.3375 110.386 80.9548 115.245 78.7555 117.446C77.9307 118.363 76.5561 120.013 75.7313 121.296C74.3567 123.314 74.0818 123.405 71.6991 122.397C68.3084 120.838 66.5672 122.305 68.8583 124.872C70.3245 126.522 70.5994 129.09 70.966 145.409L71.3326 164.113L68.2168 166.497C66.4756 167.78 63.4515 170.623 61.527 172.731C59.5109 174.84 56.7617 177.132 55.2038 177.774C53.7376 178.508 51.3549 179.974 50.0719 180.983C45.7648 184.375 44.7568 182.45 48.789 178.599C50.9883 176.49 51.7215 175.39 50.6218 175.849C49.6137 176.215 48.0558 176.766 47.2311 176.949C46.3147 177.224 45.5815 178.049 45.5815 178.874C45.5815 179.608 45.3066 179.974 44.9401 179.699C44.2069 178.874 41.8243 185.567 42.2825 187.034C42.5574 187.584 42.0992 188.318 41.3661 188.593C39.35 189.326 39.1667 189.326 39.1667 187.768C39.1667 186.851 38.2503 186.392 36.4175 186.392C33.6683 186.392 28.2615 182.083 26.9785 178.966C26.7036 178.232 26.4286 178.966 26.4286 180.616C26.337 182.175 26.7036 183.734 27.0701 184.009C27.5283 184.284 27.62 185.842 27.4367 187.493C27.0701 190.06 27.1618 190.335 28.2615 189.418C29.1779 188.685 30.0943 188.593 30.919 189.143C31.6522 189.693 33.3933 190.06 34.8596 190.06C36.6924 190.06 37.3339 190.518 37.3339 191.802C37.3339 192.81 36.9673 193.819 36.6008 194.094C36.1426 194.369 35.3178 196.936 34.6763 199.87C34.0348 202.804 32.9351 206.288 32.202 207.663C31.4689 208.947 30.919 210.964 30.919 212.064C30.919 213.164 29.7277 215.64 28.2615 217.473C25.6955 220.774 21.755 228.476 21.755 230.309C21.755 230.859 21.3884 231.318 20.9302 231.318C19.6472 231.318 19.0058 236.635 20.0138 239.203C20.7469 241.403 20.7469 241.495 19.464 240.486C18.2726 239.478 18.0893 239.753 18.0893 242.228C18.0893 243.879 17.6311 245.987 17.0813 246.996C16.0733 248.921 14.1488 255.247 12.4993 262.307C11.8578 264.691 10.6665 266.8 9.29184 267.625C7.18411 269.092 3.06028 280.002 1.59403 288.621C1.22747 290.638 0.585984 293.113 0.219422 294.122C-0.238782 295.589 -0.0555004 295.497 1.50239 293.663C2.51044 292.38 3.61012 290.546 3.88505 289.537C4.25161 288.529 4.80145 286.879 5.25966 285.87C5.62622 284.861 6.54263 281.469 7.18411 278.26C8.00888 274.226 9.01692 272.117 10.3915 271.201C12.4076 269.917 13.599 267.166 17.1729 255.339C18.3643 251.672 19.6472 248.463 20.0138 248.188C20.472 247.913 20.8386 246.904 20.8386 245.896C20.8386 242.687 23.3129 243.053 27.345 246.812C31.5605 250.755 32.7518 251.305 32.7518 249.38C32.7518 247.729 24.9624 239.753 22.9463 239.386C20.5636 238.928 20.3804 235.352 22.5797 232.601C23.6794 231.226 24.5042 229.576 24.5042 228.934C24.5042 228.201 24.9624 227.65 25.4206 227.65C25.9704 227.65 26.8868 226.55 27.4367 225.175C28.0782 223.708 29.2695 221.691 30.0943 220.499C31.8354 218.207 34.9512 209.222 35.9593 203.537C36.3258 201.704 36.9673 199.87 37.4255 199.595C37.8837 199.32 38.2503 198.22 38.2503 197.211C38.2503 194.736 52.1797 180.891 54.654 180.891C55.5704 180.891 56.6701 180.25 56.945 179.424C57.2199 178.691 57.8614 178.232 58.2279 178.508C59.1444 179.058 63.2682 175.299 65.3759 172.181L66.8422 169.889L69.4997 173.19C70.966 175.024 72.1573 177.499 72.1573 178.691C72.1573 181.075 76.4644 186.667 77.7474 185.842C79.122 185.017 78.6638 182.542 76.9226 182.175C75.0898 181.625 72.8904 177.499 74.0818 176.674C74.54 176.399 74.54 175.482 73.9901 174.473C72.7988 172.181 72.7988 155.495 73.9901 154.761C74.7233 154.303 74.6316 153.753 73.9901 152.928C73.3487 152.194 72.9821 150.269 73.1654 148.618C73.257 146.968 73.0737 144.584 72.7072 143.301C72.3406 142.017 72.4322 140 72.8904 138.808C73.3487 137.433 73.257 135.141 72.7072 132.94C71.8824 130.098 71.974 129.181 72.8904 128.906C73.4403 128.631 73.9901 127.898 73.9901 127.164C73.9901 126.431 74.6316 125.881 75.3647 125.881C76.0979 125.881 76.7394 125.331 76.7394 124.689C76.7394 124.047 78.114 121.847 79.7635 119.829C81.5047 117.904 83.6124 114.603 84.5288 112.495C86.0867 108.827 88.1028 107.36 94.8842 104.793C100.841 102.501 115.228 105.618 113.945 108.919C113.304 110.661 114.862 111.578 115.87 110.111C117.061 108.277 122.376 105.893 134.015 101.859C136.489 101.034 137.405 101.309 140.43 103.326C146.936 107.544 151.885 111.67 150.877 112.036C150.327 112.22 149.41 111.853 148.861 111.303C147.028 109.469 146.02 110.294 147.852 112.22C148.861 113.412 150.51 114.053 152.343 113.962C156.375 113.687 156.833 113.87 155.734 115.154C155.184 115.795 154.909 117.171 155.184 118.271C155.459 119.371 155 121.296 154.176 122.58L152.618 124.964L155.367 123.955C158.025 123.038 158.116 122.763 157.75 119.371L157.291 115.704L166.272 116.07C177.177 116.621 182.126 117.446 182.126 118.913C182.218 121.296 176.811 130.19 173.237 133.582C169.48 137.158 167.464 140.642 170.946 137.525C171.862 136.608 173.054 135.966 173.512 135.966C174.52 135.874 180.293 130.74 180.293 129.823C180.293 127.806 184.6 118.454 185.792 117.996C188.174 117.079 204.028 116.804 204.578 117.721C205.403 118.913 224.281 118.821 224.281 117.537C224.281 116.896 221.532 116.621 216.216 116.804ZM91.5851 104.793C90.6687 104.793 89.0192 105.435 87.9195 106.26C85.9951 107.635 85.9034 107.544 86.8198 105.252C87.3697 103.876 88.2861 101.951 89.0192 100.942C90.3022 99.2005 90.3022 99.2005 91.7684 101.309C93.6929 103.968 93.6012 104.793 91.5851 104.793ZM70.4162 170.348C69.9579 170.623 69.3165 170.439 68.9499 169.889C68.675 169.431 69.0415 168.972 69.7747 168.972C71.4242 168.972 71.6991 169.522 70.4162 170.348Z" fill="black"/>
</svg>
