<svg width="153" height="178" viewBox="0 0 153 178" fill="none" xmlns="http://www.w3.org/2000/svg">
<path d="M151.188 126.36C150.73 125.535 149.263 124.618 148.072 124.251C146.881 123.976 145.598 123.059 145.323 122.234C144.865 121.134 145.14 120.859 146.148 121.317C148.255 122.142 144.956 117.925 141.841 115.816C139.55 114.258 137.9 111.782 132.402 101.788C130.66 98.6712 124.246 94.362 123.054 95.5539C122.779 95.829 124.062 96.7458 125.803 97.4793C128.003 98.3962 129.744 100.046 130.935 102.43C133.868 108.115 138.45 114.624 141.474 117.283L144.132 119.759L141.657 123.059C139.733 125.535 139.183 127.002 139.641 128.744C140.008 130.027 139.916 131.036 139.458 131.036C138.45 131.036 135.059 137.912 134.143 141.58C132.951 146.622 132.035 147.814 130.294 146.439C129.011 145.43 128.919 145.43 129.469 146.897C130.386 149.373 128.553 152.123 126.262 151.848C124.887 151.756 123.146 153.132 120.305 156.707C114.44 163.951 111.691 166.793 110.591 166.793C109.766 166.793 107.842 157.991 108.025 154.874C108.208 150.84 105.917 142.405 104.726 142.68C104.268 142.771 102.893 141.213 101.794 139.196L99.7776 135.62L101.885 134.795C104.36 133.878 104.36 133.878 104.909 136.537C105.184 137.729 105.734 139.104 106.284 139.654C106.742 140.113 107.2 141.488 107.2 142.68C107.2 143.872 107.659 144.788 108.117 144.788C109.125 144.788 108.392 140.479 107.109 138.829C105.734 136.995 105.184 126.91 106.284 122.784C107.842 117.1 110.591 113.432 112.791 114.074C114.623 114.716 115.082 113.707 113.707 112.24C112.791 111.14 110.958 105.731 110.408 102.064C110.133 100.597 109.583 97.3876 109.033 95.0038C108.208 90.6947 108.208 90.4196 111.508 86.4772C115.082 82.2597 121.863 76.3919 121.863 77.4921C121.863 77.8588 121.221 78.959 120.305 79.8759C119.48 80.7927 119.297 81.5262 119.847 81.5262C121.68 81.5262 123.696 78.684 123.696 75.9335C123.696 73.3663 124.887 72.3578 125.987 74.1915C126.262 74.6499 127.086 74.8333 127.911 74.4665C128.644 74.1915 130.111 74.7416 131.027 75.5667C133.226 77.5838 133.868 77.1254 133.135 74.3748C132.768 72.8162 131.943 72.3578 129.561 72.3578C127.178 72.3578 126.445 71.991 126.445 70.7991C126.445 67.5902 129.011 56.2213 130.477 52.7373C131.668 50.1701 131.76 49.345 130.844 49.62C128.828 50.2618 126.72 55.9463 125.712 63.3727C124.704 71.2576 121.863 75.7501 115.448 80.0593C113.524 81.3428 111.691 83.1765 111.324 84.2767C110.5 86.9356 109.675 86.5689 105.917 82.0763C104.176 79.8759 101.702 77.8588 100.419 77.4921C97.9447 76.8503 92.5379 70.1573 92.5379 67.6819C92.5379 66.765 93.0878 65.9399 93.7293 65.6648C94.554 65.2981 94.4624 64.9313 93.3627 64.0145C92.5379 63.281 91.1633 60.0721 90.2469 56.7714C89.2389 53.4708 87.9559 49.8034 87.3144 48.5198C86.3064 46.5944 86.3064 46.0443 87.4977 45.2192C88.689 44.3023 88.689 44.119 87.0395 43.6605C84.5652 43.0187 82.7324 38.8013 84.0154 36.6925C84.5652 35.8674 85.2983 33.8503 85.6649 32.2C86.3064 29.0827 87.3144 28.716 90.3386 30.458C94.554 32.9335 97.3033 35.684 96.8451 37.0593C96.1119 38.8013 97.5782 39.6264 99.5943 38.6179C105.826 35.5006 111.508 35.8674 117.922 39.9932C120.213 41.4601 120.397 41.4601 119.205 39.9932C116.914 37.1509 111.874 34.6755 107.475 34.3087C101.61 33.8503 86.398 26.8823 85.7565 24.2234C84.8401 21.0145 85.2067 17.072 86.9479 10.7458C88.2308 6.06991 88.3225 4.51128 87.4977 4.51128C86.0315 4.51128 83.8321 14.5966 83.9237 20.6477L84.107 25.4153L78.7002 23.5816C75.4011 22.4814 73.2934 21.1978 73.2934 20.4644C73.2934 19.4558 72.8352 19.3642 71.8272 19.9143C71.094 20.281 69.2612 20.4644 67.7033 20.281C65.4123 19.9143 64.9541 19.4558 64.4043 16.1552C63.9461 13.2213 63.6711 12.7629 63.2129 14.1381C62.8464 15.1467 62.8464 16.6136 63.3046 17.4388C63.9461 18.6307 63.5795 19.0891 61.8383 19.3642C60.5554 19.6392 59.5473 19.4558 59.5473 19.0891C59.5473 18.6307 57.4396 18.4473 54.9653 18.539C50.9331 18.814 50.0167 18.539 47.5424 16.2469C46.0761 14.7799 44.335 12.4878 43.7851 11.1126C43.2353 9.73729 42.6854 9.0955 42.4105 9.73729C42.2272 10.3791 41.3108 10.5624 40.4861 10.2874C39.6613 10.0123 40.761 11.6627 43.052 14.0465C46.5343 17.7138 46.8093 18.2639 45.1597 18.2639C43.9684 18.2639 42.9604 17.5305 42.5938 16.4303C42.3189 15.4217 41.6774 14.5966 41.3108 14.5966C40.9443 14.5966 39.6613 13.7714 38.5616 12.8546C37.4619 11.9377 35.0793 10.8375 33.1548 10.4708C29.031 9.73729 23.5325 6.62002 18.9505 2.40253C17.1177 0.660526 15.2849 -0.348003 15.01 0.110419C13.8186 2.03579 28.6644 11.7543 32.8799 11.846C34.5294 11.9377 39.3864 15.8801 39.3864 17.1637C39.3864 17.6221 40.0279 18.539 40.761 19.1808C41.4941 19.8226 42.1356 20.6477 42.1356 20.9228C42.1356 21.2895 38.8365 24.3151 34.8043 27.7074C27.9313 33.4836 27.2898 33.7586 23.2576 33.6669C19.4087 33.4836 18.7672 33.7586 15.9264 36.8759C12.8106 40.2682 7.03723 43.0187 2.9134 43.0187C1.72207 43.0187 0.988948 43.3855 1.26387 43.8439C1.63043 44.3023 1.26387 44.8524 0.714025 45.1275C0.072541 45.3109 -0.202381 45.7693 0.164182 46.136C0.439103 46.5028 3.46324 45.6776 6.85395 44.394C11.8942 42.377 13.1772 42.1019 13.8186 43.1104C14.735 44.6691 19.6836 51.1787 22.9827 55.2128C24.2657 56.8631 25.6403 58.9718 26.0985 59.9804C26.8316 61.7224 26.9232 61.7224 27.2898 59.6136C27.6564 57.0465 32.8799 48.7949 35.5375 46.4111C37.3703 44.7607 37.5536 44.7607 41.4941 46.5028C45.9845 48.5198 47.5424 50.1701 45.8012 51.2703C44.9765 51.8204 45.1597 52.1872 46.5343 52.5539C48.4588 53.1957 55.4235 51.6371 57.4396 50.1701C59.1808 48.7949 59.8222 51.087 59.7306 57.7799C59.5473 63.9228 59.639 64.0145 62.7547 65.9399C64.4959 67.0401 65.9622 68.232 65.9622 68.6904C65.9622 69.1488 68.0699 71.8993 70.5442 74.9249C76.0426 81.5262 76.5925 84.8269 72.6519 87.9441L70.086 89.8695L72.9268 88.4942C76.5925 86.7522 77.6922 82.2597 75.4011 78.959C74.4847 77.6755 73.2934 75.8418 72.6519 74.8332C72.1021 73.8247 71.0024 72.6328 70.1776 72.1744C69.4445 71.716 68.1615 69.974 67.3368 68.3236C66.512 66.6733 64.8625 64.8396 63.5795 64.1978C61.4718 63.281 61.2885 62.7309 61.4718 57.5049C61.5634 54.2959 61.4718 51.362 61.3801 50.8119C61.1968 50.3535 61.4718 48.8865 62.0216 47.603C62.5715 46.3194 63.7628 43.0187 64.6792 40.2682C65.5956 37.5177 66.4204 35.1339 66.512 34.9505C66.7869 34.4921 74.2098 38.3428 77.4172 40.6349C78.8835 41.6435 80.3497 42.652 80.533 42.7437C80.7163 42.8354 80.3497 43.5689 79.7083 44.394C78.9751 45.3109 78.8835 45.7693 79.525 45.7693C80.8996 45.7693 82.2742 42.9271 81.816 41.1851C81.5411 40.4516 82.2742 40.8183 83.2822 42.1019C84.2903 43.3855 85.0234 44.8524 84.7485 45.4942C84.5652 46.136 85.2983 48.9782 86.4897 51.9121C92.1714 66.5816 93.0878 95.4622 87.7726 94.087C85.2983 93.4452 85.7565 94.5454 89.6971 98.9463C93.6376 103.439 94.3708 105.639 94.3708 114.074C94.3708 117.191 94.9206 121.226 95.6537 122.876C97.3033 126.727 97.7615 135.345 96.5701 136.537C96.0203 137.087 94.4624 137.729 92.9961 138.004C90.1553 138.462 86.4897 140.938 85.6649 142.863C84.7485 145.155 85.8482 144.88 88.964 142.13C90.6135 140.571 92.263 139.562 92.7212 139.838C93.1794 140.113 94.554 139.654 95.837 138.829C98.0364 137.454 98.3113 137.454 99.2277 138.829C101.244 141.58 107.475 155.791 106.926 156.432C105.826 157.441 103.81 154.874 102.71 151.023C101.794 147.997 101.335 147.539 100.694 148.639C99.7775 150.29 102.618 157.533 104.909 159.458C106.101 160.467 106.284 161.842 105.826 166.426C105.276 171.469 105.459 172.569 107.2 175.044C108.3 176.603 109.4 177.703 109.675 177.428C109.95 177.153 109.308 175.778 108.208 174.311C106.742 172.202 106.467 170.827 106.926 168.535L107.475 165.417L109.675 170.002C110.774 172.569 111.782 175.319 111.782 176.236C111.782 177.245 112.241 177.612 112.791 177.245C113.432 176.878 113.615 175.136 113.249 172.661C112.882 169.452 113.065 168.626 114.348 168.168C115.173 167.893 117.464 165.234 119.48 162.117C122.871 156.799 126.445 154.14 128.461 155.424C129.103 155.791 129.194 155.607 128.828 155.057C128.461 154.415 128.553 153.957 129.011 153.957C129.469 153.957 131.027 152.307 132.402 150.29C133.776 148.272 135.334 146.897 135.884 147.264C136.525 147.631 136.617 147.264 136.251 146.255C135.884 145.339 135.884 144.147 136.251 143.597C136.525 143.138 136.892 141.488 136.984 140.021C137.167 138.554 138.358 135.712 139.733 133.603C141.474 130.944 141.932 129.661 141.107 129.202C140.283 128.652 140.374 127.827 141.474 125.626C143.032 122.784 144.223 122.051 145.14 123.609C145.598 124.343 152.104 128.469 152.104 128.01C152.104 127.919 151.646 127.185 151.188 126.36ZM108.3 114.899C106.834 117.467 105.093 122.234 104.451 125.535C103.352 130.852 101.702 133.695 99.6859 133.786C99.2277 133.786 98.9528 131.586 98.9528 129.019C98.9528 126.36 98.3113 122.142 97.5782 119.667C96.845 117.1 96.3868 114.441 96.6618 113.616C96.9367 112.699 96.4785 109.398 95.5621 106.189C94.554 102.339 93.9126 95.6456 93.7293 87.0273L93.3627 73.8247L95.9286 76.0251C97.3033 77.3087 98.6779 78.5006 98.9528 78.7757C99.2277 79.0507 100.694 79.8759 102.16 80.6094C103.718 81.4345 104.726 82.2597 104.451 82.5347C104.176 82.8098 104.451 83.635 105.001 84.3684C105.643 85.1019 106.376 87.9441 106.651 90.6947C107.017 93.4452 107.934 97.846 108.575 100.322C109.858 104.814 110.5 107.656 110.774 109.398C110.774 109.857 109.675 112.332 108.3 114.899ZM91.0717 95.9207C90.7968 95.6456 90.7051 94.8205 90.9801 94.1787C91.255 93.4452 91.5299 93.7202 91.5299 94.7288C91.6215 95.7373 91.3466 96.2874 91.0717 95.9207ZM82.824 31.7416C81.816 32.1083 79.0668 27.7991 79.7999 26.974C80.0748 26.7906 81.1745 26.7906 82.2742 27.1573C83.7404 27.5241 84.2903 28.2575 84.107 29.5411C83.9237 30.5497 83.3739 31.5582 82.824 31.7416ZM80.4414 37.2426C79.7999 38.0678 78.4253 37.7927 75.0346 36.1424C69.0779 33.3919 68.8947 33.1168 72.0104 32.0166C73.4767 31.5582 75.4011 30.6413 76.4092 30.0912C77.6922 29.3578 78.5169 29.5411 80.1665 31.0998C82.2742 33.0251 82.3658 34.7671 80.4414 37.2426ZM71.094 30.0912C68.1615 31.0998 67.4284 31.0998 66.7869 30.0912C66.1454 28.991 65.9622 29.0827 65.9622 30.1829C65.8705 31.2831 65.6872 31.1915 64.9541 29.9079C64.4043 29.0827 64.1293 26.974 64.3126 25.3236C64.5876 22.4814 64.7708 22.3897 68.1615 22.6648C70.1776 22.8482 73.2934 23.5816 75.0346 24.3151C78.1504 25.5987 78.1504 25.6904 76.4092 27.249C75.4928 28.1659 73.1101 29.4494 71.094 30.0912ZM62.6631 42.1936C61.4718 45.3109 60.3721 46.6861 58.2643 47.603C52.1244 50.1701 51.1164 50.3535 48.6421 48.6115C45.0681 46.136 36.4539 42.0102 35.904 42.5603C35.6291 42.7437 34.9876 43.7522 34.4378 44.6691C33.8879 45.6776 31.7802 48.7949 29.8557 51.6371L26.2818 56.8631L23.6242 54.2959C22.2496 52.9207 21.0582 51.362 21.0582 50.7202C21.0582 50.0784 20.5084 49.1616 19.9586 48.7949C19.3171 48.4281 18.0341 47.1445 17.0261 46.0443C15.4682 44.119 15.3765 43.8439 16.8428 40.91C19.0422 36.1424 20.4168 35.4089 26.0985 35.8674C28.8477 36.1424 31.1387 36.0507 31.1387 35.684C31.1387 34.4004 38.0118 28.0742 42.3189 25.4153C45.0681 23.6733 46.626 22.1147 46.3511 21.3812C45.5263 19.3642 47.4508 18.9974 49.1919 20.9228C50.1083 21.9313 52.3077 23.0315 54.0489 23.49C56.6148 24.1317 57.6229 25.1403 59.1808 28.4409C60.2804 30.733 61.8383 33.1168 62.6631 33.7586C64.4959 35.3172 64.4959 36.9676 62.6631 42.1936ZM61.5634 28.6243C60.9219 27.7074 60.647 26.5155 60.8303 25.9654C61.1052 25.3236 60.647 24.3151 59.9139 23.765C57.9894 22.1147 58.356 21.0145 60.8303 21.0145C62.8464 21.0145 63.0297 21.2895 62.938 25.5987C62.7547 29.5411 62.5715 29.9996 61.5634 28.6243Z" fill="black"/>
</svg>
