<svg width="119" height="97" viewBox="0 0 119 97" fill="none" xmlns="http://www.w3.org/2000/svg">
<path d="M116.668 58.6781C115.11 57.8529 114.469 57.9446 113.003 59.2282C111.078 60.9702 105.305 61.2452 95.4076 60.0533C91.1005 59.5949 89.4509 59.7783 86.2435 61.3369C82.4862 63.1706 81.9364 63.1706 74.0553 61.9787C61.0423 59.87 60.5841 59.6866 59.3011 54.919C58.1098 50.4265 57.7433 41.8998 58.7513 40.983C59.0262 40.6162 59.851 40.7996 60.5841 41.3497C61.5005 42.1749 61.7754 41.8998 61.7754 40.1578C61.7754 38.8742 60.1259 35.9403 57.6516 33.0981C55.3606 30.4392 53.5278 27.9638 53.5278 27.597C53.5278 27.2303 52.5197 26.4051 51.2368 25.855C49.9538 25.3049 48.9458 24.2047 48.9458 23.5629C48.9458 22.096 53.7111 17.42 55.4522 17.0533C56.1854 16.9616 57.7433 16.3198 58.9346 15.678C62.3253 13.8444 59.9426 12.3774 56.4603 14.1194C54.9024 14.9446 53.0696 15.5864 52.4281 15.5864C51.7866 15.5864 50.5036 16.6866 49.404 17.9702C47.8461 19.9872 46.6547 20.354 41.1563 20.7207C37.5823 20.9041 32.5421 21.8209 29.7929 22.6461L24.8443 24.2047L19.7124 18.7036C16.8715 15.5864 13.6641 12.6525 12.4728 12.0107C10.5483 11.0021 10.4567 10.5437 11.0065 5.40938C11.5564 0.183369 11.5564 5.05145e-07 9.44865 4.13013e-07C7.43255 3.24887e-07 7.43255 3.24887e-07 9.17373 1.28358C10.64 2.47548 10.7316 2.9339 9.81521 4.49254C9.17373 5.59275 8.62388 7.0597 8.62388 7.79318C8.62388 8.61834 8.25732 9.07676 7.79912 8.80171C7.15763 8.34329 5.87466 10.177 5.87466 11.5522C5.87466 11.7356 7.43255 12.5608 9.44865 13.3859C11.3731 14.1194 13.4808 15.7697 14.1223 16.8699C14.7638 18.0618 16.2301 19.6205 17.4214 20.2623C19.5291 21.3625 20.079 22.5544 19.804 25.855C19.7124 26.8635 20.079 27.2303 20.9954 26.9552C22.8282 26.2218 22.7365 27.2303 20.5372 30.2559C19.4375 31.8145 17.513 33.0064 15.6802 33.3731C14.0307 33.6482 11.0982 35.3902 9.17372 37.1322C7.24927 38.8742 5.23318 40.3412 4.77497 40.3412C4.31677 40.3412 2.75888 41.258 1.47591 42.3582C-0.265262 43.7335 -0.448543 44.1002 0.834426 43.5501C1.84247 43.1834 3.95021 42.3582 5.59974 41.8081C7.15763 41.258 8.71552 40.1578 8.8988 39.3326C9.17372 38.4158 11.3731 37.1322 14.214 36.2154C19.2542 34.565 23.2864 31.7228 23.2864 29.7974C23.2864 28.1471 26.4022 25.6716 28.5099 25.6716C29.5179 25.6716 30.6176 25.3966 30.9842 25.0299C31.3508 24.5714 32.5421 24.2047 33.6418 24.0213C34.7415 23.9296 37.5823 23.5629 40.0566 23.2879C42.8975 22.9211 44.3637 23.1045 44.3637 23.7463C44.3637 24.2964 45.5551 25.4883 46.9297 26.4051C48.3959 27.2303 50.8702 29.4307 52.4281 31.2644C55.1773 34.3817 55.3606 35.2068 55.8188 43.1834C56.4603 54.3689 57.0101 60.6034 57.4683 61.1535C57.6516 61.3369 59.3011 61.7036 60.9507 61.887C66.4491 62.5288 80.2869 65.096 81.1116 65.6461C82.1197 66.2879 81.1116 74.2644 79.6454 76.5565C79.0039 77.5651 78.1791 80.5906 77.8126 83.2495C77.2627 87.467 76.7129 88.3838 72.6807 91.7761C68.007 95.6269 67.1822 97.7356 71.3061 94.9851C74.1469 93.1514 74.6051 93.1514 74.6051 94.8934C74.6051 95.6269 74.8801 96.2687 75.3383 96.2687C76.0714 96.2687 80.1036 83.8913 80.1036 81.6909C80.1036 81.0491 80.7451 78.5736 81.4782 76.1898C82.3029 73.8977 83.311 70.2303 83.7692 68.1216C84.6856 64.6375 85.1438 64.0874 88.4429 63.0789C91.3754 62.2537 93.5748 62.2537 98.9815 63.1706C102.739 63.8124 106.588 63.9958 107.596 63.7207C108.604 63.354 109.429 63.5373 109.429 64.0874C109.429 65.6461 111.628 65.2793 113.827 63.2623C114.927 62.2537 116.21 61.4286 116.668 61.4286C118.501 61.4286 118.593 59.6866 116.668 58.6781Z" fill="black"/>
</svg>
