<svg width="70" height="31" viewBox="0 0 70 31" fill="none" xmlns="http://www.w3.org/2000/svg">
<path d="M68.7532 3.0053e-06C68.295 2.98527e-06 65.6374 2.10875 63.3464 4.21749C62.7965 4.67591 60.6888 5.13433 58.6727 5.22602C55.0071 5.22602 55.0071 5.22602 57.7563 4.30917C59.3142 3.85075 61.0554 3.02559 61.6968 2.47548C63.3464 1.1919 63.0714 -0.275051 61.2386 0.458425C60.3222 0.825163 57.573 1.37527 55.0071 1.74201C51.8913 2.20043 50.5167 2.75054 50.7 3.5757C50.8832 4.58422 49.9668 4.67591 46.7594 4.40086C43.9185 4.03412 42.6356 4.21749 42.6356 4.95096C42.6356 6.14286 35.396 9.71855 34.0214 9.35182C33.5632 9.16845 32.9217 9.4435 32.6467 9.90192C32.3718 10.3603 29.531 11.0021 26.4152 11.2772C23.2994 11.5522 20.0003 12.194 18.9923 12.7441C18.0759 13.2942 15.7849 13.8444 13.9521 14.0277C11.3861 14.3028 9.91987 15.2196 7.81214 17.8785C6.34589 19.8038 5.06292 21.7292 5.06292 22.1876C5.06292 22.5544 3.68831 24.2047 2.13042 25.6716C0.480886 27.1386 -0.435521 28.4222 0.205964 28.4222C0.755808 28.4222 1.58057 28.0554 1.8555 27.5053C2.13042 27.0469 3.77995 26.5885 5.33784 26.5885C7.35393 26.5885 9.27839 25.6716 11.2028 23.9296C12.7607 22.5544 14.7768 21.0874 15.6016 20.7207C16.7929 20.2623 16.8846 19.8038 16.2431 18.9787C15.4183 18.0618 16.2431 17.42 20.0003 16.1365C27.1483 13.7527 28.7062 14.2111 32.3718 20.4456C34.2046 23.5629 36.1291 25.6716 37.0455 25.6716C37.9619 25.6716 39.5198 26.6802 40.6195 27.9638C42.6356 30.2559 46.3012 31.081 46.3012 29.339C46.3012 28.8806 45.7514 28.4222 45.0182 28.4222C44.3768 28.4222 43.552 27.597 43.2771 26.6802C43.0021 25.6716 41.5359 24.0213 39.8864 23.0128C37.2288 21.4542 33.4715 17.0533 33.4715 15.4947C33.4715 15.2196 35.5792 14.9446 38.1452 14.8529C40.7111 14.8529 43.3687 14.3028 44.1018 13.661C45.5681 12.4691 51.2498 10.452 60.1389 7.88487C65.4541 6.32623 69.2114 3.66738 69.2114 1.37527C69.2114 0.641794 69.0281 3.01731e-06 68.7532 3.0053e-06ZM52.2578 7.7015C49.8752 9.26013 47.2176 9.62687 47.2176 8.43497C47.2176 7.79318 52.991 4.58422 54.0907 4.58423C55.3736 4.58423 54.2739 6.41791 52.2578 7.7015ZM10.9279 20.9041C10.1948 22.0043 8.91182 22.9211 8.1787 22.9211C6.98737 22.9211 7.07901 22.5544 8.27034 20.1706C9.09511 18.7036 10.2864 17.42 11.0196 17.42C12.7607 17.42 12.7607 18.3369 10.9279 20.9041Z" fill="black"/>
</svg>
