<svg width="239" height="181" viewBox="0 0 239 181" fill="none" xmlns="http://www.w3.org/2000/svg">
<path d="M233.317 157.537C230.018 155.703 226.627 154.419 225.711 154.603C224.794 154.878 221.77 153.594 219.021 151.761C214.531 148.827 213.523 148.46 209.765 149.01C206.283 149.377 204.817 149.102 202.159 147.451C200.418 146.259 198.952 144.793 198.86 144.059C198.86 143.326 198.585 143.051 198.219 143.417C197.852 143.692 196.203 142.684 194.553 141.033C191.895 138.466 191.529 137.549 191.529 133.515C191.621 125.722 192.995 120.771 195.378 119.213C197.944 117.562 212.606 103.443 212.606 102.526C212.606 102.251 211.965 101.334 211.232 100.601C210.59 99.8671 209.674 98.1251 209.307 96.6582C208.941 95.1912 207.108 91.6156 205.092 88.4983C201.518 82.8138 200.693 79.7883 202.892 79.7883C203.534 79.7883 205.183 78.9631 206.466 77.9546C207.749 76.946 209.216 76.1209 209.857 76.1209C210.407 76.1209 213.614 74.8373 216.913 73.3703C222.687 70.6198 222.962 70.6198 227.819 71.9034C233.134 73.2787 234.692 72.3618 229.835 70.7115C227.635 69.8863 227.177 69.4279 228.002 68.6028C228.643 67.961 229.102 67.0441 229.102 66.5857C229.102 66.0356 228.643 66.1273 228.002 66.7691C227.36 67.4109 226.169 67.8693 225.344 67.8693C224.52 67.8693 220.946 69.3362 217.555 71.0782C214.073 72.8202 210.59 74.2872 209.857 74.2872C209.032 74.2872 207.658 74.8373 206.65 75.5708C205.642 76.2126 203.259 77.4961 201.426 78.2296C198.127 79.6049 197.944 79.6049 194.553 76.946C192.629 75.3874 189.879 71.8117 188.413 68.9695C186.947 66.1273 185.022 63.1934 184.014 62.4599C183.006 61.8181 182.457 60.6262 182.731 59.9844C183.281 58.6092 179.249 56.4087 177.783 57.3256C177.416 57.6006 176.592 57.1422 175.95 56.4087C175.309 55.6752 174.484 55.3085 174.026 55.5836C173.567 55.8586 173.201 55.6752 173.201 55.1251C173.201 54.575 172.101 54.3917 170.452 54.6667C167.244 55.4002 164.953 53.8416 164.953 50.9993C164.953 49.8991 164.312 48.1571 163.579 47.1486C162.021 45.1315 161.746 42.1976 163.12 42.1976C163.67 42.1976 164.037 41.8309 164.037 41.2808C164.037 40.8224 163.395 40.639 162.662 40.914C161.929 41.2808 161.288 41.0974 161.288 40.639C161.288 40.1806 159.821 39.0804 158.08 38.2552C154.231 36.4215 154.048 34.7712 157.072 29.2701C159.821 24.2275 160.738 21.1102 159.546 21.1102C159.088 21.1102 157.805 22.8522 156.889 25.0526C155.972 27.1614 154.506 29.4535 153.681 30.187C152.765 30.8288 152.123 32.3874 152.123 33.5793C152.123 36.3298 151.849 36.3298 145.8 33.0292C143.143 31.5622 140.393 30.6454 139.752 30.9204C138.561 31.2872 130.68 28.9034 124.173 26.1529C121.149 24.8693 116.384 23.4023 112.443 22.5772C110.152 22.0271 109.877 22.2104 110.427 23.8607C110.977 25.5111 110.61 25.6944 106.395 25.6944C103.92 25.6944 100.805 25.3277 99.5217 24.7776C97.8722 24.2275 97.1391 24.2275 97.1391 24.8693C97.1391 25.4194 96.4059 25.6944 95.5812 25.5111C94.6648 25.236 92.2821 26.4279 90.266 27.9865C86.5088 31.0121 78.9026 34.8629 76.7949 34.8629C76.0617 34.8629 75.0537 35.3213 74.5038 35.8714C73.6791 36.6966 72.671 36.3298 70.4716 34.7712C68.8221 33.5793 66.6227 32.5708 65.7063 32.5708C64.6983 32.4791 63.232 31.6539 62.4073 30.6454C61.4909 29.5452 59.4748 28.8117 56.9088 28.6283C54.7095 28.5366 52.1435 27.9865 51.3188 27.5281C49.9441 26.7946 49.7609 26.978 50.1274 28.445C50.4023 29.4535 50.494 30.2786 50.2191 30.2786C49.1194 30.2786 42.4296 26.3362 40.2302 24.4108L37.6643 22.1187L39.5888 16.801C41.055 12.4002 41.2383 11.2083 40.2302 9.64965C39.5888 8.64112 39.1306 6.34901 39.2222 4.607C39.4055 2.31489 38.9473 1.12299 37.7559 0.389518C36.1981 -0.619011 36.1064 -0.252273 36.1064 8.7328C36.1981 13.9588 35.9231 18.4514 35.5566 18.8181C35.2816 19.1848 33.2656 17.8096 31.1578 15.7008C28.9584 13.5921 26.8507 12.2168 26.0259 12.5835C25.2928 12.8586 24.1931 12.6752 23.5516 12.1251C22.177 10.9332 8.70586 4.14858 5.31516 2.865C2.38266 1.76478 -1.05195e-07 2.40657 -1.85348e-07 4.24026C-2.25424e-07 5.15711 1.19133 5.52385 3.75727 5.52385C6.68977 5.52385 8.06438 6.07395 10.2638 8.27438C12.0049 10.0164 13.9294 11.0249 15.5789 11.0249C17.1368 11.0249 19.1529 11.9418 20.3442 13.1337C21.5355 14.3256 24.1931 16.4343 26.3925 17.8096C28.5002 19.2765 30.2414 20.8351 30.2414 21.2019C30.2414 21.6603 30.7913 22.027 31.4327 22.027C31.9826 22.1187 34.7318 24.1358 37.481 26.6113C40.2302 29.1784 43.0711 31.1955 43.8959 31.1955C44.7206 31.2872 46.5534 32.204 48.0197 33.3959L50.6773 35.5963L48.6612 38.0718C47.6531 39.4471 46.7367 41.0057 46.7367 41.4641C46.7367 41.9226 45.5454 44.8565 44.0791 47.9737C42.6129 51.091 40.5968 55.5836 39.5888 57.9674C38.2141 61.0846 37.1145 62.2765 35.6482 62.5516C33.3572 62.8266 30.608 67.1358 31.616 68.8778C32.3491 69.978 34.8234 68.236 34.8234 66.494C34.8234 65.8522 35.9231 64.9354 37.3894 64.3853C38.9473 63.8352 40.5052 62.0932 41.7881 59.526C51.9602 38.3469 52.4184 37.5217 57.0921 35.5963L61.4909 33.671L66.0729 35.8714C71.4797 38.3469 74.7788 41.9226 78.9942 49.5324C81.8351 54.6667 83.393 56.317 83.393 54.1166C83.393 53.5665 81.7434 49.8991 79.7274 45.865C77.7113 41.8309 76.0617 38.3469 76.0617 38.1635C76.0617 37.8885 77.4363 37.43 79.1775 37.155C80.827 36.7882 85.0425 34.6795 88.5249 32.4791C95.3063 28.0782 95.3063 28.0782 105.295 28.3533C110.519 28.445 112.443 28.1699 113.726 26.978C115.65 25.3277 116.2 26.4279 114.368 28.2616C112.535 30.0953 114.184 30.3703 116.475 28.5366C118.583 26.8863 118.95 26.8863 122.34 28.1699C124.356 28.9034 127.289 29.7285 128.755 30.0036C130.313 30.2787 132.512 31.2872 133.704 32.2957C135.353 33.4876 136.728 33.8543 138.927 33.3959C141.402 32.9375 142.776 33.4876 146.9 36.1465C149.649 37.9801 152.582 39.4471 153.406 39.4471C156.247 39.4471 158.355 41.1891 158.997 44.0313C159.363 45.4983 160.005 46.9652 160.463 47.332C160.921 47.607 161.929 49.349 162.754 51.1827C164.495 55.4002 168.71 59.9844 169.627 58.6091C169.993 57.8757 171.093 58.059 173.018 59.0676C174.575 59.8927 176.5 60.5345 177.141 60.5345C179.432 60.5345 183.648 65.3021 186.489 70.9866C189.146 76.3042 192.812 79.8799 196.844 81.1635C198.127 81.5303 199.777 83.5473 201.243 86.4812C202.617 89.1401 204.175 91.8906 204.817 92.6241C205.55 93.3576 206.65 95.833 207.474 98.1251C209.032 102.709 209.124 102.526 202.159 109.861C197.211 114.995 195.195 115.82 195.195 112.611L195.103 110.503L193.453 112.52C191.712 114.628 188.78 125.722 188.78 130.306C188.78 132.874 188.596 132.965 184.748 132.965C182.457 132.965 180.074 132.415 179.432 131.865C177.874 130.398 172.284 128.381 169.718 128.381C168.619 128.381 167.702 128.931 167.702 129.573C167.702 131.04 162.387 134.432 158.263 135.532C156.431 136.082 153.773 137.366 152.49 138.375C151.115 139.475 149.191 140.3 148.091 140.3C146.992 140.3 145.25 140.85 144.242 141.584C141.676 143.417 139.202 143.601 135.995 142.317C133.704 141.309 132.971 140.392 132.237 136.816L131.321 132.507L131.138 136.358C131.046 140.942 131.688 143.051 133.429 143.051C134.07 143.051 135.078 143.876 135.72 144.976C136.453 146.351 137.003 146.626 137.736 145.893C138.286 145.343 139.569 144.884 140.668 144.884C141.676 144.884 143.326 144.242 144.242 143.509C145.25 142.775 147.175 142.134 148.458 142.134C149.832 142.134 151.849 141.309 152.948 140.392C154.14 139.383 157.347 138.1 160.096 137.458C163.945 136.724 165.87 135.716 167.519 133.699C170.177 130.49 173.018 130.673 178.608 134.065C180.349 135.257 182.823 135.991 184.014 135.807C185.572 135.624 187.497 137.091 192.079 142.042C195.378 145.618 198.677 148.552 199.227 148.552C199.868 148.552 201.151 149.377 202.068 150.385C203.534 152.036 203.625 152.861 202.709 159.737C202.068 163.955 201.884 168.264 202.159 169.456C202.617 171.106 202.159 171.656 199.593 172.756C197.944 173.49 195.836 174.865 195.011 175.782C193.637 177.249 193.637 177.616 194.828 179.266C196.203 181.008 196.203 181.008 195.653 178.716C194.92 175.782 195.469 175.415 200.601 174.773C205.092 174.315 206.558 172.848 205.183 170.372C203.9 167.989 205.275 156.803 207.108 154.969C207.933 154.144 208.391 152.952 208.208 152.402C207.658 150.569 214.347 151.119 217.188 153.136C218.655 154.144 221.679 155.245 223.97 155.52C226.352 155.886 228.46 156.528 228.735 156.895C229.01 157.353 229.926 157.72 230.843 157.72C231.759 157.72 233.592 158.545 234.967 159.645C236.25 160.654 237.807 161.387 238.357 161.204C238.907 161.021 236.616 159.37 233.317 157.537ZM56.1757 33.3959C54.5262 33.8543 53.3348 33.5793 52.3268 32.6624C51.0438 31.2872 51.3188 31.1955 54.8011 31.1955C59.1082 31.1955 59.933 32.4791 56.1757 33.3959Z" fill="black"/>
</svg>
