<svg width="126" height="266" viewBox="0 0 126 266" fill="none" xmlns="http://www.w3.org/2000/svg">
<path d="M115.783 107.271C109.734 107.271 105.336 107.638 105.977 108.004C106.802 108.554 106.527 109.104 104.786 110.021C103.503 110.663 102.22 110.938 101.853 110.663C101.578 110.296 101.762 110.021 102.311 110.021C102.861 110.021 104.053 108.554 104.877 106.812C105.794 104.887 107.901 102.687 109.918 101.495C113.308 99.5693 114.5 98.1024 112.667 98.1024C111.201 98.1024 105.61 102.32 101.67 106.446C99.5622 108.646 97.3628 110.48 96.7213 110.571C96.0798 110.571 94.8885 110.938 93.9721 111.397C91.4061 112.497 83.8 111.305 79.6761 109.196C77.66 108.096 75.1857 107.271 74.2693 107.271C72.6198 107.271 72.5282 106.446 72.6198 95.1685C72.7114 86.0917 73.078 82.241 74.0861 80.2239C74.9108 78.7569 75.644 75.6397 75.7356 73.4392C75.9189 71.2388 76.5604 68.3049 77.2018 67.0213C78.6681 64.0874 79.7678 59.5032 80.0427 54.5523C80.3176 51.3433 81.9672 46.484 86.4575 36.2154C87.099 34.7484 88.2904 30.9893 89.2068 27.9638C90.1232 24.9382 91.4061 22.0043 92.1393 21.3625C93.0557 20.7207 93.1473 20.1706 92.4142 19.7122C91.956 19.4371 91.6811 18.7953 91.8643 18.4286C92.1393 18.1535 92.5058 13.8444 92.8724 8.8934C93.3306 2.75054 93.1473 4.0716e-06 92.5058 4.04356e-06C91.956 4.01952e-06 91.4061 1.92538 91.3145 4.40086C91.0396 13.0192 89.39 22.5544 87.5572 26.3134C86.8241 27.6887 85.5411 31.4478 84.6247 34.6567C82.517 41.5331 78.2099 47.4009 76.2854 45.7505C75.2774 44.9254 75.0025 45.0171 75.0025 46.209C75.0025 47.0341 75.369 48.4094 75.8272 49.3262C77.935 53.5437 78.3015 56.4776 77.0186 60.9702C76.2854 63.5373 75.369 66.0128 74.9108 66.5629C74.4526 67.113 73.8111 69.5885 73.5362 72.064C73.2613 74.5395 72.4365 78.7569 71.6118 81.4158C70.6037 85.0832 70.3288 88.5672 70.787 95.6269C71.0619 100.761 71.3368 105.712 71.3368 106.629C71.3368 107.454 71.7034 108.188 72.1616 108.188C73.4446 108.188 82.3337 113.872 82.3337 114.606C82.3337 115.889 76.0105 120.107 74.1777 120.107C73.1697 120.107 72.07 120.657 71.6118 121.299C71.1536 121.94 70.6037 120.198 70.2371 116.898C68.5876 103.053 68.0378 100.394 67.3047 102.045C66.8464 102.962 66.8464 105.804 67.213 108.463C68.4043 117.356 68.3127 126.891 67.0297 131.109C65.7468 135.143 62.4477 138.26 57.774 139.727C56.766 140.094 55.6663 141.286 55.2997 142.386L54.5666 144.403L54.2 142.294C53.7418 139.91 52.0923 140.461 52.0923 143.028C52.0923 144.678 50.3511 145.778 47.6936 145.778C45.5858 145.778 45.5858 151.188 47.6936 153.48C48.61 154.488 49.3431 155.864 49.3431 156.505C49.3431 157.239 49.7096 157.606 50.0762 157.331C50.9926 156.78 51.1759 161.365 51.4508 181.444C51.6341 193.271 51.4508 195.655 50.2595 196.021C49.5264 196.296 46.1357 199.139 42.8366 202.348C39.5375 205.465 36.4218 208.124 35.8719 208.124C35.3221 208.124 33.3976 209.407 31.4732 210.874C29.5487 212.433 27.6243 213.625 27.2577 213.625C25.6082 213.625 26.5246 211.608 29.3654 208.949C32.6645 206.015 32.5728 205.832 28.449 207.299C26.7995 207.849 25.7914 208.674 26.0664 209.132C26.3413 209.591 26.158 209.957 25.6998 209.957C24.6001 209.957 22.4007 216.834 23.1339 218.026C23.4088 218.484 22.8589 219.126 21.8509 219.401C20.6596 219.676 19.9264 219.309 19.5599 218.117C19.1017 216.834 18.0936 216.375 15.8943 216.375C13.3283 216.375 12.3203 215.734 10.0293 212.525L7.09675 208.582L7.46332 213.992L7.73824 219.401L12.3203 219.768C14.7946 219.951 17.1772 220.501 17.6354 220.96C18.0936 221.418 17.3605 224.535 15.8943 228.203C14.6113 231.778 13.6949 235.079 13.9698 235.537C14.2447 235.996 13.9698 236.821 13.2367 237.371C12.5952 237.921 11.7704 239.755 11.4039 241.405C10.6707 245.164 8.74628 249.382 7.92152 249.382C7.09675 249.382 2.60636 258.367 2.60636 260.017C2.60636 260.659 2.14816 261.301 1.50667 261.484C0.95683 261.667 0.315345 262.859 0.132064 264.051C-0.142858 266.16 -0.142858 266.16 1.68995 264.51C2.698 263.593 3.70605 262.126 4.07261 261.117C4.34753 260.2 5.53886 258.367 6.82183 257.175C8.01316 255.983 9.02121 254.516 9.02121 254.058C9.02121 253.507 10.0293 251.674 11.2206 249.84C12.4119 248.098 13.6949 244.981 14.0614 242.964C14.428 240.947 15.0695 239.113 15.5277 238.746C15.9859 238.471 16.3525 237.279 16.3525 236.087C16.3525 234.896 17.1772 231.595 18.2769 228.844C19.7432 224.902 21.576 222.426 26.6162 217.751C30.1902 214.45 34.0391 211.516 35.2304 211.241C36.4218 210.874 37.4298 210.324 37.4298 209.866C37.4298 209.407 38.0713 209.041 38.8044 209.041C40.5456 209.041 42.745 207.023 45.6775 202.714C47.7852 199.597 47.8768 199.597 48.61 201.706L49.4347 203.906L51.4508 201.889C53.1003 200.239 53.4669 198.589 53.7418 192.721C53.9251 188.87 54.475 185.203 54.9332 184.561C55.483 183.919 55.483 183.461 54.8415 183.186C54.2 183.002 53.7418 179.06 53.5586 172.733C53.4669 167.232 53.0087 162.19 52.6421 161.548C52.2756 160.906 52.9171 159.623 54.1084 158.431C55.2997 157.239 57.0409 155.13 57.9573 153.571C58.8737 152.105 60.5232 149.904 61.6229 148.712C62.631 147.52 64.1889 144.861 65.0136 142.753C65.8384 140.644 67.3963 138.535 68.496 137.985C69.504 137.527 70.4204 136.61 70.4204 135.968C70.4204 135.326 71.2452 134.776 72.2532 134.776C73.2613 134.776 74.0861 134.226 74.0861 133.676C74.0861 131.2 79.7678 121.39 82.6086 119.098C84.808 117.264 86.5492 116.623 89.4817 116.623C91.6811 116.623 93.9721 116.073 94.7052 115.522C95.53 114.881 97.2711 114.606 98.829 114.972C100.387 115.247 101.578 115.156 101.578 114.789C101.578 113.964 106.985 111.855 109.276 111.855C110.559 111.855 110.651 111.488 109.826 110.021C108.909 108.279 109.093 108.188 113.858 108.188C116.607 108.188 119.998 108.646 121.373 109.105C123.389 109.93 124.213 109.838 125.313 108.646C126.596 107.454 125.588 107.271 115.783 107.271ZM72.2532 130.009C71.2452 131.567 70.2371 132.942 70.0539 132.942C69.8706 132.942 69.8706 131.2 70.1455 129.092C70.6954 125.241 71.8867 123.407 73.3529 124.324C74.5443 125.058 74.1777 126.8 72.2532 130.009ZM62.9975 142.386C61.5313 145.045 61.7146 144.953 59.9734 144.311C57.774 143.486 58.1406 142.386 61.2564 140.827C64.2805 139.36 64.4638 139.544 62.9975 142.386ZM55.483 152.563C54.475 153.847 53.8335 154.03 52.4589 153.296C51.5425 152.746 49.9846 152.105 49.1598 151.829C48.2434 151.554 47.5103 150.729 47.5103 149.996C47.5103 148.62 50.1678 147.612 54.1084 147.612C55.483 147.612 56.8576 147.245 57.1325 146.695C57.4075 146.237 58.5071 145.778 59.5152 145.778C61.2564 145.778 61.2564 145.962 59.057 148.345C57.774 149.721 56.1245 151.554 55.483 152.563ZM50.2595 200.789C49.8013 200.789 49.3431 200.422 49.3431 199.872C49.3431 199.414 49.8013 198.955 50.2595 198.955C50.8093 198.955 51.1759 199.414 51.1759 199.872C51.1759 200.422 50.8093 200.789 50.2595 200.789Z" fill="black"/>
</svg>
