<svg width="123" height="126" viewBox="0 0 123 126" fill="none" xmlns="http://www.w3.org/2000/svg">
<path d="M121.865 113.23C121.59 112.222 121.04 111.03 120.582 110.571C120.124 110.021 119.757 108.738 119.757 107.638C119.757 106.537 119.208 105.162 118.474 104.612C117.833 104.062 117.008 102.045 116.733 100.119C116.367 98.1023 115.359 96.2686 114.259 95.5352C112.06 94.1599 111.876 91.6844 113.892 87.9254C114.626 86.3667 115.175 83.6162 114.992 81.7825C114.717 78.3902 114.626 78.3902 110.318 78.1151C106.286 77.8401 105.37 77.29 100.33 72.339C97.2138 69.4051 94.2813 66.9296 93.8231 66.9296C93.3649 66.9296 90.2491 69.2217 87.0417 71.9723C83.7427 74.7228 80.8102 77.0149 80.352 77.0149C79.5272 77.0149 78.1526 68.855 78.8857 68.0298C79.1606 67.7548 80.5352 68.0298 81.9098 68.6716C83.7427 69.4968 84.4758 69.4968 85.0256 68.6716C86.0337 66.9296 85.0256 65.2793 82.0931 64.2708C79.6188 63.4456 79.3439 63.5373 77.1445 67.2964C75.8616 69.4051 74.8535 71.5138 74.8535 71.7889C74.8535 72.0639 75.8616 73.8976 77.1445 75.7313C78.4275 77.6567 79.2523 79.7654 79.069 80.4072C78.7941 81.049 78.9773 81.5991 79.4355 81.5991C79.8937 81.5991 80.352 81.049 80.5352 80.4072C80.9018 78.6652 89.8826 70.872 92.2652 70.1386C93.6398 69.6801 95.1977 70.2303 97.3971 71.9723C101.154 74.9062 102.162 76.9232 100.421 77.9317C98.4968 79.2153 101.888 80.1322 108.119 80.2239L113.526 80.2239L113.068 83.4328C112.793 85.1748 112.06 88.2921 111.418 90.3092C110.41 93.8848 110.41 94.1599 112.793 96.6354C114.076 98.1023 115.175 99.8443 115.175 100.578C115.175 101.311 116 103.42 116.917 105.254C120.399 111.947 120.857 113.505 120.307 116.256C119.941 117.723 118.749 119.373 117.65 120.015C115.817 120.932 115.817 121.023 117.466 120.748C118.474 120.657 119.666 119.648 120.216 118.456C120.674 117.356 121.407 116.439 121.774 116.439C122.507 116.439 122.598 116.164 121.865 113.23Z" fill="black"/>
<path d="M62.482 82.974C59.2746 79.8567 56.5254 78.7565 56.5254 80.6819C56.5254 81.232 57.5334 82.0571 58.7248 82.5155C59.9161 82.8823 61.6573 84.3492 62.757 85.6328C63.765 86.9164 64.8647 88.0166 65.1396 88.0166C66.5142 88.0166 65.4145 85.9996 62.482 82.974Z" fill="black"/>
<path d="M58.7236 47.3088C57.8072 46.9421 57.4407 47.2171 57.6239 47.8589C58.0821 49.2342 60.1899 49.9676 60.1899 48.7757C60.1899 48.3173 59.5484 47.5838 58.7236 47.3088Z" fill="black"/>
<path d="M56.6169 1.72102e-07C56.0671 1.48068e-07 55.6089 0.550107 55.6089 1.28358C55.6089 2.01706 54.8758 3.20896 53.8677 3.85075C52.6764 4.67591 52.4015 5.59275 52.9513 6.87633C53.3179 7.88486 53.6844 8.15992 53.6844 7.60981C53.7761 6.96802 54.2343 6.41791 54.7841 6.41791C55.5172 6.41791 55.7005 7.88486 55.334 11.0021C54.9674 13.661 55.1507 15.5864 55.6089 15.5864C56.1587 15.5864 56.5253 13.0192 56.5253 9.90192C56.5253 6.69296 56.8002 3.20896 57.0751 2.10874C57.4417 0.82516 57.2584 2.00143e-07 56.6169 1.72102e-07Z" fill="black"/>
<path d="M54.7843 51.3428C54.3261 51.3428 53.593 51.8012 53.3181 52.2596C53.0432 52.8097 53.1348 53.1765 53.6847 53.1765C54.1429 53.1765 54.876 52.8097 55.1509 52.2596C55.4258 51.8012 55.3342 51.3428 54.7843 51.3428Z" fill="black"/>
<path d="M51.9435 37.5908C51.4853 37.5908 51.0271 38.2326 51.0271 38.9661C51.0271 39.6996 50.6606 40.3414 50.2024 40.3414C49.7442 40.3414 49.5609 41.0748 49.7442 41.9917C50.3857 44.4672 44.2457 50.4266 40.9467 50.4266C39.3888 50.4266 37.8309 51.1601 37.0978 52.1686C36.4563 53.0855 34.0736 54.7358 31.7826 55.9277C27.8421 57.9448 27.7504 58.0365 29.8582 58.8616C31.1411 59.32 32.3324 59.32 32.6074 58.9533C33.2489 58.0365 37.0978 55.9277 43.0544 52.9938C45.4371 51.8936 47.3615 50.61 47.3615 50.2433C47.3615 49.7849 47.9114 49.5098 48.5528 49.5098C51.0271 49.5098 52.86 46.2092 52.86 41.9C52.86 39.5162 52.4934 37.5908 51.9435 37.5908Z" fill="black"/>
<path d="M47.0855 79.3065C45.4359 77.7479 43.0533 75.9142 41.6787 75.2724C40.3041 74.5389 38.288 72.2468 37.2799 70.2298L35.3555 66.4707L35.6304 70.1381C35.9053 73.4387 36.3635 73.9888 40.1208 76.0976C42.4118 77.3812 45.161 79.3065 46.2607 80.4984C47.3604 81.5986 48.735 82.5155 49.1932 82.5155C50.4762 82.5155 50.3845 82.4238 47.0855 79.3065Z" fill="black"/>
<path d="M47.3617 87.5581C46.9035 87.8332 46.4453 88.475 46.4453 89.0251C46.4453 89.4835 46.9035 89.8502 47.3617 89.8502C47.9116 89.8502 48.2781 89.2084 48.2781 88.3833C48.2781 87.6498 47.9116 87.2831 47.3617 87.5581Z" fill="black"/>
<path d="M35.4477 116.898C34.9895 117.173 34.5312 118.09 34.5312 118.823C34.5312 119.557 34.9895 120.107 35.4477 120.107C35.9975 120.107 36.3641 119.282 36.3641 118.181C36.3641 117.173 35.9975 116.623 35.4477 116.898Z" fill="black"/>
<path d="M23.5341 54.5522C23.0759 54.2771 21.9762 54.3688 21.1514 54.8272C19.8684 55.5607 20.0517 55.7441 22.0678 56.1108C24.4505 56.5692 25.2752 55.6524 23.5341 54.5522Z" fill="black"/>
<path d="M21.7016 111.397C21.2434 111.122 20.7852 111.305 20.7852 111.764C20.7852 112.314 21.2434 112.772 21.7016 112.772C22.2514 112.772 22.618 112.589 22.618 112.405C22.618 112.13 22.2514 111.672 21.7016 111.397Z" fill="black"/>
<path d="M18.9516 109.563C18.4934 109.838 18.0352 110.296 18.0352 110.571C18.0352 110.755 18.4934 110.938 18.9516 110.938C19.5014 110.938 19.868 110.48 19.868 109.93C19.868 109.471 19.5014 109.288 18.9516 109.563Z" fill="black"/>
<path d="M14.0039 55.0107C11.7129 55.0107 9.6968 55.2858 9.51352 55.7442C8.96367 56.4777 11.9878 60.5118 12.9959 60.5118C13.729 60.5118 18.0361 56.111 18.0361 55.3775C18.0361 55.1941 16.2033 55.0107 14.0039 55.0107Z" fill="black"/>
<path d="M8.41335 89.7588C6.48889 87.65 6.03069 83.891 7.49694 81.9656C8.23006 81.0487 8.87155 79.6735 8.87155 79.1234C8.87155 77.0146 7.49694 77.9315 6.03069 81.0487C4.74772 83.5242 4.65608 84.8078 5.38921 88.2001C6.21397 91.5925 6.03069 93.1511 4.56444 97.2769C2.73163 102.136 2.73163 104.52 4.38116 104.52C4.83936 104.52 5.20592 103.786 5.20592 102.961C5.20592 101.219 7.22202 95.1682 8.04678 94.4347C9.32975 93.3345 9.51303 90.859 8.41335 89.7588Z" fill="black"/>
<path d="M3.4648 107.271C2.91495 107.271 2.45675 108.187 2.45675 109.379C2.45675 110.571 2.09019 111.855 1.63198 112.405C1.17378 112.863 0.623937 116.347 0.349015 120.106C-0.200829 126.799 -0.200829 126.891 1.08214 123.407C1.81526 121.39 2.18183 119.465 1.90691 119.006C1.63198 118.639 1.72362 117.814 2.09019 117.172C2.45675 116.622 2.82331 115.064 2.91495 113.78C2.91495 112.497 3.28152 110.479 3.73972 109.379C4.10628 108.004 4.01464 107.271 3.4648 107.271Z" fill="black"/>
</svg>
