<svg width="255" height="104" viewBox="0 0 255 104" fill="none" xmlns="http://www.w3.org/2000/svg">
<path d="M252.47 75.9147C250.912 75.9147 249.079 75.823 248.438 75.9147C247.705 75.9147 246.605 75.3646 246.055 74.6312C245.505 73.8977 242.756 72.8891 239.824 72.5224C236.983 72.1557 234.325 71.6056 234.05 71.2388C233.775 70.9638 234.142 69.7719 234.967 68.58C235.791 67.4798 236.433 65.8294 236.433 65.0043C236.433 64.1791 236.983 62.9872 237.716 62.4371C238.724 61.5203 239.09 61.7036 239.365 62.9872C239.549 64.1791 240.557 63.1706 242.756 59.5949C244.406 56.8444 246.33 54.2772 247.063 53.8188C250.179 51.9851 253.753 48.3177 253.295 47.4926C252.745 46.5757 243.306 55.8358 241.473 59.0448C240.557 60.6951 240.373 60.6951 236.433 58.6781C233.317 57.1194 232.034 56.8444 230.751 57.6695C229.56 58.403 228.46 58.2196 226.169 56.936C224.52 55.9275 220.762 54.8273 217.738 54.4606C213.523 54.0021 212.24 53.452 211.873 52.0768C211.598 50.9766 210.957 50.5181 210.132 50.7932C208.299 51.5267 204.634 49.5096 206.191 48.5928C207.566 47.7676 203.259 44.3753 196.386 40.8913C193.728 39.516 191.529 38.0491 191.529 37.5906C191.529 37.0405 190.613 36.307 189.604 35.8486C187.772 35.2068 188.047 34.9318 191.804 33.1898C194.186 32.0896 196.936 31.1727 197.944 31.1727C201.151 31.1727 211.507 26.5885 211.323 25.2132C210.957 22.6461 209.857 22.7378 205.275 26.0384C200.418 29.5224 195.653 30.7143 198.035 27.7804C198.769 26.9552 200.693 25.7633 202.434 25.0299C204.542 24.113 205.183 23.3795 204.542 22.7378C203.625 21.8209 196.844 25.7633 194.37 28.7889C193.545 29.7975 191.529 30.2559 187.955 30.2559C183.281 30.2559 182.365 30.6226 180.074 33.0064C178.608 34.565 177.966 35.7569 178.516 35.7569C179.157 35.7569 179.616 35.4819 179.616 35.0235C179.616 34.0149 182.548 32.3646 185.847 31.6311C189.696 30.806 189.513 31.9979 185.389 34.6567C180.624 37.6823 169.718 39.6994 161.013 39.0576C152.765 38.5075 152.123 38.2324 152.123 35.2068C152.123 32.1812 149.008 32.548 148.641 35.5736C148.458 36.6738 147.908 37.5906 147.358 37.5906C146.808 37.5906 144.884 38.6908 143.051 40.0661C137.644 44.2836 133.795 46.7591 132.787 46.7591C132.237 46.7591 130.313 47.951 128.48 49.4179C126.647 50.8849 122.89 53.177 120.324 54.6439C116.109 56.936 115.284 57.1194 113.543 56.1109C112.535 55.4691 108.594 54.0938 104.837 53.177C100.988 52.1685 96.8641 50.5181 95.5812 49.5096C94.2982 48.5011 92.6487 47.6759 91.9155 47.6759C91.1824 47.6759 90.9075 47.2175 91.2741 46.6674C91.549 46.1173 92.832 45.9339 94.0233 46.209C95.3063 46.5757 96.2227 46.3923 96.2227 45.8422C96.2227 45.3838 95.6728 44.9254 95.123 44.9254C93.1069 44.8337 104.745 34.7484 108.961 32.823C112.718 31.081 113.085 31.081 114.184 32.4563C115.101 33.8316 115.284 33.8316 115.834 32.548C116.109 31.8145 116.109 30.6226 115.834 29.8891C115.559 29.1557 115.742 28.3305 116.292 27.9638C116.842 27.6887 117.3 26.2218 117.3 24.8465C117.3 22.9211 118.766 21.0874 123.806 16.4115C127.472 13.2026 131.046 10.5437 131.779 10.5437C132.512 10.5437 133.337 9.99361 133.612 9.26013C133.887 8.34329 133.612 8.15992 132.512 8.52666C130.038 9.53519 130.863 8.15992 135.353 3.94244C138.011 1.55864 139.11 6.08071e-06 138.286 6.04466e-06C136.911 5.98457e-06 131.963 4.30918 126.189 10.5437C124.815 12.1024 121.79 15.1279 119.591 17.42C117.3 19.7122 115.192 22.4627 114.917 23.6546C114.551 24.8465 113.634 26.1301 112.718 26.4051C111.802 26.7719 107.22 30.3476 102.546 34.3817C94.848 40.983 89.8078 44.1002 89.8078 42.2665C89.8078 41.8998 87.975 41.9915 85.684 42.5416C83.393 43.0917 81.5602 43.9169 81.5602 44.2836C81.5602 44.742 80.9187 44.6503 80.1855 44.0085C79.1775 43.1834 79.0859 42.5416 79.819 41.6247C80.4605 40.7996 80.3688 39.6994 79.2691 37.4989C77.9862 35.0235 77.8945 34.1983 78.9026 32.1812C79.5441 30.8977 79.9106 29.4307 79.819 28.9723C79.7273 28.5139 80.1855 27.7804 80.827 27.4137C81.8351 26.7719 81.8351 26.5885 80.827 26.5885C80.1855 26.5885 78.7193 27.597 77.528 28.8806C76.3366 30.1642 74.6871 31.1727 73.8623 31.1727C73.0376 31.1727 72.3961 31.6311 72.3961 32.0896C72.3961 32.6397 72.7627 33.0064 73.2209 33.0064C73.6791 33.0064 74.3206 34.3817 74.5955 35.9403C75.9701 42.6333 76.1534 42.3582 69.4636 43.6418C66.0729 44.2836 62.7738 45.1088 62.1323 45.4755C60.6661 46.3923 56.4506 46.8508 37.1145 48.0426C29.7832 48.4094 27.6755 49.1429 25.3845 51.8017C23.9182 53.5437 23.8266 53.5437 24.468 51.8934C25.0179 50.1514 24.9262 50.1514 22.9102 51.6183C21.6272 52.4435 19.3362 53.177 17.7783 53.177C16.2204 53.177 13.3795 53.8188 11.6384 54.5522C7.33125 56.3859 6.41484 56.2943 6.41484 54.1855C6.41484 53.2687 5.77336 52.2601 5.04023 51.8934C3.94054 51.5267 3.75726 51.8934 4.21547 53.5437C4.58203 55.194 4.21547 56.0192 2.84086 56.7527C1.19133 57.6695 1.00804 57.4861 0.641482 54.3689C0.36656 51.435 0.27492 51.6183 0.183279 55.5608L-2.63303e-06 60.2367L7.60617 58.4947C11.73 57.4861 16.4037 56.5693 17.8699 56.3859C19.4278 56.2942 21.2606 56.0192 21.9937 55.8358C23.5516 55.3774 23.6433 57.5778 22.5436 63.9957C21.9937 67.2047 22.0854 67.8465 23.2767 67.8465C24.1015 67.8465 24.743 67.113 24.743 66.1962C24.743 65.2793 25.0179 64.1791 25.4761 63.8124C26.1176 63.1706 26.3925 61.1535 26.8507 55.2857C26.9423 53.7271 27.4005 52.0768 27.7671 51.6183C28.2253 51.2516 33.9987 50.7932 40.5968 50.7932C51.3187 50.6098 57.9169 49.693 64.1484 47.3092C66.7144 46.3923 71.0215 45.6589 73.7707 45.7505C78.4444 45.9339 86.1422 47.7676 86.1422 48.6844C86.1422 49.2346 85.1341 50.9766 83.8512 52.6269C82.5682 54.2772 81.5602 55.9275 81.5602 56.2943C81.5602 56.661 80.5521 58.3113 79.2691 59.9616C77.9862 61.612 76.9781 63.4456 76.9781 63.9957C76.9781 65.6461 78.8109 65.2793 79.4524 63.5373C80.4605 60.7868 85.7756 52.8102 87.7917 50.9766C89.7162 49.3262 89.8078 49.3262 93.6567 51.3433C95.8561 52.4435 97.8722 53.8188 98.1471 54.2772C98.422 54.7356 101.263 55.3774 104.379 55.6525C108.411 56.0192 109.785 56.4776 109.144 57.1194C108.594 57.6695 108.136 58.8614 108.136 59.7783C108.136 60.6951 106.67 62.8955 104.929 64.7292C101.446 68.1215 99.9799 71.9723 101.538 73.5309C102.912 74.9062 104.379 73.6226 104.012 71.4222C103.554 69.2218 106.12 64.8209 107.311 65.6461C107.861 65.9211 109.052 65.096 109.969 63.9041C111.893 61.5203 123.257 54.7356 125.364 54.7356C126.098 54.7356 127.747 53.6354 129.213 52.3518C133.612 48.3177 137.094 45.9339 139.569 45.2921C140.943 45.0171 142.868 43.5501 143.876 42.1749C145.25 40.2495 146.442 39.6077 148.275 39.6994C149.649 39.7911 151.024 40.1578 151.299 40.6162C152.857 42.725 177.783 40.7996 184.564 38.0491C185.756 37.4989 186.672 37.774 187.313 38.6908C188.321 40.0661 197.76 44.9254 199.593 44.9254C200.051 44.9254 201.518 46.6674 202.801 48.8678C204.359 51.435 206.191 53.177 208.391 54.0938C210.224 54.7356 211.69 55.8358 211.69 56.4776C211.69 57.2111 213.339 57.3945 217.097 57.1194C221.404 56.7527 223.328 57.1194 226.444 58.7697C229.01 60.0533 230.476 60.4201 230.751 59.6866C231.209 58.403 231.942 58.403 234.967 59.5949L237.258 60.4201L235.7 63.9041C231.484 72.8891 226.994 77.0149 218.655 79.4904C215.447 80.499 214.714 80.4073 213.889 79.3071C212.515 77.4734 211.69 77.5651 211.598 79.5821C211.598 81.8742 201.426 97.4606 199.227 98.5608C197.577 99.4776 196.294 103.603 197.76 103.603C198.402 103.512 204.542 95.7186 205.183 93.9766C205.367 93.5181 207.016 90.7676 208.757 88.0171C210.59 85.2665 212.148 82.8827 212.24 82.6994C212.24 82.6077 213.156 82.3326 214.073 82.1493C219.479 81.0491 221.77 80.2239 225.894 77.6567C228.46 76.0981 231.026 74.2644 231.668 73.4392C232.492 72.339 233.042 72.339 233.867 73.1642C234.508 73.806 236.799 74.2644 238.999 74.2644C241.198 74.2644 243.581 74.8145 244.314 75.548C246.055 77.29 252.836 78.3902 254.119 77.1066C254.853 76.3732 254.394 76.0981 252.47 75.9147ZM110.885 59.5949C110.427 59.5949 109.969 59.2282 109.969 58.6781C109.969 58.2196 110.427 57.7612 110.885 57.7612C111.435 57.7612 111.802 58.2196 111.802 58.6781C111.802 59.2282 111.435 59.5949 110.885 59.5949ZM89.3496 45.8422C88.6165 45.8422 87.975 45.4755 87.975 45.1087C87.975 44.6503 88.6165 44.2836 89.3496 44.2836C90.0827 44.2836 90.7242 44.6503 90.7242 45.1087C90.7242 45.4755 90.0827 45.8422 89.3496 45.8422Z" fill="black"/>
</svg>
