<svg width="159" height="162" viewBox="0 0 159 162" fill="none" xmlns="http://www.w3.org/2000/svg">
<path d="M155.334 1.65033C153.593 2.47549 149.377 6.05118 145.987 9.53519C142.687 13.0192 139.205 15.8614 138.38 15.8614C135.814 15.8614 133.065 17.6951 126.65 24.0213C123.26 27.322 119.777 30.3476 118.861 30.8977C118.036 31.3561 116.57 32.4563 115.653 33.4648C114.737 34.3817 113.637 34.9318 113.271 34.6567C112.813 34.3817 111.713 31.8145 110.796 28.7889C109.697 25.0299 108.872 23.4712 107.956 23.838C106.581 24.3881 107.131 30.1642 108.689 31.9062C109.147 32.3646 109.514 33.5565 109.514 34.4734C109.514 35.4819 110.155 36.7655 110.888 37.3156C112.904 38.8742 111.53 42.3582 108.231 43.8252C106.673 44.5586 104.748 45.5672 104.015 46.0256C103.282 46.484 101.999 47.1258 101.266 47.4925C96.3173 49.5096 90.1774 54.0021 83.121 60.8785C76.248 67.6631 74.2319 69.0384 69.8331 70.322C66.9923 71.1471 64.0598 72.064 63.3267 72.339C62.227 72.7975 62.0437 71.4222 62.5019 63.1706C62.7768 56.3859 62.6852 53.452 61.952 53.452C61.3106 53.452 60.944 55.9275 60.944 60.2367C60.944 67.8465 59.661 72.6141 57.4617 72.7974C56.5452 72.8891 53.6127 72.9808 50.8635 73.0725C47.8394 73.1642 44.2654 73.9894 41.8827 75.0896L38.0338 77.0149L38.0338 74.9979C38.0338 70.2303 37.0258 69.7719 34.1849 73.3476C32.627 75.2729 30.0611 79.032 28.3199 81.6908C26.5788 84.258 24.7459 86.4584 24.1961 86.4584C23.6463 86.4584 23.3713 87.0085 23.6463 87.742C23.9212 88.3838 23.3713 90.3092 22.3633 91.8678C21.4469 93.4264 20.6221 95.3518 20.6221 95.9936C20.6221 96.7271 19.6141 98.5608 18.3311 100.028C17.0481 101.586 15.7652 104.154 15.3986 105.712C15.1237 107.546 14.2073 108.921 13.1076 109.104C12.1912 109.38 11.458 110.021 11.458 110.48C11.458 110.938 10.9082 111.213 10.3584 111.122C8.70883 110.755 0.644453 114.972 0.0946095 116.439C-0.271953 117.356 0.369531 117.264 3.02711 116.164C8.98375 113.597 9.71688 113.505 11.458 115.797C13.3825 118.273 15.4902 117.448 14.7571 114.514C14.2989 112.497 20.1639 99.7527 23.0048 96.452C23.7379 95.7186 24.2877 94.5267 24.2877 93.9766C24.2877 92.7847 28.2283 85.4499 30.8859 81.6908C32.0772 79.9488 33.4518 79.1237 35.1013 79.1237C36.4759 79.1237 39.4084 78.3902 41.6995 77.6567C46.923 75.7314 59.3861 74.9979 58.8363 76.6482C58.653 77.29 57.6449 77.8401 56.5452 78.0235C54.3459 78.3902 53.796 79.7655 55.7205 80.2239C57.5533 80.6823 53.2462 93.5181 50.0388 97.4606C47.7477 100.119 47.1979 100.394 45.9149 99.3859C44.632 98.2857 44.4487 98.3774 44.4487 100.028C44.4487 101.128 44.9069 102.228 45.3651 102.503C45.9149 102.778 46.2815 104.062 46.2815 105.254C46.2815 106.446 46.7397 107.729 47.1979 108.004C48.4809 108.829 48.2976 111.213 46.7397 114.331C46.0066 115.706 45.3651 117.723 45.3651 118.64C45.3651 119.557 44.9985 120.565 44.4487 120.84C43.9905 121.115 43.5323 122.215 43.5323 123.132C43.5323 124.049 42.8908 125.424 42.1577 126.249C41.4245 126.983 40.783 128.358 40.8747 129.275C40.8747 130.742 40.9663 130.742 41.6995 129.092C43.1657 125.608 42.7075 131.659 41.2413 136.06C40.2332 138.81 39.9583 142.019 40.2332 146.053C40.5081 149.354 40.6914 154.213 40.6914 156.872C40.783 159.623 41.1496 161.548 41.6078 161.181C42.066 160.906 42.4326 155.405 42.3409 148.987C42.2493 139.819 42.5242 136.702 43.7156 134.134C44.5403 132.392 45.5484 128.725 45.8233 126.158C46.1898 123.499 46.7397 121.115 47.1979 120.84C48.1143 120.29 50.222 108.921 49.6722 107.362C49.4889 106.721 49.8555 105.162 50.497 103.878C52.2381 100.578 57.0034 88.4755 58.2864 83.983C58.9279 81.7825 59.9359 80.0405 60.6691 80.0405C61.3106 80.0405 62.0437 80.0405 62.3186 79.9488C63.235 79.8572 68.2753 74.6311 68.2753 73.7143C68.2753 73.1642 69.1 72.7058 70.1997 72.7058C71.6659 72.7058 71.9409 73.0725 71.5743 74.2644C71.2077 75.2729 71.9409 76.5565 73.8653 78.2068C75.7898 79.7655 76.8895 81.5075 76.9811 83.3412C77.4393 90.1258 77.256 89.7591 78.8139 87.742C79.547 86.8252 80.1885 85.0832 80.1885 84.0746C80.1885 82.9744 80.83 81.5992 81.5631 80.9574C82.9377 79.8572 82.5712 77.7484 81.1966 78.5736C80.83 78.8486 79.547 78.0235 78.539 76.8316C77.4393 75.548 76.1563 74.5395 75.6065 74.5395C73.4988 74.5395 74.965 72.339 80.3718 67.113C83.5792 64.1791 86.4201 61.7036 86.695 61.7036C87.0616 61.7036 88.4362 60.4201 89.8108 58.7697C92.1935 55.9275 95.9507 53.452 97.7835 53.452C98.2417 53.452 100.808 51.6183 103.465 49.3262C106.123 47.0341 108.597 45.4755 108.872 45.8422C109.788 46.7591 113.088 42.1749 113.179 39.9744C113.179 38.7825 113.546 37.8657 114.096 37.8657C114.554 37.8657 114.737 38.5075 114.462 39.2409C114.096 39.9744 114.187 40.6162 114.462 40.6162C114.829 40.6162 115.562 39.4243 116.02 37.8657C116.57 36.3987 117.395 35.1151 117.853 35.1151C118.403 35.1151 120.785 33.1898 123.26 30.8977C127.658 26.8635 127.75 26.7719 130.041 28.2388C131.232 29.064 132.974 30.7143 133.798 31.9979C134.531 33.1898 135.814 34.1983 136.639 34.1983C138.564 34.1983 134.44 28.7889 131.782 27.6887C129.033 26.6802 129.125 25.7633 132.332 22.371C133.982 20.629 135.906 19.5288 137.372 19.5288C139.572 19.5288 145.987 13.8444 155.792 3.02559L158.541 6.93006e-06L155.334 1.65033ZM60.3025 77.8401C59.661 77.1983 60.944 75.4563 62.0437 75.4563C62.5935 75.4563 62.5935 76.0064 61.8604 76.8316C61.2189 77.6567 60.4858 78.0235 60.3025 77.8401ZM35.2846 76.3731C34.8264 76.3731 34.3682 76.0064 34.3682 75.4563C34.3682 74.9979 34.8264 74.5395 35.2846 74.5395C35.8345 74.5395 36.201 74.9979 36.201 75.4563C36.201 76.0064 35.8345 76.3731 35.2846 76.3731Z" fill="black"/>
</svg>
