<?xml version="1.0" standalone="no"?>
<!DOCTYPE svg PUBLIC "-//W3C//DTD SVG 20010904//EN"
 "http://www.w3.org/TR/2001/REC-SVG-20010904/DTD/svg10.dtd">
<svg version="1.0" xmlns="http://www.w3.org/2000/svg"
 width="936.000000pt" height="1280.000000pt" viewBox="0 0 936.000000 1280.000000"
 preserveAspectRatio="xMidYMid meet">
<metadata>
Created by potrace 1.15, written by Peter Selinger 2001-2017
</metadata>
<g transform="translate(0.000000,1280.000000) scale(0.100000,-0.100000)"
fill="#000000" stroke="none">
<path d="M4656 12301 c-4 -5 -9 -126 -12 -268 -7 -291 -8 -304 -18 -321 -7
-12 13 -52 27 -52 5 0 1 -7 -7 -16 -9 -8 -16 -25 -16 -37 -1 -12 -6 -31 -13
-43 -21 -36 -610 -774 -618 -774 -4 0 -29 -9 -55 -20 l-48 -21 22 -22 c13 -12
45 -26 74 -32 l52 -10 120 -652 120 -652 51 -6 c85 -11 85 -11 85 -64 l0 -49
44 -11 c25 -6 54 -11 65 -11 21 0 21 -3 21 -345 l0 -344 -32 -5 c-18 -3 -69
-10 -112 -16 -74 -10 -81 -9 -98 10 -41 44 -88 10 -96 -70 -10 -108 61 -171
103 -90 12 24 22 28 77 34 35 4 84 9 111 13 l47 6 0 -376 c0 -366 0 -375 -20
-380 -17 -4 -19 -11 -14 -54 3 -26 10 -61 15 -77 5 -16 7 -31 4 -34 -6 -6 -96
53 -177 115 -70 53 -123 78 -214 98 -101 23 -104 25 -104 46 0 11 13 43 29 72
53 95 66 172 20 113 -11 -15 -58 -57 -102 -95 -99 -82 -209 -194 -246 -248
-38 -58 -72 -95 -108 -121 l-32 -23 -14 34 c-21 48 -68 83 -144 106 -37 11
-69 18 -71 16 -3 -2 19 -30 48 -62 69 -76 78 -95 56 -128 -15 -23 -54 -143
-60 -187 -1 -9 -8 -23 -15 -32 -10 -12 -11 -20 -2 -29 8 -10 7 -17 -1 -25 -9
-9 -8 -15 5 -25 11 -7 16 -22 15 -37 -3 -22 1 -25 33 -28 l35 -3 -7 -58 c-7
-63 -15 -84 -29 -76 -17 11 -31 -22 -20 -49 5 -15 10 -44 10 -65 0 -43 38
-152 63 -181 26 -31 54 -25 83 20 15 22 31 40 36 40 5 0 6 5 3 10 -3 6 4 10
16 10 17 0 19 3 10 14 -10 12 -8 13 11 8 21 -5 22 -4 9 11 -11 15 -11 17 1 17
12 0 17 -20 22 -92 8 -106 20 -153 45 -170 9 -7 23 -28 30 -45 18 -44 28 -41
36 9 l7 42 25 -29 24 -30 -3 45 c-2 40 0 45 17 42 11 -2 35 -15 53 -28 39 -30
43 -15 11 48 -37 72 -24 203 27 279 29 44 31 49 13 49 -14 0 -19 7 -19 28 0
39 9 48 60 62 64 17 65 19 26 54 -50 47 -41 70 43 108 71 32 71 48 -3 48 l-39
0 6 50 c3 27 13 61 23 75 l16 25 62 -43 c53 -37 126 -122 126 -148 0 -5 -14
-9 -31 -9 -24 0 -44 -13 -91 -57 -78 -76 -88 -96 -88 -188 0 -51 -7 -96 -21
-138 -33 -95 -36 -174 -10 -225 14 -28 21 -60 21 -98 0 -37 5 -63 15 -74 8 -9
30 -56 49 -106 122 -318 131 -356 130 -559 0 -173 -8 -200 -67 -229 -43 -20
-83 -70 -130 -161 -29 -55 -31 -68 -31 -155 0 -95 0 -95 48 -184 54 -99 100
-155 154 -187 88 -53 112 -98 72 -134 -32 -29 -66 -98 -109 -219 -54 -155 -70
-249 -72 -417 -1 -126 2 -149 27 -230 l27 -89 -26 -28 c-34 -36 -50 -79 -37
-100 9 -16 9 -16 10 0 0 10 13 32 29 50 27 31 30 32 36 13 17 -52 42 -102 82
-162 24 -36 43 -70 43 -76 0 -5 -11 -23 -25 -39 -17 -20 -24 -37 -19 -50 3
-11 0 -40 -6 -64 -7 -25 -10 -47 -7 -50 7 -7 117 103 117 117 0 12 14 11 27
-2 15 -15 6 -38 -23 -67 -28 -26 -31 -68 -8 -100 13 -19 13 -28 4 -58 -7 -19
-9 -38 -6 -42 12 -11 40 13 49 44 5 16 20 40 33 55 13 14 24 32 24 40 0 27 13
30 37 7 13 -12 23 -33 23 -49 0 -15 5 -31 10 -34 18 -11 12 -73 -7 -77 -16 -3
-16 -4 0 -20 14 -14 17 -38 17 -146 l0 -129 -60 -69 c-188 -218 -223 -309
-185 -472 37 -155 89 -253 197 -369 l48 -52 0 -615 0 -616 35 -14 c23 -10 53
-13 92 -9 98 10 93 0 93 188 l0 164 50 177 c54 195 70 304 70 495 0 131 -8
156 -86 275 l-34 51 0 331 0 331 79 65 c93 77 117 108 177 220 42 81 44 89 44
168 0 66 -4 92 -21 123 -12 22 -29 54 -38 70 -24 45 -49 79 -113 152 -32 36
-58 68 -58 72 0 11 14 26 48 49 l34 24 14 -21 c18 -25 46 -27 65 -5 7 9 30 23
52 31 22 9 47 29 57 45 l17 29 24 -21 c23 -20 23 -21 2 -10 -32 15 -30 -5 2
-26 30 -20 55 -12 55 17 0 13 13 34 30 48 l29 26 -19 79 c-10 43 -31 95 -45
115 -69 97 -105 155 -99 160 5 6 17 -7 54 -60 16 -21 52 -28 82 -15 12 6 22
-3 42 -36 25 -42 35 -33 16 16 -13 36 -129 174 -235 281 -49 49 -96 102 -104
117 -13 25 -12 29 14 60 15 18 60 57 99 86 95 71 132 107 172 170 41 63 94
203 123 321 25 100 26 117 6 155 -8 15 -15 49 -15 75 0 99 -48 189 -121 231
-23 12 -49 35 -58 51 -10 16 -47 61 -82 100 -50 55 -66 80 -71 112 -12 74 -8
240 7 312 8 38 15 79 15 90 1 11 7 33 13 49 l13 30 23 -37 c23 -37 114 -100
163 -112 23 -6 34 -1 64 29 36 36 37 38 29 89 -9 60 -9 88 0 138 5 24 0 60
-16 110 -24 83 -25 144 -3 198 9 20 16 61 17 91 2 72 -48 181 -126 272 -30 36
-79 103 -109 149 -30 46 -99 131 -154 188 -54 56 -100 107 -102 111 -2 4 29
36 67 71 75 67 89 102 55 130 -9 8 -25 33 -35 57 -11 25 -31 50 -49 60 -29 16
-30 20 -30 85 0 56 -3 69 -17 73 -10 3 -33 12 -50 21 l-33 16 0 324 c0 177 3
323 8 323 4 0 59 7 122 15 l115 14 18 -24 c25 -33 62 -32 83 1 25 38 30 114 9
157 -24 52 -52 57 -88 17 -27 -30 -36 -33 -130 -46 -56 -7 -110 -14 -119 -14
-17 0 -18 22 -18 329 0 371 -9 334 82 346 l47 7 3 52 3 51 63 11 c34 6 64 13
66 15 2 2 56 290 120 639 64 349 121 645 126 657 6 14 21 23 50 28 22 4 54 18
71 33 l31 25 -61 22 c-34 13 -70 33 -80 46 -10 13 -148 181 -305 373 -241 295
-286 355 -286 382 0 17 -7 37 -15 44 -14 12 -14 15 0 30 11 12 14 29 9 61 -3
24 -8 161 -10 303 -3 235 -9 298 -28 267z m134 -4611 c0 -11 -4 -20 -10 -20
-5 0 -10 9 -10 20 0 11 5 20 10 20 6 0 10 -9 10 -20z m51 -3962 c28 -109 25
-198 -8 -198 -7 0 -25 -12 -39 -27 l-25 -27 4 104 c4 90 33 237 45 225 2 -2
12 -36 23 -77z m314 -70 c14 -21 14 -24 -7 -40 -32 -25 -34 -23 -30 22 5 45
14 50 37 18z m-135 -52 c0 -17 -8 -25 -36 -34 -27 -8 -33 -8 -27 1 5 7 17 25
27 40 19 31 36 28 36 -7z m-60 -138 c0 -4 -7 -5 -15 -2 -8 4 -15 16 -15 28 1
21 1 21 15 2 8 -11 15 -23 15 -28z"/>
<path d="M3390 2750 c-29 -29 -57 -90 -96 -209 -20 -60 -42 -118 -50 -128 -14
-17 -14 -16 -4 6 9 17 9 26 1 34 -6 6 -11 19 -11 29 0 10 -8 21 -17 24 -10 3
-34 14 -54 25 -21 11 -57 19 -84 19 -38 0 -57 7 -96 35 -27 19 -53 35 -58 35
-5 0 -2 -22 7 -49 13 -43 14 -57 2 -105 -9 -38 -21 -61 -37 -71 -32 -21 -29
-49 11 -82 45 -38 59 -98 51 -222 -4 -53 -13 -130 -20 -171 -8 -41 -19 -115
-25 -165 -19 -155 -30 -202 -65 -280 -19 -42 -39 -95 -44 -118 -6 -23 -19 -85
-31 -138 -16 -73 -29 -105 -52 -133 -35 -43 -129 -90 -159 -81 -12 4 -54 38
-96 75 -79 72 -136 100 -204 100 -83 0 -139 -46 -139 -116 0 -25 5 -44 13 -47
19 -7 47 12 47 32 0 43 64 64 126 41 15 -6 62 -44 104 -84 113 -107 162 -117
294 -57 64 29 124 86 154 148 l15 32 28 -37 c37 -50 43 -82 26 -124 -12 -28
-12 -39 -2 -59 7 -13 20 -55 29 -94 17 -72 40 -106 88 -131 16 -8 47 -34 71
-58 50 -49 77 -60 106 -39 30 20 27 30 -23 79 -39 38 -45 50 -56 113 -11 67
-11 72 11 103 12 18 39 51 60 73 90 95 130 250 169 650 14 153 20 176 52 235
17 30 39 78 49 107 10 29 31 70 48 90 17 21 55 90 85 154 35 72 73 135 101
167 67 74 57 127 -20 108 -23 -6 -87 -82 -175 -210 -41 -61 -76 -86 -98 -72
-4 3 -21 36 -36 74 l-27 69 16 88 c8 48 15 100 15 116 0 38 28 107 57 142 51
63 0 134 -57 77z"/>
</g>
</svg>
