<svg width="310" height="594" viewBox="0 0 310 594" fill="none" xmlns="http://www.w3.org/2000/svg">
<path d="M156.137 1.3617C153.585 1.87225 148.154 2.70771 144.07 3.21826C123.88 5.77103 115.479 7.95249 110.188 11.9441C108.006 13.5686 105.778 16.307 105.778 17.2353C105.778 17.9779 108.656 17.0961 111.719 15.4252L114.597 13.8471L115.061 15.1003C115.618 16.5391 116.082 16.4927 120.538 14.5897C122.162 13.9399 125.272 13.058 127.5 12.6403C132.281 11.8049 141.378 11.6192 142.631 12.3618C143.466 12.826 143.466 12.8724 142.399 13.5686C141.796 13.9863 139.939 14.6361 138.268 15.0538C133.302 16.2142 130.61 17.0961 129.681 17.8387C128.8 18.4885 128.8 18.4885 129.914 18.4885C130.563 18.4885 131.492 18.3028 132.002 18.1172C133.023 17.6994 134.091 18.3028 134.091 19.2311C134.091 19.8345 129.449 21.9231 124.808 23.4084C123.416 23.8725 121.327 24.708 120.167 25.2649C117.985 26.3789 114.69 29.4422 115.154 29.9527C115.618 30.3705 120.724 30.2312 122.951 29.7207C124.112 29.4422 127.918 28.2818 131.445 27.1679C134.926 26.0076 138.871 24.94 140.125 24.7544C142.213 24.4759 142.445 24.5223 142.445 25.3113C142.445 25.8219 143.095 26.7502 143.838 27.4464C144.673 28.189 145.137 28.9316 144.952 29.3494C144.766 29.8599 145.834 29.6278 148.804 28.5139C152.703 27.0287 158.969 25.497 161.011 25.497C161.707 25.497 161.939 25.8219 161.986 26.7502C161.986 27.4928 162.171 28.4675 162.357 28.978C162.682 29.7207 162.496 29.9992 161.289 30.3705C160.036 30.7882 159.804 30.6954 159.386 29.9063C158.829 28.7924 155.905 28.2818 155.905 29.3029C155.905 29.6743 156.137 30.1848 156.416 30.4633C156.787 30.8346 156.416 30.881 154.931 30.5561C152.378 29.9527 149.593 30.3705 147.644 31.5308C145.787 32.6912 145.741 33.2481 147.551 33.6195C149.686 34.0836 149.222 34.5941 146.066 35.1975C142.167 35.9866 137.061 38.4929 134.926 40.6744C133.116 42.5309 131.492 45.6871 132.141 46.1048C133.163 46.7546 142.213 43.4592 146.391 40.9065C148.665 39.5604 149.036 38.5393 147.504 38.168C146.762 37.9824 148.154 37.2862 152.239 35.8473C163.239 31.9021 172.475 30.0456 177.534 30.8346L179.809 31.1595L178.231 31.8093C177.349 32.1806 174.842 33.4802 172.661 34.7798C170.479 36.033 166.302 37.8895 163.424 38.9107C157.762 40.9065 155.256 42.2525 154.513 43.5985C153.724 45.0837 153.956 45.5479 155.116 44.8052C156.694 43.8305 158.597 43.5056 159.665 44.109C160.593 44.5732 160.454 44.7124 158.18 45.6407C155.905 46.569 151.542 49.1682 152.285 49.1682C152.424 49.1682 153.585 48.7504 154.791 48.2399C160.732 45.6871 174.517 42.4381 184.218 41.2778C189.973 40.5816 201.252 40.4423 205.708 40.9529C208.632 41.3242 208.817 41.417 208.539 42.3453C208.028 44.109 206.45 45.455 204.919 45.455C204.13 45.455 201.577 44.8052 199.303 43.9698C195.45 42.6238 195.032 42.5774 193.779 43.1807C191.691 44.1554 191.691 44.9909 193.733 44.666C195.311 44.4339 196.239 44.8981 196.286 45.9656C196.286 46.4761 193.919 47.2188 189.788 48.0542C187.653 48.4719 185.378 48.9825 184.821 49.2146C183.058 49.8644 183.522 48.5184 185.378 47.6365C187.142 46.801 187.421 46.1977 186.26 45.7335C184.868 45.1765 183.568 45.455 181.201 46.801C179.901 47.5437 175.306 49.2146 170.944 50.5606C157.019 54.7843 150.15 58.9615 147.133 65.0418C145.926 67.4089 145.369 68.0123 143.513 68.8941C141.331 69.9152 138.547 72.3752 139.568 72.3752C141.006 72.3752 149.732 69.0334 158.458 65.181C173.264 58.5902 176.049 57.5227 185.889 54.5522C186.678 54.3201 186.91 54.4129 186.817 55.0627C186.771 55.6661 187.188 55.9446 188.349 56.0374C189.695 56.1767 194.847 55.2948 197.91 54.4129C198.746 54.1809 198.746 54.2273 198.189 54.9235C197.724 55.434 197.632 56.3623 197.817 57.9868L198.096 60.2611L195.682 61.0501C188.999 63.1852 177.998 70.1473 170.526 77.0166C164.91 82.1685 165.188 81.9365 165.513 80.6833C165.699 80.0799 167.555 77.8984 169.644 75.8562C173.45 72.0967 174.471 70.333 173.636 68.8941C173.264 68.1979 172.893 68.4764 170.944 70.7043C165.931 76.506 163.517 82.0757 163.007 89.177L162.728 93.3543L163.749 92.8438C165.142 92.0547 166.395 89.9197 167.509 86.2066C168.298 83.5145 168.948 82.5398 171.501 79.8014C173.96 77.2022 181.108 71.8182 186.353 68.5228C187.606 67.7802 187.421 69.1726 186.028 70.7043C184.682 72.2823 184.636 72.3752 185.564 72.3752C186.956 72.3752 188.999 71.2612 192.48 68.6156C194.847 66.8055 195.775 66.3413 197.214 66.3413C198.189 66.3413 199.117 66.527 199.256 66.7591C199.627 67.316 195.729 70.333 187.096 76.1811C180.366 80.7297 170.804 88.8057 171.408 89.4091C171.779 89.7804 174.982 88.1559 180.319 84.907C185.471 81.7508 189.277 79.8014 190.298 79.8014C190.948 79.8014 189.973 81.4723 188.07 83.561C185.239 86.6707 186.864 86.485 190.345 83.3289C194.104 79.8014 198.049 77.6664 201.623 77.2486C203.665 76.9702 204.176 76.7381 204.176 76.0419C204.176 74.6959 203.48 74.6495 201.855 75.8562C199.859 77.3415 199.163 76.8773 200.602 75.0208C202.737 72.1895 207.889 69.4511 207.889 71.1684C207.889 71.5397 207.379 72.2359 206.775 72.6537C205.383 73.5355 205.661 74.6959 207.239 74.6959C207.843 74.6959 211.138 73.257 214.48 71.4933C221.396 67.873 223.902 67.084 226.501 67.5017L228.265 67.8266L222.463 73.4427C216.569 79.1516 212.995 81.8436 210.442 82.4934C209.374 82.7719 208.539 83.7002 206.729 86.5779C205.476 88.6201 202.784 92.8438 200.834 95.9071C196.425 102.776 193.501 108.625 192.016 113.22C191.134 116.144 190.948 117.675 190.948 122.966C190.948 126.587 191.18 129.604 191.459 130.068C191.876 130.81 192.062 130.718 192.805 129.047C193.269 128.026 194.011 127.051 194.475 126.912C195.125 126.68 195.357 126.169 195.357 124.916C195.404 120.135 197.4 114.519 202.969 103.705C205.383 99.1097 207.657 94.3754 208.121 93.1687C208.585 91.9619 209.328 90.848 209.746 90.7087C210.86 90.3374 213.32 87.5061 215.315 84.2572C216.893 81.658 219.075 79.8014 220.607 79.8014C221.628 79.8014 221.535 80.2191 220.328 81.5187C219.585 82.3078 219.493 82.5863 220.003 82.5863C221.024 82.5863 222.649 81.3795 225.805 78.3162C228.079 76.0883 229.008 75.4849 230.539 75.2993C232.117 75.0672 232.489 75.2064 233.046 76.0419C233.927 77.4343 234.252 77.2951 235.273 74.9279C236.202 72.7465 236.851 72.3288 237.316 73.5819C237.826 74.8815 237.641 75.4385 235.366 79.1516C231.885 84.8141 231.096 87.8775 233.092 87.599C233.974 87.4597 234.113 87.1812 234.113 85.3711C234.113 82.7255 234.995 81.1474 238.29 77.9449C242.421 73.9997 244.556 71.0756 244.556 69.5439C244.556 68.8013 244.417 68.1979 244.231 68.1979C243.999 68.1979 242.236 68.7085 240.24 69.3583C235.134 70.9827 234.67 70.9363 234.067 68.5228C233.788 67.4553 233.046 65.5059 232.489 64.1599C231.421 61.8392 231.421 61.6999 232.21 60.8181C232.999 59.9362 232.999 59.8898 232.071 59.4257C231.56 59.1472 230.307 58.9151 229.286 58.9151C227.662 58.9151 227.337 58.7294 227.105 57.8012C226.455 55.202 223.948 54.088 217.404 53.6239C212.67 53.2526 209.189 52.4635 209.421 51.8138C209.746 50.8391 212.345 50.5142 217.915 50.7926C224.134 51.164 224.598 50.9783 223.67 48.704C223.252 47.6829 222.51 47.1259 220.607 46.3833C219.214 45.8728 217.822 45.455 217.497 45.455C216.801 45.455 214.851 44.1554 214.851 43.6449C214.851 43.4592 215.13 42.9487 215.455 42.5309C215.965 41.7883 216.244 41.8347 219.446 43.1807C222.834 44.6196 226.501 45.1301 227.754 44.3411C229.332 43.3664 225.526 41.6491 217.079 39.4676C211.556 38.0288 208.539 36.822 207.425 35.476C206.543 34.4085 207.193 34.0836 210.349 34.13C212.391 34.1764 214.201 34.6406 216.661 35.6617C218.611 36.4971 220.885 37.1005 221.999 37.1005H223.902L220.931 35.3368C215.547 32.227 216.893 31.4844 223.206 34.13C230.864 37.3326 232.489 37.936 232.489 37.7503C232.489 37.6111 231.7 36.8684 230.771 36.033C228.636 34.13 218.564 23.1299 218.564 22.6193C218.564 22.4337 219.632 22.8978 220.978 23.6868C223.484 25.1721 226.733 26.4717 230.029 27.3536C231.839 27.8177 232.303 28.2818 235.877 33.5266C240.657 40.3959 241.354 41.7883 243.721 48.6576C245.717 54.5058 247.852 58.8687 249.337 60.1683C250.265 61.0037 250.265 61.0037 249.987 57.4763C249.662 52.5564 247.573 46.9403 243.349 39.514C240.147 33.8979 237.316 27.8177 237.873 27.8177C238.754 27.8177 240.611 29.3494 243.674 32.4591C246.506 35.4296 247.573 36.2186 249.244 36.6364C251.008 37.1005 251.425 37.4254 251.936 38.7714C252.586 40.5351 254.303 41.974 257.923 43.8305C259.316 44.4803 261.358 45.9192 262.472 46.9403C266.696 50.8391 272.822 60.1683 276.211 67.7338C277.928 71.6325 277.974 71.9574 277.325 72.9321C276.907 73.4891 276.582 74.2317 276.582 74.5102C276.582 74.7887 277.742 76.7845 279.135 78.9195C281.316 82.2614 281.687 83.1432 281.687 84.9998C281.687 86.253 281.548 87.2277 281.316 87.2277C281.13 87.2277 279.784 84.8141 278.299 81.8436C271.708 68.6156 263.447 56.9193 256.299 50.7462C254.118 48.8897 253.793 48.7504 254.071 49.6787C255.046 52.7884 258.063 57.9404 261.358 62.0248C272.312 75.5777 273.936 78.5947 275.422 88.2488C275.607 89.3627 275.932 90.0125 276.35 90.0125C277.325 90.0125 278.438 92.4724 278.438 94.6539C278.438 95.9535 278.253 96.5105 277.789 96.5105C276.535 96.5105 273.89 92.7509 272.637 89.1306C270.316 82.5398 268.135 78.7803 261.776 70.333C258.341 65.6915 255.417 61.8392 255.371 61.7464C255.278 61.6535 255.092 61.6999 254.953 61.8392C254.628 62.1177 255.974 64.2527 258.109 66.9447C258.852 67.873 258.991 68.3371 258.62 68.7085C257.691 69.6367 255.324 68.6156 252.4 66.0629C250.869 64.624 249.476 63.5565 249.383 63.6957C249.058 64.0206 251.565 69.8688 253.839 73.9997C255.092 76.2739 257.134 79.9871 258.341 82.2149C260.337 85.9281 260.569 86.1601 261.172 85.3247C261.497 84.8605 262.101 84.4428 262.472 84.4428C262.843 84.4428 265.118 88.388 268.227 94.6539C271.012 100.27 273.101 104.865 272.822 104.865C272.544 104.865 271.662 105.608 270.827 106.489C269.805 107.557 268.831 108.114 268.042 108.114C266.835 108.114 266.417 108.717 267.299 109.274C267.578 109.414 268.645 111.131 269.666 113.034C270.734 114.937 271.987 116.701 272.451 116.979C273.333 117.443 273.379 117.304 273.287 113.962C273.194 111.641 273.333 110.249 273.704 109.878C274.679 108.903 275.05 110.156 275.422 115.494C275.793 121.249 276.443 122.92 278.346 122.966C279.181 122.966 279.042 118.65 277.974 113.127C277.464 110.481 277.046 106.954 277.046 105.236C277.046 102.405 277.185 101.941 278.438 100.595L279.784 99.0632L279.831 101.059C279.831 102.451 280.574 104.726 282.291 108.485L284.704 113.916V120.089V126.308L286.329 127.747L287.953 129.186L288.093 126.215C288.278 122.363 287.628 117.35 285.586 107.232C283.962 99.2489 283.033 90.9408 283.915 92.3332C284.147 92.7045 285.54 96.4641 286.979 100.688C288.835 106.257 289.717 109.646 290.181 113.22L290.785 118.093L292.92 118.789C294.126 119.161 295.287 119.671 295.519 119.95C295.751 120.182 296.215 122.27 296.494 124.591C296.772 126.865 297.747 131.367 298.675 134.57C300.346 140.325 300.485 141.857 300.16 149.422C300.114 150.304 300.346 152.579 300.671 154.435C301.553 159.448 300.764 163.996 297.19 175.043C293.337 186.879 292.78 189.339 292.734 194.723C292.688 199.689 292.595 199.828 288.928 200.292C286.886 200.571 286.839 200.617 286.375 202.891C286.097 204.145 285.865 206.651 285.865 208.415C285.865 211.292 285.679 211.942 284.426 213.752C281.409 218.162 279.924 223.221 277.51 237.377C275.979 246.474 274.633 251.997 273.194 255.246L272.265 257.335L271.94 255.803C271.708 254.922 270.827 253.436 269.898 252.508C268.831 251.394 268.088 250.141 267.902 249.073C267.763 248.145 267.578 247.356 267.438 247.356C267.346 247.356 266.464 247.913 265.443 248.563C262.797 250.327 260.615 253.808 257.831 260.816C256.485 264.251 255.092 267.639 254.767 268.335C253.746 270.517 253.236 269.867 253.468 266.711C253.653 264.622 254.21 262.858 255.464 260.352C257.181 256.917 258.62 253.39 258.248 253.39C258.156 253.39 256.949 254.55 255.603 255.989C252.447 259.331 248.177 262.394 244.881 263.647C242.468 264.576 242.189 264.808 241.725 266.571C240.611 270.888 239.776 272.93 238.476 274.323C237.269 275.622 236.898 275.761 235.088 275.576L233.046 275.344L232.721 277.479C232.349 279.892 231.514 281.702 230.354 282.677C229.611 283.281 229.564 283.141 229.889 280.774C230.446 276.69 231.839 273.069 235.784 265.782C237.78 262.023 239.451 258.728 239.451 258.495C239.451 258.217 240.193 258.124 241.307 258.31C243.117 258.588 243.164 258.542 243.906 256.871C244.742 254.782 244.51 253.993 242.932 253.576C238.754 252.554 235.413 256.871 231.375 268.567C228.543 276.736 227.383 278.314 225.805 276.04C225.387 275.483 224.969 275.158 224.83 275.297C224.459 275.669 223.763 280.31 223.252 285.926C222.834 290.939 221.721 294.373 221.117 292.703C220.931 292.285 220.421 291.914 220.003 291.914C218.379 291.914 218.007 291.217 218.518 289.314C218.796 288.293 219.261 283.234 219.493 277.989C220.05 267.221 220.328 265.365 222.324 260.12C224.134 255.432 224.273 252.462 222.742 250.837C222.138 250.187 221.581 249.723 221.535 249.816C221.488 249.862 220.885 253.576 220.189 258.031C218.472 269.542 217.729 273.023 216.197 277.664L214.805 281.702L215.733 282.909C216.986 284.487 217.404 287.69 216.754 290.892C216.151 293.863 214.526 297.483 213.83 297.483C213.087 297.483 213.691 254.689 214.573 244.571C214.99 240.115 215.455 235.52 215.594 234.453C215.872 232.504 215.826 232.411 214.805 232.596C213.784 232.736 213.691 232.968 213.552 235.753C213.412 239.002 212.763 240.023 211.092 239.605C210.21 239.373 210.21 239.419 211.231 241.137C213.041 244.2 212.716 247.078 209.746 253.622C206.868 260.074 206.357 263.044 207.657 265.968C208.121 266.943 208.632 267.778 208.771 267.778C208.91 267.778 209.467 267.082 209.978 266.247L210.906 264.761L211.231 283.095C211.417 293.167 211.741 302.867 211.927 304.677C212.298 307.787 212.252 308.019 210.999 309.922C209.978 311.407 209.374 311.872 208.678 311.779C206.543 311.454 205.986 307.88 207.239 302.589C208.678 296.555 208.771 295.487 208.121 293.909C207.147 291.589 206.497 292.053 206.497 295.07C206.497 297.669 205.986 298.876 204.826 298.876C204.501 298.876 204.362 298.504 204.454 298.04C204.594 297.622 204.362 296.323 203.944 295.209C203.573 294.095 203.248 292.935 203.248 292.656C203.248 292.099 205.754 290.985 207.054 290.985C207.657 290.985 207.843 289.825 208.121 283.373C208.307 279.196 208.307 274.833 208.121 273.719C207.796 271.723 206.172 268.242 205.522 268.242C204.872 268.242 204.594 270.795 204.872 275.344C205.104 279.567 205.011 280.078 204.408 278.129C204.269 277.711 203.898 277.664 203.062 277.989C202.273 278.268 201.809 278.221 201.484 277.85C201.252 277.525 200.927 270.934 200.741 263.137C200.463 250.002 200.649 245.592 201.716 239.93C201.995 238.352 201.995 238.352 200.881 239.048C199.256 240.115 196.889 243.829 196.054 246.567C195.404 248.841 195.125 251.162 193.965 265.458C193.547 270.981 192.294 276.922 191.691 276.318C191.551 276.179 191.319 270.795 191.18 264.39C190.948 252.833 190.948 252.647 189.648 249.955C188.581 247.588 188.488 247.124 188.999 246.474C190.159 245.128 190.298 243.921 189.788 239.93C189.231 236.031 189.277 235.938 190.623 232.55C192.108 228.837 192.062 227.491 190.345 226.887C188.767 226.284 188.349 227.723 188.21 234.035C188.117 237.145 187.885 240.069 187.699 240.487C187.328 241.369 185.842 241.601 185.378 240.858C184.775 239.883 183.8 240.44 183.568 241.879C180.969 257.614 179.112 274.88 179.112 282.631C179.159 292.331 180.598 299.108 183.522 303.053C184.821 304.817 185.007 304.445 184.032 302.078C183.707 301.196 183.522 300.222 183.615 299.897C183.986 298.876 185.053 299.293 185.378 300.593C186.446 304.909 190.53 310.85 193.501 312.336C195.636 313.45 197.121 313.496 199.303 312.614L200.881 311.918L201.623 314.517C203.108 319.623 206.265 323.336 210.72 325.285C214.573 326.956 214.666 326.956 215.455 325.007C215.826 324.032 216.615 321.572 217.172 319.483C218.286 315.306 219.585 312.8 220.653 312.8C221.721 312.8 221.488 314.332 219.957 318.23C218.564 321.711 218.147 324.589 219.028 325.1C219.307 325.239 219.493 325.192 219.493 325.007C219.493 324.775 219.771 324.171 220.142 323.707C220.746 322.825 220.839 322.872 221.628 324.543C222.092 325.471 222.602 326.26 222.788 326.26C223.206 326.26 223.856 324.543 225.109 320.226C226.083 316.838 227.476 314.192 228.358 314.192C228.59 314.192 228.636 315.631 228.497 317.581C228.218 320.365 228.311 321.062 228.961 321.572C229.611 322.129 229.843 322.083 230.725 321.34C232.303 319.901 232.953 317.72 232.953 313.775C232.953 311.036 233.138 309.876 233.695 309.365C234.809 308.251 235.088 308.483 234.902 310.201C234.763 311.5 234.949 311.918 236.155 312.753C237.13 313.45 237.594 314.192 237.641 315.028C237.641 316.281 237.641 316.281 238.151 315.213C238.847 313.821 240.704 313.403 242.282 314.285L243.535 315.028L243.814 312.614C244.278 308.808 245.02 306.72 246.413 305.281C248.13 303.563 249.198 303.563 249.198 305.281C249.198 306.023 249.523 307.648 249.894 308.994C250.544 311.129 250.544 311.547 249.847 313.357C246.598 322.129 245.949 326.631 246.831 333.361C248.455 345.383 254.814 358.935 265.535 373.185C267.021 375.134 268.227 376.851 268.227 376.99C268.227 377.13 267.113 376.944 265.814 376.573C261.544 375.459 260.337 375.691 253.7 378.893C230.029 390.404 207.147 406.695 182.361 429.717C178.648 433.151 169.969 441.599 163.007 448.514L150.382 461.046L149.64 459.236C149.222 458.261 146.994 454.131 144.72 450.093C139.614 441.042 138.918 439.464 135.437 429.345C132.513 420.805 131.77 419.181 129.171 415.05C126.247 410.548 126.061 409.759 125.736 401.451C125.458 394.21 125.365 393.653 124.112 391.1C122.441 387.712 118.728 384.231 113.901 381.585L110.28 379.543L107.217 380.936C101.972 383.303 99.9765 383.581 88.8371 383.535C83.221 383.535 77.6978 383.349 76.6302 383.21L74.588 382.839L75.6091 384.277C76.8623 385.995 79.2758 387.619 82.3856 388.733C84.0565 389.337 86.0059 389.522 89.9975 389.522C96.5419 389.476 100.951 388.408 107.078 385.391C109.445 384.231 111.719 383.396 112.044 383.535C113.344 383.999 116.871 389.429 118.217 393.003C119.006 394.953 120.677 400.058 121.977 404.282C130.053 430.831 138.454 449.582 148.247 463.042L150.336 465.873L145.045 472.418C142.12 475.992 138.779 480.401 137.572 482.165C135.669 485.089 132.234 491.819 132.234 492.701C132.234 493.861 137.108 488.013 141.006 482.211C145.741 475.249 149.686 470.422 150.336 470.84C150.846 471.165 151.589 475.992 152.192 482.443L152.656 487.549L151.403 488.616C141.563 496.692 126.293 502.03 99.7444 506.578C85.5881 509.038 76.5374 511.962 65.6301 517.671C57.1363 522.081 53.8874 524.262 52.8663 526.258C51.4738 528.996 46.786 535.077 41.402 541.203C33.5116 550.068 31.1909 553.132 29.8449 556.427C28.2668 560.419 27.06 561.95 23.3469 564.689C20.0515 567.102 18.0557 569.794 14.1569 577.035C11.6506 581.63 9.51554 583.997 4.96696 587.2C2.87833 588.685 1.53232 590.031 0.882527 591.284C-0.741964 594.44 -0.184996 594.765 3.06399 592.676C8.12312 589.52 13.043 584.229 21.8153 572.718C26.3638 566.731 33.558 557.355 37.7353 551.879C41.9589 546.402 46.2755 540.275 47.343 538.279C53.1447 527.511 67.0225 519.946 92.3182 513.773C122.58 506.393 125.504 505.557 134.044 501.891C140.635 499.013 146.483 495.485 151.264 491.54C153.445 489.73 156.927 487.131 159.015 485.692C162.775 483.139 164.26 481.376 164.26 479.426C164.26 478.452 164.214 478.452 162.821 479.658C161.104 481.051 157.762 482.861 157.437 482.49C157.298 482.397 156.602 479.473 155.905 476.084C155.163 472.696 154.142 468.705 153.631 467.219L152.703 464.527L156.927 459.793C180.458 433.523 215.965 405.582 251.008 385.67C256.16 382.746 258.202 382.467 267.16 383.303C275.839 384.138 277.278 383.767 283.312 379.218C284.333 378.429 285.818 377.687 286.607 377.501C287.861 377.269 288.139 377.408 289.346 379.265C290.042 380.332 291.481 382.282 292.548 383.535C293.616 384.788 295.194 387.294 296.122 389.105C297.747 392.354 297.84 392.4 300.764 393.467C306.194 395.417 310 394.767 310 391.889C310 390.358 309.397 390.126 304.291 389.847C299.232 389.522 298.211 389.012 299.603 387.48C300.485 386.505 300.439 386.505 298.907 383.721C298.025 382.096 297.329 380.147 297.283 379.079C297.19 377.64 296.911 377.13 295.797 376.433C291.156 373.602 285.261 373.37 278.346 375.784L274.308 377.176L269.945 371.56C254.999 352.252 249.987 340.509 249.987 324.635C249.987 316.049 250.729 313.403 254.814 307.184C256.856 304.074 257.784 302.125 258.248 300.082C259.13 295.998 259.409 295.441 263.354 290.057C267.485 284.394 267.995 283.513 271.337 275.437C274.818 267.082 276.071 265.086 279.46 262.58C280.109 262.069 280.527 259.609 281.687 249.909C284.101 229.301 284.287 228.373 289.16 218.115C292.548 210.921 293.755 207.626 293.755 205.305C293.755 204.145 294.126 203.588 295.519 202.613C297.283 201.406 297.375 201.221 298.582 195.697C303.873 172.073 305.127 162.279 304.755 147.009C304.523 136.102 304.43 135.452 300.996 119.253C300.114 115.03 299.046 109.089 298.675 106.025C297.654 98.1814 296.818 95.3501 293.291 87.1348C291.481 83.004 289.717 78.0377 289.114 75.5313C287.304 67.7338 287.118 67.084 285.354 63.5565C282.848 58.451 278.067 51.396 270.594 41.8347C265.675 35.5688 263.725 33.3874 262.983 33.3874C261.172 33.341 256.717 31.2523 253.468 28.8388C251.704 27.4928 249.337 26.0076 248.223 25.497C245.809 24.4295 243.628 24.2902 243.628 25.2185C243.628 26.1004 246.459 28.5139 248.873 29.7207C251.843 31.2059 253.839 32.8768 253.839 33.8515C253.839 34.5941 253.653 34.6406 252.354 34.3157C250.636 33.8051 247.944 32.0878 245.02 29.6278C242.003 27.0751 238.29 25.497 235.459 25.497C233.927 25.497 232.86 25.2649 232.489 24.8008C232.164 24.4295 230.771 23.4548 229.425 22.6657C228.033 21.9231 226.733 20.9484 226.548 20.5307C226.269 20.113 225.294 19.7881 223.856 19.6952C219.678 19.3703 217.126 17.6994 212.995 12.5939C211.509 10.8302 210.999 10.5517 207.193 9.53057C204.919 8.88077 199.999 7.34911 196.286 6.04952C183.754 1.6866 175.91 0.479833 169.876 1.87225C168.159 2.24357 167.695 2.19715 166.952 1.50094C165.699 0.387005 161.614 0.294177 156.137 1.3617ZM190.02 18.3492C191.83 19.0454 194.151 19.7881 195.218 20.113C198.142 20.9484 198.049 21.2269 194.708 21.5518C191.459 21.9231 187.328 21.5982 184.682 20.7628C182.593 20.113 180.505 18.6277 180.505 17.7923C180.505 16.6319 186.214 16.9568 190.02 18.3492ZM176.235 18.6277C175.26 20.113 173.636 20.8556 171.361 20.8556C168.994 20.8556 167.138 20.2058 166.72 19.1847C166.256 17.9779 167.463 17.6066 172.336 17.6066H176.885L176.235 18.6277ZM207.425 22.7586C216.754 25.1257 222.463 28.0034 224.227 31.2059C224.645 31.995 224.552 31.995 222.881 31.1595C221.906 30.649 219.121 29.7207 216.708 29.0245C212.902 27.9569 212.066 27.4928 210.628 25.9611L208.91 24.1046H204.965C201.391 24.1046 200.927 24.0117 200.277 23.0835C199.859 22.5265 199.535 21.7839 199.535 21.459C199.535 20.7628 199.488 20.7628 207.425 22.7586ZM150.243 24.1974C150.104 25.1721 149.779 25.2649 147.365 25.4042C144.859 25.5434 144.673 25.497 145.23 24.7544C146.066 23.7797 147.412 23.2227 149.083 23.2227C150.196 23.1763 150.382 23.362 150.243 24.1974ZM185.1 24.5687C188.72 25.0329 192.572 26.4253 192.572 27.2607C192.572 27.4928 188.117 27.9105 182.733 28.189C173.96 28.6996 170.34 29.0709 165.467 29.9063C164.121 30.1384 164.121 30.1384 165.003 29.1637C166.906 27.0287 171.733 25.2185 177.256 24.5687C178.927 24.3831 180.505 24.1974 180.737 24.151C181.015 24.151 182.965 24.3366 185.1 24.5687ZM208.121 28.4211C210.303 29.5814 211.045 30.1384 210.581 30.4169C209.56 31.1131 204.037 30.7882 202.459 29.9527C200.788 29.1173 199.442 27.4464 199.859 26.7502C200.416 25.8683 205.011 26.7966 208.121 28.4211ZM200.463 34.3157C200.184 34.8262 199.488 35.3368 198.931 35.476C197.26 35.8937 188.442 35.5224 188.859 35.0583C189.648 34.2692 193.779 33.4338 197.353 33.4338C200.834 33.3874 200.927 33.4338 200.463 34.3157ZM262.333 37.936C262.751 38.3073 263.122 39.0035 263.122 39.514C263.122 40.8136 261.172 40.5351 259.687 39.0035C258.48 37.7503 258.48 37.6111 259.223 37.1933C260.151 36.6828 261.126 36.9148 262.333 37.936ZM166.581 40.9529C166.581 42.1596 165.374 43.1807 163.657 43.4592C162.125 43.6913 161.939 43.5985 161.939 42.763C161.939 42.206 162.403 41.4634 162.96 41.0921C164.214 40.1638 166.581 40.1174 166.581 40.9529ZM179.809 50.0964C179.066 50.8855 177.395 51.9994 176.096 52.6028C172.847 54.1345 164.167 56.6408 164.399 55.991C164.77 54.8307 168.53 52.4635 171.083 51.7209C172.568 51.3496 175.353 50.5142 177.256 49.9108C179.159 49.3074 180.83 48.7968 180.923 48.7504C181.062 48.704 180.551 49.3538 179.809 50.0964ZM206.729 51.7209C206.729 52.742 206.079 53.0205 205.151 52.4635C204.594 52.0922 204.547 51.9066 205.104 51.2568C205.847 50.3285 206.729 50.607 206.729 51.7209ZM212.716 55.2948C213.83 56.8729 213.598 57.4763 211.974 57.7083C206.311 58.5438 204.594 58.7294 204.408 58.451C204.315 58.2653 204.547 57.6619 204.965 57.105C206.868 54.3665 211.37 53.3454 212.716 55.2948ZM224.459 56.2231C225.016 56.8265 224.969 57.0121 223.948 57.7083C221.999 58.9615 220.096 59.1472 219.632 58.1725C219.261 57.3834 219.261 56.9657 219.446 55.4805C219.539 54.8771 223.67 55.4805 224.459 56.2231ZM232.024 67.5017C232.024 68.3836 230.771 68.7085 230.168 67.9194C229.332 66.9911 230.446 65.5987 231.375 66.3878C231.746 66.6662 232.024 67.1768 232.024 67.5017ZM234.809 72.8393C235.227 73.6748 235.181 73.7676 234.113 73.7676C233.046 73.7676 232.999 73.6748 233.51 72.8393C233.835 72.3288 234.159 71.911 234.206 71.911C234.252 71.911 234.531 72.3288 234.809 72.8393ZM228.311 73.6748C228.311 74.7423 228.126 74.9744 227.29 74.9279C225.526 74.7887 225.573 72.3752 227.383 72.3752C228.079 72.3752 228.311 72.7001 228.311 73.6748ZM266.417 80.2656C266.928 80.544 267.299 81.2402 267.299 81.9365C267.299 83.7002 265.814 83.1896 265.396 81.2867C265.071 79.6622 265.118 79.5693 266.417 80.2656ZM292.548 88.2952C293.152 89.2699 292.363 91.637 291.434 91.637C290.97 91.637 290.692 91.08 290.599 90.1053C290.32 87.3205 291.342 86.3922 292.548 88.2952ZM294.637 103.148C295.287 103.937 295.101 116.933 294.451 116.933C294.173 116.933 293.894 114.798 293.709 111.966C293.569 109.181 293.245 106.257 292.92 105.422C292.131 103.055 293.245 101.523 294.637 103.148ZM291.434 201.963C291.434 203.031 290.181 206.187 289.949 205.769C289.81 205.537 289.531 204.47 289.346 203.356C289.067 201.499 289.067 201.406 290.228 201.406C290.877 201.406 291.434 201.685 291.434 201.963ZM188.674 261.884C189.602 265.458 189.834 272.466 189.463 286.297L189.091 299.015L187.838 296.741C187.188 295.487 186.26 293.12 185.796 291.449C184.311 286.065 184.821 270.702 186.864 259.47C187.096 258.124 187.188 258.031 187.606 258.728C187.838 259.192 188.302 260.584 188.674 261.884ZM262.983 265.458C262.843 266.525 261.637 269.217 260.151 271.77C258.712 274.183 257.552 276.411 257.552 276.643C257.552 276.922 257.366 276.968 257.088 276.829C256.485 276.458 256.485 273.766 257.088 272.141C257.645 270.795 262.565 263.601 262.983 263.601C263.122 263.601 263.122 264.436 262.983 265.458ZM267.763 266.015C267.763 267.685 266.51 271.909 265.628 273.255C264.653 274.833 262.611 277.061 262.147 277.061C261.59 277.061 263.818 270.888 265.489 267.778C267.021 264.854 267.763 264.297 267.763 266.015ZM246.691 268.057C246.552 269.217 245.717 271.816 244.835 273.812C242.7 278.778 237.455 287.272 236.527 287.272C236.109 287.272 237.13 283.002 237.965 281.099C238.476 280.032 240.565 276.365 242.653 272.93C244.695 269.542 246.413 266.571 246.413 266.339C246.413 266.107 246.552 265.922 246.691 265.922C246.877 265.922 246.877 266.896 246.691 268.057ZM198.978 283.466C200.324 286.576 200.881 289.314 200.927 292.61C200.927 295.766 200.184 299.015 199.488 298.644C197.724 297.53 196.471 290.985 196.982 285.23C197.167 283.048 197.446 281.238 197.678 281.238C197.864 281.238 198.467 282.259 198.978 283.466ZM246.738 287.272C246.227 290.753 245.02 292.935 243.117 293.909C241.539 294.698 241.539 294.698 241.4 293.677C241.307 293.074 242.143 290.846 243.396 288.432C244.649 286.158 245.856 283.791 246.134 283.234C246.645 282.167 246.645 282.167 246.877 283.466C247.016 284.162 246.97 285.88 246.738 287.272ZM183.15 286.39C183.8 288.2 183.939 295.163 183.383 295.163C182.501 295.163 181.758 292.378 181.526 288.479C181.34 285.137 181.433 284.394 181.944 284.58C182.315 284.673 182.826 285.508 183.15 286.39ZM230.446 285.276C230.261 285.694 229.704 287.829 229.147 290.011C227.894 295.116 226.362 298.226 224.459 299.34L222.974 300.268L222.834 299.061C222.37 295.487 224.645 288.618 227.012 286.53C229.1 284.627 230.957 283.93 230.446 285.276ZM259.409 293.584C259.409 295.116 258.62 296.555 257.784 296.555C256.949 296.555 256.902 295.163 257.645 293.538C258.341 292.006 259.409 292.006 259.409 293.584ZM230.354 301.475C231.003 303.192 230.446 305.838 228.265 310.711C227.429 312.614 227.197 312.846 226.826 312.104C226.176 310.99 226.594 308.298 228.079 304.213C229.379 300.686 229.843 300.129 230.354 301.475ZM200.463 302.542C201.066 303.656 201.066 305.838 200.509 305.838C199.627 305.838 198.606 304.353 198.606 303.006C198.606 301.428 199.72 301.15 200.463 302.542ZM197.214 309.458C197.214 310.294 195.914 311.547 195.45 311.222C194.847 310.85 194.708 308.994 195.172 308.483C195.543 308.158 197.214 308.947 197.214 309.458ZM208.817 315.445C208.771 316.188 206.497 318.416 206.033 318.137C205.754 317.998 205.568 317.256 205.568 316.467C205.568 315.213 205.708 315.121 207.193 315.121C208.075 315.121 208.817 315.26 208.817 315.445ZM214.062 319.53C213.923 319.948 213.691 320.18 213.598 320.04C213.459 319.901 213.505 319.623 213.691 319.344C214.109 318.602 214.387 318.741 214.062 319.53Z" fill="black"/>
<path d="M91.8535 22.48C91.8535 23.826 92.0392 24.1045 92.8282 24.1045C93.9421 24.1045 95.0561 22.8977 95.1025 21.6445C95.1025 21.0412 94.7312 20.8555 93.478 20.8555C91.9463 20.8555 91.8535 20.9483 91.8535 22.48Z" fill="black"/>
<path d="M83.2674 27.7722C82.0142 28.2363 78.9509 29.6287 76.5374 30.8355C69.9466 34.1309 66.6976 35.2448 62.4275 35.5697C58.9464 35.8018 58.5287 35.941 56.8114 37.5191C55.7903 38.4474 52.3557 40.9537 49.2459 43.0888C41.2163 48.5656 38.5243 51.4897 36.8998 56.6881C36.7141 57.2915 36.1572 57.5236 34.9968 57.5236C33.6044 57.5236 33.3723 57.6628 33.3723 58.5911C33.3723 59.1945 34.1149 60.6797 34.9504 61.9329C35.8323 63.1861 36.4821 64.3464 36.3428 64.5321C36.25 64.7177 35.1825 65.0426 34.0221 65.2283C30.6339 65.7388 28.7773 68.4308 30.866 69.8233C32.2584 70.7051 32.3512 73.0723 31.2373 77.1103C29.7056 82.4943 31.8871 80.6377 34.347 74.4647C37.4103 66.8528 39.1277 64.2536 41.9589 62.9076C43.1657 62.3042 43.5834 61.8401 43.5834 60.9582C43.5834 60.3084 43.8155 59.3801 44.0475 58.8696C44.3724 58.3126 44.3724 57.7092 44.094 57.1522C43.7226 56.5024 44.1404 55.9455 46.5075 53.9961C51.381 50.0509 53.7481 48.4728 65.6301 41.2786C76.0268 35.0127 81.6893 31.2068 85.5881 28.0506C87.259 26.6582 86.5164 26.5654 83.2674 27.7722ZM43.5834 55.3421C43.5834 55.667 43.3049 56.3168 42.98 56.7809C42.423 57.5236 42.3302 57.5236 41.7733 56.8738C41.4484 56.456 41.2627 55.8062 41.4484 55.4349C41.7733 54.5995 43.5834 54.5066 43.5834 55.3421Z" fill="black"/>
<path d="M79.0901 41.9739C78.8581 42.0668 76.7694 42.6702 74.4951 43.3664C69.3432 44.898 57.8325 49.9572 54.9548 51.953C52.727 53.4846 51.1489 55.991 51.613 57.2442C52.0772 58.4045 53.3304 58.126 56.0224 56.2695C57.5076 55.2948 59.0393 54.5986 59.8747 54.5986C61.5456 54.5986 62.149 55.1091 61.0815 55.7125C60.246 56.2231 59.9676 57.5227 60.7566 57.5227C61.0351 57.5227 61.2207 57.2906 61.2207 57.0585C61.2207 56.78 61.5456 56.5944 61.9634 56.5944C62.4275 56.5944 61.7313 57.6619 60.014 59.5185C54.4907 65.3666 51.7987 71.3076 46.0434 89.7804C44.883 93.4935 44.7438 93.772 44.6045 92.3332C44.5117 91.4513 44.7902 87.1348 45.2079 82.8183C45.8577 76.3203 46.1826 74.6958 46.9716 73.5355C50.9168 68.0122 51.9379 66.1557 51.9379 64.6704C51.9379 62.9995 50.4527 61.0501 49.478 61.375C48.5961 61.6535 45.0687 68.9869 43.6298 73.5355C41.5412 80.1727 41.0306 83.6073 41.077 91.1728C41.077 98.924 41.6804 102.08 44.1404 108.021C45.5328 111.317 45.672 111.502 45.9041 110.203C46.1826 108.485 47.2965 108.207 49.6636 109.274C51.0561 109.924 51.613 109.971 52.0772 109.553C52.6341 109.135 52.8198 109.274 53.0055 110.295C54.0266 115.401 61.7777 120.878 66.8368 120.089C67.9044 119.95 67.9044 119.903 66.4191 119.114C65.5837 118.65 64.5161 118.325 64.052 118.418C62.7988 118.604 59.3178 115.958 57.1827 113.127C52.4021 106.861 50.4527 100.595 50.4063 91.4049C50.4063 81.89 52.6341 74.046 57.5076 66.6662C61.4064 60.7252 65.0731 57.7083 71.0605 55.434C73.3812 54.5522 76.3053 52.0458 76.6766 50.5141C76.8623 49.7715 76.7694 49.6323 76.1661 49.8643C75.7483 50.0036 74.4023 50.2821 73.242 50.4213C71.2926 50.6534 71.0141 50.5605 70.5035 49.6323C69.993 48.704 70.0858 48.4719 71.0141 47.7293C71.6175 47.2651 73.0563 46.5225 74.2167 46.1048C77.1407 44.9909 81.5037 42.763 81.875 42.206C82.1535 41.7883 80.2041 41.6026 79.0901 41.9739ZM47.6678 98.4598C47.9463 98.7847 48.3641 100.224 48.5961 101.616C48.8746 103.008 49.2923 104.215 49.5708 104.308C50.4991 104.633 50.0814 105.376 49.0603 105.236C47.6678 105.051 45.9041 101.894 45.9041 99.6202C45.9041 97.8565 46.6931 97.2995 47.6678 98.4598Z" fill="black"/>
<path d="M191.18 57.8477C190.02 58.2654 188.859 59.4722 188.859 60.2612C188.859 60.8182 188.999 60.8182 189.416 60.4005C189.741 60.0756 190.855 59.8435 191.923 59.8435C194.058 59.8435 194.615 59.4258 194.151 58.2654C193.872 57.5228 192.526 57.3372 191.18 57.8477Z" fill="black"/>
<path d="M56.7659 59.1933C56.3017 60.957 57.2764 61.6068 57.8798 59.9359C58.1583 59.1469 58.2511 58.4042 58.1119 58.265C57.5085 57.708 57.0444 58.0329 56.7659 59.1933Z" fill="black"/>
<path d="M107.403 58.9142C102.576 59.332 98.816 60.1674 95.1957 61.5134C90.3222 63.3236 82.2926 69.1253 84.6133 69.1253C85.7272 69.1253 87.1661 68.3363 89.1619 66.5261C90.7399 65.1337 93.0142 64.0662 93.4784 64.5303C93.5712 64.6696 90.4615 67.965 86.5627 71.9566C71.9887 86.8091 68.8325 95.3028 72.6849 109.506C73.4739 112.43 74.263 115.957 74.4486 117.303L74.7735 119.809L73.6596 119.067C72.2208 118.139 70.5034 114.936 69.111 110.759C68.554 109.041 67.9042 107.649 67.6722 107.649C67.0688 107.649 67.1616 108.856 67.9507 110.759C69.5287 114.472 68.0435 114.797 65.63 111.223C62.5202 106.674 61.4527 100.733 62.6595 95.0244C63.5413 90.9863 65.9549 85.8344 70.9676 77.4798C75.2841 70.1928 78.301 63.7877 77.744 63.1843C77.6048 63.0451 77.3263 63.37 77.1871 63.8341C77.0014 64.2983 74.4022 68.4755 71.3853 73.0705C65.63 81.9356 63.3557 86.0664 61.6384 90.9399C60.7101 93.4463 60.5708 94.8851 60.5244 99.7586C60.5244 106.674 60.9421 107.881 65.3979 113.497C67.0224 115.539 68.6933 117.999 69.1574 119.02C69.8536 120.598 70.3642 121.016 72.4528 121.759C73.7988 122.223 79.4149 124.822 84.8918 127.561C92.318 131.274 95.9383 132.805 99.0481 133.548C103.922 134.708 105.314 134.801 105.314 133.966C105.314 132.805 103.272 131.459 99.9763 130.392C97.3772 129.556 96.3096 128.907 94.5923 127.096C90.1366 122.409 87.2125 114.611 87.2125 107.231C87.2125 103.472 87.1661 103.24 85.9593 102.265C84.7061 101.29 84.7061 101.29 85.3095 98.5518C86.8412 91.729 90.4615 84.8597 95.5206 79.29C96.8202 77.8512 100.023 75.2056 102.668 73.3954C108.47 69.4502 112.415 66.3405 112.09 66.0156C111.719 65.5979 107.078 67.2688 103.922 68.9861C96.6809 72.8849 90.7399 79.2436 86.7483 87.366C83.6386 93.7248 82.4318 98.5518 82.4318 105.096C82.4318 112.29 84.3348 118.556 87.9551 123.291C89.9973 125.936 88.3728 124.961 85.1703 121.573C82.9424 119.206 81.5964 117.164 80.0647 114.054C77.6048 108.809 76.8157 105.792 76.8157 100.919C76.8157 97.5771 76.955 96.9273 78.301 94.5602C79.647 92.1931 80.2968 89.0834 79.4149 89.0834C79.2293 89.0834 78.8115 89.9652 78.4866 91.0328C78.2082 92.1467 77.4191 93.6319 76.8157 94.421L75.6554 95.8134L75.609 94.2817C75.609 92.1003 77.1406 89.4083 79.4149 87.6445C80.5289 86.8091 81.5964 85.9736 81.8749 85.7415C82.1069 85.5095 81.9213 85.0918 81.3179 84.674L80.2968 83.9778L81.782 81.3786C82.6175 79.9398 84.7061 77.2014 86.4234 75.3448C91.9003 69.4502 99.0945 65.3194 110.002 61.7919C116.593 59.6104 116.36 59.6104 122.116 62.3953C125.04 63.7877 125.829 64.0198 126.618 63.6021C127.732 62.9987 128.707 61.3742 128.15 61.0493C126.85 60.2602 112.74 58.1252 111.348 58.4965C111.209 58.5429 109.445 58.7286 107.403 58.9142Z" fill="black"/>
<path d="M184.636 61.6536C184.032 62.1641 183.707 62.7211 183.893 62.9068C184.357 63.3709 186.631 62.1641 186.91 61.3287C187.188 60.4932 185.842 60.6789 184.636 61.6536Z" fill="black"/>
<path d="M134.324 65.1346C128.29 67.0375 122.813 71.0291 116.036 78.409C107.357 87.8774 103.226 93.9577 100.024 102.034C98.5384 105.747 96.4961 114.101 96.4961 116.515C96.4961 117.35 96.2177 117.165 94.8252 115.355C93.897 114.148 93.0615 113.266 92.9687 113.359C92.4581 113.869 94.8252 119.253 97.0067 122.595C98.3527 124.591 99.4666 126.169 99.5595 126.076C99.6523 126.03 99.5131 125.148 99.281 124.127C98.6312 121.296 98.7704 113.823 99.5131 110.203C99.8844 108.439 100.859 105.004 101.648 102.591C102.948 98.7847 103.412 97.9029 105.64 95.7214C107.032 94.329 110.281 90.3374 112.834 86.8563C121.374 75.2992 125.087 71.8646 130.889 70.2401C134.138 69.3118 136.412 67.4553 136.412 65.6915C136.412 65.0417 136.366 64.4848 136.319 64.5312C136.227 64.5312 135.345 64.8097 134.324 65.1346Z" fill="black"/>
<path d="M178.277 65.5522C177.07 66.8518 176.977 67.2695 177.952 67.2695C179.159 67.2695 181.433 65.8771 181.433 65.1809C181.433 64.1134 179.391 64.3454 178.277 65.5522Z" fill="black"/>
<path d="M40.6594 69.961C38.1531 72.5138 38.0138 72.7459 38.0138 74.9738C38.0138 76.2269 37.6889 79.8936 37.2712 83.0498C36.2965 90.8009 36.2965 97.1597 37.3176 100.177C37.7354 101.476 38.2923 102.683 38.5708 102.869C38.9421 103.054 38.9885 102.869 38.7565 102.265C38.0603 100.409 37.5033 93.8179 37.7818 90.476C38.1995 85.7882 40.0096 77.7122 41.959 71.9568C42.7945 69.4041 43.4907 67.269 43.4443 67.269C43.3515 67.269 42.1447 68.4758 40.6594 69.961Z" fill="black"/>
<path d="M79.5546 72.7474C76.6769 76.0428 75.6094 77.5744 75.6094 78.4563C75.6094 79.3382 80.6685 74.2791 81.6432 72.4225C82.6643 70.4267 81.4111 70.5659 79.5546 72.7474Z" fill="black"/>
<path d="M66.1409 74.6494C65.1198 75.7169 64.47 76.6916 64.6556 76.8773C65.0734 77.3414 66.2801 76.5059 67.3941 75.0671C68.9257 72.9785 68.0439 72.7 66.1409 74.6494Z" fill="black"/>
<path d="M180.737 73.7684C180.598 74.2325 178.741 76.1819 176.652 77.992C172.057 82.0765 171.315 83.0048 170.944 85.0006L170.665 86.5322L171.965 85.1398C172.707 84.3508 175.028 82.3085 177.163 80.5448C181.155 77.2494 182.593 75.2536 182.129 73.7684C181.758 72.608 181.108 72.608 180.737 73.7684Z" fill="black"/>
<path d="M86.8867 78.037C85.5407 79.5686 84.4268 81.2396 84.4268 81.7037C84.4268 82.9569 84.9837 82.7712 85.912 81.286C86.3761 80.5898 87.4901 79.1509 88.372 78.037C89.95 76.0876 90.3678 75.1129 89.6715 75.2057C89.4395 75.2057 88.1863 76.5053 86.8867 78.037Z" fill="black"/>
<path d="M128.985 77.8986C128.985 78.1306 127.639 79.1982 125.968 80.2657C122.765 82.3543 119.98 85.1392 120.398 85.8354C120.677 86.2995 127.917 81.983 129.124 80.637C129.959 79.6159 130.191 77.4809 129.449 77.4809C129.217 77.4809 128.985 77.6665 128.985 77.8986Z" fill="black"/>
<path d="M62.0564 79.9868C61.3138 80.8686 60.7568 81.8433 60.7568 82.0754C60.7568 83.1429 61.9636 82.4931 62.9847 80.9615C64.7949 78.1302 64.0986 77.3876 62.0564 79.9868Z" fill="black"/>
<path d="M24.7858 81.1932C24.0432 82.3535 23.2542 83.0497 22.6972 83.0497C21.7689 83.0497 21.7689 83.0497 22.6972 84.535C23.8576 86.438 23.8576 86.9949 22.6508 88.6658C21.9082 89.7334 21.8617 90.0118 22.4187 90.0118C23.347 90.0118 24.5538 91.822 24.5538 93.2144C24.5538 93.8642 24.136 94.8389 23.5791 95.3959L22.6508 96.417L23.7183 96.6491C25.1571 97.0204 26.6888 100.037 25.8998 100.966C25.6213 101.337 25.1107 101.615 24.7394 101.615C24.4145 101.615 23.8111 101.987 23.347 102.404C22.6508 103.147 22.6508 103.24 23.8576 104.215L25.1571 105.236L24.8787 110.759C24.7394 114.286 23.9968 119.299 22.9293 124.822C21.5833 131.46 21.212 134.43 21.2584 137.818C21.3048 140.232 21.3512 144.409 21.3976 147.101C21.3976 150.396 21.0263 154.667 20.1444 160.283C19.1697 166.92 18.9377 169.705 19.0769 173.975L19.309 179.359L21.9082 184.789C25.0643 191.241 26.1783 195.14 25.7605 198.342C25.6213 199.595 25.3892 200.709 25.2964 200.849C25.1571 200.988 24.3217 200.524 23.4398 199.827C22.558 199.178 20.8406 198.203 19.6803 197.692L17.5917 196.764L15.7351 198.621C12.8574 201.498 13.1823 202.659 18.4271 207.857L21.3976 210.781L23.7183 209.574C26.4567 208.136 29.0559 207.903 28.3597 209.157C28.0812 209.574 27.1065 210.456 26.1318 211.152C24.0432 212.545 23.4862 213.937 25.0179 213.937C25.5749 213.937 26.5496 213.52 27.1994 213.009C29.1023 211.524 29.5201 211.802 29.845 214.726C30.4019 219.739 28.2205 249.212 27.2922 249.212C26.8745 249.212 24.9715 245.267 24.0432 242.482C23.7183 241.461 23.3934 238.676 23.3934 236.216C23.3934 232.41 23.5327 231.482 24.6002 229.393L25.7605 226.98L24.4145 227.769C23.6719 228.186 22.5115 229.393 21.8153 230.368C20.655 232.132 20.6086 232.549 20.3301 240.579C20.1444 245.22 19.8659 249.351 19.6803 249.769C19.4482 250.326 19.8659 250.976 21.1191 252.09C22.0938 252.925 23.4398 254.503 24.0896 255.571C25.3428 257.52 25.3428 257.52 25.8534 256.453C26.2711 255.524 26.1783 255.199 25.1571 254.271C23.9504 253.157 22.4651 250.233 22.8364 249.815C23.3934 249.258 26.0854 251.301 26.6888 252.693C27.5243 254.735 27.6171 259.423 26.7816 258.588C25.7605 257.566 25.5285 258.031 26.2247 259.655C26.9673 261.465 27.1065 266.199 26.4103 266.617C25.6213 267.128 24.136 265.967 22.8829 263.832C21.444 261.326 19.7267 259.887 18.2415 259.887C16.06 259.887 16.4313 261.883 19.4946 267.267C19.7267 267.685 20.098 268.567 20.3765 269.263C20.6086 270.005 21.0727 270.562 21.3976 270.562C22.6508 270.562 26.7352 272.79 28.1741 274.276C30.0306 276.132 31.5159 278.963 33.5581 284.672C35.4611 289.871 36.1109 291.17 38.9421 295.394C44.651 303.934 56.6723 336.934 62.3812 359.77C65.0732 370.585 66.5585 373.602 69.1577 373.602C69.8074 373.602 69.8539 373.323 69.4826 371.374C66.6049 356.475 62.1027 342.922 50.8241 315.073C44.8367 300.221 39.6383 286.39 38.5244 282.352C38.2459 281.377 37.6889 279.52 37.3176 278.267L36.6214 276.039L38.8493 276.364C44.1869 277.107 48.3177 280.495 49.014 284.626C49.1532 285.601 49.5245 286.482 49.803 286.575C50.0815 286.668 52.7271 287.596 55.6512 288.664C59.8284 290.196 61.8706 290.66 64.934 290.845C68.183 291.031 69.1112 291.263 70.0395 292.145C74.0311 295.719 78.8582 297.297 84.6599 296.879C86.7022 296.694 92.1326 295.951 96.7276 295.115C103.922 293.909 105.825 293.723 110.466 293.955L115.804 294.187L117.8 292.377C119.47 290.845 119.795 290.288 119.61 289.174C119.424 287.921 119.517 287.828 120.584 288.014C123.323 288.525 126.99 284.347 129.032 278.406C130.239 274.833 130.795 263.879 130.006 258.82C129.032 252.6 126.34 249.398 122.998 250.419L121.559 250.836L123.091 253.389C123.926 254.782 125.272 256.36 126.108 256.87C127.547 257.799 127.547 257.845 127.547 261.512C127.593 268.288 125.226 274.833 121.513 278.453C120.445 279.474 119.424 280.309 119.285 280.309C119.099 280.309 119.656 278.917 120.492 277.153C123.741 270.655 123.462 259.423 119.888 252.368C118.635 249.955 118.032 249.398 118.821 251.393C119.61 253.528 120.631 259.33 120.631 261.883C120.631 267.081 117.939 273.394 113.854 277.896C111.07 281.006 104.618 285.508 101.74 286.436C100.209 286.9 99.7445 287.271 99.7445 288.014C99.7445 289.871 98.7234 290.149 91.8541 290.196L85.3097 290.288L83.9173 288.757C83.1283 287.875 82.6177 286.947 82.7106 286.668C82.989 285.833 86.795 284.904 88.6051 285.183C90.5081 285.554 91.8541 286.622 91.8541 287.828C91.8541 288.942 92.2254 288.896 94.6854 287.318C102.112 282.537 108.378 269.773 108.006 260.305L107.867 256.87L106.335 261.512C104.154 268.149 101.972 272.419 99.2339 275.436C96.9597 277.896 93.0145 280.681 92.5039 280.17C92.3647 280.031 92.8752 278.685 93.6643 277.107C97.8879 268.799 98.909 257.01 95.7993 253.157C95.1031 252.275 95.0567 252.461 95.2888 255.246C95.5208 257.474 95.3816 258.541 94.9174 259.191C94.3141 260.026 94.2676 260.026 93.9892 258.912C93.525 257.334 92.6896 255.71 92.3183 255.71C92.1326 255.71 91.8541 257.427 91.7149 259.469C91.5292 262.579 91.1579 263.879 89.7655 266.664C88.3731 269.541 87.2591 270.887 82.5713 275.25C77.3729 280.17 77.0945 280.495 78.0691 281.006C78.6261 281.284 79.1367 281.841 79.2295 282.212C79.3223 282.816 78.6725 283.094 75.8413 283.512C69.0648 284.487 62.242 283.744 57.1364 281.47C53.7946 279.984 51.3347 277.71 52.4022 277.06C54.1195 275.993 60.8031 275.946 66.7905 276.875C68.5543 277.153 68.6471 277.107 68.6471 276.039C68.6471 274.415 69.529 273.811 72.4066 273.487C74.3096 273.254 75.2379 272.837 76.5839 271.63C79.6472 268.845 81.9215 262.44 81.5502 257.566L81.411 255.478L79.4152 259.423C77.5122 263.043 74.5881 266.849 73.6134 266.849C73.1493 266.849 73.4742 264.204 74.7738 257.799C75.6556 253.25 75.6092 251.208 74.5881 248.933C73.7991 247.216 73.5206 247.587 73.3813 250.744C73.1493 256.592 71.0606 262.022 67.5796 265.782C65.8158 267.731 62.8453 269.541 62.2884 269.031C62.1955 268.892 62.4276 265.41 62.8453 261.233C63.2167 257.056 63.7272 250.604 63.9129 246.938C64.2842 239.372 64.5627 240.254 59.9677 234.916C56.301 230.693 55.4655 229.068 53.2376 221.596C51.706 216.536 51.1026 215.19 49.3389 213.102C48.2249 211.709 47.2502 210.224 47.2502 209.806C47.2038 209.389 47.1574 207.532 47.111 205.629C47.0646 202.937 46.8789 202.102 46.2755 201.73C45.1152 200.941 44.8831 201.545 45.4401 203.819C45.7186 204.933 45.9042 206.697 45.8114 207.718L45.6721 209.528L44.7903 207.903C44.1405 206.79 43.8156 205.072 43.6763 202.241C43.4907 198.389 43.4907 198.203 44.419 198.481C45.5793 198.76 46.2755 197.6 46.6468 194.583L46.9717 192.355L45.1152 194.119C43.1194 196.021 42.7481 195.929 41.7734 193.469C41.4485 192.633 41.3092 193.515 41.3092 197.089C41.2628 204.051 40.5666 204.979 38.71 200.756C35.3218 193.144 35.3218 181.215 38.71 174.393C40.0096 171.793 42.0519 169.101 42.4696 169.519C42.6088 169.658 42.3768 170.401 42.0054 171.19C41.0772 172.907 41.0772 174.3 41.9126 174.625C42.3768 174.81 42.8409 173.882 43.6299 171.329C44.6046 168.219 44.7439 166.873 44.6975 160.793C44.651 152.856 43.862 149.004 41.0307 143.156C39.3134 139.536 35.7395 135.219 33.0939 133.595C30.3091 131.877 30.5412 133.177 33.883 137.586C36.2037 140.696 36.7142 142.135 36.1109 143.713C35.6003 145.012 35.6003 145.012 34.8113 142.692C33.8366 139.814 32.2121 137.076 31.191 136.704C29.9378 136.194 29.9378 136.797 31.2374 138.329C33.0939 140.51 34.1151 142.738 36.2037 149.283C38.1995 155.502 39.3598 158.101 40.5666 159.308C41.17 159.958 41.0772 160.236 39.6383 161.907C34.8113 167.755 31.2838 176.388 29.4272 187.203C29.0559 189.477 28.6382 191.473 28.499 191.566C27.942 192.169 24.8322 183.583 22.4187 174.671L20.7478 168.452L22.3723 165.063C23.2542 163.253 24.2753 160.654 24.5538 159.401C24.9251 157.869 25.25 150.257 25.4356 137.586C25.7605 118.881 25.8069 117.953 26.828 115.075C28.1276 111.316 29.5665 109.227 30.3091 109.923C30.5876 110.202 31.7479 112.244 32.9083 114.472C35.0897 118.742 36.2037 119.856 37.132 118.928C37.5497 118.51 37.364 118 36.2965 116.793C34.0686 114.286 31.5623 109.831 30.0306 105.7C28.7774 102.404 28.5918 101.198 28.5454 97.3453C28.499 94.6068 28.3133 92.8431 28.0348 92.8431C26.7816 92.9823 26.4103 92.7039 26.4103 91.6363C26.4103 90.9865 26.828 90.2439 27.3386 89.919C28.499 89.1764 28.499 88.7587 27.385 88.3874C26.1318 88.016 25.8998 86.438 26.6424 83.2818C27.0137 81.7501 27.2922 80.2185 27.3386 79.8936C27.3386 78.6868 25.8998 79.4294 24.7858 81.1932ZM42.0519 214.169C44.0477 216.861 45.9506 220.157 47.4359 223.777L48.1321 225.448L46.7861 224.984C44.8367 224.288 41.5413 220.853 40.1489 217.975C39.4527 216.629 38.4316 213.891 37.8282 211.895L36.6678 208.228L38.3387 209.806C39.2206 210.688 40.8915 212.638 42.0519 214.169ZM42.7481 210.549C43.6299 211.338 43.862 212.545 43.1658 212.545C42.8873 212.545 42.3768 212.081 42.0054 211.524C40.7523 209.76 41.2164 209.157 42.7481 210.549ZM36.2501 221.131C36.6678 221.642 37.2712 223.127 37.5961 224.427C38.0602 226.516 38.3387 226.887 39.9168 227.583C42.2839 228.651 45.1616 231.992 46.4612 235.241C47.2966 237.376 47.4823 238.769 47.4823 242.946C47.4823 249.166 46.4148 252.368 43.2586 255.756L41.2164 257.938L43.073 258.634C44.0477 259.052 45.9042 259.516 47.1574 259.702C49.4317 259.98 49.5245 259.934 50.9169 258.216C53.5625 255.06 54.6301 250.187 53.7946 245.499C53.0984 241.6 51.5203 237.794 49.1532 234.267C48.1321 232.735 47.3895 231.343 47.5287 231.203C48.1321 230.6 51.6596 232.317 55.8368 235.288C58.3432 237.051 60.6639 238.537 60.9424 238.537C61.2673 238.537 61.8706 238.815 62.3348 239.14C62.9846 239.604 63.031 239.929 62.6133 241.043C62.3812 241.739 61.8242 245.731 61.4529 249.815C60.2462 262.254 59.2715 264.297 52.5878 267.963C50.3136 269.216 48.0857 270.562 47.6215 270.934C46.9717 271.537 46.5076 271.537 45.0224 271.073C42.4696 270.33 41.1236 268.474 39.4063 263.368C38.6172 260.955 37.7353 259.052 37.5033 259.237C36.7607 259.655 37.0391 264.297 37.9674 267.267L38.8493 270.098H37.6889C35.9716 270.098 33.2332 267.128 32.0728 264.018C29.4736 257.01 29.5201 244.756 32.2121 225.077C33.1868 218.161 33.1404 218.254 34.3935 219.321C34.9505 219.832 35.786 220.621 36.2501 221.131ZM52.9592 226.33C53.7482 227.258 55.2799 232.039 54.7693 232.039C53.7482 232.039 50.5456 227.258 50.5456 225.773C50.5456 225.216 52.3094 225.634 52.9592 226.33ZM57.1364 270.33C57.6006 271.351 57.5541 271.676 56.6723 272.558C55.7904 273.394 55.0014 273.579 51.938 273.719C48.7819 273.904 48.2249 273.811 48.2249 273.162C48.2249 272.14 49.9422 271.166 52.7735 270.562C54.0731 270.238 55.2799 269.82 55.4655 269.588C55.9297 268.845 56.5794 269.124 57.1364 270.33ZM118.31 284.858C118.31 287.689 116.546 290.567 114.133 291.774C112.973 292.331 111.348 292.888 110.559 293.073C109.074 293.352 109.027 293.352 109.027 291.727C109.027 289.871 108.981 289.871 110.605 290.52C112.416 291.217 113.297 290.056 112.973 287.364C112.694 285.229 112.694 285.183 114.458 284.162C115.432 283.605 116.686 283.141 117.289 283.094C118.171 283.094 118.31 283.326 118.31 284.858ZM80.0185 291.402C79.3223 292.006 76.0733 292.47 76.0733 291.959C76.0733 291.356 76.9552 291.077 78.8582 291.031C79.7865 290.985 80.2506 291.17 80.0185 291.402Z" fill="black"/>
<path d="M214.156 88.5737C213.274 90.3838 212.531 91.9619 212.531 92.0547C212.531 92.194 213.181 92.0547 213.924 91.7763C215.548 91.2193 216.709 89.3163 216.709 87.2741C216.709 84.8142 215.827 85.2783 214.156 88.5737Z" fill="black"/>
<path d="M224.597 86.5321C224.319 87.2748 223.066 88.9457 221.859 90.2453C218.981 93.2622 218.424 94.3761 218.749 96.2791C219.028 97.5787 218.796 97.9964 217.264 99.5745C214.897 101.942 213.783 105.098 212.53 112.802C211.926 116.191 211.23 119.904 210.905 120.971L210.302 122.967H211.787C212.947 122.967 213.411 123.246 213.829 124.128C214.154 124.777 214.386 125.706 214.386 126.123C214.386 127.237 215.686 129.001 216.521 129.001C217.032 129.001 217.171 128.305 217.171 125.938C217.171 116.933 221.209 100.317 225.711 90.9415L227.196 87.7853L226.175 86.4857L225.108 85.1861L224.597 86.5321Z" fill="black"/>
<path d="M236.713 88.7125C236.063 90.569 235.459 92.3792 235.367 92.7041C235.227 93.1682 235.506 93.3075 236.248 93.1682C237.966 92.9361 239.497 90.2441 239.358 87.6914C239.126 84.3031 238.012 84.7209 236.713 88.7125Z" fill="black"/>
<path d="M96.9594 88.852C93.4783 93.8648 91.6217 100.316 91.9931 105.747C92.1323 107.603 92.5036 109.413 92.7821 109.692C93.1998 110.063 93.2927 110.017 93.1998 109.506C92.8285 107.603 94.0353 102.08 96.3096 94.9787C97.7484 90.6622 98.7695 87.0419 98.6767 86.9026C98.5374 86.8098 97.7948 87.6453 96.9594 88.852Z" fill="black"/>
<path d="M127.872 89.9187C127.686 90.5685 125.876 92.0537 123.602 93.539C121.467 94.9314 119.703 96.231 119.703 96.4166C119.703 96.6023 120.121 97.1128 120.631 97.577C121.931 98.6909 121.792 100.13 119.935 103.982C118.403 107.231 118.311 107.602 118.311 112.476C118.311 116.421 118.45 117.442 118.868 117.024C119.239 116.653 119.424 114.657 119.471 111.501C119.517 105.514 119.842 104.632 124.298 98.4124C128.29 92.8428 128.614 92.193 128.429 90.3364C128.29 88.944 128.243 88.8976 127.872 89.9187Z" fill="black"/>
<path d="M226.223 95.675C223.438 102.73 221.813 107.789 221.813 109.321C221.813 110.295 221.999 110.481 222.881 110.342C223.809 110.203 223.902 109.971 223.902 107.186C223.902 104.354 224.088 103.844 226.687 99.2953C228.868 95.4429 229.425 94.0041 229.472 92.3796C229.472 88.7593 228.497 89.7804 226.223 95.675Z" fill="black"/>
<path d="M133.998 96.6496C130.331 102.544 128.382 110.945 127.779 123.431C127.454 130.207 127.5 130.393 128.382 130.393C129.682 130.393 131.399 131.831 133.905 135.08C136.226 138.097 138.129 139.351 140.032 139.118C141.192 138.979 141.053 138.794 137.758 135.962C130.703 129.882 129.914 127.886 129.914 116.608V109.042L131.585 106.489C133.673 103.194 136.412 97.4851 136.412 96.4175C136.412 95.9534 136.644 95.5821 136.876 95.5821C137.154 95.5821 137.34 95.35 137.34 95.1179C137.34 94.8395 136.876 94.6538 136.319 94.6538C135.576 94.6538 134.88 95.2572 133.998 96.6496Z" fill="black"/>
<path d="M264.189 96.0928C263.864 96.4177 263.586 97.1139 263.586 97.6245C263.586 98.692 265.86 103.658 267.021 105.097C267.717 105.979 267.717 105.979 267.763 104.679C267.763 103.937 267.206 102.359 266.51 101.198C265.814 100.038 265.118 98.2743 264.978 97.2996C264.793 95.8607 264.653 95.6287 264.189 96.0928Z" fill="black"/>
<path d="M183.522 97.9953C178.834 100.455 173.636 108.253 172.568 114.472C172.057 117.257 172.104 117.489 173.264 119.485L174.517 121.574L174.425 131.46C174.378 137.447 174.564 142.46 174.889 144.317C176.374 152.485 178.37 160.886 179.577 164.043C179.948 165.064 180.18 165.249 180.505 164.739C180.83 164.228 181.108 164.228 182.129 164.924C182.826 165.389 183.475 165.621 183.615 165.481C183.754 165.342 183.011 163.532 181.99 161.397C179.762 156.802 178.045 151.511 176.931 145.663C175.771 139.397 175.771 123.477 176.977 117.628C178.602 109.645 180.598 104.308 183.754 99.7127C184.775 98.181 185.564 96.9742 185.518 96.9742C185.425 97.0207 184.543 97.4384 183.522 97.9953Z" fill="black"/>
<path d="M117.196 99.4338C115.943 101.058 115.618 102.729 116.454 103.24C116.732 103.379 116.918 103.24 116.918 102.822C116.918 102.451 117.429 101.522 118.078 100.78C119.331 99.2946 119.517 98.5984 118.821 98.1342C118.589 97.995 117.846 98.5984 117.196 99.4338Z" fill="black"/>
<path d="M110.976 99.3879C110.326 100.038 110.234 103.287 110.837 103.658C111.069 103.797 111.487 103.658 111.765 103.287C112.183 102.776 112.137 102.59 111.533 102.358C110.837 102.08 110.837 101.987 111.58 100.873C112.415 99.5735 111.951 98.4132 110.976 99.3879Z" fill="black"/>
<path d="M33.3721 100.966C33.3721 101.476 33.7434 102.265 34.2075 102.683C36.0177 104.307 36.2497 103.24 34.5324 101.291C33.4649 100.084 33.4185 100.084 33.3721 100.966Z" fill="black"/>
<path d="M147.829 104.494C147.69 104.819 147.087 106.768 146.391 108.811C145.694 110.853 145.045 113.545 144.952 114.844L144.72 117.165L145.694 116.005C148.294 113.034 150.382 107.047 149.5 105.051C148.943 103.844 148.108 103.566 147.829 104.494Z" fill="black"/>
<path d="M253.375 106.489C253.375 108.02 253.699 111.455 254.071 114.147C254.442 116.839 254.767 119.717 254.767 120.506C254.767 121.945 254.674 122.037 253.189 122.037C252.307 122.037 251.054 122.223 250.404 122.502C249.244 122.919 249.197 123.059 249.197 127.468C249.197 132.806 249.661 134.709 251.379 136.519C253.003 138.236 253.978 138.236 253.653 136.519C252.353 130.253 252.446 127.746 253.885 126.4C254.721 125.658 254.767 125.658 254.767 126.4C254.767 126.865 254.999 127.654 255.324 128.211C255.834 129.232 255.881 129.185 256.252 127.839C256.995 125.24 257.227 117.21 256.67 113.915C256.067 110.434 254.442 104.911 253.792 104.168C253.56 103.936 253.375 104.911 253.375 106.489Z" fill="black"/>
<path d="M203.527 108.439C201.717 110.435 201.345 111.131 201.67 111.735C202.366 112.802 203.248 112.942 203.248 111.967C203.248 111.503 203.527 110.714 203.852 110.203C205.476 107.743 206.544 105.794 206.172 105.84C205.987 105.84 204.78 107.001 203.527 108.439Z" fill="black"/>
<path d="M40.5203 108.391C41.2629 111.594 43.8157 115.864 46.7862 118.835C51.2419 123.29 56.9973 125.797 62.5669 125.75L64.2378 125.704L61.9171 124.915C59.0395 123.894 57.2293 122.687 53.0985 118.788C48.6891 114.611 47.6216 113.961 46.4149 114.611C44.8368 115.446 43.7693 114.425 42.4232 110.898C41.1237 107.51 39.9169 105.932 40.5203 108.391Z" fill="black"/>
<path d="M109.027 110.759C109.027 113.266 109.956 119.207 110.93 122.224C111.719 124.916 115.108 130.393 115.943 130.393C116.175 130.393 115.943 129.604 115.432 128.582C114.968 127.608 113.854 123.848 112.926 120.228C112.044 116.561 110.837 112.616 110.188 111.456L109.074 109.274L109.027 110.759Z" fill="black"/>
<path d="M229.703 114.613C229.703 117.258 229.75 117.397 230.863 117.397C231.885 117.397 232.024 117.212 232.024 115.634C232.024 113.916 231.003 111.828 230.121 111.828C229.889 111.828 229.703 113.081 229.703 114.613Z" fill="black"/>
<path d="M122.951 115.075C122.394 117.21 122.998 118.928 124.251 118.696C124.854 118.556 124.994 118.092 124.854 116.236C124.808 114.983 124.622 113.776 124.529 113.59C124.019 112.755 123.415 113.312 122.951 115.075Z" fill="black"/>
<path d="M154.513 122.271C153.863 123.988 153.956 128.351 154.698 131.229C155.302 133.41 157.669 138.145 157.947 137.727C158.04 137.634 157.901 134.803 157.715 131.368C157.298 124.963 156.787 122.503 155.673 121.575C155.116 121.111 154.884 121.25 154.513 122.271Z" fill="black"/>
<path d="M164.26 130.485C164.26 134.338 164.677 135.498 165.977 135.498C166.766 135.498 166.813 129.65 165.977 128.118C164.77 125.705 164.26 126.401 164.26 130.485Z" fill="black"/>
<path d="M69.3435 132.481C71.2001 134.199 71.2001 135.591 69.2971 134.384C68.6937 133.966 67.9047 133.642 67.4869 133.642C66.3266 133.642 66.6979 134.895 68.0903 135.405C70.6431 136.334 73.2423 139.165 75.0988 143.064C77.7444 148.633 78.1622 150.861 78.1622 159.726C78.1622 168.127 78.3478 168.499 80.2972 164.136C81.2255 162.093 81.4111 161.026 81.3647 157.081C81.3647 151.929 80.4364 148.912 76.909 141.81C75.8879 139.815 75.1917 138.097 75.2845 138.005C75.6094 137.633 80.8542 145.013 81.9681 147.427C82.5715 148.726 83.1749 150.908 83.3605 152.3C83.6854 155.363 84.1032 155.92 86.1918 155.92C87.0737 155.92 88.234 156.245 88.6981 156.709C89.4872 157.406 89.5336 157.406 89.5336 156.245C89.5336 155.595 88.9766 154.435 88.3268 153.646C87.5378 152.718 87.2129 151.789 87.3057 150.954L87.445 149.654L88.9766 151.697C91.5758 155.224 92.4113 158.844 92.6898 167.385C92.9218 175.368 93.0147 175.646 95.0105 174.207C95.9851 173.558 96.0316 173.186 95.9387 169.38C95.7995 165.946 95.9387 165.11 96.5885 164.461C97.0527 163.996 97.5168 163.764 97.6561 163.904C97.8417 164.043 98.1666 166.317 98.3987 168.916C98.8164 173.418 99.7447 176.807 100.534 176.807C100.719 176.807 100.812 175.553 100.766 174.022C100.58 171.469 100.673 171.237 101.555 171.237C102.112 171.237 102.53 171.423 102.53 171.701C102.53 172.908 103.458 171.98 103.736 170.494C104.247 167.802 102.715 161.954 99.7447 155.038C96.3565 147.102 96.1244 146.22 97.1919 145.431C97.981 144.827 97.9345 144.781 96.867 144.363C96.2172 144.131 93.7573 142.646 91.3902 141.114C89.0695 139.536 86.8416 138.283 86.4703 138.283C85.3099 138.283 85.7741 139.629 87.2129 140.372C88.4197 140.975 89.1623 142.46 88.2804 142.46C87.9091 142.46 85.6348 140.743 81.504 137.448C78.5335 135.08 78.3014 134.941 77.5124 135.684C76.7233 136.38 76.5841 136.38 75.3309 135.405C74.5883 134.848 73.103 133.595 72.0355 132.62C70.8287 131.553 69.5756 130.857 68.8794 130.857C67.6726 130.857 67.6726 130.857 69.3435 132.481ZM81.5968 139.443C82.3394 139.815 83.5462 141.114 84.3352 142.321C85.7741 144.595 87.3521 148.03 87.0737 148.308C86.6095 148.773 84.6601 146.638 83.0356 143.853C82.0145 142.089 80.7613 140.372 80.2508 140C79.7402 139.629 79.4618 139.211 79.6474 139.072C80.0651 138.654 80.1115 138.654 81.5968 139.443ZM97.7953 156.245C97.8881 157.359 97.8417 158.241 97.6096 158.241C97.2383 158.241 94.4071 151.697 93.4324 148.726C93.2931 148.216 94.1286 149.237 95.3354 151C96.867 153.228 97.6096 154.853 97.7953 156.245Z" fill="black"/>
<path d="M42.6553 132.852C42.6553 132.991 43.4907 136.333 44.5118 140.232C45.4865 144.131 46.5541 148.772 46.8325 150.536C47.5752 155.131 47.4823 162.696 46.6933 165.296C45.765 168.313 46.5541 167.663 47.7608 164.367C50.2672 157.73 49.0604 144.084 45.3009 136.658C44.3726 134.802 42.6553 132.342 42.6553 132.852Z" fill="black"/>
<path d="M57.5078 133.455C57.5078 133.965 58.3433 135.776 59.3644 137.539C61.7779 141.67 61.9636 146.08 59.5964 142.784L58.8074 141.763L59.1323 142.877C59.318 143.48 59.7821 144.734 60.1534 145.615C60.8032 147.193 60.8496 147.193 61.4994 146.265C61.9171 145.662 62.4741 145.383 62.8918 145.569C64.3771 146.126 66.2801 151.742 64.9805 151.742C64.3771 151.742 63.2632 150.582 62.2885 148.957C60.9425 146.683 60.8496 147.379 61.9171 151.139C63.5416 156.708 64.4699 164.413 64.4699 171.839V178.569L66.4657 178.337C69.297 178.012 69.529 177.873 70.0396 176.527C70.8751 174.346 71.3392 167.708 70.9215 163.299C70.4109 157.729 69.0649 152.995 66.5585 147.658C63.2632 140.742 57.5078 131.691 57.5078 133.455Z" fill="black"/>
<path d="M189.324 134.663C186.91 140.093 186.493 144.92 187.699 153.6C188.071 156.292 188.396 159.865 188.396 161.536C188.396 163.95 188.581 164.785 189.277 165.389C189.881 165.946 190.391 167.385 190.763 169.705C191.088 171.655 191.691 173.604 192.155 174.161C192.851 174.996 192.991 175.043 193.037 174.393C193.037 173.186 193.919 172.908 194.94 173.836C196.379 175.136 196.518 174.207 195.172 171.19C193.362 167.013 192.619 161.583 192.109 149.422C191.691 139.443 191.134 133.409 190.484 132.806C190.391 132.667 189.834 133.502 189.324 134.663Z" fill="black"/>
<path d="M47.1578 134.523C47.2971 135.034 47.8076 135.776 48.2718 136.241C49.1072 136.983 49.1537 136.983 49.1537 136.101C49.1537 135.266 47.8541 133.641 47.2043 133.641C47.0186 133.641 47.0186 134.059 47.1578 134.523Z" fill="black"/>
<path d="M165.467 140.418C166.302 147.659 166.627 149.515 167.37 151.001C168.298 152.996 168.948 153.182 168.669 151.372C168.576 150.676 168.344 148.355 168.205 146.22C167.927 142.135 167.23 139.861 165.977 138.794C165.235 138.237 165.235 138.376 165.467 140.418Z" fill="black"/>
<path d="M51.0557 143.528C52.773 148.912 53.7941 155.039 53.7941 159.959C53.7941 163.672 53.7477 163.811 52.4017 164.832C50.7772 166.039 50.1739 167.478 51.0557 168.035C51.8912 168.546 54.7688 168.546 55.6043 168.035C56.6718 167.339 56.022 155.875 54.5832 150.351C53.5157 146.313 50.9165 139.955 50.081 139.444C49.8954 139.305 50.3131 141.161 51.0557 143.528Z" fill="black"/>
<path d="M101.601 144.734C101.601 145.012 101.972 145.43 102.436 145.662C102.947 145.94 104.385 148.215 105.731 150.721C108.284 155.595 110.883 158.751 110.883 157.033C110.93 155.502 114.318 159.725 116.592 164.181C117.753 166.409 120.305 172.953 122.255 178.755C124.947 186.599 126.061 189.291 126.618 189.291C127.035 189.291 127.917 189.43 128.567 189.57L129.727 189.895L129.588 186.924C128.892 175.831 125.04 165.945 116.685 153.831C114.225 150.257 111.951 147.054 111.58 146.683C111.069 146.173 110.651 146.173 108.748 146.822C105.685 147.843 104.617 147.797 104.014 146.451C103.457 145.244 101.601 143.945 101.601 144.734Z" fill="black"/>
<path d="M138.175 149.795C136.597 149.981 136.597 150.12 137.989 151.791C138.592 152.487 139.196 153.369 139.289 153.647C139.428 154.019 139.799 154.111 140.356 153.879C141.006 153.647 141.099 153.462 140.681 153.044C140.356 152.719 140.124 151.93 140.124 151.234C140.124 149.748 139.892 149.563 138.175 149.795Z" fill="black"/>
<path d="M283.729 150.676C283.868 151.14 284.564 155.178 285.353 159.634C286.096 164.09 287.164 168.917 287.721 170.309C288.695 172.908 289.856 174.811 290.227 174.44C290.645 174.022 289.02 160.562 288.138 157.36C287.628 155.503 286.607 153.043 285.818 151.929C284.425 149.887 283.265 149.191 283.729 150.676Z" fill="black"/>
<path d="M156.369 153.738C156.369 153.831 157.205 156.384 158.272 159.447C159.757 163.717 160.268 165.945 160.5 169.38L160.778 173.789L162.403 174.021C163.981 174.253 164.027 174.299 163.795 175.878C163.285 179.591 163.563 184.928 164.445 186.785C164.909 187.806 165.373 188.363 165.513 188.038C165.884 187.11 166.859 187.388 167.509 188.641C167.833 189.291 168.298 189.802 168.483 189.802C168.808 189.802 170.757 185.068 170.757 184.278C170.757 184.046 170.154 182.561 169.411 180.937C168.669 179.312 167.184 175.042 166.116 171.468C163.749 163.624 161.289 158.101 158.922 155.548C157.437 153.877 156.369 153.135 156.369 153.738Z" fill="black"/>
<path d="M142.028 160.701C141.703 163.301 141.656 165.018 141.935 165.807C142.631 167.571 143.281 167.71 143.606 166.132C144.163 163.672 144.534 164.647 144.441 168.313C144.395 170.309 144.488 171.562 144.627 171.098C144.952 169.845 146.251 170.356 146.669 171.887C147.087 173.465 146.855 173.976 146.066 173.187C144.534 171.655 144.441 173.187 145.462 179.963C146.437 186.276 146.623 186.879 147.087 186.136C147.272 185.765 147.783 185.626 148.201 185.765C149.454 186.276 149.036 188.132 147.319 189.803C145.602 191.474 145.23 193.052 146.391 193.98C146.994 194.444 147.087 194.398 147.087 193.47C147.087 192.449 147.226 192.495 148.665 194.166L150.197 196.022L150.475 193.748C151.218 188.596 150.661 178.478 149.361 172.398C148.154 166.689 145.045 159.309 142.956 157.174C142.77 156.988 142.353 158.566 142.028 160.701Z" fill="black"/>
<path d="M173.542 162.882C173.542 163.161 174.702 166.549 176.141 170.448C182.082 186.6 183.799 192.216 184.681 198.389C184.913 200.153 185.146 201.917 185.146 202.242C185.146 202.566 185.378 202.706 185.61 202.566C185.935 202.381 186.074 204.052 186.027 207.579C185.935 212.963 186.399 214.866 187.698 214.866C188.255 214.866 188.394 213.845 188.394 209.157C188.348 196.672 184.635 183.258 176.28 165.435C175.352 163.439 173.542 161.769 173.542 162.882Z" fill="black"/>
<path d="M84.8916 164.646C84.8916 166.271 85.3093 166.735 86.1448 166.085C86.9802 165.389 86.9338 163.95 86.0055 163.625C84.938 163.207 84.8916 163.254 84.8916 164.646Z" fill="black"/>
<path d="M208.631 165.018C206.543 168.081 207.378 173.047 210.442 176.157C211.138 176.853 211.973 178.431 212.344 179.638C212.716 180.891 214.062 184.372 215.361 187.389C216.661 190.36 218.007 193.934 218.378 195.326C218.703 196.719 219.167 197.972 219.307 198.111C219.91 198.668 219.028 187.9 218.1 183.351C216.615 175.925 213.505 167.942 210.72 164.322L209.885 163.208L208.631 165.018ZM211.37 175.786C210.952 176.204 210.163 173.883 210.488 173.187C210.72 172.583 210.906 172.815 211.184 174.022C211.37 174.904 211.463 175.693 211.37 175.786Z" fill="black"/>
<path d="M201.669 167.849C202.087 168.777 202.783 171.887 203.294 174.764C203.804 177.642 204.454 180.659 204.825 181.448C205.382 182.794 205.475 182.84 205.707 181.959C205.846 181.402 206.171 180.984 206.403 180.984C206.96 180.984 208.353 184.883 208.353 186.414C208.353 187.9 207.146 187.76 206.311 186.182C205.104 184.047 205.522 185.997 206.728 188.41C207.378 189.71 207.889 191.52 207.889 192.541C207.889 194.119 208.121 194.49 209.467 195.372C210.859 196.208 211.138 196.672 211.37 198.528C211.555 199.735 212.02 201.963 212.391 203.495C212.809 205.026 213.273 208.136 213.412 210.41C213.644 213.659 213.876 214.634 214.526 215.052C215.176 215.423 215.454 215.423 215.779 214.866C216.429 213.845 216.336 208.554 215.547 203.17C215.176 200.524 214.758 197.322 214.712 196.068C214.619 194.398 214.201 193.144 213.18 191.659C211.509 189.246 210.766 187.389 208.26 179.824C206.218 173.604 204.222 169.334 202.551 167.385C201.066 165.714 200.834 165.806 201.669 167.849Z" fill="black"/>
<path d="M252.447 176.203C255.696 185.022 256.392 187.946 256.345 193.051C256.299 195.836 256.021 198.203 255.556 199.41L254.814 201.359L256.067 201.499C258.063 201.731 258.48 203.262 258.48 209.76C258.434 217.372 258.434 217.279 258.898 217.001C259.362 216.676 259.78 212.963 260.151 205.537C260.523 198.807 259.734 193.608 256.67 181.912C255.417 177.178 254.257 172.629 254.071 171.794C253.793 170.448 253.607 170.308 251.982 170.308H250.219L252.447 176.203Z" fill="black"/>
<path d="M269.666 179.638C269.527 186.136 269.527 186.182 270.734 187.435C271.801 188.549 271.94 189.106 271.987 192.17C271.987 194.119 271.755 198.064 271.43 201.035C271.012 205.166 271.012 206.744 271.43 207.95C271.801 209.018 271.801 209.575 271.476 209.668C270.641 209.946 269.62 212.453 269.62 214.263C269.62 216.259 269.945 216.908 271.151 217.326C272.265 217.744 273.101 215.748 273.983 210.596C276.025 198.761 274.957 183.212 271.616 175.786C270.966 174.3 270.316 173.094 270.13 173.094C269.991 173.094 269.759 176.018 269.666 179.638Z" fill="black"/>
<path d="M186.771 174.718C186.957 175.229 187.282 179.081 187.467 183.305C187.839 190.731 188.489 194.027 189.927 195.744C190.391 196.347 190.531 196.115 190.716 194.398C191.041 191.706 191.737 191.938 192.434 195.001C193.13 197.879 192.898 198.807 191.645 198.482C190.856 198.297 190.809 198.343 191.413 199.271C191.737 199.782 192.666 202.335 193.455 204.888C194.847 209.39 196.332 212.546 197.122 212.546C198.003 212.546 195.543 195.698 193.687 189.107C192.48 184.883 188.721 176.436 187.235 174.718L186.446 173.79L186.771 174.718Z" fill="black"/>
<path d="M227.569 175.554C227.754 176.575 228.636 179.035 229.565 181.124C231.792 186.183 232.117 187.343 231.328 187.668C230.957 187.807 230.354 188.411 229.982 189.014C228.404 191.381 230.911 195.837 233.835 195.837C234.624 195.837 235.273 195.651 235.273 195.419C235.273 194.073 233.278 184.883 232.489 182.655C231.375 179.36 229.379 175.693 228.172 174.626C227.244 173.79 227.244 173.837 227.569 175.554Z" fill="black"/>
<path d="M236.665 174.765C236.665 175.043 237.083 177.642 237.593 180.566C238.29 184.512 238.986 186.693 240.193 189.107C242.049 192.588 243.627 199.132 243.627 203.17C243.627 205.166 243.395 205.816 242.467 206.79C241.074 208.183 241.028 208.368 242.142 208.368C242.606 208.368 243.349 208.647 243.859 208.972C244.648 209.575 244.648 209.714 243.674 212.592C242.885 215.006 242.792 215.609 243.302 216.12C243.627 216.491 244.277 216.63 244.695 216.444C246.69 215.702 244.741 195.465 241.678 184.929C240.285 180.102 236.758 172.908 236.665 174.765Z" fill="black"/>
<path d="M90.7402 177.039C90.4153 177.967 90.8795 180.056 91.4365 180.056C91.947 180.056 91.947 177.689 91.4365 176.9C91.1116 176.389 90.9723 176.435 90.7402 177.039Z" fill="black"/>
<path d="M287.628 177.875C286.096 178.617 285.864 178.942 285.864 180.335C285.864 181.773 286.096 182.052 287.489 182.655C289.299 183.398 289.392 183.63 288.463 185.858C287.999 186.925 287.442 187.482 286.885 187.482C285.957 187.482 285.957 187.482 286.885 189.2C287.628 190.685 287.721 191.52 287.442 194.398C287.164 197.74 287.164 197.786 288.139 197.276C288.649 196.951 289.577 195.837 290.088 194.769C290.923 193.145 291.109 192.031 291.063 188.411C291.063 184.93 289.949 177.271 289.438 177.039C289.392 177.039 288.556 177.411 287.628 177.875Z" fill="black"/>
<path d="M264.05 184.372C264.05 187.111 264.235 188.085 264.932 188.921C266.974 191.427 267.809 187.018 265.953 183.444C264.421 180.381 264.05 180.566 264.05 184.372Z" fill="black"/>
<path d="M279.182 181.681C279.414 182.191 279.692 190.314 279.831 199.782C279.971 209.204 280.203 216.306 280.388 215.563C281.688 210.179 282.802 200.478 282.802 194.677C282.848 187.482 282.245 184.698 280.017 182.145C279.228 181.216 278.95 181.077 279.182 181.681Z" fill="black"/>
<path d="M100.441 185.532C100.255 186.367 99.2804 188.967 98.2592 191.334C92.5039 204.562 91.9005 209.621 95.6601 213.566L97.1453 215.098L97.5166 211.709C97.9343 207.718 98.8626 204.051 100.673 199.131C102.529 194.026 103.086 190.73 102.483 187.992C102.204 186.739 101.74 185.346 101.415 184.882C100.858 184.139 100.766 184.186 100.441 185.532Z" fill="black"/>
<path d="M247.805 188.039C247.805 189.756 248.687 191.705 249.568 192.03C250.311 192.262 250.357 187.899 249.568 187.11C248.547 186.089 247.805 186.507 247.805 188.039Z" fill="black"/>
<path d="M59.8288 191.798C59.8288 193.191 59.4111 194.862 58.7149 196.208C56.8119 200.06 56.719 202.334 58.4364 202.334C60.1537 202.334 60.7571 202.891 60.7571 204.423C60.7571 205.537 60.525 206.001 59.8288 206.187C58.5756 206.512 58.622 208.043 60.1537 213.938C61.6389 219.879 61.4997 220.668 58.9005 220.25C57.8794 220.111 57.0439 220.157 57.0439 220.389C57.0439 221.132 59.9216 224.381 60.4786 224.242C60.7571 224.149 61.4069 223.685 61.9638 223.174C62.8921 222.292 62.8921 222.292 63.8668 224.567C64.3774 225.82 65.2592 227.073 65.8162 227.352C67.0694 228.048 67.1158 227.398 66.0019 225.495C65.3985 224.474 65.3056 224.056 65.7698 223.592C66.7445 222.617 67.023 223.685 67.255 229.626L67.4871 235.474L69.715 236.263C70.9682 236.727 73.4281 238.166 75.2382 239.466C79.0906 242.297 81.0864 243.132 81.6434 242.25C82.0611 241.601 82.3396 241.74 88.327 244.942C89.8123 245.778 91.4832 246.428 92.0401 246.428C92.922 246.381 92.922 246.288 91.6224 245.221C90.8798 244.618 86.8882 242.39 82.8037 240.347C78.7193 238.305 74.7277 236.217 73.8922 235.706L72.407 234.778L73.3817 233.803C74.1707 233.014 74.31 232.457 74.1243 230.461C73.9387 228.001 72.1749 223.685 71.3859 223.685C71.1538 223.685 70.9682 224.195 70.9682 224.845C70.9682 225.449 70.5968 226.191 70.0863 226.423C69.0652 226.98 68.6475 226.655 68.6475 225.356C68.6475 224.799 68.1369 222.757 67.4871 220.761C66.8373 218.765 66.3268 216.119 66.3268 214.913C66.3268 213.288 66.1411 212.545 65.5841 212.36C65.2128 212.221 64.1453 210.503 63.2634 208.554L61.6389 204.98L61.9638 198.668L62.2887 192.309L61.082 190.963L59.8752 189.571L59.8288 191.798Z" fill="black"/>
<path d="M173.822 192.913C173.218 195.744 171.223 209.39 171.223 210.968C171.223 211.339 171.687 211.618 172.383 211.618C173.079 211.618 173.822 212.036 174.286 212.778C174.704 213.428 175.214 213.938 175.446 213.938C175.678 213.938 176.328 212.407 176.885 210.55C177.767 207.812 177.953 206.141 177.953 201.407C177.953 195.234 177.256 192.17 175.446 190.546C174.611 189.757 174.518 189.85 173.822 192.913Z" fill="black"/>
<path d="M78.8581 192.263C78.8581 192.866 77.9762 195.141 76.9087 197.276C74.588 202.01 73.9382 206.048 75.5163 206.048C79.1366 206.048 81.8286 198.668 80.2041 192.913C79.6935 191.01 78.8581 190.592 78.8581 192.263Z" fill="black"/>
<path d="M226.454 192.542C226.454 192.774 226.686 193.563 226.918 194.212C227.197 194.909 227.707 198.807 228.125 202.938C229.1 213.149 229.657 213.66 229.703 204.331C229.703 198.483 229.564 196.719 229.053 196.44C228.728 196.255 228.171 195.28 227.893 194.352C227.336 192.681 226.454 191.567 226.454 192.542Z" fill="black"/>
<path d="M265.303 195.048C265.442 195.883 265.21 199.411 264.792 202.846C264.375 206.28 264.003 210.736 264.003 212.639C264.003 215.934 263.911 216.213 262.982 216.352C262.054 216.491 261.915 216.863 261.729 219.74C261.543 222.525 261.265 223.361 260.012 225.078C258.202 227.538 258.016 228.791 259.548 228.791C260.337 228.791 260.708 228.42 261.033 227.259C261.404 226.145 262.054 225.449 263.957 224.475C266.37 223.175 266.37 223.175 266.37 220.854C266.37 219.601 266.881 216.584 267.531 214.124C268.181 211.664 268.691 208.647 268.691 207.441C268.691 203.867 267.763 198.065 266.835 196.023C265.767 193.516 264.932 193.006 265.303 195.048Z" fill="black"/>
<path d="M250.59 203.309C250.59 206.233 250.173 211.432 249.708 214.866C249.198 218.301 248.641 222.246 248.502 223.592C248.177 226.238 248.594 231.575 249.151 231.575C249.569 231.575 251.286 224.706 251.983 220.204C252.772 215.33 252.632 206.419 251.751 202.102C251.333 200.06 250.869 198.296 250.776 198.204C250.683 198.111 250.59 200.385 250.59 203.309Z" fill="black"/>
<path d="M169.179 198.946C168.622 199.503 168.901 202.799 169.504 202.799C171.221 202.799 171.871 199.921 170.339 199.132C169.875 198.854 169.365 198.807 169.179 198.946Z" fill="black"/>
<path d="M114.828 201.732C114.828 204.934 115.664 205.491 116.731 202.985C117.659 200.803 117.288 199.086 115.849 199.086C114.921 199.086 114.828 199.318 114.828 201.732Z" fill="black"/>
<path d="M235.041 200.942C234.902 201.174 234.345 201.406 233.881 201.406C233.277 201.406 233.092 201.638 233.231 202.056C233.37 202.427 233.185 203.355 232.767 204.098C231.978 205.583 232.256 206.372 233.277 205.537C233.742 205.119 234.159 205.258 235.041 206.233C237.13 208.461 238.012 207.44 237.13 203.773C236.573 201.36 235.598 200.06 235.041 200.942Z" fill="black"/>
<path d="M110.188 202.474C108.517 203.866 106.382 211.617 107.635 211.617C108.702 211.617 109.723 212.824 110.884 215.516C112.09 218.208 112.555 218.115 111.58 215.331C110.698 212.824 110.698 211.339 111.719 206.744C112.926 201.406 112.555 200.432 110.188 202.474Z" fill="black"/>
<path d="M67.9047 207.904C68.0903 213.984 68.508 216.258 69.9469 218.486C70.7823 219.739 71.2465 219.507 70.5503 218.161C70.2718 217.651 69.7148 214.355 69.2971 210.828C68.2296 201.499 67.719 200.338 67.9047 207.904Z" fill="black"/>
<path d="M184.774 204.655C184.774 205.537 184.867 205.909 185.006 205.445C185.099 205.027 185.099 204.284 185.006 203.82C184.867 203.402 184.774 203.774 184.774 204.655Z" fill="black"/>
<path d="M234.902 210.039L233.417 210.689L234.902 213.334C236.527 216.212 236.898 219.739 235.784 221.085C234.856 222.199 236.295 222.06 237.316 220.946C238.058 220.157 238.105 219.415 237.78 214.68C237.594 211.199 237.269 209.296 236.944 209.343C236.666 209.343 235.738 209.668 234.902 210.039Z" fill="black"/>
<path d="M87.259 217.882C87.2126 222.524 87.6767 223.916 88.7907 222.756C89.3476 222.152 89.3012 221.503 88.3729 217.882L87.259 213.705V217.882Z" fill="black"/>
<path d="M97.5168 221.55C97.7489 225.402 99.5591 229.812 101.23 230.694C101.973 231.111 102.112 231.065 101.926 230.554C101.787 230.229 100.812 227.305 99.7447 224.01C98.7236 220.761 97.7025 218.115 97.5633 218.115C97.424 218.115 97.424 219.647 97.5168 221.55Z" fill="black"/>
<path d="M79.5081 222.339C79.6474 223.221 80.2044 224.335 80.7149 224.845C81.6432 225.727 81.6432 225.727 81.6432 224.288C81.6432 222.153 82.3394 222.061 83.4998 223.917C84.5209 225.588 85.0778 225.913 85.5884 225.031C86.2382 224.056 83.5926 222.107 80.2972 221.132C79.2297 220.807 79.1833 220.854 79.5081 222.339Z" fill="black"/>
<path d="M125.271 222.571C125.271 223.314 126.014 225.681 126.942 227.862C129.774 234.685 130.47 237.145 130.145 239.559L129.866 241.787H131.305C132.373 241.787 132.837 242.065 133.115 242.854C134.09 245.453 135.483 255.664 135.483 260.399C135.483 264.622 135.575 265.365 136.179 265.179C137.525 264.622 138.732 261.141 138.732 257.66C138.732 252.74 136.597 243.922 133.626 236.449C132.141 232.69 127.731 224.335 126.153 222.339L125.271 221.225V222.571Z" fill="black"/>
<path d="M135.716 222.061C136.551 224.66 137.804 230.601 137.804 232.086C137.804 233.014 137.572 234.407 137.294 235.196C136.829 236.542 136.922 236.774 138.408 238.166C140.821 240.487 141.703 244.757 140.543 248.888C140.125 250.42 140.218 250.977 141.146 252.833C142.028 254.69 142.213 255.711 142.167 259.424C142.167 263.369 141.935 264.529 139.986 270.47C137.294 278.593 137.294 278.779 139.429 278.547C140.311 278.454 141.053 278.454 141.053 278.593C141.053 278.732 140.682 279.753 140.218 280.867C139.707 281.981 139.197 283.652 139.057 284.673L138.779 286.437L140.311 286.158C142.353 285.787 142.631 286.251 141.378 287.922C139.846 289.964 139.614 290.846 140.403 291.496C142.492 293.213 147.83 283.141 148.944 275.298C149.361 272.141 149.176 269.171 148.387 267.639C148.062 266.989 148.201 266.85 149.083 266.85C150.893 266.85 151.775 265.365 152.239 261.698C152.657 258.403 153.539 256.639 154.792 256.639C155.952 256.639 155.998 258.867 154.977 263.137C153.956 267.639 154.049 269.821 155.256 268.614C155.627 268.243 156.231 266.2 156.648 264.019C157.53 259.006 158.041 257.753 158.876 258.449C159.897 259.331 160.686 262.951 160.408 265.504C160.222 266.85 159.062 270.935 157.809 274.694C154.792 283.698 154.745 283.884 155.952 284.488C156.787 284.952 156.88 285.277 156.602 287.504C156.231 290.196 156.555 291.31 157.437 290.614C158.366 289.918 160.547 289.639 160.547 290.289C160.547 290.568 159.804 291.821 158.923 293.074C158.041 294.327 157.391 295.441 157.484 295.488C157.577 295.58 158.18 295.395 158.83 295.116C159.619 294.791 160.501 293.538 161.429 291.635C162.821 288.711 163.842 287.736 165.606 287.736C166.488 287.736 166.581 288.015 166.581 291.078C166.581 293.445 166.72 294.281 167.091 293.91C167.37 293.631 167.602 290.661 167.648 286.437C167.741 280.31 167.834 279.382 168.623 278.5C169.876 277.154 171.129 277.247 171.733 278.779C172.011 279.521 172.383 283.374 172.615 287.412C172.94 293.677 173.172 295.07 174.1 296.926C174.935 298.597 175.585 299.247 176.931 299.758C177.859 300.129 178.741 300.315 178.881 300.175C178.973 300.083 178.788 298.876 178.416 297.483C175.492 286.715 175.121 263.044 177.535 246.474C178.509 240.069 178.277 233.896 177.07 232.55C176.56 231.993 176.049 231.576 175.91 231.576C175.771 231.576 175.678 235.196 175.771 239.559C175.864 243.968 175.724 249.491 175.446 251.766C174.889 256.5 173.729 260.816 173.032 260.816C172.754 260.816 172.151 259.888 171.686 258.821C170.897 257.103 170.805 255.85 170.897 250.095C170.99 243.457 170.99 243.365 169.226 238.306C168.159 235.149 167.323 231.715 167.045 229.162C166.488 223.592 165.467 221.829 162.775 221.829C161.893 221.829 161.847 222.014 162.125 224.242C162.311 225.588 163.471 230.786 164.724 235.753C167.741 247.913 168.437 251.812 168.437 256.825C168.437 260.956 167.695 265.272 166.72 266.989C166.302 267.778 166.163 267.639 165.281 265.829C164.771 264.669 163.982 262.534 163.61 261.002C162.868 258.217 161.29 246.428 160.547 238.538C159.99 232.689 159.712 231.715 158.551 230.879C156.463 229.44 156.37 230.229 157.809 236.681C158.598 240.116 158.69 241.369 158.273 242.344C157.994 243.086 157.623 243.643 157.391 243.643C157.205 243.643 156.648 242.344 156.231 240.719C153.724 231.993 152.517 228.698 151.171 226.656C149.64 224.381 146.53 221.875 146.252 222.664C146.159 222.942 147.69 226.238 149.593 230.044C151.496 233.803 153.353 238.027 153.771 239.419C154.606 242.204 154.745 248.563 154.049 249.677C153.678 250.234 153.585 250.095 153.585 249.074C153.585 247.449 152.193 244.664 150.614 243.225C149.779 242.436 149.5 241.787 149.686 241.09C149.825 240.533 149.64 239.28 149.222 238.352C148.526 236.681 146.159 233.293 145.88 233.571C145.787 233.618 146.252 235.66 146.901 238.073C147.922 242.158 149.408 250.234 149.408 252.091C149.408 252.555 148.99 252.926 148.387 253.019C146.994 253.204 146.716 254.458 146.669 260.445C146.623 265.04 146.066 267.778 145.184 267.778C144.534 267.778 144.349 266.293 143.374 254.55C142.399 242.576 141.564 236.17 140.311 231.39C139.475 228.234 137.386 223.453 136.18 222.061L135.391 221.132L135.716 222.061ZM159.062 246.521C159.897 247.356 159.804 252.926 158.923 252.926C157.901 252.926 157.298 251.348 157.298 248.563C157.298 245.917 157.855 245.314 159.062 246.521Z" fill="black"/>
<path d="M271.569 223.453C270.687 225.356 270.873 226.934 271.94 226.934C272.915 226.934 273.518 225.448 273.24 223.638C273.054 222.153 272.172 222.06 271.569 223.453Z" fill="black"/>
<path d="M88.2805 226.47C88.4198 227.444 88.9767 228.837 89.4873 229.533C90.7405 231.157 90.462 231.389 88.1413 230.647C87.1202 230.322 86.1919 230.136 86.0526 230.275C85.4957 230.786 86.4704 233.432 87.77 235.01C88.8375 236.356 89.3016 236.588 89.8122 236.216C90.694 235.474 92.0865 236.031 92.7363 237.423C93.3861 238.909 93.0148 239.605 91.808 239.001C91.2046 238.676 90.9261 238.676 90.9261 238.955C90.9261 239.419 94.5928 241.554 94.8249 241.229C94.9177 241.136 95.289 240.44 95.6604 239.651C96.3566 238.212 96.3566 238.166 95.289 237.655C93.7574 236.959 92.5506 234.824 91.5759 231.157C90.1371 225.588 87.6771 222.153 88.2805 226.47Z" fill="black"/>
<path d="M211.138 226.655C211.138 228.28 211.602 229.208 212.577 229.765C213.366 230.183 213.458 230.043 213.458 227.862C213.458 225.68 213.366 225.541 212.298 225.541C211.37 225.541 211.138 225.773 211.138 226.655Z" fill="black"/>
<path d="M15.2708 236.494C14.9459 237.376 14.8531 238.258 14.9923 238.444C15.5493 238.954 17.7308 236.355 17.4523 235.566C16.9417 234.267 15.8278 234.777 15.2708 236.494Z" fill="black"/>
<path d="M218.38 237.47C218.519 238.444 218.287 240.765 217.916 242.622C217.08 246.427 216.987 249.119 217.591 250.094C218.101 250.883 218.287 249.909 219.076 243.55C219.586 239.048 219.401 235.752 218.519 235.752C218.287 235.752 218.194 236.495 218.38 237.47Z" fill="black"/>
<path d="M111.626 243.55C111.441 243.921 116.175 248.748 116.732 248.748C117.196 248.748 115.804 246.567 114.226 244.896C112.508 243.132 112.044 242.9 111.626 243.55Z" fill="black"/>
<path d="M270.687 247.217C270.269 248.98 270.315 249.584 270.78 250.094C272.404 251.765 274.075 248.284 272.683 246.196C272.265 245.546 271.754 245.035 271.569 245.035C271.383 245.035 270.965 246.01 270.687 247.217Z" fill="black"/>
<path d="M215.779 253.716C215.779 255.34 216.429 256.5 216.893 255.758C217.311 255.062 216.754 252.462 216.197 252.462C215.965 252.462 215.779 253.019 215.779 253.716Z" fill="black"/>
<path d="M226.269 255.061C225.573 256.871 226.13 261.095 226.966 260.538C227.198 260.398 227.383 259.052 227.383 257.567C227.383 254.875 226.826 253.622 226.269 255.061Z" fill="black"/>
<path d="M227.197 264.205C226.687 264.576 226.408 265.086 226.501 265.365C226.733 266.015 228.822 265.086 229.147 264.158C229.379 263.415 228.265 263.462 227.197 264.205Z" fill="black"/>
<path d="M151.496 289.407C150.568 290.614 150.382 291.217 150.754 291.589C151.032 291.867 151.31 292.006 151.357 291.867C151.45 291.774 151.96 291.032 152.564 290.196C154.467 287.412 153.538 286.715 151.496 289.407Z" fill="black"/>
<path d="M89.7184 311.221C89.904 311.639 90.3682 313.913 90.7395 316.234C91.6213 321.2 91.4357 329.23 90.2289 335.774C89.5791 339.441 85.6803 357.124 85.0305 359.352C84.8449 360.095 84.9377 360.141 85.6803 359.724C87.4905 358.795 89.5791 356.196 90.5074 353.69C91.8534 349.977 94.5454 338.93 95.1488 334.196C95.8914 328.626 95.4273 320.086 94.0813 314.888L93.0138 310.71L91.2036 310.571C89.6719 310.432 89.4399 310.525 89.7184 311.221Z" fill="black"/>
</svg>
