<svg width="613" height="824" viewBox="0 0 613 824" fill="none" xmlns="http://www.w3.org/2000/svg">
<path d="M279.283 0.740715C258.929 5.89353 239.155 33.7832 231.619 68.0494C225.822 94.5864 225.436 122.476 230.589 142.701C231.941 148.047 232.263 153.393 231.297 153.973C230.331 154.617 227.69 152.04 225.951 148.755C224.985 147.081 223.181 142.057 221.893 137.741C218.93 127.758 217.707 124.859 215.13 121.896C211.588 117.903 208.045 119.191 206.113 125.117C205.533 126.856 205.597 128.015 206.435 130.978C207.916 136.067 209.204 138.385 214.228 145.084C216.547 148.24 219.252 152.362 220.09 154.23C222.151 158.61 221.764 160.542 218.479 161.895C216.418 162.797 215.195 162.797 208.947 162.088C199.414 160.993 195.421 161.444 189.559 164.343C163.924 177.031 147.564 227.4 154.327 272.874C154.842 276.61 156.324 284.274 157.483 289.943C158.707 295.611 159.544 300.377 159.351 300.506C159.222 300.699 148.594 300.441 135.712 299.991C80.3196 298.123 56.1013 296.062 47.5347 292.455C33.3001 286.464 18.3569 288.332 8.11569 297.414C3.60697 301.408 0 306.174 0 308.171C0 311.52 12.3668 321.053 20.0316 323.694C26.4726 325.819 29.8219 325.497 48.8874 320.859C75.7464 314.354 87.3403 313.13 123.668 313.13C145.245 313.13 150.913 313.323 156.517 314.225C178.416 317.768 186.854 324.724 191.234 342.823C194.004 354.031 201.282 364.53 215.001 376.832C227.368 387.975 233.809 395.124 233.809 397.894C233.809 400.535 227.497 401.888 210.943 402.918C201.153 403.562 196.194 404.722 194.712 406.654C193.037 408.844 196.322 411.485 201.475 412.193C206.435 412.837 208.431 415.8 209.333 423.594C210.106 430.421 213.327 439.89 219.574 453.351C227.239 470.098 227.69 471.901 227.626 485.106C227.561 502.561 224.405 519.114 220.09 524.847C218.093 527.552 215.388 529.162 206.821 532.962C203.15 534.637 199.028 537.922 199.028 539.21C199.028 541.207 190.654 543.01 176.806 543.976C166.5 544.685 161.412 546.038 155.293 549.645C147.371 554.347 140.479 560.659 99.0629 600.786L84.0553 615.279L68.9189 614.506C23.0589 612.122 8.8242 614.699 5.73251 626.035C4.76636 629.771 5.86133 635.181 8.1801 637.565C11.5294 641.043 15.2008 641.622 32.8492 641.494C41.5446 641.494 53.9114 640.978 60.4168 640.463C71.2377 639.626 72.4615 639.368 76.1973 637.565C84.5706 633.378 91.2693 627.452 118.837 599.756C145.954 572.575 154.585 564.395 158.578 562.333C161.348 560.852 171.138 560.401 177.643 561.432C184.6 562.527 193.939 565.683 196.58 567.873C198.126 569.161 198.963 570.513 199.221 571.995C199.736 575.151 201.411 577.405 204.309 578.887C205.662 579.595 206.757 580.561 206.757 581.012C206.757 583.589 196.516 589.579 185.952 593.121C181.508 594.603 178.481 595.183 173.908 595.376C166.629 595.698 164.568 596.406 163.666 598.661C163.344 599.627 162.893 604.586 162.765 609.739C162.378 622.815 158.707 640.012 151.364 663.844C140.608 698.819 137.838 710.219 137.194 722.779C136.55 733.793 134.939 740.492 127.21 763.358C119.095 787.447 116.583 797.431 116.583 805.482C116.583 815.53 120.64 810.313 126.888 792.342C135.519 767.287 143.248 733.02 144.021 716.338C144.472 707.836 145.181 703.778 146.404 703.778C146.855 703.778 148.594 705.26 150.269 707.128C153.812 710.992 153.683 711.314 151.75 702.168C150.591 696.886 150.462 692.378 151.364 686.065C152.266 679.882 156.002 666.807 156.581 667.837C156.839 668.288 158.256 673.441 159.802 679.238C161.283 685.099 162.7 689.479 162.829 689.093C162.958 688.642 162.765 685.421 162.378 681.814C160.961 669.126 161.927 655.857 165.212 642.138C168.69 627.517 173.07 621.333 176.291 626.293C177.965 628.869 177.643 632.863 175.325 637.887C172.813 643.426 171.396 651.413 170.88 662.878C170.494 671.831 171.396 682.136 172.684 684.584C173.65 686.323 175.067 686.001 176.226 683.682C177.643 680.913 178.159 671.702 177.128 666.742C174.809 655.149 174.874 654.311 177.965 655.857C182.989 658.498 193.617 653.345 196.773 646.711C197.675 644.714 197.739 644.006 197.031 641.236C196 637.307 196.644 635.89 199.543 635.632C202.57 635.31 204.438 637.5 203.858 640.527C202.248 649.287 190.139 685.615 181.894 706.548C177.965 716.467 176.098 720.46 173.65 724.067C170.88 728.125 166.758 739.719 163.602 752.215L160.575 764.259L160.188 758.012C159.931 754.598 159.737 747.835 159.737 743.068C159.673 728.898 158.127 716.016 156.517 716.016C154.069 716.016 152.717 726.644 152.008 751.442C151.042 786.674 149.754 800.973 146.533 814.306C144.021 824.29 144.665 825.836 149.496 822.164C151.75 820.49 153.103 818.557 155.937 812.825C160.832 803.163 164.182 793.824 172.233 767.544C181.766 736.37 196.644 692.828 197.739 692.828C197.933 692.828 199.092 704.358 200.316 718.464C201.99 737.529 202.57 747.32 202.506 756.917C202.506 772.44 201.668 776.369 195.743 790.668C188.851 807.092 186.79 814.757 188.915 815.594C190.268 816.11 194.905 813.598 196.129 811.73C198.126 808.767 201.346 808.252 209.204 809.797C211.137 810.184 211.33 810.055 212.232 807.865C213.649 804.58 213.455 795.176 211.588 771.087C209.011 737.722 208.625 726.064 208.045 673.183C207.465 614.634 207.272 612.96 201.926 606.197C198.706 602.139 198.577 601.688 200.895 603.041C207.337 606.841 210.815 612.638 213.133 623.265C215.066 632.605 215.452 635.954 220.283 691.862C222.795 720.525 225.371 749.832 226.08 756.917C228.334 779.525 231.748 803.099 233.423 807.994C235.291 813.404 238.189 809.926 239.091 801.038C239.864 793.308 241.023 789.766 246.305 778.816C248.946 773.47 253.583 763.358 256.675 756.273C267.818 730.637 277.093 712.796 283.083 705.453C290.49 696.307 297.768 682.716 305.24 664.102C312.712 645.358 315.224 642.073 323.017 640.592C328.363 639.626 342.92 640.141 346.012 641.494C352.066 644.07 357.026 650.833 369.393 673.505C379.119 691.218 386.526 706.033 388.651 712.023C392.451 722.779 392.967 726.966 393.546 756.273C394.191 788.929 395.35 802.004 397.669 805.224C398.506 806.384 398.57 806.384 399.215 805.16C401.469 800.973 402.499 785.128 403.208 743.068C403.788 710.477 404.432 699.463 406.106 691.862C406.364 690.767 407.974 687.032 409.713 683.489C414.673 673.377 417.056 662.62 420.277 635.568C421.114 628.354 422.016 622.299 422.209 622.042C422.467 621.848 422.531 638.144 422.338 658.369C422.016 702.104 421.758 705.131 413.127 765.934C411.13 779.718 409.456 793.759 409.456 797.044C409.327 802.906 409.391 803.099 411.13 804.645C412.419 805.74 413.707 806.19 415.51 806.19C418.86 806.19 420.856 804.258 422.145 799.685C423.368 795.37 424.399 780.555 424.528 765.29C424.592 758.913 424.785 751.635 425.043 749.187C425.43 744.743 425.494 744.936 427.619 759.429C432.193 790.796 435.155 799.878 442.176 804.001C444.688 805.418 446.17 805.804 451.065 806.062C461.177 806.577 463.818 804.451 461.242 797.946C458.794 791.763 459.631 791.763 467.618 798.268C476.249 805.16 481.144 807.285 481.144 804.001C481.144 799.943 475.476 785 464.527 760.073C455.251 739.011 450.743 727.932 448.617 720.847C447.651 717.626 444.173 708.351 440.888 700.236C431.677 677.306 430.196 671.766 431.613 664.295C432.321 660.43 436.444 650.318 437.345 650.318C437.603 650.318 437.99 652.83 438.183 655.921C438.698 663.264 441.21 668.675 445.461 671.573C453.384 677.048 469.679 708.995 491.45 761.747C502.851 789.379 506.071 796.336 510.902 803.421C512.963 806.448 514.187 806.77 517.214 805.224C522.753 802.326 522.303 792.6 516.248 785.257L514.638 783.325V785.257C514.638 786.288 515.217 789.379 515.926 792.02C516.634 794.661 517.214 797.688 517.214 798.783V800.716L515.668 798.783C512.963 795.498 510.773 790.539 510.773 787.769C510.773 784.549 513.027 779.976 517.085 774.952C522.367 768.382 523.397 769.09 530.032 783.582C535.249 795.112 538.663 800.587 540.273 800.265C543.429 799.685 541.239 790.152 531.449 762.585C526.811 749.381 525.394 743.197 525.781 737.272C525.909 734.502 525.716 730.702 525.201 728.383C523.269 719.108 512.577 689.93 504.01 670.607C495.959 652.443 490.419 642.589 488.165 642.589C486.555 642.589 485.009 639.11 485.009 635.375C485.009 623.265 478.439 610.126 467.103 599.305C462.981 595.44 459.825 593.121 455.96 591.125C449.648 587.84 447.973 586.487 446.234 583.073C444.044 578.822 443.271 571.608 442.434 549.838L441.725 528.969L443.078 527.874C446.363 525.233 464.204 523.043 478.89 523.558C493.189 524.009 495.057 525.491 513.414 549.967C519.726 558.404 527.971 569.805 531.771 575.28C541.69 589.708 544.717 591.898 552.704 590.352C558.823 589.128 565.651 589.965 574.732 593.057C582.462 595.633 582.719 595.698 589.676 595.376C597.534 595.054 602.042 593.766 606.68 590.416C613.057 585.779 614.86 578.565 610.931 572.897C609.836 571.415 607.26 568.968 605.07 567.551C599.595 563.815 594.764 562.398 587.743 562.398C582.462 562.398 581.496 562.591 576.794 564.717C569.773 567.873 565.779 568.71 559.66 568.388C555.281 568.13 553.799 567.679 548.968 565.296C544.138 562.913 542.334 561.496 535.893 555.055C531.513 550.611 525.137 543.204 520.435 536.956C511.61 525.233 501.627 514.734 495.637 510.87C486.941 505.202 477.988 503.012 460.855 502.432C444.559 501.917 438.634 500.178 438.634 495.926C438.634 495.089 438.247 493.479 437.732 492.255C436.959 490.323 436.057 489.485 431.613 486.136C430.003 484.977 430.003 484.977 431.098 482.143C431.677 480.597 433.803 477.248 435.735 474.8C447.78 459.535 452.611 451.677 455.38 442.595C458.472 432.418 460.018 429.713 463.754 427.78C464.784 427.265 468.778 426.557 472.707 426.235C480.565 425.526 484.236 424.109 485.524 421.404C486.877 418.377 484.816 415.543 477.859 411.163C475.863 409.939 473.995 408.586 473.737 408.135C473.158 407.169 474.897 405.301 478.246 403.369C482.497 400.857 485.395 397.186 486.877 392.355C489.84 382.887 487.779 374.449 481.853 371.486C478.31 369.682 477.087 366.462 477.409 360.021C477.602 356.285 478.053 354.031 479.341 351.326C481.273 347.203 483.012 346.044 488.294 345.335C500.339 343.79 510.515 323.694 509.227 303.791C508.583 293.678 506.071 286.464 501.24 281.118C496.925 276.288 485.267 269.653 481.144 269.653C480.371 269.653 479.212 268.687 478.31 267.206C475.798 263.341 474.51 257.351 474.51 249.364C474.51 241.184 475.476 238.092 478.439 236.547C482.239 234.55 484.429 224.373 483.077 214.454C482.239 207.82 480.887 204.728 478.31 203.311C475.09 201.572 474.059 199.511 473.48 193.778C473.158 190.686 472.449 187.852 471.805 186.822C468.52 181.798 459.052 181.025 432.193 183.666C422.273 184.696 414.029 185.405 413.9 185.212C413.771 185.083 414.222 179.866 414.866 173.682C416.863 154.359 416.348 142.379 413.385 139.416C412.097 138.128 411.517 138.128 398.12 138.45C376.8 139.029 360.568 141.864 356.124 145.857C354.385 147.403 354.063 148.24 353.612 152.105C353.032 157.322 352.195 159.641 350.005 162.539C347.944 165.244 347.236 167.177 346.527 172.201C345.432 180.059 341.696 182.12 319.475 186.886C310.393 188.819 307.237 189.978 307.237 191.266C307.237 191.717 309.298 193.134 311.874 194.358C314.386 195.582 316.512 196.805 316.512 197.192C316.576 197.514 315.546 197.965 314.322 198.222C311.037 198.931 310.264 200.284 311.552 203.375C313.098 207.24 312.583 207.691 307.108 207.369C303.501 207.111 302.084 207.304 301.118 208.077C299.83 209.108 299.83 209.108 301.826 210.847C302.921 211.877 304.918 213.488 306.206 214.454C309.556 217.03 309.298 218.576 304.596 222.892C302.47 224.888 300.474 226.499 300.152 226.499C299.83 226.499 300.152 225.21 300.86 223.6C302.342 220.251 302.02 218.318 299.83 217.739C295.707 216.708 293.839 220.83 294.999 228.495C296.351 237.319 295.192 240.669 289.524 243.76C284.951 246.337 284.629 247.174 287.141 250.459C288.3 252.005 289.975 254.775 290.877 256.707C292.938 260.829 292.744 264.565 290.232 270.62C288.622 274.549 286.948 280.281 286.303 284.597C285.788 287.753 284.178 289.621 281.473 290.2C278.574 290.78 278.123 292.648 278.896 300.248C280.442 315.32 285.788 336.382 295.385 365.818C302.277 386.88 302.792 393.063 297.962 396.219C296.094 397.443 291.907 398.152 289.717 397.636C285.981 396.67 279.412 387.911 276.578 380.052C274.838 375.286 274.645 372.839 275.869 371.164C276.706 370.004 276.835 370.069 278.123 371.872C278.896 372.967 280.184 375.995 281.086 378.7C283.727 386.751 286.046 390.358 290.104 392.484C292.036 393.514 295.128 393.257 296.738 391.968C298.219 390.745 297.704 388.361 293.067 374.706C282.954 344.756 270.072 297.221 269.364 287.302C268.977 281.505 270.845 273.969 277.286 254.517C285.402 229.977 294.548 208.077 299.894 200.026C302.406 196.355 302.728 195.453 302.084 194.615C300.023 192.103 294.548 195.066 289.846 201.185C285.466 206.918 277.157 223.987 273.421 234.872C267.689 251.49 265.048 263.985 264.146 278.284C263.567 288.204 262.472 291.166 258.865 292.97C257.641 293.614 255.258 294.129 253.325 294.129C251.522 294.129 249.847 294.387 249.654 294.645C249.461 294.967 251.393 295.74 253.97 296.384C261.892 298.445 263.631 301.73 261.119 310.167C260.604 312.035 260.217 314.161 260.346 314.934C260.539 316.093 261.055 315.707 263.695 312.293C267.882 306.947 268.591 307.076 268.591 312.937C268.591 317.703 266.852 323.114 265.37 323.114C265.048 323.114 264.726 323.307 264.726 323.565C264.726 323.887 266.336 323.951 268.269 323.887C272.391 323.629 273.743 324.402 273.743 326.978C273.743 328.975 271.231 331.487 269.17 331.487C266.079 331.487 267.238 337.735 272.198 348.041C274.774 353.387 276.578 356.156 279.218 358.862C281.151 360.858 282.761 362.791 282.761 363.113C282.761 364.014 279.734 364.53 276.255 364.208C271.747 363.757 270.008 361.889 268.462 355.899C266.98 349.909 262.085 338.83 255.322 326.334C252.424 320.795 249.01 314.032 247.851 311.198C245.789 306.174 245.725 305.788 245.725 297.028C245.725 289.749 246.111 286.271 247.593 278.993C252.102 256.385 260.217 234.807 271.811 214.583C277.222 205.114 280.184 198.738 280.184 196.612C280.184 194.68 278.574 193.649 275.418 193.649C274.194 193.649 273.035 193.392 272.777 193.07C272.262 192.103 276.127 189.527 281.473 187.208C305.562 176.774 320.054 156.549 326.173 124.988C328.814 111.14 329.329 102.444 328.943 79.1924C328.492 52.9774 327.268 42.6074 322.953 30.4982C318.187 17.1653 308.01 5.82912 296.996 1.64246C292.294 -0.0966177 284.371 -0.547489 279.283 0.740715ZM295.321 15.4907C300.86 17.8094 307.237 26.0539 313.356 38.7427C324.112 60.9643 326.624 90.3997 320.376 120.35C316.383 139.352 307.623 157.966 298.606 166.533C289.137 175.421 276.191 176.838 263.824 170.268C259.187 167.821 251.458 160.671 247.593 155.325C243.728 149.85 238.704 139.029 237.094 132.782C232.907 116.099 233.874 92.4609 239.67 71.592C246.305 47.5025 256.997 28.888 268.655 21.0943C276.513 15.8771 289.588 13.1075 295.321 15.4907ZM403.466 148.884C407.395 150.752 408.361 153.586 408.361 163.377C408.361 176.323 406.686 178.449 394.963 180.123C387.75 181.218 369.908 180.638 365.464 179.221C361.599 177.998 358.765 176.001 358.765 174.391C358.765 172.78 361.084 170.784 365.206 168.916C371.261 166.082 375.705 166.855 379.827 171.557C382.081 174.069 382.726 174.455 383.241 173.682C383.563 173.167 383.885 171.943 383.885 170.977C383.885 167.37 388.265 165.502 398.442 164.794L405.462 164.343L401.276 162.797C393.224 159.898 388.072 157.193 386.01 154.746C384.851 153.457 383.885 151.976 383.885 151.525C383.885 150.494 385.688 148.82 387.75 147.982C390.262 146.887 400.567 147.532 403.466 148.884ZM378.088 149.786C379.505 152.556 378.41 156.807 375.769 158.546C373.193 160.22 368.813 160.865 364.175 160.22C361.792 159.834 359.538 159.254 359.151 158.868C358.121 157.773 362.501 154.295 368.749 151.139C374.481 148.305 377.057 147.918 378.088 149.786ZM235.999 165.502C238.447 168.723 239.22 171.17 238.125 172.265C237.416 172.974 236.901 172.974 235.87 172.458C234.324 171.621 230.589 164.471 230.589 162.282V160.736L232.521 162.088C233.616 162.861 235.162 164.407 235.999 165.502ZM230.653 178.835C234.389 184.31 237.867 187.466 239.735 187.079C241.474 186.693 239.992 203.891 237.738 209.945C236.257 213.745 235.419 212.006 232.843 199.446C231.039 190.88 228.914 182.828 226.724 176.645C226.015 174.519 225.436 172.716 225.436 172.587C225.436 171.685 227.175 173.811 230.653 178.835ZM206.435 175.937C214.293 177.998 220.347 183.73 224.792 193.327C227.948 200.026 228.914 204.277 228.527 210.074C228.012 218.19 223.568 223.536 216.612 224.373C211.781 224.888 207.787 223.664 199.672 219.091C190.59 214.003 188.464 213.552 184.535 215.871C176.935 220.315 170.558 235.902 170.429 250.33C170.365 259.026 171.331 261.216 178.61 268.945C186.146 276.867 187.691 279.701 187.627 285.047C187.498 292.133 182.925 305.723 180.606 305.723C179.254 305.723 173.006 299.733 170.752 296.126C168.304 292.261 165.277 283.244 163.86 275.128C162.185 265.918 162.185 239.123 163.86 228.109C165.405 217.932 168.755 204.921 171.524 198.416C176.742 186.049 184.213 178.771 194.712 175.937C199.156 174.777 201.797 174.777 206.435 175.937ZM389.875 191.008C391.292 193.392 393.224 201.572 394.641 211.362C396.252 222.57 396.252 248.591 394.641 253.358C392.323 260.314 392.001 265.789 392.001 302.503C391.936 322.148 392.065 353.902 392.258 373.032C392.516 400.277 392.387 408.2 391.743 409.681C391.099 411.098 390.777 411.356 390.068 410.776C387.943 409.037 386.526 403.82 385.817 395.511C383.176 362.404 383.627 223.6 386.461 196.29C387.299 188.368 387.814 187.595 389.875 191.008ZM466.652 192.361C467.618 194.229 467.94 199.124 467.232 200.992C466.588 202.602 465.106 202.216 464.333 200.219C463.367 197.772 464.14 190.429 465.364 190.429C465.557 190.429 466.072 191.266 466.652 192.361ZM333.001 221.861C333.967 258.897 333.838 421.661 332.872 421.661C315.932 421.468 242.569 413.031 232.843 410.132L230.911 409.617L233.294 409.101C236.128 408.586 256.031 409.617 277.608 411.356C293.453 412.708 296.931 413.095 312.583 415.285C317.864 416.058 323.146 416.444 324.37 416.187C327.655 415.607 328.75 413.481 328.685 407.556C328.621 399.311 327.14 398.281 318.509 400.406C311.939 402.016 310.457 402.016 310.457 400.471C310.457 397.572 316.125 393.385 320.183 393.321C326.495 393.257 327.462 381.792 328.492 297.35C329.652 198.609 331.519 167.37 333.001 221.861ZM462.079 217.288C466.974 232.553 470.388 277.447 465.75 265.918C461.692 255.87 457.506 214.261 460.533 214.261C460.855 214.261 461.499 215.613 462.079 217.288ZM256.031 218.705C256.482 219.542 254.936 220.315 247.464 223.02C232.843 228.302 221.893 235.967 215.645 245.177C211.137 251.876 205.275 263.212 201.668 272.23C198.706 279.637 196.516 283.888 195.421 284.274C194.97 284.403 194.519 283.373 194.261 281.827C193.488 276.996 189.753 270.877 183.183 263.728C177.579 257.673 174.552 251.425 174.552 246.079C174.552 243.889 174.809 241.893 175.196 241.635C175.518 241.442 177.128 243.31 178.738 245.757C182.023 250.781 183.891 252.263 187.498 252.713C189.624 253.036 190.203 252.778 191.942 251.103C193.488 249.493 193.875 248.591 193.875 246.208C193.875 242.923 192.651 242.021 189.753 243.31C188.271 244.018 187.756 243.954 186.274 242.794C181.894 239.574 178.159 227.465 180.542 224.244C182.023 222.312 188.786 222.505 192.973 224.631C199.285 227.722 199.865 232.746 196.838 257.029C195.871 264.436 195.227 270.555 195.292 270.684C195.421 270.748 197.353 266.755 199.672 261.731C201.99 256.707 205.533 250.073 207.594 246.981C216.29 233.841 229.365 223.02 240.894 219.349C244.759 218.125 255.387 217.674 256.031 218.705ZM476.636 220.702C477.988 223.278 478.182 227.658 476.958 229.461C475.863 231.136 475.798 231.2 474.961 230.041C474.059 228.817 473.737 222.312 474.446 220.444C474.961 219.027 475.798 219.156 476.636 220.702ZM446.943 261.989C452.031 262.761 455.058 263.985 455.96 265.724C456.604 266.819 456.411 267.206 455.058 268.108C453.77 268.945 450.936 269.267 441.661 269.653C421.501 270.555 413.9 273.518 409.585 282.278C405.849 289.814 406.364 300.441 411.259 318.347C412.483 322.727 414.351 328.009 415.446 330.135C416.477 332.26 417.378 334.45 417.378 335.03C417.378 336.769 414.995 336.06 412.87 333.677C409.005 329.233 405.849 319.507 403.917 305.852C402.757 297.672 400.76 263.534 401.405 262.826C401.598 262.697 408.232 262.117 416.154 261.667C430.647 260.765 439.278 260.829 446.943 261.989ZM348.717 274.355C350.52 277.125 351.293 283.952 351.229 297.35C351.229 315.32 348.91 329.684 344.724 337.928C342.727 341.922 341.052 342.759 340.086 340.183C338.798 336.833 339.7 301.15 341.439 285.756C342.212 278.671 343.049 275.064 344.337 273.003C345.11 271.843 345.496 271.714 346.527 272.23C347.236 272.616 348.202 273.582 348.717 274.355ZM427.233 276.738C429.616 278.671 430.518 283.695 430.067 292.841C429.423 305.143 426.589 316.415 423.755 318.154C420.792 319.958 415.961 315.9 414.737 310.554C414.093 307.527 414.158 305.916 415.446 297.994C416.605 290.716 416.799 288.59 416.154 287.302C415.639 286.142 415.059 285.756 414.415 286.014C413.836 286.207 412.676 286.593 411.775 286.786C410.293 287.173 410.229 287.109 410.808 285.949C412.097 283.63 419.955 276.803 422.08 276.159C425.107 275.257 425.43 275.321 427.233 276.738ZM485.911 276.416C488.294 276.932 491.192 277.898 492.287 278.542C497.762 281.698 500.725 291.875 501.949 311.391C502.4 318.605 502.593 324.595 502.4 324.724C502.207 324.853 495.701 325.239 487.907 325.69C469.937 326.721 459.76 325.883 458.794 323.371C458.601 322.856 459.245 320.859 460.147 318.927C463.818 311.52 473.93 305.208 485.009 303.469C498.986 301.279 500.854 299.346 496.603 291.81C492.159 284.146 485.267 280.345 475.67 280.281C470.581 280.281 469.422 280.474 466.201 282.085C460.469 284.919 457.57 289.041 455.316 297.801C454.479 301.086 454.092 304.886 454.092 309.33C454.092 324.273 458.086 331.874 467.167 334.128C471.612 335.223 479.148 335.094 484.558 333.806C487.006 333.226 489.904 332.775 490.999 332.775L493.06 332.84L490.484 335.159C486.941 338.379 479.019 343.467 476.249 344.369C470.774 346.173 465.428 343.403 455.38 333.419C445.976 324.144 444.559 320.022 446.685 308.235C447.651 303.082 447.715 301.73 447.007 300.892C445.848 299.54 445.268 299.669 443.336 301.665C441.79 303.34 437.345 311.971 437.345 313.388C437.345 313.71 437.023 314.805 436.573 315.835L435.864 317.639L435.413 315.256C434.898 312.293 435.606 301.858 436.701 298.058C437.667 294.516 441.017 290.909 443.4 290.909C447.265 290.909 450.872 287.237 450.872 283.308C450.872 280.603 455.702 277.898 463.11 276.416C468.842 275.257 480.5 275.257 485.911 276.416ZM227.11 303.34C227.883 304.242 228.721 306.303 228.914 307.913C229.687 312.873 228.205 321.826 226.724 321.826C225.951 321.826 223.503 318.605 223.503 317.639C223.503 316.029 220.154 313.581 216.547 312.615C214.55 312.1 209.72 311.456 205.791 311.198C196.258 310.618 192.458 308.879 195.421 306.432C196.966 305.143 203.15 303.34 208.689 302.567C211.716 302.181 214.873 301.73 215.774 301.601C216.676 301.408 219.252 301.408 221.571 301.536C225.049 301.73 225.951 301.987 227.11 303.34ZM197.997 327.751C199.285 330.779 200.96 341.342 200.96 346.108C200.96 351.39 199.607 351.583 197.353 346.688C195.356 342.244 194.261 334.192 195.163 329.555C195.485 327.687 195.807 326.077 195.807 325.948C195.807 325.819 196.129 325.69 196.516 325.69C196.838 325.69 197.546 326.656 197.997 327.751ZM407.91 332.711C415.188 337.928 417.958 338.766 431.806 339.861C436.379 340.247 441.21 340.827 442.563 341.149C448.36 342.759 450.227 347.139 445.719 348.685C442.563 349.78 434.254 349.715 423.948 348.491C402.371 346.044 398.699 343.983 398.699 334.386C398.699 330.521 399.472 328.267 400.825 328.267C401.276 328.267 404.496 330.263 407.91 332.711ZM255.515 339.989C257.319 342.05 257.705 344.24 256.675 346.688C255.644 349.2 254.034 350.166 250.749 350.166C247.786 350.166 244.115 347.461 242.827 344.369C242.118 342.63 242.118 342.179 243.084 341.278C244.63 339.732 247.851 338.701 251.264 338.637C253.519 338.572 254.485 338.894 255.515 339.989ZM465.428 347.654C466.008 348.749 466.781 352.614 467.167 356.156C468.327 366.977 466.137 391.84 463.882 394.094C461.435 396.541 459.953 388.361 459.438 370.649C459.18 360.858 459.309 355.448 459.825 352.614C461.177 345.786 463.432 343.79 465.428 347.654ZM413.965 384.304C415.446 386.494 417.185 389.778 417.765 391.582C418.795 394.674 418.795 394.867 417.636 395.704C415.897 396.928 412.354 397.83 408.812 397.83C402.049 397.83 398.506 394.416 398.828 388.233C398.957 386.3 399.343 384.626 399.73 384.497C400.116 384.368 401.984 386.171 403.788 388.49C405.656 390.809 407.395 392.548 407.652 392.419C407.974 392.226 408.361 389.521 408.618 386.429C408.876 383.337 409.263 380.568 409.456 380.246C410.1 379.215 411.259 380.246 413.965 384.304ZM221.249 417.539C222.537 418.055 224.148 421.146 224.148 423.143C224.148 426.041 228.077 438.022 233.938 452.9C237.158 461.016 239.928 467.908 240.186 468.166C240.637 468.681 249.59 457.602 254.034 450.968C255.709 448.456 258.285 444.012 259.702 441.113C261.183 438.15 263.051 435.252 263.953 434.672C268.397 431.774 274.001 435.188 273.615 440.534C273.421 442.788 273.164 443.303 271.94 443.432C271.103 443.561 269.492 443.303 268.462 442.852C266.658 442.144 266.336 442.144 265.306 443.497C263.631 445.558 263.76 449.036 265.435 450.71C266.723 451.999 267.238 452.063 272.069 451.612C279.862 450.839 281.602 451.033 282.89 452.643C284.436 454.446 284.371 455.992 282.696 457.474C281.473 458.569 280.249 458.697 271.554 458.697C262.214 458.697 261.699 458.762 258.543 460.436C253.583 463.013 251.2 466.105 251.2 469.776C251.2 472.481 251.458 473.061 254.034 475.444C256.997 478.342 266.916 483.495 274.774 486.265C280.7 488.39 285.337 490.58 285.337 491.289C285.337 492.255 282.181 492.706 278.51 492.255C264.146 490.58 241.087 474.607 230.589 459.084C226.724 453.287 221.378 442.337 219.059 435.51C214.55 421.984 215.388 415.285 221.249 417.539ZM436.057 418.248C441.468 418.699 441.468 418.699 438.312 419.149C433.932 419.794 374.803 419.858 369.65 419.214L365.528 418.763L369.393 418.377C375.125 417.861 429.681 417.732 436.057 418.248ZM333.259 428.489C336.286 429.648 335.835 437.764 332.228 448.07C328.814 457.667 324.692 465.01 318.058 473.061C315.932 475.637 314.322 477.892 314.451 478.02C314.902 478.536 325.529 469.518 327.977 466.62C332.164 461.467 336.608 454.124 339.442 447.683C344.144 436.733 347.88 431.323 350.778 431.323C354.256 431.323 354.578 437.12 351.487 444.205C347.429 453.48 337.51 468.874 330.94 476.088C327.526 479.824 322.051 482.851 317.929 483.302C313.807 483.817 312.39 482.207 312.39 477.054C312.39 471.901 314 467.328 320.119 454.833C325.465 443.819 328.041 437.313 328.814 432.611C329.458 428.425 330.553 427.458 333.259 428.489ZM407.137 432.032C408.296 433.191 408.49 433.964 408.232 437.764C408.039 441.371 407.523 443.174 405.269 447.554C399.859 458.246 387.814 472.03 378.797 477.892C373.579 481.305 362.114 486.651 359.023 487.167C356.833 487.553 356.704 487.489 357.412 486.201C357.799 485.492 360.504 482.722 363.402 480.146C380.6 464.881 386.977 456.701 390.262 446.009C391.872 440.598 392.967 438.408 395.672 435.381C399.794 430.679 404.432 429.326 407.137 432.032ZM305.176 432.225C310.071 434.737 309.749 443.625 304.725 445.364C301.697 446.459 301.247 449.358 301.697 464.816C302.857 502.045 302.857 505.266 302.213 506.425C301.569 507.52 301.44 507.391 300.474 505.202C299.958 503.913 299.25 499.727 298.928 495.862C298.091 485.75 296.673 482.4 290.361 476.217C287.527 473.447 285.337 470.806 285.531 470.42C285.659 469.969 286.497 469.583 287.463 469.454C289.46 469.196 291.521 466.877 292.422 463.593C292.809 462.304 293.389 456.636 293.711 450.968C294.419 439.052 295.128 435.252 297.253 432.998C299.057 431.065 302.342 430.743 305.176 432.225ZM446.492 439.503C445.526 445.815 441.596 453.995 435.8 461.66C432.257 466.362 413.514 485.041 413.514 483.882C413.514 483.689 416.348 479.824 419.826 475.315C432.064 459.406 437.474 450.195 438.634 443.303C439.407 438.473 441.017 435.252 443.4 433.835C445.139 432.804 445.461 432.74 446.298 433.577C447.071 434.35 447.136 435.252 446.492 439.503ZM369.65 493.865C377.122 495.025 379.183 497.279 378.603 503.462C378.217 507.585 376.413 509.517 372.033 510.676C367.654 511.771 335.255 511.836 328.685 510.676C319.475 509.131 316.898 507.327 320.376 505.073C321.665 504.235 322.438 504.171 324.434 504.686C329.974 506.232 341.439 505.202 362.308 501.273L373.901 499.147L346.527 498.761C320.699 498.438 314 497.988 311.101 496.377C309.684 495.54 313.034 494.445 318.831 493.865C326.109 493.092 364.884 493.092 369.65 493.865ZM407.717 493.801C410.744 494.187 414.415 495.089 415.897 495.798C420.083 497.794 420.663 499.92 421.243 516.345C421.887 534.444 423.046 537.922 429.616 541.142C436.122 544.363 438.634 548.356 438.634 555.442C438.634 562.913 434.318 569.676 427.555 572.832C421.694 575.666 406.171 577.599 390.712 577.47C380.922 577.405 362.565 576.568 366.172 576.375C367.267 576.31 375.447 575.666 384.465 574.958C410.937 572.897 420.599 570.964 424.335 567.229C426.138 565.425 426.267 564.974 426.525 559.242C426.653 554.089 426.975 552.865 428.199 551.126C429.037 550.031 429.552 548.936 429.359 548.743C428.264 547.648 411.195 547.197 382.597 547.39C351.1 547.648 348.846 547.326 371.196 545.973C390.648 544.814 405.527 542.559 410.615 540.112C415.575 537.729 418.28 531.03 418.28 521.175C418.28 516.022 418.022 514.155 416.927 511.707C415.446 508.422 414.673 507.907 409.971 506.747C406.3 505.846 403.337 504.171 399.859 501.015C396.96 498.438 394.577 494.703 395.157 493.801C395.672 492.964 400.825 492.964 407.717 493.801ZM256.482 498.567C259.187 499.855 262.536 501.917 263.824 503.14C265.95 505.137 266.143 505.652 265.821 507.778C265.306 510.612 266.143 511.836 268.591 511.836C271.296 511.836 273.486 509.71 274.001 506.683C274.259 504.944 274.903 503.785 275.998 503.076C278.445 501.466 279.283 502.496 281.215 509.903C282.568 515.056 284.307 538.308 283.405 538.888C283.019 539.146 277.415 539.983 270.974 540.756C244.372 543.976 237.545 545.716 235.484 549.773C234.453 551.706 234.002 560.208 234.84 562.333C235.484 564.008 236.257 562.978 239.284 556.472C240.83 553.123 242.376 550.546 242.698 550.74C243.02 550.933 243.471 553.767 243.664 557.052C244.115 563.686 244.952 565.489 248.688 567.422C250.556 568.388 252.166 568.517 259.573 568.388C271.296 568.066 272.971 567.164 274.066 560.594C274.388 558.404 274.838 557.954 277.479 556.73C280.249 555.442 281.795 555.313 296.609 555.119C319.153 554.797 375.64 556.923 377.959 558.147C378.474 558.404 376.607 560.015 372.806 562.527C360.44 570.707 353.097 573.734 339.764 576.053C330.618 577.663 293.389 577.663 278.896 576.053C239.026 571.608 224.019 569.354 219.317 567.293C215.259 565.489 214.228 563.557 214.228 557.631C214.293 549.323 216.998 546.36 226.724 544.041C239.348 541.014 241.41 539.919 242.827 535.281C243.277 533.864 243.793 525.62 244.05 516.022C244.501 499.92 244.823 497.279 246.305 496.184C247.593 495.282 251.458 496.184 256.482 498.567ZM391.034 505.266C392.967 512.351 392.967 524.653 391.034 530.579C389.617 535.023 388.007 537.02 384.851 538.244C381.631 539.532 371.905 539.725 345.561 539.146C316.512 538.502 317.542 538.308 357.348 536.376C371.261 535.732 382.79 535.088 382.919 534.959C383.048 534.766 383.756 526.843 384.529 517.311C385.817 500.822 386.204 497.472 386.977 496.12C387.492 495.154 389.682 499.984 391.034 505.266ZM467.811 509.388C470.388 510.87 473.351 514.67 472.513 515.572C471.676 516.409 454.736 509.71 454.736 508.551C454.736 506.812 464.14 507.391 467.811 509.388ZM366.043 518.019C367.718 518.341 368.233 518.663 367.654 518.985C366.494 519.758 331.004 519.694 329.845 518.985C329.201 518.599 330.038 518.277 332.421 518.019C334.353 517.826 336.93 517.504 338.154 517.375C341.31 516.989 363.08 517.504 366.043 518.019ZM232.199 527.616C231.748 530.901 228.85 536.183 226.66 537.729C225.758 538.437 223.697 539.146 222.151 539.339L219.317 539.661L222.602 536.763C226.144 533.542 229.172 528.454 230.975 522.463L232.199 518.599L232.392 521.819C232.521 523.558 232.457 526.199 232.199 527.616ZM307.237 533.606C310.973 535.539 313.485 539.081 312.712 541.464C312.068 543.526 308.654 544.943 304.338 544.943C297.06 544.878 292.358 540.498 294.355 535.603C296.094 531.545 301.633 530.644 307.237 533.606ZM199.221 551.19C202.635 552.092 202.184 552.865 197.997 553.445C194.197 553.896 184.406 553.445 183.762 552.801C181.959 550.997 194.068 549.709 199.221 551.19ZM596.954 570.513C600.11 572.059 601.656 574.507 600.368 575.795C599.852 576.31 597.534 576.568 593.991 576.568C587.743 576.568 584.072 575.151 583.685 572.575C583.17 569.161 591.415 567.873 596.954 570.513ZM230.267 574.958C236.45 576.504 241.86 579.467 241.86 581.141C241.86 582.301 241.281 582.365 232.843 582.365C224.921 582.301 223.439 582.107 220.605 580.884C215.581 578.629 214.55 575.731 218.222 574.378C220.991 573.412 224.856 573.605 230.267 574.958ZM431.162 579.209C431.742 579.724 432.193 580.368 432.193 580.497C432.193 582.172 427.362 587.84 425.945 587.84C424.077 587.84 423.175 583.202 424.528 580.69C425.752 578.307 429.487 577.534 431.162 579.209ZM363.725 584.619C377.766 585.779 382.017 587.518 375.383 589.386C369.844 590.932 356.833 591.704 335.384 591.704C309.298 591.704 284.886 590.159 273.615 587.711C267.496 586.423 270.394 585.392 282.052 584.619C293.839 583.911 354.385 583.911 363.725 584.619ZM449.905 592.284C447.78 594.216 437.41 601.044 434.576 602.332C423.24 607.549 397.475 608.709 299.508 608.258C230.138 608 227.239 607.871 218.029 605.166C214.164 604.007 213.069 603.298 209.526 599.691C205.533 595.633 204.696 594.023 206.306 593.508C207.079 593.186 212.489 593.959 223.181 595.827C238.511 598.468 282.503 599.691 346.527 599.24C412.547 598.79 427.813 597.952 441.596 594.023C450.292 591.576 450.743 591.511 449.905 592.284ZM173.521 601.366C176.613 604.136 179.06 611.8 177.579 613.926C176.806 614.957 176.548 614.957 174.809 614.055C172.877 613.024 169.721 609.933 167.917 607.163C166.307 604.844 166.5 601.688 168.24 600.464C170.236 599.047 170.945 599.176 173.521 601.366ZM458.987 611.35C461.048 612.895 463.56 618.435 462.981 620.174C462.852 620.56 461.048 618.821 458.987 616.245C456.475 613.153 454.994 611.8 454.607 612.187C454.221 612.573 453.706 614.828 453.448 617.275C452.933 621.977 451.58 624.876 449.519 625.52C446.556 626.486 444.431 624.038 444.431 619.658C444.431 616.502 445.848 613.54 448.231 611.478C451.129 609.095 455.96 609.031 458.987 611.35ZM302.728 614.892C324.499 615.214 358.378 615.665 378.024 615.923L413.642 616.374L413.256 623.523C412.097 641.88 409.907 647.741 404.11 647.741C401.34 647.741 401.34 647.741 390.004 639.754C381.953 634.022 368.749 633.12 309.813 634.151C255.193 635.117 244.308 635.954 236.579 639.754C233.487 641.236 228.27 646.324 221.442 654.44L219.832 656.308L219.51 647.355C218.673 626.744 221.185 619.53 230.331 615.858C234.582 614.184 240.572 613.668 252.166 613.99C258.221 614.119 280.957 614.57 302.728 614.892ZM203.407 620.367C203.536 621.591 203.085 623.008 202.119 624.296C200.251 626.808 196.644 629.9 195.871 629.578C194.97 629.256 197.417 622.879 199.414 620.238C201.411 617.597 203.15 617.662 203.407 620.367ZM32.0763 622.364C37.3579 626.035 33.2357 630.351 24.2827 630.351C15.7805 630.351 14.2347 626.293 21.2554 622.557C24.0894 621.076 30.0796 620.947 32.0763 622.364ZM80.6416 624.232C83.9265 626.486 84.8927 628.354 83.3468 629.513C82.7027 629.964 81.0925 630.351 79.7399 630.351C76.5838 630.351 74.7159 628.547 74.7159 625.584C74.7159 622.235 76.9702 621.72 80.6416 624.232ZM440.179 631.059C442.241 632.025 444.044 636.341 443.464 639.11C442.563 644.134 438.118 646.195 435.478 642.911C432.901 639.561 432.966 634.988 435.735 632.025C437.474 630.157 437.925 630.029 440.179 631.059ZM452.804 632.605C455.38 633.958 456.991 638.337 456.346 642.395C456.089 644.134 455.831 647.162 455.767 649.287C455.702 653.345 455.702 653.345 459.825 654.891C463.947 656.437 464.849 662.427 461.37 665.132C459.374 666.678 454.285 666.871 451.644 665.519C446.943 663.007 444.431 657.661 445.783 652.701C446.17 651.219 447.007 649.416 447.651 648.707C450.421 645.551 451.258 641.494 449.905 637.049C448.231 631.51 448.875 630.544 452.804 632.605ZM188.593 634.215C190.203 637.307 187.82 644.65 184.535 646.84C178.867 650.575 177.257 640.205 182.603 634.473C185.115 631.832 187.241 631.703 188.593 634.215ZM258.349 641.365C259.96 642.975 259.766 644.714 257.19 652.25C254.034 661.525 234.904 705.195 232.134 709.382C231.168 710.863 231.039 710.928 230.46 709.962C230.138 709.382 229.558 703.199 229.236 696.242C228.463 679.174 227.175 673.827 223.117 670.156C220.09 667.451 218.802 664.488 219.639 662.298C220.347 660.366 221.636 659.657 225.243 659.013C229.107 658.369 232.907 655.664 237.416 650.189C241.41 645.294 245.983 641.751 249.525 640.721C253.261 639.626 256.868 639.883 258.349 641.365ZM267.302 684.648C267.302 685.099 264.984 690.188 262.214 695.985C259.38 701.782 256.61 708.48 256.031 710.928C254.871 715.501 255.129 718.593 256.546 718.593C258.027 718.593 261.956 713.955 266.014 707.321C273.035 695.985 278.767 690.51 281.151 692.893C281.988 693.666 281.988 694.052 281.151 695.663C280.635 696.629 279.09 698.819 277.737 700.493C271.682 707.707 263.76 721.233 252.875 742.811C244.179 760.073 241.796 764.324 240.765 764.324C238.962 764.324 241.538 742.618 245.145 727.61C249.783 708.223 255.902 693.795 262.15 687.547C265.885 683.875 267.302 683.038 267.302 684.648Z" fill="black"/>
<path d="M269.363 67.4054C262.793 68.758 255.773 74.6193 252.745 81.1892C247.721 92.1389 248.237 107.791 253.905 118.354C256.288 122.927 261.57 127.887 266.658 130.399C273.486 133.748 280.893 132.395 286.11 126.856C291.778 120.866 296.287 108.886 296.802 98.3867C297.188 90.6575 296.351 86.2131 293.582 80.7383C288.686 70.9479 278.703 65.4731 269.363 67.4054ZM273.035 73.1379C274.838 75.0702 277.157 81.0603 278.187 86.7284C280.184 97.3561 280.764 113.716 279.282 117.259C278.059 120.222 274.001 121.768 268.59 121.381C263.115 120.995 259.959 118.676 256.997 112.879C254.742 108.499 254.742 108.37 254.807 100.319C254.807 92.0745 255.708 87.759 257.061 89.1116C257.447 89.4981 257.963 93.6847 258.285 98.3867C259.058 109.143 259.38 111.204 260.539 111.204C261.698 111.204 266.594 105.665 269.879 100.705C274.645 93.3627 274.838 89.3048 270.329 91.1727C265.885 92.9762 265.37 92.9118 265.37 90.3998C265.37 89.176 265.95 86.2776 266.658 84.0232C268.333 78.6127 268.333 76.4228 266.658 76.4228C265.885 76.4228 264.146 77.0025 262.729 77.7754C261.248 78.4839 259.895 78.9348 259.702 78.7416C259.186 78.2263 263.244 73.9752 265.692 72.4938C268.526 70.6903 270.974 70.9479 273.035 73.1379ZM288.042 88.0166C288.686 93.6203 288.042 105.536 286.947 106.567C286.046 107.533 285.659 105.15 285.466 96.9052C285.015 81.2536 286.561 75.9075 288.042 88.0166Z" fill="black"/>
<path d="M250.813 507.391C250.04 508.68 250.233 525.297 251.071 526.135C252.359 527.423 252.81 524.846 252.81 516.216C252.81 510.934 252.552 507.778 252.101 507.327C251.521 506.747 251.199 506.747 250.813 507.391Z" fill="black"/>
<path d="M272.262 517.053C268.268 519.372 268.204 533.929 272.197 535.474C272.97 535.732 273.808 535.346 274.774 534.186C278.059 530.322 278.574 521.047 275.676 517.955C274.001 516.151 273.872 516.087 272.262 517.053Z" fill="black"/>
<path d="M225.242 552.221C224.534 552.865 224.727 561.624 225.436 562.719C225.951 563.557 226.209 563.557 227.175 562.526C228.592 561.109 228.721 556.858 227.432 553.831C226.595 551.77 226.015 551.383 225.242 552.221Z" fill="black"/>
<path d="M341.696 7.18144C331.971 8.98493 325.272 12.0122 325.272 14.5242C325.272 17.3583 331.906 20.4499 342.92 22.6399C352.131 24.4434 354.965 25.3451 359.023 27.7283C362.823 29.9183 363.532 32.237 361.148 34.2981C358.701 36.4237 354.063 37.1322 342.985 37.1322C333.516 37.1322 333.001 37.1966 333.001 38.4204C333.001 39.0645 333.774 45.5055 334.74 52.7195C336.35 64.3133 336.544 67.8559 336.544 83.5076C336.544 95.1014 336.222 103.217 335.706 107.017C331.198 136.904 320.763 162.024 306.915 176.001C304.339 178.641 299.315 182.635 294.999 185.405C283.663 192.747 282.503 194.937 291.521 191.781C305.305 187.015 317.865 179.994 323.082 174.133C324.435 172.587 326.367 169.817 327.333 168.014C329.716 163.505 332.872 161.508 338.927 160.735C346.592 159.64 348.073 157.966 348.782 149.206C349.039 146.179 349.683 142.894 350.199 141.928C352.002 138.385 356.446 136.582 369.264 134.327C378.153 132.781 383.048 131.171 385.753 128.852C389.875 125.374 392.709 114.038 393.353 98.2575C394.835 61.2216 380.665 17.2938 364.498 8.46965C361.342 6.79498 360.375 6.60175 353.934 6.40852C349.619 6.34411 344.853 6.60175 341.696 7.18144ZM382.211 46.1496C383.434 49.2413 383.499 51.3024 382.468 53.5568C381.631 55.3603 380.343 55.6823 379.763 54.1365C379.248 52.7839 379.248 44.5394 379.827 44.0241C380.665 43.1223 381.18 43.6376 382.211 46.1496ZM368.04 53.0415C370.359 54.3297 367.654 54.7162 356.64 54.7162C345.046 54.6518 341.632 53.8789 347.88 52.7195C352.195 51.8821 366.366 52.0754 368.04 53.0415ZM367.396 62.3166C369.457 62.8963 369.779 63.1539 368.878 63.6048C367.461 64.4421 349.104 64.0557 349.039 63.2183C349.039 62.8319 349.683 62.381 350.521 62.1234C353.033 61.4793 364.691 61.5437 367.396 62.3166ZM388.201 88.9824C387.75 105.149 385.495 119.384 382.919 121.51C382.275 122.089 382.017 121.703 381.631 119.577C380.665 113.974 384.465 77.9039 386.526 72.8155L387.299 70.9476L387.879 73.524C388.265 74.941 388.329 81.7685 388.201 88.9824Z" fill="black"/>
<path d="M165.921 699.784C164.44 702.232 164.826 713.439 166.501 713.439C167.725 713.439 168.948 707.643 168.433 704.164C167.918 700.944 166.63 698.625 165.921 699.784Z" fill="black"/>
<path d="M145.825 755.758C145.374 760.975 145.825 775.725 146.469 776.369C147.177 777.077 147.435 776.24 148.208 771.409C148.916 766.772 148.659 755.564 147.757 752.215C146.984 749.51 146.34 750.798 145.825 755.758Z" fill="black"/>
</svg>
