<svg width="125" height="104" viewBox="0 0 125 104" fill="none" xmlns="http://www.w3.org/2000/svg">
<g opacity="0.15">
<path d="M22.3792 1.37905C24.2204 2.04739 25.6076 3.1077 26.6643 4.65425C27.6382 6.07882 28.3111 7.88013 28.4198 9.35295C28.4677 9.93759 28.4336 10.303 28.2275 11.3885C27.9472 12.9114 27.5983 13.8192 26.4791 16.0417C25.7291 17.5286 25.0419 19.0097 24.7494 19.76C24.4387 20.5599 24.1085 22.3921 24.1474 23.1167C24.2216 24.5387 24.7225 25.9443 25.6518 27.325C26.5535 28.665 27.2395 29.2823 29.7215 31.0375C32.3062 32.8564 33.3985 33.843 36.1917 36.8881C37.8511 38.6996 38.4003 39.2466 39.1726 39.8271C41.262 41.4192 42.9616 41.857 49.8152 42.5739C57.188 43.345 63.7053 45.2288 71.5721 48.8829C74.6379 50.3062 75.3554 50.4779 78.9538 50.6298C80.2145 50.6832 80.95 50.7608 81.9807 50.9565C83.5837 51.252 83.9918 51.4269 86.1907 52.721C88.4444 54.0521 88.7807 54.1868 90.5285 54.5098C91.4757 54.6808 92.5875 54.821 93.5899 54.8874C96.4301 55.0813 97.4888 55.176 99.0963 55.4015C99.9749 55.5152 100.972 55.6072 101.309 55.6003C103.179 55.5569 105.086 54.9537 106.468 53.9498C106.844 53.6849 107.176 53.4733 107.218 53.4814C107.304 53.4976 107.471 53.7773 107.557 54.0681C107.706 54.5835 107.344 55.471 106.728 56.0625C106.578 56.2022 106.536 56.2829 106.62 56.2632C106.693 56.2505 107.092 56.1935 107.516 56.1413C108.492 56.0254 108.753 55.951 109.235 55.644L109.617 55.3978L109.477 55.9025C109.371 56.2721 109.184 56.6084 108.779 57.1603C107.712 58.5958 107.757 58.9673 109.199 61.083C110.608 63.1479 110.827 63.898 110.607 65.8928C110.483 67.0115 110.485 67.1889 110.62 68.4277C110.668 68.8264 110.692 69.3977 110.669 69.7033L110.627 70.253L109.82 70.7817C108.551 71.6121 107.61 71.9648 106.607 71.9957C105.728 72.0236 101.004 71.1976 100.26 70.8881C99.075 70.3886 97.9964 70.3521 96.4558 70.7502L95.677 70.9477L95.608 71.5899C95.5252 72.3976 95.5585 73.9889 95.6927 75.4666C95.7815 76.4398 95.7677 76.7914 95.6055 78.0179C95.3462 79.9876 95.4123 80.5226 96.1635 82.3299C97.0502 84.4463 98.0099 85.9921 101.216 90.4437C102.607 92.3638 104.127 94.4941 104.606 95.1783C105.821 96.9143 106.172 97.2467 107.532 97.8944C108.583 98.4038 109.219 99.0472 109.453 99.8619C109.662 100.575 109.431 101 108.508 101.631C106.865 102.753 105.119 102.608 103.138 101.187C101.997 100.368 100.794 99.0769 99.0627 96.8089C96.4497 93.373 96.1938 93.0942 94.0005 91.3053C91.3721 89.1592 90.9206 88.7016 89.0839 86.2898C86.1508 82.4478 85.299 81.7282 82.2681 80.586C80.5787 79.9553 79.9686 79.6359 78.9821 78.8819C78.0025 78.138 77.9019 78.1101 76.4924 78.1435C75.1712 78.176 74.4853 78.3026 72.9491 78.8167C71.3858 79.3345 71.0219 79.5311 70.2005 80.2783C68.6757 81.6624 67.3639 83.6447 65.2431 87.7491C64.1767 89.7869 64.1069 89.9684 64.227 90.0798C65.5351 91.2313 66.2283 92.089 66.3358 92.685C66.4956 93.6097 65.778 94.5537 64.8134 94.7071C64.2411 94.7932 63.6752 94.6592 62.2312 94.084C61.5262 93.7996 60.8829 93.5623 60.8147 93.5494C60.6103 93.5106 59.8124 92.7393 59.5861 92.3509C59.1249 91.5727 59.0125 90.4445 59.2247 88.9087C59.514 86.8739 60.2587 84.8104 61.6047 82.2767C63.0679 79.5439 63.5887 78.288 63.9846 76.5745C64.1875 75.6922 64.2625 75.1574 64.2804 74.5055C64.2913 74.0295 64.2909 73.6132 64.2755 73.6014C64.2617 73.5811 63.7989 73.5552 63.2529 73.549C62.0028 73.533 60.8929 73.4285 57.8892 73.0265C55.0729 72.66 54.3582 72.6128 51.1679 72.6358C48.6323 72.6503 47.8972 72.617 46.0638 72.4194C43.6056 72.1652 42.3437 72.5366 39.4981 74.3694C38.7745 74.8341 37.5198 75.6319 36.7013 76.1318C35.2434 77.0238 34.2484 77.7558 33.7007 78.3159C33.3486 78.6829 33.2675 79.1103 33.4622 79.5723C33.6918 80.1294 34.7967 81.7471 35.8599 83.0735C36.388 83.7316 36.8836 84.3747 36.9563 84.5036C37.2325 84.9546 37.4596 85.0597 38.4165 85.1794C39.2542 85.2764 39.3377 85.3011 39.7332 85.5887C40.8065 86.3504 41.2884 87.9029 40.7371 88.8077C40.3298 89.4653 39.7636 89.6588 38.5909 89.5602C37.6973 89.479 34.3475 88.6217 33.6422 88.293C31.6659 87.3599 29.3599 84.9563 27.3525 81.7239C26.6293 80.5595 25.4148 78.31 24.9167 77.2149C24.6113 76.5459 24.6129 76.5373 24.7432 75.898C24.9123 75.0535 25.2024 74.5949 26.311 73.4507C27.3555 72.365 27.5904 72.0112 27.9084 71.0798C28.1072 70.4977 28.1575 70.2328 28.1973 69.3725C28.2415 68.2564 28.1863 67.4313 28.0586 67.407C28.016 67.3989 27.339 67.5715 26.5553 67.7946C24.7725 68.3061 24.6723 68.3225 21.6398 68.4906C16.3872 68.7773 14.6637 69.0699 13.0285 69.9194C10.9245 71.0075 7.07859 75.599 5.90018 78.4125C5.32415 79.773 4.53964 80.2793 3.27123 80.127C2.46077 80.0263 2.03161 79.7766 1.66047 79.1748C1.12707 78.312 0.987554 77.3735 1.2127 76.1411C1.36523 75.3378 1.40012 75.247 1.58631 75.1495C1.76236 75.059 1.82402 74.9201 1.98993 74.2787C2.31486 72.9856 2.9351 71.9965 5.00266 69.5201C6.14658 68.1435 6.35305 67.8462 7.38258 66.0493C8.33342 64.3881 8.69931 63.8554 9.48707 62.9601C10.2598 62.0974 10.6192 61.5989 10.8545 61.1034C10.9912 60.8018 11.1141 60.6657 11.2735 60.6163C11.3956 60.5775 11.981 60.423 12.5663 60.2685C15.527 59.5024 18.5718 57.6897 20.3862 55.6168C21.1387 54.768 21.5054 54.1381 22.4347 52.1716C23.4058 50.1246 23.6517 49.6666 24.3372 48.5659C24.9542 47.5939 25.2892 47.2237 26.8668 45.8408C28.3599 44.5304 29.1067 43.8044 29.1441 43.6079C29.1603 43.5224 29.1039 43.1221 29.0135 42.7153C28.4274 39.9919 27.071 37.6535 23.688 33.5313C21.8721 31.3358 21.6705 31.0496 21.0482 29.9575C18.9187 26.206 18.2945 22.6607 19.0556 18.6523C19.4012 16.8319 19.7553 15.7569 20.8311 13.2516C22.0619 10.3949 22.0501 9.48065 20.7444 7.29356C18.8826 4.17739 18.5796 1.54313 20.0103 1.02669C20.4273 0.875637 21.3879 1.02259 22.3792 1.37905Z" fill="black"/>
</g>
</svg>
