<svg width="248" height="187" viewBox="0 0 248 187" fill="none" xmlns="http://www.w3.org/2000/svg">
<path d="M11.0667 1.0787C10.2667 1.61203 9.33333 4.14537 9.06667 6.6787C8.66667 10.6787 8.13333 11.4787 4.66667 12.012L0.666667 12.6787L0.266667 99.7454L0 186.679H6.66667C13.8667 186.679 16 184.679 16 178.145C16 175.345 16.6667 174.679 19.3333 174.679C23.3333 174.679 25.3333 171.212 25.3333 164.145V158.679H124H222.667V172.679V186.679H229.333C236.533 186.679 238.667 184.679 238.667 178.145C238.667 175.345 239.333 174.679 242 174.679C243.867 174.679 245.867 173.612 246.667 172.145C247.6 170.279 247.867 141.745 247.733 85.0787L247.333 0.678696L242.8 0.278702C240.267 0.0120392 236.933 0.14537 235.2 0.545364C232.533 1.21204 232 2.2787 232 6.81204C232 11.212 231.6 12.1454 229.867 11.4787C228.8 11.0787 226.667 11.3454 225.2 12.012C222.933 13.3454 222.667 14.9454 222.667 30.012V46.6787H205.333H188V41.212C188 36.812 188.4 36.012 189.733 37.0787C191.067 38.2787 192.267 38.012 194.4 36.5454C198.533 33.612 198 31.4787 192.533 28.9454C189.867 27.612 187.467 25.3454 187.067 24.012C186.667 22.5454 185.6 21.3454 184.533 21.3454C183.067 21.3454 180 17.4787 180 15.612C180 15.212 181.867 14.6787 184.133 14.1454C189.867 13.0787 189.2 8.01204 183.067 6.14537C180.667 5.4787 178.667 4.14537 178.667 3.34537C178.667 2.41203 177.733 1.21204 176.533 0.812027C173.067 -0.521301 154.933 -0.121292 154 1.34537C153.467 2.14537 150.8 3.87871 147.867 5.34537C145.067 6.81204 142.667 8.94537 142.667 10.012C142.667 11.4787 141.2 12.012 137.467 12.012C128.933 12.012 124 13.4787 124 16.012C124 17.212 122.533 18.9454 120.8 19.7454C119.067 20.412 117.333 22.412 116.933 23.8787C116.133 27.212 119.467 31.212 122.133 30.1454C123.6 29.612 124 31.3454 124 38.412V47.3454H115.333H106.667V38.6787C106.667 31.4787 107.067 29.7454 109.333 28.2787C112.667 26.2787 112.8 24.412 109.467 23.3454C108.133 22.9454 106.667 21.3454 106.267 20.012C105.733 17.612 104.4 17.3454 96 17.3454C87.6 17.3454 86.4 17.612 85.7333 20.012C85.3333 21.4787 84.2667 22.6787 83.2 22.6787C80.9333 22.6787 81.3333 29.0787 83.7333 30.5454C84.9333 31.212 85.3333 34.012 85.0667 39.4787L84.6667 47.3454L55.0667 47.7454L25.3333 48.1454V24.012V0.0120392H19.0667C15.4667 0.0120392 12 0.545364 11.0667 1.0787ZM222.667 103.345V128.012H217.333H212L212.8 115.345C213.467 106.145 213.333 102.679 212.133 102.679C211.333 102.679 210.667 101.879 210.667 100.812C210.667 98.412 206.4 97.3454 195.733 97.3454C190.8 97.3454 186.4 96.6787 186 96.012C184.933 94.412 165.067 94.2787 163.333 95.8787C160.933 97.8787 154.933 98.812 154.4 97.0787C154 96.1454 150.133 95.212 144.133 94.9454C136.267 94.412 134.133 94.812 132 96.6787C129.333 99.0787 129.333 98.9454 129.333 93.7454V88.412L121.333 87.612C112.267 86.812 102.667 87.7454 102.667 89.4787C102.667 90.1454 101.467 90.6787 100 90.6787C98.5333 90.6787 96.9333 91.612 96.5333 92.6787C96 93.7454 94.6667 94.6787 93.3333 94.6787C92 94.6787 90 95.4787 89.0667 96.5454C87.7333 97.7454 85.0667 98.1454 80.2667 97.612C73.3333 96.9454 73.2 96.9454 72.8 90.6787C72.6667 89.612 70.6667 88.2787 68 87.7454C61.4667 86.2787 46.6667 87.8787 45.7333 90.1454C45.3333 91.212 43.0667 92.012 40.4 92.012H35.6L36.5333 110.012L37.6 128.012H31.4667H25.3333V103.345V78.6787H124H222.667V103.345Z" fill="black"/>
</svg>
