<svg width="300" height="449" viewBox="0 0 300 449" fill="none" xmlns="http://www.w3.org/2000/svg">
<path d="M183.572 1.45642C179.837 5.92444 178.512 27.1778 181.403 34.3025C183.451 39.1328 183.21 39.012 189.474 37.2007C193.691 35.8723 194.413 35.9931 198.389 39.012C206.219 45.0499 205.978 41.5479 204.894 118.833C204.412 157.355 203.689 190.442 203.448 192.495C203.087 194.427 201.762 198.533 200.316 201.552C198.991 204.571 197.786 208.193 197.786 209.763C197.786 212.42 197.546 212.541 187.306 212.178L176.705 211.816L176.344 200.586C176.103 190.563 176.223 189.476 178.151 189.476C179.355 189.476 181.644 188.389 183.331 187.061C185.017 185.733 187.306 184.646 188.511 184.646C190.438 184.646 191.281 183.317 189.956 181.989C189.233 181.265 181.524 182.593 178.03 184.042C176.223 184.887 175.982 184.646 176.585 182.593C177.548 179.453 172.971 177.28 163.092 176.434C156.708 175.951 155.624 175.589 156.226 173.778C157.19 170.879 152.853 167.498 148.034 167.377C143.216 167.257 139.963 169.43 139.963 172.57C139.963 174.261 138.517 174.864 133.097 175.589C123.58 176.797 117.797 179.212 118.761 181.748C119.363 183.197 119.002 183.559 117.436 182.834C116.231 182.351 112.979 181.627 110.208 181.385C104.305 180.661 103.221 182.472 108.401 184.525C110.208 185.25 112.497 186.336 113.461 186.94C114.424 187.544 116.231 188.389 117.436 188.751C119.363 189.355 119.484 190.804 119.243 200.586L118.882 211.816L82.501 212.178L46 212.42V217.854C46 221.839 46.6023 223.53 48.0479 224.133C49.8549 224.858 49.8549 228.602 49.1321 269.055C48.6502 293.328 47.807 331.608 47.2047 353.948C46.3614 380.998 46.4819 395.73 47.2047 397.904C47.9274 399.594 48.5298 406.115 48.7707 412.395L49.0116 423.746H54.3121C58.6489 423.746 59.3717 423.384 58.7693 421.814C58.0465 420.123 59.1307 411.066 61.0582 402.372C61.6605 399.715 61.9014 399.836 65.7563 404.183C69.0089 407.806 69.8522 409.859 70.334 415.534C70.8159 421.693 71.6591 423.746 76.7187 430.508C77.4415 431.474 77.321 434.131 76.2368 438.116C75.3936 441.497 75.0322 445.361 75.514 446.69C76.2368 448.984 77.0801 449.226 83.7057 448.863L91.1746 448.501L90.6927 439.082C90.4518 432.803 90.6927 429.784 91.6564 429.784C94.4271 429.784 97.8002 424.953 97.8002 420.848C97.8002 418.553 98.7639 415.655 99.9685 414.327C101.776 412.153 104.667 411.791 131.771 410.463C158.635 409.255 161.767 409.255 163.574 410.946C165.984 413.481 167.188 413.361 169.116 410.583C170.561 408.651 175.621 407.927 215.254 404.545C239.829 402.493 261.031 400.802 262.356 400.802C264.524 400.802 265.006 401.768 265.729 406.719C266.09 409.979 267.295 413.24 268.259 414.085C269.223 414.931 270.066 416.983 270.066 418.795C270.066 427.61 271.511 431.233 275.607 432.923C281.871 435.58 285.606 435.097 286.449 431.595C287.413 427.61 286.329 424.833 283.317 424.108C280.546 423.384 280.185 420.968 282.594 419.036C285.124 416.863 287.292 404.425 286.329 397.058C285.847 393.436 285.244 356.967 285.003 316.03C284.522 232.224 283.558 240.074 293.797 238.383C299.459 237.538 300.664 236.451 299.7 233.19C299.218 231.62 295.604 230.413 285.485 228.118L271.873 225.1L270.909 218.458C270.307 214.835 269.463 211.333 268.861 210.85C268.379 210.246 263.802 209.28 258.742 208.677C249.828 207.71 249.466 207.59 243.322 201.31L236.938 195.031V117.021V39.1328L233.806 32.3704C227.662 19.4493 216.579 10.7548 200.919 6.64899C197.184 5.68292 192.727 3.75079 190.92 2.30173C187.306 -0.475708 185.379 -0.717224 183.572 1.45642Z" fill="black"/>
<path d="M68.8137 69.683C17.0824 70.0458 1.6474 70.4086 0.923886 71.618C-0.402558 73.6738 -0.281972 86.7344 1.16506 89.3949C2.12974 91.2088 4.54146 91.6926 16.6 92.4181L30.9498 93.2647L30.3468 110.437C29.7439 127.246 29.7439 127.488 26.3675 130.632C24.3175 132.567 22.8705 135.107 22.8705 136.921C22.8705 142.484 31.0703 149.861 37.3408 149.861C41.4407 149.861 46.8671 146.354 47.7112 143.209C48.917 138.493 44.3348 132.325 37.7026 129.786L32.2762 127.609L32.9997 122.288C33.3615 119.265 33.7232 111.525 33.7232 104.995V93.0228H51.3288H68.9343L68.4519 109.59C67.9696 123.256 67.4873 127.246 65.4373 131.721C62.1815 138.493 58.9257 149.861 60.0109 149.861C60.4933 149.861 61.8197 147.321 62.905 144.056C63.9903 140.912 65.799 137.284 66.7637 135.953C68.4519 133.898 68.8137 133.777 69.899 135.349C70.5019 136.316 71.1048 140.186 71.2254 143.814C71.346 148.772 71.5872 149.74 72.1901 147.442C72.6724 145.749 72.9136 132.809 72.5519 118.66L71.9489 93.0228H91.2427H110.536L105.834 113.218C98.9602 142.605 98.9602 141.395 104.145 145.991C110.054 151.191 116.325 151.312 120.907 146.474C122.716 144.66 124.163 141.879 124.163 140.549C124.163 138.372 123.077 137.767 118.013 136.679C107.763 134.502 106.919 133.656 107.883 127.125C108.728 120.595 113.069 98.3438 114.033 95.0786C114.636 93.3856 116.204 93.0228 124.283 93.0228C132.724 93.0228 133.809 93.2647 132.845 94.9577C129.83 100.4 135.015 106.325 143.818 107.535C149.244 108.26 149.486 108.623 152.862 119.628C155.394 127.609 161.544 141.879 162.147 141.153C162.388 140.912 161.182 135.107 159.615 128.093C158.047 121.079 156.841 115.032 157.083 114.428C157.203 113.944 162.388 117.935 168.538 123.377C174.567 128.698 179.632 132.809 179.632 132.446C179.632 130.874 164.438 111.888 160.579 108.744L156.238 105.237L158.288 101.246C159.253 99.0694 160.459 96.4089 160.7 95.3205C161.424 93.1437 167.332 91.8135 176.256 91.8135H181.923L182.647 86.4925C183.37 81.6553 183.008 77.0599 181.32 70.8924C180.717 69.0784 178.667 68.8365 158.168 69.0784C145.747 69.3203 105.472 69.5621 68.8137 69.683ZM150.812 96.2879C151.415 98.1019 151.897 100.521 151.656 101.609C151.415 103.302 150.209 102.697 145.627 98.3438L139.959 93.0228H144.783C148.883 93.0228 149.727 93.5065 150.812 96.2879ZM145.386 102.818C146.712 104.995 145.024 105.237 140.683 103.544C135.739 101.488 134.051 99.1903 136.342 97.8601C137.789 96.8926 143.697 100.037 145.386 102.818Z" fill="black"/>
</svg>
