<svg width="97" height="487" viewBox="0 0 97 487" fill="none" xmlns="http://www.w3.org/2000/svg">
<path d="M2.88217 0.28085L0.196289 0.504673V2.91078C0.196289 6.10026 2.04283 8.78615 4.95254 9.84931C6.57526 10.4648 10.1564 10.8006 17.8224 10.9684L28.51 11.1922L26.9992 14.3258C25.5443 17.4593 25.4884 17.5712 26.1598 22.1596C26.8313 26.692 26.9432 26.8599 29.9089 29.8815C31.5875 31.5602 33.9377 33.2948 35.2806 33.7984L37.6867 34.7497V38.2749V41.8001L39.8131 42.3597C40.9322 42.6954 43.2264 42.9752 44.9051 42.9752H47.8707L47.4231 44.486C47.1992 45.3813 46.9754 49.578 46.9195 53.8306C46.8635 61.1049 46.7516 61.6645 45.6884 62.1681C43.9538 62.9515 42.1632 67.2041 42.1632 70.5615C42.1632 74.5903 42.9466 76.9964 45.017 79.5144L46.8076 81.6967L46.8635 89.2507C46.9195 96.469 46.8635 96.8607 45.7444 97.3643C43.9538 98.2037 42.1632 102.4 42.1632 105.814C42.1632 109.842 43.0585 112.64 45.0729 114.934L46.8076 116.893L46.8635 124.727C46.9195 131.721 46.8076 132.561 45.9123 132.84C45.4087 133.008 44.2895 134.351 43.5621 135.862C41.212 140.506 41.8834 146.885 45.1289 150.299L46.9195 152.145V160.203C46.9195 167.477 46.8076 168.372 45.9123 168.652C44.3455 169.156 42.1632 174.08 42.1632 177.157C42.1632 180.683 43.4502 184.376 45.3527 186.39C46.8635 187.901 46.8635 188.069 46.9195 195.735C46.9195 202.785 46.8076 203.625 45.9123 203.904C45.4087 204.072 44.2895 205.415 43.5621 206.926C41.2679 211.458 41.8834 217.054 45.1848 221.195L46.9754 223.433L46.9195 231.099C46.8635 238.653 46.8635 238.765 45.4087 239.884C41.3798 243.073 41.156 252.474 45.0729 256.503C46.6956 258.238 46.7516 258.293 46.8635 265.624C46.9754 269.653 46.8076 272.954 46.5837 272.954C46.304 272.954 46.0801 273.29 46.0801 273.681C46.0801 274.129 45.0729 274.745 43.8978 275.136C41.3798 275.864 40.7084 277.095 41.8275 278.829C42.5549 279.948 42.443 280.34 40.9881 283.362C39.8131 285.712 39.1976 287.894 38.9737 290.692C38.6939 294.497 38.7499 294.777 40.1488 296.064C40.9322 296.791 41.6037 297.798 41.6037 298.302C41.6037 299.253 40.7643 299.477 34.8889 300.093C30.3565 300.596 27.7825 301.38 26.2717 302.778C25.4884 303.45 23.3061 307.031 21.4036 310.724C17.8784 317.495 15.752 320.516 14.3531 320.516C13.1221 320.516 9.03732 322.811 7.97416 324.098C5.12041 327.455 8.92541 332.939 16.3116 336.016L18.382 336.912L16.1437 337.583C12.7864 338.534 11.3875 339.486 10.8279 340.996C10.0445 342.955 11.1077 344.857 13.6817 345.976L15.808 346.984L13.6817 351.236C9.03732 360.525 7.02291 376.137 8.58967 390.909C9.20519 396.784 11.2196 406.912 12.0589 408.535C12.3947 409.207 12.2828 409.878 11.6672 410.717C11.2196 411.445 10.8279 412.172 10.8279 412.34C10.8279 412.564 12.6745 414.746 14.9127 417.208C17.9343 420.51 19.3892 422.58 20.3404 425.098L21.5714 428.455L20.3964 429.966C18.6058 432.204 18.7736 435.394 20.7881 436.793C23.3061 438.583 27.167 440.262 28.7898 440.262C31.3637 440.262 31.9792 440.822 32.9864 443.787C34.1615 447.313 37.0712 451.957 39.1976 453.747C40.0928 454.531 40.9881 455.538 41.212 456.098C41.3798 456.601 42.443 457.496 43.5621 458C45.8563 459.063 46.304 461.19 44.3455 461.805C42.5549 462.421 41.0441 465.386 41.0441 468.408C41.0441 470.534 41.3239 471.374 42.443 472.493C43.6181 473.668 43.7859 474.115 43.2264 474.731C42.7228 475.346 42.7787 475.738 43.4502 476.521C43.9538 477.025 44.5693 478.536 44.8491 479.823C45.1289 481.11 46.192 483.236 47.1992 484.467L49.0458 486.817L50.3328 485.195C52.0674 483.068 53.3544 480.382 53.3544 478.816C53.3544 478.144 53.7461 477.081 54.2497 476.521C55.0331 475.738 55.0331 475.346 54.4735 474.731C53.914 474.003 54.0818 473.668 55.2569 472.605C57.9428 470.198 57.0475 463.372 53.914 462.085C51.7317 461.19 51.6198 459.175 53.6901 458.224C57.9428 456.321 63.3705 449.942 65.1611 444.795C66.0564 442.221 66.0564 442.221 69.078 441.941C71.5401 441.717 72.1556 441.437 72.2675 440.542C72.3794 439.87 73.4426 438.863 75.0653 438.024C78.5346 436.177 79.5418 434.331 78.5346 431.925C78.1429 430.917 77.4714 429.742 77.0797 429.351C76.4082 428.735 76.5201 428.008 77.5273 425.21C78.4226 422.636 79.7656 420.678 82.8432 417.32C85.0814 414.858 86.9279 412.452 86.9279 412.004C86.9279 411.053 84.4099 409.039 82.6193 408.591C81.0526 408.199 81.0526 408.311 82.5074 405.513C86.3684 397.903 88.7745 379.326 87.5994 365.953C86.9839 359.406 85.2493 350.621 83.8504 347.263C83.5706 346.592 83.9623 346.088 85.1933 345.417C88.8864 343.514 87.7673 339.765 82.9551 337.975L80.0454 336.912L83.5146 335.065C87.8792 332.715 90.8448 329.413 90.8448 326.895C90.8448 324.489 88.3828 321.971 85.1933 321.02C81.9479 320.069 80.9407 319.174 78.9822 315.201C78.0869 313.354 76.1284 309.773 74.7296 307.255C72.4354 303.226 71.7639 302.499 69.5816 301.547C68.1827 300.988 65.5528 300.316 63.7062 300.093C56.7677 299.365 56.1522 299.197 56.1522 298.134C56.1522 297.575 56.7677 296.735 57.5511 296.232C58.7821 295.448 58.95 294.889 58.95 292.315C58.95 288.901 57.2713 282.914 55.8724 281.403C55.089 280.452 55.089 280.228 55.9843 278.605C56.9356 276.871 56.9356 276.815 55.8724 275.976C55.2569 275.528 54.0818 274.968 53.2425 274.8C52.3472 274.633 51.6757 274.129 51.6757 273.737C51.6757 273.29 51.3959 272.954 51.1162 272.954C50.7245 272.954 50.6685 270.66 50.8923 266.071C51.2281 259.301 51.284 259.245 53.0746 257.286C56.376 253.761 57.1594 247.438 54.8092 242.85C54.0259 241.339 52.8508 239.884 52.1793 239.604C50.9483 239.045 50.8923 238.765 50.8923 231.267L50.8364 223.433L52.8508 221.642C55.145 219.572 56.1522 216.774 56.1522 212.578C56.1522 209.164 54.0818 204.632 52.1793 203.792C50.9483 203.233 50.8923 202.953 50.8923 195.567C50.8364 191.37 51.0042 187.901 51.284 187.901C52.1793 187.901 55.0331 184.152 55.5926 182.305C57.0475 177.157 55.2569 169.883 52.1793 168.54C51.0042 167.981 50.9483 167.701 50.8923 160.035C50.8364 153.432 50.9483 152.089 51.6757 151.921C52.1234 151.809 53.2425 150.634 54.1378 149.347C55.4807 147.445 55.8165 146.27 56.0403 142.968C56.2641 139.387 56.0962 138.548 54.8652 136.086C54.0818 134.519 52.8508 133.008 52.1793 132.728C50.9483 132.169 50.8923 131.889 50.8364 124.615V117.173L52.8508 115.326C53.9699 114.319 55.145 112.528 55.4807 111.353C57.1034 106.037 55.5926 99.2668 52.4031 97.4762L50.8364 96.581V89.2507V81.9205L52.8508 80.074C57.4392 75.9332 57.1594 64.742 52.4031 61.9442C51.0042 61.1609 51.0042 61.049 50.8923 53.0473C50.8364 48.5708 50.5566 44.486 50.3328 43.9265C49.9411 43.0871 50.2209 42.9752 52.8508 42.9752C54.5295 42.9752 56.8237 42.6954 57.9987 42.3597L60.0691 41.8001V38.2189V34.6937L62.5871 33.6865C65.1611 32.7353 69.8054 28.2588 70.7007 25.9087C70.9245 25.2372 71.3162 23.0549 71.5401 21.0405C71.9318 17.4593 71.5401 15.9485 69.1899 11.5839C69.078 11.3601 73.8343 11.0803 79.7656 10.9684C89.1102 10.7446 90.9008 10.5767 93.0831 9.56953C95.9928 8.28254 97 6.60387 97 3.02269V0.616585L93.5867 0.224894C90.0055 -0.110842 7.58247 -0.0548858 2.88217 0.28085ZM49.4375 53.327C49.4375 56.8523 49.2137 59.2024 48.8779 59.2024C48.2624 59.2024 48.0945 48.4589 48.7101 47.8434C49.3815 47.1159 49.4375 47.4517 49.4375 53.327ZM53.3544 65.9171C55.3129 69.7221 54.6414 76.269 52.0115 78.731L50.6685 80.018L50.053 78.8429C49.2137 77.3321 48.3743 77.3321 47.8148 78.8989C47.3671 80.074 47.2552 80.018 45.8003 77.7798C43.5621 74.3665 43.2264 68.8268 45.0729 65.6373C46.0801 63.9027 46.7516 63.3991 47.8707 63.3991C48.6541 63.3991 49.4934 63.2312 49.7173 63.0074C50.4447 62.28 52.2353 63.6789 53.3544 65.9171ZM49.4375 88.5793C49.4375 92.1045 49.2137 94.4546 48.8779 94.4546C48.5422 94.4546 48.3184 92.4402 48.3184 89.4746C48.3184 84.9421 48.5981 82.7039 49.2137 82.7039C49.3256 82.7039 49.4375 85.3338 49.4375 88.5793ZM51.7876 98.8751C52.0115 98.8751 52.7389 99.9383 53.3544 101.169C55.3129 105.03 54.6414 111.521 51.9555 114.039C50.5566 115.326 50.5566 115.326 49.7173 114.263C48.9339 113.256 48.822 113.256 48.0945 114.151C47.4231 115.102 47.3112 115.102 46.4159 114.095C43.2264 110.57 43.0585 103.016 46.1361 99.1549C46.5278 98.7073 49.8851 98.4835 51.7876 98.8751ZM49.4375 124.111C49.4375 127.86 49.2137 130.266 48.8779 130.266C48.5422 130.266 48.3184 128.252 48.3184 125.342C48.3184 120.866 48.7101 117.956 49.2137 117.956C49.3256 117.956 49.4375 120.698 49.4375 124.111ZM51.7317 134.351C55.2009 136.981 55.3129 146.158 51.9555 149.291C50.8364 150.355 50.4447 150.466 49.7173 149.851C49.1017 149.347 48.7101 149.291 48.1505 149.795C47.535 150.243 47.0873 150.075 46.248 149.124C43.73 146.326 43.1145 140.618 44.9051 136.589C45.8563 134.519 46.248 134.239 48.1505 134.015C49.3256 133.904 50.3887 133.792 50.5566 133.736C50.7245 133.68 51.2281 133.959 51.7317 134.351ZM48.8779 165.742C48.4862 166.134 48.3184 164.735 48.3184 161.266C48.3184 153.88 49.1017 152.313 49.3256 159.308C49.4375 162.833 49.2696 165.351 48.8779 165.742ZM51.5638 169.939C51.9555 169.939 52.7948 171.17 53.3544 172.569C55.2569 176.934 54.5854 182.641 51.9555 185.103C50.5566 186.39 50.5566 186.39 49.7173 185.327C48.9339 184.32 48.822 184.32 48.0945 185.215C47.4231 186.166 47.3112 186.166 46.4159 185.159C44.0098 182.473 43.1704 176.598 44.6812 172.905C45.9682 169.827 46.7516 169.491 51.5638 169.939ZM49.4375 194.895C49.4375 198.421 49.2137 200.771 48.8779 200.771C48.5422 200.771 48.3184 199.036 48.3184 196.63C48.3184 192.769 48.766 189.02 49.2137 189.02C49.3256 189.02 49.4375 191.65 49.4375 194.895ZM51.5638 205.191C51.9555 205.191 52.7948 206.31 53.3544 207.597C55.2569 211.794 54.5854 217.893 51.9555 220.355C50.8364 221.419 50.4447 221.53 49.7173 220.915C49.1017 220.411 48.7101 220.355 48.0945 220.859C46.8635 221.866 44.4015 217.781 44.0098 213.976C43.674 210.675 44.9051 206.199 46.3599 205.415C47.0314 205.023 48.9898 204.968 51.5638 205.191ZM49.4375 230.707C49.4375 234.232 49.2137 236.583 48.8779 236.583C48.5422 236.583 48.3184 234.848 48.3184 232.442C48.3184 228.581 48.766 224.832 49.2137 224.832C49.3256 224.832 49.4375 227.462 49.4375 230.707ZM51.5079 240.947C51.8995 241.003 52.7389 242.122 53.4104 243.409C55.145 246.823 54.6973 252.474 52.5151 255.384C51.1162 257.23 50.8364 257.342 50.2768 256.503C49.4934 255.44 48.4862 255.328 48.1505 256.279C47.7588 257.454 45.1848 254.712 44.4574 252.306C43.2823 248.333 44.1776 242.962 46.304 241.339C46.9195 240.835 49.2137 240.667 51.5079 240.947ZM49.4375 263.441C49.4375 266.071 49.2137 267.918 48.8779 267.918C48.2624 267.918 48.0945 262.266 48.6541 260.196C49.2696 258.07 49.4375 258.797 49.4375 263.441ZM41.4917 441.717C42.443 441.997 42.7228 442.5 42.7228 443.955C42.7228 445.298 43.0026 445.858 43.5621 445.858C44.1776 445.858 44.4015 446.473 44.4015 448.208C44.3455 450.502 44.3455 450.558 43.5062 449.495C42.6109 448.376 39.3654 442.221 39.3654 441.661C39.3654 441.325 39.869 441.325 41.4917 441.717ZM57.4951 444.291C55.8724 447.536 53.5223 450.894 52.8508 450.894C52.627 450.894 52.627 449.439 52.8508 447.648C53.0746 445.914 53.2984 443.899 53.2984 443.228C53.3544 442.276 53.7461 441.941 55.2009 441.773C59.2857 441.269 59.1179 441.101 57.4951 444.291ZM49.4375 444.962C49.4375 446.641 49.2137 448.208 48.8779 448.376C48.5422 448.6 48.3184 448.04 48.3184 447.089C48.3184 446.193 48.1505 444.627 47.9826 443.675C47.7028 442.332 47.8148 441.941 48.5422 441.941C49.2696 441.941 49.4375 442.556 49.4375 444.962Z" fill="black"/>
</svg>
