<svg width="179" height="187" viewBox="0 0 179 187" fill="none" xmlns="http://www.w3.org/2000/svg">
<g opacity="0.5">
<path d="M22.1092 0.147934C21.7149 0.308566 20.8533 1.08252 20.6343 1.4768C20.5175 1.69585 20.6197 1.79807 21.2622 2.11933C22.226 2.60123 22.5035 2.84948 22.8539 3.52122C23.2044 4.20756 23.3651 4.96691 23.5695 6.8799L23.7447 8.44242L21.8902 10.6475C20.2254 12.6043 19.9772 12.8379 19.5683 12.8379C18.7505 12.8379 17.188 13.2468 16.6623 13.5973C16.1658 13.9185 16.122 14.0061 15.9029 15.2474C15.7715 15.9629 15.6255 16.8829 15.5817 17.2918L15.5087 18.022L13.362 19.5553C8.20717 23.2498 4.99452 27.4555 2.30757 34.0122C0.496803 38.4515 -0.0143008 41.2407 0.000302186 46.5708C0.000302186 52.8792 0.613627 55.4932 3.18375 60.3706C5.11134 63.9921 6.8783 66.533 9.09795 68.8111C11.6097 71.4104 13.8877 73.0605 17.334 74.8275C18.2686 75.3094 19.0718 75.8059 19.101 75.9227C19.1448 76.0396 19.5829 78.376 20.0648 81.1214L20.9702 86.101L20.1086 88.5251C18.9696 91.6647 18.9257 91.5333 21.934 93.4609L23.3797 94.3955L23.5695 95.8558C23.92 98.6741 24.5771 100.368 26.5193 103.479L27.5415 105.129L27.4685 126.04C27.4247 137.547 27.3225 147.857 27.2348 148.967C27.1326 150.427 27.0158 151.143 26.7967 151.639C26.5339 152.238 26.5047 152.457 26.6215 153.158C26.6945 153.625 26.7237 158.167 26.6799 163.687C26.6215 170.521 26.6507 173.514 26.7675 173.806C26.899 174.128 27.0158 174.201 27.4393 174.201C28.0672 174.201 29.3669 174.624 30.9002 175.325L32.0392 175.851V176.858C32.0392 177.778 32.01 177.866 31.6741 178.027C31.2507 178.217 30.8272 179.034 30.0824 181.049L29.5713 182.422L31.0608 183.97C31.8786 184.817 32.784 185.825 33.0468 186.219C33.3243 186.599 33.5725 186.905 33.5871 186.905C33.6163 186.905 34.4341 186.511 35.4125 186.029C38.669 184.437 39.4429 183.547 39.9248 180.816C40.1147 179.764 40.1147 179.764 39.7204 179.297C39.2677 178.771 38.3185 176.946 38.3185 176.625C38.3185 176.26 39.7934 174.785 40.5235 174.42C40.9032 174.23 41.6772 173.952 42.2467 173.836L43.2689 173.602L43.1959 171.966C43.1667 171.061 43.0645 166.257 42.9914 161.277C42.9038 156.297 42.7724 148.967 42.6994 144.995C42.6264 141.023 42.5241 135.24 42.4657 132.144L42.3635 126.507L42.9184 125.281C44.0429 122.769 46.3209 119.367 46.9634 119.235C47.1533 119.191 48.3069 119.016 49.519 118.855C52.2789 118.49 54.0605 118.038 55.9297 117.264C57.2293 116.723 57.6382 116.621 60.1499 116.3C62.8953 115.949 63.0997 115.949 83.2956 115.803C94.4961 115.716 108.938 115.599 115.364 115.541L127.075 115.453L127.046 117.264C127.032 118.68 127.09 119.235 127.294 119.834C127.44 120.257 127.616 120.637 127.689 120.681C127.762 120.725 128.579 120.593 129.514 120.389C130.449 120.184 131.31 120.024 131.412 120.024C131.661 120.024 133.953 124.375 134.464 125.836C135.457 128.639 136.042 131.677 136.816 138.277C137.108 140.731 137.37 142.877 137.414 143.053C137.473 143.359 137.546 143.359 140.203 143.418C143.328 143.476 143.708 143.593 144.687 144.732C145.621 145.827 145.811 146.733 145.957 150.938C146.059 154.414 146.22 155.684 146.526 155.874C146.599 155.918 146.862 155.772 147.111 155.553L147.563 155.144L147.388 151.931C147.184 147.945 147.286 142.001 147.622 139.913C147.899 138.161 148.396 136.321 149.024 134.831C149.578 133.488 151.871 129.618 154.631 125.354C156.865 121.893 157.552 120.71 157.712 119.951C157.8 119.556 157.785 119.542 157.581 119.732C157.099 120.214 155.347 122.784 153.551 125.675C148.585 133.648 148.264 134.101 147.373 134.568C146.95 134.787 146.994 134.67 148.279 132.188C150.893 127.194 153.492 123.003 154.982 121.426C156.603 119.702 158.545 118.753 161.553 118.198C162.911 117.95 163.612 117.921 163.612 118.111C163.612 118.388 157.201 128.829 152.309 136.525C149.345 141.198 148.659 142.395 148.483 143.169C148.41 143.505 148.571 143.345 149.228 142.439C150.498 140.687 151.302 139.431 155.463 132.538C161.509 122.55 163.816 119.206 165.116 118.593C165.452 118.432 165.744 118.315 165.773 118.344C165.788 118.359 165.101 119.425 164.225 120.695C161.056 125.325 158.632 129.297 155.274 135.313C153.565 138.365 152.66 140.088 152.66 140.249C152.66 140.585 154.208 138.686 157.844 133.897C159.844 131.253 160.151 130.786 161.86 127.457C163.948 123.412 164.488 122.535 165.7 121.236C166.445 120.447 167.934 119.294 168.212 119.294C168.27 119.294 167.934 119.702 167.467 120.214C166.46 121.294 163.714 125.047 162.634 126.829C161.83 128.143 161.319 129.311 161.465 129.472C161.641 129.632 161.962 129.238 162.137 128.639C162.254 128.231 162.429 127.997 162.677 127.909C162.867 127.836 163.028 127.676 163.028 127.573C163.028 127.457 163.174 127.179 163.364 126.96C163.539 126.726 163.919 126.113 164.196 125.587C164.474 125.062 164.868 124.551 165.058 124.448C165.247 124.361 165.496 124.083 165.598 123.835C165.7 123.587 166.416 122.535 167.175 121.484C167.934 120.447 168.592 119.469 168.65 119.308C168.854 118.636 170.563 118.315 174.491 118.198C177.937 118.111 178.974 118.008 178.653 117.833C178.317 117.643 173.469 117.41 163.524 117.103C152.178 116.738 147.33 116.475 146.833 116.154C146.76 116.125 146.673 115.949 146.629 115.803C146.541 115.424 146.585 115.424 152.441 115.132C163.933 114.562 172.578 114.036 175.002 113.73C175.689 113.657 176.404 113.467 176.609 113.336C176.959 113.102 176.39 113.087 166.094 113C156.88 112.927 154.952 112.883 153.463 112.664C149.71 112.123 147.695 111.32 146.877 110.021C146.483 109.422 146.497 106.195 146.877 105.435L147.14 104.939L156.661 105.041C161.889 105.085 167.686 105.158 169.526 105.187C173.834 105.275 171.468 105.085 165.145 104.851C152.981 104.384 147.768 103.844 146.658 102.953C146.337 102.69 146.337 102.675 146.57 102.296C147.096 101.493 148.25 101.215 151.784 101.054C154.105 100.952 154.164 100.938 153.507 100.762C152.777 100.558 152.076 100.032 152.076 99.6818C152.076 99.2437 154.032 95.5491 156.807 90.6863C159.932 85.254 161.027 83.1512 161.202 82.348C161.261 82.0706 161.275 81.8661 161.232 81.9099C161.202 81.9538 160.005 84.1442 158.574 86.7873C155.916 91.7523 154.222 94.6729 153.2 96.0748C152.28 97.3307 150.133 100.018 150.09 99.9738C150.06 99.9446 151.491 97.0824 153.273 93.5923C157.011 86.247 158.968 82.129 158.91 81.7347C158.837 81.3258 158.267 82.275 155.799 86.875C152.28 93.4463 151.01 95.4907 150.674 95.1548C150.425 94.9212 151.214 93.1542 154.441 86.7143C157.201 81.2382 157.815 79.9093 157.902 79.1938C157.975 78.7265 158.004 78.3176 157.99 78.2884C157.902 78.1862 151.521 90.5549 150.279 93.2272C149.754 94.3517 149.126 95.8558 148.863 96.5859C148.396 97.9586 147.87 98.9516 147.49 99.2875C147.038 99.6525 147.242 98.8348 148.191 96.4545C150.25 91.3289 154.105 82.976 155.931 79.7195C157.011 77.7773 157.669 76.2878 157.581 76.0249C157.464 75.6453 155.814 78.6243 150.586 88.7295C148.41 92.9352 146.585 96.3231 146.512 96.2793C146.439 96.2355 146.38 96.0456 146.38 95.8412C146.38 94.7752 154.047 79.1938 156.865 74.5354C157.303 73.8199 157.683 73.1774 157.727 73.1044C157.873 72.8561 157.318 73.0313 157.041 73.3234C156.53 73.8783 155.055 76.4338 151.813 82.3626C148.775 87.941 147.417 90.292 147.315 90.2044C147.286 90.1752 147.651 89.1238 148.118 87.8826C149.812 83.341 149.914 82.0122 148.542 82.7277C148.308 82.8445 148.089 82.9322 148.06 82.9029C147.987 82.8153 150.279 77.8795 151.039 76.5068C151.462 75.7475 152.499 74.0243 153.331 72.6955C154.704 70.4904 155.098 69.6435 154.719 69.6435C154.295 69.6435 150.995 75.2072 149.213 78.9017C148.191 81.0484 147.184 83.8959 147.023 85.1226C146.892 86.1302 146.702 85.7505 146.687 84.4655C146.658 82.2896 148.498 77.5145 151.448 72.0821C152.645 69.8625 153.244 68.4168 153.025 68.2124C152.806 68.0079 152.032 69.2346 149.447 73.8053C147.987 76.4192 146.76 78.5513 146.731 78.5513C146.556 78.5513 148.016 74.8421 149.067 72.6371C149.739 71.1914 150.367 69.7165 150.455 69.3514C150.688 68.3584 150.645 65.8759 150.396 65.0143C150.06 63.8753 149.885 63.8169 149.17 64.6346C148.834 65.0143 148.323 65.7007 148.031 66.1679C147.753 66.6498 147.476 66.9857 147.417 66.9419C147.373 66.8835 147.096 65.9197 146.804 64.7807C146.22 62.488 146.249 62.488 145.869 65.0435C145.592 67.0295 145.168 67.9495 144.278 68.592C143.255 69.3368 142.321 69.4974 139.196 69.4974H136.465L136.392 69.9647C136.348 70.2276 136.202 71.5272 136.085 72.8561C135.647 77.4268 134.829 81.8953 133.384 87.7511C132.128 92.7892 131.339 94.8482 130.39 95.5783C130.127 95.7682 129.879 95.9288 129.821 95.9288C129.397 95.9288 128.652 96.4983 128.229 97.1408C127.616 98.1046 126.812 99.9154 126.812 100.353V100.704L122.84 100.792C120.665 100.85 116.021 100.894 112.516 100.894C99.3735 100.894 71.1168 101.288 63.6546 101.566L61.1721 101.668L60.9823 101.127C60.7194 100.397 60.1499 100.018 57.7404 98.9078C54.703 97.5205 53.8999 96.9218 52.1475 94.7021L51.3443 93.6945L51.8408 91.8546C52.4104 89.7517 52.4396 89.3575 52.0745 88.7441C51.651 88.014 48.9787 86.9334 48.9787 87.4883C48.9787 87.6051 49.1393 88.1162 49.3437 88.6273C49.7964 89.7809 49.7964 89.8248 49.3145 89.7663C48.7742 89.7079 48.3653 89.0508 47.9418 87.5759C47.4307 85.7943 47.4599 82.1728 48.0003 78.303C48.2193 76.7697 48.3945 75.47 48.3945 75.4262C48.3945 75.3824 48.5406 75.3386 48.7158 75.3386C49.0955 75.3386 50.4243 74.5647 52.8484 72.9583C56.9227 70.2568 59.0547 68.0517 61.727 63.8315C64.5746 59.3046 65.8597 55.1135 66.5022 48.1041C67.1155 41.4013 65.8451 35.1658 62.7346 29.5875C61.0845 26.6231 57.5652 22.7971 53.7684 19.7743C52.6586 18.8981 51.7532 18.1534 51.7532 18.095C51.7532 18.0512 51.8846 17.7591 52.0453 17.4378C52.3665 16.7953 52.425 15.9191 52.1767 14.9553L52.0161 14.3128L50.1177 13.6265C49.0225 13.2176 48.1755 12.8379 48.1025 12.6919C48.0295 12.5459 47.9272 12.0494 47.8834 11.5821C47.7082 9.85891 47.679 9.77129 47.2847 9.77129C47.0949 9.77129 46.7882 9.61066 46.5984 9.39161C45.8682 8.55924 45.0505 5.77008 45.2403 4.76247C45.2841 4.48501 45.5908 3.9155 45.912 3.49201C46.5546 2.63044 46.7882 1.98791 46.7882 1.06792V0.454596L44.8606 0.366978C42.9914 0.27936 25.8037 -0.0273021 23.5695 0.00190384C22.9708 0.00190384 22.3136 0.0749187 22.1092 0.147934ZM42.1445 1.31617C42.1883 1.60823 42.1445 1.79807 42.0276 1.84188C41.721 1.9587 41.5311 1.75426 41.5311 1.28696C41.5311 0.9657 41.6042 0.863479 41.8086 0.863479C41.9984 0.863479 42.1007 0.994906 42.1445 1.31617ZM39.3115 1.33077C39.6036 1.62283 39.5159 1.91489 39.1655 1.85648C38.9464 1.82727 38.815 1.69585 38.7858 1.4768C38.7274 1.12633 39.0194 1.03871 39.3115 1.33077ZM37.3547 1.43299C37.749 1.52061 37.7636 1.53522 37.5153 1.73966C37.2963 1.9295 36.3179 1.9587 30.7249 1.9587C25.132 1.9587 24.1536 1.9295 23.9346 1.73966C23.6863 1.53522 23.7301 1.52061 24.4603 1.43299C25.5263 1.31617 36.829 1.31617 37.3547 1.43299ZM30.7688 3.57963C31.5427 3.62344 32.1852 3.71106 32.1852 3.75487C32.1998 3.81328 32.3459 4.9085 32.5357 6.19356L32.857 8.53004L32.1998 8.63226C31.8348 8.69067 30.3745 8.76368 28.9726 8.77829L26.4171 8.8221L26.3733 6.33959C26.3295 3.95931 26.3441 3.84248 26.6507 3.60884C26.972 3.33138 26.7675 3.33138 30.7688 3.57963ZM35.4271 3.9009C35.4709 4.06153 35.4563 4.73327 35.3833 5.405C35.3249 6.07674 35.2519 6.8653 35.2373 7.14275C35.1935 7.81449 35.0036 5.93071 34.9744 4.61644C34.9598 3.87169 35.0036 3.63804 35.1642 3.63804C35.2665 3.63804 35.3979 3.75487 35.4271 3.9009ZM33.6455 8.66146C33.5725 8.73448 33.4703 8.76368 33.4265 8.71987C33.3827 8.67607 33.4265 7.62465 33.5287 6.398L33.7186 4.14915L33.7624 6.32499C33.777 7.65386 33.7478 8.55924 33.6455 8.66146ZM31.6741 10.6037C31.7326 10.9103 31.8202 11.3046 31.9078 11.4944C32.01 11.7719 32.083 11.8011 32.3313 11.6697C32.4919 11.5821 32.7986 11.2462 33.0176 10.9249C33.4557 10.2532 33.8938 10.1072 34.6824 10.3408C34.989 10.443 35.2519 10.5306 35.2519 10.5598C35.2519 10.8227 34.697 12.137 34.4487 12.4874C33.996 13.0862 32.4335 13.9185 31.9516 13.8017C31.5865 13.6995 30.9002 12.8817 30.4183 11.9179C29.8342 10.7789 29.25 10.9687 28.1694 12.6773L27.3517 13.9769L26.8114 13.8455C26.5193 13.7871 26.198 13.6119 26.0958 13.4804C25.8622 13.1592 25.8476 12.2392 26.0812 11.7573C26.2418 11.363 26.3587 11.3192 27.2494 11.1732C27.5561 11.1148 28.0526 10.8519 28.3885 10.5745C28.9872 10.078 29.031 10.0633 30.2869 10.0633H31.5865L31.6741 10.6037ZM37.6614 11.5236C37.9972 11.6551 38.0264 11.7135 37.8658 11.9033C37.7636 12.0201 37.5007 12.2246 37.2817 12.3268C36.9166 12.5312 36.8874 12.5166 36.7998 12.1954C36.6245 11.4652 36.9166 11.2462 37.6614 11.5236ZM39.3407 12.6627C39.3407 12.8525 38.8734 13.2322 38.5229 13.3344C38.114 13.4512 37.4423 13.203 37.4423 12.9255C37.4423 12.8087 37.5591 12.6773 37.7052 12.6481C38.1579 12.5312 39.3407 12.5459 39.3407 12.6627ZM29.7612 13.2176C29.9364 13.6557 29.8488 13.8309 29.3961 13.9915C28.3009 14.3712 28.038 13.9477 28.958 13.3198C29.5421 12.9255 29.6443 12.9109 29.7612 13.2176ZM36.2449 13.5096C36.8436 13.6703 36.5661 13.8601 35.7338 13.8601C34.9598 13.8455 34.916 13.8309 35.1642 13.6411C35.4709 13.4074 35.7192 13.3782 36.2449 13.5096ZM21.379 13.8601C21.379 14.0208 21.3498 14.1522 21.3206 14.1522C21.2914 14.1522 21.1454 14.196 21.014 14.2398C20.8095 14.3274 20.8095 14.2836 20.9556 13.9477C21.16 13.495 21.379 13.4512 21.379 13.8601ZM24.5625 13.8893C24.5333 14.1522 24.4165 14.2252 24.0806 14.2252C23.7447 14.2252 23.6279 14.1522 23.5987 13.8893C23.5549 13.6119 23.6133 13.5681 24.0806 13.5681C24.5479 13.5681 24.6063 13.6119 24.5625 13.8893ZM50.0447 14.9699C50.2929 15.0284 50.439 15.1452 50.439 15.3058C50.439 15.5541 49.9863 15.5687 43.5464 15.6709C39.7496 15.7147 33.1636 15.8461 28.8996 15.9337C18.6191 16.1674 18.9696 16.1674 17.962 15.8607C17.4216 15.6855 17.1588 15.5395 17.2464 15.4518C17.3924 15.3058 22.0508 15.0868 29.1916 14.8823C33.7186 14.7655 49.2707 14.8239 50.0447 14.9699ZM46.905 17.9928C50.4097 18.6353 52.79 19.9788 55.8421 23.06C60.1791 27.4117 62.7493 31.7049 64.1511 36.889C66.1517 44.2927 65.8743 49.5936 63.0851 57.742C62.0045 60.8963 61.7709 61.3928 60.2521 63.6854C58.8503 65.7737 57.0687 67.8765 55.5354 69.2492C54.2941 70.3736 51.0961 72.5056 49.5044 73.2942C47.825 74.1412 46.905 74.2142 45.839 73.6301C45.4447 73.411 45.0943 73.1044 45.0651 72.9583C45.0213 72.7101 45.0505 72.7101 45.547 72.9291C46.2771 73.2212 46.3793 73.2066 46.3209 72.8123C46.2917 72.5494 46.1749 72.4764 45.693 72.4472C44.992 72.3888 41.9692 72.8561 41.9692 73.0313C41.9692 73.0898 42.4219 73.1482 42.9768 73.1482C44.1743 73.1482 44.3349 73.2796 44.4225 74.3748C44.4809 75.0758 44.0867 79.6173 43.926 80.1722C43.8968 80.3036 43.5902 80.4935 43.2397 80.5811C42.1591 80.8585 42.0715 80.4789 42.568 77.4122C42.9476 75.1488 42.8454 74.4478 42.1445 74.1996C41.4581 73.9659 41.1223 73.557 40.3191 72.0675C39.4137 70.3444 38.961 69.9501 37.2671 69.3076L36.0112 68.8403L37.1649 67.0879C38.7274 64.7076 38.815 64.2696 38.7128 60.0201C38.6544 57.8297 38.5667 56.6176 38.4061 56.0627C38.2893 55.6246 37.5153 53.4488 36.6976 51.2437C35.8944 49.0387 35.0912 46.8482 34.916 46.3809C34.6531 45.6654 34.5655 45.5632 34.3027 45.6362C33.3243 45.9282 32.9884 46.527 32.8278 48.2647C32.7402 49.2139 32.5795 49.7688 31.864 51.4336C30.6227 54.3541 30.0386 56.822 29.6881 60.6626C29.3815 64.1089 29.7758 65.4816 31.8494 68.0225C32.3313 68.6066 32.4481 68.8403 32.3021 68.9279C32.156 69.0009 27.5415 70.6511 26.826 70.8847C26.7091 70.9285 26.7383 71.1914 26.9428 71.8339C27.0888 72.3304 27.2202 72.8561 27.2202 73.0021C27.2202 73.1482 26.7529 74.0682 26.1688 75.0319L25.1174 76.7843L24.212 75.9373C23.1898 74.9735 22.1238 74.5062 19.8165 74.0097C16.8959 73.3818 14.6325 72.0529 11.157 68.9571C7.44782 65.6422 6.19196 63.9775 4.64405 60.3852C2.39519 55.1427 1.51901 51.0101 1.51901 45.7968C1.51901 41.2845 2.20535 37.8674 4.00152 33.3405C5.16975 30.4199 7.95892 25.7469 9.44842 24.2136C11.0109 22.6073 16.414 18.5039 17.3194 18.2264C17.7721 18.0804 22.8101 17.8467 27.3663 17.7591C28.5345 17.7299 33.1052 17.7153 37.5153 17.7299C44.3641 17.7445 45.7514 17.7883 46.905 17.9928ZM37.4277 58.37C37.3401 59.4214 37.2671 59.6258 36.8874 60.0639C36.6538 60.3414 36.3325 60.9109 36.2011 61.349C36.055 61.7725 35.836 62.2544 35.69 62.415C35.5439 62.5902 35.3979 63.0575 35.3541 63.5686C35.2081 64.9851 34.77 65.0873 34.6093 63.7439C34.5509 63.3058 34.4195 62.8823 34.3319 62.7947C34.2297 62.7216 33.8354 62.634 33.4265 62.6048C32.6379 62.561 32.5941 62.5902 32.3897 63.8753C32.2875 64.5178 32.3167 64.5616 31.7179 63.0137C31.2507 61.8017 30.944 61.7286 31.0608 62.8531C31.1192 63.4226 31.3675 64.1527 31.8348 65.1311C32.2144 65.9343 32.4919 66.6206 32.4335 66.6644C32.3167 66.7959 31.4697 66.241 30.944 65.7007C30.5205 65.2626 30.5059 65.1895 30.4621 63.6124C30.3453 59.9471 30.9732 57.2017 33.5871 50.1777L34.4341 47.8558L35.982 52.5142L37.5299 57.1579L37.4277 58.37ZM147.549 68.1247V68.7819L147.184 68.519C146.76 68.2124 146.746 68.1393 147.052 67.6721C147.373 67.1756 147.549 67.3362 147.549 68.1247ZM34.989 70.0231C35.2081 70.14 35.69 70.2276 36.055 70.2276C37.1503 70.2276 37.968 70.505 38.669 71.1184C39.2677 71.6441 39.3115 71.7463 39.4867 72.8561C39.6474 73.8929 39.6474 74.0682 39.4283 74.3456C39.2969 74.5354 39.0924 74.8275 38.961 75.0027C38.669 75.4116 38.6398 76.0542 38.8734 77.9671C38.9756 78.8433 38.9902 79.6903 38.9318 79.9385C38.8296 80.3182 38.7274 80.3766 38.2309 80.4204C37.4715 80.4789 37.3109 80.6687 37.8658 80.8585C38.3477 81.0338 38.4937 81.4719 38.0702 81.4719C37.5153 81.4719 36.6684 81.136 36.2449 80.7563C35.6754 80.2452 35.5293 79.1792 35.8944 78.2592C36.0404 77.8941 36.128 77.237 36.128 76.5214V75.3678L35.4417 75.0173C34.8576 74.7399 34.5071 74.6815 33.3973 74.6815C32.2291 74.6815 32.0246 74.7253 31.8202 74.9735C31.4405 75.4846 31.3967 75.9519 31.6741 77.0326C31.9516 78.1278 31.9224 79.5881 31.6011 80.7417C31.3529 81.6179 31.3091 81.6471 30.2723 81.5157C29.3961 81.3988 29.3377 81.3696 29.2939 80.99C29.2646 80.7709 29.3815 79.7341 29.5421 78.6973C29.9364 76.2294 29.9364 75.7183 29.5275 75.3386C29.3523 75.178 29.1624 75.0465 29.0894 75.0465C28.8704 75.0465 28.5345 74.1704 28.5345 73.5863C28.5345 72.8853 29.2208 71.5856 29.8634 71.0307C30.243 70.7241 31.1922 70.3736 33.2075 69.8041C33.777 69.6435 34.4049 69.7311 34.989 70.0231ZM143.504 72.2282C143.401 72.2574 143.197 72.2574 143.066 72.2282C142.92 72.1844 143.007 72.1552 143.241 72.1552C143.489 72.1552 143.591 72.1844 143.504 72.2282ZM141.415 73.7177C141.839 73.8053 141.693 73.8345 140.612 73.9075C139.079 74.0097 138.042 73.8929 137.94 73.6009C137.882 73.4256 138.115 73.411 139.386 73.4986C140.218 73.557 141.138 73.6447 141.415 73.7177ZM146.965 73.9805C146.95 74.1266 146.862 74.404 146.746 74.6085C146.541 74.9735 146.541 74.9589 146.526 74.3456C146.526 73.8929 146.585 73.7323 146.746 73.7323C146.862 73.7323 146.965 73.8491 146.965 73.9805ZM143.504 75.251C145.022 75.47 145.154 75.5138 144.993 75.7767C144.935 75.8789 144.278 75.9227 143.022 75.8935C142 75.8643 141.094 75.8935 141.036 75.9665C140.802 76.2002 141.269 76.39 142.379 76.5214C144.146 76.7405 145.022 76.9449 145.212 77.164C145.519 77.5291 144.716 77.7043 142.365 77.7773C139.984 77.8649 138.29 77.6751 137.925 77.31C137.706 77.091 137.721 77.0472 138.042 76.7843C138.305 76.5653 138.612 76.5068 139.459 76.5068C140.437 76.5068 140.539 76.4776 140.539 76.2148C140.539 75.8935 140.32 75.8205 139.035 75.7329C138.115 75.6745 137.677 75.4262 138.057 75.1926C138.393 74.9881 141.883 75.0173 143.504 75.251ZM33.7624 76.1126C34.0398 76.6967 34.2735 78.5221 34.1566 79.1354C34.0982 79.4128 34.0398 79.997 34.0106 80.435C33.9814 81.0776 34.0106 81.2236 34.2297 81.282C34.6824 81.3988 34.7116 82.3772 34.3173 84.2172L33.9814 85.882L34.3319 86.0134C34.5217 86.0864 35.062 86.1448 35.5293 86.1448C36.0988 86.1448 36.4493 86.2178 36.5661 86.3638C36.8436 86.6997 36.5953 86.875 35.8214 86.875C35.3249 86.875 35.0766 86.948 35.0182 87.0794C34.9744 87.1962 34.8284 87.3276 34.697 87.3861C34.2735 87.5467 30.1554 87.7365 26.4609 87.7657C23.1022 87.7803 22.9124 87.7657 22.9124 87.5175C22.9124 87.313 23.1752 87.1378 23.8177 86.875C24.8692 86.4515 25.1758 86.2032 24.4895 86.3346C23.993 86.4369 23.7155 86.2324 23.9784 85.9696C24.066 85.882 24.3873 85.7651 24.6939 85.7213C25.1466 85.6337 25.2342 85.5607 25.205 85.3416C25.1758 85.181 25.132 84.7721 25.132 84.4217C25.1028 83.7937 25.1028 83.7937 24.6355 83.8813C24.2558 83.9544 24.139 83.9105 24.0076 83.6623C23.8908 83.4433 23.8908 83.3556 24.0368 83.2972C25.4533 82.8007 26.0374 82.5233 26.4755 82.1144L27.0012 81.6325L26.9866 79.8363C26.972 78.7557 26.8698 77.6605 26.7383 77.091C26.6069 76.5653 26.5631 76.0834 26.6215 76.0249C26.8406 75.8059 27.7313 76.1418 27.9066 76.5214C28.1548 77.0179 28.3447 78.4636 28.4615 80.5519L28.5637 82.348H29.1916C29.9948 82.348 32.3605 81.9391 32.5357 81.7639C32.6087 81.6909 32.6087 80.6395 32.5211 79.1792C32.3751 76.8719 32.3751 76.6967 32.6525 76.171C32.9884 75.4992 33.4557 75.47 33.7624 76.1126ZM25.6431 78.3614C25.8476 78.5513 25.906 78.8141 25.906 79.6465C25.906 81.063 25.7307 81.282 24.7961 81.0922L24.0806 80.9608L24.0368 79.9677C23.993 79.0478 24.0222 78.9601 24.4311 78.5513C24.913 78.0548 25.2488 77.9963 25.6431 78.3614ZM145.344 78.9163C145.387 78.9747 145.446 80.3182 145.475 81.9099L145.519 84.8013L144.818 84.8889C144.175 84.9766 138.641 85.4147 138.247 85.4147C138.057 85.4147 137.955 84.4071 137.838 81.0776L137.765 78.8579L139.035 78.7995C140.729 78.7119 145.227 78.8141 145.344 78.9163ZM46.1749 83.7791C46.2041 83.8813 46.1311 83.9544 45.9997 83.9544C45.8682 83.9544 45.766 83.8521 45.766 83.7207C45.766 83.4725 46.0873 83.5163 46.1749 83.7791ZM41.0931 84.962C41.0931 85.1226 40.7134 85.2832 40.5966 85.1664C40.4213 84.9912 40.5235 84.8305 40.801 84.8305C40.9616 84.8305 41.0931 84.8889 41.0931 84.962ZM144.511 86.2908C145.212 86.4661 145.417 86.6851 145.198 87.0356C145.11 87.1962 144.555 87.2546 142.774 87.2838C140.13 87.3422 138.495 87.2254 138.115 86.948C137.882 86.7873 137.867 86.6997 138.028 86.3638L138.217 85.9696L141.021 86.0426C142.569 86.0864 144.132 86.2032 144.511 86.2908ZM46.1019 86.4515C45.985 86.5683 45.7076 86.5683 45.1673 86.4661L44.3787 86.32L45.3279 86.3054C45.9997 86.2908 46.2187 86.3346 46.1019 86.4515ZM144.307 88.1308C145.037 88.1746 145.65 88.2622 145.65 88.306C145.65 88.3645 145.577 88.5105 145.504 88.6273C145.241 89.0362 138.217 88.9778 137.794 88.5689C137.662 88.4375 138.071 88.0578 138.393 88.014C138.831 87.9556 142.657 88.0286 144.307 88.1308ZM47.4599 89.7517C47.5768 90.219 47.0803 92.4533 46.8466 92.5263C46.7444 92.5555 46.4962 92.4241 46.2625 92.2342L45.8536 91.8838L46.0435 90.6571C46.1457 89.9854 46.2917 89.3136 46.3647 89.1822C46.4962 88.934 46.54 88.934 46.9342 89.1384C47.1825 89.2698 47.4161 89.5327 47.4599 89.7517ZM35.3833 89.2114C35.8652 89.4597 36.3179 90.7885 36.3909 92.132C36.4639 93.4463 36.5807 93.7383 37.0188 93.7383C37.1795 93.7383 37.2963 93.8406 37.2963 93.9574C37.2963 94.0888 37.4569 94.2641 37.6614 94.3517C38.0994 94.5415 38.1433 94.9942 37.7344 95.0964C37.4423 95.1694 37.3693 95.4323 37.4423 96.2209C37.4569 96.4253 37.5299 96.6589 37.6175 96.7612C37.7198 96.8926 37.6029 96.951 37.1941 97.024C35.9674 97.2285 35.7484 97.4767 36.2887 98.0608C36.5807 98.3675 36.5807 98.4405 36.4055 99.1268C36.3033 99.5357 36.1719 99.8716 36.1134 99.8716C35.9382 99.8716 35.8652 99.5211 35.4709 96.805C35.2665 95.4031 35.0036 93.899 34.8868 93.4755C34.697 92.833 34.6093 92.7161 34.3027 92.7161C33.8792 92.7161 33.9084 92.6139 33.5725 97.1992C33.4411 98.9808 33.2805 100.646 33.2075 100.908C32.9008 101.974 32.1706 102.237 30.6081 101.843C29.4983 101.58 28.6805 101.157 28.6805 100.85C28.6805 100.748 28.4761 100.5 28.2278 100.324C27.9066 100.076 27.8044 99.9008 27.8628 99.6964C27.9066 99.5065 27.8044 99.2145 27.5999 98.937C27.4101 98.6888 27.045 97.8418 26.7821 97.0532L26.3149 95.6367H25.8183C25.205 95.6367 25.1466 95.3155 25.6869 94.965C25.8914 94.8336 26.271 94.3517 26.5485 93.899C27.3955 92.4387 27.5999 92.7453 28.2278 96.3815C28.7389 99.3605 28.9872 100.091 29.5713 100.383C29.9656 100.587 30.0094 100.587 30.5205 100.134C31.3237 99.4189 31.4697 98.937 31.6157 96.2939C31.6741 94.9942 31.7764 93.826 31.8202 93.6945C31.8786 93.5631 32.0538 93.4463 32.2291 93.4171C32.5065 93.3733 32.5941 93.1688 32.8716 91.8546C33.0614 91.0222 33.3389 90.0438 33.5141 89.6933C33.8062 89.0946 33.85 89.0654 34.4779 89.0654C34.8284 89.0654 35.2373 89.1238 35.3833 89.2114ZM40.2169 89.2114C40.3775 89.3136 40.2169 89.3575 39.662 89.3575C39.1801 89.3575 38.9172 89.299 38.9756 89.2114C39.0924 89.0216 39.9248 89.0216 40.2169 89.2114ZM28.8412 89.4597C29.5859 89.9124 29.8196 90.6279 30.0678 93.4463C30.3891 97.1554 30.3307 98.5865 29.8488 98.6595C29.3815 98.7472 29.2646 98.4551 29.1186 96.8634C29.031 95.9872 28.8996 94.9066 28.812 94.4685C28.6513 93.6653 27.8044 91.7962 27.5123 91.6209C27.2932 91.4895 27.3371 90.3066 27.5707 89.7225C27.819 89.1384 28.1694 89.0654 28.8412 89.4597ZM23.2774 89.8832C24.212 90.3213 24.8107 90.8324 25.1758 91.5479C25.5701 92.3219 25.6139 93.0082 25.2634 93.0082C25.1466 93.0082 25.0152 93.0666 24.9714 93.1396C24.84 93.3441 25.0298 93.7383 25.2634 93.7383C25.5409 93.7383 25.5263 93.9428 25.2342 94.191C25.0298 94.3663 24.9568 94.3371 24.6793 93.9866C24.5041 93.7676 23.9346 92.833 23.4235 91.8984C22.9124 90.9638 22.3428 90.1022 22.153 89.9854C21.2914 89.4159 22.1092 89.3429 23.2774 89.8832ZM40.3337 90.0876C40.7134 90.0876 40.801 90.6279 40.4359 90.7593C40.0854 90.8908 38.669 90.6717 38.3769 90.4527C37.9534 90.1168 38.3769 89.9124 39.2677 90C39.6766 90.0438 40.1439 90.0876 40.3337 90.0876ZM137.093 90.2628C137.224 90.8032 137.195 96.6151 137.035 98.1046C136.859 99.7256 136.626 100.733 136.465 100.47C136.348 100.28 136.407 92.3365 136.538 90.847C136.626 89.9124 136.918 89.6057 137.093 90.2628ZM144.336 90.1606C144.336 90.4089 142.847 90.4527 140.16 90.2628C138.582 90.1606 138.582 90.1606 139.517 90.073C140.043 90.0292 141.342 89.9854 142.408 89.9708C144.029 89.9416 144.336 89.9708 144.336 90.1606ZM44.4517 91.3289C44.5978 91.5187 44.5832 91.5479 44.3203 91.5479C44.1451 91.5479 44.0136 91.4603 44.0136 91.3289C44.0136 91.212 44.0721 91.1098 44.1451 91.1098C44.2181 91.1098 44.3495 91.212 44.4517 91.3289ZM41.0931 91.6209C41.0931 91.7962 40.9032 91.84 40.2607 91.84C39.4867 91.8254 39.4429 91.8108 39.6912 91.6209C40.0854 91.3289 41.0931 91.3289 41.0931 91.6209ZM144.117 91.5479C145.183 91.6209 144.57 91.6501 141.781 91.6501C139.692 91.6501 138.407 91.6063 138.933 91.5479C140.233 91.4165 142.365 91.4165 144.117 91.5479ZM50.0301 95.5637C50.877 97.2139 52.4834 98.9808 54.2357 100.164C55.5208 101.04 56.2801 102.047 55.5208 101.872C55.0243 101.77 51.505 100.134 50.585 99.5941C49.8694 99.156 48.8326 98.8348 48.8326 99.0392C48.8326 99.2875 49.1977 99.8716 49.4021 99.9446C49.9717 100.164 51.6364 101.244 51.7678 101.493C52.0015 101.931 51.3297 102.106 49.8548 102.004C48.526 101.916 46.832 102.106 46.2333 102.398C45.766 102.617 45.547 102.967 45.6638 103.289C45.7514 103.493 45.8244 103.493 46.4085 103.201C46.9634 102.938 47.1241 102.909 47.4453 103.055C47.6498 103.143 47.8104 103.318 47.8104 103.435C47.8104 103.683 46.9927 104.793 46.2041 105.64C45.5031 106.385 45.2549 106.866 45.4447 107.056C45.7222 107.334 46.3209 107.042 46.6568 106.487C46.832 106.18 47.1825 105.713 47.4307 105.435C47.9272 104.895 50.6726 102.792 50.8916 102.792C51.2275 102.792 50.9647 103.391 50.4536 103.8C49.811 104.311 48.9787 105.523 48.9787 105.946C48.9933 106.998 49.7234 106.691 50.731 105.216C51.6948 103.771 51.9577 103.595 53.0821 103.727C54.0897 103.829 54.411 103.975 55.0681 104.588C55.5208 105.012 56.4262 106.881 56.4262 107.392C56.4262 107.509 56.3239 107.772 56.2071 107.947C56.0319 108.224 55.6814 109.904 55.5208 111.262C55.4916 111.466 55.2725 110.853 54.9951 109.802C54.1335 106.574 53.8707 106.253 52.3373 106.589C51.2567 106.837 50.8624 107.29 50.439 108.779C50.1761 109.699 50.0593 109.933 49.8694 109.889C49.738 109.845 49.4606 109.772 49.2269 109.714C49.0079 109.67 48.6282 109.364 48.3799 109.057C48.0149 108.59 47.8396 108.487 47.4015 108.487C46.9634 108.487 46.7736 108.604 46.2187 109.232C45.8536 109.641 45.1819 110.342 44.7292 110.795C44.2911 111.247 43.7946 111.846 43.6486 112.109C43.4441 112.445 43.2689 112.576 43.0645 112.547C42.8162 112.503 42.7724 112.416 42.8162 111.802C42.8454 111.408 43.006 110.59 43.1667 109.977C43.5902 108.429 43.5902 107.991 43.1813 107.932C43.006 107.903 42.787 107.786 42.6848 107.67C42.4657 107.407 42.6848 106.589 43.2981 105.421C43.5171 104.983 43.8238 104.121 43.9552 103.522C44.2327 102.223 44.6854 101.566 45.4301 101.317C46.6714 100.923 46.978 100.353 46.2771 99.7548C46.0727 99.5795 45.912 99.3751 45.912 99.3167C45.912 98.864 46.4085 97.6519 46.686 97.4621C47.1241 97.1554 47.6206 97.1846 47.7374 97.5351C47.7958 97.7104 47.9564 97.8272 48.1609 97.8272C48.7888 97.8272 48.8472 97.5497 48.5552 96.0602C48.3507 94.965 48.3215 94.3955 48.4091 93.3733C48.4676 92.6431 48.526 91.9276 48.5406 91.7669C48.5552 91.6063 48.8034 92.2342 49.1101 93.1542C49.4167 94.0742 49.8256 95.1694 50.0301 95.5637ZM45.4739 92.6285C45.4739 92.979 45.0651 93.1834 44.1451 93.2564L43.2543 93.3441L43.4879 92.8768C43.7216 92.4533 43.7654 92.4241 44.5978 92.4241C45.2403 92.4241 45.4739 92.4825 45.4739 92.6285ZM40.655 93.0228C40.4359 93.4171 40.1585 93.5047 39.7934 93.3003C39.2385 93.0082 39.4137 92.7161 40.1439 92.7161C40.7718 92.7161 40.801 92.7307 40.655 93.0228ZM144.847 93.1396C145.431 93.2126 145.636 93.2857 145.475 93.3587C145.183 93.4901 137.969 93.4171 137.838 93.2711C137.779 93.2126 137.779 93.0958 137.852 92.9936C137.925 92.8622 138.655 92.8476 140.963 92.9352C142.613 92.9936 144.365 93.0812 144.847 93.1396ZM37.9972 93.4025C38.0556 93.7676 37.7636 93.8552 37.4715 93.5631C37.1795 93.2711 37.2671 92.979 37.6322 93.0374C37.8366 93.0666 37.968 93.198 37.9972 93.4025ZM135.136 94.8044C135.238 95.6367 135.297 96.7612 135.253 97.3161C135.195 98.2507 135.151 98.3383 134.669 98.7618C134.377 99.01 133.734 99.3751 133.252 99.5503C132.756 99.7402 132.289 100.032 132.201 100.193C131.997 100.573 132.157 101.989 132.449 102.223C132.741 102.471 133.676 102.442 134.216 102.15C135.472 101.507 136.319 102.252 136.334 104.033C136.348 105.64 135.72 106.691 134.581 107.027C133.734 107.275 131.734 107.48 131.588 107.334C131.442 107.188 131.909 106.224 132.42 105.611C132.668 105.318 133.033 105.099 133.486 104.983C133.88 104.88 134.304 104.778 134.45 104.734C134.742 104.661 134.786 104.033 134.508 103.917C134.187 103.8 132.23 104.063 131.997 104.252C131.88 104.355 131.777 104.53 131.777 104.647C131.777 104.764 131.69 104.837 131.602 104.793C131.179 104.661 131.544 99.3751 132.099 97.6958L132.259 97.1992L132.464 97.5789C132.727 98.09 132.887 98.0754 133.077 97.5205C133.165 97.2723 133.413 96.8926 133.647 96.6881C133.983 96.3669 134.114 96.0164 134.406 94.7313C134.581 93.8698 134.786 93.198 134.844 93.2272C134.903 93.2564 135.034 93.972 135.136 94.8044ZM44.8168 94.0304C44.9482 94.2495 44.5686 94.3517 43.926 94.2933C43.3711 94.2348 43.3711 94.2348 43.7216 94.0742C44.1889 93.8552 44.7 93.8406 44.8168 94.0304ZM39.9248 94.3955C40.0854 94.5853 40.0416 94.6145 39.6474 94.6145C39.1947 94.6145 39.034 94.4101 39.3845 94.2787C39.6766 94.1472 39.735 94.1618 39.9248 94.3955ZM145.329 94.5853C145.592 94.7898 144.949 94.8628 142.92 94.8774C141.561 94.892 139.999 94.9358 139.415 94.9942C138.48 95.0818 138.363 95.0526 138.217 94.7898C138.13 94.6437 138.086 94.4831 138.115 94.4539C138.174 94.3955 145.241 94.5269 145.329 94.5853ZM133.092 95.0088C133.092 95.1548 133.033 95.3739 132.946 95.4907C132.829 95.6659 132.8 95.6659 132.712 95.4469C132.61 95.1548 132.727 94.7606 132.946 94.7606C133.019 94.7606 133.092 94.8774 133.092 95.0088ZM44.0721 95.2863C44.2035 95.3301 44.3057 95.4761 44.3057 95.5929C44.3057 95.7682 44.0867 95.7828 42.9622 95.6951C42.2175 95.6513 41.5896 95.5783 41.5603 95.5637C41.5165 95.5199 43.0937 95.2571 43.6048 95.2132C43.7362 95.2132 43.9406 95.2425 44.0721 95.2863ZM145.008 96.1916C145.271 96.3377 145.271 96.3523 145.022 96.4399C144.745 96.5567 139.955 96.1186 139.824 95.9872C139.678 95.8266 144.716 96.031 145.008 96.1916ZM40.0708 96.805C40.0708 96.9948 39.9686 97.097 39.7788 97.097C39.5889 97.097 39.4867 96.9948 39.4867 96.805C39.4867 96.6151 39.5889 96.5129 39.7788 96.5129C39.9686 96.5129 40.0708 96.6151 40.0708 96.805ZM143.869 97.4767C144.979 97.5497 145.358 97.6081 145.358 97.7688C145.358 98.09 144.424 98.163 141.532 98.0608C138.743 97.9586 137.911 97.8126 137.911 97.4621C137.911 97.2577 140.028 97.2723 143.869 97.4767ZM129.762 98.1338C130.157 98.6595 130.215 100.835 129.835 101.113C129.383 101.449 129.295 102.252 129.295 106.808C129.295 111.028 129.28 111.233 128.945 112.284C128.74 112.883 128.579 113.263 128.579 113.116C128.565 112.956 128.433 112.81 128.273 112.766C127.937 112.678 127.908 112.138 128.127 110.021C128.2 109.291 128.36 106.837 128.492 104.545C128.725 100.251 128.915 98.0754 129.076 97.8126C129.207 97.6081 129.456 97.7104 129.762 98.1338ZM148.644 100.12C148.585 100.28 148.512 100.31 148.41 100.207C148.308 100.105 148.323 99.93 148.454 99.6379C148.629 99.2437 148.644 99.2437 148.688 99.5649C148.717 99.7402 148.702 100.003 148.644 100.12ZM41.0931 100.149C41.0931 100.295 40.5819 100.456 40.0854 100.456C39.6328 100.456 39.8372 100.222 40.3629 100.12C40.9908 100.018 41.0931 100.018 41.0931 100.149ZM34.8138 101.2C34.8138 101.843 34.77 102.062 34.6093 102.062C34.2881 102.062 34.1859 101.507 34.3757 100.806C34.6239 99.9592 34.8138 100.134 34.8138 101.2ZM145.621 101.025C145.68 101.2 145.475 101.215 144.467 101.142C143.796 101.084 142.262 101.011 141.065 100.967C139.868 100.938 138.86 100.865 138.816 100.821C138.772 100.777 140.262 100.762 142.146 100.777C144.92 100.821 145.563 100.865 145.621 101.025ZM59.6388 101.361C59.6242 101.945 59.2591 103.435 59.0109 103.887L58.7772 104.325L58.7626 103.8C58.7626 103.157 59.0401 101.639 59.2153 101.303C59.4052 100.938 59.6388 100.981 59.6388 101.361ZM126.491 101.858C126.798 101.945 126.812 102.004 126.812 103.741V105.538L105.536 105.64C79.2506 105.771 61.4642 105.698 60.9969 105.435C60.6318 105.245 60.588 105.012 60.8071 104.223C60.9531 103.712 60.9969 103.683 61.727 103.61C62.1505 103.566 65.1149 103.464 68.3276 103.376C73.7891 103.245 78.4182 103.172 106.733 102.792C123.6 102.573 126.433 102.486 125.644 102.266C125.279 102.164 124.564 102.033 124.038 101.945L123.089 101.814L124.622 101.799C125.469 101.785 126.301 101.814 126.491 101.858ZM144.029 102.5C144.321 102.661 140.7 102.836 139.78 102.719C137.809 102.456 138.977 102.223 141.781 102.325C142.905 102.354 143.913 102.442 144.029 102.5ZM38.3915 103.741L38.9756 103.931L38.0702 103.946C37.2379 103.96 36.8874 103.844 37.1064 103.61C37.2525 103.479 37.7344 103.522 38.3915 103.741ZM35.5147 103.887C35.3687 104.033 31.4843 104.238 30.6519 104.136C29.7904 104.033 29.7904 104.033 31.2361 103.946C33.2951 103.844 35.6023 103.8 35.5147 103.887ZM32.156 105.611C32.9738 107.275 33.2951 114.84 33.4411 135.605C33.4995 143.257 33.6017 149.478 33.6601 149.434C33.7332 149.39 33.85 149.157 33.923 148.894L34.0544 148.426L34.069 149.011C34.0836 149.624 33.8792 150.106 33.704 149.916C33.6455 149.858 33.4411 149.96 33.2367 150.135C32.9446 150.412 32.6963 150.485 31.6887 150.515L30.4767 150.573L30.3891 150.004C30.2577 149.273 30.2577 112.036 30.3891 108.239L30.4767 105.289L31.0754 105.231C31.9078 105.158 31.937 105.172 32.156 105.611ZM35.1204 105.304C35.1204 105.406 35.1204 110.809 35.1058 117.322C35.0912 134.247 34.843 144.688 34.4049 146.864C34.3465 147.127 34.3027 137.839 34.3027 126.23V105.129H34.7116C34.9306 105.129 35.1058 105.216 35.1204 105.304ZM141.97 105.377C141.824 105.406 141.561 105.406 141.386 105.377C141.196 105.348 141.313 105.318 141.634 105.318C141.956 105.304 142.102 105.333 141.97 105.377ZM36.4493 106.706C36.4347 107.158 36.3617 107.772 36.2887 108.049C36.1865 108.444 36.1573 108.224 36.1426 107.027C36.128 105.815 36.1573 105.552 36.3179 105.698C36.4201 105.8 36.4785 106.18 36.4493 106.706ZM125.498 106.56C125.965 106.618 123.03 106.72 118.562 106.779C114.312 106.837 107.113 106.954 102.572 107.027C79.309 107.421 73.0589 107.494 67.3054 107.524C61.6248 107.538 61.0261 107.509 60.9823 107.305C60.9531 107.144 61.0699 107.027 61.3474 106.969C62.9975 106.56 122.709 106.195 125.498 106.56ZM142.292 107.085C142.292 107.378 141.81 107.465 140.072 107.465C138.845 107.465 138.466 107.421 138.29 107.231C138.159 107.115 138.057 106.983 138.057 106.939C138.057 106.91 139.006 106.881 140.174 106.881C141.883 106.881 142.292 106.925 142.292 107.085ZM137.327 109.904C137.327 111.32 137.297 112.445 137.254 112.416C137.195 112.343 136.304 108.444 136.304 108.21C136.304 107.976 136.903 107.319 137.122 107.319C137.297 107.319 137.327 107.757 137.327 109.904ZM126.287 107.728C126.681 107.786 127.032 107.903 127.061 107.991C127.134 108.224 117.321 108.341 95.3869 108.385C78.0532 108.414 77.3522 108.4 77.7903 107.947C77.9947 107.743 124.826 107.538 126.287 107.728ZM76.6659 108.195C76.2716 108.312 72.4456 108.502 65.9619 108.721C62.6178 108.823 60.8071 108.721 60.8071 108.4C60.8071 108.166 62.0775 108.122 70.9561 108.093C74.5777 108.078 76.9141 108.122 76.6659 108.195ZM140.758 108.546C142.554 108.736 142.452 108.867 140.393 109.013C139.021 109.101 138.305 108.955 138.232 108.59C138.174 108.283 138.466 108.283 140.758 108.546ZM40.2023 118.052L40.3483 125.222L39.9978 126.303L39.6474 127.398V119.221C39.6328 114.723 39.6766 110.488 39.735 109.802L39.8372 108.56L39.954 109.729C40.0124 110.371 40.1293 114.124 40.2023 118.052ZM52.4834 109.451C52.4834 109.86 52.4396 109.962 52.2351 109.918C52.0599 109.889 51.9577 109.714 51.9285 109.393C51.8846 108.998 51.9285 108.925 52.1767 108.925C52.425 108.925 52.4834 109.013 52.4834 109.451ZM112.545 109.291C112.56 109.364 112.341 109.451 112.063 109.48C111.582 109.51 111.567 109.51 111.844 109.291C112.151 109.042 112.502 109.042 112.545 109.291ZM114.838 109.217C114.999 109.32 114.94 109.364 114.575 109.364C114.283 109.364 114.122 109.305 114.181 109.217C114.298 109.028 114.561 109.028 114.838 109.217ZM123.454 109.217C123.614 109.32 123.556 109.364 123.191 109.364C122.899 109.364 122.738 109.305 122.797 109.217C122.913 109.028 123.176 109.028 123.454 109.217ZM124.885 109.918C124.914 110.254 124.87 110.532 124.797 110.532C124.607 110.532 124.476 110.167 124.476 109.626C124.476 108.955 124.826 109.203 124.885 109.918ZM80.4188 109.466C80.3166 109.495 80.1414 109.495 80.0538 109.466C79.9515 109.422 80.0246 109.393 80.229 109.393C80.4334 109.393 80.5065 109.422 80.4188 109.466ZM88.1584 109.524C87.954 109.729 85.8657 109.729 85.5153 109.524C85.34 109.407 85.6905 109.378 86.8003 109.364C87.9248 109.364 88.2752 109.407 88.1584 109.524ZM135.706 110.225C135.852 110.327 135.866 110.415 135.735 110.649C135.647 110.824 135.53 111.875 135.472 113.014C135.399 114.825 135.355 115.059 135.136 115.059C134.786 115.059 134.698 114.679 134.596 112.474C134.537 111.014 134.552 110.488 134.698 110.313C134.903 110.079 135.384 110.021 135.706 110.225ZM141.561 110.342C141.561 110.576 141.415 110.605 140.16 110.561C139.386 110.532 138.787 110.473 138.831 110.444C138.933 110.327 140.233 110.137 140.948 110.108C141.445 110.094 141.561 110.137 141.561 110.342ZM112.91 110.561C112.881 110.824 112.764 110.897 112.429 110.897C112.093 110.897 111.976 110.824 111.947 110.561C111.903 110.284 111.961 110.24 112.429 110.24C112.896 110.24 112.954 110.284 112.91 110.561ZM114.955 110.561C114.911 110.853 114.823 110.897 114.327 110.897C113.83 110.897 113.743 110.853 113.699 110.561C113.655 110.269 113.714 110.24 114.327 110.24C114.94 110.24 114.999 110.269 114.955 110.561ZM103.74 110.605C103.9 110.795 103.857 110.824 103.448 110.824C103.039 110.824 102.995 110.795 103.156 110.605C103.258 110.488 103.389 110.386 103.448 110.386C103.506 110.386 103.638 110.488 103.74 110.605ZM107.697 110.546C108.062 110.736 107.931 110.97 107.449 110.97C107.201 110.97 107.098 110.897 107.098 110.678C107.098 110.357 107.274 110.313 107.697 110.546ZM119.482 110.765C119.423 110.809 119.204 110.824 118.971 110.795L118.562 110.736L118.927 110.576C119.263 110.43 119.672 110.561 119.482 110.765ZM123.6 110.605C123.6 110.882 123.293 110.882 122.928 110.605C122.665 110.4 122.68 110.4 123.133 110.386C123.454 110.386 123.6 110.459 123.6 110.605ZM133.661 111.408C133.734 111.758 133.778 112.08 133.749 112.123C133.632 112.24 133.077 110.824 133.179 110.663C133.325 110.415 133.501 110.692 133.661 111.408ZM64.2826 111.014C64.3264 111.218 64.268 111.277 63.9905 111.233C63.8153 111.203 63.64 111.072 63.6108 110.926C63.567 110.722 63.6254 110.663 63.9029 110.707C64.0781 110.736 64.2534 110.868 64.2826 111.014ZM68.0793 111.014C68.1231 111.218 68.0647 111.277 67.7873 111.233C67.612 111.203 67.4368 111.072 67.4076 110.926C67.3638 110.722 67.4222 110.663 67.6997 110.707C67.8749 110.736 68.0501 110.868 68.0793 111.014ZM81.1052 110.809C81.1052 111.014 80.8423 111.145 80.6671 111.043C80.5795 110.984 80.5503 110.882 80.5941 110.809C80.7109 110.634 81.1052 110.634 81.1052 110.809ZM87.3114 110.838C87.3699 110.926 87.3845 111.028 87.326 111.072C87.2092 111.189 86.5083 110.984 86.5083 110.824C86.5083 110.634 87.1946 110.634 87.3114 110.838ZM88.9908 110.984C88.9908 111.247 88.9616 111.262 88.7717 111.116C88.5527 110.941 88.5965 110.678 88.8594 110.678C88.9324 110.678 88.9908 110.824 88.9908 110.984ZM93.1818 110.911C93.138 110.955 93.0066 110.97 92.9044 110.926C92.7876 110.882 92.8314 110.838 92.992 110.838C93.1526 110.824 93.2402 110.868 93.1818 110.911ZM46.905 111.642C46.9634 112.328 46.7006 112.167 46.5546 111.423C46.4669 111.043 46.4962 110.941 46.6568 110.999C46.7736 111.043 46.8758 111.306 46.905 111.642ZM36.0988 116.183C36.0696 117.293 36.0112 117.819 35.9236 117.643C35.8506 117.497 35.8506 116.008 35.9236 114.212C36.0404 111.423 36.055 111.247 36.0988 112.751C36.1134 113.701 36.1134 115.249 36.0988 116.183ZM45.766 112.591C45.766 113.817 45.7368 113.847 45.1527 113.336C44.627 112.883 44.9482 111.408 45.5762 111.408C45.7222 111.408 45.766 111.7 45.766 112.591ZM139.809 112.007C139.809 112.094 139.751 112.109 139.663 112.065C139.59 112.021 139.517 111.904 139.517 111.831C139.517 111.744 139.59 111.729 139.663 111.773C139.751 111.817 139.809 111.934 139.809 112.007ZM37.5883 113.189C37.5737 113.642 37.5737 113.657 37.3693 113.394C37.0918 113.029 37.0918 112.722 37.3693 112.722C37.5153 112.722 37.5883 112.868 37.5883 113.189ZM132.639 113.92C132.624 114.81 132.435 116.037 132.376 115.57C132.362 115.482 132.289 114.971 132.216 114.431C132.113 113.759 132.113 113.35 132.216 113.146C132.508 112.605 132.654 112.868 132.639 113.92ZM125.104 113.89C125.542 113.89 125.644 113.949 125.644 114.182C125.644 114.475 125.542 114.475 112.18 114.475C104.762 114.475 97.1684 114.548 95.2993 114.621C90.9476 114.81 82.4194 114.84 81.4703 114.694L80.7401 114.562L81.2512 114.46C81.8353 114.329 87.1508 114.066 91.9114 113.92C94.3209 113.847 118.912 113.817 125.104 113.89ZM44.6416 115.073C44.6708 115.643 44.627 115.716 44.3349 115.76C43.8822 115.833 43.78 115.438 44.0867 114.752C44.4079 114.066 44.5978 114.182 44.6416 115.073ZM45.912 114.621C45.912 114.913 45.839 115.059 45.693 115.059C45.4301 115.059 45.4155 114.854 45.62 114.46C45.839 114.066 45.912 114.109 45.912 114.621ZM49.2707 114.869C49.2707 114.971 49.1685 115.059 49.0517 115.059C48.9056 115.059 48.8326 114.913 48.8326 114.577C48.8472 114.139 48.8472 114.124 49.0517 114.387C49.1685 114.548 49.2707 114.767 49.2707 114.869ZM74.8259 114.329C75.0157 114.46 75.0011 114.518 74.7529 114.708C74.5192 114.898 74.2272 114.927 73.2196 114.84C71.1021 114.679 70.9269 114.577 72.4164 114.387C74.1542 114.168 74.5631 114.153 74.8259 114.329ZM78.8125 114.343C79.2652 114.445 79.6449 114.562 79.6449 114.621C79.6449 114.796 78.5059 114.927 77.9509 114.825C77.4836 114.737 77.323 114.504 77.5567 114.285C77.6881 114.153 77.8633 114.153 78.8125 114.343ZM37.5883 115.132C37.5883 115.249 37.4861 115.351 37.3693 115.351C37.1356 115.351 37.0772 115.176 37.2525 115.015C37.4131 114.84 37.5883 114.898 37.5883 115.132ZM37.5883 117.395C37.5883 117.687 37.5153 117.833 37.3693 117.833C37.1064 117.833 37.0918 117.629 37.2963 117.235C37.5153 116.84 37.5883 116.884 37.5883 117.395ZM153.054 117.746C153.098 117.775 152.368 119.118 151.448 120.71C150.528 122.302 149.476 124.171 149.097 124.872C148.25 126.434 147.476 128.625 147.709 128.844C147.928 129.078 148.162 128.712 149.228 126.522C150.951 123.017 153.039 119.294 153.974 118.096C154.193 117.819 154.456 117.673 154.938 117.6C155.303 117.556 155.624 117.527 155.653 117.57C155.785 117.687 154.704 119.615 152.484 123.236C149.491 128.085 147.695 130.742 147.344 130.815C147.067 130.859 147.067 130.757 147.169 127.676C147.257 124.594 147.49 122.419 147.812 121.601C147.899 121.382 148.308 120.666 148.717 120.009C149.126 119.352 149.432 118.797 149.403 118.753C149.374 118.724 149.082 118.782 148.775 118.885C148.279 119.045 148.147 119.206 147.622 120.199C147.3 120.827 146.965 121.411 146.862 121.499C146.526 121.834 146.424 121.557 146.599 120.71C146.746 119.994 146.877 119.761 147.373 119.294C148.206 118.534 148.206 118.052 147.359 118.709L146.994 119.001L146.892 118.607C146.76 118.052 147.096 117.804 148.162 117.702C149.17 117.6 152.952 117.629 153.054 117.746ZM43.5756 118.695C43.6486 118.855 43.7216 119.264 43.7216 119.615V120.243L43.4295 119.6C43.1083 118.914 43.0499 118.417 43.2835 118.417C43.3565 118.417 43.4879 118.549 43.5756 118.695ZM37.5883 119.294C37.5883 119.717 37.5299 119.878 37.3693 119.878C37.1064 119.878 37.1064 119.775 37.3109 119.162C37.5299 118.563 37.5883 118.593 37.5883 119.294ZM36.4347 121.499C36.5661 124.93 36.5953 147.536 36.4639 149.04C36.4055 149.858 36.3179 150.252 36.2011 150.252C35.9382 150.252 35.7776 141.344 35.8506 129.954C35.8798 124.857 35.8506 120.374 35.7776 119.994C35.69 119.483 35.7046 119.235 35.836 119.074C36.2595 118.578 36.3471 118.958 36.4347 121.499ZM136.1 121.353L135.896 121.849L135.881 121.309C135.866 121.002 135.939 120.754 136.056 120.71C136.319 120.622 136.348 120.812 136.1 121.353ZM137.283 124.142C137.356 124.813 137.327 124.959 137.108 125.047C136.962 125.091 136.816 125.12 136.786 125.076C136.757 125.047 136.772 124.58 136.83 124.054C136.947 122.915 137.151 122.959 137.283 124.142ZM38.0264 125.135C38.0264 125.325 37.9242 125.427 37.7344 125.427C37.5737 125.427 37.4423 125.398 37.4423 125.368C37.4423 125.339 37.3985 125.208 37.3547 125.076C37.2817 124.901 37.3547 124.843 37.6468 124.843C37.9242 124.843 38.0264 124.916 38.0264 125.135ZM40.1585 130.552C40.3921 132.217 40.3775 133.181 40.1293 133.269C39.8956 133.342 39.7934 132.904 39.6328 131.151C39.3845 128.435 39.7934 127.968 40.1585 130.552ZM142.467 134.948C142.219 135.196 142.116 135.006 142.233 134.539C142.335 134.13 142.335 134.13 142.481 134.451C142.584 134.685 142.584 134.831 142.467 134.948ZM40.2899 135.941C40.2899 139.11 40.027 147.317 39.9248 147.258C39.7496 147.141 39.6036 140.731 39.7204 137.533C39.808 134.831 39.8518 134.466 40.0562 134.51C40.2461 134.554 40.2899 134.787 40.2899 135.941ZM140.101 134.612C140.101 134.816 139.838 134.948 139.663 134.846C139.575 134.787 139.546 134.685 139.59 134.612C139.707 134.437 140.101 134.437 140.101 134.612ZM39.0048 136.992C38.961 137.095 38.9318 137.022 38.9318 136.817C38.9318 136.613 38.961 136.54 39.0048 136.627C39.034 136.729 39.034 136.905 39.0048 136.992ZM144.92 138.131C144.657 138.307 143.066 138.321 142.963 138.161C142.92 138.088 143.401 138.029 144.015 138.015C144.774 138 145.066 138.044 144.92 138.131ZM30.6373 151.698C30.9002 151.8 30.9002 151.814 30.5643 151.902C29.8926 152.092 29.1186 152.019 29.1186 151.785C29.1186 151.625 29.2793 151.566 29.7465 151.581C30.0824 151.581 30.4913 151.639 30.6373 151.698ZM35.0328 151.712C35.0912 151.8 34.5801 151.858 33.5871 151.858C32.7256 151.858 32.01 151.8 31.9662 151.712C31.9078 151.625 32.4189 151.566 33.4119 151.566C34.2735 151.566 34.989 151.625 35.0328 151.712ZM33.3827 152.983C33.8938 153.45 33.6163 155.115 32.7256 156.896C32.2144 157.918 32.1268 158.021 32.0246 157.743C31.7618 157.028 31.4551 155.173 31.4551 154.282C31.4551 153.435 31.4989 153.304 31.8348 153.041C32.3021 152.676 33.0176 152.647 33.3827 152.983ZM36.055 154.384C36.2595 155.012 36.4931 155.991 36.5661 156.575C36.6684 157.378 36.756 157.67 36.9896 157.831C37.3401 158.05 37.3985 158.576 37.0772 158.576C36.7998 158.576 36.5953 159.379 36.4785 160.854C36.3909 161.861 36.4201 162.051 36.6245 162.124C36.9458 162.255 36.9166 162.694 36.5515 163.161C36.2887 163.482 36.2595 163.628 36.3909 163.906C36.5807 164.3 36.4931 164.417 36.0258 164.417C35.7484 164.417 35.69 164.49 35.7192 164.84C35.7484 165.088 35.7046 165.293 35.6169 165.322C35.4125 165.381 35.1789 163.774 34.9744 161.146C34.8868 159.934 34.7846 158.941 34.7554 158.911C34.7262 158.882 34.6677 159.831 34.6093 161.014C34.4487 164.446 34.0982 169.659 33.9376 170.696C33.7624 171.952 33.4557 172.215 32.3313 172.112C31.3675 172.025 30.1408 171.762 29.8634 171.587C29.5129 171.368 29.3085 169.907 29.4691 168.9C29.6005 168.053 29.4253 165.731 29.1916 165.103C29.1186 164.928 29.1624 164.855 29.3669 164.855C29.8926 164.855 29.9948 164.563 29.9948 163.088C29.9948 161.978 29.951 161.642 29.7612 161.482C29.5713 161.321 29.5421 161.102 29.6297 160.226C29.6881 159.51 29.6735 159.087 29.5713 158.955C29.3377 158.678 29.6735 157.962 29.9802 158.021C30.1116 158.05 30.3453 158.415 30.5059 158.868C30.7688 159.598 30.7834 160.08 30.798 164.344C30.8126 169.06 30.8564 169.528 31.3675 169.951C31.6449 170.185 32.5065 170.053 32.7694 169.747C32.8862 169.601 33.0176 168.17 33.149 165.556C33.3681 161.175 33.4265 160.415 33.7332 158.576C33.9376 157.349 34.5509 155.188 35.135 153.625C35.4855 152.72 35.5001 152.734 36.055 154.384ZM29.2208 155.684C29.177 155.786 29.1478 155.713 29.1478 155.509C29.1478 155.304 29.177 155.231 29.2208 155.319C29.25 155.421 29.25 155.597 29.2208 155.684ZM38.9026 155.611C38.888 155.918 38.7128 156.385 38.5959 156.385C38.4499 156.385 38.4207 155.757 38.5667 155.611C38.6982 155.48 38.9026 155.48 38.9026 155.611ZM32.01 165.337C32.2144 165.585 32.4773 167.22 32.3751 167.629C32.1706 168.389 31.7472 167.44 31.5719 165.833C31.4843 165.132 31.6741 164.928 32.01 165.337ZM35.7046 167.089C35.4563 167.337 35.3541 167.104 35.5585 166.724C35.7338 166.417 35.763 166.417 35.8068 166.666C35.836 166.812 35.7922 167.001 35.7046 167.089ZM37.1503 170.667C37.1503 171.003 36.8728 171.28 36.5369 171.28C36.2741 171.28 36.2011 171.046 36.3617 170.638C36.4931 170.302 37.1503 170.331 37.1503 170.667ZM33.4703 174.843C33.8938 174.96 34.3465 175.135 34.4633 175.223C34.697 175.427 34.7408 176.888 34.5217 177.472C34.3319 177.968 33.9668 177.954 33.85 177.443C33.6893 176.683 33.3243 175.982 32.8278 175.5C32.3167 175.004 32.1852 174.639 32.5211 174.639C32.6087 174.639 33.0468 174.741 33.4703 174.843ZM34.843 179.122C35.1058 179.414 35.3979 180.378 35.3979 180.918C35.3979 181.502 35.1935 181.677 34.3611 181.809C33.6747 181.911 33.5141 181.882 32.9008 181.546C31.5719 180.83 31.2799 180.246 31.937 179.648C32.711 178.917 34.3903 178.625 34.843 179.122Z" fill="black"/>
<path d="M41.2396 19.1022C40.0714 19.2044 39.7793 19.3066 39.7793 19.6133C39.7793 19.7739 40.378 19.8031 42.9627 19.7447C44.7005 19.7009 46.19 19.6133 46.263 19.5549C46.7011 19.146 43.6491 18.8685 41.2396 19.1022Z" fill="black"/>
<path d="M17.29 21.1466C17.29 21.5847 17.3777 21.7891 17.6113 21.9497C18.2684 22.417 19.13 22.125 19.0132 21.4971C18.9694 21.2488 17.8742 20.5917 17.4799 20.5771C17.3631 20.5771 17.29 20.7815 17.29 21.1466Z" fill="black"/>
<path d="M42.0127 20.8116C41.9689 20.9284 41.9689 21.0744 42.0273 21.1182C42.1733 21.2643 46.9047 21.4103 47.5618 21.2935C48.1605 21.1913 48.5256 20.943 48.3358 20.7678C48.2773 20.6948 46.8463 20.6364 45.1669 20.6217C42.5238 20.5925 42.0857 20.6071 42.0127 20.8116Z" fill="black"/>
<path d="M48.0292 22.3295C45.0794 22.4172 45.2985 22.5486 48.6279 22.7092C50.1905 22.7822 50.7162 22.7676 50.8038 22.6362C50.8622 22.534 50.8476 22.4026 50.7892 22.3587C50.7162 22.3003 49.4749 22.2857 48.0292 22.3295Z" fill="black"/>
<path d="M46.4234 23.9508C46.2774 24.1552 46.3796 24.2282 47.0368 24.3888C47.7085 24.5349 49.2856 24.5495 50.0742 24.3888C50.8043 24.2428 50.5707 24.1406 49.0812 23.9362C47.6063 23.7463 46.5403 23.7463 46.4234 23.9508Z" fill="black"/>
<path d="M47.6641 25.8929C47.6641 26.2434 48.146 26.3748 49.9567 26.477C51.5777 26.5939 53.2132 26.477 53.2132 26.2726C53.2132 26.2142 52.2786 26.0827 51.1396 25.9951C49.9859 25.9075 48.7447 25.7907 48.365 25.7469C47.7809 25.6739 47.6641 25.7031 47.6641 25.8929Z" fill="black"/>
<path d="M50.8774 27.8064C49.6069 28.0693 49.125 28.2591 49.125 28.5366C49.125 28.7264 49.4901 28.7556 51.6805 28.7556C54.1338 28.7556 54.236 28.7702 54.236 29.0477C54.236 29.2083 54.1192 29.4566 53.9586 29.6172C53.6957 29.8801 52.2354 30.508 51.8558 30.508C51.7535 30.5226 51.5199 30.6102 51.3154 30.727L50.9504 30.9169L51.3154 31.0045C51.5199 31.0337 52.2792 31.1213 52.9948 31.1651C54.4989 31.2673 55.0246 31.4572 55.083 31.9391C55.1414 32.3334 55.3459 32.348 55.5503 31.9683C55.7694 31.5594 56.4557 31.2381 57.142 31.2381C58.3979 31.2381 58.9966 30.6102 57.8868 30.4642C57.5655 30.4204 56.8646 30.1721 56.3243 29.9239L55.3605 29.4566L55.9154 29.1499C56.8354 28.6242 56.8354 28.6242 54.2068 27.894C52.9364 27.5436 52.25 27.529 50.8774 27.8064Z" fill="black"/>
<path d="M56.0608 32.5079C53.4323 32.8146 52.1911 33.0628 52.1911 33.2965C52.1911 33.5593 53.4177 33.7199 55.4913 33.7199C57.8278 33.7199 58.1053 33.793 57.9446 34.3917C57.8716 34.6399 57.5942 34.7129 55.5351 35.005C54.2355 35.1802 53.0818 35.3847 52.965 35.4577C52.819 35.5307 53.2133 35.6183 54.104 35.6767C57.2437 35.9104 58.6164 36.1732 58.6164 36.5821C58.6164 36.9034 58.0907 37.0932 56.1047 37.4437C55.0532 37.6335 54.1771 37.8234 54.1333 37.8672C54.0456 37.9548 54.4399 38.057 55.6958 38.2469C56.3237 38.3491 56.9662 38.5389 57.1999 38.7142C57.5503 38.9624 57.7548 38.9916 58.4119 38.904C59.1275 38.8164 59.2005 38.831 59.2005 39.0792C59.2005 39.2399 58.996 39.5465 58.7478 39.7948C58.3243 40.2037 58.2513 40.2183 56.6012 40.2621C55.6666 40.2913 54.8342 40.3789 54.7466 40.4519C54.4983 40.7002 54.878 40.8608 56.0462 41.0068C56.9662 41.109 57.2583 41.2113 57.4481 41.4595L57.6818 41.7662L58.3973 41.4595C58.8938 41.2405 59.2735 41.1821 59.5948 41.2405C60.1497 41.3427 60.1789 41.4303 59.7846 41.9414C59.4195 42.4087 58.4557 42.6278 56.8056 42.6278C55.3453 42.6278 54.6736 42.7446 54.6736 42.9928C54.6736 43.2557 55.2285 43.3579 56.718 43.3725C58.2221 43.3725 58.5141 43.5477 58.1199 44.1611C57.8862 44.5115 57.5796 44.6284 55.9294 44.9934C55.4475 45.0957 55.0386 45.2563 55.0094 45.3585C54.9072 45.636 55.8564 45.7382 57.3897 45.5775C58.1929 45.5045 58.8938 45.4899 58.9522 45.5483C59.1275 45.709 58.6748 46.5267 58.3243 46.7166C58.1637 46.8042 57.3897 46.9356 56.6012 47.0086C54.9364 47.1693 54.6444 47.2569 54.7028 47.5782C54.7466 47.7826 55.097 47.8264 57.3313 47.8848C58.7478 47.9286 59.9598 48.0016 60.0182 48.0747C60.2665 48.3229 59.7262 48.4981 57.8278 48.761C55.4183 49.0969 54.6736 49.2867 54.6736 49.5496C54.6736 49.8562 55.0094 49.9292 56.3237 49.9292C57.7256 49.9292 57.9592 50.0315 57.8278 50.5572C57.7256 51.0099 57.0538 51.2435 55.8856 51.2435C55.4767 51.2435 54.951 51.3165 54.7174 51.4041C54.3231 51.5502 54.3231 51.5648 54.5859 51.7692C54.7904 51.9152 55.3161 51.9736 56.4113 51.9736C58.2513 51.9736 58.6164 52.0613 58.6164 52.4263C58.6164 52.806 58.2659 52.9374 56.3091 53.2879C54.4983 53.6238 53.9434 53.7844 53.9434 54.0035C53.9434 54.2663 55.2577 54.3539 57.2583 54.2225C58.9084 54.1057 59.2443 54.1203 59.3173 54.2955C59.4195 54.573 58.7332 55.1425 58.0468 55.3323C57.7402 55.4053 56.4113 55.5222 55.097 55.5952L52.7022 55.6974L54.5275 56.0333C56.8932 56.4714 57.0684 56.5298 57.1269 56.8948C57.1853 57.2745 56.9516 57.3329 54.6736 57.5228C52.2349 57.7272 51.826 57.8002 52.0158 57.9901C52.1034 58.0777 53.1695 58.1799 54.5859 58.2237C57.7986 58.3113 57.784 58.5304 54.5275 59.2167C52.0012 59.757 51.6946 59.8593 51.8698 60.0345C51.972 60.1367 53.0526 60.2243 54.6736 60.2681C56.718 60.3265 57.3021 60.385 57.3021 60.531C57.3021 60.9545 53.9142 61.524 51.2419 61.524C49.5479 61.5386 49.2851 61.5094 48.7302 61.2027C47.9562 60.7938 47.8102 60.7938 47.8102 61.2319C47.8102 61.7722 48.6863 62.0205 51.1981 62.1957C52.3663 62.2687 53.4323 62.3856 53.5637 62.4294C54.3523 62.736 53.2425 62.9843 49.7962 63.2909C48.4235 63.4224 47.2845 63.5392 47.2553 63.5684C47.226 63.5976 47.7225 63.6706 48.3505 63.729C55.725 64.357 55.8126 64.4008 50.9352 65.0287C49.4165 65.2185 47.9854 65.4668 47.7372 65.5544C47.3283 65.715 47.3137 65.7296 47.5765 65.8757C47.7372 65.9633 49.0368 66.0801 50.4679 66.1385C51.899 66.1969 53.111 66.27 53.1402 66.3138C53.1695 66.343 52.3079 66.4598 51.1981 66.562C48.5549 66.8103 46.5543 67.1169 46.087 67.336C45.868 67.4528 45.6781 67.6718 45.6489 67.8617C45.6051 68.1683 45.6343 68.1829 46.16 68.1099C48.4381 67.7887 50.3657 67.6426 50.833 67.7741C51.8406 68.0515 54.031 67.4674 54.4691 66.7957C54.5859 66.6058 54.9948 66.3284 55.3453 66.1969C56.1923 65.8757 56.2507 65.7442 55.7688 65.35C55.2723 64.9557 55.3453 64.7805 56.1777 64.3716C56.5135 64.1963 56.9662 63.8897 57.1999 63.6852C57.9592 62.9697 57.5942 62.6922 56.2507 62.9259C55.7688 63.0135 55.3453 63.0573 55.3161 63.0281C55.1409 62.8529 56.9078 62.2833 57.8424 62.2103C58.4119 62.1519 58.9376 62.0643 58.996 62.0205C59.1859 61.816 58.9084 61.4656 58.5433 61.4656C57.7694 61.4656 58.3243 60.8961 59.5071 60.5164C60.8944 60.0491 60.7338 59.6402 59.0691 59.4358C58.4849 59.3628 57.9738 59.2605 57.9154 59.2167C57.7548 59.0415 58.2513 58.7202 59.0545 58.472C60.1789 58.1215 60.4563 57.9025 60.7922 57.1577C60.9966 56.6904 61.2303 56.4276 61.5954 56.2523C61.8728 56.1209 62.1357 55.9311 62.1795 55.8142C62.2817 55.5806 61.7122 55.3323 61.0989 55.3323C60.2081 55.3323 60.5294 54.8212 61.7122 54.3831C62.0919 54.2371 62.4861 54.0327 62.5884 53.9158C62.676 53.799 62.7782 53.2149 62.7928 52.6162C62.8366 51.4625 62.6614 51.0975 62.1065 51.0975C61.7268 51.0975 61.756 50.8638 62.2087 50.3381C62.4131 50.0899 62.5592 49.754 62.53 49.5788C62.4861 49.3159 62.3547 49.2575 61.683 49.1991C60.3979 49.0823 60.2665 48.8194 61.1427 48.1623C61.4785 47.8994 61.8582 47.7972 62.5592 47.7388C63.6982 47.6512 63.8004 47.4175 62.9388 46.8626C62.4131 46.5267 62.3839 46.4683 62.4569 45.928C62.5592 45.2417 62.4569 44.9642 62.1211 44.9642C61.7706 44.9642 61.3617 44.4677 61.4785 44.1757C61.537 44.0442 61.829 43.796 62.1357 43.65C62.4423 43.4893 62.7344 43.2995 62.7782 43.2119C62.9388 42.949 62.5592 42.6278 61.9604 42.5401C60.8068 42.3503 60.8506 41.7954 62.0627 41.1675C62.8366 40.7732 63.0703 40.3205 62.5884 40.1891C62.4131 40.1452 62.2671 39.9554 62.2087 39.7072C62.0919 39.0646 61.5954 38.9916 61.0843 39.5465C60.836 39.824 60.5294 39.9992 60.3103 39.9992C59.7116 39.9992 59.843 39.5173 60.6608 38.6119C61.4055 37.7796 61.5516 37.3853 61.1865 37.0932C61.0259 36.9618 60.836 36.991 60.3103 37.2539C59.9452 37.4291 59.6094 37.5313 59.551 37.4875C59.3465 37.2831 59.6678 36.8304 60.2957 36.4653C60.836 36.1294 60.9528 35.9834 60.9528 35.6329C60.9528 35.005 60.6462 34.8152 59.916 35.005C59.0545 35.224 58.8646 35.1072 58.9668 34.4647C59.0106 34.1142 59.2005 33.8076 59.5071 33.5447C60.0329 33.1066 59.989 33.0628 58.9376 32.946C58.5872 32.9022 58.1929 32.7707 58.0468 32.6393C57.7986 32.4203 57.1561 32.3765 56.0608 32.5079ZM60.3687 43.8252C60.3687 44.4677 60.0329 44.8766 59.4487 44.9788C59.1567 45.0226 58.8792 45.0372 58.8354 44.9934C58.7478 44.9058 59.4195 43.9566 59.7554 43.6792C60.1059 43.4017 60.3687 43.4747 60.3687 43.8252ZM61.6246 45.9426C61.9166 46.3369 61.8728 46.3953 61.2887 46.5559C60.6024 46.7458 59.7846 46.7604 59.7846 46.5852C59.7846 46.3223 60.69 45.6944 61.0551 45.6944C61.2595 45.6944 61.5224 45.8112 61.6246 45.9426ZM60.3541 50.2067C60.7338 50.4403 60.2373 50.8054 59.0837 51.1705C58.777 51.2581 58.7478 51.2289 58.7916 50.8638C58.8646 50.2505 59.7992 49.8562 60.3541 50.2067ZM61.2011 52.1927C61.3617 52.6308 60.8214 52.9959 60.0329 52.9959H59.3027L59.5802 52.6892C59.8576 52.3679 60.5732 51.9883 60.9236 51.9736C61.0259 51.9736 61.1427 52.0759 61.2011 52.1927ZM59.5656 56.5006C59.1713 57.2599 58.1053 57.6834 58.1053 57.0847C58.1053 56.9241 59.4341 56.1063 59.7554 56.0625C59.77 56.0625 59.697 56.2523 59.5656 56.5006Z" fill="black"/>
<path d="M52.4834 40.5249C52.4834 40.6271 53.8123 41.2113 53.8853 41.1382C53.9145 41.109 53.8415 40.9338 53.71 40.7586C53.5494 40.5395 53.345 40.4373 52.9799 40.4373C52.7024 40.4373 52.4834 40.4811 52.4834 40.5249Z" fill="black"/>
<path d="M51.8114 42.8181C51.3879 43.0517 51.8844 43.3584 52.6584 43.3584C53.4323 43.3584 53.9435 43.1686 53.9435 42.8765C53.9435 42.6721 52.1619 42.6283 51.8114 42.8181Z" fill="black"/>
<path d="M51.7236 45.3294C51.6652 45.3879 51.6652 45.5193 51.709 45.6361C51.7674 45.7821 52.0448 45.8406 52.7604 45.8259C53.695 45.8113 53.7096 45.8113 53.2861 45.6215C52.702 45.3733 51.8404 45.2126 51.7236 45.3294Z" fill="black"/>
<path d="M51.7529 48.1772C51.7529 48.2648 52.2932 48.3232 53.0672 48.3232C53.8412 48.3232 54.3815 48.2648 54.3815 48.1772C54.3815 48.0896 53.8412 48.0312 53.0672 48.0312C52.2932 48.0312 51.7529 48.0896 51.7529 48.1772Z" fill="black"/>
<path d="M52.0742 50.6154C51.7238 50.6592 51.6069 50.7468 51.6361 50.9221C51.6945 51.2141 52.3809 51.3164 53.3301 51.1703C53.812 51.0973 53.9434 51.0243 53.9142 50.8345C53.8704 50.5716 53.0964 50.484 52.0742 50.6154Z" fill="black"/>
<path d="M50.6141 53.0257C50.2783 53.3616 50.4535 53.4346 51.5925 53.4346C52.8776 53.4346 53.2135 53.3616 53.2135 53.0549C53.2135 52.792 50.877 52.7628 50.6141 53.0257Z" fill="black"/>
<path d="M52.0156 54.9967C52.1032 55.0259 52.2785 55.0259 52.3807 54.9967C52.4683 54.9528 52.3953 54.9236 52.1908 54.9236C51.9864 54.9236 51.9134 54.9528 52.0156 54.9967Z" fill="black"/>
<path d="M50.2057 55.406C50.0305 56.0923 50.4685 56.4866 50.8774 55.9901C51.1257 55.6981 51.0089 55.3184 50.6292 55.1724C50.3517 55.0701 50.2787 55.1139 50.2057 55.406Z" fill="black"/>
<path d="M48.4532 58.1798C48.3072 58.5303 48.6723 58.8369 49.2126 58.8369C49.7967 58.8369 49.8843 58.5303 49.3878 58.1944C48.979 57.9023 48.5555 57.9023 48.4532 58.1798Z" fill="black"/>
<path d="M6.36735 61.0128C6.46958 61.1735 6.64481 61.3487 6.76163 61.3925C6.92227 61.4655 6.92227 61.4217 6.74703 61.1443C6.45497 60.7062 6.0899 60.5748 6.36735 61.0128Z" fill="black"/>
<path d="M7.6819 63.2471C7.7111 63.51 7.82793 63.583 8.16379 63.583C8.49966 63.583 8.61649 63.51 8.64569 63.2471C8.6895 62.9697 8.63109 62.9259 8.16379 62.9259C7.6965 62.9259 7.63809 62.9697 7.6819 63.2471Z" fill="black"/>
<path d="M43.5752 64.8105C43.5752 65.2339 43.7796 65.4092 44.3199 65.4092C44.6996 65.4092 44.6704 65.1755 44.2323 64.752C43.765 64.2701 43.5752 64.2994 43.5752 64.8105Z" fill="black"/>
<path d="M45.0948 64.9848C45.2116 65.7441 45.416 66.0216 45.8249 65.9632C46.044 65.934 46.1462 65.8025 46.1754 65.4667C46.2192 64.9848 45.9418 64.6343 45.343 64.4591C45.0072 64.3569 44.9926 64.3715 45.0948 64.9848Z" fill="black"/>
<path d="M9.55023 65.2918C9.05373 65.4524 9.05373 65.4524 9.4042 65.5546C10.2658 65.8175 11.3172 65.6423 11.0981 65.2772C10.9667 65.0873 10.2366 65.0873 9.55023 65.2918Z" fill="black"/>
<path d="M42.5537 67.0293C42.5537 67.4674 43.7219 67.8909 44.16 67.5988C44.4813 67.3944 44.1892 67.1753 43.2985 66.9417C42.5975 66.7665 42.5537 66.7665 42.5537 67.0293Z" fill="black"/>
<path d="M11.6534 67.1468C11.7848 67.3512 13.0407 67.8039 13.1575 67.6871C13.4203 67.4388 12.9238 67.0884 12.2667 67.0446C11.8286 67.0153 11.595 67.0592 11.6534 67.1468Z" fill="black"/>
<path d="M17.1735 68.6507C16.8961 68.9282 16.9691 69.045 17.5532 69.191C18.7944 69.4977 19.0281 69.4977 19.1157 69.2202C19.2909 68.6653 19.0573 68.4755 18.1811 68.4755C17.7284 68.4755 17.2757 68.5485 17.1735 68.6507Z" fill="black"/>
<path d="M25.2199 68.8257C24.8694 69.1178 24.8548 69.2054 25.0154 69.4098C25.2345 69.6727 25.7164 69.7165 26.2859 69.4974L26.6802 69.3368L26.2713 68.9133C25.7602 68.3876 25.731 68.3876 25.2199 68.8257Z" fill="black"/>
<path d="M45.4596 68.9135C44.5542 69.0303 44.2621 69.1471 44.379 69.3661C44.4812 69.5122 50.6144 69.556 51.5052 69.41C51.8995 69.3369 52.0455 69.2493 52.0455 69.0449C52.0455 68.782 51.8849 68.7674 49.1687 68.782C47.577 68.7966 45.9123 68.855 45.4596 68.9135Z" fill="black"/>
<path d="M13.5667 69.2054C13.3915 69.4975 13.8004 69.6435 14.808 69.6289C15.7426 69.6143 15.7572 69.6143 15.2899 69.4098C14.5743 69.1032 13.6981 69.001 13.5667 69.2054Z" fill="black"/>
<path d="M42.2607 70.1985C42.2607 70.8264 42.6258 71.0601 43.8525 71.1477C45.342 71.2645 50.2924 71.1039 50.2924 70.9286C50.2924 70.8702 48.7299 70.8118 46.8023 70.8118H43.3268L43.2391 70.3737C43.1515 70.0087 43.0785 69.9356 42.6988 69.9356C42.3776 69.9356 42.2607 70.0087 42.2607 70.1985Z" fill="black"/>
<path d="M20.5032 70.6368C19.9482 71.0895 20.4155 71.2647 22.6352 71.4254C24.6358 71.5714 25.4098 71.513 25.2345 71.2355C25.0739 70.9727 24.4167 70.7974 22.8396 70.5784C20.8828 70.3301 20.8828 70.3301 20.5032 70.6368Z" fill="black"/>
<path d="M16.4145 71.0889C15.918 71.1765 15.9326 71.1911 16.7066 71.2933C18.0501 71.4686 18.751 71.4247 18.751 71.1765C18.751 71.0013 18.5612 70.9575 17.8456 70.9721C17.3345 70.9867 16.692 71.0451 16.4145 71.0889Z" fill="black"/>
<path d="M19.8599 72.5501C19.6847 72.8129 20.3856 72.9882 22.3424 73.1488C24.8833 73.3532 25.3214 73.3386 25.3214 73.0758C25.3214 72.7545 24.4598 72.5939 22.0942 72.4917C20.5754 72.4186 19.9329 72.4332 19.8599 72.5501Z" fill="black"/>
<path d="M150.441 118.958C149.944 119.527 147.987 123.85 147.987 124.39C147.987 124.609 148.046 124.697 148.119 124.609C148.279 124.463 151.054 118.943 151.054 118.797C151.054 118.607 150.66 118.724 150.441 118.958Z" fill="black"/>
<path d="M153.463 58.049C153.229 58.0782 152.747 58.1512 152.412 58.195C150.966 58.3702 152.222 58.8375 154.12 58.8229C154.806 58.8229 155.493 58.7645 155.653 58.6915C155.916 58.5893 155.872 58.5455 155.376 58.3264C154.733 58.049 154.12 57.9613 153.463 58.049Z" fill="black"/>
<path d="M157.99 58.7492C157.756 58.9099 157.756 58.9391 158.004 59.1435C158.297 59.3918 160.677 59.4356 160.706 59.2019C160.75 58.8369 158.413 58.4426 157.99 58.7492Z" fill="black"/>
<path d="M165.35 69.2634C164.707 69.5847 163.261 70.8113 163.013 71.2202C162.896 71.4392 162.59 71.7021 162.356 71.8189C161.421 72.257 161.1 72.8557 161.816 72.8557C162.035 72.8557 162.75 72.4907 163.524 71.9942C166.299 70.2126 166.971 69.8767 166.971 70.3294C166.971 71.0742 166.605 71.7459 165.671 72.7535C164.459 74.0532 164.269 74.5497 164.4 76.01C164.459 76.6671 164.444 77.1928 164.342 77.368C164.167 77.7039 164.269 78.0544 164.59 78.1712C165.189 78.4049 167.949 77.1928 170.037 75.7909C170.636 75.382 171.162 75.1192 171.191 75.2068C171.293 75.5281 170.855 76.229 170.242 76.7401C169.877 77.0176 169.453 77.5287 169.292 77.8499C169.132 78.1712 168.811 78.5363 168.562 78.6677C168.285 78.8283 168.139 79.0328 168.139 79.2664C168.139 79.5877 168.183 79.6023 168.738 79.5293C169.687 79.3979 170.402 78.8429 170.607 78.0544C170.709 77.6017 170.899 77.3096 171.205 77.0906C171.746 76.7109 171.994 76.2436 172.213 75.236C172.403 74.316 172.242 73.7319 171.79 73.7319C171.366 73.7319 170.811 74.0386 169.03 75.2214C167.423 76.3166 166.722 76.6525 166.401 76.5503C166.124 76.4481 165.51 75.0608 165.51 74.5205C165.51 74.1408 165.685 73.8925 166.372 73.2208C167.365 72.2716 167.642 71.6729 167.788 70.3294C167.876 69.4678 167.861 69.3656 167.584 69.2196C167.16 69.0005 165.802 69.0151 165.35 69.2634Z" fill="black"/>
<path d="M165.686 82.8157C165.335 83.1953 162.663 88.1165 161.845 89.9127C161.261 91.1832 161.115 91.9863 161.48 91.9863C161.802 91.9863 161.948 91.7381 163.612 88.3794C164.474 86.627 165.335 85.0061 165.525 84.7725C166.139 83.9985 167.453 83.721 168.475 84.1591C168.855 84.3052 169.03 84.5242 169.234 85.0645C169.614 86.0429 169.57 86.4664 169.03 87.8683C168.767 88.54 168.592 89.1241 168.636 89.168C168.811 89.3432 169.176 89.0365 169.38 88.5254C169.512 88.2188 169.819 87.8391 170.081 87.6785C170.607 87.3426 170.885 86.6124 170.899 85.488C170.928 84.0277 170.257 83.3998 168.285 83.0201C167.687 82.9033 167 82.7426 166.781 82.655C166.197 82.4214 166.036 82.4506 165.686 82.8157Z" fill="black"/>
<path d="M162.531 83.049C162.312 83.4725 162.312 83.4871 162.692 83.5894C163.159 83.7062 163.363 83.5163 163.29 83.0637C163.217 82.5525 162.794 82.5379 162.531 83.049Z" fill="black"/>
<path d="M161.772 85.1367C161.685 85.2535 161.159 86.1881 160.619 87.2395C160.078 88.2763 158.53 91.1677 157.187 93.6648C154.748 98.1771 154.018 99.6666 154.149 99.8127C154.354 100.017 155.186 98.9949 155.8 97.7829C156.179 97.0527 156.836 95.8845 157.26 95.1981C158.165 93.7086 161.276 87.7068 161.714 86.597C162.035 85.7646 162.079 84.7424 161.772 85.1367Z" fill="black"/>
<path d="M166.664 86.6125C166.372 86.7147 166.167 86.9922 165.817 87.7661C165.305 88.9052 165.262 89.1826 165.583 89.2994C165.904 89.4309 166.167 89.1534 166.372 88.4525C166.474 88.102 166.693 87.5763 166.853 87.2696C167.204 86.5833 167.16 86.4373 166.664 86.6125Z" fill="black"/>
<path d="M168.168 90.9925C167.949 91.343 167.467 92.1316 167.102 92.7449C166.752 93.3582 166.314 93.9423 166.139 94.0153C165.744 94.1906 165.219 95.0083 163.831 97.5347C163.276 98.5423 162.605 99.5791 162.342 99.8565C161.86 100.338 161.845 100.338 161.568 100.09C161.407 99.9441 161.276 99.7397 161.276 99.6229C161.276 99.0242 162.721 96.3664 164.707 93.2998C165.671 91.8249 166.168 90.8173 165.949 90.8173C165.715 90.8173 163.817 93.5042 162.24 96.0744C159.742 100.134 159.669 100.222 159.1 100.28L158.603 100.324L159.188 99.2578C160.589 96.7023 162.882 92.1608 162.882 91.9417C162.882 91.1678 162.094 92.2922 159.596 96.6585C157.537 100.251 157.377 100.455 156.471 100.47C156.106 100.47 155.668 100.528 155.508 100.587C154.953 100.806 156.325 100.879 163.539 101.039C172.374 101.244 174.608 101.215 174.681 100.879C174.711 100.718 174.579 100.587 174.316 100.514C174.097 100.441 171.571 100.382 168.723 100.382H163.539L163.495 99.9003C163.452 99.4038 164.386 97.7975 167.117 93.7379C168.198 92.1316 169.015 90.7297 169.015 90.496C169.015 90.1748 168.533 90.4522 168.168 90.9925Z" fill="black"/>
<path d="M170.534 91.8693C169.512 92.9499 166.402 97.9296 166.168 98.8495C166.022 99.4629 167.073 98.2216 167.979 96.7175C168.417 96.002 169.264 94.7607 169.877 93.9576C171.279 92.1322 171.498 91.7817 171.498 91.402C171.498 90.9493 171.308 91.037 170.534 91.8693Z" fill="black"/>
<path d="M159.319 93.4757C158.136 95.0529 156.311 98.7328 156.311 99.5798C156.311 100.032 156.719 99.9302 156.938 99.3899C157.055 99.1417 157.742 97.769 158.486 96.3671C159.815 93.8554 160.151 93.0084 159.844 93.0084C159.757 93.0084 159.523 93.2275 159.319 93.4757Z" fill="black"/>
<path d="M171.862 93.4462C171.731 93.6944 171.264 94.4538 170.811 95.1547C169.847 96.6296 168.84 98.4258 168.927 98.5134C169.117 98.7033 169.701 98.0899 170.796 96.5566C172.067 94.7604 172.87 93.3586 172.724 93.1395C172.549 92.8475 172.081 93.0227 171.862 93.4462Z" fill="black"/>
<path d="M173.28 96.3811C173.119 96.9799 173.177 97.0967 173.572 97.0967C173.835 97.0967 173.864 97.0383 173.776 96.6294C173.63 95.9138 173.44 95.8116 173.28 96.3811Z" fill="black"/>
<path d="M160.18 119.25C159.815 119.717 158.354 121.937 156.938 124.186C150.995 133.605 147.884 139.183 148.41 139.519C148.629 139.65 149.125 138.935 149.972 137.328C150.425 136.438 151.316 134.904 151.929 133.897C152.557 132.889 153.433 131.443 153.886 130.684C157.581 124.507 158.793 122.55 159.669 121.338C161.041 119.454 161.567 118.68 161.567 118.534C161.567 118.476 161.406 118.418 161.202 118.418C160.939 118.418 160.662 118.637 160.18 119.25Z" fill="black"/>
<path d="M170.606 120.71C169.832 121.586 168.562 123.368 168.27 124.025C167.934 124.799 167.992 125.354 168.357 124.974C168.722 124.609 171.205 120.725 171.205 120.506C171.205 120.214 171 120.272 170.606 120.71Z" fill="black"/>
<path d="M171.95 123.251C171.483 123.455 171.351 123.587 171.453 123.689C171.658 123.893 173.031 123.309 172.885 123.09C172.768 122.886 172.695 122.9 171.95 123.251Z" fill="black"/>
<path d="M167.292 127.427C167.19 127.456 166.737 128.026 166.27 128.683C165.803 129.34 164.956 130.508 164.386 131.268C163.831 132.027 162.751 133.633 162.006 134.845C161.247 136.043 159.845 138.292 158.866 139.81C155.128 145.652 153.244 148.923 153.244 149.565C153.244 149.77 153.332 149.828 153.638 149.784C153.974 149.755 154.15 149.536 154.675 148.572C156.165 145.856 160.458 138.701 162.386 135.722C163.539 133.955 165.102 131.72 165.861 130.757C167.979 128.113 168.475 126.945 167.292 127.427Z" fill="black"/>
<path d="M162.955 129.778C161.597 130.757 159.713 133.137 157.041 137.255C150.25 147.696 149.885 148.31 149.9 149.23C149.9 149.595 149.9 149.595 150.309 149.113C150.542 148.85 151.535 147.185 152.528 145.404C153.755 143.228 154.441 142.147 154.66 142.059C154.836 142.001 155.084 141.738 155.215 141.49C155.347 141.242 156.865 138.92 158.589 136.306C161.553 131.837 162.298 130.874 163.115 130.509C163.466 130.348 163.7 129.851 163.583 129.516C163.554 129.413 163.291 129.53 162.955 129.778Z" fill="black"/>
<path d="M166.883 133.634C166.007 135.109 162.795 139.811 161.407 141.666C160.706 142.6 160.049 143.506 159.976 143.666C159.743 144.09 159.772 144.703 160.02 144.703C160.327 144.703 160.721 144.177 163.32 140.293C164.635 138.351 166.095 136.233 166.562 135.605C167.526 134.35 168.037 133.313 167.906 132.962C167.73 132.524 167.424 132.729 166.883 133.634Z" fill="black"/>
<path d="M165.978 140.438C164.853 141.621 163.67 143.943 164.006 144.279C164.328 144.6 164.693 144.133 165.598 142.337C166.635 140.263 166.766 139.621 165.978 140.438Z" fill="black"/>
</g>
</svg>
