<svg width="53" height="75" viewBox="0 0 53 75" fill="none" xmlns="http://www.w3.org/2000/svg">
<g opacity="0.25">
<path d="M21.4561 0.0870206C21.6774 0.133611 22.1142 0.296679 22.4171 0.4481C22.8713 0.669406 23.0577 0.803355 23.4712 1.21685C24.1759 1.90989 24.4612 2.55051 24.4612 3.40662C24.4612 3.83176 24.3622 4.10548 24.0477 4.50733C23.8381 4.77523 23.8031 4.86841 23.7333 5.36926C23.6459 5.94 23.4887 6.33602 23.3023 6.46997C23.2382 6.51074 23.1334 6.65633 23.0635 6.79028C22.9762 6.97082 22.8888 7.05235 22.7607 7.08147C22.6442 7.11642 22.5452 7.20377 22.452 7.36102C22.3355 7.5765 22.3064 7.59397 22.1084 7.5765C21.8056 7.55321 21.6891 7.63474 21.5085 8.01329C21.1882 8.68886 21.1242 8.73545 20.2448 8.96258L19.9652 9.03829L20.0875 9.16059C20.2389 9.32948 20.1458 9.42849 19.8779 9.38772C19.7556 9.37025 19.6799 9.3819 19.6799 9.41684C19.6799 9.45178 19.6624 9.51585 19.6449 9.56244C19.6216 9.6265 19.7148 9.71386 19.9361 9.85945C20.2098 10.0342 20.3787 10.2089 20.3787 10.3254C20.3787 10.3894 20.1399 10.3603 19.9303 10.2729C19.7614 10.2031 19.709 10.1972 19.6682 10.2555C19.5692 10.4185 19.6333 10.5117 19.9885 10.6864C20.1982 10.7913 20.3554 10.9077 20.3729 10.9718C20.3904 11.065 20.3554 11.0708 20.0118 11.0359C19.6624 11.0009 19.6333 11.0068 19.6041 11.1232C19.5692 11.2572 19.61 11.4086 19.6799 11.4086C19.709 11.4086 19.8255 11.5018 19.9419 11.6066C20.0992 11.7522 20.2448 11.8279 20.4835 11.8803C21.0019 11.9852 21.3862 12.1482 21.6483 12.3695L21.8871 12.5792L22.4578 12.4627C22.7723 12.3987 23.2906 12.3288 23.611 12.3055C24.1468 12.2705 24.2225 12.2472 24.5661 12.0434C24.9737 11.7988 25.131 11.7697 25.3057 11.9036C25.4105 11.991 25.4105 11.9968 25.2125 12.1715C25.0902 12.2822 25.0553 12.3346 25.1252 12.3113C25.1892 12.2822 25.3581 12.2531 25.4979 12.2356C25.661 12.2181 25.7949 12.1657 25.8473 12.1016C26.0046 11.9095 26.4647 11.892 26.8432 12.055C27.1286 12.1832 27.245 12.1948 27.9497 12.189C28.7825 12.1832 29.7551 12.0783 31.1703 11.8396C32.7369 11.5775 36.109 10.8262 36.406 10.6748C36.5108 10.6224 36.7962 10.4185 37.035 10.2264C37.2737 10.0342 37.5591 9.84198 37.6639 9.79539C37.8386 9.7255 37.8736 9.7255 38.0192 9.83616C38.1764 9.94099 38.2055 9.94681 38.4152 9.8711C38.6656 9.78374 38.7239 9.80122 38.8287 9.98175C38.8869 10.0866 38.8928 10.0749 38.8986 9.87693C38.8986 9.73133 38.9277 9.66144 38.9801 9.66144C39.0209 9.66144 39.0908 9.6265 39.1257 9.57991C39.1665 9.53332 39.4519 9.44014 39.7605 9.37025C40.4885 9.20718 41.1815 9.00917 43.15 8.39767C47.7217 6.98247 48.6594 6.72039 48.8224 6.7961C48.9098 6.83687 48.968 6.83105 49.0205 6.77281C49.0729 6.72039 49.0729 6.69128 49.0321 6.69128C48.9913 6.69128 48.9739 6.60974 48.9855 6.48744C48.9913 6.35932 48.968 6.26031 48.9214 6.23119C48.8166 6.16713 48.9855 5.83517 49.1661 5.75363C49.2825 5.70122 49.2825 5.70122 49.1311 5.71869C49.0437 5.73616 48.9564 5.71869 48.9389 5.6954C48.9214 5.66628 48.9622 5.41585 49.0321 5.14213C49.1253 4.7694 49.1544 4.48986 49.1486 4.07636C49.1311 3.36003 49.1311 3.37168 49.2476 3.37168C49.3349 3.37168 49.3349 3.36003 49.2709 3.31926C49.201 3.27267 49.2185 3.22608 49.3582 3.05136C49.696 2.62622 49.795 2.46315 49.8474 2.25932C49.8882 2.11955 50.0105 1.9623 50.2318 1.77012C50.4065 1.61287 50.6045 1.39156 50.6686 1.28091C50.7327 1.16443 50.8491 0.966423 50.9307 0.838298C51.0646 0.628639 51.0763 0.622816 51.053 0.762588C51.0413 0.85577 51.053 0.925656 51.0763 0.925656C51.1054 0.925656 51.1287 0.908185 51.1287 0.879065C51.1287 0.85577 51.1811 0.774236 51.2452 0.692702C51.3558 0.547105 51.3558 0.547105 51.2568 0.925656C51.1869 1.19355 51.1054 1.35662 50.9773 1.47892C50.8724 1.5721 50.7094 1.77594 50.6104 1.92736C50.5055 2.0846 50.4007 2.2069 50.3716 2.2069C50.3366 2.2069 50.3134 2.23602 50.3134 2.27097C50.3134 2.30591 50.2493 2.41656 50.1736 2.51557C50.0455 2.69611 49.7601 3.37168 49.8183 3.37168C49.8358 3.37168 49.9523 3.16202 50.0804 2.90577C50.226 2.61457 50.3658 2.41656 50.4473 2.38162C50.5172 2.3525 50.5521 2.32921 50.5172 2.32921C50.4881 2.32338 50.6162 2.17196 50.8084 1.9856C51.2044 1.60122 51.5771 1.16443 51.7285 0.902361L51.8334 0.721821L51.7926 0.896537C51.7693 0.989719 51.7344 1.17026 51.7111 1.29256C51.6703 1.49639 51.4257 1.79923 51.3034 1.79923C51.251 1.79923 51.1695 1.91571 50.8666 2.40492C50.7676 2.57381 50.7618 2.57381 50.6744 2.46315C50.5987 2.36415 50.5929 2.36415 50.622 2.45733C50.6453 2.52139 50.5987 2.64952 50.4881 2.79511C50.3949 2.92324 50.2609 3.20278 50.191 3.41827C50.1212 3.63375 50.0455 3.83176 50.0222 3.8667C49.9989 3.89582 49.9756 3.98901 49.9756 4.07054C49.9756 4.15207 49.9348 4.37338 49.8824 4.56557C49.7659 5.02565 49.7018 5.58474 49.7659 5.58474C49.8009 5.58474 49.8649 5.51486 49.9173 5.42167C50.0222 5.24696 50.2551 4.33261 50.2551 4.10548C50.2551 3.91912 50.4415 3.85506 50.6337 3.97736C50.8142 4.09383 50.8142 4.15207 50.6453 4.28602C50.5172 4.39085 50.325 4.95577 50.2085 5.58474C50.1619 5.84099 50.1561 5.84682 49.9697 5.82934C49.8416 5.8177 49.7892 5.82934 49.8183 5.87011C49.8358 5.90505 49.894 5.93417 49.9406 5.93417C49.9872 5.93417 50.0222 5.96329 50.0222 6.00406C50.0222 6.04483 50.0629 6.03318 50.127 5.97494C50.2493 5.86429 50.4298 5.94 50.4298 6.10889C50.4298 6.22537 50.1212 6.51656 49.993 6.51656C49.9523 6.51656 49.8882 6.5515 49.8533 6.59809C49.7659 6.70292 49.5213 6.74951 49.4456 6.6738C49.3524 6.58062 49.3699 6.70292 49.4631 6.82522C49.5097 6.88346 49.5621 6.90676 49.5795 6.87764C49.597 6.84852 49.7077 6.80193 49.8183 6.78446C50.0862 6.73204 50.4706 6.38843 50.5172 6.1613C50.5405 6.0623 50.5929 5.96912 50.6337 5.95165C50.6803 5.94 50.7035 5.89341 50.6861 5.85264C50.6686 5.81187 50.7501 5.70704 50.8666 5.61969C51.0239 5.49738 51.0937 5.38091 51.1753 5.10719C51.2393 4.88006 51.3151 4.73446 51.3908 4.69952C51.5597 4.62381 51.8043 4.2569 51.88 3.97153C51.9557 3.70364 52.0314 3.61628 52.0838 3.75023C52.1013 3.79682 52.1537 3.83758 52.2061 3.83758C52.3226 3.83758 52.3168 3.89 52.177 4.04142C52.1071 4.11713 52.0372 4.30349 52.0081 4.48403C51.979 4.65292 51.9266 4.80435 51.8916 4.81599C51.8567 4.82764 51.8276 4.88588 51.8276 4.94994C51.8276 5.01983 51.7751 5.07224 51.6761 5.09554C51.5655 5.12466 51.4839 5.21784 51.3849 5.43332C51.3092 5.59639 51.2452 5.75946 51.2452 5.78858C51.2452 5.82352 51.2044 5.91088 51.152 5.98076C51.0646 6.11471 51.053 6.11471 50.9423 6.00988C50.8317 5.91088 50.8317 5.91088 50.8957 6.0623C50.9598 6.19042 50.9482 6.24866 50.8084 6.48162C50.721 6.62721 50.6162 6.76699 50.5754 6.7961C50.5347 6.8194 50.4298 6.98829 50.3483 7.16883C50.2143 7.48332 50.191 7.50662 50.0105 7.50662C49.9057 7.50662 49.7368 7.4542 49.632 7.39014C49.4572 7.28531 49.4398 7.28531 49.3874 7.37849C49.3349 7.46585 49.3116 7.46585 49.201 7.40179C49.0729 7.32025 49.0729 7.32608 49.1136 7.60562C49.1486 7.88517 49.1428 7.89099 48.9622 7.98417C48.8574 8.03076 48.6594 8.12977 48.5254 8.19965C48.2866 8.31613 48.1061 8.36855 46.656 8.72963C45.1592 9.09653 42.7773 9.86528 41.9037 10.2555C41.1932 10.5758 40.8671 10.7913 40.3837 11.263C39.9411 11.6881 39.6848 11.8745 39.5217 11.8745C39.4053 11.8745 39.3994 11.8512 39.4868 11.6124C39.545 11.4494 39.5392 11.397 39.4111 11.1698C39.3296 11.03 39.2247 10.8087 39.184 10.6806L39.1141 10.4477L39.0675 10.6224C39.0267 10.7505 39.05 10.867 39.1607 11.1058C39.2422 11.2805 39.3063 11.4319 39.3063 11.4494C39.3063 11.461 39.1898 11.5891 39.0442 11.7406C38.8869 11.8978 38.7821 12.055 38.7821 12.1366C38.7821 12.3754 38.5084 12.4045 38.1357 12.2006C37.5067 11.857 36.8835 11.857 34.5307 12.1948C31.5081 12.62 30.5879 12.7539 30.1046 12.8354C27.9789 13.1849 26.8024 13.511 26.3948 13.8721C26.22 14.0293 26.1968 14.0759 26.2142 14.2856C26.2317 14.5185 26.2259 14.5244 25.9987 14.6001C25.661 14.7166 25.0262 14.67 24.8223 14.5185C24.5835 14.3438 24.4205 14.0701 24.3739 13.7906C24.3273 13.4935 24.403 13.3829 24.5777 13.4994C24.7583 13.61 24.8281 13.511 24.7524 13.2315C24.7 13.0451 24.6534 12.9927 24.4787 12.9286C24.304 12.8646 24.2574 12.8646 24.2166 12.9286C24.1409 13.0509 24.1584 13.4295 24.2516 13.8255C24.3622 14.2914 24.3622 14.5535 24.2516 14.5535C24.1409 14.5535 24.1409 14.5185 24.2807 15.2523C24.4845 16.3298 24.4321 17.2616 24.1002 18.2575L23.9837 18.6127L24.106 18.869C24.2516 19.1893 24.2516 19.6319 24.1118 19.9406C24.0128 20.1677 24.0128 20.1793 24.1176 20.3482C24.2691 20.5986 24.2574 21.018 24.0943 21.2276C23.9837 21.3616 23.9604 21.4664 23.9604 21.8042C23.9604 22.1361 23.9313 22.2643 23.809 22.4798C23.6983 22.6836 23.6692 22.7768 23.7158 22.8525C23.8148 23.033 23.7158 23.3533 23.4887 23.5863C23.279 23.8018 23.279 23.8018 23.378 23.9881C23.4304 24.0871 23.4887 24.355 23.5061 24.5763C23.5644 25.281 23.2965 25.712 22.749 25.7761L22.5044 25.8052L22.6966 25.6479C23.1334 25.2927 23.2965 24.6812 23.0868 24.1861C23.0111 23.994 22.9878 23.9823 22.8073 24.0173C22.5743 24.0638 22.3064 23.9474 22.1725 23.7435C22.1259 23.6678 22.0502 23.4756 22.0152 23.3067C21.9628 23.0971 21.9046 22.9923 21.8289 22.969C21.7648 22.9457 21.625 22.8467 21.5202 22.7418C21.2465 22.4623 20.7456 22.2934 20.1166 22.2584C19.4993 22.2235 19.4178 22.2701 19.3712 22.6312L19.3421 22.8816H19.7556C20.932 22.8874 21.9395 23.464 22.4928 24.454C22.8422 25.083 22.8073 25.0888 22.2365 24.5239C21.6134 23.9066 21.2406 23.6329 20.798 23.464C20.4894 23.3475 19.9885 23.3126 19.6274 23.3825C19.4585 23.4174 19.4469 23.4349 19.4469 23.6969C19.4469 23.9648 19.4527 23.9707 19.674 24.0347C19.7963 24.0755 19.9536 24.1046 20.0235 24.1046C20.1166 24.1046 20.1458 24.1396 20.1458 24.256C20.1458 24.3376 20.1749 24.454 20.2098 24.5181C20.2681 24.6288 20.2564 24.6346 20.006 24.5996C19.8604 24.5763 19.6799 24.5705 19.6041 24.5938C19.4818 24.6229 19.4644 24.6579 19.4818 24.8326C19.5226 25.3451 19.5401 25.3684 19.9652 25.479C20.3438 25.578 20.3612 25.5897 20.4835 25.8459C20.5476 25.9915 20.6 26.1138 20.5942 26.1197C20.5884 26.1255 20.4311 26.1022 20.2506 26.0672C20.0351 26.0323 19.8487 26.0265 19.7264 26.0614L19.5343 26.1197L19.5401 26.4924C19.5576 27.1447 19.5226 27.0922 19.8662 26.9583C20.0293 26.8942 20.1749 26.8535 20.1865 26.8651C20.2273 26.9059 20.3671 27.5116 20.3438 27.5523C20.3263 27.5756 20.1924 27.5756 20.0351 27.5582C19.7789 27.529 19.7439 27.5407 19.674 27.663C19.6333 27.7387 19.5983 27.96 19.5925 28.158L19.5808 28.5133L19.8429 28.4609C19.9885 28.4376 20.1225 28.4026 20.1341 28.3851C20.1749 28.3444 20.3671 28.7812 20.338 28.8336C20.3263 28.8627 20.1807 28.8802 20.0176 28.8802C19.6216 28.8802 19.4935 28.985 19.575 29.2645C19.61 29.3927 19.61 29.5324 19.5692 29.6547C19.4061 30.1905 19.377 30.3303 19.4178 30.4468C19.4353 30.5109 19.476 30.5691 19.4935 30.5691C19.5168 30.5691 19.6216 30.4118 19.7264 30.2197C19.9827 29.7538 20.0992 29.7538 20.5534 30.208C20.833 30.4934 20.9145 30.6157 21.0135 30.9418C21.1533 31.3961 21.1649 31.5941 21.0659 31.9202C20.9728 32.2289 20.8097 32.3454 20.2914 32.4618C19.8662 32.555 19.8546 32.5609 19.7963 32.7705C19.7672 32.887 19.7381 33.0093 19.7381 33.0384C19.7381 33.1491 19.4294 33.4927 19.2081 33.6324C19.0858 33.7082 18.981 33.813 18.981 33.8596C18.981 33.9062 18.9344 33.9935 18.8703 34.0576C18.8121 34.1158 18.748 34.2323 18.7247 34.3138C18.6607 34.5876 17.9502 35.3796 17.723 35.4378C17.5483 35.4844 17.3387 35.3155 17.228 35.036C17.1872 34.9312 17.1057 34.7331 17.0416 34.5876C16.9776 34.442 16.9135 34.2207 16.9019 34.0925C16.8611 33.6383 16.8087 33.4519 16.6689 33.283C16.4243 32.986 16.3486 32.788 16.3544 32.3978V32.0251L15.9409 31.7805C15.4459 31.4893 15.3586 31.332 15.4284 30.8778C15.4925 30.505 15.609 30.2779 15.9118 29.9401C16.1739 29.6606 16.6398 29.4043 16.9019 29.4043C17.0882 29.4043 17.1348 29.4917 17.2338 29.9984C17.3212 30.4468 17.4377 30.4468 17.3853 30.0042C17.362 29.8236 17.3212 29.6431 17.2921 29.6082C17.2455 29.5499 17.2222 29.416 17.1814 28.9908C17.1698 28.9151 16.8669 28.8219 16.6223 28.8219H16.3719L16.4651 28.5832C16.5408 28.391 16.5757 28.356 16.6747 28.3851C17.0533 28.4958 17.1639 28.49 17.2047 28.356C17.4144 27.7038 17.2979 27.4417 16.832 27.5116L16.5757 27.5523L16.6165 27.3543C16.6398 27.2495 16.6689 27.0748 16.6922 26.9699C16.7213 26.7836 16.8087 26.7312 16.9193 26.836C16.9485 26.8651 17.0708 26.9175 17.1872 26.9467C17.4144 27.0107 17.4435 26.9816 17.4144 26.737C17.4086 26.6904 17.4318 26.6205 17.4726 26.5739C17.5134 26.5215 17.5541 26.3992 17.5658 26.2944C17.5833 26.1255 17.56 26.0905 17.4086 26.0265C17.2979 25.9799 17.0941 25.9624 16.8553 25.9857C16.6456 25.9974 16.4767 26.009 16.4767 25.9974C16.4767 25.9915 16.5466 25.8634 16.6282 25.712C16.7388 25.5082 16.8145 25.4441 16.9193 25.4441C16.9951 25.4441 17.1756 25.415 17.3212 25.3742C17.5541 25.3101 17.5949 25.2752 17.6532 25.0888C17.7463 24.7569 17.6881 24.6695 17.3911 24.6986C17.2571 24.7161 17.1057 24.7452 17.0533 24.7685C16.9776 24.8035 16.9601 24.7685 16.9659 24.5414C16.9718 24.3958 16.9951 24.2793 17.0184 24.2793C17.1814 24.2793 17.6357 24.0173 17.6706 23.9124C17.7289 23.7202 17.7463 23.4174 17.6997 23.3475C17.6823 23.3184 17.461 23.2427 17.2105 23.1903C16.8378 23.1087 16.7039 23.1029 16.436 23.1611C15.9526 23.2602 15.3469 23.5863 14.7412 24.0755C14.4442 24.3143 14.188 24.5123 14.1705 24.5123C14.1006 24.5123 14.6597 23.761 14.9159 23.5106C15.2537 23.1844 15.9118 22.8467 16.3894 22.7593C16.5874 22.7244 16.9543 22.7069 17.2338 22.7302L17.7289 22.7593L17.723 22.5729C17.7172 22.4681 17.7114 22.3167 17.7056 22.2293C17.6881 21.7634 16.2205 21.8857 15.2363 22.439C14.8926 22.6253 14.8228 22.7011 14.7238 22.9282C14.5665 23.2893 14.4675 23.3941 14.1996 23.464C13.9958 23.5222 13.9667 23.5513 13.8851 23.8251C13.8385 23.9881 13.7978 24.1687 13.7978 24.2153C13.7978 24.4307 13.9317 24.7627 14.1181 25.0073C14.3452 25.3043 14.2928 25.3451 13.9201 25.1529C13.4949 24.9374 13.3202 24.2444 13.5357 23.6329C13.623 23.3941 13.623 23.3825 13.4833 23.2369C13.1455 22.87 13.0174 22.4972 13.1571 22.241C13.1979 22.1653 13.1804 22.0663 13.0989 21.8799C12.9824 21.6178 12.9417 21.0529 13.0348 20.9073C13.0698 20.8549 13.0348 20.7326 12.9417 20.5462C12.7728 20.2201 12.7902 19.9871 13.0057 19.661C13.1338 19.4746 13.1338 19.4513 13.0581 19.265C12.9358 18.9854 12.9882 18.5836 13.1863 18.2458C13.3086 18.042 13.3493 17.8847 13.361 17.646C13.3668 17.3431 13.5415 16.8656 13.7512 16.586C13.8036 16.5045 13.7861 16.4113 13.6405 16.091C13.5415 15.8697 13.3901 15.3805 13.3027 15.0019C13.163 14.4254 13.1164 14.3031 13.0115 14.2623C12.8834 14.2099 12.8077 14.0119 12.7203 13.4586C12.6621 13.1092 12.5922 13.1558 12.6213 13.5227C12.6388 13.7614 12.6155 13.8896 12.5223 14.0759C12.4 14.3147 11.8759 14.7864 11.7303 14.7864C11.6895 14.7864 11.6138 14.7224 11.5614 14.6408C11.3226 14.2798 10.5655 14.5768 9.29592 15.5319C8.08455 16.4404 3.52447 20.389 2.88384 21.0762L2.54024 21.4489L2.76737 21.6469C3.41382 22.2002 3.93797 22.6079 5.26581 23.5863C7.56041 25.281 7.90401 25.5198 8.632 25.9391C9.17944 26.2594 9.39492 26.3468 9.68029 26.3876C10.1811 26.4574 10.449 26.5972 10.449 26.7952C10.4549 26.8826 10.4723 26.9699 10.4956 26.9932C10.5597 27.0573 10.5422 27.2204 10.4665 27.2961C10.4316 27.331 10.3966 27.4126 10.3908 27.4708C10.385 27.564 10.4199 27.5756 10.7111 27.5523C11.0081 27.529 11.0547 27.5407 11.1421 27.663C11.2003 27.7503 11.2353 27.9192 11.2353 28.1347C11.2353 28.3153 11.2586 28.4783 11.2935 28.5016C11.3226 28.5191 11.3634 28.6938 11.3867 28.886C11.41 29.0724 11.4449 29.2471 11.4682 29.2587C11.4973 29.2762 11.608 29.1597 11.7245 29.0083C12.4059 28.0765 13.3726 27.5523 14.287 27.6106C14.9334 27.6513 15.3818 27.9018 16.0516 28.5832C16.3486 28.886 16.5932 29.1655 16.5932 29.2063C16.5932 29.2471 16.4301 29.4101 16.2263 29.5674C15.0965 30.4701 14.7936 31.1049 14.782 32.5958C14.7762 33.516 14.8577 33.6499 15.9002 34.4885C16.3603 34.8613 16.832 35.2515 16.9485 35.3621C17.0766 35.4903 17.1814 35.5543 17.2222 35.5252C17.3095 35.4728 17.9909 35.566 18.0841 35.6417C18.1249 35.6708 18.2588 35.6417 18.4335 35.5543C18.5908 35.4786 18.8878 35.3563 19.0975 35.2748C20.5534 34.7157 20.6117 34.6866 20.8446 34.4536C21.2465 34.0401 21.5085 33.1665 21.5085 32.2289C21.5085 31.466 21.3979 31.1457 20.8679 30.3653C20.6932 30.0974 20.5593 29.8469 20.5826 29.812C20.6 29.7829 20.7165 29.7013 20.833 29.6431C20.9495 29.5849 21.2174 29.4393 21.427 29.3286C22.2074 28.9035 22.8946 28.8336 23.6051 29.1131C24.0943 29.2995 24.7 29.9168 25.0203 30.54C25.5794 31.6232 25.7017 32.852 25.3057 33.4344C25.1252 33.7082 24.7 33.9469 24.3156 33.9993C24.1351 34.0226 23.9604 34.0692 23.9254 34.1042C23.8905 34.1391 23.8206 34.3197 23.7624 34.506L23.6634 34.8496H22.8772C22.0327 34.8555 21.7764 34.9079 21.4154 35.1641C20.9029 35.5252 20.7514 36.2706 21.0485 36.9753C21.1999 37.3364 21.2348 37.68 21.1416 37.9246C20.9844 38.3323 20.6641 38.3614 20.1691 38.0236C19.9769 37.8955 19.5576 37.6858 19.2314 37.5577C18.6257 37.3248 18.2996 37.1442 18.0666 36.9229C17.9851 36.8472 17.9269 36.8239 17.9036 36.8647C17.857 36.9346 17.4086 36.8822 17.1407 36.7715C16.9834 36.7074 16.9077 36.7133 16.6165 36.8123C16.4068 36.8822 15.9992 36.9462 15.574 36.9753C15.1897 37.0045 14.6946 37.0802 14.4733 37.1442C14.252 37.2083 14.0074 37.2491 13.9375 37.2316C13.6463 37.1559 13.524 36.8064 13.658 36.4221C13.6988 36.2939 13.7395 36.1833 13.7395 36.1775C13.7395 36.1716 13.6988 36.1775 13.6522 36.1949C13.5823 36.2241 13.5648 36.1775 13.5648 35.9911C13.5648 35.8222 13.5357 35.7349 13.4716 35.7116C13.326 35.6591 12.6213 36.1775 12.4641 36.4512C12.3243 36.6958 11.9924 37.7907 11.9924 37.9945C11.9924 38.0586 12.0739 38.4371 12.1671 38.839C12.2661 39.2408 12.4466 40.027 12.5806 40.5861C12.9882 42.3449 13.0407 42.5662 13.3144 43.6728C13.9259 46.1654 14.7762 49.1588 14.9509 49.4326C15.079 49.6422 15.708 50.4168 15.7837 50.4634C15.8594 50.51 16.1273 50.2596 16.3894 49.9043C16.8902 49.2229 19.5634 44.7269 21.2406 41.7567L22.4404 39.6252L22.4637 39.0079C22.4986 38.0644 22.3763 37.6742 21.8638 37.1326C21.6658 36.9287 21.5435 36.9462 21.4561 37.2083C21.4212 37.3189 21.3688 37.4121 21.3397 37.4121C21.2348 37.4121 21.0659 36.7599 21.0601 36.3347C21.0485 35.8222 21.1941 35.5019 21.561 35.2049C21.7473 35.0535 21.8405 35.0243 22.1841 35.0069C22.5452 34.9836 22.6151 35.001 22.9296 35.1699C23.1276 35.2748 23.2965 35.3912 23.3139 35.432C23.3314 35.4786 23.2674 35.6067 23.1683 35.729C23.0752 35.8455 22.9995 35.9562 22.9995 35.9678C22.9995 35.9795 23.0635 36.1134 23.1392 36.2648C23.2149 36.4162 23.3256 36.69 23.3838 36.8763C23.477 37.1733 23.5061 37.2141 23.6168 37.185C23.6867 37.1675 23.8206 37.1792 23.9196 37.2141C24.2691 37.3364 24.3797 37.7033 24.2574 38.3323C24.2108 38.5652 24.1409 38.9613 24.106 39.2175C24.071 39.4738 23.9895 39.864 23.9196 40.0911C23.809 40.4464 23.7449 40.5454 23.4071 40.8773C22.9587 41.3141 22.8014 41.5296 22.0152 42.7817C20.7107 44.8667 18.7946 48.4367 18.2647 49.7762C18.0492 50.312 18.0492 50.312 18.0492 51.203C18.0492 52.0475 18.0434 52.1115 17.8978 52.3969C17.8162 52.5658 17.723 52.6998 17.6881 52.6998C17.659 52.6998 17.6532 52.7522 17.6706 52.8162C17.6939 52.8978 17.6532 53.0026 17.525 53.1657C17.2571 53.5093 16.6049 54.0567 16.4593 54.0684C16.3836 54.0742 16.3253 54.1208 16.3137 54.1907C16.2845 54.3304 16.0749 54.5634 15.9701 54.5634C15.9118 54.5634 15.9002 54.6042 15.9235 54.674C15.9468 54.7556 15.9002 54.8546 15.7604 55.0118C15.6323 55.1516 15.5391 55.338 15.4983 55.5243C15.2071 56.8289 15.2654 60.1252 15.6381 63.6777C15.8885 66.0772 15.9875 66.7178 16.1622 66.974C16.4243 67.3526 16.4942 68.3543 16.2787 68.5173C16.1797 68.5872 15.9176 68.5523 15.4867 68.4242C15.2188 68.3485 14.8111 68.3485 14.4384 68.4358C14.1122 68.5115 14.0016 68.4533 14.054 68.232C14.0831 68.1097 14.0132 68.1039 13.9142 68.2203C13.8094 68.3485 13.5823 68.331 13.5007 68.1796C13.425 68.0456 13.4483 67.4108 13.5706 66.2985C13.6813 65.2094 13.5881 64.0563 13.2387 62.4256C13.1746 62.0995 13.1338 61.4181 13.0989 59.7874C13.0756 58.576 13.0407 57.5685 13.0232 57.5568C12.9824 57.5161 12.4059 58.1334 11.6255 59.0478C10.8917 59.9039 10.6179 60.1601 9.60458 60.9405C8.80671 61.5578 7.78171 62.5421 7.38569 63.0662C7.22845 63.2759 6.90231 63.8175 6.65771 64.2776C6.20345 65.1337 5.98214 65.454 5.85402 65.454C5.81325 65.454 5.67348 65.3142 5.55117 65.1453C5.36481 64.9007 5.22504 64.7901 4.82902 64.5921C4.10686 64.2252 4.07191 64.196 4.07191 63.998C4.07191 63.8641 4.15927 63.7301 4.46793 63.4098C4.84066 63.0138 4.88143 62.9905 5.1901 62.9497C5.76666 62.8682 6.72759 62.3149 7.62447 61.5462C9.50557 59.9272 11.276 57.7024 12.336 55.6408C12.5398 55.2331 12.633 54.9827 12.633 54.8255C12.633 54.7032 12.6738 54.5576 12.7203 54.5051C12.7961 54.4236 12.8019 54.377 12.7436 54.2547C12.6563 54.0625 12.7844 53.783 12.9708 53.7597C13.064 53.748 13.0989 53.7131 13.0756 53.6549C13.0581 53.6083 13.0232 53.3578 13.0057 53.0958C12.9591 52.5483 13.0115 52.4668 13.4134 52.4668H13.6522L13.4134 52.3561C13.2794 52.2979 13.0989 52.1465 13.0057 52.03C12.8659 51.8436 12.8368 51.7446 12.8194 51.3952C12.8019 51.0458 12.831 50.8769 13.0057 50.3236C13.2387 49.584 13.2561 49.3802 13.128 48.5007C12.7961 46.1421 11.905 42.2809 11.1654 40.0096C10.9499 39.3456 10.9033 39.2525 10.6238 38.9613C10.0472 38.3498 9.94819 38.0003 10.0938 37.1093C10.1404 36.7948 10.2103 36.3231 10.2394 36.061C10.2976 35.5776 10.4083 35.3272 10.6005 35.2282C10.7694 35.135 11.078 35.1641 11.3226 35.2864C11.4507 35.3505 11.573 35.4029 11.5963 35.4029C11.6196 35.4029 11.7419 35.2515 11.8701 35.0651C11.9924 34.8846 12.1671 34.6691 12.2486 34.5934C12.4175 34.4361 12.4408 34.2498 12.3185 34.011C12.2719 33.9236 12.2544 33.8246 12.2719 33.7955C12.3534 33.679 12.6912 33.5858 13.0348 33.5858C13.5182 33.5858 13.8735 33.7606 14.0948 34.11C14.2404 34.343 14.2637 34.4361 14.2637 34.7856C14.2637 35.135 14.2287 35.2631 14.0657 35.6067C13.8909 35.962 13.8851 35.9911 14.0074 35.8397C14.7121 34.9894 14.4908 33.9586 13.5124 33.516C13.3144 33.4286 12.9708 33.318 12.7378 33.2714C12.1962 33.1607 12.0914 33.0559 12.1438 32.6657C12.1671 32.491 12.1554 32.3454 12.1088 32.2813C12.0506 32.1823 12.0448 32.1881 12.0739 32.3162C12.103 32.456 12.0972 32.456 12.0215 32.3512C11.9749 32.2871 11.9341 32.2172 11.9341 32.1881C11.9341 32.1648 11.8351 32.0949 11.7128 32.0309C11.4042 31.8736 11.078 31.4951 11.0023 31.2039C10.9208 30.9127 10.9732 30.4876 11.1304 30.0566C11.2469 29.7479 11.2469 29.7421 11.1304 29.6198C11.0489 29.5266 11.014 29.3985 11.0081 29.1714C10.9965 28.7462 10.9149 28.554 10.6063 28.2279C10.3792 27.9949 10.3326 27.9658 10.2394 28.0241C10.1753 28.0648 10.1287 28.1114 10.1287 28.1405C10.1287 28.1638 10.1578 28.1697 10.187 28.1522C10.2627 28.1056 10.5364 28.2745 10.5364 28.3618C10.5364 28.3968 10.6005 28.4783 10.6762 28.5366C10.8742 28.6938 10.9615 28.9675 10.8509 29.084C10.7228 29.2063 10.5888 29.1947 10.5539 29.0491C10.5364 28.9792 10.5015 28.9559 10.484 28.9908C10.4257 29.084 10.1054 28.9734 10.0705 28.8452C10.0414 28.7404 10.0355 28.7404 9.91324 28.8685L9.78512 28.9966L9.98895 29.084C10.2044 29.1714 10.2044 29.183 10.0006 29.4626C9.93654 29.5499 9.86083 29.8586 9.80259 30.2488C9.74435 30.6099 9.66864 30.936 9.61623 30.9884C9.55217 31.0641 9.54634 31.0932 9.60458 31.0932C9.65699 31.0932 9.66864 31.1922 9.63952 31.5126C9.59876 31.9668 9.69776 32.5492 9.82006 32.59C9.91907 32.6249 10.0123 32.2347 10.0123 31.7746V31.3844H10.2103C10.3209 31.3844 10.4316 31.4136 10.449 31.4427C10.4723 31.4776 10.4199 31.7047 10.3384 31.9552C10.1578 32.4968 10.1578 32.8753 10.3326 32.9219C10.3966 32.9336 10.5772 32.9976 10.7402 33.0559L11.0314 33.1607L10.7868 33.1898C10.6471 33.2131 10.5247 33.2364 10.5131 33.2539C10.4956 33.2714 10.6238 33.3937 10.8043 33.5393C10.979 33.679 11.113 33.7955 11.1013 33.8072C11.0955 33.8188 10.9557 33.7839 10.7985 33.7314C10.6354 33.679 10.4723 33.6266 10.4316 33.615C10.3792 33.6033 10.3675 33.5509 10.3908 33.4694C10.4257 33.3354 10.4257 33.3354 10.3326 33.4519C10.2452 33.5684 10.2394 33.5626 10.2103 33.4344C10.187 33.3645 10.152 33.3063 10.1229 33.3063C10.0297 33.3063 10.0647 33.3995 10.2161 33.5393C10.2976 33.615 10.3617 33.7082 10.3617 33.7547C10.3617 33.7955 10.385 33.8305 10.4141 33.8305C10.4432 33.8305 10.4782 33.9528 10.4956 34.1042C10.5131 34.2614 10.5422 34.4478 10.5655 34.5293C10.5888 34.6283 10.5655 34.605 10.4782 34.4536C10.4083 34.3313 10.3034 34.1799 10.2452 34.1216C10.1811 34.0576 10.1171 33.9411 10.0938 33.8596C10.0414 33.6557 9.95401 33.679 9.94819 33.9003C9.93654 34.1449 9.93072 34.1741 9.84918 34.3837C9.69776 34.7564 9.65699 34.803 9.69194 34.5759C9.70941 34.4594 9.69776 34.3488 9.66282 34.3255C9.59876 34.2847 9.60458 34.0052 9.67447 33.912C9.70359 33.8712 9.73853 33.714 9.76182 33.5509C9.79094 33.2888 9.7793 33.2364 9.59876 32.9976C9.4881 32.8462 9.3658 32.7297 9.33086 32.7239C9.25515 32.7239 9.23768 32.654 9.16779 32.2405C9.15032 32.1241 9.04549 31.8503 8.93484 31.6465C8.76012 31.3087 8.74847 31.2621 8.83583 31.2097C8.92901 31.1573 8.92901 31.1573 8.84165 31.1515C8.70188 31.1515 8.66694 31.0117 8.77177 30.8661C8.93484 30.6273 9.20273 29.7945 9.23768 29.4101C9.25515 29.2005 9.29592 28.9792 9.32503 28.9209C9.37163 28.8278 9.3891 28.8278 9.50557 28.9093C9.68029 29.0316 9.7793 29.0199 9.62205 28.8918C9.49975 28.7986 9.43569 28.5366 9.49393 28.3851C9.50557 28.3502 9.37745 28.1988 9.20273 28.0357C9.03384 27.8785 8.83583 27.628 8.76012 27.4766C8.54464 27.0631 7.64776 26.2944 6.35487 25.4324C3.8739 23.7726 3.00615 23.3359 1.99862 23.231C1.02603 23.132 0.670778 22.9923 0.321347 22.5846C0.02433 22.2352 0.0359777 22.1711 0.362114 22.3342L0.548477 22.4273L0.397057 22.2643C0.146631 21.9847 0.0709209 21.8217 0.0359777 21.4664L0.00103459 21.1286L0.228165 20.983C0.397057 20.8665 0.461119 20.785 0.472767 20.6511C0.496063 20.4065 0.711545 20.3016 1.49194 20.1502C1.81808 20.0861 2.14421 20.0046 2.21992 19.9638C2.56353 19.7833 5.64436 17.4829 6.48882 16.7724C8.35827 15.2058 9.2435 14.2914 9.41239 13.744C9.55217 13.3188 9.91324 12.9228 10.1753 12.9228C10.2976 12.9228 10.3792 12.882 10.4199 12.8063C10.5073 12.6433 10.781 12.5151 11.0431 12.5093C11.2353 12.5093 11.2469 12.5035 11.1304 12.4569C10.8509 12.3404 11.0722 12.0492 11.4449 12.0492C11.5672 12.0492 11.8817 12.09 12.1321 12.1366C12.5049 12.2065 12.6621 12.2123 12.9358 12.1599C13.3843 12.0725 13.7162 12.1191 13.9084 12.3055C14.0424 12.4336 14.1239 12.4569 14.3918 12.4569C14.6655 12.4569 14.7995 12.4161 15.1955 12.2065C15.6148 11.991 15.7255 11.9619 16.0865 11.9502C16.337 11.9444 16.6456 11.892 16.8495 11.8221C17.0591 11.7464 17.3387 11.6998 17.5658 11.6998C17.9036 11.6998 17.9618 11.6823 18.1657 11.5076C18.352 11.362 18.3986 11.2805 18.3986 11.1291C18.3986 10.9369 18.3928 10.9369 18.2064 10.9718C18.1074 10.9951 17.9793 11.0242 17.9211 11.0359C17.7813 11.0766 17.7347 10.9485 17.8453 10.8262C17.8978 10.768 18.0608 10.669 18.2006 10.6107C18.4394 10.5117 18.4568 10.4943 18.4219 10.3312C18.4044 10.2322 18.3811 10.1506 18.3695 10.139C18.3637 10.1332 18.2414 10.1914 18.1016 10.2729C17.8104 10.436 17.6997 10.4535 17.6997 10.337C17.6997 10.2613 18.0725 9.8944 18.3229 9.71968C18.4219 9.65562 18.4452 9.59156 18.4161 9.47508C18.387 9.31783 18.3811 9.31783 18.2181 9.39937C18.0084 9.51002 17.9909 9.51002 17.9909 9.37607C17.9909 9.31201 18.0666 9.18971 18.1598 9.10235L18.3345 8.93928L18.1191 8.72963C17.9968 8.61897 17.723 8.22295 17.5017 7.86187C17.1174 7.22125 17.1057 7.1863 17.1348 6.90093C17.1523 6.73787 17.2105 6.45832 17.263 6.28361C17.3736 5.90505 17.3387 5.71869 17.1465 5.63133C16.9601 5.5498 16.9368 5.47409 17.0125 5.17707C17.0649 4.97324 17.0591 4.90335 16.9834 4.7694C16.9077 4.64128 16.9019 4.57139 16.9485 4.41415C16.9834 4.30349 17.0125 4.05889 17.0242 3.86088C17.0358 3.49398 17.129 3.29014 17.4843 2.83006C17.6939 2.56216 17.8104 2.2535 17.8162 1.96813C17.8162 1.5721 17.9909 1.2052 18.3345 0.867418C19.0916 0.127788 20.2564 -0.163405 21.4561 0.0870206ZM49.4107 4.81599C49.3757 5.31102 49.4689 5.0606 49.5213 4.5248C49.5446 4.26273 49.5388 4.19284 49.498 4.29185C49.4689 4.36173 49.4281 4.60051 49.4107 4.81599ZM49.498 5.96912C49.498 6.05065 49.5155 6.05065 49.5854 5.99241C49.632 5.95165 49.6727 5.91088 49.6727 5.89923C49.6727 5.88758 49.632 5.87594 49.5854 5.87594C49.5388 5.87594 49.498 5.9167 49.498 5.96912ZM49.3815 6.37096C49.4223 6.42338 49.4689 6.44667 49.4805 6.43503C49.5213 6.39426 49.4398 6.28361 49.3699 6.28361C49.3349 6.28361 49.3349 6.31855 49.3815 6.37096ZM42.719 9.14312C42.2124 9.30619 41.8105 9.44596 41.8222 9.45761C41.8629 9.49837 43.9071 8.86357 43.9071 8.81116C43.9071 8.77039 43.8663 8.78786 42.719 9.14312ZM17.1814 12.1191C16.6223 12.2472 16.8495 12.3462 17.7172 12.3579C18.3112 12.3695 18.3462 12.3637 18.3287 12.2531C18.2996 12.0609 17.7172 11.991 17.1814 12.1191ZM19.6041 12.3346C19.5808 12.4278 19.6274 12.4452 20.0235 12.4802C20.2681 12.4977 20.6583 12.5675 20.8912 12.6316C21.3921 12.7714 21.4037 12.7714 21.3047 12.6549C21.1067 12.4161 20.5534 12.2414 19.9652 12.2298C19.6915 12.2239 19.6333 12.2414 19.6041 12.3346ZM11.2935 12.5151C11.2935 12.5443 11.3343 12.5734 11.3867 12.5734C11.4333 12.5734 11.573 12.6782 11.6837 12.8063C11.8002 12.9345 11.9167 13.0393 11.9399 13.0393C11.9632 13.0393 12.0098 12.9577 12.0448 12.8529C12.103 12.684 12.1147 12.6782 12.2137 12.7656C12.3476 12.8879 12.4 12.8879 12.4 12.783C12.4 12.684 12.2894 12.6433 11.7361 12.5443C11.509 12.5035 11.3168 12.4627 11.3051 12.4627C11.2993 12.4569 11.2935 12.4802 11.2935 12.5151ZM17.4027 12.818C17.4435 12.9286 17.5192 12.9636 17.8046 13.0102C17.9968 13.0393 18.1773 13.0859 18.2006 13.1092C18.288 13.2023 18.3404 13.1499 18.2821 13.0393C18.2472 12.9752 18.2355 12.8937 18.253 12.8646C18.2938 12.7947 17.9851 12.7248 17.5134 12.6957C17.3736 12.6898 17.362 12.7015 17.4027 12.818ZM22.4404 12.818C21.9803 12.8995 21.957 12.9985 22.3122 13.3305L22.5627 13.5576L22.6034 13.3188C22.6267 13.1791 22.7141 13.0102 22.8073 12.9112C22.982 12.7248 22.9587 12.719 22.4404 12.818ZM19.5692 13.016C19.4935 13.1907 19.5226 13.2606 19.6333 13.1732C19.674 13.1383 19.8837 13.08 20.0992 13.0335C20.3205 12.9927 20.4952 12.9403 20.4952 12.9112C20.4952 12.8879 20.303 12.8646 20.0701 12.8646C19.6624 12.8646 19.6391 12.8704 19.5692 13.016ZM20.6233 13.3072C19.9652 13.4819 19.9419 13.4994 20.0235 13.5809C20.0584 13.6158 20.0875 13.6916 20.0875 13.7498C20.0875 13.8837 20.1516 13.8837 20.3263 13.7498C20.5418 13.5809 20.6641 13.546 21.1649 13.511C21.5377 13.4819 21.6308 13.4586 21.6483 13.3771C21.6716 13.2722 21.3862 13.0859 21.2639 13.1266C21.229 13.1383 20.9378 13.2198 20.6233 13.3072ZM17.525 13.5285C17.525 13.6799 17.5541 13.7323 17.6532 13.7556C17.8104 13.8022 17.8162 13.7906 17.8337 13.5867C17.8453 13.4586 17.8162 13.4178 17.6997 13.3829C17.6182 13.3596 17.5483 13.3421 17.5367 13.3363C17.5309 13.3305 17.525 13.4178 17.525 13.5285ZM17.4668 14.2914C17.4668 14.3496 17.525 14.3788 17.6532 14.3788C17.8337 14.3729 17.8395 14.3729 17.7347 14.2914C17.5891 14.1808 17.4668 14.1808 17.4668 14.2914ZM17.4086 14.635C17.4086 14.6758 17.3911 14.7981 17.3736 14.8971C17.3328 15.1067 17.3969 15.13 17.6648 14.9903C17.7522 14.9437 17.8686 14.9029 17.9094 14.9029C17.9793 14.9029 17.9793 14.8738 17.9036 14.7282C17.8279 14.5826 17.7755 14.5535 17.6124 14.5535C17.4784 14.5535 17.4086 14.5826 17.4086 14.635ZM17.2164 15.6425C17.2047 15.6717 17.1756 15.759 17.1581 15.8406L17.1174 15.992L17.4843 15.8755C17.9036 15.7415 17.8978 15.7474 17.8453 15.6658C17.8046 15.596 17.2513 15.5785 17.2164 15.6425ZM19.7963 15.8289C19.7963 15.858 19.8371 15.893 19.8837 15.9163C19.971 15.9454 20.0002 15.8871 19.9303 15.8173C19.8779 15.759 19.7963 15.7648 19.7963 15.8289ZM16.9368 16.8888C16.8786 16.918 16.7854 17.0985 16.7213 17.2907C16.6107 17.6168 16.6049 17.6401 16.7039 17.6401C16.8495 17.6401 17.426 17.4654 17.4901 17.4013C17.525 17.3722 17.6066 17.3489 17.6764 17.3489C17.7755 17.3489 17.8104 17.3023 17.8337 17.1335C17.8745 16.883 17.8803 16.883 17.6299 16.8248C17.426 16.7724 17.0941 16.8015 16.9368 16.8888ZM19.7614 17.017C19.7439 17.0286 19.7148 17.1393 19.6973 17.2558C19.674 17.4246 19.6857 17.4654 19.7556 17.4654C19.808 17.4654 19.9478 17.5295 20.0642 17.611C20.4195 17.8498 21.1358 18.0187 21.2174 17.8789C21.2756 17.7915 20.7282 17.1509 20.5068 17.0403C20.3088 16.9471 19.8487 16.9296 19.7614 17.017ZM13.9142 17.413C13.9142 17.4479 13.9375 17.4538 13.9725 17.4363C14.0016 17.4188 14.0307 17.3722 14.0307 17.3431C14.0307 17.3082 14.0016 17.3023 13.9725 17.3198C13.9375 17.3373 13.9142 17.3839 13.9142 17.413ZM14.054 17.9488L13.8502 18.1352L13.9841 18.3332C14.2054 18.6651 14.2404 18.6651 14.8169 18.4089C15.3003 18.1876 15.3236 18.1701 15.1955 18.1119C15.114 18.0827 14.9509 18.042 14.8344 18.0187C14.7179 18.0012 14.5607 17.9371 14.485 17.8731C14.3044 17.7217 14.2928 17.7275 14.054 17.9488ZM16.698 18.141C16.4826 18.205 16.3544 18.2749 16.3311 18.3448C16.2904 18.4729 16.1622 18.5021 15.9002 18.4496C15.7429 18.4147 15.6032 18.4438 15.2421 18.5894C14.9916 18.6942 14.7878 18.7991 14.7878 18.8224C14.7878 18.8515 15.0324 18.8631 15.3294 18.8573C15.6264 18.8457 15.906 18.8631 15.9468 18.8864C16.0924 18.9796 17.0009 18.7175 17.3037 18.5021C17.3969 18.438 17.5076 18.4031 17.5541 18.4147C17.6066 18.438 17.6532 18.3856 17.6939 18.2691C17.7289 18.1701 17.758 18.0769 17.758 18.0711C17.758 18.007 16.9892 18.0594 16.698 18.141ZM19.6507 18.3914C19.674 18.4904 19.7264 18.5719 19.7672 18.5719C19.808 18.5719 19.9769 18.6593 20.1399 18.77C20.5068 19.0204 21.0193 19.2126 21.2698 19.2067C21.3746 19.2009 21.6716 19.23 21.9395 19.2708C22.2074 19.3116 22.4345 19.329 22.452 19.3116C22.5161 19.2475 21.1591 18.5137 20.9844 18.5137C20.9495 18.5137 20.7922 18.4555 20.635 18.3856C20.402 18.2808 19.7032 18.1526 19.6333 18.1992C19.6216 18.2109 19.6274 18.2924 19.6507 18.3914ZM13.4483 18.9039C13.4483 19.1834 13.4542 19.1893 13.6522 19.0611L13.7919 18.968L13.6638 18.7467C13.5182 18.4846 13.4483 18.537 13.4483 18.9039ZM23.5818 19.3582C23.4595 19.562 23.4595 19.5736 23.5527 19.6785C23.6925 19.8357 23.7391 19.8241 23.7857 19.6261C23.8148 19.4805 23.774 19.1543 23.7274 19.1543C23.7158 19.1543 23.6517 19.2475 23.5818 19.3582ZM16.2554 19.4805C15.8361 19.6261 15.7546 19.6668 15.9468 19.6435C16.2263 19.6028 16.931 19.3756 17.0999 19.2708C17.2746 19.1602 16.8844 19.2592 16.2554 19.4805ZM13.7395 19.4921C13.7395 19.5154 13.8327 19.5969 13.9434 19.6727C14.1705 19.8241 14.2462 19.8183 14.7354 19.5969L15.0499 19.4513L14.8461 19.4455C14.7354 19.4455 14.5083 19.3931 14.351 19.3407C14.0715 19.2417 14.054 19.2417 13.8968 19.3465C13.8094 19.4048 13.7395 19.4688 13.7395 19.4921ZM20.0293 19.4164C20.0293 19.4979 21.4678 20.1269 21.5202 20.0687C21.5318 20.057 21.2872 19.9289 20.9786 19.7833C20.0701 19.364 20.0293 19.3523 20.0293 19.4164ZM17.2047 20.2842L16.7446 20.8025L16.9776 20.7675C17.0999 20.7442 17.3445 20.7093 17.5076 20.6918C17.8512 20.6452 17.8337 20.686 17.8395 20.0221C17.8453 19.5562 17.857 19.5504 17.2047 20.2842ZM22.5568 19.8998L22.1841 19.9406L22.551 20.1386C22.9354 20.3482 23.081 20.354 23.3139 20.1735C23.4246 20.0861 23.4246 20.0861 23.2906 19.9406C23.1975 19.8415 23.1159 19.8066 23.0402 19.8299C22.982 19.8474 22.7665 19.8823 22.5568 19.8998ZM19.377 20.4647L19.4178 20.7501L19.8371 20.8782L20.2564 21.0063L19.8429 20.3832L19.4236 19.7658L19.3828 19.9755C19.3537 20.0861 19.3537 20.3075 19.377 20.4647ZM15.9992 19.9464C15.9118 19.9638 15.8128 20.0163 15.7779 20.0629C15.5915 20.2783 16.2088 20.2026 16.4884 19.9697L16.6223 19.8532L16.3894 19.8881C16.2613 19.8998 16.0865 19.9289 15.9992 19.9464ZM13.3318 20.1852C13.3318 20.4065 13.3668 20.4181 13.559 20.255L13.6988 20.1386L13.5648 19.9988C13.4017 19.8299 13.3318 19.8881 13.3318 20.1852ZM20.699 20.29C20.9378 20.4822 21.2406 20.587 21.328 20.4996C21.3746 20.4531 21.3746 20.4181 21.328 20.3715C21.2406 20.2842 20.8446 20.1502 20.6699 20.1444H20.5243L20.699 20.29ZM14.6131 20.2376C14.4442 20.2667 13.856 20.6278 13.856 20.7035C13.856 20.7151 13.9434 20.7442 14.0424 20.7734C14.1996 20.8141 14.3277 20.785 14.7179 20.6336C15.2828 20.4123 15.5041 20.2783 15.4517 20.1968C15.4168 20.1327 15.0149 20.156 14.6131 20.2376ZM23.4071 20.7326C23.4071 20.7501 23.4712 20.8258 23.5469 20.8957L23.6867 21.0296L23.7274 20.9015C23.7507 20.8316 23.7507 20.7151 23.7333 20.6336C23.6983 20.4938 23.6925 20.4938 23.5527 20.5928C23.477 20.6511 23.4071 20.7151 23.4071 20.7326ZM21.6017 20.6103C21.6017 20.6802 22.0094 20.9597 22.3996 21.1577C22.586 21.2509 22.8014 21.3092 22.9529 21.3092H23.2033L22.9412 21.0529C22.7665 20.884 22.5627 20.7559 22.3297 20.6802C21.957 20.5521 21.6017 20.5171 21.6017 20.6103ZM15.5449 20.9423L15.3993 21.0879L15.5449 21.0471C15.6264 21.0238 15.7546 20.9423 15.8361 20.8607L15.9817 20.7151L15.8361 20.7559C15.7546 20.7792 15.6264 20.8607 15.5449 20.9423ZM16.8961 21.0238C16.4534 21.0879 16.3952 21.1111 16.1389 21.3383C15.9875 21.478 15.8769 21.6004 15.8943 21.6178C15.9118 21.6295 16.1215 21.6178 16.3661 21.5887C16.6282 21.5596 17.0125 21.5596 17.2921 21.5887C17.5483 21.612 17.7696 21.6236 17.7813 21.6062C17.7871 21.5887 17.7813 21.4198 17.7696 21.2334L17.7463 20.8898L17.5658 20.9248C17.461 20.9423 17.1639 20.983 16.8961 21.0238ZM21.1416 21.181C21.1824 21.2451 21.2814 21.3325 21.3571 21.3674C21.6076 21.478 21.5726 21.3674 21.2872 21.1461C21.0951 20.9947 21.0368 21.0121 21.1416 21.181ZM19.3712 21.315C19.3479 21.4839 19.3479 21.6353 19.3595 21.6586C19.3712 21.6819 19.6158 21.7168 19.8953 21.7343C20.1807 21.7518 20.5476 21.8042 20.7107 21.8508C20.8796 21.8974 21.0193 21.9148 21.0193 21.8974C21.0193 21.8799 20.9087 21.7401 20.7689 21.5887C20.5476 21.3383 20.4777 21.3033 20.0002 21.1694C19.709 21.0937 19.4585 21.0238 19.4411 21.0238C19.4236 21.018 19.3887 21.1519 19.3712 21.315ZM13.4483 21.414C13.4483 21.7867 13.4949 21.7984 13.9899 21.5712C14.2345 21.4606 14.5141 21.3499 14.6131 21.3325C14.7063 21.3092 14.7878 21.2742 14.7878 21.2509C14.7878 21.216 14.1355 21.28 13.9841 21.3383C13.9434 21.3499 13.8269 21.315 13.7279 21.2509C13.5007 21.1111 13.4483 21.1403 13.4483 21.414ZM14.4791 21.5363C13.7803 21.7751 13.6813 21.845 14.0948 21.8158C14.4326 21.7925 14.9684 21.5712 15.0091 21.4373C15.0382 21.3441 15.0441 21.3441 14.4791 21.5363ZM22.7083 21.81C22.2715 21.6877 22.1608 21.6935 22.4578 21.8275C22.586 21.8915 22.8422 22.0313 23.0228 22.1478C23.2033 22.2643 23.3664 22.3575 23.378 22.3575C23.4479 22.3575 23.5236 22.0313 23.4945 21.8857C23.4595 21.7285 23.4595 21.7285 23.2499 21.8158C23.0577 21.8915 23.0053 21.8915 22.7083 21.81ZM21.8929 21.8275C21.8929 21.8566 21.9919 21.9614 22.1084 22.0663C22.3181 22.2352 22.4986 22.305 22.9412 22.3866C23.1392 22.4215 23.1392 22.4157 23.0286 22.3225C22.9179 22.2293 22.0269 21.7867 21.9337 21.7809C21.9104 21.7751 21.8929 21.7984 21.8929 21.8275ZM13.3843 22.5496C13.46 22.6253 13.4658 22.5205 13.4017 22.2992L13.361 22.1536L13.3435 22.3225C13.3318 22.4157 13.3493 22.5147 13.3843 22.5496ZM23.3664 23.0272C23.3314 23.1378 23.3256 23.231 23.3547 23.231C23.4188 23.231 23.5236 23.033 23.5236 22.9165C23.5236 22.7535 23.4304 22.8175 23.3664 23.0272ZM10.0472 28.3851C10.0297 28.4317 10.0414 28.4725 10.0705 28.4725C10.1054 28.4725 10.1287 28.4317 10.1287 28.3851C10.1287 28.3386 10.1171 28.2978 10.1054 28.2978C10.0938 28.2978 10.0705 28.3386 10.0472 28.3851ZM9.43569 29.9285C9.40657 30.0391 9.3658 30.2371 9.34833 30.3653C9.29009 30.7147 9.40657 30.4876 9.4881 30.0741C9.52887 29.8819 9.56964 29.6897 9.58711 29.6373C9.6104 29.5616 9.6104 29.5616 9.55217 29.6373C9.51722 29.6839 9.46481 29.8178 9.43569 29.9285ZM10.3151 33.1374C10.3326 33.184 10.3559 33.1549 10.3792 33.0792C10.4024 32.9802 10.3966 32.9569 10.35 33.0035C10.3209 33.0326 10.3034 33.0966 10.3151 33.1374ZM15.5274 35.5893C15.51 35.6941 15.51 35.8863 15.5333 36.0144C15.574 36.2357 15.5857 36.2474 15.7779 36.2357C16.1914 36.2066 16.535 36.1483 16.535 36.1018C16.535 36.0552 16.2263 35.7523 15.9526 35.5252C15.7255 35.3388 15.5624 35.368 15.5274 35.5893ZM18.9169 36.1949C18.7247 36.2823 18.5733 36.3871 18.5733 36.4279C18.5733 36.4687 18.6607 36.5269 18.7713 36.5677C18.8762 36.6026 19.0159 36.6841 19.0684 36.7424C19.1266 36.8064 19.2198 36.8589 19.2838 36.8589C19.476 36.8589 19.7614 36.2241 19.6507 36.0435C19.5925 35.9503 19.3421 36.0028 18.9169 36.1949ZM16.1273 52.9851C16.1273 53.0783 16.1855 53.2006 16.2613 53.2705L16.3952 53.3986L16.4593 53.1598C16.5175 52.9385 16.5117 52.9269 16.3661 52.8512C16.1797 52.7522 16.1273 52.7813 16.1273 52.9851ZM13.7337 60.9405C13.8036 61.9306 13.8968 62.4722 14.153 63.3807C14.252 63.7243 14.3685 64.3009 14.4093 64.662L14.4791 65.3084L14.4908 64.5222C14.5024 63.2235 14.3161 61.2259 13.9725 58.9022C13.9084 58.4828 13.856 58.1043 13.8502 58.0577C13.8443 58.0111 13.8036 58.4421 13.757 59.0186C13.6871 59.8514 13.6813 60.2475 13.7337 60.9405Z" fill="black"/>
<path d="M52.4019 0.984339C52.4019 1.00181 52.3553 1.15905 52.2912 1.33377C52.2097 1.57837 52.1573 1.64826 52.0758 1.63661C51.9768 1.62496 51.9768 1.62496 52.0758 1.6832C52.1748 1.74726 52.1689 1.76474 52.0001 1.9511C51.9069 2.06175 51.7729 2.25976 51.703 2.39371C51.5807 2.63249 51.5225 2.71402 51.3536 2.89456C51.2255 3.02269 51.109 3.27312 50.9867 3.64584C50.8761 3.9778 50.8062 4.01274 50.5732 3.86132L50.4334 3.76814L50.7188 3.39542C50.911 3.14499 51.0216 2.93533 51.0449 2.78391C51.0682 2.64996 51.1207 2.53349 51.1614 2.51601C51.208 2.49854 51.243 2.45195 51.243 2.41118C51.243 2.36459 51.3245 2.27724 51.4177 2.20735C51.5167 2.13746 51.6914 1.91033 51.8079 1.7065C51.9302 1.50266 52.0583 1.33377 52.0991 1.33377C52.1398 1.33377 52.1748 1.3163 52.1748 1.28718C52.1748 1.26388 52.2272 1.18235 52.2912 1.10082C52.3553 1.01928 52.4077 0.966867 52.4019 0.984339Z" fill="black"/>
<path d="M52.3603 3.37437C52.3953 3.71216 52.3545 3.81699 52.2089 3.76457C52.1157 3.72963 52.0749 3.49085 52.1623 3.49085C52.1914 3.49085 52.238 3.39184 52.2671 3.26954L52.3254 3.05406L52.3603 3.37437Z" fill="black"/>
<path d="M10.5918 29.3884C10.5918 29.4467 10.551 29.6971 10.5044 29.9475C10.3996 30.495 10.3938 30.8269 10.487 30.9725C10.586 31.1356 10.5044 31.2695 10.3123 31.2695C10.0851 31.2695 9.97447 31.1356 10.056 30.955C10.1608 30.7221 10.254 29.9242 10.2132 29.5981L10.1783 29.2894H10.3821C10.5452 29.2894 10.5918 29.3127 10.5918 29.3884Z" fill="black"/>
<path d="M3.90796 62.4265C4.1875 62.508 4.42628 62.6827 4.46123 62.8341C4.49035 62.939 4.43211 63.0962 4.25739 63.4223C4.12344 63.6728 4.01279 63.9407 4.01279 64.0164C4.01279 64.127 4.14674 64.2843 4.54276 64.6512C5.16009 65.2161 5.50952 65.6529 5.56193 65.915C5.58523 66.0198 5.66094 66.1712 5.73665 66.2469C5.91137 66.4216 5.91137 66.4799 5.70753 66.7769C5.56776 66.9865 5.54446 67.0623 5.57358 67.3127C5.6027 67.6272 5.48622 67.9009 5.32316 67.9009C5.21833 67.9009 5.21833 67.9009 5.32316 68.1164C5.36975 68.2154 5.41634 68.5182 5.43381 68.8385C5.45128 69.1414 5.4804 69.683 5.5037 70.0382C5.53282 70.5566 5.52699 70.7138 5.46293 70.7895C5.39304 70.8769 5.39304 70.8827 5.49787 70.8536C5.60853 70.8128 5.61435 70.8478 5.63182 71.7621C5.63765 72.2804 5.65512 72.8861 5.66094 73.1132C5.66676 73.3346 5.64929 73.5326 5.62017 73.55C5.59105 73.5675 5.53864 73.4452 5.49787 73.288C5.42216 73.0026 5.41051 72.8395 5.41051 72.0067C5.40469 71.7796 5.39304 71.4826 5.37557 71.337C5.34645 71.1098 5.3348 71.0924 5.27657 71.1914C5.21833 71.2962 5.18921 71.8262 5.17756 72.857C5.17756 73.1132 5.15426 73.1948 5.07855 73.2239C5.02614 73.2472 4.96208 73.2414 4.92713 73.2064C4.88054 73.1598 4.8689 72.5309 4.90384 71.6864C4.90384 71.5408 4.89219 71.3428 4.86307 71.2496L4.81648 71.0749L4.73495 71.337C4.68836 71.4826 4.64177 71.7679 4.63012 71.9776C4.61847 72.1873 4.601 72.3561 4.59517 72.3561C4.58935 72.3561 4.58353 72.5658 4.5777 72.8221C4.56606 73.2588 4.56023 73.288 4.43211 73.3054C4.32145 73.3229 4.30398 73.2996 4.30398 73.1016C4.30398 72.9793 4.28069 72.7871 4.24574 72.6765C4.21662 72.5716 4.2108 72.4668 4.2341 72.4493C4.28069 72.4086 4.29816 72.2921 4.35057 71.5117C4.37969 71.1098 4.40881 70.9642 4.46705 70.9759C4.51946 70.9817 4.51364 70.9468 4.44375 70.8419C4.3564 70.7022 4.3564 70.6672 4.44375 70.3527C4.51946 70.0848 4.53111 69.8868 4.50199 69.4267C4.46705 68.9084 4.47287 68.8327 4.55441 68.7978C4.64177 68.7686 4.64177 68.7512 4.56606 68.6405C4.51946 68.5706 4.4787 68.4542 4.4787 68.3784C4.4787 68.3027 4.4554 68.2561 4.42046 68.2794C4.38552 68.3027 4.37387 68.3668 4.39134 68.425C4.40881 68.4833 4.38552 68.6988 4.3331 68.9026C4.26321 69.153 4.23992 69.4792 4.24574 69.9392C4.25739 70.7895 4.25739 70.7837 4.14674 71.1623C4.09432 71.337 4.04773 71.7039 4.04773 71.9718C4.04191 72.362 4.02444 72.4668 3.94873 72.4959C3.87302 72.525 3.86137 72.6415 3.86719 73.2181C3.86719 73.5966 3.84972 73.9228 3.8206 73.9402C3.7216 73.9985 3.66918 73.8645 3.63424 73.4336C3.61094 73.1948 3.57018 72.9036 3.54106 72.7929C3.47117 72.5134 3.47117 72.5017 3.61677 72.5017C3.73907 72.5017 3.73907 72.4959 3.65171 72.4086C3.57018 72.3212 3.57018 72.2921 3.64006 72.1115C3.70995 71.9543 3.71577 71.7679 3.68665 71.2729C3.65171 70.6847 3.65753 70.6381 3.75072 70.6381C3.8439 70.6381 3.84972 70.6265 3.76819 70.5333C3.61677 70.3702 3.59929 70.2013 3.68665 69.9334C3.73324 69.7936 3.79148 69.5665 3.81478 69.4326C3.85554 69.1588 3.78566 68.5765 3.72742 68.7162C3.70995 68.7686 3.61094 68.9259 3.51194 69.0657C3.26734 69.4209 3.24404 69.5316 3.20327 70.6206C3.1858 71.139 3.15086 71.5757 3.12756 71.599C3.03438 71.6922 2.44035 71.2205 2.44035 71.0458C2.44035 70.9934 2.51023 70.7546 2.59177 70.5158C2.77813 69.9684 2.82472 69.3336 2.73154 68.5823C2.66165 68.0523 2.66748 67.9941 2.75484 67.93C2.84219 67.8659 2.84219 67.8543 2.76066 67.8194C2.70824 67.8019 2.61506 67.6738 2.55682 67.5398C2.41705 67.2253 2.4054 66.7361 2.53353 65.8509C2.65583 64.9715 2.62089 64.0979 2.44035 63.6204C2.22486 63.0554 2.22486 62.8691 2.42288 62.6652C2.51606 62.5721 2.6966 62.4672 2.82472 62.4323C3.0868 62.3624 3.67501 62.3566 3.90796 62.4265ZM4.30398 66.3925C4.30398 66.4158 4.33892 66.4449 4.37969 66.4624C4.43793 66.4857 4.4554 66.4508 4.43211 66.3459C4.41464 66.2411 4.39134 66.2236 4.3564 66.2819C4.32728 66.3226 4.30398 66.375 4.30398 66.3925ZM4.52529 67.2603C4.43211 67.2603 4.58353 67.4175 4.71165 67.4525C4.81648 67.4816 4.81648 67.4699 4.7233 67.2719C4.65924 67.138 4.61847 67.103 4.60682 67.1671C4.59517 67.2195 4.56023 67.2603 4.52529 67.2603ZM3.93125 67.2894C3.91378 67.336 3.91378 67.4583 3.93125 67.5515C3.97785 67.7786 3.91378 68.0348 3.81478 67.9999C3.76236 67.9766 3.74489 68.0115 3.76236 68.0989C3.78566 68.1979 3.83225 68.227 3.98949 68.2329C4.18168 68.2387 4.1875 68.2329 4.10597 68.1397C3.99532 68.0232 3.97202 67.3185 4.07685 67.3185C4.10597 67.3185 4.11762 67.2894 4.10015 67.2603C4.04773 67.1729 3.97202 67.1904 3.93125 67.2894ZM5.01449 67.8718C5.03196 68.029 5.0902 68.064 5.13679 67.9358C5.15426 67.8951 5.13679 67.8252 5.10185 67.7902C5.00867 67.6971 5.00284 67.7087 5.01449 67.8718ZM3.51776 67.8427C3.53523 67.8718 3.58182 67.9009 3.61094 67.9009C3.64589 67.9009 3.65171 67.8718 3.63424 67.8427C3.61677 67.8077 3.57018 67.7844 3.54106 67.7844C3.50611 67.7844 3.50029 67.8077 3.51776 67.8427ZM4.93878 68.8327C4.93296 68.8618 4.92713 68.9084 4.92131 68.9317C4.81066 69.3743 4.75824 69.9276 4.79319 70.3236C4.82231 70.7138 4.81066 70.8128 4.73495 70.8769C4.65341 70.9409 4.65341 70.9526 4.74077 71.005C4.8689 71.0749 5.01449 70.9468 4.95625 70.8186C4.93296 70.7662 4.92131 70.3527 4.93296 69.8985C4.95043 69.1006 4.95625 69.0715 5.06691 69.1239C5.18338 69.188 5.22998 69.1064 5.11932 69.0365C5.08438 69.0191 5.06108 68.9492 5.06108 68.8851C5.06108 68.7745 4.95043 68.7221 4.93878 68.8327ZM5.13097 70.2596C5.14262 70.807 5.16591 70.9293 5.2358 70.9293C5.31151 70.9293 5.31733 70.8361 5.28821 70.277C5.24162 69.5257 5.25327 69.5898 5.17174 69.5898C5.13097 69.5898 5.1135 69.7995 5.13097 70.2596Z" fill="black"/>
<path d="M15.3076 68.5225C15.6512 68.5807 16.187 68.7904 16.2394 68.8894C16.2685 68.9476 16.2802 69.0757 16.2627 69.1689C16.2452 69.2621 16.286 69.6115 16.3501 69.9435C16.4666 70.5084 16.4666 70.5725 16.385 70.852C16.2627 71.2538 15.9249 71.5683 15.6046 71.5683C15.4765 71.5683 15.3484 71.6033 15.3076 71.6557C15.2727 71.7023 15.1271 71.8013 14.9873 71.8828C14.6379 72.0925 14.4631 72.3196 14.3175 72.768C14.1778 73.1815 14.172 73.1815 13.7352 73.0709C13.6886 73.0592 13.7352 73.0825 13.8342 73.1291C13.939 73.1757 14.0264 73.234 14.0264 73.2631C14.0264 73.2864 13.9215 73.3912 13.7992 73.496C13.6711 73.595 13.5604 73.7348 13.5488 73.8047C13.5255 73.9561 13.3916 73.9852 13.2401 73.8746C13.147 73.8047 13.1353 73.7698 13.1877 73.6824C13.2227 73.6242 13.2751 73.4611 13.2984 73.3213C13.3217 73.1874 13.3741 73.0592 13.4207 73.0418C13.4731 73.0243 13.4906 72.9661 13.4731 72.902C13.444 72.8205 13.543 72.6807 13.8458 72.3604C14.2826 71.9003 14.335 71.7896 14.3059 71.3936L14.2884 71.1432L13.9914 71.4169C13.8225 71.5625 13.6711 71.7547 13.6478 71.8421C13.5954 72.0692 13.5139 72.1507 13.345 72.1507C13.2343 72.1507 13.211 72.174 13.2401 72.2614C13.2634 72.3429 13.2227 72.407 13.0829 72.506C12.7626 72.7215 12.5122 72.9835 12.5122 73.0942C12.5122 73.1641 12.4714 73.199 12.384 73.199C12.285 73.199 12.2734 73.2165 12.3258 73.2689C12.4248 73.3679 12.4131 73.4145 12.2617 73.4553C12.1918 73.4727 12.0695 73.5484 11.988 73.6183C11.8133 73.7756 11.6095 73.8979 11.5221 73.8979C11.394 73.8979 11.4813 73.7581 11.8133 73.4494C12.0754 73.199 12.1569 73.0942 12.1278 73.0068C12.1045 72.9253 12.1511 72.8496 12.2967 72.7273C12.4131 72.6341 12.5762 72.4128 12.6636 72.2381C12.7451 72.0634 12.8383 71.9178 12.8674 71.9178C12.8965 71.9178 12.9198 71.8828 12.9198 71.8362C12.9198 71.7896 13.0479 71.6615 13.211 71.545C13.3916 71.4111 13.5663 71.2189 13.6827 71.0151C13.7818 70.8404 13.8866 70.6773 13.9157 70.6598C13.9448 70.6423 13.9681 70.6016 13.9681 70.5725C13.9681 70.5433 13.9041 70.5608 13.8225 70.6132C13.7468 70.6598 13.6536 70.6889 13.6129 70.6656C13.5721 70.6365 13.5604 70.6598 13.5837 70.7355C13.6129 70.8229 13.543 70.9161 13.2809 71.149C13.0887 71.3121 12.9024 71.5217 12.8616 71.6207C12.8208 71.7198 12.7393 71.8129 12.681 71.8304C12.617 71.8537 12.582 71.8886 12.5995 71.9178C12.617 71.9469 12.5122 72.0808 12.3666 72.2148C12.2268 72.3487 12.0928 72.5118 12.0695 72.5759C12.0229 72.7215 11.9298 72.8205 11.6619 73.001C11.4173 73.1699 11.3649 73.1757 11.3357 73.0418C11.3241 72.9777 11.4056 72.8496 11.5337 72.7215C11.656 72.605 11.7551 72.4827 11.7551 72.4536C11.7551 72.4244 11.79 72.3837 11.8366 72.3662C11.8832 72.3487 11.9938 72.209 12.0812 72.0517C12.1685 71.9003 12.4015 71.6149 12.5995 71.4227C12.9431 71.0908 13.3275 70.5899 13.3275 70.4734C13.3275 70.4443 13.2401 70.4385 13.1411 70.4502C12.9548 70.4793 12.9548 70.4793 13.0829 70.5375C13.2168 70.5957 13.2052 70.6132 12.7742 71.0267C12.5238 71.2597 12.2967 71.4519 12.2676 71.4519C12.2326 71.4519 12.221 71.4926 12.2443 71.5392C12.2617 71.5975 12.186 71.6848 12.0171 71.8013C11.8715 71.9003 11.7551 72.0051 11.7551 72.0342C11.7551 72.1216 11.161 72.6749 11.0737 72.6749C11.0329 72.6749 10.9805 72.6341 10.963 72.5875C10.9281 72.4943 11.0154 72.3778 11.4639 71.9469C11.7609 71.6615 11.9764 71.3354 11.8715 71.3354C11.8308 71.3354 11.6793 71.4577 11.5279 71.6033C11.3823 71.7489 11.1901 71.9061 11.1028 71.9527C11.0154 71.9993 10.9339 72.0808 10.9164 72.1332C10.8873 72.2323 10.433 72.4186 10.3748 72.3662C10.3282 72.3196 10.7475 71.9178 10.8465 71.9178C10.8989 71.9178 10.9688 71.8537 11.0096 71.7722C11.0445 71.6965 11.0911 71.644 11.1144 71.6557C11.1435 71.6732 11.1785 71.644 11.196 71.5975C11.2134 71.545 11.295 71.481 11.3707 71.4519C11.4522 71.4227 11.5803 71.3063 11.6502 71.1956C11.7842 70.9859 11.8715 70.9335 11.8715 71.0558C11.8715 71.0966 11.9006 71.085 11.9414 71.0325C12.087 70.8462 13.2867 69.8794 13.409 69.8445C13.5139 69.8212 13.5313 69.7804 13.5139 69.6115C13.4964 69.4484 13.5197 69.3902 13.6711 69.2563C13.7992 69.1398 13.8516 69.0466 13.8516 68.9185C13.8516 68.6215 14.1254 68.4759 14.2535 68.6972C14.3059 68.7904 14.3117 68.7904 14.3175 68.703C14.3175 68.5283 14.8126 68.4409 15.3076 68.5225ZM14.3758 68.9068C14.3758 68.9185 14.434 68.9767 14.5039 69.0408L14.6379 69.1514L14.5272 69.0175C14.4224 68.8952 14.3758 68.8602 14.3758 68.9068ZM14.964 69.6115C14.9174 69.6698 14.9174 69.7047 14.9815 69.7571C15.0455 69.8095 15.0688 69.7921 15.0863 69.6756C15.1212 69.5125 15.0688 69.4892 14.964 69.6115ZM14.1836 69.8794C14.0671 69.8794 14.0671 69.8794 14.1778 69.9668C14.335 70.0832 14.4166 70.0716 14.4515 69.9318C14.4748 69.8445 14.4631 69.8212 14.3933 69.8445C14.3467 69.8619 14.2535 69.8794 14.1836 69.8794ZM13.6478 69.9435C13.5837 70.0425 13.6362 70.0483 13.7585 69.9609C13.8575 69.8911 13.8575 69.8794 13.7818 69.8794C13.7293 69.8794 13.6653 69.9085 13.6478 69.9435ZM14.533 70.6249C14.4224 70.7297 14.3525 70.753 14.2477 70.7239L14.1137 70.6831L14.2535 70.8287C14.3641 70.951 14.4107 70.9685 14.4923 70.9161C14.5505 70.8753 14.5796 70.8112 14.5622 70.7646C14.5447 70.7122 14.5971 70.6249 14.6961 70.5492C14.8009 70.4618 14.8417 70.3919 14.8126 70.3395C14.7776 70.2871 14.7543 70.2929 14.7194 70.3803C14.6961 70.4385 14.6146 70.555 14.533 70.6249ZM12.3141 70.9685C12.1394 71.1257 11.9938 71.2655 11.9938 71.2888C11.9822 71.4111 12.1802 71.3004 12.4889 71.0151C12.9256 70.6132 12.7684 70.5725 12.3141 70.9685Z" fill="black"/>
<path d="M2.61442 71.4253C2.65518 71.4719 2.75419 71.5476 2.83572 71.5884C3.09197 71.7107 3.10945 71.8038 2.93473 72.2173C2.84737 72.4212 2.76001 72.6774 2.74837 72.7764C2.71342 73.0152 2.54453 73.0327 2.40476 72.823C2.32322 72.7007 2.3174 72.6483 2.37564 72.5202C2.41641 72.4328 2.44553 72.1824 2.4397 71.9553C2.42805 71.3845 2.43388 71.3379 2.49212 71.3379C2.52124 71.3379 2.57365 71.3787 2.61442 71.4253Z" fill="black"/>
<path d="M10.9727 72.6817C10.9959 72.7167 11.0018 72.7458 10.9959 72.7516C10.9843 72.7574 10.9144 72.7924 10.8503 72.8331C10.6873 72.9263 10.6232 72.8622 10.7513 72.7225C10.8562 72.6002 10.9202 72.5885 10.9727 72.6817Z" fill="black"/>
<path d="M2.40461 72.9024C2.46285 72.9664 2.56768 73.0247 2.63756 73.0363C2.73074 73.048 2.76569 73.1004 2.77733 73.246C2.78898 73.3683 2.76569 73.444 2.71327 73.4673C2.64339 73.4906 2.63174 73.5721 2.65503 73.8458C2.68415 74.1662 2.67833 74.1895 2.56768 74.1895C2.38131 74.1895 2.26483 73.9681 2.26483 73.6245C2.26483 73.3858 2.24154 73.3159 2.17748 73.3159C2.10759 73.3159 2.09594 73.2751 2.12506 73.1528C2.21824 72.7393 2.24154 72.716 2.40461 72.9024Z" fill="black"/>
<path d="M11.3144 73.1193C11.3377 73.1717 11.3436 73.2183 11.3377 73.2241C11.3261 73.2299 11.262 73.2649 11.1921 73.2998C11.0349 73.393 11 73.393 11 73.3173C11 73.2474 11.1863 73.0261 11.2387 73.0261C11.262 73.0261 11.297 73.0669 11.3144 73.1193Z" fill="black"/>
<path d="M5.15266 73.4104C5.13519 73.4628 5.11772 73.5676 5.11772 73.6492C5.11772 73.8181 4.98959 73.8064 4.97212 73.6317C4.96047 73.5735 4.93718 73.4745 4.91388 73.4162C4.87894 73.3347 4.90223 73.3172 5.03036 73.3172C5.15266 73.3172 5.18178 73.3405 5.15266 73.4104Z" fill="black"/>
<path d="M4.58203 73.6383C4.57621 73.8189 4.55291 73.9004 4.49467 73.9004C4.45391 73.9004 4.41896 73.8422 4.41896 73.7664C4.41896 73.6966 4.39567 73.5976 4.36072 73.551C4.32578 73.4985 4.33161 73.452 4.3782 73.4228C4.52962 73.3238 4.58203 73.3821 4.58203 73.6383Z" fill="black"/>
<path d="M13.1491 73.9048C13.2249 73.963 13.3355 74.0154 13.3938 74.0154C13.5219 74.0154 13.5277 74.0212 13.4345 74.2192C13.3938 74.3182 13.3355 74.359 13.2714 74.3357C13.219 74.3182 13.1259 74.3532 13.0676 74.4231C12.9395 74.5629 12.8114 74.5687 12.6541 74.4522C12.5493 74.3648 12.5493 74.359 12.7124 74.2251C12.8055 74.1494 12.8638 74.062 12.8463 74.0271C12.823 73.9979 12.8521 73.9339 12.9104 73.8815C12.9977 73.7999 13.021 73.7999 13.1491 73.9048Z" fill="black"/>
</g>
</svg>
