<svg width="127" height="53" viewBox="0 0 127 53" fill="none" xmlns="http://www.w3.org/2000/svg">
<g opacity="0.5">
<path d="M13.0814 12.6462C12.6544 13.162 12.5217 13.5709 12.4923 14.465C12.4846 14.6603 12.4652 14.927 12.4524 15.0593C12.419 15.3661 12.4696 15.6843 12.5928 15.9364C12.6446 16.0447 12.8165 16.3276 12.9709 16.5688C13.1253 16.8058 13.2823 17.0826 13.3236 17.1807C13.4389 17.4707 13.483 17.4763 13.6073 17.2123C13.65 17.1173 13.8324 16.8147 14.0111 16.5416C14.3601 15.9996 14.4437 15.8285 14.4944 15.555C14.5354 15.3384 14.5315 15.2105 14.4796 14.9489C14.4571 14.8402 14.3953 14.4781 14.3445 14.1431C14.2933 13.7914 14.2081 13.3982 14.1488 13.2123C14.0283 12.8511 14.027 12.6098 14.144 12.2725C14.2224 12.0343 14.3589 11.8897 14.669 11.7154C15.0041 11.524 15.2003 11.4541 15.6041 11.3792C16.0771 11.2928 16.5847 11.2898 17.0978 11.3707C17.5856 11.4478 17.674 11.4675 18.3964 11.6692C19.2094 11.8969 19.4364 11.9231 19.7771 11.8365C19.9443 11.7922 19.9737 11.7917 19.9513 11.8403C19.9391 11.8699 19.8802 12.0071 19.8192 12.1422C19.6626 12.4947 19.4494 13.1481 19.3687 13.5206C19.1281 14.6149 19.1626 15.5711 19.5216 17.6745L19.597 18.1119L19.2065 18.5391C18.1899 19.6443 17.5568 20.5763 17.1389 21.5851C16.7878 22.4271 16.5871 23.5229 16.7003 23.9598C16.8618 24.5555 17.1369 24.8684 17.6766 25.058C18.0097 25.175 18.3862 25.2431 18.4212 25.1901C18.4417 25.1605 18.4046 25.0582 18.299 24.8562C18.012 24.2917 17.8835 23.811 17.88 23.2614C17.8653 21.9189 18.3173 20.6495 19.232 19.4534C19.5575 19.0292 19.704 18.8572 19.7253 18.8779C19.7487 18.9007 20.002 20.4999 20.0778 21.1157C20.2196 22.2466 20.2224 23.4864 20.0842 24.2541C19.9889 24.782 19.798 25.2337 19.5095 25.6028C19.4209 25.7194 19.3346 25.8465 19.3163 25.8866C19.298 25.9268 19.2676 26.1538 19.2479 26.3911C19.2133 26.7671 19.2183 26.8258 19.2758 26.8816C19.3609 26.9644 19.6188 26.9586 19.8525 26.8672C20.1968 26.7344 20.3921 26.4526 20.6317 25.738C20.7827 25.289 20.8636 24.9208 20.9357 24.3785C21.1268 22.9093 21.0621 22.1843 20.4873 19.5071C20.2896 18.5826 20.2553 18.3753 20.2946 18.3349C20.3194 18.3094 20.4833 18.1791 20.6576 18.0466C21.8719 17.1253 22.8503 16.7318 23.9746 16.7159C24.3983 16.7099 24.5034 16.721 24.7478 16.7973C25.7046 17.1027 26.3573 17.7166 26.7784 18.7177C26.9673 19.1661 27.0385 19.4588 27.1139 20.0452C27.1755 20.5478 27.2109 21.5669 27.1791 21.9954L27.1634 22.2159L26.857 22.6545C26.0221 23.8579 25.043 25.0906 23.5608 26.8066C22.8218 27.6604 22.8032 27.6837 21.9818 28.6436C20.4587 30.4315 18.4859 32.916 17.6426 34.1069C16.898 35.1664 16.2881 36.3981 16.0536 37.3245C15.8648 38.0719 15.8811 39.0808 16.0986 40.0701C16.3317 41.1283 16.6463 41.7197 17.3333 42.3835C17.9246 42.9584 18.718 43.4318 19.394 43.609L19.6656 43.6786L19.8098 44.0878C20.1573 45.0794 20.579 45.8204 21.3307 46.7622C21.5912 47.0858 22.4399 47.911 22.726 48.1146C23.6311 48.7669 24.4714 49.1453 25.6883 49.4513C27.1094 49.8068 27.8373 49.7986 29.2059 49.4038C29.6656 49.2714 29.7911 49.2487 30.1934 49.2095C30.4762 49.1824 30.5554 49.1435 30.6017 49.0023C30.6944 48.7325 30.2616 48.0924 29.678 47.6244C29.1307 47.1915 28.7743 47.0644 28.6047 47.2388C28.5406 47.3047 28.533 47.3594 28.5394 47.6635C28.5494 48.0746 28.517 48.1589 28.2828 48.3657C28.1357 48.4958 28.1024 48.513 27.9098 48.5451C26.899 48.7167 25.6598 48.6209 24.5179 48.2803C23.2159 47.8916 22.0675 47.0854 20.9942 45.8061C20.6186 45.3582 20.1596 44.4941 19.9533 43.8508L19.9204 43.7485L20.2804 43.8336C20.4803 43.879 20.8065 43.9479 21.0063 43.9849C21.2608 44.0338 21.3788 44.0699 21.4024 44.1094C21.4218 44.1406 21.5295 44.3447 21.6418 44.5697C21.9417 45.155 22.2026 45.508 22.5999 45.8611C23.5112 46.6644 24.3247 47.0746 25.2242 47.1836C25.6592 47.2383 26.2428 47.1147 26.5378 46.905C26.7206 46.7765 26.9164 46.5283 26.948 46.3894C26.9677 46.2968 26.9589 46.2675 26.8865 46.1972C26.7781 46.0918 26.3896 45.9168 26.1793 45.882C26.0909 45.8665 25.753 45.8524 25.4299 45.8527C24.7648 45.8474 24.5862 45.8268 24.2321 45.7143C23.9055 45.6119 23.6225 45.4775 23.2817 45.2662C23.0553 45.1246 22.9533 45.0379 22.6513 44.7443C22.4534 44.5478 22.2575 44.3407 22.2168 44.2805L22.1418 44.1703L22.352 44.1967C22.4675 44.2098 22.7175 44.2335 22.9087 44.2497C23.1775 44.2711 23.2634 44.2636 23.2943 44.2233C23.3602 44.1343 23.284 44.0892 23.0299 44.0697C22.8934 44.0611 22.6077 44.0358 22.3914 44.0158C21.9313 43.9698 21.9843 44.0131 21.6717 43.4154C21.3029 42.7052 21.0382 41.7816 20.904 40.745C20.8688 40.4833 20.8382 40.2466 20.8358 40.2236C20.8244 40.1587 20.7381 40.1369 20.6884 40.1879C20.6636 40.2134 20.652 40.2849 20.6614 40.3561C20.6666 40.4232 20.6978 40.7018 20.7289 40.9762C20.8514 42.0759 21.0349 43.0362 21.2339 43.6146C21.2777 43.7398 21.3106 43.8464 21.3065 43.8506C21.2734 43.8847 20.1313 43.5315 19.899 43.4173C19.7996 43.3662 19.7931 43.3516 19.74 43.1552C19.5717 42.5282 19.4657 41.7052 19.4416 40.8831C19.3978 39.4173 19.5311 38.4503 19.9538 37.1814C20.4772 35.6174 21.3589 34.0168 22.9691 31.7136C24.5834 29.3978 25.4432 28.0367 26.2731 26.4851C26.8904 25.3268 27.298 24.1797 27.5484 22.8881L27.6246 22.4947L27.8755 22.1303C28.0111 21.9312 28.2679 21.5436 28.4445 21.2726C29.0234 20.3707 29.5171 19.2246 29.7365 18.2669L29.7958 18.0143L29.8659 18.07C29.9762 18.1566 30.1865 18.4893 30.207 18.6086C30.2437 18.8304 30.1612 19.0813 29.9332 19.4264C29.7689 19.6763 29.7469 19.7542 29.7626 19.9764C29.7781 20.1818 29.8905 20.4152 30.0522 20.5723C30.1352 20.6572 30.207 20.6939 30.3903 20.748C30.6958 20.8381 31.0043 20.8442 31.6789 20.776L32.2403 20.7177L32.5603 20.3503C32.996 19.8553 33.1542 19.616 33.2467 19.3336C33.303 19.1608 33.3162 19.0536 33.2973 18.907C33.2643 18.6515 33.2101 18.5243 32.9955 18.1833C32.7059 17.7279 32.5326 17.6422 32.1695 17.7774C31.654 17.9672 31.2793 18.0291 31.0225 17.9656C30.8456 17.9219 30.6142 17.7301 30.2265 17.3076L29.9366 16.9886L29.9053 16.5526C29.8498 15.7373 29.7143 15.0553 29.4723 14.4062C29.1255 13.4691 28.7227 12.8748 27.7606 11.8897C27.2561 11.3745 26.772 10.9659 26.3063 10.6703C26.0925 10.5328 26.0691 10.51 26.0385 10.4224C26.0122 10.343 25.9589 10.2871 25.7635 10.1178C25.4769 9.87641 25.3229 9.66878 25.0066 9.10889C24.6302 8.44914 24.2624 7.50815 24.2341 7.14141C24.2113 6.8627 24.2538 6.44881 24.3264 6.24638C24.4152 5.99757 24.6493 5.63343 24.7658 5.56465C25.003 5.42704 25.3517 5.45989 25.5263 5.63785C25.6177 5.72678 25.7513 6.12141 25.8017 6.427C25.8202 6.54422 25.9025 6.88083 25.9864 7.17336C26.0723 7.46377 26.17 7.84422 26.206 8.01994C26.242 8.19146 26.2959 8.44665 26.323 8.58054C26.4219 9.04489 26.8822 9.70765 27.5756 10.3776C28.0436 10.8326 28.3329 10.9691 28.7985 10.9583C29.1319 10.9473 29.2847 10.9221 29.9307 10.7598C30.2401 10.6841 30.6041 10.6077 30.7444 10.591C30.8848 10.5744 31.002 10.5559 31.0082 10.5495C31.0144 10.5432 31.0314 10.4066 31.0458 10.2427C31.0624 10.0809 31.1285 9.71077 31.1958 9.4245C31.4468 8.32374 31.4404 8.02382 31.1485 7.55379C31.0368 7.37075 30.4371 6.79177 30.2232 6.65422C29.8867 6.44288 29.0897 6.01563 28.8746 5.93474C28.5286 5.80115 28.3142 5.76641 27.817 5.76712C27.0596 5.7673 26.8826 5.71525 26.2792 5.32304C25.9256 5.09515 25.7925 5.0236 25.5838 4.95731C25.1939 4.83063 25.0199 4.83518 24.7532 4.96901C24.6345 5.03152 24.4889 5.11749 24.4308 5.16447C24.2399 5.31401 23.9681 5.82764 23.8525 6.25725C23.7709 6.571 23.7406 7.25326 23.7935 7.58609C23.8301 7.79956 24.0465 8.41541 24.2349 8.83444C24.3172 9.0179 24.4474 9.32237 24.5235 9.51221L24.6625 9.85012L24.4623 9.7879C23.9123 9.61313 23.15 9.55883 22.6563 9.6581C22.2714 9.73905 21.7961 9.95554 21.2909 10.2836C21.1849 10.3502 20.9923 10.5312 20.6863 10.846C20.4402 11.0991 20.2311 11.3014 20.2247 11.2952C20.2162 11.2869 20.1538 11.3256 20.0874 11.3768C19.826 11.5861 19.7612 11.5975 19.2523 11.5124C18.7139 11.4235 18.1397 11.3162 17.6136 11.2061C17.1801 11.1115 16.3333 11.0164 16.0692 11.0327C15.7883 11.0493 15.3007 11.1338 15.0961 11.2038C14.8894 11.2759 14.3707 11.5371 14.0524 11.7325C13.8111 11.8786 13.3784 12.2854 13.0814 12.6462ZM21.6281 10.988C22.0476 10.6842 22.5333 10.4612 22.8893 10.4101C23.5614 10.3146 24.346 10.4609 25.161 10.8312C25.7248 11.0897 26.1208 11.3506 26.7004 11.8396C27.4499 12.4731 28.2275 13.465 28.5718 14.2259C28.8922 14.9305 29.0697 15.7651 29.1018 16.6982C29.1366 17.8285 28.7901 19.1467 28.058 20.6445C27.9479 20.8684 27.8377 21.0882 27.8111 21.1326C27.766 21.2088 27.7659 21.2046 27.7783 21.0386C27.7874 20.9441 27.7875 20.5056 27.7813 20.0652C27.7698 19.3961 27.7544 19.1949 27.6758 18.8288C27.5681 18.3353 27.437 17.9595 27.2344 17.5805C27.0233 17.1891 26.9014 17.025 26.5632 16.6962C26.1208 16.2661 25.6912 16.0057 25.063 15.7922C24.8016 15.7035 24.7007 15.6882 24.4217 15.69C23.3562 15.705 22.3333 16.0677 21.2299 16.8238C20.8621 17.0745 20.3474 17.4719 20.2192 17.6038C20.1799 17.6442 20.1425 17.6699 20.1361 17.6637C20.1 17.6286 19.9575 16.4473 19.9031 15.7159C19.8519 15.0621 19.9221 14.2324 20.0749 13.6155C20.1582 13.2703 20.4122 12.5366 20.5303 12.2874C20.7464 11.8354 21.2003 11.2961 21.6281 10.988ZM26.9933 23.3994C26.9884 23.4939 26.8272 24.1151 26.7068 24.507C26.4679 25.2677 26.2059 25.8819 25.6403 26.9871C24.8257 28.5783 23.7755 30.2799 22.541 32.005C22.0678 32.6662 21.3886 33.7436 20.9404 34.5451C20.1567 35.9471 19.6465 37.2634 19.41 38.494C19.2751 39.1945 19.2401 39.6901 19.252 40.6823C19.2666 41.5695 19.3277 42.1834 19.4783 42.8966C19.521 43.0995 19.5335 43.2357 19.5123 43.2234C19.2166 43.0849 18.5474 42.637 18.161 42.3152C17.1273 41.4591 16.6318 40.394 16.5795 38.9157C16.5538 38.1335 16.6416 37.5113 16.8866 36.74C17.3529 35.29 17.8955 34.3404 19.5138 32.1609C20.7409 30.5114 21.4033 29.728 23.7543 27.1395C25.2066 25.5393 26.0984 24.5071 26.6877 23.7436C26.9555 23.3957 26.9927 23.3533 26.9933 23.3994Z" fill="black"/>
<path d="M20.927 37.3211C20.8645 37.5003 20.8662 37.6261 20.9292 37.7784C20.9855 37.9035 21.1772 38.1022 21.2847 38.1405C21.3796 38.1748 21.6347 38.1167 21.8556 38.0087C22.0181 37.9309 22.0388 37.9096 22.187 37.7103C22.4012 37.4262 22.4312 37.3187 22.3613 37.1267C22.1693 36.6007 21.5749 36.5525 21.1158 37.0247C21.0166 37.1268 20.9673 37.2072 20.927 37.3211Z" fill="black"/>
<path d="M22.386 36.3314C22.2395 36.6524 22.3039 37.0585 22.5474 37.3655C22.729 37.5958 22.9288 37.6329 23.2836 37.4978C23.3837 37.4586 23.5319 37.4041 23.6154 37.3736L23.7698 37.3168L23.8898 37.0445C24.1032 36.5569 24.1239 36.3867 23.9954 36.2038C23.9141 36.0875 23.6748 35.9293 23.4893 35.869C23.0719 35.728 22.5651 35.9429 22.386 36.3314Z" fill="black"/>
<path d="M21.4259 38.4507C21.1607 38.8383 21.2248 39.3682 21.5822 39.7156C21.7204 39.85 21.8741 39.8835 22.0725 39.8241C22.2668 39.7647 22.7226 39.5044 22.7427 39.4412C22.7506 39.4117 22.8283 39.2638 22.9163 39.1094C23.1784 38.6484 23.1788 38.5288 22.9001 38.2579C22.6321 37.9931 22.31 37.92 21.953 38.0404C21.8528 38.0754 21.5451 38.2728 21.5122 38.3236C21.5081 38.332 21.4691 38.3892 21.4259 38.4507Z" fill="black"/>
<path d="M23.4293 38.1391C23.2257 38.4294 23.1693 38.7386 23.2852 38.93C23.3326 39.0132 23.3772 39.0524 23.4977 39.1158C23.7133 39.2302 24.0006 39.2241 24.3911 39.099L24.6898 39.0004L24.7903 38.6885C24.9067 38.3176 24.9226 38.1013 24.842 37.8947C24.6742 37.4502 24.2938 37.3989 23.8015 37.752C23.6396 37.8718 23.5527 37.9611 23.4293 38.1391Z" fill="black"/>
</g>
<g opacity="0.5">
<path d="M112.705 10.979C113.178 11.4692 113.344 11.8735 113.442 12.7778C113.465 12.9751 113.505 13.244 113.528 13.3772C113.586 13.6857 113.559 14.0122 113.453 14.2772C113.409 14.3911 113.257 14.6911 113.119 14.9475C112.98 15.1997 112.842 15.4924 112.808 15.5949C112.713 15.8978 112.669 15.9069 112.523 15.6488C112.472 15.5558 112.264 15.263 112.062 14.9998C111.666 14.4771 111.568 14.3101 111.496 14.0367C111.438 13.8202 111.432 13.6902 111.464 13.4211C111.479 13.3091 111.514 12.9373 111.54 12.5937C111.564 12.2332 111.621 11.828 111.666 11.635C111.761 11.2595 111.744 11.0148 111.599 10.6818C111.501 10.4463 111.352 10.3102 111.024 10.1573C110.67 9.98898 110.465 9.9332 110.05 9.88827C109.564 9.83703 109.049 9.87304 108.535 9.99448C108.046 10.1101 107.958 10.1369 107.241 10.3969C106.435 10.6903 106.206 10.7342 105.854 10.6726C105.681 10.6405 105.652 10.6423 105.678 10.6899C105.693 10.7189 105.763 10.8535 105.835 10.9858C106.021 11.3312 106.287 11.9772 106.398 12.3487C106.726 13.4397 106.764 14.4118 106.562 16.5719L106.519 17.0211L106.948 17.4243C108.064 18.4667 108.777 19.363 109.278 20.3536C109.699 21.1803 109.987 22.2759 109.905 22.7275C109.787 23.3439 109.533 23.6822 109 23.916C108.671 24.0602 108.295 24.1582 108.255 24.1072C108.232 24.0787 108.262 23.9721 108.353 23.7592C108.601 23.1648 108.694 22.6676 108.656 22.1101C108.567 20.7478 108.012 19.4957 106.992 18.3532C106.63 17.9482 106.468 17.7851 106.448 17.8077C106.426 17.8325 106.292 19.4734 106.263 20.1035C106.206 21.261 106.298 22.5182 106.497 23.286C106.634 23.8139 106.863 24.2571 107.184 24.6092C107.282 24.7206 107.38 24.8428 107.401 24.8821C107.423 24.9214 107.471 25.1492 107.509 25.3883C107.573 25.7669 107.573 25.8268 107.519 25.8878C107.439 25.9782 107.177 25.9922 106.933 25.9175C106.574 25.8093 106.354 25.5386 106.056 24.8325C105.869 24.3889 105.758 24.0218 105.644 23.4775C105.337 22.0027 105.347 21.2626 105.724 18.5041C105.853 17.5516 105.872 17.3388 105.829 17.3009C105.802 17.2769 105.626 17.1574 105.439 17.0365C104.137 16.1957 103.115 15.8719 101.974 15.9422C101.544 15.9687 101.438 15.9881 101.196 16.0842C100.249 16.4674 99.6348 17.1399 99.2848 18.1872C99.1278 18.6564 99.078 18.9586 99.0466 19.5589C99.0228 20.0732 99.0653 21.1092 99.1304 21.5411L99.1633 21.7635L99.5077 22.1846C100.447 23.3405 101.534 24.5151 103.169 26.141C103.983 26.9498 104.004 26.9721 104.911 27.8821C106.592 29.5778 108.783 31.9451 109.73 33.0877C110.566 34.1047 111.279 35.3066 111.588 36.2278C111.837 36.9711 111.898 37.9952 111.754 39.0149C111.599 40.1057 111.325 40.7295 110.679 41.4553C110.124 42.0836 109.356 42.6245 108.684 42.8561L108.414 42.9476L108.3 43.3735C108.023 44.4056 107.653 45.1892 106.963 46.2019C106.724 46.55 105.927 47.4518 105.652 47.6803C104.785 48.4112 103.962 48.8594 102.752 49.2631C101.338 49.7327 100.6 49.7804 99.1818 49.4852C98.7055 49.3864 98.5765 49.373 98.1656 49.3641C97.8768 49.3584 97.7935 49.3251 97.7358 49.1855C97.6211 48.919 98.0107 48.2368 98.5663 47.7174C99.088 47.2365 99.4395 47.0802 99.6249 47.244C99.6949 47.306 99.7069 47.3608 99.7238 47.6696C99.7452 48.0871 99.7845 48.1702 100.038 48.3619C100.197 48.4824 100.232 48.4973 100.43 48.5151C101.468 48.6113 102.717 48.419 103.848 47.9859C105.139 47.4918 106.241 46.5862 107.231 45.2067C107.577 44.7237 107.976 43.8123 108.136 43.1443L108.161 43.038L107.803 43.152C107.604 43.2134 107.278 43.3082 107.079 43.3611C106.824 43.4302 106.707 43.4759 106.687 43.5178C106.669 43.5509 106.576 43.7661 106.479 44.0029C106.22 44.6193 105.983 44.9972 105.607 45.3858C104.745 46.2702 103.952 46.7487 103.048 46.9283C102.611 47.0172 102.01 46.9367 101.695 46.7467C101.5 46.6306 101.282 46.3939 101.239 46.2555C101.212 46.1632 101.219 46.1328 101.287 46.056C101.389 45.9407 101.769 45.7335 101.98 45.6821C102.068 45.6595 102.41 45.6192 102.737 45.5948C103.411 45.5383 103.591 45.5037 103.941 45.3624C104.264 45.2335 104.541 45.0754 104.87 44.835C105.089 44.6741 105.185 44.5784 105.469 44.2574C105.655 44.043 105.837 43.818 105.874 43.7538L105.942 43.6364L105.731 43.6793C105.614 43.7014 105.363 43.7447 105.17 43.7758C104.899 43.8182 104.812 43.8172 104.777 43.7787C104.704 43.6935 104.777 43.6419 105.033 43.6026C105.171 43.5834 105.459 43.5358 105.677 43.4989C106.14 43.4169 106.089 43.4649 106.36 42.8349C106.679 42.0865 106.877 41.1298 106.933 40.0685C106.949 39.8004 106.962 39.5581 106.962 39.5346C106.969 39.4679 107.055 39.4391 107.109 39.4871C107.136 39.5111 107.153 39.5826 107.149 39.6556C107.149 39.7239 107.139 40.0088 107.129 40.2894C107.089 41.4137 106.977 42.4015 106.819 43.0032C106.785 43.1335 106.759 43.2441 106.764 43.2481C106.8 43.28 107.931 42.8342 108.158 42.7006C108.254 42.6412 108.26 42.6259 108.299 42.4226C108.421 41.774 108.465 40.9314 108.427 40.0961C108.358 38.6066 108.149 37.6365 107.623 36.3824C106.972 34.8369 105.955 33.2819 104.146 31.0706C102.331 28.8467 101.355 27.5328 100.394 26.0235C99.6791 24.8965 99.1777 23.7649 98.8246 22.4746L98.7171 22.0816L98.4348 21.7315C98.2819 21.54 97.9918 21.1668 97.7919 20.9056C97.1357 20.0357 96.5471 18.9116 96.2511 17.9575L96.1715 17.706L96.1048 17.7678C95.9996 17.8641 95.8119 18.2175 95.8002 18.3401C95.7801 18.5678 95.883 18.8158 96.1407 19.1482C96.3265 19.3889 96.3548 19.4663 96.3559 19.6927C96.356 19.9021 96.26 20.1474 96.1082 20.3192C96.0305 20.4116 95.9605 20.4543 95.7788 20.5232C95.476 20.6381 95.1638 20.668 94.4746 20.6506L93.9009 20.6347L93.5482 20.2868C93.0684 19.8184 92.8897 19.588 92.7742 19.3087C92.7038 19.1378 92.6822 19.0302 92.6901 18.8801C92.7038 18.6185 92.7491 18.4854 92.9404 18.1231C93.1991 17.6392 93.3681 17.539 93.7467 17.6482C94.284 17.801 94.6686 17.835 94.9241 17.7508C95.1 17.693 95.3199 17.4807 95.6806 17.0225L95.9499 16.6768L95.9481 16.2324C95.9418 15.4016 96.0267 14.6997 96.2222 14.023C96.5018 13.0463 96.8645 12.4128 97.7643 11.3401C98.2362 10.7789 98.6956 10.3275 99.145 9.99203C99.3513 9.83614 99.3732 9.81128 99.3975 9.72003C99.4181 9.63756 99.4678 9.5768 99.6529 9.39016C99.9249 9.12336 100.065 8.90103 100.343 8.30907C100.674 7.61125 100.974 6.62894 100.975 6.25495C100.976 5.97062 100.902 5.55425 100.812 5.3546C100.703 5.10917 100.438 4.75796 100.315 4.69719C100.063 4.5759 99.7124 4.636 99.5491 4.82985C99.4632 4.92703 99.3582 5.33739 99.3305 5.6511C99.3208 5.77137 99.2632 6.11897 99.2006 6.422C99.1359 6.72303 99.0661 7.11626 99.043 7.29719C99.0197 7.47386 98.9846 7.73673 98.9675 7.87455C98.903 8.35294 98.4871 9.06027 97.8356 9.7928C97.3961 10.29 97.1133 10.4506 96.6404 10.4755C96.3015 10.49 96.1447 10.4762 95.4772 10.3613C95.1577 10.3083 94.7828 10.2588 94.6393 10.2527C94.4957 10.2466 94.3754 10.2369 94.3687 10.2309C94.3619 10.2249 94.3342 10.0877 94.3069 9.9227C94.2777 9.75996 94.1822 9.38974 94.092 9.10467C93.753 8.00793 93.7363 7.70337 93.9962 7.20439C94.0953 7.01023 94.659 6.37714 94.8652 6.22125C95.1902 5.98111 95.9653 5.4867 96.1772 5.38816C96.5177 5.22613 96.7325 5.17443 97.2366 5.13694C98.0045 5.07892 98.1799 5.01255 98.7616 4.56853C99.1025 4.31031 99.2321 4.22753 99.4385 4.14429C99.8241 3.98589 100.001 3.97713 100.282 4.09232C100.407 4.14658 100.561 4.22255 100.623 4.26571C100.828 4.40266 101.144 4.90252 101.294 5.3292C101.401 5.64103 101.484 6.33042 101.456 6.67193C101.435 6.89118 101.263 7.53219 101.104 7.97151C101.035 8.16384 100.926 8.48253 100.864 8.68085L100.749 9.03413L100.947 8.95566C101.491 8.7362 102.26 8.62257 102.768 8.68527C103.164 8.73777 103.663 8.92073 104.2 9.21456C104.313 9.27387 104.522 9.44262 104.856 9.73827C105.125 9.97599 105.353 10.165 105.359 10.1582C105.367 10.1492 105.433 10.1835 105.504 10.2304C105.785 10.4225 105.852 10.4291 106.362 10.3037C106.901 10.1722 107.474 10.0192 107.999 9.86722C108.432 9.738 109.283 9.57655 109.552 9.57279C109.838 9.56797 110.339 9.61617 110.552 9.67143C110.767 9.72869 111.313 9.95361 111.65 10.1273C111.906 10.2568 112.376 10.636 112.705 10.979ZM103.912 9.9546C103.464 9.6788 102.954 9.49011 102.589 9.46558C101.901 9.42042 101.116 9.62903 100.319 10.0671C99.7668 10.3725 99.3854 10.6675 98.8353 11.2078C98.1241 11.9077 97.4119 12.9731 97.1213 13.771C96.8506 14.51 96.7348 15.3698 96.774 16.3183C96.8256 17.4669 97.2782 18.7768 98.1355 20.2391C98.2644 20.4576 98.393 20.672 98.4234 20.715C98.4749 20.7887 98.4747 20.7844 98.4494 20.6172C98.4329 20.522 98.3991 20.0775 98.3715 19.6304C98.3318 18.9512 98.3319 18.746 98.3835 18.3689C98.4547 17.8602 98.5588 17.4691 98.735 17.0693C98.919 16.6562 99.03 16.4806 99.3476 16.1212C99.7631 15.6511 100.179 15.3541 100.799 15.0893C101.057 14.9794 101.158 14.956 101.441 14.9365C102.523 14.8698 103.588 15.1589 104.765 15.8407C105.157 16.0666 105.709 16.43 105.849 16.5538C105.892 16.5918 105.932 16.615 105.938 16.6082C105.972 16.5698 106.026 15.3612 106.025 14.6155C106.026 13.9486 105.891 13.1129 105.689 12.4992C105.578 12.1556 105.264 11.4313 105.125 11.1877C104.872 10.746 104.37 10.2341 103.912 9.9546ZM99.4267 22.9504C99.4389 23.0458 99.6501 23.6632 99.8022 24.0512C100.103 24.8042 100.416 25.4067 101.074 26.4838C102.022 28.0345 103.218 29.6789 104.602 31.3331C105.133 31.9671 105.904 33.0073 106.42 33.7854C107.322 35.1466 107.941 36.4419 108.275 37.6714C108.466 38.3713 108.539 38.8711 108.603 39.8779C108.657 40.7786 108.642 41.4056 108.544 42.1404C108.516 42.3493 108.514 42.4884 108.535 42.4743C108.824 42.3112 109.468 41.8056 109.835 41.4496C110.817 40.5022 111.238 39.3843 111.177 37.8815C111.143 37.0865 111.006 36.4624 110.699 35.6992C110.114 34.265 109.491 33.3439 107.683 31.2586C106.312 29.6805 105.58 28.9371 102.998 26.4934C101.403 24.9826 100.419 24.0047 99.763 23.2758C99.4647 22.9437 99.4238 22.9035 99.4267 22.9504Z" fill="black"/>
<path d="M106.647 36.5986C106.724 36.7754 106.732 36.9032 106.68 37.0624C106.632 37.1935 106.453 37.4097 106.347 37.4569C106.254 37.499 105.99 37.4596 105.758 37.3671C105.587 37.3007 105.565 37.2807 105.399 37.09C105.16 36.8184 105.122 36.7118 105.178 36.5118C105.332 35.9637 105.931 35.8691 106.433 36.3126C106.541 36.4085 106.597 36.4862 106.647 36.5986Z" fill="black"/>
<path d="M105.092 35.7075C105.265 36.0216 105.231 36.4383 105.008 36.7683C104.841 37.0158 104.641 37.0687 104.271 36.959C104.167 36.927 104.012 36.8831 103.925 36.8585L103.765 36.8129L103.622 36.546C103.368 36.068 103.334 35.897 103.45 35.7018C103.524 35.5776 103.754 35.3988 103.938 35.3234C104.35 35.1484 104.88 35.3273 105.092 35.7075Z" fill="black"/>
<path d="M106.228 37.7827C106.527 38.1553 106.503 38.6975 106.167 39.0772C106.037 39.2241 105.884 39.2699 105.678 39.2249C105.477 39.1796 104.995 38.9507 104.969 38.8882C104.959 38.8589 104.869 38.7149 104.768 38.5651C104.467 38.1178 104.457 37.9966 104.719 37.7005C104.97 37.4115 105.291 37.3126 105.662 37.4073C105.767 37.435 106.094 37.6115 106.131 37.6605C106.136 37.6687 106.18 37.7237 106.228 37.7827Z" fill="black"/>
<path d="M104.173 37.6204C104.402 37.8991 104.483 38.2082 104.38 38.4111C104.338 38.4992 104.296 38.5424 104.179 38.6159C103.969 38.7485 103.677 38.7643 103.272 38.6675L102.961 38.5905L102.836 38.282C102.689 37.9149 102.656 37.6968 102.722 37.4812C102.858 37.0176 103.24 36.9364 103.766 37.2566C103.939 37.3655 104.034 37.4494 104.173 37.6204Z" fill="black"/>
</g>
</svg>
