<svg width="1662" height="515" viewBox="0 0 1662 515" fill="none" xmlns="http://www.w3.org/2000/svg">
<path d="M1638.68 15.3502L1639.46 30.7004L1579.8 37.725C1547.05 41.4975 1518.72 44.7497 1516.9 44.8798C1513.65 45.0099 1513.39 44.6196 1513.13 37.8551C1512.87 30.9605 1510.4 33.6924 1510.4 40.9772V48.0019L1502.35 48.7824C1486.36 50.4735 1447.24 53.4655 1441.26 53.4655H1435.03V46.3107C1435.03 42.4082 1434.51 39.156 1433.73 39.156C1432.95 39.156 1432.43 42.6683 1432.43 46.9612V54.7664H1427.36H1422.16L1421.77 48.6523C1421.12 39.5463 1418.13 39.6763 1418.13 48.7824C1418.13 54.8964 1417.74 56.0672 1415.92 56.0672C1414.62 56.0672 1397.21 57.4982 1377.19 59.3194C1357.18 61.1406 1340.28 62.5715 1339.63 62.5715C1338.98 62.5715 1338.85 59.9698 1339.24 56.7177C1339.76 53.2053 1339.63 50.8638 1338.85 50.8638C1338.07 50.8638 1337.55 53.2053 1337.55 55.9371C1337.55 58.799 1337.03 61.4008 1336.38 61.791C1335.73 62.3114 1331.58 62.9618 1327.16 63.4821L1318.97 64.2627L1319.62 59.5796C1320.27 53.4655 1318.58 53.3354 1317.54 59.3194C1316.5 64.6529 1317.15 64.5228 1287.52 66.4741C1276.08 67.2547 1265.16 68.1653 1263.21 68.4254C1259.71 68.9458 1259.58 68.8157 1259.58 63.222C1259.58 58.9291 1259.06 57.3681 1257.63 57.3681C1256.07 57.3681 1255.68 59.0592 1255.68 64.5228C1255.68 72.4581 1255.94 72.328 1244.76 70.8971L1238.78 69.9865V63.6122C1238.78 59.7096 1238.26 57.4982 1237.48 58.0185C1236.83 58.4088 1236.18 61.6609 1236.18 65.3034V71.6776H1226.44H1216.82L1217.08 66.9945C1217.21 64.1326 1216.69 61.9211 1215.78 61.6609C1214.61 61.2707 1214.09 62.8317 1214.09 66.8644C1214.09 71.4174 1213.57 72.9785 1211.88 73.4988C1209.54 74.1492 1172.24 77.4014 1149.76 78.8323C1143.39 79.2226 1135.33 79.873 1131.95 80.2633C1125.97 81.0438 1125.71 80.9137 1125.71 77.7917C1125.71 75.9704 1125.32 73.6289 1124.93 72.4581C1123.63 69.0759 1121.82 71.5475 1121.82 76.751C1121.82 81.304 1121.43 81.8243 1117.79 82.6049C1115.58 82.9951 1110.51 83.3854 1106.74 83.3854H1099.72L1100.5 78.1819C1101.67 71.1572 1099.2 71.4174 1097.64 78.4421L1096.47 84.0358L1063.98 86.1172C1046.18 87.418 1026.03 88.7189 1019.4 89.2393L1007.32 90.0198L1007.71 85.857C1007.97 83.3854 1007.45 81.4341 1006.54 81.1739C1005.5 80.7836 1004.85 81.6942 1004.85 83.6455C1004.85 89.1092 1002.25 90.9304 993.412 91.4507C985.354 91.9711 985.224 91.9711 985.614 88.7189C985.874 86.8977 985.484 85.0765 984.704 84.6862C984.055 84.296 983.275 85.857 983.015 88.0685L982.625 92.1012L966.77 92.8817C958.062 93.402 940.777 94.1825 928.301 94.5728L905.687 95.4834L906.467 90.1499C906.857 87.1579 906.727 84.6862 906.077 84.6862C904.777 84.6862 903.478 89.4994 903.478 94.7029C903.478 98.9957 903.348 98.9957 897.369 98.9957C888.012 98.9957 885.543 97.955 884.633 93.6622C883.463 88.1986 881.384 88.9791 881.384 94.9631C881.384 100.036 881.254 100.167 875.926 100.817C872.806 101.207 850.193 102.378 825.5 103.549C800.807 104.589 777.544 105.76 773.905 106.15L767.017 106.801V100.947C767.017 97.6949 766.497 95.0931 765.717 95.0931C765.067 95.0931 764.417 97.6949 764.417 100.947C764.417 106.541 764.287 106.801 760.648 106.801C758.699 106.801 754.28 106.411 750.901 106.02L744.923 105.11V99.5161C744.923 91.7109 742.844 92.3613 742.064 100.297C741.674 103.939 741.154 107.061 740.894 107.321C740.374 107.842 656.548 110.704 641.213 110.704H631.855V104.459C631.725 97.1745 630.036 99.2559 628.736 108.232C628.086 113.045 627.307 114.216 625.617 113.826C624.447 113.696 621.198 113.045 618.599 112.655C613.66 111.874 613.66 111.874 613.66 105.5C613.66 100.557 613.141 98.9957 611.711 98.9957C610.151 98.9957 609.762 100.687 609.762 106.15V113.305H603.783C597.415 113.305 541.141 115.517 522.427 116.427L510.99 117.078V111.224C510.99 104.069 508.65 103.679 507.611 110.834C506.701 116.557 506.571 116.557 498.253 117.728L492.535 118.509L492.925 113.305C493.185 110.443 492.795 107.972 492.145 107.842C491.365 107.581 490.716 109.923 490.456 112.915L490.066 118.509H471.481C461.214 118.509 447.568 118.899 441.07 119.289L429.113 120.2V114.086C429.113 110.834 428.593 108.102 427.814 108.102C427.164 108.102 426.514 110.704 426.514 113.956V119.81H413.778C406.63 119.81 392.984 120.2 383.236 120.72L365.431 121.501V114.736C365.431 106.02 362.832 106.411 360.883 115.387L359.583 121.761L307.208 122.411L254.703 123.062L255.483 118.118C256.523 111.874 253.014 111.224 251.324 117.468L250.284 121.761L195.44 122.151L140.596 122.411L141.375 117.338C141.895 114.346 141.635 112.004 140.856 111.484C139.036 110.443 137.217 113.826 136.047 120.2C135.397 123.452 134.357 125.013 132.928 125.013C125.52 125.013 59.4988 122.281 59.1089 122.021C58.979 121.761 59.6288 113.826 60.6685 104.199C63.3977 78.5722 63.3977 78.5722 58.4591 77.0111C56.1198 76.3607 47.1523 75.5802 38.5748 75.32L22.9792 74.9298L22.0695 89.8897C21.5496 98.0851 19.6002 133.859 17.7807 169.242C14.2717 238.839 12.0624 278.905 4.13463 420.179C0.105778 491.466 -0.673999 512.15 0.495666 512.801C4.52452 515.402 32.5965 515.793 35.0658 513.451C35.3257 513.061 36.7553 493.027 38.0549 468.831C39.4845 444.635 42.6036 388.698 45.0729 344.339C47.5422 300.109 49.6216 262.644 49.6216 261.083C49.6216 258.742 50.0115 259.002 52.2209 262.644C55.21 267.458 59.3688 268.108 65.2172 264.726C75.2243 258.742 76.264 243.912 68.9861 211.52C64.8273 192.528 64.6973 191.227 64.9572 166.12C65.0872 148.949 65.737 139.713 66.6468 138.542C67.5565 137.371 67.9464 134.249 67.4265 130.867L66.7767 124.883L94.9787 125.663C110.444 126.054 125.52 126.704 128.509 127.094C133.838 127.745 133.838 127.745 132.668 131.908C132.148 134.249 130.978 144.656 130.329 155.063C129.549 165.47 128.249 175.877 127.469 178.088C126.69 180.43 126.43 184.723 126.82 187.845C127.339 190.837 128.119 200.333 128.639 208.919C129.549 223.749 129.809 224.919 134.617 233.635C140.986 245.213 145.924 251.977 162.04 271.36C169.187 279.946 178.545 291.524 182.574 296.987C196.22 315.199 210.126 325.346 227.151 329.769C237.418 332.371 274.327 332.631 284.984 330.159C300.97 326.387 317.735 310.126 340.349 276.564C348.926 263.815 384.926 196.951 384.926 193.829C384.926 192.268 381.417 180.56 377.258 167.811C369.85 145.827 364.652 125.403 365.951 123.972C366.341 123.712 378.558 123.062 393.113 122.671L419.626 122.021L422.745 126.444C425.474 130.347 425.864 132.688 426.904 152.071C427.814 169.112 427.684 174.446 426.254 178.869C425.084 182.381 424.824 185.763 425.474 188.235C428.593 199.943 434.832 244.302 440.16 292.824C443.539 323.265 446.528 348.371 446.788 348.632C447.048 348.892 450.037 348.371 453.416 347.461C468.622 343.558 477.459 342.127 490.586 341.347L504.752 340.566L503.972 337.184C503.452 335.363 502.542 316.37 501.892 295.036C501.243 273.702 500.333 255.62 499.813 254.839C499.293 254.189 498.773 235.326 498.513 212.951C498.253 190.707 497.474 170.153 496.824 167.291C496.044 164.429 495.394 152.591 495.394 140.884C495.394 119.94 495.394 119.81 498.383 119.81C499.943 119.81 502.412 119.419 503.972 119.029C506.311 118.379 506.831 119.029 507.481 123.452C508.001 126.184 509.82 131.908 511.77 136.2C518.528 151.421 529.704 201.114 528.535 210.74C528.145 214.122 528.275 219.586 528.795 223.228C529.834 229.602 529.964 229.733 536.333 231.944C545.04 234.936 589.227 235.326 595.986 232.464C602.094 229.863 603.263 225.44 604.563 200.073C605.083 187.845 606.123 177.568 607.032 176.657C610.411 172.495 618.859 132.688 618.859 120.72C618.859 116.297 619.119 115.907 622.758 115.907C625.487 115.907 626.657 116.557 626.657 117.988C626.657 119.159 629.906 123.062 633.805 126.704C643.422 135.81 643.552 136.721 643.812 196.561C643.812 199.813 643.162 210.35 642.252 220.106C640.563 239.359 641.732 248.595 645.761 248.595C646.801 248.595 650.18 246.123 653.169 243.131L658.498 237.668L667.855 238.058C678.642 238.448 681.111 237.408 684.62 231.033C688.779 223.098 694.367 223.358 704.115 231.814C707.364 234.546 710.743 236.887 711.652 236.887C712.562 236.887 715.551 235.066 718.281 232.985C721.01 230.773 724.259 229.212 725.299 229.342C727.118 229.733 730.757 235.326 732.317 240.139C732.576 240.92 734.006 240.79 736.215 239.879C738.685 238.709 739.724 237.017 740.374 233.375C740.764 230.643 741.934 224.659 743.103 220.106C744.923 212.171 744.923 211.781 742.584 209.049C738.295 204.496 736.995 197.081 736.215 172.885C735.436 147.908 736.865 131.778 741.284 117.468L743.753 109.403H753.89H764.157L767.536 118.509C771.955 130.477 773.905 139.323 778.063 165.99C782.352 193.569 783.132 216.464 779.623 221.537C776.894 225.83 776.764 230.253 779.363 235.066C780.923 237.928 781.183 241.05 780.533 248.465L779.623 258.091L783.392 257.181C788.331 255.88 790.41 254.059 790.41 250.937C790.41 248.595 791.19 248.465 803.536 248.725C815.363 249.115 816.792 248.855 817.962 246.514C823.031 237.148 830.439 234.546 837.846 239.489C843.955 243.522 848.113 242.871 854.092 236.757C856.951 233.765 859.29 230.903 859.29 230.383C859.29 228.822 865.658 226.48 867.608 227.261C868.648 227.651 870.727 229.993 872.157 232.464C875.666 238.188 878.135 238.058 881.384 231.684C884.633 225.18 885.023 211.26 882.034 209.049C874.366 203.455 872.676 122.541 879.954 112.134C881.384 110.183 882.944 107.061 883.333 105.11C884.243 101.728 884.633 101.597 892.431 101.597H900.618L902.698 107.712C903.868 111.094 905.427 119.419 906.207 126.314C906.987 133.078 908.676 141.924 909.976 145.827C912.185 152.331 914.135 161.567 917.384 179.649C918.293 184.072 919.463 186.154 922.712 188.235C930.38 193.438 952.864 195.52 969.239 192.528C982.625 190.186 982.235 190.707 983.145 167.031C984.055 143.745 988.863 96.2639 990.293 94.833C990.943 94.1825 993.542 93.6622 996.141 93.402L1001.08 93.1419L1008.88 116.557C1013.04 129.436 1018.75 144.266 1021.48 149.729C1026.16 159.096 1026.55 159.616 1035.39 164.039C1044.36 168.462 1044.75 168.592 1060.86 168.592C1076.07 168.592 1077.5 168.332 1081.79 165.34C1091.66 158.705 1095.3 149.729 1100.5 119.81C1102.32 109.403 1104.66 97.3046 1105.83 92.7516L1107.78 84.6862H1114.28H1120.65L1123.89 91.7109C1125.58 95.4834 1128.83 106.541 1131.04 116.037C1137.02 142.575 1142.87 153.242 1155.74 161.567C1159.37 163.779 1165.87 167.031 1170.29 168.592C1177.57 171.324 1178.74 171.324 1183.29 169.763C1195.63 165.47 1207.07 152.852 1215.65 134.509C1219.81 125.794 1219.81 125.403 1220.59 101.077L1221.24 76.3607L1226.83 75.1899C1229.94 74.5395 1232.93 74.4094 1233.32 74.9298C1233.84 75.32 1234.23 95.2232 1234.36 118.899C1234.49 142.705 1235.27 167.291 1236.05 173.795C1236.83 180.17 1237.87 194.609 1238.26 205.667C1239.17 227.781 1240.21 233.765 1244.37 240.27C1247.36 244.823 1250.09 246.254 1248.66 242.611C1248.14 241.44 1247.23 216.984 1246.58 188.235C1245.8 153.502 1244.63 132.168 1243.33 124.363C1241.38 112.395 1240.73 89.4994 1242.16 79.3527L1242.94 73.6289L1249.83 74.0191L1256.72 74.5395L1261.27 88.3287C1269.97 114.476 1272.57 135.94 1274.26 192.268L1274.52 202.935L1282.97 197.341C1300.77 185.503 1319.1 182.641 1332.74 189.536L1336.25 191.487V177.438C1336.25 158.315 1334.3 141.664 1330.41 126.574C1325.21 106.541 1323.26 84.4261 1325.34 71.5475C1326.12 67.2547 1326.64 66.7343 1330.8 65.9538C1333.39 65.5635 1335.73 65.5635 1336.12 65.9538C1337.81 67.5148 1353.41 208.008 1355.49 239.879C1356.14 249.766 1357.05 258.091 1357.31 258.482C1358.87 260.043 1390.32 261.213 1403.57 260.303C1419.82 259.002 1436.46 256.66 1438.92 255.099C1440.22 254.319 1439.96 250.026 1437.75 235.456C1433.08 203.065 1431 179.909 1426.58 105.5C1425.54 87.288 1424.24 68.9458 1423.85 64.783L1423.07 57.3681H1427.62C1430.22 57.3681 1432.56 57.8884 1432.95 58.5389C1434.51 61.0105 1437.88 86.6375 1444.12 143.876C1450.88 206.317 1455.56 245.213 1456.73 247.945C1457.77 250.807 1467.26 251.327 1495.46 250.026C1520.93 248.725 1533.54 247.294 1537.31 244.953C1538.48 244.172 1537.7 233.505 1533.8 199.813C1519.24 74.0191 1516.9 53.2053 1516.9 51.1239C1516.9 49.0426 1519.24 48.3921 1536.14 46.4408C1546.66 45.2701 1573.7 42.0179 1596.18 39.2861C1618.66 36.4242 1637.51 34.4729 1637.9 34.7331C1638.29 34.9932 1639.07 54.8964 1639.59 79.0925C1639.98 103.289 1641.54 171.974 1642.97 231.684C1644.4 291.394 1646.09 368.665 1646.87 403.398C1647.64 438.131 1648.55 474.165 1648.94 483.661C1649.72 499.662 1649.85 500.833 1652.45 501.483C1656.74 502.654 1660.9 502.394 1661.81 500.963C1662.46 499.922 1661.55 451.66 1657.26 260.303C1656.61 229.212 1655.31 172.104 1654.53 133.469C1653.75 94.833 1652.71 49.1726 1652.32 32.0012L1651.41 0.780501L1644.66 0.390242L1637.9 -1.70087e-05L1638.68 15.3502ZM1201.35 82.0845C1195.5 86.8977 1167.82 89.7596 1149.24 87.418C1138.45 85.9871 1132.08 83.5155 1138.84 83.2553C1140.53 83.2553 1151.32 82.3447 1162.75 81.5642C1174.19 80.6536 1188.23 79.743 1193.94 79.743C1204.34 79.6129 1204.34 79.6129 1201.35 82.0845ZM1085.43 88.3287C1085.43 91.5808 1043.84 96.1338 1031.1 94.3126C1021.87 93.0118 1023.17 92.8817 1056.83 89.8897C1071.52 88.7189 1083.87 87.5481 1084.52 87.418C1085.04 87.418 1085.43 87.8083 1085.43 88.3287ZM974.697 96.6542C974.177 97.955 968.199 98.4754 951.564 98.7356C939.087 98.8657 929.34 98.7356 929.73 98.3453C930.12 97.825 940.127 97.0444 951.824 96.5241C963.391 96.0038 973.528 95.3533 974.047 95.3533C974.697 95.2232 974.957 95.8737 974.697 96.6542ZM595.466 120.07C590.397 124.363 577.011 130.216 569.343 131.387C565.444 132.038 559.206 132.038 555.437 131.387C548.419 130.347 524.376 120.07 527.885 119.679C532.694 119.159 572.722 117.598 585.069 117.468L598.715 117.338L595.466 120.07ZM484.217 124.623C480.708 140.753 474.99 151.29 468.362 153.762C463.813 155.453 453.026 152.071 446.918 147.128C440.94 142.054 435.871 133.469 435.351 127.615L434.962 123.062L444.059 122.281C449.127 121.891 460.304 121.501 469.142 121.371L484.997 121.11L484.217 124.623ZM54.6902 223.749C53.9104 227.781 52.7407 231.554 52.0909 232.204C50.6613 233.765 50.5314 221.407 51.831 210.87L52.7407 203.715L54.3003 210.09C55.47 214.773 55.5999 218.415 54.6902 223.749ZM68.3363 223.619C70.9355 233.115 72.1052 250.156 70.4157 252.498C69.246 254.189 68.8561 254.189 67.2966 252.107C65.3471 249.636 61.5782 231.033 61.0584 221.927C60.5385 210.61 65.2172 211.781 68.3363 223.619ZM57.1595 239.619C56.6396 243.782 54.0404 244.172 53.0007 240.009C52.3508 237.668 52.6108 236.107 53.7804 235.456C56.1198 234.025 57.6793 235.977 57.1595 239.619ZM58.719 248.335C58.719 251.457 54.9501 256.66 53.3906 255.75C51.5711 254.579 51.961 250.807 54.3003 247.554C56.5097 244.432 58.719 244.823 58.719 248.335ZM67.6865 255.62C68.9861 257.051 68.5962 258.091 66.3868 260.173C62.488 263.815 61.3183 263.555 61.3183 259.262C61.3183 253.668 64.5674 251.847 67.6865 255.62ZM59.3688 260.303C58.719 261.344 57.9393 261.344 57.1595 260.563C56.3797 259.783 56.2497 258.482 56.7696 257.701C57.4194 256.66 58.1992 256.66 58.979 257.441C59.7587 258.221 59.8887 259.522 59.3688 260.303Z" fill="black"/>
</svg>
