<svg width="1160" height="837" viewBox="0 0 1160 837" fill="none" xmlns="http://www.w3.org/2000/svg">
<path d="M589.847 0.998024C587.525 2.10847 586.213 4.6322 586.718 6.95403C586.919 7.86257 585.102 8.46827 580.762 8.97301C568.648 10.3863 559.158 16.8471 555.221 26.3363L553.001 31.5856L543.915 31.7875C533.114 32.0904 530.59 33.3018 528.975 39.0559C528.369 41.2768 527.46 56.2173 526.956 72.1672C526.451 88.1172 525.542 113.455 524.937 128.497C524.331 143.437 523.422 171.4 522.918 190.581C522.312 209.761 521.403 240.853 520.798 259.731C518.981 313.84 518.88 310.71 522.211 315.657C526.249 321.815 530.186 323.834 537.959 323.834C544.42 323.834 544.521 323.834 548.559 328.477C552.395 332.717 553.303 333.222 560.269 334.534C564.408 335.342 569.859 335.948 572.383 335.948C579.752 335.948 579.651 335.746 578.44 352.2C577.834 360.175 577.228 367.242 576.925 367.948C576.724 368.655 576.219 378.144 575.916 389.148C575.512 400.151 575.007 409.842 574.806 410.65C574.503 411.458 573.796 418.524 573.291 426.297C572.787 434.07 571.878 445.881 571.373 452.544C569.758 470.715 568.648 487.27 566.427 526.237C565.215 545.619 563.802 565.91 563.196 571.159C561.783 583.172 561.682 585.292 560.37 604.674C559.865 613.457 559.158 620.927 558.856 621.432C558.553 621.937 557.644 626.58 556.837 631.83C555.524 640.007 551.284 653.13 545.833 666.052C540.281 679.074 518.173 708.955 498.286 730.356C481.73 748.123 478.601 752.767 478.5 758.824C478.5 765.991 488.292 778.105 494.147 778.105C495.359 778.105 497.983 779.014 500.204 780.124C502.425 781.235 505.252 782.143 506.564 782.143C507.876 782.143 509.895 782.648 511.107 783.355C512.318 783.96 515.346 784.869 517.87 785.273C520.394 785.676 525.038 786.686 528.268 787.594C531.397 788.503 534.83 789.109 535.839 788.907C537.555 788.705 549.669 790.926 574.907 795.973C582.175 797.386 589.14 798.699 590.554 798.8C599.639 799.607 615.185 801.828 620.132 802.939C623.362 803.746 628.914 804.352 632.347 804.352C635.779 804.352 641.129 805.059 644.158 805.967C647.287 806.977 654.051 807.784 660.209 807.885C666.064 807.986 674.947 808.491 679.894 808.895C687.768 809.5 689.181 809.399 690.392 807.986C691.2 807.078 691.503 806.068 691.2 805.765C690.392 804.857 675.25 803.242 665.256 802.939C656.171 802.636 646.379 801.424 630.832 798.901C608.624 795.166 594.894 793.248 591.462 793.248C589.443 793.248 585.91 792.541 583.588 791.834C581.367 791.027 574.907 789.815 569.354 789.21C563.802 788.604 557.341 787.392 555.12 786.585C552.799 785.878 549.77 785.172 548.357 785.172C544.925 785.172 534.729 783.355 528.369 781.537C525.542 780.73 522.009 780.124 520.596 780.124C519.183 780.124 514.842 779.014 511.107 777.6C507.371 776.187 501.315 774.067 497.781 772.957C488.898 770.13 487.182 768.717 484.658 762.963C481.629 755.795 481.932 753.675 486.879 748.628C492.128 743.177 500.709 733.183 500.709 732.476C500.709 732.173 504.545 727.933 509.29 723.088C528.571 703.403 544.723 679.074 554.717 654.947C560.471 640.814 564.105 617.192 566.326 580.245C568.85 536.736 570.465 511.7 571.878 495.952C572.686 486.463 573.594 472.229 573.897 464.153C574.2 456.077 575.31 439.723 576.421 427.811C577.43 415.899 579.045 396.82 579.954 385.413C581.973 360.377 584.295 338.067 585.102 336.856C586.213 335.039 588.535 336.049 589.14 338.471C589.443 339.885 589.241 343.822 588.636 347.355C588.03 350.787 586.919 362.194 586.011 372.794C584.194 395.71 582.881 411.155 581.367 426.802C580.156 440.228 580.055 441.54 577.329 485.857C576.32 504.129 575.007 524.42 574.503 530.78C573.998 537.139 572.787 555.815 571.878 572.169C570.162 604.271 568.446 619.716 564.913 637.483C563.6 643.641 562.894 649.294 563.297 649.9C564.509 651.818 566.326 645.963 567.739 635.666C568.547 630.416 569.657 624.864 570.263 623.249C571.575 620.019 573.291 600.233 573.897 582.768C574.099 576.61 575.411 557.531 576.825 540.37C581.569 483.232 581.872 479.8 581.771 476.267C581.67 472.633 582.68 461.326 584.598 445.477C585.102 440.43 586.011 426.6 586.516 414.688C588.636 366.434 591.765 334.736 594.39 336.351C594.794 336.553 605.292 337.058 617.81 337.361C650.921 338.269 667.174 339.077 672.423 339.986C674.947 340.49 680.903 340.49 685.446 340.086C690.191 339.582 700.487 339.582 708.967 340.086C719.365 340.793 724.412 340.793 725.22 339.986C726.734 338.471 729.46 338.774 730.873 340.49C732.993 343.014 742.179 342.408 748.034 339.481C750.76 338.067 753.486 336.149 753.99 335.14C757.12 329.285 758.634 292.539 759.644 200.171C760.047 167.16 759.845 153.229 759.139 154.441C758.533 155.45 757.927 165.444 757.726 178.164C757.221 208.045 757.221 207.237 756.312 206.127C755.303 205.016 756.817 126.983 758.028 115.373L758.836 107.298L759.038 118.907C759.341 142.226 760.956 126.983 762.167 89.1267C762.773 68.0283 763.782 49.0499 764.287 46.9299C765.398 42.791 763.984 35.3208 761.764 33.6046C761.057 32.9989 760.148 31.3837 759.845 29.8695C758.735 25.6296 755.808 24.6201 742.987 24.6201C731.883 24.5192 731.176 24.4182 727.744 21.6926C725.725 20.1784 722.898 18.967 721.384 18.967C719.567 18.967 718.355 18.2603 717.649 16.6452C716.538 14.3233 712.5 13.011 700.891 11.1939C698.569 10.7901 697.56 10.0835 697.56 8.87206C697.56 6.65118 694.43 0.998024 692.916 0.392328C690.897 -0.415266 685.244 3.8246 684.134 6.95403C682.922 9.9825 682.316 10.2854 674.543 11.3958C669.9 12.0015 657.786 17.5537 652.637 21.4907C649.912 23.5097 648.902 23.7116 642.24 23.1059C635.375 22.5002 634.769 22.1974 631.943 18.7651C626.794 12.5062 622.958 10.7901 610.945 9.47776C600.144 8.26637 600.144 8.26637 600.447 5.64169C601.052 0.998024 595.096 -1.52571 589.847 0.998024ZM757.12 31.5856C758.129 32.797 758.028 33.6046 756.716 35.6236C755.808 37.0369 754.293 38.0464 753.385 37.9454C751.971 37.6426 751.669 39.3587 751.568 51.7755C751.467 59.5486 751.063 70.1482 750.558 75.3976C749.852 83.9783 749.952 84.8868 751.467 84.2811C752.779 83.7764 753.082 84.3821 753.082 87.6125C753.082 89.8333 752.577 91.6504 751.971 91.6504C751.366 91.6504 751.164 90.7419 751.568 89.6314C751.971 88.521 751.77 87.6125 751.164 87.6125C750.558 87.6125 750.053 88.9248 750.053 90.54C750.053 92.2561 749.549 93.8713 748.943 94.1742C748.236 94.6789 748.034 91.5495 748.438 83.8773C750.053 52.785 750.154 45.4157 749.044 44.709C748.337 44.3052 747.631 44.9109 747.328 46.1223C746.823 47.9394 746.217 48.1413 743.492 47.6366C741.675 47.3337 738.444 47.5356 736.324 48.1413C731.782 49.3527 731.075 48.747 731.681 43.5986C732.286 38.854 736.728 35.8255 742.078 36.6331C745.107 37.1378 746.116 36.7341 749.448 33.7056C753.587 29.7686 755.202 29.2638 757.12 31.5856ZM532.71 71.1577C532.609 76.609 532.407 72.3691 532.407 61.8704C532.407 51.2707 532.609 46.829 532.71 51.9774C532.912 57.1258 532.912 65.7065 532.71 71.1577ZM705.333 100.433C705.232 104.774 705.03 101.443 705.03 93.1647C705.03 84.7859 705.232 81.2527 705.333 85.2906C705.535 89.3286 705.535 96.0922 705.333 100.433ZM531.7 97.9093C531.498 100.837 531.397 98.7169 531.397 93.1647C531.397 87.6125 531.498 85.1897 531.7 87.8144C531.902 90.439 531.902 94.9818 531.7 97.9093ZM751.77 105.48C751.467 106.49 751.265 105.884 751.265 104.269C751.265 102.553 751.467 101.846 751.77 102.452C751.971 103.159 751.971 104.572 751.77 105.48ZM748.135 140.207C747.53 158.681 746.924 177.659 746.823 182.404L746.722 191.085L746.116 182.808C745.309 171.501 747.53 104.976 748.741 106.086C748.943 106.389 748.741 121.733 748.135 140.207ZM530.691 126.175C530.489 129.708 530.388 126.882 530.388 119.916C530.388 112.951 530.489 110.124 530.691 113.556C530.893 117.09 530.893 122.743 530.691 126.175ZM751.568 136.977C751.164 142.226 750.558 145.86 750.154 145.053C749.751 144.245 749.751 139.5 750.154 134.554C750.558 129.506 751.063 121.33 751.164 116.383L751.467 107.298L751.87 117.392C752.072 122.945 751.87 131.727 751.568 136.977ZM704.323 120.118C704.122 121.935 703.92 120.724 703.92 117.392C703.92 114.061 704.122 112.547 704.323 114.061C704.525 115.575 704.525 118.301 704.323 120.118ZM674.039 117.09C673.736 117.796 673.534 117.292 673.534 115.878C673.534 114.465 673.736 113.96 674.039 114.566C674.241 115.273 674.241 116.484 674.039 117.09ZM709.371 136.27C709.169 139.198 709.068 136.876 709.068 131.021C709.068 125.166 709.169 122.844 709.371 125.67C709.573 128.598 709.573 133.443 709.371 136.27ZM676.058 131.223C675.856 132.535 675.654 131.727 675.654 129.506C675.553 127.286 675.755 126.276 676.058 127.185C676.26 128.194 676.26 130.011 676.058 131.223ZM703.314 151.412C703.112 154.946 703.011 152.119 703.011 145.154C703.011 138.188 703.112 135.361 703.314 138.794C703.516 142.327 703.516 147.98 703.314 151.412ZM529.681 169.583C529.58 174.732 529.378 170.795 529.378 160.801C529.378 150.807 529.58 146.567 529.681 151.412C529.883 156.258 529.883 164.435 529.681 169.583ZM676.058 149.393C675.856 150.706 675.654 149.898 675.654 147.677C675.553 145.456 675.755 144.447 676.058 145.355C676.26 146.365 676.26 148.182 676.058 149.393ZM708.361 161.507C708.159 165.041 708.059 162.416 708.059 155.753C708.059 149.091 708.159 146.264 708.361 149.393C708.563 152.624 708.563 158.075 708.361 161.507ZM751.063 150.706C751.063 152.119 750.659 153.229 750.154 153.229C749.751 153.229 749.549 152.119 749.852 150.706C750.053 149.292 750.457 148.182 750.659 148.182C750.861 148.182 751.063 149.292 751.063 150.706ZM750.356 168.574C749.751 186.745 749.145 187.249 749.246 169.583C749.246 161.709 749.65 155.248 750.053 155.248C750.457 155.248 750.659 161.305 750.356 168.574ZM702.607 165.041C701.497 166.757 701.497 166.757 702.002 165.041C702.304 164.031 702.607 162.618 702.708 162.012C702.708 161.103 702.91 161.103 703.213 162.012C703.516 162.719 703.213 164.031 702.607 165.041ZM709.371 173.621C709.169 174.934 708.967 174.126 708.967 171.905C708.866 169.684 709.068 168.675 709.371 169.583C709.573 170.593 709.573 172.41 709.371 173.621ZM528.672 195.83C528.47 198.758 528.369 196.436 528.369 190.581C528.369 184.726 528.47 182.404 528.672 185.23C528.874 188.158 528.874 193.003 528.672 195.83ZM749.751 194.821C749.549 196.638 749.347 195.224 749.347 191.59C749.347 187.956 749.549 186.543 749.751 188.259C749.952 190.076 749.952 193.104 749.751 194.821ZM745.713 206.43C745.511 208.55 745.309 206.833 745.309 202.695C745.309 198.556 745.511 196.84 745.713 198.859C745.914 200.978 745.914 204.411 745.713 206.43ZM527.662 221.067C527.46 224.601 527.359 221.976 527.359 215.313C527.359 208.651 527.46 205.824 527.662 208.953C527.864 212.184 527.864 217.635 527.662 221.067ZM749.246 216.121C748.337 218.039 747.429 215.515 747.933 212.083L748.438 208.247L749.044 211.78C749.347 213.698 749.448 215.616 749.246 216.121ZM745.41 228.639C745.006 232.979 744.4 236.714 743.996 237.017C743.694 237.32 742.987 238.431 742.583 239.541C741.271 242.67 740.665 239.642 741.473 234.393C741.776 231.97 742.482 229.951 742.987 229.951C743.492 229.951 744.198 227.932 744.602 225.408C745.612 218.14 746.116 220.159 745.41 228.639ZM749.751 228.134C749.448 228.941 749.145 228.639 749.145 227.528C749.044 226.418 749.347 225.812 749.65 226.216C749.952 226.519 750.053 227.427 749.751 228.134ZM526.653 256.4C526.552 261.548 526.35 257.409 526.35 247.112C526.35 236.815 526.552 232.677 526.653 237.724C526.855 242.872 526.855 251.352 526.653 256.4ZM525.643 279.618C525.441 281.435 525.239 280.022 525.239 276.388C525.239 272.753 525.441 271.34 525.643 273.056C525.845 274.873 525.845 277.902 525.643 279.618ZM525.643 295.265C525.441 297.385 525.239 295.669 525.239 291.53C525.239 287.391 525.441 285.675 525.643 287.694C525.845 289.814 525.845 293.246 525.643 295.265ZM526.956 311.72C527.965 312.325 528.066 312.729 527.258 312.729C525.239 312.729 523.927 309.095 524.028 303.947L524.23 299.101L524.836 304.956C525.239 308.489 526.047 311.215 526.956 311.72ZM677.976 309.196C680.398 311.013 678.682 311.114 675.351 309.196C673.736 308.287 673.433 307.783 674.442 307.682C675.25 307.682 676.865 308.388 677.976 309.196ZM550.679 311.316C552.9 312.124 553.505 312.527 552.092 312.224C550.578 311.922 546.338 311.316 542.603 310.811C538.868 310.306 535.536 309.6 535.233 309.196C534.224 308.287 546.338 309.903 550.679 311.316ZM584.497 309.6C584.497 310.105 583.588 310.306 582.478 310.004C581.367 309.701 580.459 309.297 580.459 309.095C580.459 308.893 581.367 308.691 582.478 308.691C583.588 308.691 584.497 309.095 584.497 309.6ZM590.957 310.206C593.481 312.124 591.866 312.124 588.535 310.206C587.121 309.398 586.617 308.792 587.525 308.792C588.333 308.792 589.948 309.398 590.957 310.206ZM612.662 310.306C613.469 311.013 603.172 310.609 598.63 309.701C595.399 309.095 596.812 308.994 603.172 309.398C608.22 309.701 612.46 310.105 612.662 310.306ZM655.161 310.105C657.079 310.206 652.234 310.407 644.36 310.508C636.486 310.609 629.823 310.407 629.621 309.903C629.116 309.297 646.883 309.297 655.161 310.105ZM670.102 309.398C669.092 309.6 667.477 309.6 666.568 309.398C665.559 309.095 666.366 308.893 668.285 308.893C670.203 308.893 671.01 309.095 670.102 309.398ZM693.32 310.206C697.055 311.013 701.194 311.821 702.607 312.124C704.021 312.426 702.607 312.426 699.579 312.124C691.402 311.417 679.086 308.893 683.225 308.792C685.042 308.691 689.585 309.398 693.32 310.206ZM622.655 310.407C621.04 310.609 618.618 310.609 617.103 310.407C615.488 310.206 616.8 310.004 619.829 310.004C622.857 310.004 624.17 310.206 622.655 310.407ZM559.057 311.922C559.764 312.628 562.994 313.537 566.124 313.84L571.878 314.445L566.225 314.647C561.884 314.748 559.966 314.243 558.149 312.729C556.837 311.72 556.231 310.811 556.837 310.71C557.341 310.71 558.452 311.316 559.057 311.922ZM709.169 312.729C709.472 313.335 709.068 313.436 708.26 313.133C706.443 312.426 706.14 311.72 707.554 311.72C708.159 311.72 708.866 312.124 709.169 312.729Z" fill="black"/>
<path d="M759.643 137.886C759.34 140.006 759.441 142.833 760.047 144.145C760.854 146.265 761.056 145.558 761.056 140.309C761.157 133.243 760.652 132.233 759.643 137.886Z" fill="black"/>
<path d="M975.573 176.347C970.324 176.852 968.81 177.558 965.176 180.688C962.551 183.111 960.027 184.524 958.311 184.524C956.393 184.524 953.869 186.24 949.226 190.884C945.793 194.417 942.866 197.849 942.866 198.556C942.866 199.262 943.371 199.464 943.976 199.061C944.683 198.657 944.683 199.162 943.875 200.676C943.068 202.19 942.361 202.594 941.957 201.786C939.737 198.253 929.137 218.746 928.127 228.538C927.32 236.008 929.541 243.68 933.982 249.434L937.011 253.27L934.79 260.539C932.771 266.999 932.67 269.119 933.276 279.315C934.386 298.597 940.14 312.528 950.639 321.411C954.172 324.44 957.605 326.862 958.311 326.862C958.917 326.862 960.633 328.074 962.147 329.487C963.964 331.203 966.589 332.314 970.728 333.02C983.548 335.039 985.87 335.645 988.596 337.462C992.23 339.784 1008.58 341.096 1016.96 339.582C1022.31 338.673 1023.02 338.774 1024.03 340.39C1024.63 341.399 1026.45 343.923 1027.97 345.942C1030.39 348.97 1030.79 350.182 1030.29 353.311C1029.88 355.633 1030.09 357.147 1030.69 357.147C1031.2 357.147 1031.7 355.734 1031.7 353.917C1031.7 351.494 1032 350.989 1032.91 351.898C1034.22 353.21 1034.53 361.185 1033.32 363.103C1032.71 364.012 1032.21 363.911 1031.2 362.598C1030.09 360.983 1029.88 361.084 1029.28 363.911C1028.87 365.627 1027.97 367.343 1027.16 367.646C1026.45 367.848 1024.84 370.069 1023.73 372.491C1022.62 374.914 1020.9 377.943 1019.89 379.356L1018.17 381.88L1020.5 379.861L1022.82 377.842L1022.51 379.861C1022.21 381.375 1021.3 381.88 1018.98 381.88C1014.94 381.981 1007.47 386.826 1007.47 389.35C1007.47 390.359 1008.18 391.773 1009.09 392.58C1010.5 393.691 1010.6 396.416 1010 415.092C1009.59 426.802 1008.99 436.796 1008.79 437.2C1008.48 437.604 1007.68 437.503 1006.97 436.897C1005.86 435.988 1004.95 436.089 1003.23 437.301C1002.02 438.209 999.7 438.916 998.085 438.916C996.369 438.916 995.057 439.623 994.653 440.632C993.643 443.156 990.312 445.781 986.981 446.588C981.63 447.799 985.87 449.314 996.268 449.919C1010 450.727 1010 450.727 1008.58 464.355C1007.98 470.21 1007.27 483.838 1006.97 494.539C1006.56 505.341 1005.86 517.253 1005.35 521.19C1004.75 525.026 1004.34 540.067 1004.34 554.503C1004.34 568.939 1003.94 586.403 1003.33 593.368C1002.73 600.334 1002.33 608.107 1002.43 610.732C1002.43 614.063 1002.12 615.577 1001.21 615.577C998.691 615.577 992.331 613.457 992.331 612.65C992.331 612.145 989.504 608.713 986.173 604.977C979.611 597.709 976.28 591.652 976.179 587.008C976.179 585.393 975.674 583.273 975.069 582.163C973.454 579.033 969.92 554.907 970.728 551.979C971.031 550.566 971.233 527.045 971.233 499.687L971.031 449.919L974.261 446.891C977.189 444.165 977.391 443.661 976.987 437.705C976.684 432.253 976.886 431.345 978.501 431.042C979.511 430.84 981.126 430.941 982.034 431.345C984.659 432.354 997.379 432.758 997.379 431.85C997.379 430.436 993.542 429.629 986.577 429.326C983.044 429.225 979.914 428.922 979.611 428.619C979.309 428.316 979.611 425.894 980.318 423.269C981.227 419.736 981.227 417.616 980.318 414.688C979.006 410.347 974.766 406.309 972.242 407.016C968.709 408.126 954.374 408.631 953.062 407.723C951.85 406.915 951.85 406.511 952.86 405.199C953.567 404.29 954.576 403.786 954.98 404.088C955.384 404.391 957.504 403.988 959.624 403.18L963.561 401.868L960.431 401.161C958.715 400.757 955.989 400.757 954.475 401.161C952.658 401.565 951.447 401.363 950.942 400.555C950.336 399.647 949.831 400.353 949.428 402.877C948.62 407.016 946.702 409.136 944.38 408.227C943.27 407.824 942.967 406.208 943.068 401.868C943.169 398.637 942.563 392.277 941.856 387.735C940.544 379.861 940.241 379.255 936.809 376.933L933.074 374.51L923.787 376.327C914.802 378.145 914.297 378.447 907.534 384.403C898.044 392.883 895.925 395.508 891.685 404.593C889.06 409.944 886.94 412.972 884.618 414.486C879.773 417.717 880.176 415.799 887.344 401.767C893.401 390.157 900.164 381.88 908.038 376.731C911.673 374.409 927.925 370.472 930.247 371.381C933.175 372.491 939.837 372.491 939.837 371.28C939.837 368.151 924.493 366.333 917.831 368.655C912.076 370.674 903.496 376.529 896.328 383.192C891.281 387.735 889.464 390.561 883.407 403.079C879.571 411.155 874.725 422.158 872.706 427.711C868.264 440.127 862.409 465.869 861.097 478.993C860.491 484.444 859.482 494.337 858.674 501C857.867 507.662 857.16 518.969 857.059 526.237C856.958 533.404 856.453 541.581 855.949 544.307C854.838 550.566 854.838 568.434 856.05 565.607C856.857 563.588 859.28 528.559 859.583 514.628C859.684 505.542 861.905 484.242 863.116 479.296C863.621 477.378 864.731 471.119 865.539 465.466C867.053 455.068 873.11 433.868 874.523 433.868C875.533 433.868 875.432 445.074 874.321 448.607C872.302 455.068 865.438 498.577 864.63 510.085C863.621 525.329 863.318 558.743 864.226 560.156C864.933 561.266 865.135 561.165 865.135 559.55C865.135 558.44 865.842 550.263 866.75 541.379C867.558 532.496 868.668 518.868 869.173 511.095C869.678 503.322 870.283 495.548 870.586 493.933C870.788 492.217 871.495 487.473 872.101 483.334C872.706 479.195 873.918 472.128 874.725 467.686C875.533 463.245 876.441 457.995 876.744 455.976C877.047 454.058 877.855 451.636 878.561 450.626C879.773 449.011 880.076 449.112 883.609 451.434C887.647 454.159 890.776 454.866 890.17 452.847C889.767 451.636 888.051 450.525 885.123 449.617C882.397 448.809 880.176 443.358 879.975 437.099C879.773 432.455 880.076 431.345 881.59 431.042C883.003 430.739 883.306 431.446 883.306 434.373C883.306 438.108 885.729 443.963 887.243 443.963C887.748 443.963 889.565 445.175 891.382 446.588C893.906 448.708 895.218 449.112 897.944 448.708C902.183 448.001 902.789 450.02 898.953 452.039C897.338 452.948 896.732 453.755 897.338 454.361C898.953 455.976 903.092 454.26 908.644 449.516C911.572 446.992 914.398 444.973 914.903 444.973C915.912 444.973 915.105 454.26 913.389 463.144C912.783 466.576 912.581 473.441 912.985 480.81C913.894 498.577 911.774 546.124 909.452 559.046C908.341 565.506 906.928 570.049 906.019 570.756C905.212 571.361 904.707 572.573 905.111 573.481C905.717 575.096 904 579.235 902.082 580.447C901.477 580.851 897.439 581.254 893.199 581.254C886.032 581.254 873.413 583.576 867.053 586.1C865.539 586.706 864.126 588.119 863.823 589.229C863.217 591.551 865.034 592.056 866.851 590.239C868.466 588.624 885.931 584.384 894.309 583.576L901.78 582.971L901.174 586.201C900.77 588.018 898.65 592.561 896.429 596.498C892.997 602.151 891.483 603.867 888.252 605.179C885.123 606.391 884.517 606.996 885.426 608.107C886.233 609.116 886.032 610.227 884.315 612.549C881.388 616.688 882.195 619.413 887.849 623.653C890.271 625.47 892.29 627.186 892.088 627.287C891.988 627.489 889.767 627.085 887.344 626.581C881.186 625.167 876.744 622.24 875.23 618.606C874.12 615.88 874.22 615.274 876.138 613.154C878.763 610.429 878.864 609.116 876.441 610.429C873.11 612.145 870.485 619.615 869.779 628.701C868.87 641.723 869.274 642.531 879.369 647.679C884.013 650.102 887.95 652.424 888.151 652.827C888.454 653.635 886.839 654.544 876.845 658.985C873.009 660.6 868.87 662.014 867.558 662.014C865.337 662.014 865.135 661.61 865.135 657.471C865.135 654.947 864.731 652.928 864.226 652.928C863.722 652.928 863.015 663.225 862.611 675.844C862.208 691.087 861.4 700.879 860.39 704.917C859.583 708.249 858.27 713.801 857.564 717.132C856.251 723.29 850.699 735.303 847.267 739.341C843.835 743.48 835.961 746.508 826.774 747.114C819.304 747.72 817.79 747.518 814.862 745.802C813.045 744.691 810.925 743.783 810.219 743.783C807.998 743.783 798.912 736.01 795.177 730.861C793.259 728.236 791.038 724.098 790.332 721.675C789.12 717.738 789.221 717.132 790.937 715.921C791.947 715.214 793.158 714.81 793.663 715.113C794.067 715.416 796.389 719.05 798.609 723.189C803.152 731.366 811.935 740.148 815.872 740.451C817.184 740.451 820.515 740.855 823.443 741.259C830.207 742.268 836.869 740.35 841.311 736.111C845.753 731.972 851.002 720.665 850.901 715.719C850.8 711.984 850.8 711.984 849.488 717.031C847.671 724.602 845.248 728.842 843.128 728.236C841.715 727.732 841.311 728.236 841.412 730.356C841.412 732.779 841.008 733.183 838.182 733.486C835.759 733.688 834.85 734.293 834.85 735.606C834.85 737.12 833.74 737.625 829.803 738.129C822.635 739.038 817.891 738.029 812.641 734.092C805.272 728.741 801.739 724.4 799.518 718.142C797.701 712.69 797.6 711.984 799.013 709.763C801.335 706.23 805.474 706.734 809.512 710.873C813.449 715.012 821.727 721.069 821.727 719.858C821.727 719.454 818.295 716.123 814.156 712.488C808.402 707.542 806.887 705.725 807.796 704.715C808.402 704.009 809.916 703.403 811.127 703.403C813.449 703.403 817.083 706.23 832.226 719.959C836.465 723.795 840.201 726.621 840.604 726.318C841.311 725.612 835.658 719.858 823.544 708.955C814.963 701.283 814.862 700.778 821.626 697.447C823.645 696.538 826.169 695.226 827.279 694.519C828.39 693.914 833.639 691.289 838.888 688.765C844.138 686.141 848.882 683.617 849.387 683.112C849.993 682.607 851.002 682.204 851.81 682.204C853.021 682.204 853.122 684.122 852.617 693.51C852.113 702.293 852.314 704.311 853.122 702.393C854.333 699.567 856.05 680.084 855.343 677.156C854.939 675.541 854.636 675.642 852.314 677.762C850.901 679.074 849.084 680.185 848.377 680.185C847.57 680.185 840.503 683.415 832.629 687.352C824.654 691.39 816.377 695.529 814.156 696.639C811.935 697.75 806.685 700.98 802.547 703.807C798.408 706.734 789.726 712.286 783.366 716.224C777.006 720.261 769.536 725.814 766.71 728.64C761.46 734.192 735.112 755.796 727.44 760.944C725.018 762.66 722.292 763.972 721.383 763.972C719.566 763.972 712.601 769.928 714.418 770.029C716.639 770.029 724.311 766.193 726.229 764.073C727.339 762.963 728.955 761.954 729.964 761.954C732.69 761.954 744.904 753.171 756.009 743.278C768.224 732.173 773.17 728.035 779.934 723.189L785.183 719.555L788.817 724.501C790.735 727.328 793.057 731.063 793.764 732.88C794.572 734.697 797.701 738.533 800.628 741.36C809.916 750.042 821.727 752.464 836.667 748.628C842.926 747.013 845.248 749.436 845.753 758.117C846.056 763.771 845.753 764.982 843.027 769.222C839.898 774.168 835.153 777.298 828.793 778.61C826.875 779.014 821.929 780.629 817.992 782.244C813.954 783.859 806.181 786.08 800.83 787.191C785.385 790.522 775.795 793.551 778.016 794.358C779.126 794.762 781.347 794.863 783.063 794.661C787.606 794.156 801.335 790.421 804.465 788.806C805.878 788.099 809.31 787.09 812.036 786.686C818.9 785.778 832.125 780.73 837.273 777.197C843.33 772.957 847.772 767.607 848.478 763.569C849.084 760.641 847.772 751.051 846.358 747.316C846.056 746.71 848.176 743.379 851.002 739.846C853.728 736.413 856.05 732.88 856.05 732.073C856.05 730.76 856.958 728.136 861.602 715.416C862.409 713.397 863.52 705.018 864.126 696.74C864.731 688.462 865.438 680.79 865.64 679.579C865.943 678.065 868.668 676.248 875.129 673.32C880.076 670.998 884.618 669.08 885.123 669.08C885.628 669.08 887.445 668.374 889.262 667.465C894.309 664.941 899.761 664.638 908.745 666.355C929.036 670.292 943.472 670.796 964.065 668.273C975.372 666.859 979.107 664.739 981.731 658.279C982.539 656.26 984.457 655.149 989.807 653.231C1000.51 649.597 999.902 649.395 999.801 657.471C999.7 676.954 998.792 697.548 998.085 698.053C997.681 698.255 997.58 698.86 997.883 699.365C998.186 699.87 997.278 701.889 995.864 704.009C991.725 710.167 992.836 715.113 999.297 719.757C1001.32 721.271 1004.44 722.785 1006.06 723.088C1007.68 723.492 1011.51 724.703 1014.54 725.814C1018.98 727.429 1022.41 727.833 1031.7 727.732C1038.06 727.631 1044.93 727.126 1046.94 726.621C1055.63 724.299 1063.6 717.839 1065.52 711.681C1066.73 707.744 1068.24 710.368 1067.54 715.214C1067.13 718.142 1067.24 719.555 1067.84 719.151C1068.45 718.848 1069.05 719.151 1069.36 719.757C1069.56 720.463 1070.16 719.858 1070.57 718.242C1070.97 716.728 1071.78 715.517 1072.28 715.517C1073.29 715.517 1072.99 718.545 1071.58 721.776C1071.17 722.785 1071.27 723.593 1071.88 723.593C1073.29 723.593 1075.11 718.041 1075.11 713.902C1075.11 710.268 1076.12 709.561 1078.14 711.984C1078.84 712.791 1079.05 714.305 1078.54 715.719C1077.94 717.738 1078.04 717.839 1079.45 716.728C1080.26 716.022 1081.27 715.82 1081.47 716.324C1082.38 717.738 1079.75 721.978 1077.33 723.088C1074.91 724.198 1074.3 727.631 1076.52 727.631C1078.24 727.631 1082.58 722.381 1084.09 718.545L1085.1 716.022V718.848C1085.2 720.362 1084.5 722.785 1083.59 724.098C1082.68 725.511 1082.38 726.621 1082.88 726.621C1084.3 726.621 1087.22 720.968 1087.22 718.142C1087.22 716.728 1087.73 715.517 1088.23 715.517C1090.25 715.517 1089.24 722.28 1086.72 726.117C1085.31 728.136 1084.7 729.65 1085.41 729.448C1086.11 729.246 1087.83 726.924 1089.24 724.299C1091.87 719.353 1093.28 718.343 1093.28 721.271C1093.28 722.684 1093.48 722.785 1094.19 721.675C1094.69 720.867 1095.3 720.766 1095.7 721.372C1096.41 722.482 1093.89 730.255 1091.97 732.476C1090.45 734.394 1090.05 739.947 1091.67 739.442C1092.78 739.038 1095.4 735.505 1098.73 729.549C1099.84 727.53 1100.85 726.621 1101.05 727.429C1101.86 729.549 1100.65 732.88 1097.22 738.029C1095.5 740.653 1094.29 743.076 1094.59 743.379C1095.5 744.287 1101.26 735.707 1102.57 731.467C1103.88 726.924 1104.89 726.621 1105.9 730.356C1106.3 732.173 1105.8 734.495 1103.88 738.029C1102.47 740.754 1101.46 743.278 1101.76 743.48C1102.47 744.186 1106.2 738.331 1106.91 735.404C1107.72 732.173 1109.43 730.76 1109.43 733.385C1109.33 736.615 1105.7 743.379 1102.87 745.6C1101.26 746.811 1100.25 748.023 1100.55 748.325C1101.46 749.335 1109.63 740.148 1110.14 737.524C1110.44 735.909 1111.05 734.697 1111.55 734.697C1112.46 734.697 1111.35 738.129 1109.33 741.966C1108.73 743.177 1106.4 746.004 1104.18 748.426C1101.36 751.455 1100.65 752.868 1101.66 752.868C1103.78 752.868 1109.94 746.71 1112.06 742.47C1113.07 740.754 1113.97 739.745 1114.18 740.451C1115.19 743.278 1109.03 750.849 1101.46 756.098C1098.02 758.521 1099.74 759.733 1103.38 757.512C1105.09 756.603 1106.4 756.199 1106.4 756.704C1106.4 758.723 1098.73 762.458 1089.04 765.184C1086.92 765.79 1085.2 766.597 1085.2 767.102C1085.2 768.212 1085.51 768.212 1088.54 767.102C1091.46 765.991 1092.78 766.698 1091.16 768.616C1090.35 769.626 1090.66 770.231 1092.57 771.14C1095.5 772.452 1100.85 770.837 1106.91 766.698C1112.66 762.761 1124.57 751.051 1124.57 749.335C1124.57 747.013 1126.59 747.922 1129.02 751.152L1131.04 753.878L1128.31 759.531C1126.19 763.771 1125.89 765.083 1127.1 764.679C1128.41 764.073 1128.41 764.275 1127 766.496C1125.08 769.424 1126.49 769.928 1128.92 767.203C1132.04 763.67 1133.66 758.42 1132.65 754.786C1131.44 750.546 1131.44 749.84 1132.55 749.84C1134.16 749.84 1149.71 761.954 1150.82 764.073C1152.44 766.9 1152.94 773.765 1151.73 776.389C1151.02 778.206 1150.92 778.004 1151.43 775.38C1151.73 773.563 1151.73 772.048 1151.43 772.048C1151.23 772.048 1149.31 774.774 1147.19 778.105C1145.17 781.437 1142.85 784.162 1142.14 784.162C1141.33 784.162 1140.73 784.566 1140.73 784.97C1140.73 785.475 1138.61 787.897 1135.98 790.522C1132.25 794.257 1131.64 795.267 1133.26 795.267C1134.97 795.368 1134.97 795.469 1132.75 797.286C1129.72 799.91 1131.84 799.809 1137.6 797.286C1141.03 795.671 1141.74 795.57 1140.73 796.781C1139.01 798.901 1119.43 808.491 1118.32 807.784C1116.8 806.876 1117.41 805.463 1121.04 801.627C1122.96 799.608 1124.37 797.69 1124.07 797.488C1123.87 797.286 1119.63 798.497 1114.78 800.314C1109.94 802.03 1104.59 803.545 1102.87 803.545C1098.23 803.545 1092.57 805.261 1091.97 806.775C1091.67 807.482 1089.95 808.39 1088.23 808.794C1086.01 809.198 1085.2 809.803 1085.51 810.813C1086.11 812.327 1083.59 813.337 1079.15 813.438C1077.63 813.438 1075.92 814.548 1074.81 815.961C1072.99 818.384 1073.09 818.485 1075.11 818.485C1076.32 818.485 1078.14 817.98 1079.15 817.476C1081.27 816.365 1082.48 817.375 1081.27 819.394C1079.95 821.514 1083.39 827.47 1086.01 827.571C1087.22 827.571 1088.23 827.167 1088.23 826.561C1088.23 826.056 1087.83 825.652 1087.32 825.854C1086.82 825.955 1086.42 825.552 1086.31 825.047C1086.31 824.441 1087.12 824.037 1088.13 824.037C1089.24 824.037 1090.45 823.734 1090.86 823.331C1091.26 822.826 1092.88 822.523 1094.49 822.523C1096.11 822.523 1098.73 821.816 1100.45 820.908C1103.38 819.495 1107.41 819.797 1107.41 821.413C1107.41 822.624 1102.26 824.441 1099.44 824.239C1098.13 824.138 1096.81 824.643 1096.51 825.451C1096.21 826.46 1096.51 826.662 1097.72 826.258C1098.63 825.854 1099.34 825.955 1099.34 826.46C1099.34 826.965 1097.22 827.873 1094.59 828.58C1091.87 829.186 1086.82 830.902 1083.29 832.315C1077.13 834.637 1075.72 834.738 1054.82 834.738C1042.81 834.738 1030.69 834.536 1027.97 834.233C1025.34 833.93 1016.36 832.921 1007.98 832.012C999.7 831.205 992.028 829.993 991.12 829.489C990.11 828.984 988.293 828.58 987.082 828.58C985.769 828.58 982.539 827.974 979.712 827.268C974.867 825.955 974.665 825.753 974.968 822.725C975.17 821.009 974.766 818.687 974.16 817.577C973.555 816.365 973.454 815.457 973.857 815.457C974.261 815.457 975.775 814.548 977.088 813.539L979.511 811.621L977.189 810.409C975.876 809.702 971.435 808.794 967.296 808.289C963.157 807.784 959.018 806.775 958.109 805.967C957.201 805.16 954.172 803.847 951.346 803.04C945.087 801.223 938.525 797.891 933.781 794.257C931.862 792.844 928.228 790.825 925.806 789.815C918.032 786.787 902.385 772.25 900.366 766.193C898.953 761.853 899.761 754.18 901.881 752.06C903.395 750.546 903.496 750.647 903.496 753.171C903.496 754.685 903.9 755.897 904.303 755.897C905.717 755.897 907.534 753.575 907.534 751.859C907.534 750.95 908.442 749.335 909.553 748.325C910.663 747.316 911.572 746.104 911.572 745.701C911.572 745.297 912.076 743.682 912.682 742.067L913.793 739.24L914.802 741.764L915.711 744.287L917.225 740.754C918.84 737.019 921.465 733.688 922.777 733.688C923.282 733.688 922.676 735.808 921.667 738.331C920.556 740.855 919.648 743.48 919.648 744.085C919.749 746.205 922.676 741.461 922.676 739.341C922.777 736.817 925.2 733.385 926.613 733.789C927.219 734.092 927.017 735.808 926.108 738.23C924.897 741.865 924.19 750.042 925.402 747.013C925.604 746.407 926.512 745.802 927.219 745.802C927.925 745.802 928.733 745.095 929.137 744.287C929.44 743.48 930.752 742.773 932.165 742.773C934.083 742.773 934.689 742.167 935.194 739.341C935.598 737.524 937.314 733.991 939.131 731.568C940.948 729.145 944.481 724.501 946.904 721.271C951.649 714.911 957.605 709.46 959.825 709.46C960.633 709.46 962.652 708.349 964.267 706.936C966.589 704.917 968.002 704.412 970.223 704.917C972.343 705.422 973.252 705.119 974.059 703.605C975.473 700.879 982.943 698.961 993.341 698.456C995.057 698.456 996.369 697.952 996.369 697.548C996.369 694.923 968.709 700.274 960.835 704.513C954.576 707.845 943.472 716.123 939.837 720.261C937.314 723.189 935.295 724.602 934.386 724.299C933.478 723.896 930.853 724.804 928.531 726.117C926.108 727.53 923.383 728.64 922.474 728.64C921.566 728.64 919.446 729.751 917.831 731.164C916.114 732.577 914.095 733.688 913.288 733.688C912.48 733.688 910.36 735.404 908.644 737.423C906.928 739.543 904.505 742.369 903.193 743.783C900.366 746.71 895.925 757.916 894.41 765.79C893.098 772.654 894.208 782.547 896.732 787.696C901.981 798.194 919.244 810.106 940.342 817.879C945.894 819.898 954.98 823.331 960.532 825.552C966.084 827.671 973.151 829.791 976.179 830.094C979.208 830.498 986.274 831.608 991.826 832.618C1009.39 835.949 1019.39 836.757 1045.33 836.959C1074.5 837.161 1078.74 836.757 1097.12 832.618C1121.14 827.066 1138.81 818.586 1152.54 805.967C1157.89 801.122 1158.8 798.093 1159 783.153C1159.2 773.058 1159 771.039 1157.18 767.506C1154.86 763.165 1150.22 758.218 1149.21 759.127C1148.9 759.43 1146.88 757.714 1144.56 755.392C1141.23 751.758 1132.45 745.6 1128.11 743.884C1127.6 743.682 1123.26 739.644 1118.52 734.899C1113.77 730.155 1104.69 722.381 1098.23 717.435C1086.62 708.753 1086.42 708.45 1079.85 697.144C1076.22 690.885 1072.59 683.92 1071.68 681.699C1070.77 679.579 1068.24 675.44 1066.02 672.512L1062.09 667.364L1063 643.237C1063.5 629.912 1064.41 612.044 1064.91 603.463C1066.23 584.586 1067.24 558.642 1067.54 539.36C1067.64 531.587 1068.04 517.757 1068.45 508.571C1068.85 499.385 1069.36 486.665 1069.56 480.305C1070.16 464.355 1070.87 448.809 1072.18 426.802C1073.09 411.761 1073.8 406.612 1075.82 400.252C1078.14 392.883 1078.24 392.277 1076.62 390.46C1075.72 389.451 1073.6 388.038 1071.98 387.432C1066.12 385.009 1058.96 376.226 1058.96 371.583C1058.96 370.371 1058.15 368.756 1057.04 368.05C1054.41 366.132 1053.91 363.608 1054.72 355.633C1055.42 348.768 1055.53 348.566 1059.16 346.85C1064.81 344.226 1065.82 342.005 1065.22 334.333C1064.91 329.588 1065.12 327.872 1066.02 327.872C1066.83 327.872 1067.03 328.679 1066.63 330.396C1066.12 332.314 1066.53 333.222 1068.45 334.534C1071.37 336.352 1073.09 335.746 1073.09 332.818C1073.09 331.506 1074.2 330.295 1076.42 329.386C1081.37 327.266 1088.03 319.796 1090.35 313.739C1094.39 303.139 1093.99 280.224 1089.65 275.277C1088.43 273.965 1088.43 273.056 1089.75 269.321C1090.55 266.999 1091.26 263.163 1091.26 260.842C1091.26 255.087 1087.83 233.888 1086.52 231.465C1085.91 230.355 1085.2 227.73 1084.8 225.61C1083.99 221.471 1077.73 207.944 1074.1 202.594C1069.46 195.83 1063.4 190.379 1056.74 186.947C1050.58 183.817 1049.37 183.514 1044.32 184.12C1040.58 184.625 1038.77 185.231 1038.77 186.139C1038.77 186.947 1039.68 187.552 1040.79 187.552C1043.61 187.552 1048.66 190.177 1051.99 193.306C1054.31 195.426 1055.02 195.628 1056.84 194.619C1058.76 193.609 1059.77 194.114 1065.32 198.758C1072.18 204.512 1076.12 210.569 1079.85 221.269C1082.98 230.254 1083.79 244.286 1081.77 253.977C1078.84 268.009 1064.81 292.943 1053.91 303.846C1049.47 308.187 1046.84 309.802 1046.84 308.086C1046.84 307.682 1048.66 305.36 1050.88 302.937C1053.3 300.414 1054.72 298.092 1054.31 297.385C1053.81 296.578 1052.09 297.789 1049.47 300.716C1044.52 306.168 1038.77 310.71 1033.01 313.638C1028.17 316.061 1026.65 317.777 1029.48 317.777C1030.59 317.777 1034.43 315.758 1038.16 313.234C1045.33 308.288 1046.84 308.893 1041.59 314.647C1037.96 318.383 1039.17 317.979 1045.33 313.335C1051.99 308.288 1058.86 301.524 1064.71 294.256C1069.25 288.603 1070.57 287.492 1072.38 288.098C1073.6 288.401 1075.01 289.107 1075.41 289.511C1077.73 291.631 1065.22 308.389 1054.62 317.575C1047.65 323.531 1034.12 330.9 1030.19 330.9C1025.54 330.9 1025.85 327.872 1030.79 323.632C1035.44 319.594 1035.44 318.383 1030.89 321.714C1026.55 324.742 1020.5 327.569 1012.92 330.093C1007.17 332.011 1003.94 332.415 993.845 332.314C983.448 332.314 980.52 331.91 973.555 329.588C965.176 326.761 952.557 319.291 947.711 314.143C946.197 312.528 944.077 308.893 942.866 306.168C937.718 294.256 936.708 290.218 936.203 276.892C935.497 259.327 937.011 255.289 942.159 260.539C946.399 264.678 950.336 266.798 954.98 267.302C959.523 267.807 959.523 267.807 960.128 272.35C960.936 278.104 964.166 283.555 970.526 290.218C973.958 293.751 976.583 295.568 979.006 296.073C980.924 296.376 983.246 297.082 984.154 297.587C989 300.212 1000.31 300.817 1005.45 298.899C1006.26 298.597 1007.88 298.092 1008.99 297.89C1010 297.688 1012.42 296.678 1014.34 295.568C1018.68 292.943 1019.59 293.044 1019.59 296.073C1019.59 299 1020.6 299.202 1024.63 297.082C1027.46 295.669 1027.66 295.669 1027.66 297.284C1027.66 298.294 1026.75 299.707 1025.64 300.414C1023.52 301.726 1022.82 304.653 1024.63 304.653C1025.24 304.653 1028.07 303.038 1030.89 301.12C1033.82 299.202 1036.34 297.89 1036.65 298.092C1037.46 298.899 1035.13 300.817 1030.49 303.139C1028.07 304.351 1026.05 306.067 1025.85 306.975C1025.54 308.187 1025.95 308.49 1027.16 308.086C1028.17 307.682 1029.28 307.985 1029.68 308.792C1030.39 309.903 1031.1 309.903 1033.92 308.49C1037.66 306.773 1048.86 297.587 1048.86 296.376C1048.86 294.66 1046.24 295.77 1043.11 298.798C1041.29 300.616 1039.78 301.524 1039.78 301.019C1039.78 300.414 1041.39 298.496 1043.31 296.578C1045.63 294.357 1046.54 292.842 1045.83 292.136C1045.23 291.53 1044.12 291.833 1042.81 293.044C1040.38 295.265 1040.18 294.357 1042.4 290.924C1045.43 286.483 1043.01 287.088 1037.25 292.439C1034.12 295.265 1031.2 297.587 1030.79 297.587C1028.98 297.587 1030.59 293.246 1033.52 290.42C1038.57 285.473 1037.76 283.555 1032.51 287.997C1029.08 290.823 1027.36 290.622 1029.99 287.694C1030.99 286.685 1031.7 285.069 1031.7 284.06C1031.7 283.151 1034.12 279.113 1037.15 275.075C1040.18 271.037 1043.61 265.99 1044.82 263.769L1047.05 259.731L1046.34 263.264L1045.53 266.798L1047.75 264.274L1049.87 261.75L1049.27 264.678C1048.16 269.22 1051.08 267.504 1052.9 262.457C1053.71 260.034 1054.92 258.419 1055.53 258.621C1056.13 258.823 1057.24 258.52 1057.85 257.914C1058.76 257.005 1058.86 257.611 1058.35 260.135C1057.34 264.98 1059.36 263.466 1061.58 257.712C1063.4 252.766 1062.69 250.444 1060.37 253.573C1058.96 255.491 1058.96 255.491 1058.96 253.27C1058.96 251.655 1058.55 251.15 1057.44 251.554C1056.64 251.857 1055.93 251.655 1055.93 251.049C1055.93 250.545 1054.82 250.343 1053.41 250.747C1050.38 251.453 1048.86 248.929 1050.68 246.002C1052.29 243.478 1050.28 233.686 1047.15 228.639C1043.82 223.389 1042.7 223.995 1044.42 230.153C1046.24 237.118 1046.24 242.57 1044.32 244.488C1042.6 246.204 1042.3 247.516 1043.82 246.608C1045.83 245.295 1045.94 249.232 1044.02 254.482C1040.28 264.476 1035.84 272.754 1031.2 278.609C1026.65 284.464 1024.63 285.776 1024.63 282.949C1024.63 280.829 1024.23 280.93 1017.67 285.574C1013.93 288.199 1011.21 289.511 1010.4 289.006C1009.49 288.401 1010.1 287.391 1012.52 285.372C1014.44 283.757 1015.65 282.142 1015.25 281.839C1014.84 281.435 1013.93 281.738 1013.03 282.445C1010.6 284.464 1011.31 282.747 1014.04 280.022C1017.06 276.993 1017.16 276.186 1014.54 274.571C1012.72 273.46 1011.71 273.864 1006.06 277.397C1002.63 279.618 998.287 281.738 996.47 282.041C993.441 282.647 993.24 282.949 993.441 286.584C993.643 288.703 993.441 290.722 993.038 291.126C992.634 291.53 992.331 291.328 992.331 290.722C992.331 290.016 991.322 289.511 990.009 289.511C988.697 289.511 987.183 289.006 986.577 288.401C985.971 287.795 984.356 286.685 983.044 286.079C981.832 285.473 980.621 283.858 980.419 282.647C980.217 281.435 979.41 280.426 978.602 280.426C977.794 280.426 976.28 278.911 975.17 277.094C974.059 275.378 972.848 273.864 972.444 273.864C971.939 273.864 971.737 273.056 971.838 272.047C972.04 270.936 971.435 270.331 970.122 270.331C967.598 270.331 967.296 265.788 969.718 264.879C972.343 263.87 973.353 264.173 972.848 265.687C972.444 266.697 973.958 268.009 977.492 269.826C980.419 271.34 984.154 274.167 985.87 275.984C989.807 280.224 991.826 280.325 1002.12 276.791C1016.86 271.744 1026.45 260.135 1027.36 246.204C1027.87 239.743 1027.76 239.44 1023.73 234.09C1018.88 227.629 1017.16 222.885 1018.07 218.544C1018.38 216.727 1018.78 214.405 1018.78 213.294C1018.98 209.66 1016.76 197.546 1015.65 196.234C1015.04 195.628 1014.34 193.206 1013.93 190.884C1013.43 187.35 1013.63 186.543 1015.65 185.13C1017.97 183.514 1017.97 183.514 1013.63 183.514C1011.11 183.514 1008.38 182.909 1007.57 182.101C1006.46 181.092 1005.35 180.89 1004.55 181.495C1003.33 182.202 1003.33 182.808 1004.85 185.029C1005.86 186.543 1006.36 187.956 1006.06 188.36C1005.76 188.663 1005.45 188.36 1005.45 187.754C1005.45 187.048 1004.85 186.543 1004.04 186.543C1003.33 186.543 1001.42 185.533 999.902 184.322C997.58 182.505 997.379 182.101 998.792 181.294C1000.1 180.587 1000.21 180.082 999.095 179.073C996.47 176.347 986.274 175.237 975.573 176.347ZM1013.13 194.316C1012.92 194.518 1013.33 197.143 1014.14 199.969C1017.06 210.872 1014.74 224.399 1007.98 235.806C1004.85 241.257 991.624 254.785 990.615 253.775C990.312 253.573 993.341 250.242 997.177 246.406C1004.65 239.036 1008.18 232.778 1010.91 222.279C1012.72 215.112 1013.03 201.483 1011.41 198.455C1010.8 197.344 1009.9 195.023 1009.49 193.508C1008.68 190.682 1008.68 190.682 1011.11 192.297C1012.52 193.105 1013.43 194.114 1013.13 194.316ZM953.97 194.922C953.97 195.124 952.355 196.84 950.235 198.758L946.601 202.19L949.428 198.354C951.749 195.325 953.97 193.508 953.97 194.922ZM954.98 198.152C953.668 199.565 952.355 200.474 952.052 200.171C951.447 199.565 956.292 194.72 956.898 195.225C957.201 195.426 956.292 196.739 954.98 198.152ZM958.008 199.162C958.008 200.171 949.63 210.771 948.822 210.771C947.106 210.771 947.913 208.853 951.951 203.805C955.485 199.363 958.008 197.445 958.008 199.162ZM960.33 204.007C955.586 210.165 952.961 212.79 951.951 212.79C950.235 212.79 953.668 206.935 956.292 205.622C957.504 204.916 958.917 203.805 959.321 203.099C959.724 202.291 960.633 201.685 961.138 201.685C961.743 201.685 961.34 202.695 960.33 204.007ZM943.875 206.228C943.169 207.137 942.361 207.54 942.058 207.237C941.755 207.036 942.159 206.127 942.866 205.218C943.573 204.31 944.38 203.906 944.683 204.209C944.986 204.411 944.582 205.319 943.875 206.228ZM964.065 212.285C963.359 213.093 962.349 213.496 961.844 213.193C961.34 212.891 961.743 211.679 962.753 210.569C964.772 208.348 965.983 209.963 964.065 212.285ZM1010.7 244.286C1010.6 245.8 1011.31 248.627 1012.42 250.747C1015.95 257.207 1013.43 258.823 1005.86 254.986C1000.51 252.362 1000.21 250.444 1004.55 244.892C1008.18 240.349 1011.21 240.046 1010.7 244.286ZM968.911 272.148C969.416 273.864 966.185 274.873 964.772 273.46C963.863 272.552 963.964 272.047 965.075 271.34C966.892 270.23 968.305 270.533 968.911 272.148ZM1008.89 278.911C1005.96 281.132 1004.65 280.628 1007.37 278.306C1008.68 277.195 1010 276.59 1010.3 276.892C1010.6 277.195 1010 278.104 1008.89 278.911ZM1077.63 298.496C1077.94 299.101 1077.23 300.01 1076.12 300.616C1073.9 301.827 1073.8 301.625 1074.71 299.202C1075.41 297.385 1076.72 297.082 1077.63 298.496ZM1089.14 301.322C1090.66 304.048 1088.84 306.471 1085.71 305.865C1082.28 305.259 1081.67 303.947 1083.79 301.524C1085.91 299.101 1087.83 299.101 1089.14 301.322ZM1078.14 307.177C1078.14 308.59 1077.73 309.701 1077.13 309.701C1076.62 309.701 1076.12 308.59 1076.12 307.177C1076.12 305.764 1076.62 304.653 1077.13 304.653C1077.73 304.653 1078.14 305.764 1078.14 307.177ZM1082.18 313.234C1082.18 315.96 1083.08 316.465 1085 314.546C1086.72 312.83 1086.52 314.95 1084.6 317.575C1082.28 320.906 1077.73 320.301 1077.33 316.666C1077.03 314.143 1079.25 310.71 1081.27 310.71C1081.77 310.71 1082.18 311.821 1082.18 313.234ZM1061.38 320.704C1063.5 323.026 1064.31 332.011 1062.89 337.361C1061.89 341.197 1061.89 341.197 1057.34 340.692C1050.98 339.986 1049.87 338.774 1049.87 332.112C1049.87 326.963 1050.17 326.055 1053.61 322.622C1057.85 318.282 1058.96 317.979 1061.38 320.704ZM1050.38 344.024C1050.07 344.528 1049.17 345.033 1048.36 345.033C1047.55 345.033 1046.64 344.528 1046.34 344.024C1045.94 343.418 1046.84 343.014 1048.36 343.014C1049.87 343.014 1050.78 343.418 1050.38 344.024ZM1046.44 356.844C1046.64 364.516 1045.63 366.737 1042.1 366.031C1039.68 365.627 1038.26 359.772 1039.17 353.715C1039.88 349.071 1039.98 348.97 1043.11 349.273L1046.34 349.576L1046.44 356.844ZM1047.65 374.813C1047.75 375.924 1046.54 378.245 1044.72 380.164C1041.19 383.899 1039.78 383.899 1042.2 380.164C1043.61 378.044 1043.61 377.438 1042.3 375.722C1040.08 372.794 1040.48 372.088 1044.12 372.491C1046.44 372.693 1047.45 373.299 1047.65 374.813ZM1060.67 380.668C1063.7 383.697 1068.95 387.836 1071.37 389.047C1074.4 390.662 1074.71 391.672 1072.79 393.287C1071.48 394.397 1050.58 396.416 1047.65 395.71C1045.73 395.205 1045.13 393.489 1046.84 393.489C1048.16 393.489 1048.16 389.754 1046.94 388.946C1045.73 388.239 1047.45 382.99 1049.47 381.274C1050.58 380.365 1051.29 380.466 1052.5 381.476C1053.91 382.586 1054.31 382.485 1055.53 380.87C1056.33 379.861 1056.94 378.245 1056.94 377.438C1057.04 376.126 1057.34 376.226 1058.45 377.842C1059.26 378.952 1060.27 380.264 1060.67 380.668ZM1032.31 379.962C1033.01 382.889 1031.8 386.12 1028.07 391.066C1025.04 395.003 1024.84 395.003 1017.77 392.984C1011.21 390.965 1010.91 388.946 1017.06 388.038C1020.9 387.432 1022.21 386.523 1025.75 382.283C1028.07 379.558 1030.39 377.337 1030.79 377.337C1031.3 377.337 1032 378.548 1032.31 379.962ZM934.184 382.485C937.919 385.413 939.535 389.148 940.443 396.214C940.948 401.565 940.746 402.978 938.929 405.906C937.818 407.824 936.809 409.641 936.809 410.044C936.809 411.155 944.178 413.679 945.995 413.174C947.106 412.77 949.125 413.275 950.639 414.082C952.254 414.991 955.989 416.303 959.018 417.111C963.157 418.12 964.57 418.928 964.57 420.24C964.57 423.168 961.642 424.379 957.705 422.966C955.888 422.259 952.254 421.755 949.831 421.755C947.308 421.755 944.784 421.25 944.077 420.543C943.27 419.736 938.626 419.231 930.55 419.13C919.143 418.928 918.133 418.827 916.417 416.707C914.297 414.082 914.095 409.742 915.912 407.218C916.619 406.309 919.648 404.896 922.575 404.29C927.925 403.079 930.853 400.555 927.017 400.555C919.042 400.555 908.543 407.117 908.543 412.164C908.543 415.597 905.717 415.597 898.852 412.063L892.795 408.934L894.007 405.401C895.925 399.849 897.843 397.426 906.019 390.057C911.572 385.11 914.903 382.889 918.436 381.88C925.906 379.861 931.055 380.063 934.184 382.485ZM1032.21 394.498C1032.51 395.003 1032.11 395.508 1031.2 395.508C1030.29 395.508 1029.88 395.003 1030.19 394.498C1030.49 393.893 1030.99 393.489 1031.2 393.489C1031.4 393.489 1031.9 393.893 1032.21 394.498ZM1052.4 401.666C1052.9 402.17 1054.62 402.574 1056.23 402.574C1058.76 402.574 1059.06 402.776 1057.95 404.088C1057.14 404.997 1054.92 405.603 1052.19 405.603C1049.47 405.603 1047.95 406.007 1048.36 406.612C1048.66 407.117 1050.28 407.622 1051.79 407.622C1054.52 407.622 1054.62 407.824 1054.21 411.559C1053.91 413.78 1054.21 415.799 1054.82 416.202C1055.53 416.606 1055.93 415.395 1055.93 412.669C1055.93 408.227 1056.03 408.126 1063.3 407.117C1067.24 406.612 1068.14 406.814 1068.75 408.227C1069.05 409.136 1068.85 410.65 1068.24 411.559C1065.42 415.395 1065.01 419.231 1064.51 449.213C1064.21 466.576 1063.5 491.208 1063 504.028C1061.58 537.341 1060.17 576.813 1059.46 598.416C1058.65 627.388 1057.04 666.456 1056.33 677.863C1055.83 685.131 1055.93 688.261 1056.74 688.261C1057.54 688.261 1057.54 689.169 1056.74 691.39C1055.93 693.611 1056.03 694.822 1056.84 695.63C1058.25 697.043 1058.35 704.816 1056.94 703.908C1054.72 702.494 1056.03 709.157 1058.45 711.479C1061.48 714.305 1060.88 715.517 1056.64 715.517C1054.82 715.517 1052.7 715.921 1051.89 716.526C1050.78 717.233 1049.97 716.526 1048.36 713.7C1046.54 710.57 1045.73 709.965 1043.21 710.167C1039.37 710.469 1032.61 713.498 1033.32 714.608C1033.62 715.113 1035.13 715.517 1036.75 715.517C1040.28 715.517 1041.09 716.627 1039.88 719.959C1039.17 721.675 1037.66 722.785 1035.13 723.492C1030.69 724.703 1027.87 723.189 1024.63 717.94C1022.62 714.709 1022.51 713.195 1022.62 690.582C1022.62 677.358 1022.92 658.783 1023.12 649.395C1023.93 623.855 1025.64 568.939 1026.65 541.379C1027.06 528.054 1027.66 505.341 1027.97 490.905C1028.27 476.469 1029.08 454.26 1029.58 441.541C1030.59 419.938 1030.59 418.322 1028.98 417.111C1027.26 415.9 1027.26 415.597 1029.38 411.761C1031.7 407.723 1031.6 404.593 1029.18 404.593C1027.06 404.593 1026.35 402.675 1027.76 400.858C1028.98 399.546 1030.79 399.344 1040.28 399.95C1046.34 400.353 1051.79 401.06 1052.4 401.666ZM1069.05 401.969C1069.05 402.271 1068.65 402.776 1068.04 403.079C1067.54 403.382 1067.03 403.18 1067.03 402.675C1067.03 402.069 1067.54 401.565 1068.04 401.565C1068.65 401.565 1069.05 401.767 1069.05 401.969ZM908.341 421.351C909.553 422.158 910.562 423.774 910.562 424.884C910.562 426.499 910.158 426.802 908.341 426.297C906.019 425.591 901.578 421.048 901.477 419.433C901.477 418.423 905.313 419.534 908.341 421.351ZM901.477 425.793C905.212 429.528 903.395 437.2 897.843 441.44C895.319 443.358 892.896 443.358 889.868 441.339C887.748 439.925 887.344 438.916 887.344 434.878C887.344 428.417 888.051 426.802 891.786 425.187C896.227 423.269 899.155 423.471 901.477 425.793ZM909.149 435.484C908.745 436.796 908.038 437.906 907.534 437.906C906.12 437.906 906.322 433.162 907.736 430.537L909.048 428.316L909.351 430.739C909.553 431.95 909.452 434.171 909.149 435.484ZM959.22 436.19C960.128 437.402 961.642 439.219 962.551 440.228C964.065 441.944 964.065 442.247 962.349 444.165C960.633 446.083 959.825 446.184 950.942 445.478C945.693 445.175 938.222 444.165 934.285 443.358C930.449 442.55 925.906 442.045 924.19 442.247C920.758 442.449 920.455 441.44 922.878 437.906C924.19 436.19 925.503 435.484 927.623 435.686C929.541 435.787 930.752 435.383 931.156 434.272C931.661 432.859 933.377 432.758 944.582 433.364C956.191 433.969 957.705 434.272 959.22 436.19ZM1020.29 444.67C1020.09 446.285 1019.89 445.175 1019.89 442.449C1019.89 439.623 1020.09 438.411 1020.29 439.623C1020.5 440.935 1020.5 443.156 1020.29 444.67ZM910.158 442.651C909.149 443.661 908.24 442.146 909.149 440.834C909.755 439.724 909.956 439.724 910.36 440.834C910.562 441.541 910.461 442.348 910.158 442.651ZM945.087 458.197C944.885 462.336 944.582 471.119 944.481 477.781C943.169 523.209 942.664 536.332 941.755 544.307C940.14 558.945 939.434 593.974 940.645 599.728C943.169 612.549 944.885 622.644 944.885 625.571C944.885 628.398 944.582 628.701 941.655 628.6C937.011 628.499 931.257 626.177 931.459 624.562C931.56 623.754 932.367 619.514 933.175 615.072C934.083 610.631 935.194 601.04 935.699 593.873C936.203 586.605 937.112 577.115 937.718 572.674C938.323 568.232 939.333 552.989 939.837 538.856C940.443 524.723 941.453 508.571 941.957 503.019C942.462 497.366 942.866 483.939 942.765 473.239C942.563 449.415 942.563 449.718 944.178 450.323C944.986 450.626 945.289 452.847 945.087 458.197ZM1019.08 495.649C1018.78 505.24 1018.28 524.925 1018.07 539.36C1017.27 582.769 1016.66 592.359 1014.34 592.359C1013.73 592.359 1013.53 590.037 1013.83 586.504C1014.14 583.374 1014.54 569.342 1014.84 555.31C1015.15 541.379 1015.55 529.568 1015.85 529.064C1016.46 527.953 1017.47 509.883 1017.67 495.952C1017.77 484.747 1018.38 478.286 1019.28 478.286C1019.49 478.286 1019.49 486.16 1019.08 495.649ZM1013.93 626.883C1013.43 635.969 1013.03 638.291 1012.52 635.565C1012.12 633.445 1012.12 629.609 1012.52 626.984C1012.92 624.259 1012.92 621.432 1012.52 620.625C1011.81 619.211 1011.92 618.505 1013.13 614.669C1014.34 610.833 1014.64 615.678 1013.93 626.883ZM1000.21 622.543C999.599 627.792 992.937 630.013 967.598 633.647C962.349 634.354 960.431 634.354 959.825 633.445C959.119 632.335 964.368 630.72 974.16 629.205C982.438 627.792 988.798 625.066 992.836 621.129C996.47 617.495 997.076 617.192 998.691 618.505C999.801 619.413 1000.41 621.028 1000.21 622.543ZM917.629 631.729C920.556 634.556 921.263 634.757 925.301 634.152C928.329 633.748 929.743 633.849 929.743 634.657C929.743 635.262 930.449 635.767 931.156 635.767C933.074 635.767 942.462 640.713 942.058 641.521C941.856 641.824 942.26 642.531 943.068 642.934C943.976 643.54 943.27 643.843 941.15 643.843C939.333 643.843 937.818 644.247 937.818 644.852C937.818 645.357 939.636 645.862 941.856 645.862C944.178 645.862 945.894 646.367 945.894 646.972C945.894 647.679 944.885 647.881 943.472 647.477C940.443 646.77 937.617 647.679 938.525 649.193C938.929 649.9 938.525 650.001 937.213 649.496C935.598 648.89 926.411 648.487 920.455 648.789C919.446 648.89 918.638 649.496 918.638 650.304C918.638 652.424 915.408 653.231 913.692 651.515C912.379 650.102 912.379 649.597 913.894 646.468C916.013 641.925 915.206 632.738 912.682 632.94C908.745 633.243 905.515 632.638 905.515 631.628C905.515 630.921 906.524 630.72 907.938 630.921C909.452 631.224 910.663 630.921 910.966 630.114C911.875 627.893 914.297 628.499 917.629 631.729ZM942.361 632.738C942.058 633.243 940.443 633.748 938.727 633.748C937.112 633.748 935.799 633.243 935.799 632.738C935.799 632.133 937.415 631.729 939.434 631.729C941.554 631.729 942.765 632.133 942.361 632.738ZM955.989 632.738C955.989 634.051 952.456 634.757 947.207 634.455C940.443 634.152 944.38 632.133 952.254 631.83C954.273 631.83 955.989 632.133 955.989 632.738ZM1013.13 649.698C1012.02 650.707 1011.71 649.395 1012.32 646.367L1013.03 643.338L1013.33 646.165C1013.53 647.78 1013.43 649.294 1013.13 649.698ZM928.733 653.534C928.733 653.736 928.026 653.938 927.219 653.938C926.411 653.938 925.705 653.534 925.705 652.928C925.705 652.424 926.411 652.222 927.219 652.525C928.026 652.928 928.733 653.332 928.733 653.534ZM889.868 657.572C890.776 658.481 891.382 659.995 891.18 660.903C890.776 662.922 883.104 666.657 874.22 669.181C865.236 671.806 864.327 671.705 864.933 668.475C865.236 666.556 866.447 665.446 869.072 664.336C871.091 663.528 875.937 661.408 879.773 659.49C888.051 655.452 887.748 655.452 889.868 657.572ZM1009.19 660.701C1008.89 661.711 1008.68 660.903 1008.68 658.985C1008.68 657.067 1008.89 656.26 1009.19 657.168C1009.39 658.178 1009.39 659.793 1009.19 660.701ZM1012.42 677.156C1012.02 680.084 1011.81 677.762 1011.81 670.594C1011.81 661.307 1011.92 660.6 1012.42 666.052C1012.82 669.686 1012.72 674.632 1012.42 677.156ZM925.2 662.216C932.468 663.629 934.285 665.648 927.522 664.638C925.099 664.336 921.868 663.932 920.253 663.831C918.638 663.629 917.124 662.922 916.922 662.216C916.316 660.701 917.124 660.701 925.2 662.216ZM942.26 662.922C942.967 664.033 940.544 665.042 937.314 665.042C934.79 665.042 933.377 663.831 934.487 662.619C935.497 661.711 941.655 661.913 942.26 662.922ZM963.056 662.922C963.056 664.134 960.229 665.143 959.624 664.134C959.321 663.629 959.321 663.023 959.724 662.619C960.633 661.711 963.056 661.913 963.056 662.922ZM947.913 664.033C947.913 665.345 946.803 665.345 944.885 664.033C943.674 663.225 943.774 663.023 945.693 663.023C946.904 663.023 947.913 663.427 947.913 664.033ZM1067.64 680.387C1072.28 686.544 1077.43 697.043 1076.42 698.557C1075.51 700.274 1071.07 699.264 1069.56 697.043C1063.3 688.16 1062.59 686.645 1062.19 680.387C1061.99 676.954 1061.99 674.128 1062.29 674.128C1062.59 674.128 1065.01 676.954 1067.64 680.387ZM1009.39 693.005C1009.29 699.365 1008.99 700.677 1008.58 697.851C1007.98 693.813 1008.28 684.223 1009.09 684.223C1009.29 684.223 1009.39 688.16 1009.39 693.005ZM1064.51 693.207C1065.12 696.034 1063.4 700.374 1061.78 700.374C1060.77 700.374 1060.67 690.885 1061.58 689.977C1062.69 688.866 1063.8 690.179 1064.51 693.207ZM1019.49 701.081C1019.49 702.696 1019.08 704.816 1018.58 705.927C1017.97 707.441 1017.67 706.734 1017.67 703.1C1017.57 700.475 1018.07 698.355 1018.58 698.355C1019.18 698.355 1019.59 699.567 1019.49 701.081ZM1069.05 704.513C1069.05 706.33 1066.83 706.532 1065.52 704.816C1063.1 701.586 1063.6 700.072 1066.53 701.99C1067.94 702.898 1069.05 704.009 1069.05 704.513ZM1009.49 706.835C1009.49 707.643 1009.09 708.551 1008.58 708.955C1007.37 709.662 1006.16 707.744 1006.97 706.431C1007.88 704.917 1009.49 705.22 1009.49 706.835ZM1098.63 727.126C1098.13 728.438 1096.31 729.347 1096.31 728.236C1096.31 726.722 1097.72 724.703 1098.43 725.107C1098.83 725.41 1099.03 726.318 1098.63 727.126ZM1115.59 745.499C1114.78 747.013 1114.58 747.013 1114.48 745.701C1114.48 743.985 1115.49 742.47 1116.3 743.177C1116.5 743.48 1116.2 744.489 1115.59 745.499ZM1121.14 748.628C1119.83 751.253 1117.91 753.171 1108.62 761.247C1104.18 764.982 1098.33 767.304 1098.33 765.184C1098.33 764.376 1111.96 754.887 1113.07 754.887C1113.97 754.887 1118.52 749.436 1120.23 746.306C1122.35 742.47 1123.16 744.59 1121.14 748.628ZM1155.06 780.629C1154.56 783.254 1147.29 792.238 1145.57 792.238C1145.07 792.238 1146.18 790.32 1147.99 787.897C1149.91 785.576 1152.23 782.446 1153.14 780.831C1155.36 777.5 1155.77 777.399 1155.06 780.629ZM1148.1 784.97C1144.87 789.311 1143.55 788.705 1146.48 784.162C1147.99 781.841 1149.41 780.528 1149.61 781.134C1149.91 781.841 1149.21 783.557 1148.1 784.97ZM1140.73 791.734C1140.02 792.541 1139.01 793.248 1138.51 793.248C1137.9 793.248 1138 792.541 1138.71 791.734C1139.41 790.926 1140.42 790.219 1140.93 790.219C1141.53 790.219 1141.43 790.926 1140.73 791.734ZM1100.35 814.447C1100.35 814.952 1099.84 815.457 1099.24 815.457C1098.73 815.457 1098.53 814.952 1098.83 814.447C1099.14 813.841 1099.64 813.438 1099.94 813.438C1100.14 813.438 1100.35 813.841 1100.35 814.447ZM966.084 818.687C966.084 820.1 965.68 820.1 963.561 819.192C960.33 817.677 960.33 816.668 963.561 816.87C965.176 816.87 966.084 817.577 966.084 818.687Z" fill="black"/>
<path d="M1042 353.917C1041.29 355.229 1040.79 357.955 1040.99 359.974C1041.29 363.608 1041.29 363.608 1042.6 361.387C1043.31 360.075 1043.82 357.349 1043.61 355.33C1043.31 351.696 1043.31 351.696 1042 353.917Z" fill="black"/>
<path d="M933.275 401.565C932.973 402.069 933.376 402.574 934.184 402.574C935.092 402.574 935.799 402.069 935.799 401.565C935.799 400.959 935.395 400.555 934.891 400.555C934.285 400.555 933.578 400.959 933.275 401.565Z" fill="black"/>
<path d="M1034.53 406.31C1035.24 406.613 1036.14 406.512 1036.45 406.209C1036.85 405.907 1036.24 405.604 1035.13 405.705C1034.02 405.705 1033.72 406.007 1034.53 406.31Z" fill="black"/>
<path d="M1054.82 419.433C1052.6 419.938 1051.49 423.976 1053.2 425.288C1054.82 426.6 1054.01 454.765 1052.3 455.876C1051.59 456.279 1050.88 463.043 1050.48 473.643C1050.18 483.031 1049.37 491.41 1048.86 492.318C1048.16 493.429 1047.95 492.015 1047.85 487.574C1047.85 483.536 1047.45 481.416 1046.84 481.82C1046.34 482.122 1045.83 485.656 1045.83 489.593C1045.83 495.751 1046.04 496.558 1047.35 495.448C1048.56 494.438 1048.96 494.539 1049.47 495.852C1050.48 498.375 1048.96 502.817 1047.35 502.211C1046.44 501.808 1045.83 502.817 1045.33 505.644C1044.93 507.864 1044.83 509.984 1045.13 510.287C1046.14 511.196 1047.85 509.48 1047.85 507.562C1047.85 506.451 1048.86 505.139 1050.07 504.432L1052.19 503.322L1051.49 518.262C1050.98 529.064 1050.38 533.707 1049.27 534.919C1048.46 535.827 1047.85 538.553 1047.85 541.178C1047.85 544.105 1047.25 546.427 1046.24 547.437C1044.72 548.951 1044.72 549.153 1046.34 550.364C1047.65 551.273 1047.95 552.585 1047.65 555.311C1047.25 559.046 1048.26 559.248 1049.17 555.513C1049.87 552.383 1049.97 565.91 1049.17 585.091C1048.66 599.123 1048.26 602.454 1047.15 602.05C1046.34 601.747 1045.83 602.252 1045.83 603.463C1045.83 604.574 1046.34 605.482 1046.95 605.482C1047.85 605.482 1047.95 609.823 1047.45 621.634C1046.95 631.628 1047.05 637.786 1047.65 637.786C1049.07 637.786 1049.87 631.426 1049.87 619.817C1049.87 614.164 1050.28 601.646 1050.88 592.056C1051.39 582.567 1052.6 553.292 1053.41 527.247C1054.31 501.101 1055.22 478.892 1055.43 477.782C1055.63 476.671 1056.13 465.769 1056.43 453.554C1056.74 441.339 1057.24 428.821 1057.54 425.591C1058.05 419.736 1057.65 418.827 1054.82 419.433Z" fill="black"/>
<path d="M1048.86 509.58C1048.86 510.085 1049.37 510.59 1049.87 510.59C1050.48 510.59 1050.88 510.085 1050.88 509.58C1050.88 508.975 1050.48 508.571 1049.87 508.571C1049.37 508.571 1048.86 508.975 1048.86 509.58Z" fill="black"/>
<path d="M1044.82 521.088C1044.82 521.996 1045.33 522.703 1045.83 522.703C1046.44 522.703 1046.84 522.299 1046.84 521.795C1046.84 521.189 1046.44 520.482 1045.83 520.179C1045.33 519.877 1044.82 520.28 1044.82 521.088Z" fill="black"/>
<path d="M1043.61 559.551C1043.31 560.964 1043.51 562.377 1043.92 562.68C1044.42 562.983 1044.82 561.771 1044.82 560.156C1044.82 556.32 1044.22 556.118 1043.61 559.551Z" fill="black"/>
<path d="M1041.8 601.849C1041.8 602.757 1042.3 603.464 1042.81 603.464C1043.41 603.464 1043.81 603.06 1043.81 602.555C1043.81 601.95 1043.41 601.243 1042.81 600.94C1042.3 600.637 1041.8 601.041 1041.8 601.849Z" fill="black"/>
<path d="M1043.51 634.455C1043.01 637.18 1043.31 638.594 1044.22 637.685C1045.33 636.676 1045.94 631.729 1045.03 631.729C1044.52 631.729 1043.82 632.941 1043.51 634.455Z" fill="black"/>
<path d="M1043.51 644.852C1042.2 652.02 1041.59 669.08 1042.6 669.08C1043.92 669.08 1045.03 662.316 1044.72 656.562C1044.52 654.039 1044.93 651.414 1045.63 650.707C1046.44 649.9 1046.64 652.625 1046.24 662.114C1045.83 668.979 1045.23 676.853 1044.83 679.68L1044.02 684.727L1043.92 679.882C1043.92 677.257 1043.41 675.137 1042.91 675.137C1041.7 675.137 1040.79 697.144 1041.9 699.668C1042.71 701.687 1042.81 701.787 1042.71 699.869C1042.4 695.428 1042.91 693.207 1043.82 693.812C1044.42 694.115 1044.83 696.134 1044.83 698.153C1044.93 700.98 1045.13 701.485 1045.83 700.273C1046.95 698.456 1047.55 686.039 1048.06 660.297C1048.26 644.852 1047.55 639.401 1046.04 644.852C1045.43 647.376 1045.43 647.376 1044.83 644.347L1044.12 641.319L1043.51 644.852Z" fill="black"/>
<path d="M1106.91 760.539L1103.88 763.164L1107.21 760.943C1108.93 759.732 1110.44 758.621 1110.44 758.318C1110.44 757.612 1110.04 757.814 1106.91 760.539Z" fill="black"/>
<path d="M1031.09 190.985C1030.79 191.793 1030.79 193.004 1031.2 193.509C1031.5 194.115 1030.99 195.73 1030.09 197.042C1029.18 198.456 1028.67 200.172 1028.97 200.878C1029.18 201.585 1028.77 204.109 1028.17 206.431C1027.46 208.853 1027.16 210.872 1027.46 210.973C1027.86 210.973 1028.77 211.175 1029.48 211.175C1030.19 211.276 1031.3 212.387 1032 213.8C1033.82 217.434 1036.14 217.03 1036.55 212.992C1036.85 210.166 1037.25 209.661 1038.77 210.065C1041.29 210.67 1042.2 207.844 1040.69 204.412C1040.08 202.998 1039.78 201.08 1040.18 200.172C1040.79 198.557 1040.99 198.557 1043.41 200.172C1046.34 202.09 1046.34 202.09 1047.15 198.557C1048.16 194.62 1043.92 191.389 1036.04 190.077C1032.61 189.572 1031.6 189.673 1031.09 190.985ZM1035.33 199.364C1034.33 200.374 1033.42 198.859 1034.33 197.547C1034.93 196.437 1035.13 196.437 1035.54 197.547C1035.74 198.254 1035.64 199.061 1035.33 199.364Z" fill="black"/>
<path d="M1023.22 211.781C1021.71 212.286 1021.61 212.69 1022.51 213.194C1023.22 213.699 1024.33 213.497 1024.94 212.892C1026.35 211.478 1025.54 210.873 1023.22 211.781Z" fill="black"/>
<path d="M1038.26 220.866C1038.57 221.37 1039.07 221.875 1039.37 221.875C1039.58 221.875 1039.78 221.37 1039.78 220.866C1039.78 220.26 1039.27 219.856 1038.67 219.856C1038.16 219.856 1037.96 220.26 1038.26 220.866Z" fill="black"/>
<path d="M1065.01 254.179C1063.8 258.116 1061.99 263.466 1060.87 265.99C1059.36 269.624 1059.26 270.432 1060.37 270.028C1061.18 269.725 1061.99 270.028 1062.19 270.734C1062.69 273.157 1066.83 270.633 1069.56 266.293C1072.28 261.952 1072.28 259.933 1069.56 262.255C1068.65 262.961 1067.74 263.264 1067.34 262.961C1067.03 262.558 1066.12 263.062 1065.42 264.072C1064.21 265.687 1064.11 265.586 1064 263.567C1064 262.255 1064.91 259.832 1066.02 258.015L1068.04 254.684V257.712L1068.14 260.74L1070.06 257.207C1072.69 252.463 1072.58 250.847 1069.96 251.655C1068.14 252.261 1067.94 252.059 1068.45 250.343C1068.85 249.232 1068.65 248.021 1068.14 247.718C1067.54 247.314 1066.23 250.141 1065.01 254.179Z" fill="black"/>
<path d="M1075.82 255.996C1074.91 258.116 1073.6 261.347 1072.99 263.265C1072.28 265.183 1071.48 267.303 1070.97 267.807C1069.56 269.625 1068.04 274.369 1068.85 274.369C1070.16 274.369 1073.6 267.505 1076.52 259.429C1079.25 251.857 1078.74 249.334 1075.82 255.996Z" fill="black"/>
<path d="M1052.09 267.706C1051.18 269.826 1051.29 270.331 1052.9 270.836C1055.63 271.744 1056.94 270.634 1056.94 267.706C1056.94 264.476 1053.61 264.476 1052.09 267.706Z" fill="black"/>
<path d="M1036.75 288.502C1036.75 289.007 1037.25 289.512 1037.76 289.512C1038.36 289.512 1038.77 289.007 1038.77 288.502C1038.77 287.897 1038.36 287.493 1037.76 287.493C1037.25 287.493 1036.75 287.897 1036.75 288.502Z" fill="black"/>
<path d="M942.361 376.429C942.764 377.741 943.976 380.063 944.985 381.577C946.096 382.99 946.903 384.807 946.903 385.615C947.004 386.322 947.61 388.038 948.417 389.451C949.831 391.874 949.831 391.874 949.831 387.432C949.831 384.101 949.124 381.779 947.105 378.952C943.875 374.208 941.25 372.895 942.361 376.429Z" fill="black"/>
<path d="M863.419 573.179C863.419 576.813 863.621 578.227 863.823 576.41C864.025 574.693 864.025 571.665 863.823 569.848C863.621 568.132 863.419 569.545 863.419 573.179Z" fill="black"/>
<path d="M892.391 572.169C891.079 573.078 891.079 573.179 892.391 573.078C893.199 573.078 894.814 572.674 895.925 572.169L897.944 571.261H895.925C894.814 571.261 893.199 571.665 892.391 572.169Z" fill="black"/>
<path d="M877.047 574.289C873.817 574.693 870.284 575.602 869.173 576.207C866.751 577.52 867.558 579.74 870.082 578.731C870.99 578.327 874.221 577.419 877.249 576.611C881.994 575.299 886.738 572.876 883.811 573.28C883.205 573.381 880.177 573.784 877.047 574.289Z" fill="black"/>
<path d="M854.534 582.264C854.231 582.769 854.433 584.081 854.938 584.989C855.846 586.605 855.947 586.403 856.048 583.98C856.048 581.153 855.543 580.548 854.534 582.264Z" fill="black"/>
<path d="M845.954 585.797C844.945 587.009 845.046 587.312 846.661 587.312C847.67 587.312 849.487 586.605 850.598 585.797C852.415 584.384 852.415 584.384 849.891 584.283C848.377 584.283 846.661 584.99 845.954 585.797Z" fill="black"/>
<path d="M855.039 589.229C855.039 591.248 847.468 596.396 844.44 596.396C837.07 596.396 812.741 617.293 806.584 628.902C804.666 632.435 801.132 638.391 798.71 642.126C792.148 652.322 790.23 658.48 789.624 672.007C789.22 680.487 789.422 683.314 790.331 682.809C790.936 682.405 791.441 679.881 791.441 677.156C791.441 672.31 791.845 669.786 795.176 656.259C796.791 649.496 803.656 637.483 809.107 631.729C810.924 629.81 813.347 626.277 814.559 623.955C817.688 617.697 831.013 606.693 842.521 600.939C847.771 598.314 852.717 596.396 853.525 596.8C854.635 597.204 855.039 599.728 855.342 607.703C855.544 616.182 855.645 615.274 855.847 602.655C855.948 594.276 855.847 587.311 855.544 587.311C855.241 587.311 855.039 588.219 855.039 589.229Z" fill="black"/>
<path d="M835.254 591.249C825.765 596.498 814.66 605.382 814.66 607.905C814.66 608.41 815.771 607.805 817.083 606.593C818.496 605.281 824.452 601.243 830.408 597.508C836.364 593.773 841.513 590.138 841.715 589.533C842.32 587.716 840.907 588.119 835.254 591.249Z" fill="black"/>
<path d="M982.235 595.185C982.235 596.497 987.182 598.819 987.989 598.011C988.494 597.607 987.889 596.598 986.879 595.79C984.658 594.276 982.235 593.872 982.235 595.185Z" fill="black"/>
<path d="M863.217 598.012C863.217 599.123 863.52 599.426 863.823 598.618C864.126 597.911 864.025 597.003 863.722 596.7C863.419 596.296 863.116 596.902 863.217 598.012Z" fill="black"/>
<path d="M804.969 616.384C797.499 624.46 791.038 635.363 786.697 646.77C785.385 650.404 783.77 653.937 783.164 654.644C781.953 656.158 781.549 658.985 780.741 670.089C780.337 675.137 779.53 679.377 778.621 680.285C777.41 681.698 777.511 682.102 778.823 683.213C781.044 685.03 783.77 683.717 782.457 681.396C781.549 679.578 781.65 678.266 784.88 665.042C785.789 661.408 786.697 656.663 787 654.442C788.01 646.063 799.619 624.965 808.098 615.678C811.127 612.447 813.651 609.52 813.651 609.116C813.651 607.501 811.632 609.217 804.969 616.384Z" fill="black"/>
<path d="M854.737 621.331C854.535 622.946 854.636 626.177 855.04 628.7C855.746 632.94 855.847 632.738 855.948 625.874C856.049 618.303 855.645 616.687 854.737 621.331Z" fill="black"/>
<path d="M854.636 639.805C853.728 646.468 853.223 671.1 854.031 671.1C855.141 671.1 857.059 641.521 856.151 638.291C855.343 635.364 855.343 635.364 854.636 639.805Z" fill="black"/>
<path d="M863.418 645.358C863.418 647.579 863.62 648.386 863.822 647.074C864.024 645.863 864.024 644.046 863.822 643.036C863.519 642.127 863.317 643.137 863.418 645.358Z" fill="black"/>
<path d="M561.177 655.049C548.962 680.892 543.41 690.179 531.599 704.817C524.835 713.196 517.163 722.382 514.336 725.411C511.611 728.439 506.866 734.092 503.939 738.13C501.112 742.067 497.68 746.408 496.368 747.821C489.2 755.796 490.008 761.248 499.093 766.295C503.434 768.718 529.277 775.078 535.031 775.078C536.444 775.078 538.463 775.784 539.473 776.592C540.583 777.399 542.905 778.106 544.722 778.106C546.539 778.106 549.265 778.611 550.88 779.217C552.394 779.822 557.139 780.731 561.278 781.236C565.417 781.639 574.3 783.154 580.963 784.567C587.626 785.98 595.096 787.091 597.721 787.192C600.244 787.192 602.667 787.595 603.273 788.1C604.383 789.11 622.756 791.229 630.226 791.229C637.091 791.129 634.668 789.715 625.381 788.302C601.254 784.668 586.717 782.043 584.597 780.731C584.193 780.428 579.853 779.721 575.007 779.217C566.022 778.207 525.946 769.626 523.018 768.112C522.11 767.607 519.182 766.901 516.355 766.497C511.207 765.79 506.16 763.569 499.497 759.128C494.248 755.695 494.449 753.071 500.506 747.014C511.51 736.01 529.479 715.719 534.022 709.057C534.829 707.946 537.05 705.12 539.069 702.899C543.713 697.65 549.77 687.656 554.01 678.166C562.186 659.895 563.398 656.664 563.095 654.14C562.792 651.516 562.792 651.617 561.177 655.049Z" fill="black"/>
<path d="M654.151 662.115C649.407 663.226 644.864 664.134 644.056 664.134C635.072 664.437 598.528 681.598 589.039 689.977C583.588 694.823 577.834 704.413 575.108 712.994C571.979 723.189 571.979 742.572 575.209 751.758C579.55 764.478 591.26 775.38 603.98 778.712C606.907 779.418 612.459 780.932 616.396 782.043C624.169 784.163 638.403 784.768 664.246 783.961C680.701 783.456 684.941 782.85 691.502 780.125C694.026 779.115 698.872 777.5 702.405 776.491C705.938 775.38 709.471 773.866 710.279 772.957C711.591 771.443 711.591 770.938 709.774 767.91C708.563 765.992 707.654 764.175 707.654 763.872C707.654 763.569 710.077 762.257 713.005 761.045C719.768 758.017 719.566 758.219 725.926 753.171C728.955 750.749 735.617 745.6 740.766 741.663C745.813 737.625 750.053 733.991 750.053 733.486C750.053 731.972 748.438 732.578 746.419 734.9C745.409 736.01 741.573 739.038 737.939 741.461C734.305 743.884 728.955 747.619 726.027 749.739C722.999 751.859 715.629 756.099 709.673 759.026C703.616 762.055 698.569 764.68 698.569 764.982C698.569 765.386 700.083 765.386 702.001 765.184C705.333 764.781 705.333 764.881 705.232 768.617C705.131 772.251 704.929 772.554 700.184 774.371C697.458 775.38 690.897 776.592 685.546 777.096C680.196 777.601 672.524 778.812 668.385 779.721C661.823 781.235 659.3 781.235 648.498 780.226C641.735 779.62 635.779 779.115 635.375 779.317C633.154 779.822 619.526 777.601 611.955 775.481C601.052 772.352 596.408 769.929 589.14 763.569C580.458 755.998 578.439 751.152 577.733 737.221C576.824 720.06 580.66 705.927 588.635 696.943C597.317 686.949 615.286 676.147 623.059 676.147C624.371 676.147 625.986 675.642 626.693 674.936C627.4 674.229 627.904 674.128 627.904 674.633C627.904 675.037 628.712 674.734 629.722 673.926C634.264 669.989 662.227 664.134 670.101 665.446C672.12 665.749 674.24 665.547 674.947 664.942C675.754 664.336 680.196 664.134 686.657 664.437C692.411 664.639 697.963 664.942 699.074 664.942C700.184 664.942 703.414 665.043 706.342 665.043C709.169 665.043 712.601 665.346 713.913 665.749C715.226 666.052 717.648 666.456 719.264 666.658C720.98 666.86 724.816 667.667 727.844 668.475C735.113 670.595 741.977 670.595 741.977 668.576C741.977 667.768 740.261 666.658 737.737 666.052C735.314 665.446 731.781 664.437 729.863 663.831C723.907 662.115 709.169 661.005 685.446 660.5C665.256 660.096 661.823 660.298 654.151 662.115Z" fill="black"/>
<path d="M689.988 668.172C686.657 668.575 677.167 669.383 668.789 669.989C642.239 671.705 624.876 676.752 606.2 688.059C596.913 693.712 592.774 698.053 588.433 706.633C577.43 728.539 579.852 747.82 595.298 760.338C603.878 767.405 608.32 770.029 611.853 770.029C615.992 770.029 614.983 768.919 607.512 765.184C599.437 761.247 590.654 752.262 587.424 744.792C581.669 731.366 586.313 713.296 598.831 700.273C603.878 695.024 617.405 686.645 623.866 684.727C625.28 684.323 626.592 683.718 626.895 683.314C628.106 681.8 635.374 679.175 638.302 679.175C640.119 679.175 644.763 678.266 648.599 677.257C663.135 673.32 698.872 672.109 712.197 675.137C715.023 675.743 721.08 676.853 725.825 677.56C730.57 678.367 736.627 679.68 739.251 680.588C741.876 681.497 745.005 682.203 746.116 682.203C747.226 682.203 749.346 682.809 750.86 683.617C752.375 684.323 755.908 685.232 758.835 685.535C761.864 685.838 765.801 687.251 768.224 688.765C770.545 690.279 773.978 691.693 775.896 691.996C778.823 692.5 779.429 693.106 780.943 697.548C781.852 700.273 782.357 703.403 782.054 704.513C781.751 705.826 781.953 706.431 782.659 706.128C783.366 705.927 783.871 704.109 783.972 701.99C784.073 697.952 785.688 695.327 786.798 697.245C788.01 699.062 790.432 698.456 790.432 696.336C790.432 695.024 789.019 693.611 786.193 692.197C783.77 690.986 780.64 689.169 779.126 688.159C777.713 687.049 773.069 685.333 768.93 684.323C764.69 683.314 760.249 681.699 759.037 680.79C757.725 679.882 755.706 679.175 754.394 679.175C751.264 679.175 734.002 674.43 732.387 673.118C731.68 672.512 729.964 672.31 728.551 672.613C727.238 673.017 724.412 672.613 722.292 671.705C720.172 670.796 716.639 670.09 714.317 670.09C712.096 669.989 707.25 669.383 703.616 668.575C699.982 667.768 696.853 667.162 696.55 667.263C696.247 667.263 693.319 667.667 689.988 668.172Z" fill="black"/>
<path d="M752.071 670.998C752.071 672.916 758.33 677.257 760.147 676.652C761.157 676.349 763.68 676.753 765.699 677.56C767.617 678.368 769.838 678.873 770.646 678.57C771.353 678.267 772.564 678.772 773.271 679.68C773.977 680.488 774.987 681.194 775.492 681.194C777.41 681.194 773.977 678.065 770.343 676.45C766.911 675.036 753.081 670.09 752.374 670.09C752.172 670.09 752.071 670.494 752.071 670.998Z" fill="black"/>
<path d="M840.503 674.028C840.2 674.431 838.484 675.138 836.768 675.542C835.052 675.845 832.427 677.056 831.014 678.267L828.288 680.488L831.317 679.782C835.254 678.772 844.945 673.22 842.724 673.119C841.815 673.119 840.806 673.523 840.503 674.028Z" fill="black"/>
<path d="M821.423 682.809C818.697 684.222 816.779 685.636 817.082 686.04C817.89 686.746 826.773 682.102 826.773 680.992C826.773 679.983 827.076 679.882 821.423 682.809Z" fill="black"/>
<path d="M786.999 685.131C786.293 686.141 787.706 687.352 792.249 689.674C796.791 691.996 797.397 691.087 793.258 688.16C791.441 686.847 789.826 685.434 789.624 685.03C789.119 683.92 787.605 684.021 786.999 685.131Z" fill="black"/>
<path d="M811.329 687.957C810.117 689.169 810.622 690.178 812.136 689.674C812.944 689.27 813.651 688.664 813.651 688.159C813.651 687.049 812.237 686.948 811.329 687.957Z" fill="black"/>
<path d="M778.318 708.552C778.318 709.056 778.823 709.258 779.328 708.955C779.934 708.653 780.337 708.148 780.337 707.845C780.337 707.643 779.934 707.441 779.328 707.441C778.823 707.441 778.318 707.946 778.318 708.552Z" fill="black"/>
<path d="M851.104 709.056C851.104 710.167 851.407 710.469 851.709 709.662C852.012 708.955 851.911 708.047 851.609 707.744C851.306 707.34 851.003 707.946 851.104 709.056Z" fill="black"/>
<path d="M965.579 711.479C965.882 711.984 966.589 712.488 967.194 712.488C967.699 712.488 968.103 711.984 968.103 711.479C968.103 710.873 967.396 710.469 966.488 710.469C965.68 710.469 965.276 710.873 965.579 711.479Z" fill="black"/>
<path d="M961.541 717.435C959.623 718.243 959.623 718.243 961.642 719.354C963.258 720.161 963.661 721.171 963.358 723.089C963.056 724.502 962.45 725.612 961.945 725.612C959.825 725.612 961.239 727.329 964.57 728.944C968.204 730.66 970.627 731.266 968.406 729.852C966.993 728.944 966.69 723.492 967.699 719.253C968.305 716.83 968.103 716.527 965.983 716.628C964.671 716.628 962.652 717.032 961.541 717.435Z" fill="black"/>
<path d="M958.007 721.17C958.007 721.978 957.301 722.583 956.493 722.583C955.685 722.583 954.979 722.987 954.979 723.593C954.979 724.097 954.272 724.602 953.465 724.602C952.657 724.602 951.95 725.107 951.95 725.713C951.95 726.318 951.244 727.429 950.335 728.337C949.528 729.246 949.124 730.659 949.427 731.467C949.729 732.274 949.427 733.385 948.821 733.789C948.114 734.192 949.124 735.909 951.95 738.634C956.392 742.874 960.026 744.085 959.622 741.057C959.219 738.836 955.181 735.707 953.465 736.413C952.657 736.716 951.95 736.413 951.95 735.808C951.95 735.202 952.455 734.697 953.061 734.697C953.868 734.697 953.868 734.192 952.96 733.183C950.739 730.558 954.272 731.366 959.118 734.697C963.559 737.726 968.405 738.634 969.616 736.716C969.919 736.11 970.929 735.707 971.736 735.707C972.544 735.707 973.049 736.11 972.645 736.615C972.342 737.12 972.544 737.827 973.049 738.129C973.553 738.533 974.361 738.23 974.765 737.524C975.27 736.716 975.774 737.12 976.279 738.533C977.289 741.259 978.803 741.36 980.115 738.937C981.73 735.909 978.197 731.063 973.957 730.457C972.14 730.154 970.424 730.255 970.121 730.659C969.818 731.164 968.001 731.77 965.982 732.173C963.156 732.678 962.146 732.476 961.742 731.265C961.137 729.852 960.733 729.852 959.017 730.861C957.402 731.972 956.695 731.871 955.282 730.356C953.565 728.539 953.565 728.539 955.484 728.842C956.796 729.044 957.402 728.64 957.2 727.833C957.099 727.025 957.906 726.217 959.017 725.915C960.127 725.612 961.036 725.006 961.036 724.602C961.036 724.097 961.339 723.088 961.641 722.28C961.944 721.372 961.339 720.665 960.127 720.261C958.714 719.959 958.007 720.261 958.007 721.17Z" fill="black"/>
<path d="M758.633 724.602C757.623 725.713 757.018 726.823 757.32 727.126C757.623 727.429 758.633 726.722 759.642 725.612C760.652 724.501 761.257 723.391 760.955 723.088C760.652 722.785 759.642 723.492 758.633 724.602Z" fill="black"/>
<path d="M824.754 724.3C824.754 726.319 829.499 730.862 831.316 730.559C833.032 730.155 832.83 729.751 829.801 726.824C826.369 723.694 824.754 722.887 824.754 724.3Z" fill="black"/>
<path d="M1090.35 728.438C1088.13 732.88 1088.13 733.082 1090.05 731.366C1091.97 729.649 1093.89 724.804 1092.98 723.996C1092.78 723.794 1091.56 725.813 1090.35 728.438Z" fill="black"/>
<path d="M946.904 738.433C946.904 740.149 958.614 748.528 959.624 747.518C959.927 747.317 957.201 744.995 953.567 742.37C949.832 739.846 946.904 738.029 946.904 738.433Z" fill="black"/>
<path d="M963.056 741.764C963.056 742.269 963.762 742.773 964.57 742.773C965.377 742.773 966.084 742.269 966.084 741.764C966.084 741.158 965.377 740.754 964.57 740.754C963.762 740.754 963.056 741.158 963.056 741.764Z" fill="black"/>
<path d="M945.894 743.178C945.894 743.38 946.6 743.884 947.509 744.187C948.316 744.49 948.72 744.389 948.417 743.783C947.812 742.774 945.894 742.37 945.894 743.178Z" fill="black"/>
<path d="M852.012 743.984C852.012 744.186 852.92 746.709 854.031 749.637C856.454 755.896 856.655 765.89 854.637 769.827C852.113 774.471 844.743 780.83 837.374 784.465C830.913 787.594 826.674 789.31 811.127 794.66C804.263 797.083 785.587 801.323 781.852 801.323C780.237 801.323 777.511 802.03 775.896 802.837C774.281 803.746 772.464 804.049 771.555 803.544C770.748 803.039 767.517 803.241 764.388 803.847C760.956 804.553 745.813 805.058 726.33 805.159C695.137 805.361 689.585 805.967 693.522 808.389C695.541 809.702 696.752 809.702 725.321 809.5C742.785 809.298 752.981 808.793 761.662 807.481C768.325 806.471 774.887 805.664 776.3 805.664C777.713 805.563 782.559 804.654 787.202 803.443C791.846 802.333 796.389 801.323 797.398 801.323C799.114 801.323 816.276 795.872 829.298 791.228C837.172 788.402 847.772 782.546 850.699 779.316C852.012 777.903 854.536 774.269 856.252 771.24C859.078 766.294 859.28 765.284 858.674 759.833C858.069 753.675 854.536 743.782 852.92 743.782C852.416 743.782 852.012 743.883 852.012 743.984Z" fill="black"/>
<path d="M962.652 745.195C962.954 746.104 963.762 746.811 964.267 746.811C965.579 746.811 964.771 744.489 963.257 743.984C962.551 743.782 962.248 744.186 962.652 745.195Z" fill="black"/>
<path d="M943.876 746.003C943.876 747.316 949.832 751.858 951.447 751.858C951.952 751.858 950.841 750.243 948.923 748.325C945.289 744.59 943.876 743.984 943.876 746.003Z" fill="black"/>
<path d="M966.084 747.013C966.084 748.124 965.378 748.427 963.359 748.023L960.532 747.518L963.258 749.739C966.589 752.465 968.81 752.465 968.608 749.84C968.406 747.215 966.084 744.59 966.084 747.013Z" fill="black"/>
<path d="M941.856 748.728C941.856 749.839 941.452 750.848 940.846 750.848C940.342 750.848 940.644 752.362 941.452 754.281C942.462 756.4 945.086 758.823 948.317 760.741C963.661 769.827 971.131 772.249 971.131 768.111C971.131 767 971.939 765.89 972.948 765.688C974.059 765.385 973.756 765.183 972.04 765.082C969.011 764.981 964.569 760.943 967.396 760.943C968.406 760.943 969.112 760.64 969.112 760.136C969.112 759.126 963.257 755.896 961.44 755.896C960.632 755.896 960.027 755.391 960.027 754.886C960.027 754.281 959.32 753.877 958.512 753.877C955.888 753.877 956.897 755.694 960.935 758.117L964.771 760.438H957.907C954.071 760.438 950.84 760.035 950.739 759.429C950.739 758.823 950.537 757.915 950.537 757.309C950.437 756.703 948.519 754.079 946.096 751.353C942.563 747.416 941.856 746.911 941.856 748.728ZM944.38 751.858C944.682 752.362 944.481 752.867 943.976 752.867C943.37 752.867 942.865 752.362 942.865 751.858C942.865 751.252 943.067 750.848 943.269 750.848C943.572 750.848 944.077 751.252 944.38 751.858ZM947.408 754.886C947.711 755.391 947.61 755.896 947.004 755.896C946.5 755.896 945.692 755.391 945.389 754.886C945.086 754.281 945.187 753.877 945.793 753.877C946.298 753.877 947.105 754.281 947.408 754.886Z" fill="black"/>
<path d="M978.198 749.335C978.198 751.051 978.703 751.859 979.511 751.556C980.116 751.354 980.722 750.344 980.722 749.335C980.722 748.325 980.116 747.316 979.511 747.013C978.703 746.811 978.198 747.619 978.198 749.335Z" fill="black"/>
<path d="M924.694 749.84C924.694 750.345 925.199 750.85 925.805 750.85C926.31 750.85 926.511 750.345 926.209 749.84C925.906 749.234 925.401 748.831 925.098 748.831C924.896 748.831 924.694 749.234 924.694 749.84Z" fill="black"/>
<path d="M962.652 752.666C961.945 753.877 964.873 756.502 965.781 755.492C966.185 755.19 965.781 754.079 964.873 753.272C963.964 752.262 963.056 752.06 962.652 752.666Z" fill="black"/>
<path d="M975.675 753.878C976.078 754.483 975.17 754.887 973.656 754.887C970.627 754.887 971.132 756.603 974.564 757.916C976.684 758.723 976.684 758.723 974.16 759.733C972.747 760.338 972.141 760.843 972.646 760.944C976.28 761.449 978.097 761.853 980.722 762.458C983.246 762.963 983.851 762.761 983.952 761.247C984.053 760.237 984.356 758.319 984.457 756.906C984.76 754.584 984.457 754.382 981.025 754.483C978.905 754.584 977.189 754.181 977.189 753.777C977.189 753.272 976.684 752.868 976.078 752.868C975.574 752.868 975.372 753.272 975.675 753.878ZM980.217 759.329C980.217 760.439 978.299 760.843 977.694 759.935C977.391 759.43 977.795 758.925 978.602 758.925C979.511 758.925 980.217 759.127 980.217 759.329Z" fill="black"/>
<path d="M1125.69 755.694C1124.98 757.007 1124.58 758.319 1124.88 758.521C1125.69 759.328 1127.81 755.997 1127.4 754.685C1127.1 753.877 1126.49 754.281 1125.69 755.694Z" fill="black"/>
<path d="M0 759.025C0 759.53 0.504746 759.732 1.00949 759.429C1.61519 759.126 2.01898 758.621 2.01898 758.319C2.01898 758.117 1.61519 757.915 1.00949 757.915C0.504746 757.915 0 758.42 0 759.025Z" fill="black"/>
<path d="M1134.77 762.458C1134.06 764.477 1132.25 767.001 1130.63 768.212C1127.2 770.635 1125.58 773.663 1128.41 772.149C1131.64 770.433 1137.7 762.155 1137.7 759.429C1137.7 757.612 1135.88 759.53 1134.77 762.458Z" fill="black"/>
<path d="M1138.5 760.439C1138.2 761.045 1137.7 762.761 1137.29 764.275C1136.89 765.89 1134.57 769.424 1131.94 772.149C1128.81 775.481 1127.91 777.096 1128.91 777.096C1130.93 777.096 1138.5 767.808 1139.31 764.376C1140.02 761.852 1139.41 758.925 1138.5 760.439Z" fill="black"/>
<path d="M1142.14 761.045C1141.53 761.852 1140.42 764.073 1139.82 766.193C1139.11 768.212 1136.79 771.947 1134.57 774.471C1132.25 776.995 1131.04 779.115 1131.64 779.115C1132.95 779.115 1137.5 774.673 1139.92 771.039C1140.73 769.625 1141.84 768.818 1142.14 769.121C1142.85 769.827 1135.38 779.821 1132.75 781.84C1131.84 782.446 1131.44 783.253 1131.84 783.657C1132.15 784.061 1135.07 781.84 1138.3 778.711C1141.53 775.581 1144.36 773.058 1144.46 773.058C1145.67 773.058 1141.84 777.903 1136.99 782.749C1133.86 785.777 1131.64 788.503 1131.84 788.806C1132.55 789.512 1144.16 779.922 1146.18 776.894C1148.3 773.865 1148.4 769.625 1146.28 770.433C1144.97 770.837 1144.87 770.332 1145.37 767.001C1145.77 764.477 1145.67 762.963 1144.97 762.963C1144.36 762.963 1143.76 762.256 1143.55 761.247C1143.35 759.833 1143.05 759.833 1142.14 761.045Z" fill="black"/>
<path d="M980.621 767.505C980.924 768.414 980.621 769.019 979.712 769.019C978.905 769.019 978.198 769.726 978.198 770.533C978.198 772.855 979.612 772.351 982.034 769.019L984.356 765.991H982.135C980.621 765.991 980.217 766.495 980.621 767.505Z" fill="black"/>
<path d="M679.892 768.515C678.277 769.322 674.744 769.928 672.119 770.029C669.393 770.029 667.273 770.433 667.273 770.938C667.273 772.048 683.223 771.14 685.747 769.827C687.867 768.717 687.059 767.001 684.637 767.102C683.728 767.102 681.608 767.808 679.892 768.515Z" fill="black"/>
<path d="M625.178 772.251C625.38 772.957 627.298 773.563 629.519 773.664C631.639 773.664 633.658 773.866 633.961 774.068C635.475 774.875 641.734 774.774 642.743 773.866C643.45 773.26 644.661 773.26 645.772 773.866C648.195 775.077 655.362 774.169 654.857 772.654C654.655 771.948 649.608 771.443 639.614 771.241C627.904 771.039 624.774 771.241 625.178 772.251Z" fill="black"/>
<path d="M656.978 772.755C657.684 773.057 658.593 772.957 658.896 772.654C659.3 772.351 658.694 772.048 657.583 772.149C656.473 772.149 656.17 772.452 656.978 772.755Z" fill="black"/>
<path d="M947.711 774.573C949.024 775.482 950.336 775.986 950.639 775.683C951.447 774.876 950.942 774.472 947.913 773.564L945.39 772.857L947.711 774.573Z" fill="black"/>
<path d="M959.017 774.471C960.431 775.885 969.112 779.317 969.112 778.509C969.112 777.803 960.33 773.058 958.916 773.058C957.806 773.058 957.806 773.361 959.017 774.471Z" fill="black"/>
<path d="M939.837 775.582C939.837 776.389 940.745 777.096 941.856 777.096C942.966 777.096 944.178 777.802 944.481 778.61C944.884 779.418 945.49 779.821 945.995 779.519C947.307 778.711 946.197 777.298 942.764 775.582C940.14 774.168 939.837 774.168 939.837 775.582Z" fill="black"/>
<path d="M931.762 775.985C931.762 776.591 932.166 777.096 932.771 777.096C933.276 777.096 935.295 778.509 937.314 780.225C939.333 782.042 942.26 783.556 943.977 783.758L946.904 784.162L943.472 781.134C941.655 779.417 939.333 778.105 938.424 778.105C937.516 778.105 935.598 777.399 934.285 776.49C932.771 775.48 931.762 775.279 931.762 775.985Z" fill="black"/>
<path d="M951.951 776.49C951.951 777.197 958.715 781.134 959.926 781.134C962.147 781.134 960.936 779.317 957.604 777.702C954.273 776.187 951.951 775.683 951.951 776.49Z" fill="black"/>
<path d="M918.637 780.327C918.637 781.135 919.343 782.447 920.151 783.154C922.069 784.769 922.069 783.255 920.151 780.731C918.94 779.116 918.637 779.015 918.637 780.327Z" fill="black"/>
<path d="M951.749 780.83C952.456 781.133 953.364 781.032 953.667 780.729C954.071 780.426 953.465 780.123 952.355 780.224C951.244 780.224 950.942 780.527 951.749 780.83Z" fill="black"/>
<path d="M956.191 783.254C956.393 783.96 957.201 784.768 957.908 784.97C958.715 785.273 959.119 784.869 958.816 784.061C958.614 783.355 957.807 782.547 957.1 782.345C956.292 782.042 955.889 782.446 956.191 783.254Z" fill="black"/>
<path d="M984.255 783.052C983.043 783.961 983.043 784.162 984.558 784.566C985.466 784.97 987.081 785.475 988.091 785.778C989.605 786.383 993.34 786.888 1000.41 787.494C1002.12 787.595 1002.93 787.191 1002.93 786.181C1002.93 785.071 1001.21 784.465 996.369 783.961C992.734 783.658 988.898 783.052 987.788 782.749C986.677 782.345 985.062 782.547 984.255 783.052Z" fill="black"/>
<path d="M982.236 789.108C982.236 789.714 983.145 790.218 984.255 790.218C985.366 790.218 986.274 790.622 986.274 791.228C986.274 791.733 985.366 792.237 984.356 792.237C979.914 792.237 981.631 794.156 986.981 795.266C990.211 795.973 994.148 796.881 995.763 797.386C1000.31 798.799 1003.44 798.496 1004.14 796.477C1004.55 795.569 1005.25 794.458 1005.86 794.055C1006.46 793.651 1006.56 793.045 1006.16 792.641C1005.76 792.237 1004.85 792.742 1004.04 793.752C1002.73 795.569 1002.63 795.569 1001.32 793.449C999.7 790.925 997.379 790.521 997.379 792.742C997.379 793.651 996.47 794.256 995.158 794.256C993.845 794.256 991.826 794.559 990.615 794.862C987.889 795.569 986.072 792.54 988.394 791.228C990.11 790.118 989.605 789.613 985.568 788.704C983.448 788.3 982.236 788.401 982.236 789.108Z" fill="black"/>
<path d="M934.183 791.431C937.818 794.157 952.657 800.314 955.787 800.314C958.815 800.314 958.613 797.286 955.383 794.964C953.969 793.854 951.95 793.248 950.84 793.551C949.831 793.854 948.619 793.652 948.316 793.147C948.013 792.642 946.701 792.239 945.288 792.239C943.875 792.239 941.755 791.734 940.543 791.027C939.332 790.421 936.707 789.715 934.789 789.513L931.256 789.21L934.183 791.431Z" fill="black"/>
<path d="M663.438 792.744L661.217 794.965L665.961 796.277C670.504 797.59 672.22 797.691 680.397 797.388C684.435 797.186 691.603 797.792 696.246 798.801C699.578 799.508 705.937 797.59 705.029 796.075C704.726 795.672 699.376 795.268 693.218 795.268C679.287 795.268 669.192 793.855 667.678 791.735C666.264 789.918 666.264 789.918 663.438 792.744Z" fill="black"/>
<path d="M955.484 791.33C954.677 792.643 955.888 794.46 957.099 793.652C957.604 793.349 958.715 793.652 959.522 794.258C960.33 794.965 961.541 795.267 962.147 795.066C962.853 794.864 961.743 793.652 959.724 792.441C957.604 791.229 955.787 790.725 955.484 791.33Z" fill="black"/>
<path d="M638.302 792.641C638.706 793.853 655.564 795.67 657.987 794.761C661.218 793.55 657.281 792.439 647.791 792.036C640.826 791.632 637.999 791.834 638.302 792.641Z" fill="black"/>
<path d="M758.633 793.854C752.677 795.066 739.15 795.772 712.197 796.378C707.149 796.479 707.149 796.479 710.077 797.791C712.197 798.7 716.74 799.003 724.715 798.7C742.683 798.195 767.517 796.176 769.738 794.965C771.656 793.955 771.656 793.955 769.738 793.148C767.113 792.138 767.012 792.138 758.633 793.854Z" fill="black"/>
<path d="M975.169 795.267C975.169 795.772 976.38 796.276 977.996 796.276C980.115 796.276 980.418 796.074 979.207 795.267C977.188 793.955 975.169 793.955 975.169 795.267Z" fill="black"/>
<path d="M1019.08 795.268C1018.78 795.772 1017.37 796.277 1015.95 796.277C1012.02 796.277 1013.23 798.094 1017.77 798.801C1021 799.406 1022.21 799.205 1023.12 797.892C1023.83 796.984 1025.64 796.277 1027.16 796.277C1031.5 796.277 1029.28 795.066 1024.23 794.561C1021.81 794.359 1019.49 794.662 1019.08 795.268Z" fill="black"/>
<path d="M1032.21 795.771C1034.23 797.386 1035.94 797.386 1035.84 795.771C1035.84 795.165 1034.53 794.661 1033.01 794.459C1030.29 794.257 1030.29 794.257 1032.21 795.771Z" fill="black"/>
<path d="M1040.08 797.993C1039.37 798.296 1038.77 798.901 1038.77 799.406C1038.77 800.617 1047.95 800.516 1049.87 799.305C1050.68 798.8 1051.18 798.296 1050.88 798.195C1049.27 797.69 1041.09 797.589 1040.08 797.993Z" fill="black"/>
<path d="M988.292 814.448C988.292 814.952 989.503 815.457 990.917 815.457C992.33 815.457 993.239 815.053 992.835 814.448C992.532 813.842 991.32 813.438 990.21 813.438C989.201 813.438 988.292 813.842 988.292 814.448Z" fill="black"/>
<path d="M995.36 815.254C995.36 816.365 999.196 817.576 1004.45 817.98C1019.49 819.292 1026.55 819.494 1027.06 818.687C1027.36 818.182 1023.93 817.475 1019.29 816.971C1014.74 816.567 1009.9 816.062 1008.48 815.86C998.692 814.447 995.36 814.245 995.36 815.254Z" fill="black"/>
<path d="M1031.2 818.082C1030.09 818.889 1032.21 819.293 1040.08 819.798C1049.37 820.403 1057.14 819.697 1058.65 818.082C1060.07 816.668 1033.11 816.668 1031.2 818.082Z" fill="black"/>
<path d="M1065.01 817.476C1065.01 817.981 1066.43 818.485 1068.14 818.485C1069.86 818.485 1070.97 818.082 1070.57 817.476C1070.26 816.87 1068.85 816.466 1067.44 816.466C1066.12 816.466 1065.01 816.87 1065.01 817.476Z" fill="black"/>
</svg>
