<svg width="88" height="85" viewBox="0 0 88 85" fill="none" xmlns="http://www.w3.org/2000/svg">
<path d="M87.9659 0.101842C87.9081 0.152762 87.5829 0.290973 87.2433 0.400088C85.2057 1.06205 81.3833 2.546 80.3428 3.07702C79.9815 3.25888 79.4468 3.49166 79.1505 3.58622C78.3412 3.85537 76.86 4.53915 74.2009 5.89217C68.6371 8.72187 63.9548 11.668 59.2075 15.3342C58.4055 15.9525 58.2248 16.1271 58.1887 16.3162C58.1598 16.4472 58.1165 17.2328 58.0948 18.0766C57.9864 21.4591 57.7046 24.9799 56.8953 33.1707C55.7681 44.5477 55.6453 46.5554 55.5224 55.6483C55.4863 58.6307 55.4285 61.4022 55.4068 61.8023L55.3562 62.537L55.7825 62.5952C56.021 62.6243 56.4545 62.7261 56.7508 62.8207C57.047 62.9153 57.3144 62.9953 57.3433 62.9953C57.4228 62.9953 58.615 61.3586 59.4604 60.0856C61.3825 57.1977 61.4836 56.8049 61.4836 52.0111C61.4836 48.8759 61.4114 47.8357 61.1513 47.0282C60.9634 46.4754 60.0168 44.4968 59.4388 43.4784C59.2003 43.0492 59.0197 42.7 59.0486 42.7C59.1136 42.7073 60.1541 43.9512 60.6455 44.5986C61.1585 45.2897 61.6498 46.0608 61.8377 46.5045C62.358 47.6902 62.777 50.8545 62.777 53.6478C62.7843 56.0775 62.6036 57.0231 61.8594 58.5798C61.3464 59.6564 60.3998 61.2713 59.3882 62.7989L58.709 63.8246L59.2364 64.3774C59.5255 64.6757 59.8506 65.0612 59.9662 65.2285C60.0746 65.4031 60.1902 65.5413 60.2119 65.5413C60.2408 65.5413 60.7322 65.294 61.3102 64.9884C64.056 63.5336 65.848 62.2606 66.3321 61.424C66.8957 60.4566 67.64 57.5323 68.0157 54.8335C68.2036 53.4805 68.2036 52.8768 68.0157 52.1421C67.8134 51.3419 67.257 49.8434 66.5778 48.2721C66.2671 47.5593 66.0358 46.9991 66.072 47.0355C66.1876 47.1592 67.7339 49.6834 68.3264 50.7163C68.6516 51.291 69.0345 52.0184 69.1718 52.3385C69.4175 52.9059 69.4247 52.9422 69.4175 53.8297C69.4103 55.35 69.1646 57.1104 68.7021 58.9872C68.2686 60.7621 67.6833 62.166 67.1052 62.8425C66.6139 63.4245 64.5618 64.8793 62.1123 66.3778C61.2091 66.9234 60.9489 67.1198 60.9851 67.2071C61.1151 67.5344 61.3102 68.3128 61.3825 68.8293C61.4475 69.2585 61.4909 69.3967 61.5631 69.3676C61.8811 69.2439 63.9476 68.6329 64.7713 68.4219C66.4044 68 66.8813 67.9273 67.546 68.0145C69.2441 68.2546 72.3873 69.7967 74.6706 71.528C75.964 72.5028 76.1374 72.721 76.6215 73.9504C77.0406 74.9979 78.2834 78.8023 78.2834 79.0205C78.2834 79.0642 77.9222 78.3586 77.4814 77.4638C76.5493 75.558 75.7111 74.1104 75.2848 73.6667C74.4249 72.7574 70.0678 70.2769 68.3119 69.6804C67.6761 69.4694 67.5749 69.4549 66.9391 69.4912C66.1804 69.5349 65.2193 69.7604 64.0271 70.1605C63.2901 70.4005 61.4475 71.0697 61.4475 71.0988C61.4186 71.2225 61.2307 72.2918 61.2307 72.3427C61.2307 72.3937 62.2857 72.4155 64.2511 72.4155C67.1775 72.4155 67.2787 72.4228 67.7122 72.5828C68.6299 72.9101 69.6848 73.6594 70.971 74.8887C72.25 76.1181 73.724 77.9003 74.1431 78.7296C74.4032 79.246 74.5188 80.3881 74.5622 82.8541L74.5983 84.9273L74.3888 83.7343C73.8974 80.9991 73.5578 79.8062 73.0665 79.1588C71.8887 77.5802 69.4175 75.1361 68.1819 74.3068C67.5532 73.8922 67.0619 73.7612 65.8191 73.7103C64.2366 73.6448 60.5877 73.9285 60.5226 74.1249C60.4215 74.4159 59.5833 75.5434 59.1425 75.9653L58.6367 76.46L58.5211 77.0929C58.3043 78.2567 57.7407 79.3915 57.0687 80.0171L56.7508 80.3081L56.8447 80.6791C56.9965 81.261 56.9314 81.4501 56.4112 81.9593C56.1583 82.2139 55.9271 82.4176 55.8909 82.4176C55.8548 82.4176 55.9343 82.2285 56.0716 82.003C56.3462 81.5447 56.3751 81.2683 56.1944 80.9555C56.0716 80.7518 56.0427 80.7445 55.7753 80.7955C55.4068 80.8682 54.8432 80.8682 54.4675 80.7955C54.1712 80.7373 54.1712 80.7373 54.0195 81.0428C53.8822 81.3265 53.875 81.3701 53.9761 81.6102C54.0339 81.7557 54.164 81.9957 54.2651 82.1412C54.5253 82.5486 54.3519 82.4758 53.8388 81.9666C53.3114 81.4429 53.2319 81.2246 53.3908 80.6936L53.4992 80.3445L53.1452 79.9807C52.4154 79.2169 51.9529 78.2786 51.7289 77.0856C51.6133 76.46 51.6061 76.4527 51.1725 76.0381C50.674 75.558 50.1393 74.8815 49.8864 74.3941C49.7852 74.2122 49.6407 74.0449 49.5612 74.0231C49.4817 74.0013 48.8603 73.9285 48.1883 73.8631C46.6276 73.703 43.8312 73.6812 43.1881 73.8267C42.2921 74.0231 41.3383 74.7287 39.5897 76.4891C38.1446 77.9439 37.0824 79.2097 36.8439 79.7552C36.5477 80.4318 36.1792 82.0103 35.8034 84.1998L35.6661 85L35.6589 84.0034C35.6517 82.665 35.7818 80.1844 35.9046 79.4861C35.9841 79.0424 36.0708 78.8096 36.3309 78.395C37.1908 77.0128 39.3079 74.7214 40.7097 73.6594C41.7213 72.8883 42.4439 72.5464 43.2387 72.4519C43.5928 72.4082 44.9512 72.3791 46.4397 72.3937C48.1233 72.4082 49.0193 72.3937 49.0193 72.3427C49.0193 72.2482 48.8025 71.1207 48.7808 71.0988C48.7447 71.0625 46.9816 70.4223 46.2374 70.175C44.3226 69.5421 43.1881 69.3603 42.3861 69.5712C41.0421 69.9277 37.7833 71.6517 35.7456 73.0775C34.7485 73.7758 34.2716 74.4741 32.8481 77.3256C32.3568 78.3077 31.9738 79.0424 31.9955 78.9623C32.1328 78.4459 32.6819 76.7146 33.0793 75.5434C33.6285 73.9067 33.9898 73.0484 34.2571 72.6992C34.8135 71.9572 37.357 70.2187 39.344 69.2075C41.2805 68.2328 42.7618 67.8472 43.8601 68.0436C44.8067 68.2182 47.9137 69.062 48.6652 69.3603C48.7591 69.3967 48.7953 69.2948 48.8675 68.8074C48.9181 68.4801 49.0337 67.9564 49.1204 67.6436L49.2866 67.0689L48.1955 66.4069C46.707 65.4976 44.5538 64.0501 43.8384 63.4754C43.1881 62.9589 42.7907 62.4279 42.415 61.5914C41.5262 59.6273 40.8036 55.8956 40.8687 53.6478C40.8903 52.7749 40.8903 52.7677 41.2227 52.0766C41.6418 51.2037 42.2271 50.178 43.2965 48.4467C44.1636 47.0355 44.337 46.7882 44.1564 47.2101C43.1809 49.4651 42.8052 50.3962 42.4945 51.3128L42.1187 52.4112L42.1259 53.3205C42.1404 55.5101 43.2387 60.3256 43.9902 61.5259C44.3081 62.0351 45.2402 62.7916 46.6348 63.6645C47.7403 64.3556 50.0164 65.5922 50.0598 65.5267C50.2404 65.2503 50.6667 64.7411 51.0569 64.3338L51.5555 63.8246L50.8618 62.7698C49.4095 60.5875 48.2317 58.4416 47.9065 57.4014C47.603 56.4412 47.4946 55.4373 47.4946 53.6187C47.5019 50.5999 47.9354 47.4865 48.5279 46.3081C48.9398 45.4788 50.0309 43.9876 50.898 43.0638C51.1075 42.8455 51.2231 42.7437 51.1725 42.8455C50.7462 43.5802 49.7491 45.5152 49.4889 46.1044C48.8531 47.5593 48.7736 48.214 48.7736 52.0475C48.7736 56.3539 48.9109 57.0522 50.1609 59.0963C50.7318 60.0274 52.4443 62.4788 52.8489 62.9444C52.8778 62.9807 53.1596 62.9226 53.4703 62.828C53.7883 62.7261 54.2218 62.6243 54.4458 62.5952L54.8504 62.5443L54.901 60.4275C54.9227 59.2563 54.9588 56.7467 54.9805 54.8481C55.0672 47.6757 55.2117 45.3333 56.1727 35.644C56.9748 27.5768 57.141 25.6782 57.3578 22.3684C57.495 20.3171 57.6396 17.0436 57.6107 16.789C57.5818 16.6072 57.5312 16.6436 56.4979 17.5092C55.8982 18.0111 54.966 18.8186 54.4169 19.2987C53.875 19.7861 53.268 20.2734 53.0801 20.3753C52.8923 20.4844 51.3893 21.3137 49.7418 22.2229C44.9151 24.8926 44.3659 25.2563 42.7329 26.9076C41.5262 28.1297 40.7603 29.0971 39.503 31.003C38.5275 32.4797 38.2024 32.8361 36.974 33.7745C36.5838 34.0727 36.1214 34.4365 35.9407 34.5892C35.5433 34.9238 31.4102 38.9029 29.5965 40.6996C26.8724 43.3911 25.3334 45.3406 24.3796 47.2974C24.1411 47.7848 23.9027 48.2285 23.8521 48.2721C23.8087 48.3158 23.6353 48.3885 23.4764 48.4322C23.3174 48.4831 22.8911 48.7304 22.537 48.985C22.1757 49.2469 21.2508 49.8434 20.4777 50.3089C17.0093 52.4112 16.3012 53.0368 13.6133 56.3684C10.181 60.6166 8.36016 63.4972 4.04641 71.4262C2.86861 73.5939 2.83971 73.6594 2.51455 74.8087C1.88592 77.0347 1.04051 79.6534 0.368514 81.4574L0.0650343 82.2794L0.0433571 81.7702C0.0216799 81.2974 0.0650343 81.1301 0.700898 79.2024C1.07663 78.0676 1.60411 76.3654 1.87146 75.4125L2.36281 73.6812L2.08824 72.8301C1.64024 71.4044 0.874315 69.6513 0.332386 68.7856C0.17342 68.5237 0.144517 68.5092 0.0939371 68.6329C0.0650343 68.7202 0.0361314 68.5019 0.0361314 68.1018C0.0289057 67.709 0.0578085 67.4399 0.0939371 67.4617C0.130066 67.4908 0.32516 67.1562 0.534706 66.727C1.37289 64.9448 2.78913 62.5006 4.37156 60.0783C4.88459 59.3 5.30368 58.638 5.30368 58.6162C5.30368 58.5871 5.10136 58.6453 4.84846 58.7398C4.60279 58.8344 4.07531 59.009 3.67067 59.1399C3.26603 59.2636 2.66629 59.5182 2.34114 59.7073C1.65469 60.1001 0.758703 60.9076 0.346837 61.5113L0.0650343 61.926L0.0433571 61.4677L0.0216799 61.0094L0.440772 60.573C1.27173 59.7219 2.04488 59.2636 3.55506 58.7471C4.06808 58.5725 4.65337 58.3398 4.85569 58.2379L5.2242 58.0488L5.13026 57.7724C4.66059 56.4412 3.4828 54.8408 2.16049 53.757C1.67637 53.3641 0.534706 52.564 0.187871 52.3821C0.0578085 52.3166 0.0289057 52.2366 0.0289057 51.9748C0.0289057 51.7929 0.0433571 51.6474 0.0650343 51.6474C0.17342 51.6474 1.43792 52.4621 2.03766 52.9204C3.56228 54.0843 4.64614 55.3937 5.27478 56.8485C5.39039 57.1104 5.49877 57.3214 5.52045 57.3214C5.56381 57.3214 5.64329 56.7831 6.17077 52.7167C6.37309 51.1964 6.53205 49.8652 6.53205 49.7561V49.5451L5.93232 49.5742C5.60716 49.5961 4.91349 49.6252 4.40047 49.6397C3.08538 49.6906 1.61134 49.9889 0.4769 50.4399L0.0289057 50.6217V50.338V50.0543L0.7298 49.8288C2.09546 49.4069 2.94087 49.276 4.94239 49.1814C5.67942 49.1451 6.36586 49.0796 6.46702 49.0432C6.64766 48.9705 6.65489 48.9487 6.84998 47.2683C6.95837 46.3372 7.15346 44.715 7.28353 43.6748L7.51475 41.7689L7.14624 41.718C6.95114 41.6962 6.21412 41.5653 5.52045 41.427C3.82241 41.0997 3.79351 41.0997 2.96255 41.027C2.28333 40.976 0.447997 41.0488 0.158969 41.1433C0.0505828 41.1724 0.0289057 41.1361 0.0289057 40.9324V40.6851L0.469675 40.6341C1.25728 40.5541 3.29493 40.5905 4.03918 40.6996C4.43659 40.7578 5.2242 40.9033 5.7878 41.027C6.35864 41.1433 6.9945 41.2452 7.19682 41.2452H7.57978L7.90494 38.6774C8.07836 37.2734 8.22287 35.9932 8.2301 35.8404C8.2301 35.564 8.22287 35.5567 7.79655 35.3894C7.5581 35.3021 7.06676 35.0839 6.7127 34.902C4.90627 33.9927 2.85416 33.4399 0.910443 33.338L0.0289057 33.2944V33.0762V32.8579L1.01883 32.9016C3.18654 33.0034 4.90627 33.4617 7.13179 34.531C7.76765 34.8365 8.30235 35.0548 8.33126 35.0184C8.36016 34.982 8.49022 34.2037 8.62029 33.2798C8.75035 32.3633 8.87319 31.5267 8.88764 31.4249C8.92377 31.2649 8.86596 31.1921 8.52635 30.9157C8.30958 30.7338 7.74597 30.2756 7.2763 29.89C5.5349 28.4715 3.46112 27.1258 1.25728 26.0056L0.0289057 25.38V25.0599C0.0289057 24.6671 -0.0650287 24.6453 1.38012 25.38C3.93802 26.6675 6.33696 28.2315 8.30235 29.89L9.0177 30.4938L9.36453 28.4352C9.71137 26.3766 9.71137 26.3693 9.58853 26.0783C9.33563 25.5182 8.75757 24.7107 8.20842 24.1579C6.91502 22.8631 5.11581 21.9465 1.7703 20.8845L0.57806 20.5062L0.32516 20.6953L0.0650343 20.8772L0.0433571 20.6153C0.0216799 20.3825 0.0578085 20.3243 0.4769 19.9315C1.32954 19.1459 1.64024 18.273 1.64024 16.6217C1.64024 15.516 1.5174 14.5922 1.21392 13.4574C0.932121 12.4027 0.541932 11.2242 0.27458 10.6059C0.0650343 10.1404 0.0289057 9.96577 0.0289057 9.51476C0.0361314 9.02011 0.0433571 8.99102 0.144517 9.12923C0.57806 9.68935 1.29341 11.4861 1.66192 12.9119C2.08101 14.5558 2.15327 15.0723 2.15327 16.258C2.15327 17.3855 1.9943 18.3166 1.72695 18.8404C1.66192 18.9641 1.63302 19.0586 1.64747 19.0586C1.76308 19.0586 4.9713 16.6072 5.11581 16.4181C5.94677 15.2978 5.93232 14.1412 5.05078 11.4497C4.81233 10.7223 3.85131 8.64912 3.62009 8.3436C3.53338 8.24176 3.19377 8.18357 1.79198 8.01626L0.0650343 7.81258L0.0433571 7.61618C0.0144542 7.36885 -0.0361258 7.36885 2.00153 7.6089C2.87584 7.71074 3.69957 7.77621 3.82963 7.74711C4.2415 7.67437 5.03633 7.22337 5.40484 6.85965C6.22857 6.03766 6.43089 4.89559 5.93954 3.85537C5.79503 3.55713 5.15917 2.87334 4.36434 2.15319C4.17647 1.98588 3.57673 1.64399 2.86861 1.29482C2.2183 0.98203 1.67637 0.72743 1.66914 0.72743C1.65469 0.72743 1.7703 0.98203 1.92204 1.28755C2.71687 2.90972 2.38449 4.69191 1.04051 6.03766C0.737026 6.3359 0.390192 6.64142 0.260129 6.71417L0.0289057 6.8451V6.63415C0.0289057 6.45957 0.151743 6.29953 0.635866 5.81215C1.27173 5.16474 1.54631 4.71374 1.72695 4.02268C2.08824 2.61874 1.47405 0.938385 0.32516 0.203682L2.787e-06 2.02097e-06L1.48128 0.0145506C2.95532 0.0218249 2.98422 0.0290992 1.83534 0.116391L1.22115 0.160036L2.77468 0.938385C4.28485 1.68764 4.35711 1.71673 5.19529 1.85494C7.66649 2.26958 9.96427 1.7822 12.067 0.400088C12.5728 0.0727449 12.7389 2.02097e-06 12.9413 0.0145506C13.1942 0.0363734 13.1869 0.0436477 12.4499 0.538299C10.5496 1.80402 8.70699 2.41506 6.73437 2.42961C6.22135 2.43689 5.80948 2.44416 5.80948 2.45144C5.80948 2.45144 6.06238 2.59692 6.36586 2.7715C7.11011 3.17886 8.12171 3.819 8.69977 4.24818L9.16944 4.59735L9.89201 4.5537C10.2894 4.53188 10.8892 4.44459 11.2288 4.36457C11.8935 4.20454 13.1364 3.6226 13.5338 3.28798L13.7794 3.0843L13.5482 1.70218C13.4182 0.945659 13.2953 0.254602 13.2736 0.160036C13.2375 0.0072763 13.2592 2.02097e-06 13.6205 2.02097e-06H14.0107L14.2997 0.458282C14.6465 1.00385 15.4558 1.86949 15.9977 2.28413C16.8937 2.96791 17.8981 3.44801 18.9097 3.67351C19.5817 3.82627 21.0485 3.80445 21.3448 3.63714C21.7422 3.41892 24.6758 1.14206 24.618 1.09114C24.5891 1.06205 24.2351 0.902013 23.8376 0.734705C23.4402 0.567396 22.9344 0.334619 22.7177 0.218231L22.3202 0.0072763L22.9489 2.02097e-06C23.5269 2.02097e-06 23.6353 0.0290992 24.3868 0.327345C24.8348 0.509202 25.225 0.654687 25.2539 0.654687C25.2828 0.654687 25.4851 0.509202 25.7091 0.32007C26.0921 0.0145506 26.1354 -0.00727226 26.4895 0.0145506L26.8725 0.0363734L26.2799 0.501928L25.6947 0.974756L25.8609 1.19298C25.9476 1.31665 26.2149 1.72401 26.4389 2.10227C27.2771 3.46984 28.3754 4.28455 30.7238 5.27386C31.6559 5.66667 31.5258 5.65939 33.6863 5.39752L34.7124 5.27386L33.9826 4.54643C32.5663 3.14249 32.0533 2.32777 31.7137 0.974756C31.4752 0.0363734 31.4752 2.02097e-06 31.7787 2.02097e-06H32.0244L32.1761 0.632865C32.2628 0.989305 32.4941 1.61489 32.6964 2.0368C33.0504 2.76423 33.1155 2.83697 34.2499 3.99358L35.4277 5.18657L37.4003 4.99743C38.4842 4.88832 39.8137 4.76466 40.3484 4.72101C41.8225 4.60462 41.7719 4.67737 40.8759 3.92084C39.2935 2.58237 36.8801 0.240053 36.8801 0.0436477C36.8801 0.0218249 37.0318 2.02097e-06 37.2125 2.02097e-06C37.5448 2.02097e-06 37.5521 0.0072763 38.4625 0.923836C39.9438 2.43689 42.3499 4.51006 42.6101 4.51006C42.8919 4.51733 47.9715 4.13179 48.0004 4.1027C48.0149 4.08815 47.8848 3.90629 47.7042 3.69534C46.9527 2.79333 46.1796 1.69491 45.5654 0.632865L45.1896 2.02097e-06H45.5365H45.8761L46.1579 0.494653C46.6854 1.41121 47.3574 2.33505 48.658 3.94266C48.7664 4.0736 48.8459 4.0736 51.6205 3.85537C53.1885 3.73171 54.9949 3.58622 55.6308 3.52803C56.2667 3.46984 56.8375 3.41892 56.9025 3.41892C56.9603 3.41892 57.076 3.37527 57.1482 3.31708C57.2783 3.22251 57.2855 3.20069 57.1771 3.07702C56.982 2.8588 56.2161 1.53488 55.8187 0.741979L55.4502 2.02097e-06H55.7031C55.9487 2.02097e-06 55.9632 0.0218249 56.245 0.581945C56.5918 1.273 57.365 2.59692 57.6757 3.0261C57.8563 3.27343 57.9286 3.31708 58.0948 3.30253C58.2104 3.28798 58.9402 3.20796 59.7133 3.12067C62.4374 2.8297 64.2944 2.55328 64.3884 2.42234C64.6341 2.095 64.4101 1.34574 63.7959 0.465556L63.4779 2.02097e-06H63.7164C63.9259 2.02097e-06 63.991 0.050922 64.2583 0.429185C64.6919 1.05477 64.9881 1.72401 64.9881 2.08772C64.9881 2.46598 64.9086 2.45871 66.4622 2.21866C68.442 1.90586 68.9912 1.8113 69.1574 1.77493L69.3235 1.74583L69.1935 1.39666C69.1212 1.20026 68.9261 0.821996 68.7599 0.538299L68.4565 0.0363734L68.7527 0.0145506C68.9189 2.02097e-06 69.0779 0.0145506 69.114 0.050922C69.1429 0.0800191 69.3452 0.436459 69.562 0.836545C69.8293 1.3312 70.0028 1.57125 70.0967 1.5858C70.1762 1.60034 71.2962 1.42576 72.5823 1.20753C78.2979 0.240053 80.1477 2.02097e-06 81.8818 0.0072763L83.2331 0.0145506L81.7518 0.189133C79.3023 0.480105 77.2646 0.77835 73.6662 1.38939L70.2412 1.96406L69.4753 2.72058C69.0562 3.14249 68.731 3.49893 68.7455 3.52076C68.7672 3.5353 69.0345 3.60077 69.338 3.66624C70.0244 3.81173 70.7398 3.81173 71.3106 3.68079C72.0765 3.49893 72.7052 3.46256 75.5015 3.46256L78.2473 3.45529L79.3673 2.96064C81.2604 2.11682 83.8906 1.08387 85.9933 0.356442C86.8531 0.0581963 87.106 2.02097e-06 87.5468 2.02097e-06C87.9948 2.02097e-06 88.0526 0.0145506 87.9659 0.101842ZM14.1552 1.80402C14.278 2.546 14.372 2.89517 14.4731 3.03338C14.5598 3.13522 14.6249 3.25161 14.6249 3.28798C14.6249 3.43346 15.1307 4.13179 15.4992 4.49551C15.7159 4.70646 16.1134 5.02653 16.3952 5.20111C16.8721 5.49936 17.8186 5.92127 18.1293 5.97219C18.2233 5.99401 18.6929 5.68122 19.5239 5.05563L20.7667 4.10997L20.0225 4.05905C19.1193 3.98631 18.2522 3.77535 17.4429 3.42619C16.3301 2.94609 15.015 1.97861 14.3358 1.13479C14.1624 0.916562 14.0034 0.741979 13.9962 0.756527C13.989 0.763802 14.054 1.23663 14.1552 1.80402ZM23.4547 2.69149C22.5731 3.35345 21.8578 3.93539 21.8506 3.98631C21.8506 4.03723 21.9517 4.3282 22.0746 4.62645C22.5081 5.67394 23.1873 6.365 24.105 6.69234L24.5096 6.83783L25.4056 6.65597C25.897 6.56141 27.1037 6.34318 28.1008 6.18314C29.0907 6.02311 30.0156 5.87035 30.1457 5.84853C30.3769 5.81215 30.3191 5.77578 29.2425 5.23749C27.4361 4.3282 26.6196 3.62987 25.8175 2.3205C25.3912 1.61489 25.2539 1.44031 25.1383 1.46941C25.0877 1.48396 24.329 2.02953 23.4547 2.69149ZM64.6846 3.0843C64.5762 3.22251 64.0054 3.67351 63.4129 4.09542C61.4692 5.47754 60.0168 6.69234 58.6873 8.05263L58.0586 8.69277L58.1237 10.4386C58.167 11.3988 58.2032 12.4536 58.2176 12.7736L58.2321 13.3701L58.774 12.7445C59.6628 11.7189 61.079 10.2713 63.9259 7.48524C68.1313 3.35345 69.2513 2.24048 69.2513 2.18956C69.2513 2.16046 68.2686 2.29868 67.0691 2.48781L64.8942 2.83697L64.6846 3.0843ZM6.15632 3.17886C6.62599 3.85537 6.81386 4.62645 6.67657 5.32478C6.49592 6.29953 5.90342 7.11425 4.97852 7.6671C4.74007 7.81258 4.59556 7.92897 4.65337 7.92897C4.71117 7.92897 5.65774 8.05991 6.74882 8.21994L8.7359 8.50364L8.97435 8.24176C9.42957 7.72529 9.60298 6.70689 9.41511 5.62302L9.33563 5.16474L8.67087 4.66282C7.76042 3.97176 6.10574 2.89517 6.03348 2.95336C6.01903 2.96791 6.07683 3.06248 6.15632 3.17886ZM62.1701 3.19341C61.238 3.3098 59.894 3.46256 59.1931 3.5353C57.4734 3.70261 57.5818 3.57895 57.7624 5.23749C57.8419 5.93582 57.9286 6.80873 57.9575 7.17245L58.0153 7.84168L58.9908 6.93239C60.1397 5.86307 61.7004 4.5828 62.7987 3.819C63.7092 3.17886 63.9548 2.98973 63.9043 2.98973C63.8826 2.98246 63.1022 3.07702 62.1701 3.19341ZM12.0814 4.47369C11.7707 4.57553 11.1565 4.70646 10.7085 4.76466C9.97149 4.8665 9.69692 4.96834 9.84143 5.09927C9.87033 5.12837 10.1377 5.35387 10.4339 5.6012C10.7302 5.8558 11.1276 6.20497 11.3155 6.38682C11.5901 6.65597 11.7201 6.72144 12.0381 6.77236C12.6956 6.88147 13.4037 6.68507 13.8951 6.27043L14.1263 6.07403L14.0107 5.01926C13.8445 3.46256 13.9312 3.57895 13.2303 3.95721C12.9051 4.13907 12.3849 4.36457 12.0814 4.47369ZM55.7753 3.85537C55.3346 3.89902 53.557 4.0445 51.8229 4.17544L48.658 4.42277L48.2028 4.78648C46.8877 5.84125 45.5654 7.59435 44.9006 9.14378C44.2648 10.6568 44.1564 11.537 44.2214 14.8468L44.272 17.3055L44.496 17.3564C45.3197 17.5237 47.6536 18.0839 48.6219 18.3385C49.2577 18.5058 49.8502 18.6585 49.9442 18.6804C50.1898 18.7313 50.356 18.2512 50.5367 16.9855C50.6234 16.3817 50.7534 15.5815 50.8329 15.2033C51.6494 11.2897 53.7883 7.15062 56.4184 4.37912C57.076 3.68806 57.1265 3.73171 55.7753 3.85537ZM71.4262 4.02995C70.1979 4.28455 69.6776 4.59735 68.3914 5.84853C67.3076 6.9033 67.0113 7.15062 66.2598 7.60163C65.9491 7.79803 65.2482 8.30723 64.7063 8.74369C63.6586 9.58751 62.936 10.0021 62.3507 10.0894C62.0039 10.1476 61.9533 10.184 61.014 11.166C60.4793 11.7261 59.6266 12.6427 59.1208 13.2028L58.1959 14.2212V14.8468V15.4797L59.6628 14.374C64.4895 10.7441 68.8539 8.05263 74.4827 5.23021L77.0767 3.93539L76.1446 3.90629C74.172 3.8481 72.0549 3.90629 71.4262 4.02995ZM65.3855 6.74326C63.767 8.32906 62.4808 9.6457 62.5241 9.66025C62.647 9.7039 63.1889 9.50022 63.5141 9.28926C63.673 9.1947 63.9765 8.94737 64.1933 8.75096C64.9448 8.06718 65.4072 7.73256 66.0936 7.3543C67.0763 6.82328 67.4015 6.54686 68.1963 5.62302C68.6588 5.08473 69.049 4.70646 69.3597 4.49551L69.8293 4.18999L69.1646 4.02995C68.7961 3.94266 68.4565 3.86992 68.4131 3.86265C68.3698 3.86265 67.0041 5.15747 65.3855 6.74326ZM14.5887 4.91014C14.6465 5.43389 14.6971 6.00129 14.6971 6.19042C14.6971 6.73599 15.1668 7.3543 15.7737 7.6089C15.9038 7.6671 16.0555 7.71074 16.1061 7.71074C16.1856 7.71074 17.9631 6.28498 18.0065 6.19042C18.0137 6.16132 17.8331 6.0813 17.6091 6.00856C16.6625 5.71031 15.6437 5.07745 14.95 4.37912C14.7188 4.13179 14.5165 3.94266 14.502 3.94994C14.4948 3.96449 14.5309 4.39367 14.5887 4.91014ZM20.0152 5.29568C18.7363 6.27771 18.7146 6.29953 18.5556 6.72871C18.4617 6.96877 18.3895 7.31066 18.3895 7.47797C18.3822 7.88532 18.5773 8.24176 18.7796 8.19812C18.8591 8.18357 19.7045 7.96534 20.6583 7.72529C21.6121 7.47797 22.7177 7.20882 23.1151 7.1288C23.5125 7.04151 23.881 6.96149 23.9388 6.93967C23.9894 6.92512 23.7943 6.78691 23.5053 6.64142C22.7827 6.28498 22.1179 5.60847 21.735 4.85922C21.5832 4.54643 21.417 4.29183 21.3809 4.2991C21.3376 4.2991 20.7234 4.75011 20.0152 5.29568ZM45.0957 4.69191L42.7257 4.8665L42.1476 5.35387C40.3412 6.86693 39.0333 9.12195 38.5781 11.4934C38.3975 12.4681 38.3686 13.4502 38.4914 14.5122C38.5637 15.1378 38.5853 15.5815 38.542 15.8216C38.5131 16.018 38.4914 16.1853 38.4986 16.1926C38.4986 16.1926 38.9249 16.2726 39.4452 16.3599C39.9582 16.4544 41.1288 16.6727 42.0392 16.8545C42.9424 17.0291 43.7084 17.16 43.73 17.1382C43.7517 17.1164 43.73 16.1344 43.6795 14.9705C43.5855 12.65 43.6289 11.6752 43.889 10.6714C44.3804 8.73642 45.6593 6.67052 47.3718 5.0629L48.0221 4.45186L47.7475 4.48096C47.5886 4.49551 46.3963 4.59007 45.0957 4.69191ZM56.404 5.23749C54.4241 7.49979 52.8345 10.344 51.9963 13.1301C51.5844 14.4976 51.0642 16.8472 51.1942 16.7672C51.2231 16.7454 51.3387 16.5781 51.4471 16.3817C52.6394 14.3085 55.349 10.6932 57.0254 8.92555L57.495 8.4309L57.4517 7.76166C57.3361 6.10313 57.1554 4.51006 57.0832 4.53188C57.0398 4.54643 56.7363 4.8665 56.404 5.23749ZM39.2284 5.16474C35.6228 5.49936 35.1098 5.56483 34.8641 5.73941C34.4161 6.05948 33.9464 7.10698 33.7802 8.1472C33.5996 9.23834 33.6718 10.2495 34.1415 13.2683C34.4378 15.1523 34.445 15.2251 34.3149 15.3196C34.2427 15.3778 34.1921 15.4288 34.2138 15.4433C34.2282 15.4579 34.9797 15.5888 35.8757 15.7416C36.7717 15.887 37.5737 16.0252 37.6532 16.0471C37.7688 16.0762 37.8194 16.0471 37.8628 15.9161C37.8917 15.8288 37.9206 14.8977 37.9278 13.8575C37.9422 12.199 37.9639 11.8862 38.1012 11.3115C38.6648 8.93282 39.6692 7.13607 41.3094 5.54301C41.8152 5.05563 41.9019 4.94651 41.7719 4.94651C41.6779 4.94651 40.5363 5.04835 39.2284 5.16474ZM32.8915 5.84853C31.3596 6.04493 31.403 6.02311 30.5503 6.91785C29.7194 7.79803 29.0474 8.83826 28.5633 9.99487C28.1948 10.8823 28.0069 11.6534 27.8841 12.7664C27.819 13.392 27.7395 13.7775 27.6384 13.9739L27.4866 14.2576L27.6528 14.2867C27.7395 14.3085 27.9708 14.3594 28.1731 14.3958C28.9535 14.5558 33.4768 15.3487 33.6213 15.3487C33.6502 15.3487 33.7297 15.3051 33.7947 15.2542C33.9103 15.1742 33.8958 15.0214 33.5851 12.9846C33.3611 11.5079 33.2383 10.4677 33.2166 9.77664C33.1805 8.83826 33.195 8.6855 33.3684 8.00899C33.5707 7.22337 33.8886 6.44502 34.156 6.0813C34.4161 5.73941 34.445 5.67394 34.3366 5.67394C34.286 5.67394 33.6357 5.75396 32.8915 5.84853ZM9.93537 5.90672C10.1305 6.5905 9.92814 7.81258 9.53073 8.32906C9.42957 8.46727 9.35008 8.58366 9.36453 8.59093C9.37899 8.59093 9.85588 8.67095 10.4339 8.76551L11.4817 8.93282L11.6406 8.75096C11.843 8.49636 11.9802 7.99444 11.9224 7.68164C11.8791 7.47069 11.7057 7.26701 10.9181 6.55413C10.3906 6.07403 9.94259 5.67394 9.91369 5.67394C9.88479 5.67394 9.89924 5.78306 9.93537 5.90672ZM29.676 6.29226C28.3248 6.50321 26.7207 6.77963 25.6441 6.99059C24.9721 7.12153 24.8998 7.1579 24.5241 7.48524C23.7148 8.19812 23.0717 9.24562 22.6888 10.4604C22.4864 11.1006 22.3275 12.2135 22.3708 12.6936C22.3925 12.9773 22.407 12.9919 22.7899 13.1155C23.3102 13.2828 25.2756 13.7848 26.3161 14.0103C26.9808 14.1558 27.1615 14.1703 27.2121 14.0976C27.2771 13.9884 27.306 13.8139 27.4072 12.8755C27.6528 10.6205 28.8162 8.29996 30.5359 6.59778C30.8105 6.32863 30.9983 6.1104 30.955 6.1104C30.9116 6.1104 30.3336 6.19042 29.676 6.29226ZM13.6855 6.91785C13.4109 7.02696 13.1147 7.07061 12.7245 7.07788C12.421 7.07788 12.1681 7.0997 12.1681 7.12153C12.1681 7.13607 12.6017 7.58708 13.1219 8.12538C13.9023 8.91827 14.0902 9.07103 14.1335 8.96919C14.2274 8.71459 14.1985 6.76509 14.0902 6.76509C14.0902 6.76509 13.9023 6.83783 13.6855 6.91785ZM16.807 7.87805C16.6119 8.089 16.518 8.70732 16.6697 8.77279C16.7275 8.79461 17.1033 8.70732 17.5007 8.58366L18.2233 8.35815L18.0137 7.97989C17.8909 7.75439 17.8042 7.49251 17.8042 7.32521V7.04878L17.3779 7.3834C17.1466 7.56526 16.8865 7.79076 16.807 7.87805ZM14.7477 8.9401C14.7694 8.96919 15.911 7.97989 15.9183 7.9217C15.9255 7.89987 15.7665 7.80531 15.5714 7.71802C15.3763 7.62345 15.1307 7.47069 15.015 7.3834L14.8055 7.21609L14.7694 8.05991C14.7477 8.53274 14.7405 8.92555 14.7477 8.9401ZM21.8506 7.82713C19.1626 8.46727 18.9603 8.54001 18.6568 8.87463C18.5123 9.04194 18.3172 9.362 18.2377 9.58751C18.0282 10.1404 17.8909 11.1006 17.992 11.2606C18.086 11.4061 19.0976 11.8571 20.4632 12.359C21.5254 12.7445 21.6699 12.7809 21.7422 12.6573C21.7639 12.6209 21.8144 12.2208 21.8506 11.7698C21.8867 11.3188 21.9879 10.7005 22.0673 10.4022C22.2624 9.7039 22.8405 8.50364 23.2307 7.99444C23.3969 7.77621 23.5703 7.55798 23.6137 7.49979C23.7076 7.3834 23.722 7.37613 21.8506 7.82713ZM12.2331 9.02739C12.2548 9.05648 12.5366 9.11468 12.8546 9.15832C13.1725 9.20924 13.4976 9.26744 13.5771 9.28926C13.6566 9.31108 13.4543 9.05648 13.1075 8.70004L12.5005 8.07446L12.3415 8.53274C12.262 8.78006 12.2115 9.00556 12.2331 9.02739ZM4.7184 9.17287C5.17362 10.0894 5.59271 11.2169 5.954 12.5118C6.27193 13.632 6.32973 14.7377 6.11296 15.3851C6.03348 15.6252 5.97567 15.8288 5.9829 15.8361C6.02625 15.8798 8.20842 14.2285 8.30235 14.083C8.483 13.8066 8.7648 12.6645 8.85151 11.8716C8.95267 10.9769 8.87319 10.1622 8.59861 9.37655C8.43964 8.91827 8.43964 8.911 8.12171 8.8528C7.7243 8.78006 4.33543 8.30723 4.31376 8.32178C4.30653 8.32906 4.48717 8.71459 4.7184 9.17287ZM15.2318 9.28926C15.239 9.30381 15.4558 9.23834 15.7015 9.15832C16.0989 9.02011 16.1495 8.98374 16.1134 8.84553C16.0917 8.76551 16.07 8.64912 16.07 8.5982C16.07 8.54728 15.8749 8.67095 15.6365 8.8819C15.398 9.09286 15.2174 9.27471 15.2318 9.28926ZM16.3301 9.3911C15.2679 9.73299 15.1885 9.77664 15.3185 9.8712C15.5208 10.024 16.3157 10.4895 16.901 10.7878L17.4068 11.0569L17.4862 10.3804C17.5368 10.0167 17.6452 9.52931 17.7247 9.31108C17.8114 9.09286 17.8764 8.90372 17.8764 8.89645C17.8764 8.88918 17.7897 8.911 17.6741 8.94737C17.5657 8.98374 16.9588 9.18015 16.3301 9.3911ZM9.15499 9.362C9.17667 9.55841 9.24892 9.9585 9.31395 10.2567C9.47292 10.9478 9.42234 12.1553 9.21279 12.9773C9.12609 13.2974 9.06105 13.5665 9.06105 13.5811C9.06105 13.5884 9.58853 13.2101 10.2316 12.7227C10.8819 12.2426 11.4022 11.8134 11.3877 11.7698C11.3733 11.7261 11.4311 11.5297 11.5178 11.3333C11.7924 10.6932 11.6912 9.52931 11.3444 9.37655C11.1926 9.31108 9.61021 9.04194 9.28505 9.02739C9.12609 9.02011 9.11886 9.03466 9.15499 9.362ZM56.4907 10.4095C54.7709 12.3954 53.1379 14.7013 51.5121 17.4146C51.0931 18.1202 50.7318 18.7386 50.7101 18.7967C50.6812 18.8695 50.7896 18.935 51.0931 19.0223C51.3243 19.0877 51.8807 19.2623 52.3359 19.4005L53.1668 19.6624L53.2752 19.4951C53.5932 19.015 54.9588 17.2764 56.1077 15.887C56.8086 15.0359 57.4589 14.243 57.5384 14.1339C57.6829 13.9375 57.6829 13.8793 57.6179 11.6389C57.5818 10.3804 57.5456 9.31108 57.5456 9.27471C57.5456 9.23107 57.4517 9.30381 57.3433 9.42747C57.2349 9.55114 56.852 9.99487 56.4907 10.4095ZM12.1392 9.72572C12.1681 9.87848 12.197 10.2858 12.2042 10.635V11.2679L12.421 11.1006C12.5366 11.0133 12.9196 10.7296 13.2664 10.475C13.6205 10.2131 13.9023 9.9585 13.9023 9.88575C13.9023 9.79119 13.7361 9.74027 13.0497 9.62388C12.5872 9.53659 12.1753 9.47112 12.1392 9.46384C12.1031 9.46384 12.1031 9.57296 12.1392 9.72572ZM15.7015 11.0133L16.3807 11.7043L16.5614 11.5588C16.6625 11.4861 16.7853 11.4206 16.8359 11.4206C17.0455 11.4206 16.9226 11.3042 16.4963 11.0933C16.2506 10.9696 15.8532 10.7514 15.6076 10.6059C15.3691 10.4531 15.1379 10.3368 15.0945 10.3295C15.0584 10.3295 15.333 10.635 15.7015 11.0133ZM13.83 11.537C13.6349 12.1553 13.4687 12.7009 13.4687 12.7373C13.4687 12.7809 13.5555 12.7955 13.6711 12.7664C13.7794 12.7445 14.0251 12.7227 14.213 12.7154C14.4081 12.7154 14.5526 12.6791 14.5526 12.6282C14.5598 12.3445 14.2997 10.4022 14.2491 10.4022C14.2202 10.4022 14.0323 10.9114 13.83 11.537ZM15.0006 11.4061C15.0439 11.8134 15.109 12.1481 15.1379 12.1481C15.1668 12.1481 15.2824 12.0971 15.3908 12.0389C15.5064 11.9807 15.7015 11.9298 15.8243 11.9298C15.9472 11.9298 16.07 11.908 16.0989 11.8789C16.1206 11.8498 15.8821 11.5588 15.5497 11.2242C15.2246 10.8969 14.95 10.635 14.9356 10.6496C14.9211 10.6568 14.95 11.006 15.0006 11.4061ZM12.4933 11.6752C12.2837 11.8498 12.2837 11.8571 12.421 11.9444C12.5005 11.988 12.6739 12.1408 12.8112 12.2717C12.9413 12.4099 13.0569 12.5045 13.0641 12.4972C13.1002 12.4245 13.541 11.006 13.541 10.9551C13.541 10.8969 12.8618 11.3624 12.4933 11.6752ZM17.1177 11.8207C17.0166 11.9153 16.9371 12.0535 16.9371 12.1262C16.9371 12.2717 18.9458 14.3303 19.0831 14.3303C19.1265 14.3303 19.2349 14.2212 19.3143 14.0903C19.4878 13.7993 19.9358 13.4356 20.4343 13.1592L20.7956 12.9555L20.5861 12.8755C20.4632 12.8318 20.0586 12.6791 19.6829 12.5336C19.3071 12.3881 18.6857 12.1335 18.31 11.9662C17.5007 11.5952 17.349 11.5807 17.1177 11.8207ZM10.4628 13.1665C9.7475 13.6975 9.12609 14.163 9.07551 14.214C9.00325 14.2867 9.08273 14.3449 9.4946 14.5049C10.181 14.7741 11.0264 15.3487 11.5323 15.8725L11.9441 16.3017L12.0886 15.807C12.7028 13.6975 12.8184 13.2246 12.7751 13.0428C12.6884 12.6936 12.4716 12.3154 12.262 12.1626C12.0236 11.9807 12.197 11.8862 10.4628 13.1665ZM15.6943 12.4536C15.2029 12.73 15.1812 12.8173 15.3474 13.7702C15.4269 14.2285 15.557 14.9268 15.6365 15.3124C15.7159 15.7052 15.781 16.0398 15.781 16.0616C15.781 16.0834 15.9688 15.9161 16.1928 15.6979C16.4241 15.4797 16.7492 15.2178 16.9154 15.1087C17.2911 14.8686 18.0137 14.6213 18.3389 14.6213C18.9097 14.6213 18.888 14.5922 17.6813 13.3701L16.5397 12.2135L16.2579 12.2572C16.0989 12.279 15.846 12.3736 15.6943 12.4536ZM13.9673 13.1083C13.83 13.1519 13.606 13.2683 13.4615 13.3629C13.2158 13.5229 13.1942 13.5811 12.8546 14.7886C12.6667 15.4724 12.4933 16.0834 12.4716 16.1271C12.4499 16.1998 12.5655 16.2144 12.9702 16.178C13.4254 16.1416 13.6349 16.1707 14.3647 16.3599C14.8344 16.4835 15.239 16.5708 15.2607 16.5563C15.2752 16.5344 15.1957 16.018 15.0729 15.4069C14.95 14.7959 14.8127 14.083 14.7694 13.8211C14.6393 13.0137 14.6393 13.021 14.4153 13.021C14.3069 13.021 14.1046 13.0573 13.9673 13.1083ZM21.1425 13.3847C20.6511 13.6102 20.2248 13.9521 19.878 14.4031L19.5528 14.8177L20.5788 15.8361C21.1352 16.389 21.9951 17.2328 22.4864 17.7056L23.3752 18.5712L23.6137 18.0257C23.9894 17.1528 24.618 16.2508 25.384 15.4942C25.7669 15.1087 26.186 14.7522 26.3088 14.7013C26.4389 14.6504 26.5473 14.5849 26.5473 14.5558C26.5473 14.5267 25.9548 14.3667 25.225 14.1994C24.5024 14.0321 23.4186 13.7484 22.826 13.5738C22.2263 13.3992 21.6772 13.2465 21.5977 13.2465C21.5182 13.2465 21.3159 13.3047 21.1425 13.3847ZM7.65204 15.2469C7.13179 15.6324 6.42367 16.1562 6.07683 16.4181L5.43374 16.8909L6.11296 17.1964C7.56533 17.8584 8.85873 18.7677 10.0293 19.9606C10.7085 20.6444 10.8314 20.739 10.8747 20.6153C10.9036 20.5426 11.1204 19.6551 11.3661 18.6585L11.7996 16.84L11.5395 16.4544C11.395 16.2435 11.0843 15.8943 10.853 15.6761C10.2894 15.1669 9.16221 14.5704 8.7359 14.5558C8.65641 14.5558 8.16507 14.8614 7.65204 15.2469ZM26.5545 14.8541C26.0559 15.1378 25.16 16.0252 24.7481 16.6508C24.4013 17.1673 23.8232 18.3457 23.7582 18.6658C23.7148 18.884 23.9749 19.1459 26.8435 21.8083L27.1832 22.1211L27.4144 21.8883C27.5372 21.7574 27.8262 21.2918 28.043 20.8408C28.9607 18.9713 30.5792 17.1819 32.3568 16.0762C32.8553 15.7634 32.9059 15.7125 32.7542 15.6834C32.6602 15.6615 31.7498 15.4942 30.7382 15.3124C29.7266 15.1378 28.5199 14.905 28.0647 14.8104C27.6095 14.7159 27.1759 14.6359 27.0964 14.6286C27.0242 14.6213 26.7785 14.7232 26.5545 14.8541ZM56.3534 16.4108C55.6742 17.2328 55.1106 17.9384 55.0961 17.982C55.0817 18.0257 55.4718 17.7202 55.9632 17.3055C56.4618 16.8909 57.0254 16.4181 57.2349 16.258L57.6034 15.9671L57.6323 15.436C57.6396 15.1523 57.6396 14.9123 57.6179 14.9123C57.5962 14.9123 57.0254 15.5888 56.3534 16.4108ZM18.1655 15.2178C17.4068 15.4069 16.7853 15.8507 16.2434 16.5926L15.9833 16.9564L16.2506 18.062C16.5614 19.3132 17.1177 21.2991 17.1755 21.3573C17.2406 21.4228 17.9198 21.0518 18.5195 20.6299C19.5311 19.917 20.9618 19.1241 21.6699 18.8768C21.865 18.8113 22.248 18.7167 22.5153 18.6731L23.0067 18.5858L21.1425 16.789L19.2854 14.9923L18.9964 15.0359C18.8375 15.0578 18.4617 15.1378 18.1655 15.2178ZM32.7614 16.1489C30.8105 17.3273 29.3798 18.8913 28.3899 20.9208C28.1297 21.4519 27.819 21.9829 27.6962 22.1211L27.4794 22.3539L27.7179 22.5939C27.8479 22.7249 28.5271 23.3432 29.2208 23.9615C30.6659 25.249 30.5431 25.2272 30.9911 24.3616C32.075 22.2884 34.4305 19.3714 36.4899 17.5528C37.0607 17.0509 37.5304 16.6072 37.5304 16.5781C37.5304 16.5417 37.4581 16.4981 37.3642 16.4763C37.1474 16.4181 33.6213 15.7997 33.4768 15.7925C33.4117 15.7852 33.0938 15.9525 32.7614 16.1489ZM12.7823 16.6945C12.262 16.9273 12.2548 16.9564 11.7996 18.8113C11.5684 19.7642 11.3588 20.6735 11.3372 20.819L11.2866 21.0881L11.6406 21.1391C11.8863 21.1754 12.2331 21.1391 12.8401 21.0227C13.8517 20.8263 14.1046 20.8481 15.4775 21.2118C16.005 21.35 16.4674 21.4591 16.4963 21.4446C16.5252 21.43 16.4313 20.979 16.2795 20.4407C16.1278 19.9024 15.8677 18.8986 15.6943 18.2075L15.3908 16.9636L14.7332 16.7745C14.3792 16.6727 13.9818 16.5781 13.8662 16.5635C13.5627 16.5126 13.0352 16.5781 12.7823 16.6945ZM36.9306 17.8147C35.3482 19.2841 34.3872 20.2807 33.6357 21.2409C32.9276 22.1429 31.8437 23.7578 31.2946 24.7471L30.8972 25.4527L31.9521 26.4202C32.5374 26.9512 33.3828 27.7441 33.8308 28.1806C34.2788 28.617 34.6545 28.9589 34.669 28.9444C34.7051 28.908 34.9869 27.9696 35.4349 26.3693C35.8107 25.0526 36.2659 23.7724 36.6272 23.0522C37.6171 21.0736 39.3079 19.5605 42.0609 18.1857C42.6606 17.8875 43.1592 17.6183 43.1592 17.5965C43.1664 17.5383 38.7515 16.6799 38.3758 16.6654C38.2096 16.6581 37.9422 16.8691 36.9306 17.8147ZM3.12151 18.5931C2.11714 19.3423 1.22115 20.0043 1.13444 20.077C0.982701 20.1934 1.01883 20.208 2.4423 20.6517C4.96407 21.4373 6.40199 22.092 7.63036 23.0013C8.43242 23.5905 9.33563 24.5362 9.60298 25.0454C9.72582 25.2709 9.84143 25.46 9.86311 25.46C9.88479 25.46 9.97872 25.0599 10.0654 24.5653C10.1521 24.0779 10.3328 23.1831 10.4628 22.5794L10.6941 21.4737L10.3039 21.0518C9.03938 19.6769 8.59861 19.2841 7.43527 18.5131C6.90056 18.1566 5.14471 17.2401 5.0002 17.2401C4.97852 17.2401 4.13311 17.8511 3.12151 18.5931ZM42.4005 18.3603C38.2096 20.4626 37.0318 22.012 35.724 27.0894C35.565 27.7296 35.3482 28.4497 35.2471 28.6898C35.1459 28.9371 35.0447 29.1844 35.0231 29.2499C35.0014 29.3299 35.4205 29.7882 36.3454 30.6829C37.0896 31.4104 37.7327 32.0068 37.7761 32.0068C37.9567 32.0068 38.2385 31.454 38.6576 30.2974C39.4596 28.0787 40.8831 25.911 42.639 24.2234C44.2358 22.6812 45.8111 21.5683 48.4412 20.1134C49.1999 19.6915 49.843 19.1677 49.6696 19.1023C49.3011 18.9641 44.1853 17.7202 43.8095 17.6838C43.7879 17.6765 43.152 17.982 42.4005 18.3603ZM21.735 19.1386C21.0052 19.3641 20.5716 19.6042 19.0904 20.608C18.3606 21.0954 17.6524 21.5464 17.5296 21.5973C17.2695 21.7065 17.255 21.801 17.3995 22.2666C17.4573 22.4412 17.8042 23.5541 18.1727 24.7326C18.534 25.911 18.8664 26.9076 18.8953 26.9439C18.9314 26.9876 19.3505 26.6166 19.878 26.071C21.5688 24.347 23.4402 23.2341 25.7814 22.5576C26.3305 22.3975 26.793 22.252 26.8074 22.2375C26.8435 22.2084 26.4895 21.8592 25.3912 20.8408C25.1311 20.5935 24.5819 20.077 24.1773 19.6915L23.4258 18.9859H22.826C22.4214 18.9859 22.0673 19.0368 21.735 19.1386ZM49.9586 19.6624C49.7346 19.8733 49.1566 20.2734 48.6869 20.5499C45.5943 22.3466 44.2575 23.3359 42.6606 24.9944C41.4756 26.2311 40.5796 27.475 39.886 28.8644C39.5825 29.4681 39.1706 30.4865 39.214 30.5229C39.2284 30.5447 39.3657 30.3483 39.5175 30.101C40.2111 28.9589 41.3889 27.5404 42.7112 26.2529C44.0263 24.9726 45.3197 24.1579 51.122 20.9645C51.859 20.5571 52.5237 20.1789 52.596 20.1207C52.7261 20.0261 52.6466 19.9897 51.765 19.7133C51.2303 19.546 50.7101 19.386 50.6089 19.3496C50.5078 19.3132 50.4138 19.2841 50.3994 19.2841C50.3849 19.2769 50.1898 19.4514 49.9586 19.6624ZM12.2765 21.4591C11.8863 21.5755 11.4817 21.6774 11.3661 21.6774C11.1059 21.6774 11.1493 21.5101 10.3183 25.8383C10.2822 26.0056 10.3111 26.0565 10.4701 26.1292C10.6218 26.1947 10.8241 26.1801 11.5467 26.0565C13.5193 25.7073 15.9038 25.9474 17.5513 26.6748C17.8909 26.8203 18.1799 26.9221 18.2016 26.9076C18.216 26.8858 18.0137 26.1656 17.7391 25.3072C17.4718 24.4489 17.125 23.3359 16.9732 22.834L16.6986 21.9247L16.1278 21.8374C15.8171 21.7938 15.3258 21.6846 15.0439 21.5973C13.6566 21.1827 13.2303 21.1609 12.2765 21.4591ZM24.2423 23.3868C22.4864 24.1288 21.0124 25.1836 19.6684 26.6457L19.0109 27.3659L19.56 29.0826C19.8635 30.0282 20.1814 31.0248 20.2609 31.294C20.3476 31.5704 20.4416 31.7886 20.4705 31.7886C20.5066 31.7886 20.7739 31.4686 21.063 31.0757C23.0934 28.3552 26.3016 26.1656 29.4159 25.38C29.7844 25.2854 30.0879 25.1836 30.0879 25.1545C30.0879 25.1254 29.4376 24.5216 28.6355 23.8087L27.1832 22.5066L26.1138 22.7758C25.5285 22.9285 24.6831 23.1977 24.2423 23.3868ZM28.4621 26.1874C27.0459 26.6821 25.2756 27.6714 24.0616 28.6461C22.9633 29.5336 21.8072 30.7702 21.1208 31.8032C20.9546 32.0578 20.7739 32.2978 20.7089 32.3487C20.615 32.4288 20.6439 32.5742 20.9329 33.5854C21.1208 34.2182 21.352 35.0475 21.4532 35.4258C21.5543 35.804 21.6555 36.175 21.6772 36.2405C21.7061 36.3423 21.7928 36.2769 22.0601 35.9495C23.1873 34.5819 24.9287 33.4763 27.595 32.4215C28.1514 32.2033 29.5315 31.7086 30.6659 31.3158C32.971 30.5302 33.5562 30.2537 34.1343 29.6936L34.5245 29.3154L33.8091 28.5807C33.4117 28.1733 32.5446 27.3513 31.8871 26.7403L30.6804 25.6273L29.9 25.7946C29.4665 25.8819 28.8162 26.0565 28.4621 26.1874ZM11.2504 26.3766C10.0654 26.5511 10.2244 26.2965 9.82698 28.668C9.55963 30.2974 9.50905 30.7338 9.58131 30.7775C9.78363 30.9084 10.34 30.9303 11.2866 30.8502C13.8806 30.6393 16.4746 30.8211 18.8736 31.3958C19.2854 31.4904 19.654 31.5704 19.6829 31.5704C19.719 31.5704 19.6684 31.3303 19.5745 31.0394C19.4805 30.7557 19.1843 29.8318 18.9242 29.0026C18.5918 27.9405 18.4111 27.475 18.3244 27.4459C18.2594 27.424 17.8981 27.2786 17.5224 27.1185C16.7348 26.7839 15.7882 26.522 14.8778 26.3766C13.9745 26.2383 12.1753 26.2311 11.2504 26.3766ZM34.4884 29.8682C33.9537 30.4211 33.0432 30.8357 29.7266 32.0068C27.0025 32.9671 25.4923 33.6508 24.3073 34.451C23.6281 34.902 22.5804 35.9059 22.1685 36.4878L21.8506 36.9315L22.2263 38.4737L22.5948 40.0158L22.7827 39.9722C23.0428 39.9067 23.3824 39.6739 24.5241 38.7865C27.6817 36.3205 31.4247 34.371 35.5433 33.0616C36.8512 32.6397 37.5593 32.3415 37.5159 32.2324C37.487 32.1523 34.8352 29.6136 34.7774 29.6136C34.7557 29.6063 34.6256 29.7227 34.4884 29.8682ZM11.8791 31.3885C11.3444 31.454 10.564 31.4976 10.1449 31.4904C9.73305 31.4831 9.38621 31.5049 9.37176 31.5413C9.36453 31.5777 9.25615 32.3269 9.13331 33.2071C9.01047 34.0873 8.89486 34.8947 8.87319 35.0039C8.83706 35.1857 8.85151 35.2003 9.16944 35.2512C9.37176 35.2803 9.99317 35.2366 10.7808 35.1421C12.8473 34.8947 13.5771 34.8438 14.9283 34.8438C17.2478 34.8438 19.0614 35.2148 20.6294 36.015C20.9979 36.1968 21.063 36.2114 21.0268 36.1023C21.0052 36.0295 20.8534 35.4985 20.7017 34.9166C20.5427 34.3346 20.3043 33.5053 20.1742 33.0689L19.9358 32.276L19.4661 32.1378C18.3172 31.8104 16.005 31.4176 14.661 31.3303C13.7361 31.2649 12.7751 31.2867 11.8791 31.3885ZM35.8685 33.4617C34.5245 33.8254 32.2339 34.742 30.6659 35.5349C28.5271 36.6115 26.6629 37.8335 23.946 39.9213C23.7293 40.0886 23.3608 40.2995 23.1295 40.3868C22.9055 40.4668 22.7177 40.5541 22.7177 40.5687C22.7177 40.5905 22.8333 41.1724 22.9706 41.8708C23.2018 43.0347 23.6426 45.6098 23.7798 46.6645L23.8449 47.101L24.1484 46.519C24.553 45.748 25.5285 44.3877 26.5039 43.2311C28.1659 41.2743 33.9826 35.6222 36.6272 33.4035C36.7934 33.2653 36.8512 33.178 36.7717 33.2071C36.6922 33.2289 36.2876 33.3453 35.8685 33.4617ZM12.6739 35.3603C10.4845 35.6222 9.53073 35.7167 9.16221 35.7167H8.7937L8.75035 35.9859C8.60583 36.9024 8.11449 40.9324 8.13616 41.0633L8.15784 41.2306L8.7359 41.0561C10.0365 40.6705 11.3805 40.3068 12.0597 40.1613C14.4876 39.6594 17.3995 39.5939 20.2248 39.9795C20.6583 40.0377 21.2436 40.1031 21.5182 40.1322C22.0168 40.1759 22.0168 40.1759 21.9806 40.0013C21.959 39.9067 21.7855 39.1793 21.5977 38.3864L21.2508 36.9461L20.7739 36.6697C19.3722 35.8477 17.479 35.2875 15.781 35.1857C15.1234 35.1421 13.9384 35.2148 12.6739 35.3603ZM15.4558 40.154C13.5265 40.2923 11.6334 40.6414 9.94982 41.1797C9.45847 41.3398 8.81538 41.5289 8.53358 41.6016L8.01332 41.7253L7.96274 42.1617C7.93384 42.3945 7.74597 43.9803 7.54365 45.6752C7.34133 47.3701 7.18959 48.7668 7.21127 48.7886C7.23295 48.8104 7.76042 48.5558 8.38906 48.2212C10.275 47.2246 11.2215 46.7518 12.0236 46.3954C14.0757 45.4934 16.1206 44.8678 17.8403 44.6205C19.336 44.4022 21.5471 44.475 22.761 44.7805C22.9417 44.8314 22.9633 44.9769 22.4575 42.3218L22.1252 40.5978L21.7855 40.5541C21.6049 40.5323 21.1569 40.4668 20.8028 40.4086C18.8591 40.1031 17.3056 40.0304 15.4558 40.154ZM19.206 44.8823C16.2795 45.1224 13.2447 46.1844 9.2417 48.3667C8.44687 48.8032 7.64481 49.2105 7.44972 49.2833C7.2185 49.3706 7.09566 49.4651 7.07398 49.567C7.05953 49.6543 6.95837 50.4253 6.85721 51.2837C6.74882 52.1421 6.56818 53.546 6.45257 54.3971C6.33696 55.2482 6.24302 55.9974 6.24302 56.0556C6.24302 56.1211 6.51038 55.8156 6.82831 55.3791C10.5279 50.4253 15.781 46.8391 21.511 45.3552C22.0168 45.2242 22.4503 45.1006 22.472 45.0787C22.4937 45.0642 22.2408 45.006 21.9084 44.9623C21.3665 44.8896 21.0991 44.8678 20.3621 44.8241C20.2392 44.8169 19.719 44.846 19.206 44.8823ZM21.5977 45.7989C18.3606 46.6063 15.2463 48.1048 12.4933 50.1926C11.1276 51.2255 10.3834 51.902 9.0177 53.3423C7.65204 54.7754 5.87451 57.1904 6.04793 57.365C6.06238 57.3868 6.40199 57.0959 6.79218 56.7249C11.5539 52.273 16.518 49.5597 22.0168 48.4176C22.5515 48.3012 22.9344 48.1776 23.0934 48.0685C23.2235 47.9812 23.3391 47.9012 23.3463 47.9012C23.368 47.8939 23.0934 45.8498 23.0428 45.6243C22.9995 45.4352 23.1223 45.4206 21.5977 45.7989ZM20.5066 49.1814C15.4847 50.5635 10.4701 53.5896 6.63321 57.5541L5.90342 58.3034L5.44819 61.104C4.95685 64.1665 4.2126 67.9782 3.64899 70.4078C3.44667 71.2662 3.2877 71.979 3.30216 71.9863C3.30938 71.9936 3.54061 71.5935 3.81518 71.0843C7.42082 64.4065 9.42234 61.1694 12.197 57.5396C14.2925 54.7972 15.3691 53.546 16.5397 52.4985C17.4212 51.7129 18.216 51.16 20.297 49.9089C21.1714 49.3778 21.9156 48.9123 21.959 48.8686C22.0529 48.7741 21.7855 48.8323 20.5066 49.1814ZM3.12151 62.7043C2.60849 63.5627 1.78476 65.083 1.28618 66.0796L0.390192 67.8836L0.57806 68.1891C1.14889 69.1202 1.95817 70.9243 2.34114 72.1245C2.42784 72.4009 2.52178 72.6628 2.54346 72.7065C2.66629 72.9174 4.0175 66.6834 4.66059 62.9516C4.9713 61.1331 5.23142 59.5182 5.23142 59.3945C5.23142 59.2854 4.16202 60.9585 3.12151 62.7043Z" fill="black"/>
</svg>
