<?xml version="1.0" standalone="no"?>
<!DOCTYPE svg PUBLIC "-//W3C//DTD SVG 20010904//EN"
 "http://www.w3.org/TR/2001/REC-SVG-20010904/DTD/svg10.dtd">
<svg version="1.0" xmlns="http://www.w3.org/2000/svg"
 width="807.000000pt" height="1280.000000pt" viewBox="0 0 807.000000 1280.000000"
 preserveAspectRatio="xMidYMid meet">
<metadata>
Created by potrace 1.15, written by Peter Selinger 2001-2017
</metadata>
<g transform="translate(0.000000,1280.000000) scale(0.100000,-0.100000)"
fill="#000000" stroke="none">
<path d="M3990 12789 c0 -6 14 -24 31 -40 33 -30 33 -55 1 -91 -22 -25 -33
-22 -26 7 5 20 2 25 -12 25 -9 0 -25 -7 -34 -15 -14 -12 -21 -10 -66 21 -52
36 -106 51 -148 40 -41 -10 -32 -38 17 -59 24 -9 58 -30 76 -45 l33 -27 -45 0
c-29 0 -52 -6 -65 -18 -30 -27 -59 -104 -75 -193 -14 -87 -10 -84 -89 -69 -50
10 -98 -10 -98 -40 0 -12 7 -44 15 -71 22 -72 18 -77 -9 -11 -34 83 -81 127
-135 127 -44 0 -41 -146 5 -231 32 -59 115 -135 155 -144 15 -4 33 -13 41 -22
10 -13 8 -19 -16 -38 -66 -53 -244 -82 -305 -51 l-32 17 7 -38 c10 -55 29 -87
71 -122 38 -31 128 -71 161 -71 45 -1 45 -16 -5 -80 -71 -91 -82 -110 -89
-156 -12 -82 19 -109 87 -78 55 24 65 11 45 -57 -26 -87 -25 -91 37 -83 85 10
175 32 217 54 21 11 41 20 43 20 3 0 -6 -33 -19 -72 -13 -40 -28 -112 -35
-161 -12 -96 -39 -150 -78 -155 -47 -7 -52 2 -29 65 38 110 8 174 -91 193 -95
18 -150 13 -220 -20 -35 -17 -82 -35 -105 -40 -38 -8 -43 -7 -68 21 -37 40
-81 39 -144 -4 -27 -18 -89 -55 -139 -83 -49 -27 -113 -71 -140 -99 -106 -106
-152 -253 -106 -342 20 -41 58 -77 90 -88 20 -6 45 -85 36 -115 -4 -14 -36
-35 -92 -63 -100 -49 -124 -76 -131 -146 -2 -28 -6 -51 -8 -51 -2 0 -24 10
-48 22 -54 26 -66 19 -103 -59 -23 -48 -24 -55 -11 -90 22 -62 18 -339 -6
-438 l-20 -80 -8 70 c-39 333 -83 478 -182 608 -47 62 -53 88 -25 112 17 16
35 20 95 19 41 0 74 3 74 6 0 4 -10 22 -23 41 -40 59 -91 72 -182 44 -27 -8
-51 -13 -52 -11 -11 11 17 42 72 81 55 39 98 96 83 110 -2 2 -25 -4 -51 -13
l-47 -17 -54 29 c-45 24 -61 28 -105 24 -83 -8 -65 23 62 102 96 60 102 96 21
132 -44 19 -53 31 -34 43 21 13 50 86 50 125 0 57 -29 84 -84 78 l-42 -5 0
101 c0 118 -14 159 -56 164 -22 3 -31 -4 -53 -42 -15 -26 -52 -68 -83 -96
l-57 -49 -3 34 c-5 54 -24 61 -61 20 -36 -41 -42 -39 -115 24 -65 56 -84 60
-117 23 -73 -82 -35 -321 69 -434 29 -31 28 -34 -11 -43 -25 -7 -34 -1 -81 49
-49 53 -54 56 -80 46 -40 -15 -70 -3 -140 52 -67 54 -115 83 -124 74 -3 -3 -7
-30 -10 -60 -6 -70 22 -129 87 -188 64 -58 135 -95 223 -117 46 -12 73 -24 73
-32 0 -24 -39 -21 -115 11 -114 46 -150 39 -150 -29 0 -41 30 -96 69 -128 23
-19 24 -22 8 -28 -9 -4 -34 -4 -55 -1 -20 3 -60 9 -88 12 l-51 6 -68 -63 c-95
-89 -133 -179 -82 -193 42 -11 204 -6 250 8 l47 14 0 -38 c0 -27 8 -48 26 -70
15 -17 23 -34 19 -38 -3 -4 -52 -7 -108 -8 -116 -1 -125 -3 -188 -55 -36 -30
-50 -51 -63 -94 -21 -64 -14 -127 15 -156 24 -24 45 -15 69 30 34 67 42 68 94
6 26 -30 58 -58 72 -61 18 -5 24 -13 24 -33 0 -14 10 -59 21 -99 12 -40 19
-75 15 -79 -4 -4 -26 -1 -49 6 -23 7 -59 18 -80 24 -34 10 -40 9 -52 -7 -8
-10 -12 -30 -9 -45 7 -35 -37 -90 -142 -174 -129 -104 -173 -170 -174 -259 0
-26 -5 -50 -10 -53 -6 -4 -54 -11 -106 -16 -129 -12 -182 -40 -243 -129 -24
-36 -88 -124 -142 -197 -69 -91 -99 -139 -99 -159 l0 -27 113 8 c61 5 139 9
172 8 61 0 65 -2 199 -72 67 -35 133 -41 193 -16 20 8 80 47 133 85 115 83
153 100 219 100 40 0 58 -7 101 -36 28 -19 67 -38 85 -41 l32 -5 -13 73 c-19
105 -28 169 -22 169 26 0 119 -56 174 -104 80 -71 97 -106 85 -171 -15 -82
-61 -113 -182 -122 -95 -7 -144 -36 -181 -105 -32 -61 -32 -193 0 -298 33
-106 142 -330 160 -330 43 0 105 56 210 188 132 167 179 204 251 195 74 -9
134 33 203 141 l32 48 75 -4 c115 -7 155 -31 296 -176 138 -142 202 -225 282
-361 94 -158 323 -660 323 -706 0 -27 -32 -16 -116 42 -52 35 -84 63 -84 74 0
10 -11 26 -25 37 l-24 19 19 39 c33 63 21 139 -34 221 -23 33 -36 40 -143 75
-211 68 -331 91 -478 91 -258 1 -418 -71 -491 -221 -30 -61 -88 -108 -229
-188 -111 -62 -152 -97 -228 -198 -34 -44 -78 -100 -99 -122 -21 -23 -59 -86
-84 -140 -25 -55 -53 -107 -62 -117 -8 -9 -13 -19 -11 -22 3 -2 40 7 82 20
111 34 239 52 497 70 240 16 309 25 434 56 43 11 80 18 82 16 2 -2 -4 -38 -12
-81 -23 -111 -7 -166 51 -178 11 -2 19 -9 18 -16 -31 -148 -27 -282 13 -437
28 -112 40 -131 78 -121 20 5 33 20 52 63 37 85 67 118 160 179 46 31 92 69
101 85 14 24 24 29 54 29 28 0 56 12 112 50 76 52 101 56 113 18 7 -24 -1 -33
-83 -90 -92 -65 -183 -173 -243 -289 -29 -55 -50 -102 -48 -104 1 -1 64 1 138
7 190 13 394 45 441 68 56 29 58 25 12 -22 -49 -52 -66 -83 -58 -107 4 -14 -2
-22 -27 -32 -61 -25 -206 -129 -252 -180 -56 -63 -91 -136 -106 -222 -7 -37
-18 -73 -25 -80 -6 -7 -18 -30 -25 -52 -22 -69 -51 -117 -104 -173 -69 -75
-163 -134 -341 -216 -83 -39 -179 -86 -215 -107 -36 -20 -76 -40 -90 -44 -32
-10 -60 -34 -60 -53 0 -8 -20 -58 -44 -111 -39 -86 -80 -201 -72 -201 2 0 41
20 87 45 172 91 342 133 494 121 44 -3 122 -9 173 -12 50 -4 92 -8 92 -9 0 -1
-12 -35 -26 -75 -14 -40 -23 -83 -20 -96 5 -19 14 -23 68 -26 35 -2 72 -1 83
3 11 4 48 35 83 68 34 34 70 61 79 61 10 0 58 -20 108 -46 125 -63 190 -71
377 -50 201 23 251 21 281 -7 37 -33 217 -331 233 -384 8 -25 11 -49 9 -53 -6
-10 -36 -1 -124 35 -35 15 -82 27 -105 27 -48 1 -149 -46 -272 -127 -77 -52
-104 -62 -225 -85 l-56 -11 5 -44 c5 -50 -2 -64 -81 -160 -63 -75 -78 -112
-76 -183 0 -31 -2 -93 -6 -137 -5 -55 -2 -110 9 -177 20 -124 20 -205 0 -264
-8 -25 -13 -52 -10 -60 3 -7 10 -114 16 -236 10 -195 32 -404 45 -416 2 -3 15
-2 27 1 16 4 32 23 48 59 29 62 53 72 73 31 11 -20 15 -67 15 -174 0 -206 -7
-195 260 -452 113 -109 128 -111 160 -27 27 69 84 158 204 320 159 215 198
301 222 487 l13 108 2 -83 c0 -45 -9 -148 -21 -230 -16 -113 -22 -196 -22
-358 l-1 -211 -38 5 c-27 3 -43 0 -57 -13 -18 -17 -19 -16 -25 8 -4 15 0 37
10 56 16 32 16 32 -9 25 -23 -6 -24 -4 -19 35 5 36 3 42 -18 50 -17 6 -28 5
-38 -4 -19 -18 -26 -97 -11 -126 10 -17 10 -24 1 -27 -6 -2 -21 -23 -32 -45
-26 -51 -48 -77 -65 -77 -7 0 -26 11 -42 25 -34 29 -44 23 -36 -20 5 -29 3
-32 -35 -47 -27 -11 -45 -26 -53 -45 -6 -15 -18 -36 -26 -45 -21 -25 -8 -52
18 -38 16 9 20 8 20 -5 0 -13 -11 -15 -62 -13 -59 3 -63 5 -66 28 -6 38 -22
52 -54 46 -15 -3 -28 -1 -28 4 0 6 14 10 31 10 73 0 95 54 37 90 -56 34 -98
22 -98 -28 0 -13 -7 -31 -16 -39 -8 -9 -14 -24 -11 -33 3 -14 -3 -16 -40 -15
-24 1 -46 4 -48 7 -2 2 11 27 30 56 44 64 45 87 5 101 -16 5 -30 14 -30 20 0
19 -32 41 -60 41 -52 0 -139 -95 -123 -135 5 -14 15 -16 49 -12 l44 4 -20 -26
c-11 -14 -29 -37 -40 -51 l-21 -25 -22 29 c-64 86 -72 91 -113 81 -36 -9 -39
-13 -44 -50 -5 -36 -10 -42 -60 -70 -36 -20 -55 -38 -56 -50 -1 -11 -9 -37
-18 -58 -17 -38 -9 -77 14 -77 6 0 10 -14 10 -31 l0 -30 -34 35 c-31 33 -35
35 -65 25 -17 -6 -31 -15 -31 -20 0 -5 -9 -4 -20 3 -16 11 -23 10 -37 -5 -16
-16 -16 -18 0 -34 14 -15 21 -15 37 -5 18 11 22 7 46 -39 29 -58 33 -94 14
-129 l-13 -24 -8 22 c-10 26 -51 47 -73 39 -12 -5 -16 -21 -17 -59 -1 -52 -1
-53 -12 -21 -17 44 -21 47 -56 29 -16 -9 -43 -16 -60 -16 -23 0 -30 5 -33 23
-2 16 -10 22 -28 22 -20 0 -26 -6 -28 -30 -2 -16 -8 -34 -13 -39 -5 -6 -9 -22
-9 -36 0 -26 3 -27 84 -39 114 -16 143 -27 150 -57 4 -14 20 -33 36 -42 17 -9
30 -25 30 -34 0 -27 21 -32 43 -9 17 16 19 23 9 33 -7 7 -12 38 -12 70 0 53 2
58 17 50 10 -5 51 -17 91 -27 54 -13 77 -24 88 -41 9 -13 24 -26 35 -29 12 -4
19 -16 19 -30 0 -30 14 -39 41 -25 13 7 19 18 16 29 -3 14 9 25 49 44 30 15
57 28 61 29 4 2 12 -15 18 -37 15 -58 22 -67 46 -55 23 13 24 28 2 52 -13 15
-14 23 -4 44 18 40 37 24 33 -28 -2 -26 1 -49 7 -53 21 -12 11 -21 -38 -34
-49 -12 -77 -32 -64 -44 11 -11 100 -8 128 5 14 6 25 20 25 30 0 11 4 17 10
13 5 -3 7 -12 4 -19 -7 -18 16 -34 62 -44 23 -5 39 -14 40 -22 2 -35 5 -40 22
-40 23 0 42 19 42 42 0 12 7 18 22 18 21 0 21 0 3 -14 -19 -14 -19 -15 -1 -35
22 -25 63 -27 93 -6 15 10 23 11 25 4 3 -8 20 -5 52 10 27 11 52 19 56 16 4
-3 13 -25 19 -49 l11 -44 98 37 c91 35 100 37 110 21 8 -13 31 -18 102 -23 55
-4 107 -14 132 -26 31 -14 49 -16 72 -10 42 12 52 11 38 -3 -13 -13 -16 -56
-6 -83 8 -19 55 -45 84 -45 24 0 38 26 21 43 -23 23 -9 27 84 27 90 0 95 -1
84 -19 -7 -10 -9 -26 -6 -35 13 -33 146 -10 160 28 8 21 -8 29 -61 28 l-46 -1
35 17 c25 14 39 16 54 8 11 -5 48 -10 82 -10 55 0 62 -2 65 -20 2 -17 11 -22
47 -24 24 -2 50 -10 58 -17 12 -12 77 -36 108 -40 6 0 28 -7 50 -14 55 -18 89
-12 93 16 4 25 -30 39 -67 29 -65 -19 -61 -20 -61 22 0 29 -7 46 -26 66 -15
14 -31 26 -35 26 -5 0 -9 4 -9 8 0 8 148 62 169 62 5 0 7 -8 5 -18 -4 -13 -14
-16 -47 -14 -49 4 -84 -16 -74 -42 6 -14 18 -17 67 -15 36 2 65 -2 72 -9 23
-23 57 -11 139 48 80 57 84 59 89 37 3 -12 16 -27 29 -33 13 -7 18 -13 10 -16
-9 -3 -9 -9 2 -28 7 -14 12 -33 10 -43 -1 -10 3 -25 9 -33 15 -17 59 -19 62
-1 0 6 2 23 3 37 1 14 4 32 6 40 2 8 -9 21 -27 30 l-31 16 24 17 c29 23 29 54
1 85 -22 23 -22 24 -3 21 38 -7 57 -65 53 -160 -4 -83 -3 -86 16 -81 33 8 57
33 82 87 l23 50 -6 -38 c-8 -55 15 -77 83 -77 29 0 64 4 78 10 31 11 34 40 6
47 -11 3 -20 9 -20 14 0 11 49 11 105 0 l40 -7 -38 -8 c-30 -5 -36 -10 -28
-20 14 -16 4 -26 -26 -26 -12 0 -23 -6 -23 -13 0 -21 44 -57 68 -57 19 0 20
-3 10 -25 -24 -52 38 -74 88 -32 31 27 27 57 -7 57 -21 0 -22 1 -4 20 14 16
15 23 6 34 -10 12 -8 19 7 38 11 13 31 36 43 51 22 26 25 27 44 12 20 -15 20
-16 -2 -31 -38 -27 -29 -44 23 -44 40 0 45 -2 34 -15 -16 -19 -6 -45 18 -45
24 0 46 25 39 43 -3 9 6 13 33 12 34 0 38 -3 37 -25 -2 -31 32 -40 57 -15 21
22 20 36 -4 42 -24 6 -25 16 -5 33 23 19 18 27 -21 35 l-36 6 21 23 c31 33 27
72 -10 95 l-30 19 38 9 c28 6 39 14 41 31 2 12 -1 22 -7 22 -6 0 -11 5 -11 10
0 6 27 10 63 10 l62 0 -33 -20 c-40 -25 -63 -75 -64 -141 0 -96 60 -137 81
-55 7 30 23 55 53 81 40 37 42 37 49 16 11 -29 33 -36 69 -21 45 18 58 39 37
55 -16 11 -11 15 45 34 l63 21 18 -24 c19 -27 65 -41 97 -31 24 8 26 32 4 56
-14 16 -13 19 28 37 62 27 73 43 54 81 -9 16 -16 38 -15 48 0 15 2 15 9 -3 13
-33 37 -36 60 -7 11 14 20 33 20 43 0 10 9 29 21 44 13 17 19 35 15 48 -3 12
-1 27 4 33 5 6 20 44 34 85 14 41 25 65 25 52 1 -12 8 -25 16 -28 13 -5 12 -8
-1 -22 -15 -14 -15 -17 2 -29 23 -17 35 -16 59 1 16 11 17 17 7 29 -10 12 -7
17 18 27 16 7 30 16 30 21 0 5 8 4 19 -2 24 -16 51 -5 51 20 0 21 -22 33 -45
25 -10 -4 -15 0 -15 12 0 31 -37 82 -71 100 -23 11 -46 15 -79 11 -38 -5 -48
-2 -58 14 -15 23 -46 24 -117 4 -92 -27 -125 3 -139 127 -11 84 -46 86 -121 9
-47 -49 -65 -52 -65 -10 0 25 3 30 16 25 28 -11 66 21 62 52 -3 25 -7 27 -50
30 -39 3 -48 0 -48 -13 0 -15 -2 -15 -22 -1 -30 21 -50 20 -81 -4 -32 -25 -26
-53 9 -44 21 5 24 2 30 -35 4 -27 15 -49 31 -61 14 -11 22 -24 18 -30 -4 -7
-27 8 -59 38 -29 27 -61 52 -73 56 -11 3 -25 18 -31 31 -7 14 -26 34 -44 45
-20 12 -26 20 -17 20 24 0 42 27 35 52 -5 22 -64 68 -86 68 -5 0 -10 -9 -10
-20 0 -27 -31 -41 -87 -40 -65 2 -226 -14 -241 -24 -7 -4 -12 -14 -12 -23 0
-14 12 -15 83 -11 46 3 73 2 62 -2 -11 -5 -90 -9 -175 -9 -85 -1 -172 -4 -194
-8 l-38 -6 5 -41 c4 -23 9 -61 13 -86 6 -44 6 -44 -11 -22 -19 26 -44 28 -85
7 -39 -20 -60 -53 -60 -92 0 -18 -5 -33 -11 -33 -7 0 -8 19 -4 58 6 44 13 62
33 78 32 26 25 49 -17 57 -29 6 -30 8 -19 27 10 16 10 22 -4 36 -13 13 -20 14
-38 4 -35 -19 -48 -6 -55 57 -8 60 -27 93 -54 93 -9 0 -36 -12 -60 -26 -25
-13 -52 -22 -60 -19 -12 5 -7 10 17 21 46 19 40 48 -10 52 -29 3 -38 -1 -43
-17 -3 -12 -3 -25 0 -31 4 -6 -7 -10 -28 -10 -19 0 -55 -6 -81 -14 -35 -11
-55 -12 -77 -4 -23 8 -35 7 -54 -6 -27 -18 -33 -41 -12 -49 16 -6 76 3 82 13
3 5 14 6 24 3 16 -4 18 -11 14 -41 -7 -46 -5 -45 -56 -51 -44 -6 -63 -35 -35
-52 8 -6 -5 -9 -37 -9 -47 0 -48 1 -25 13 37 19 35 68 -3 81 -25 9 -31 7 -48
-14 -10 -14 -19 -36 -19 -50 l-1 -25 -23 28 c-15 19 -28 26 -40 21 -14 -6 -16
-2 -10 22 9 40 13 44 34 44 10 0 26 10 34 22 22 31 3 52 -41 45 -40 -7 -45 0
-32 44 5 19 16 135 24 259 29 429 62 555 298 1110 66 157 125 291 130 298 16
21 43 14 93 -25 27 -20 68 -42 93 -50 65 -19 154 -72 288 -170 156 -114 270
-188 327 -213 44 -18 47 -19 54 -2 4 9 7 53 7 97 0 70 -4 88 -32 143 -27 53
-30 67 -22 95 14 50 11 193 -7 261 -23 89 -77 185 -142 253 -31 33 -78 83
-104 111 -74 80 -86 84 -284 90 l-172 5 23 36 c13 20 26 51 30 70 4 18 21 53
37 78 17 25 52 96 78 159 60 142 89 192 137 234 l38 33 6 -29 c4 -16 14 -74
23 -130 32 -209 105 -322 230 -355 23 -6 95 -28 161 -49 66 -22 160 -51 210
-66 63 -19 95 -34 109 -52 11 -14 52 -40 91 -58 60 -28 81 -44 132 -106 71
-86 107 -140 126 -188 12 -30 12 -44 0 -103 -12 -62 -12 -72 2 -93 8 -13 22
-24 30 -24 20 0 99 114 136 196 42 93 74 243 99 469 12 105 26 210 32 235 14
65 38 303 38 391 0 81 -21 168 -51 210 -10 15 -34 62 -53 105 -99 232 -225
423 -343 520 -49 40 -40 42 -188 -39 -124 -69 -198 -116 -268 -175 l-49 -40
-56 35 c-74 44 -139 64 -233 70 -124 9 -202 -29 -244 -118 -16 -36 -25 -45
-33 -37 -9 9 -18 8 -37 0 -25 -11 -26 -11 -20 10 41 138 92 258 215 507 l146
294 66 -89 c36 -49 126 -154 199 -233 l133 -143 16 58 c30 108 57 148 223 324
133 141 179 224 185 332 4 61 1 76 -26 131 -45 92 -53 148 -61 417 -6 180 -13
258 -24 295 -9 28 -21 69 -27 92 -14 56 -50 97 -113 127 -34 17 -45 25 -31 26
12 0 45 -16 74 -36 81 -56 109 -65 148 -49 17 8 32 16 32 19 0 3 -17 29 -38
59 -21 30 -64 112 -97 183 -32 71 -76 155 -96 186 -21 32 -33 60 -28 64 5 3 9
36 8 72 -2 59 3 79 39 160 58 133 96 192 178 272 69 68 72 70 78 46 6 -24 -7
-147 -19 -178 -3 -8 4 -41 16 -73 16 -44 41 -79 108 -149 48 -50 113 -126 144
-168 94 -125 148 -157 181 -105 42 67 77 346 58 462 -21 124 -47 173 -142 265
-47 47 -105 115 -129 152 -51 81 -75 98 -140 98 -66 0 -101 31 -66 60 8 7 40
53 71 104 88 140 138 186 204 186 27 0 33 -5 51 -47 34 -81 76 -95 127 -42
l31 32 50 -22 c60 -25 65 -26 86 -5 20 21 23 17 34 -39 21 -117 90 -97 121 35
13 54 26 59 59 24 67 -72 120 -52 158 59 12 37 24 70 26 72 2 2 23 -4 47 -12
53 -19 111 -19 155 -1 61 26 71 84 29 173 -14 30 -23 57 -20 60 2 3 51 -3 108
-13 118 -20 155 -15 164 21 3 14 11 25 18 25 6 1 -6 10 -26 21 -43 22 -73 62
-64 84 4 11 20 15 58 15 29 0 64 6 78 13 25 13 27 21 19 107 -1 8 10 42 25 75
24 55 26 71 26 207 0 144 0 147 25 166 15 12 25 30 25 44 0 24 -3 25 -82 31
-46 4 -114 7 -151 7 l-68 0 60 55 c61 57 108 122 136 188 l16 38 -57 26 c-47
21 -66 25 -113 20 -31 -3 -64 -8 -73 -12 -30 -12 -23 47 8 76 52 49 70 121 38
153 -19 20 -10 21 -98 -9 -80 -27 -94 -29 -114 -17 -10 7 -9 21 3 71 39 152
-21 176 -204 80 -41 -21 -76 -37 -77 -36 0 1 -11 34 -22 73 -23 76 -54 124
-79 124 -13 0 -15 -9 -11 -44 l5 -44 -44 28 c-42 27 -93 43 -177 54 l-38 5 6
-39 c3 -21 24 -74 47 -117 l41 -78 -25 -65 -24 -65 -22 44 c-55 107 -198 202
-317 209 -35 2 -75 1 -90 -2 -23 -6 -25 -8 -10 -19 9 -7 24 -24 34 -39 9 -14
30 -42 46 -62 16 -20 27 -38 25 -41 -2 -2 -36 21 -74 51 -80 62 -115 69 -141
29 -19 -30 -8 -68 32 -106 29 -27 30 -45 5 -59 -35 -18 -76 -11 -161 30 -48
24 -94 40 -109 38 -25 -3 -26 -5 -26 -81 l0 -77 -47 0 c-84 0 -116 -66 -63
-128 36 -43 32 -67 -25 -129 -28 -30 -53 -65 -56 -77 -8 -33 12 -75 43 -87 15
-5 65 -33 112 -61 l85 -52 -61 -12 c-132 -27 -193 -95 -137 -153 11 -12 8 -20
-21 -53 -35 -38 -44 -78 -27 -106 5 -7 33 -25 63 -41 62 -31 87 -68 68 -99
-17 -28 -4 -67 28 -82 16 -7 59 -14 96 -16 87 -5 104 -15 118 -67 17 -65 22
-68 102 -60 44 4 68 3 66 -4 -2 -5 -47 -77 -99 -159 l-95 -149 -3 75 c-2 41
-7 79 -13 86 -6 7 -4 24 7 49 35 85 -26 127 -159 108 -68 -9 -74 -8 -99 12
-19 16 -52 26 -115 35 -48 7 -92 17 -97 21 -5 5 1 24 16 46 25 38 51 103 42
103 -3 0 -23 -9 -44 -20 -44 -23 -51 -14 -28 35 18 39 -2 53 -39 26 -42 -30
-77 -36 -98 -15 -14 14 -16 31 -13 96 3 67 1 77 -12 72 -51 -21 -80 -24 -148
-13 -40 6 -86 8 -102 4 -35 -8 -60 -39 -60 -75 0 -15 -6 -35 -14 -45 -13 -18
-15 -18 -39 -2 -55 36 -117 16 -117 -38 0 -39 -20 -55 -69 -55 -30 0 -61 -22
-61 -44 0 -6 9 -38 20 -69 21 -59 20 -77 -4 -77 -17 0 -66 -49 -66 -66 0 -8
10 -24 22 -36 11 -11 31 -52 43 -91 12 -38 28 -73 36 -78 25 -15 63 -10 99 15
19 13 45 26 58 30 28 9 113 -18 136 -43 17 -19 42 -183 31 -202 -13 -20 -39
-7 -92 46 -30 30 -63 57 -74 60 -32 11 -153 -14 -216 -44 -32 -16 -81 -46
-110 -67 -72 -55 -335 -314 -331 -326 2 -6 30 -12 62 -14 78 -6 161 -39 302
-120 66 -38 152 -80 192 -95 l74 -25 -134 -53 c-184 -74 -257 -119 -359 -220
-71 -72 -89 -97 -109 -149 -27 -75 -31 -71 -55 48 -17 88 -59 190 -77 190 -6
0 -32 14 -58 30 l-47 30 -13 134 c-25 257 0 345 105 371 62 16 114 69 144 148
29 80 28 109 -8 130 -22 13 -221 166 -250 193 -3 2 -5 101 -5 219 -1 210 -1
215 19 209 44 -13 245 -156 292 -207 25 -28 41 -36 84 -41 30 -4 59 -12 67
-18 9 -8 16 -8 24 0 14 14 -38 110 -110 200 -44 54 -72 79 -119 103 -61 31
-173 122 -173 140 0 36 95 -29 103 -70 8 -38 31 -40 53 -6 20 30 68 33 154 10
74 -20 87 -19 115 10 19 18 25 35 25 66 l0 42 33 -27 c67 -54 120 -87 135 -84
10 2 25 29 39 68 13 39 33 75 49 89 28 23 52 25 134 6 22 -5 27 0 47 44 28 66
68 91 144 91 62 0 69 7 69 61 0 38 -10 56 -77 145 -55 74 -62 94 -39 113 10 9
20 9 39 0 72 -33 167 45 167 137 0 14 -10 35 -23 48 -20 20 -22 26 -10 42 32
44 -2 116 -61 129 -14 3 -37 7 -51 10 -37 8 -31 25 30 85 30 30 55 62 55 71 0
19 -31 49 -51 49 -9 0 -23 6 -34 13 -17 13 -17 16 -1 62 19 58 20 84 2 107
-11 16 -16 16 -65 1 -41 -11 -59 -13 -77 -4 -27 12 -31 42 -10 63 12 12 12 18
0 39 -8 14 -14 56 -14 99 0 98 -14 124 -64 128 -30 3 -50 -5 -100 -37 -77 -51
-98 -52 -126 -6 -51 83 -118 107 -149 53 -9 -14 -31 -39 -49 -54 -33 -26 -34
-27 -67 -11 -51 24 -103 31 -120 17 -12 -10 -15 -30 -13 -84 4 -90 -7 -94
-104 -32 -39 25 -80 46 -90 46 -47 0 -68 -91 -44 -193 9 -38 16 -70 16 -73 0
-2 -20 -4 -45 -4 -49 0 -97 -17 -132 -49 -27 -22 -29 -37 -8 -45 22 -8 18 -26
-5 -26 -49 0 -124 -24 -153 -49 -24 -23 -30 -36 -31 -72 l-1 -44 70 -23 c103
-33 103 -34 44 -120 -57 -82 -58 -79 24 -123 22 -11 37 -22 34 -25 -10 -10
-59 18 -119 69 -81 69 -111 88 -150 96 -25 5 -31 12 -34 36 -5 47 -26 119 -38
127 -22 15 -46 7 -74 -23 l-29 -31 33 118 c18 66 51 189 74 274 61 228 118
360 156 360 7 0 34 -18 59 -40 25 -22 56 -40 68 -40 13 0 46 18 76 40 58 44
120 65 160 55 14 -4 45 -24 68 -46 73 -67 109 -52 158 67 40 95 52 109 163
189 53 39 103 82 111 97 15 26 14 31 -17 93 -17 36 -32 72 -32 79 0 8 34 31
75 51 96 48 120 76 134 160 18 100 13 105 -112 105 l-102 1 61 28 c34 16 79
44 100 63 21 20 53 43 71 52 63 32 75 85 23 101 -25 8 -26 40 -5 110 18 56 13
90 -13 104 -13 7 -33 -1 -81 -30 -36 -21 -75 -39 -88 -39 -26 0 -26 0 14 59
26 38 30 93 8 111 -8 7 -34 11 -60 8 -25 -2 -45 -2 -45 -2 0 1 15 24 33 51 38
56 93 180 84 189 -3 3 -43 8 -89 11 -103 7 -177 -12 -242 -62 -50 -38 -67 -42
-85 -21 -6 8 -25 19 -40 26 -18 7 -32 22 -36 38 -19 75 -67 69 -186 -24 l-56
-43 -47 74 c-26 41 -66 90 -88 110 -40 34 -88 47 -88 24z m-482 -1973 c20 -19
55 -59 76 -90 37 -54 38 -59 43 -159 9 -163 -28 -259 -105 -273 -20 -4 -62
-20 -92 -36 -77 -40 -133 -44 -277 -19 -66 12 -151 21 -188 21 l-67 0 7 53
c13 101 27 117 140 160 193 74 224 89 271 135 55 55 99 129 114 194 7 29 18
48 26 48 8 0 31 -15 52 -34z m-1462 -984 c33 -88 79 -283 103 -437 41 -262 70
-441 77 -471 6 -32 5 -32 -45 -43 -29 -6 -72 -11 -98 -11 -39 0 -51 6 -95 44
-60 55 -149 101 -226 117 -36 7 -103 10 -179 6 -71 -3 -121 -1 -117 4 3 5 16
9 28 9 50 0 116 85 116 150 0 32 -30 70 -54 70 -8 0 -27 -5 -42 -10 -40 -16
-45 0 -42 120 l3 105 -32 3 c-38 4 -86 -19 -130 -61 l-32 -30 -45 49 c-40 43
-45 55 -46 95 0 69 13 74 99 34 41 -18 77 -38 80 -44 5 -7 29 5 67 34 65 49
84 53 153 28 59 -20 93 -13 138 32 42 42 42 66 2 157 -17 38 -28 76 -25 85 9
23 40 11 57 -24 31 -62 37 -65 111 -61 85 5 106 21 89 69 -13 37 -2 51 38 47
19 -2 28 -15 47 -66z m1473 -337 c-5 -82 -16 -215 -25 -295 -9 -80 -19 -208
-22 -285 l-7 -140 -155 3 c-257 5 -359 37 -466 149 -67 70 -103 86 -174 78
-73 -10 -91 -15 -85 -25 4 -6 -3 -23 -14 -39 -18 -25 -30 -30 -82 -36 -92 -11
-94 -6 -94 168 1 157 14 222 68 341 29 63 30 69 13 78 -15 9 -13 14 19 49 20
22 38 53 42 69 5 27 9 30 47 30 23 0 55 4 73 9 31 9 31 9 48 -42 42 -132 120
-207 351 -338 91 -52 190 -116 220 -143 36 -31 59 -45 65 -39 6 6 4 41 -6 98
-43 249 9 430 150 517 l30 18 7 -38 c4 -20 3 -104 -3 -187z m237 90 c21 -50
18 -186 -6 -279 -36 -140 -42 -127 -36 74 6 172 12 240 23 240 2 0 11 -16 19
-35z m421 -301 c-2 -15 -1 -90 4 -168 9 -155 -1 -270 -25 -294 -20 -21 -69 -6
-167 51 -62 36 -82 42 -129 42 -44 0 -63 -6 -95 -27 -45 -32 -55 -25 -55 35 0
74 62 161 175 247 146 110 198 138 264 139 31 1 33 -1 28 -25z m2121 -690 c2
-1 -22 -46 -53 -99 -118 -204 -218 -435 -285 -655 -17 -58 -44 -141 -58 -185
l-27 -80 -7 70 c-7 74 -10 91 -34 248 -16 96 -15 98 6 139 20 38 21 58 5 101
-5 11 5 16 40 20 100 14 159 67 234 207 41 76 44 88 43 152 -1 38 -4 73 -7 79
-12 18 8 8 41 -21 54 -47 81 -23 48 42 l-16 31 34 -23 c18 -13 34 -25 36 -26z
m-4012 -173 c17 -10 41 -35 53 -55 24 -38 62 -138 55 -145 -2 -2 -37 28 -78
67 -73 69 -138 112 -171 112 -29 0 -15 18 23 28 57 15 84 14 118 -7z m1005
-263 c23 -41 24 -54 29 -253 4 -174 8 -215 22 -242 10 -17 22 -35 28 -38 21
-13 -2 -24 -92 -45 -96 -22 -139 -40 -173 -70 -11 -10 -31 -20 -45 -22 -23 -3
-25 -7 -24 -50 0 -59 40 -114 96 -133 20 -7 61 -34 89 -59 59 -53 105 -80 119
-71 6 3 10 -2 10 -11 0 -10 6 -25 14 -33 36 -41 48 -222 18 -281 -24 -49 -59
-64 -116 -49 -25 6 -50 17 -55 23 -6 7 -49 106 -96 222 -47 115 -122 283 -167
374 l-81 165 -1 100 c-1 58 5 121 13 150 46 163 166 295 315 347 28 9 56 17
62 18 6 0 21 -19 35 -42z m-586 -28 c15 -16 21 -40 23 -93 3 -63 -11 -138 -23
-125 -5 5 -55 231 -55 248 0 14 30 -2 55 -30z m1482 -302 c3 -32 3 -58 -1 -58
-4 0 -17 7 -29 15 -31 20 -95 3 -247 -65 -103 -47 -118 -51 -146 -41 -17 6
-70 11 -118 11 -101 0 -103 2 -86 86 25 122 42 129 278 120 198 -8 250 1 287
49 l20 27 19 -43 c10 -23 21 -69 23 -101z m-249 -413 c15 -3 71 -22 124 -42
91 -34 98 -38 102 -67 3 -17 7 -130 10 -251 4 -201 8 -245 30 -313 12 -36 -47
-56 -161 -53 -51 1 -127 -5 -173 -13 -109 -21 -163 -21 -182 2 -71 80 -69 194
7 453 25 83 48 174 51 201 7 54 28 74 87 88 31 7 43 7 105 -5z m1040 -111 c98
-32 191 -127 192 -197 0 -38 -26 -97 -43 -97 -28 0 -36 -26 -43 -137 -6 -106
-8 -112 -32 -123 -47 -21 -117 -23 -258 -5 -163 20 -233 12 -297 -33 -109 -75
-112 -75 -104 9 12 111 54 186 188 339 31 36 81 101 111 145 35 53 65 86 88
97 44 23 132 23 198 2z m-33 -875 c49 -12 125 -72 125 -98 0 -9 4 -21 8 -26 5
-6 17 -32 27 -60 21 -58 73 -143 122 -200 l35 -40 -5 -125 c-6 -136 -22 -223
-68 -362 -24 -73 -130 -351 -180 -473 l-13 -30 -7 50 c-4 28 -8 105 -8 172 -1
124 -14 218 -33 229 -17 11 -184 -27 -221 -50 -48 -29 -152 -165 -177 -233
-29 -79 -41 -174 -30 -257 12 -97 30 -151 79 -241 l41 -77 -50 -155 c-27 -85
-50 -163 -50 -173 0 -25 -103 -226 -135 -265 l-25 -30 -20 24 c-26 30 -25 71
0 271 11 85 29 274 40 420 22 303 47 463 91 594 39 114 37 160 -22 446 -49
241 -58 399 -26 481 24 63 73 108 127 117 53 9 63 29 21 43 -17 6 -31 14 -31
18 0 9 201 38 278 40 35 0 83 -4 107 -10z m-741 -381 c0 -26 -7 -45 -24 -63
-24 -26 -168 -105 -190 -105 -14 0 -6 53 22 141 19 65 21 67 63 79 23 6 55 20
71 31 l29 19 14 -33 c8 -17 15 -49 15 -69z m-16 -1310 c-3 -46 -12 -126 -21
-178 -8 -52 -20 -129 -26 -170 -6 -41 -22 -147 -36 -235 -15 -95 -29 -239 -35
-356 -5 -107 -12 -203 -16 -212 -9 -24 -22 -21 -55 14 l-29 31 0 177 c0 97 -5
326 -12 510 l-12 334 44 40 c54 48 170 126 189 127 10 0 12 -17 9 -82z m-593
-290 c4 -35 10 -134 14 -221 l6 -158 -23 28 c-23 28 -92 229 -92 267 0 22 68
146 81 146 3 0 10 -28 14 -62z m1545 -30 c-1 -14 -80 -158 -80 -146 0 12 31
142 36 150 8 13 44 9 44 -4z m-300 -111 c0 -29 -16 -128 -36 -222 -19 -93 -42
-201 -50 -240 -8 -38 -12 -81 -9 -94 l6 -23 -113 7 c-108 6 -115 5 -148 -17
-78 -52 -98 -180 -46 -294 15 -32 39 -71 54 -87 l26 -27 -43 -148 c-66 -221
-111 -399 -118 -464 -10 -100 -23 -63 -23 66 0 69 -7 207 -16 308 -20 234 -22
459 -5 567 l14 83 122 122 c80 80 138 148 169 199 46 74 106 205 106 232 0 18
88 97 100 90 6 -3 10 -30 10 -58z m-745 -1719 c5 -14 25 -981 20 -986 -1 -1
-9 36 -18 84 -9 47 -24 95 -33 105 -12 13 -18 42 -20 106 -3 48 -11 158 -19
243 -8 85 -15 182 -15 215 1 75 25 211 40 231 15 17 39 18 45 2z m891 -1199
c8 -7 8 -22 1 -55 -8 -34 -8 -51 1 -65 7 -10 12 -27 12 -37 0 -10 5 -23 12
-30 9 -9 1 -12 -38 -11 -45 1 -47 1 -21 11 47 17 32 35 -34 41 -34 3 -66 10
-72 16 -14 14 14 54 53 77 36 22 38 34 7 34 -34 0 -40 11 -14 24 23 12 75 9
93 -5z m-1280 -36 c-10 -10 -19 5 -10 18 6 11 8 11 12 0 2 -7 1 -15 -2 -18z
m2232 -38 c11 -23 10 -24 -13 -13 -14 6 -25 15 -25 20 0 15 -21 8 -27 -9 -8
-23 -23 -32 -39 -26 -10 4 -10 10 -2 29 9 20 19 24 53 24 35 0 44 -4 53 -25z
m-2378 -89 c0 -51 23 -86 56 -86 13 0 24 -4 24 -9 0 -5 3 -17 6 -26 5 -12 -4
-9 -32 10 -46 31 -78 28 -136 -10 -22 -15 -52 -25 -72 -25 l-35 0 31 46 c36
54 49 60 96 46 45 -14 50 -9 28 28 -12 21 -15 40 -10 65 6 34 7 35 25 19 13
-11 19 -31 19 -58z m2080 54 c23 -7 22 -8 -11 -9 -20 -1 -51 -4 -68 -7 -24 -5
-31 -3 -31 10 0 12 10 16 43 15 23 -1 53 -5 67 -9z m-52 -90 l37 -1 -29 -16
c-16 -8 -45 -22 -64 -30 l-34 -14 7 43 c10 57 14 63 32 39 10 -15 25 -21 51
-21z m-2268 -75 c-7 -8 -20 -15 -28 -15 -13 0 -12 3 4 15 25 19 40 19 24 0z
m-325 -25 c-3 -5 -12 -10 -18 -10 -7 0 -6 4 3 10 19 12 23 12 15 0z m2931
-475 c70 -46 73 -52 16 -36 -18 5 -64 11 -102 13 -39 1 -70 5 -70 9 0 3 11 11
25 17 14 7 28 19 31 27 9 23 26 18 100 -30z m208 -70 c20 -15 20 -15 0 -14
-10 0 -37 6 -59 14 l-40 13 40 1 c22 0 49 -6 59 -14z m57 -56 c11 -21 10 -22
-22 -15 -18 3 -38 11 -43 16 -5 5 -1 7 13 3 12 -3 21 -1 21 6 0 19 19 12 31
-10z m-3021 -99 c0 -5 -8 -10 -17 -10 -15 0 -16 2 -3 10 19 12 20 12 20 0z
m2705 -87 c-3 -6 -135 30 -135 37 0 10 47 45 70 52 10 3 24 -11 41 -41 14 -25
25 -47 24 -48z m-1805 -23 c0 -5 -25 -10 -56 -10 -34 0 -53 4 -49 10 3 6 28
10 56 10 27 0 49 -4 49 -10z"/>
<path d="M4822 1538 c3 -38 27 -48 52 -22 26 25 16 49 -22 52 -32 3 -33 2 -30
-30z"/>
<path d="M2202 1448 c-9 -46 0 -78 23 -78 28 0 36 36 19 80 -9 22 -20 40 -24
40 -5 0 -13 -19 -18 -42z"/>
<path d="M2592 1458 c-7 -7 -12 -20 -12 -30 0 -13 8 -18 30 -18 22 0 30 5 30
18 0 17 -18 42 -30 42 -3 0 -11 -5 -18 -12z"/>
<path d="M2015 1421 c-3 -10 -3 -26 1 -35 3 -9 1 -16 -6 -16 -15 0 -9 -52 6
-57 17 -6 46 27 39 45 -3 8 2 23 11 33 9 10 14 25 11 34 -9 22 -54 19 -62 -4z"/>
<path d="M2439 1374 c-36 -30 -48 -35 -75 -29 -33 6 -33 6 -23 -23 17 -50 55
-77 106 -77 76 0 106 62 63 133 -11 17 -22 32 -24 32 -2 0 -23 -16 -47 -36z"/>
<path d="M2592 1377 c-6 -7 -10 -30 -9 -50 7 -83 62 -75 62 9 0 42 -3 49 -21
52 -11 2 -26 -3 -32 -11z"/>
<path d="M3153 1333 c-18 -7 -16 -52 2 -59 19 -8 45 13 45 36 0 14 -23 34 -33
29 -1 0 -8 -3 -14 -6z"/>
<path d="M2047 1292 c-35 -39 -10 -90 38 -78 20 5 27 1 40 -24 22 -42 60 -66
80 -50 8 7 15 21 15 31 0 10 9 23 20 29 11 6 20 18 20 26 0 18 -58 44 -97 44
-16 0 -36 9 -46 20 -21 25 -49 26 -70 2z"/>
<path d="M6756 1270 c-12 -60 -13 -85 -4 -116 12 -46 50 -48 68 -4 16 38 7 72
-29 113 l-29 32 -6 -25z"/>
<path d="M7014 1146 c-7 -41 0 -56 26 -56 26 0 35 36 16 65 -22 34 -34 31 -42
-9z"/>
<path d="M7183 1118 c-20 -42 -22 -56 -7 -77 18 -25 37 -27 58 -5 23 22 20 39
-12 75 l-28 31 -11 -24z"/>
<path d="M2315 1039 c-40 -45 -44 -82 -9 -87 29 -4 64 42 64 84 0 48 -13 49
-55 3z"/>
<path d="M6981 1020 c12 -16 28 -31 36 -34 11 -5 11 -9 1 -25 -21 -35 20 -63
66 -45 18 7 22 39 6 49 -6 4 -7 13 -1 24 18 33 -23 61 -89 61 l-41 0 22 -30z"/>
<path d="M7317 959 c-13 -8 -15 -14 -7 -30 14 -26 57 -25 65 1 12 37 -18 52
-58 29z"/>
<path d="M1867 794 c-12 -12 -8 -43 7 -51 8 -4 16 -19 18 -33 4 -31 38 -38 62
-14 21 20 17 36 -12 49 -12 5 -22 19 -24 30 -3 20 -37 33 -51 19z"/>
<path d="M6941 724 c-37 -81 20 -181 73 -128 23 23 20 45 -15 97 -39 59 -44
62 -58 31z"/>
<path d="M6725 643 c-14 -21 -25 -43 -25 -49 0 -23 29 -23 62 -1 35 24 49 64
26 78 -24 15 -37 10 -63 -28z"/>
<path d="M2517 493 c-10 -16 6 -95 20 -100 8 -3 21 1 29 9 22 22 5 92 -23 96
-12 2 -23 -1 -26 -5z"/>
<path d="M2665 430 c-10 -31 9 -46 42 -34 41 14 38 48 -4 52 -25 3 -33 -1 -38
-18z"/>
<path d="M6231 209 c-24 -9 -24 -10 -5 -24 26 -18 86 -28 102 -17 8 5 12 18
10 28 -2 14 -13 20 -43 21 -22 1 -51 -2 -64 -8z"/>
<path d="M5711 191 c-18 -12 3 -51 28 -51 24 0 45 25 37 45 -6 16 -43 20 -65
6z"/>
<path d="M3450 174 c-12 -14 -12 -18 5 -30 28 -21 50 -13 50 16 0 30 -35 39
-55 14z"/>
<path d="M4210 55 c-13 -15 -12 -20 10 -37 21 -17 34 -19 85 -13 117 13 112
57 -8 63 -60 3 -76 1 -87 -13z"/>
<path d="M4440 60 c-13 -9 -12 -13 9 -30 28 -24 44 -25 61 -5 28 34 -29 62
-70 35z"/>
</g>
</svg>
