<svg width="211" height="300" viewBox="0 0 211 300" fill="none" xmlns="http://www.w3.org/2000/svg">
<g opacity="0.5">
<path d="M86.1076 0.353473C86.9958 0.540459 88.7488 1.19491 89.9642 1.80262C91.7873 2.6908 92.5352 3.22839 94.1947 4.88789C97.0229 7.66932 98.1682 10.2404 98.1682 13.6763C98.1682 15.3825 97.7709 16.4811 96.5087 18.0938C95.6673 19.169 95.527 19.543 95.2465 21.5531C94.8959 23.8436 94.2649 25.433 93.5169 25.9706C93.2598 26.1342 92.8391 26.7186 92.5586 27.2561C92.208 27.9807 91.8574 28.3079 91.3432 28.4248C90.8757 28.5651 90.4784 28.9157 90.1044 29.5467C89.6369 30.4115 89.5201 30.4817 88.7254 30.4115C87.51 30.3181 87.0425 30.6453 86.3179 32.1645C85.0324 34.8758 84.7753 35.0628 81.2459 35.9744L80.124 36.2782L80.6148 36.7691C81.2226 37.4469 80.8486 37.8443 79.7734 37.6806C79.2826 37.6105 78.9787 37.6573 78.9787 37.7975C78.9787 37.9377 78.9086 38.1949 78.8385 38.3818C78.745 38.6389 79.119 38.9895 80.0071 39.5739C81.1057 40.2751 81.7835 40.9763 81.7835 41.4437C81.7835 41.7009 80.8252 41.584 79.9838 41.2334C79.3059 40.9529 79.0956 40.9295 78.932 41.1633C78.5346 41.8177 78.7917 42.1917 80.2175 42.8929C81.0589 43.3136 81.69 43.7811 81.7601 44.0382C81.8303 44.4122 81.69 44.4355 80.311 44.2953C78.9086 44.155 78.7917 44.1784 78.6749 44.6459C78.5346 45.1835 78.6982 45.7912 78.9787 45.7912C79.0956 45.7912 79.563 46.1652 80.0305 46.5859C80.6616 47.1702 81.2459 47.4741 82.2042 47.6844C84.2845 48.1051 85.8271 48.7596 86.8789 49.6478L87.8372 50.4892L90.1278 50.0217C91.3899 49.7646 93.4702 49.4842 94.7557 49.3907C96.906 49.2504 97.2099 49.1569 98.5889 48.3389C100.225 47.3572 100.856 47.2403 101.557 47.7779C101.978 48.1285 101.978 48.1519 101.183 48.8531C100.693 49.2972 100.552 49.5075 100.833 49.414C101.09 49.2972 101.768 49.1803 102.329 49.1102C102.983 49.0401 103.521 48.8297 103.731 48.5726C104.362 47.8013 106.209 47.7312 107.728 48.3856C108.873 48.8998 109.341 48.9466 112.169 48.9232C115.511 48.8998 119.415 48.4791 125.094 47.5208C131.382 46.469 144.915 43.4538 146.107 42.8461C146.528 42.6358 147.673 41.8177 148.631 41.0464C149.589 40.2751 150.735 39.5038 151.155 39.3168C151.857 39.0363 151.997 39.0363 152.581 39.4804C153.212 39.9011 153.329 39.9245 154.171 39.6206C155.176 39.27 155.409 39.3401 155.83 40.0647C156.064 40.4854 156.087 40.4387 156.111 39.644C156.111 39.0597 156.227 38.7792 156.438 38.7792C156.601 38.7792 156.882 38.6389 157.022 38.452C157.186 38.265 158.331 37.891 159.57 37.6105C162.492 36.9561 165.273 36.1614 173.173 33.7072C191.521 28.0275 195.284 26.9757 195.939 27.2795C196.289 27.4431 196.523 27.4198 196.733 27.186C196.944 26.9757 196.944 26.8588 196.78 26.8588C196.617 26.8588 196.546 26.5316 196.593 26.0407C196.617 25.5265 196.523 25.1292 196.336 25.0123C195.915 24.7552 196.593 23.4229 197.318 23.0957C197.785 22.8853 197.785 22.8853 197.178 22.9555C196.827 23.0256 196.476 22.9555 196.406 22.862C196.336 22.7451 196.5 21.74 196.78 20.6415C197.154 19.1456 197.271 18.0237 197.248 16.3642C197.178 13.4893 197.178 13.536 197.645 13.536C197.996 13.536 197.996 13.4893 197.738 13.3257C197.458 13.1387 197.528 12.9517 198.089 12.2505C199.445 10.5442 199.842 9.88978 200.052 9.07172C200.216 8.51076 200.707 7.87968 201.595 7.10836C202.296 6.47728 203.091 5.58909 203.348 5.145C203.605 4.67753 204.073 3.88284 204.4 3.36863C204.937 2.52719 204.984 2.50382 204.891 3.06478C204.844 3.43875 204.891 3.71923 204.984 3.71923C205.101 3.71923 205.195 3.64911 205.195 3.53224C205.195 3.43875 205.405 3.11152 205.662 2.7843C206.106 2.19996 206.106 2.19996 205.709 3.71923C205.428 4.7944 205.101 5.44885 204.587 5.93969C204.166 6.31367 203.512 7.13173 203.114 7.73944C202.694 8.37052 202.273 8.86136 202.156 8.86136C202.016 8.86136 201.922 8.97822 201.922 9.11846C201.922 9.2587 201.665 9.70279 201.361 10.1001C200.847 10.8247 199.702 13.536 199.936 13.536C200.006 13.536 200.473 12.6946 200.987 11.6662C201.572 10.4975 202.133 9.70279 202.46 9.56256C202.74 9.44569 202.881 9.3522 202.74 9.3522C202.624 9.32882 203.138 8.72112 203.909 7.97317C205.498 6.43053 206.994 4.67753 207.602 3.62574L208.023 2.90116L207.859 3.60236C207.766 3.97633 207.625 4.70091 207.532 5.19175C207.368 6.00981 206.387 7.22522 205.896 7.22522C205.685 7.22522 205.358 7.69269 204.143 9.65605C203.745 10.3339 203.722 10.3339 203.371 9.88978C203.068 9.49244 203.044 9.49244 203.161 9.86641C203.255 10.1235 203.068 10.6377 202.624 11.2221C202.25 11.7363 201.712 12.8582 201.431 13.723C201.151 14.5878 200.847 15.3825 200.754 15.5227C200.66 15.6396 200.567 16.0136 200.567 16.3408C200.567 16.668 200.403 17.5562 200.193 18.3275C199.725 20.174 199.468 22.4179 199.725 22.4179C199.865 22.4179 200.123 22.1374 200.333 21.7634C200.754 21.0622 201.689 17.3926 201.689 16.4811C201.689 15.7331 202.437 15.476 203.208 15.9668C203.932 16.4343 203.932 16.668 203.255 17.2056C202.74 17.6263 201.969 19.8936 201.502 22.4179C201.315 23.4463 201.291 23.4697 200.543 23.3996C200.029 23.3528 199.819 23.3996 199.936 23.5632C200.006 23.7034 200.239 23.8203 200.426 23.8203C200.613 23.8203 200.754 23.9371 200.754 24.1008C200.754 24.2644 200.917 24.2176 201.174 23.9839C201.665 23.5398 202.39 23.8436 202.39 24.5215C202.39 24.9889 201.151 26.1576 200.637 26.1576C200.473 26.1576 200.216 26.2978 200.076 26.4848C199.725 26.9055 198.744 27.0925 198.44 26.7887C198.066 26.4147 198.136 26.9055 198.51 27.3964C198.697 27.6301 198.907 27.7236 198.977 27.6067C199.047 27.4899 199.491 27.3029 199.936 27.2328C201.011 27.0224 202.553 25.6434 202.74 24.7318C202.834 24.3345 203.044 23.9605 203.208 23.8904C203.395 23.8436 203.488 23.6567 203.418 23.493C203.348 23.3294 203.675 22.9087 204.143 22.5581C204.774 22.0673 205.054 21.5998 205.382 20.5013C205.639 19.5897 205.943 19.0054 206.246 18.8651C206.924 18.5613 207.906 17.0888 208.21 15.9435C208.514 14.8683 208.817 14.5177 209.028 15.0553C209.098 15.2423 209.308 15.4059 209.519 15.4059C209.986 15.4059 209.963 15.6162 209.402 16.2239C209.121 16.5278 208.841 17.2757 208.724 18.0003C208.607 18.6781 208.397 19.2859 208.256 19.3326C208.116 19.3793 207.999 19.6131 207.999 19.8702C207.999 20.1507 207.789 20.361 207.392 20.4545C206.948 20.5714 206.62 20.9454 206.223 21.8102C205.919 22.4646 205.662 23.1191 205.662 23.2359C205.662 23.3762 205.498 23.7268 205.288 24.0073C204.937 24.5448 204.891 24.5448 204.447 24.1241C204.003 23.7268 204.003 23.7268 204.26 24.3345C204.517 24.8487 204.47 25.0824 203.909 26.0174C203.558 26.6017 203.138 27.1627 202.974 27.2795C202.81 27.373 202.39 28.0508 202.063 28.7754C201.525 30.0376 201.431 30.1311 200.707 30.1311C200.286 30.1311 199.608 29.9207 199.188 29.6636C198.486 29.2429 198.416 29.2429 198.206 29.6169C197.996 29.9675 197.902 29.9675 197.458 29.7103C196.944 29.3831 196.944 29.4065 197.107 30.5284C197.248 31.6503 197.224 31.6737 196.5 32.0477C196.079 32.2347 195.284 32.632 194.747 32.9125C193.788 33.38 193.064 33.5903 187.244 35.0395C181.237 36.512 171.677 39.5973 168.171 41.1633C165.32 42.4488 164.011 43.3136 162.071 45.2068C160.294 46.9131 159.266 47.661 158.612 47.661C158.144 47.661 158.121 47.5676 158.471 46.6092C158.705 45.9548 158.682 45.7444 158.167 44.8329C157.84 44.2719 157.42 43.3837 157.256 42.8695L156.975 41.9346L156.788 42.6358C156.625 43.15 156.718 43.6175 157.162 44.5758C157.49 45.277 157.747 45.8847 157.747 45.9548C157.747 46.0015 157.279 46.5158 156.695 47.1235C156.064 47.7545 155.643 48.3856 155.643 48.7128C155.643 49.6711 154.545 49.788 153.049 48.9699C150.524 47.5909 148.023 47.5909 138.581 48.9466C126.45 50.6528 122.757 51.1904 120.817 51.5176C112.286 52.92 107.564 54.2289 105.928 55.6781C105.227 56.3092 105.133 56.4962 105.204 57.3376C105.274 58.2725 105.25 58.2959 104.339 58.5998C102.983 59.0672 100.435 58.8802 99.6173 58.2725C98.659 57.5713 98.0046 56.4728 97.8176 55.3509C97.6306 54.1588 97.9345 53.7147 98.6357 54.1822C99.3602 54.6263 99.6407 54.2289 99.3369 53.107C99.1265 52.3591 98.9395 52.1487 98.2383 51.8916C97.5371 51.6345 97.3501 51.6345 97.1865 51.8916C96.8827 52.3825 96.9528 53.9017 97.3268 55.4911C97.7709 57.361 97.7709 58.4128 97.3268 58.4128C96.8827 58.4128 96.8827 58.2725 97.4436 61.2176C98.2617 65.5416 98.0513 69.2814 96.7191 73.2782L96.2516 74.704L96.7424 75.7324C97.3268 77.0179 97.3268 78.7943 96.7658 80.0331C96.3685 80.9446 96.3685 80.9914 96.7892 81.6692C97.3969 82.6743 97.3501 84.3571 96.6957 85.1986C96.2516 85.7362 96.1581 86.1569 96.1581 87.5125C96.1581 88.8448 96.0412 89.359 95.5504 90.2238C95.1063 91.0419 94.9894 91.4159 95.1764 91.7197C95.5738 92.4443 95.1764 93.7298 94.2649 94.6648C93.4234 95.5296 93.4234 95.5296 93.8208 96.2775C94.0311 96.6749 94.2649 97.75 94.335 98.6382C94.5687 101.466 93.4935 103.196 91.2964 103.453L90.3148 103.57L91.0861 102.939C92.8391 101.513 93.4935 99.0589 92.6521 97.0722C92.3482 96.3009 92.2548 96.2541 91.5302 96.3944C90.5952 96.5814 89.5201 96.1139 88.9825 95.2958C88.7955 94.992 88.4917 94.2207 88.3514 93.5428C88.1411 92.7014 87.9073 92.2807 87.6035 92.1872C87.3464 92.0937 86.7854 91.6964 86.3647 91.2756C85.2661 90.1537 83.256 89.4759 80.7317 89.3356C78.2541 89.1954 77.9269 89.3824 77.7399 90.8315L77.6231 91.8366H79.2826C84.004 91.86 88.0476 94.1739 90.268 98.1474C91.6704 100.672 91.5302 100.695 89.2396 98.4279C86.7387 95.9503 85.2428 94.8517 83.4664 94.1739C82.2276 93.7065 80.2175 93.5662 78.7684 93.8467C78.0905 93.9869 78.0438 94.0571 78.0438 95.1089C78.0438 96.184 78.0672 96.2074 78.9553 96.4645C79.4462 96.6281 80.0773 96.745 80.3577 96.745C80.7317 96.745 80.8486 96.8852 80.8486 97.3527C80.8486 97.6799 80.9654 98.1474 81.1057 98.4045C81.3394 98.8486 81.2927 98.872 80.2876 98.7317C79.7033 98.6382 78.9787 98.6149 78.6749 98.7083C78.184 98.8252 78.1139 98.9654 78.184 99.6666C78.3476 101.723 78.4178 101.817 80.124 102.261C81.6433 102.658 81.7134 102.705 82.2042 103.734C82.4613 104.318 82.6717 104.809 82.6483 104.832C82.625 104.856 81.9939 104.762 81.2693 104.622C80.4045 104.482 79.6565 104.458 79.1657 104.598L78.3944 104.832L78.4178 106.328C78.4879 108.946 78.3476 108.735 79.7267 108.198C80.3811 107.941 80.9654 107.777 81.0122 107.824C81.1758 107.988 81.7368 110.418 81.6433 110.582C81.5732 110.675 81.0356 110.675 80.4045 110.605C79.3761 110.488 79.2358 110.535 78.9553 111.026C78.7917 111.33 78.6515 112.218 78.6281 113.013L78.5814 114.439L79.6332 114.228C80.2175 114.135 80.7551 113.994 80.8018 113.924C80.9654 113.761 81.7368 115.514 81.6199 115.724C81.5732 115.841 80.9888 115.911 80.3344 115.911C78.745 115.911 78.2308 116.332 78.558 117.454C78.6982 117.968 78.6982 118.529 78.5346 119.02C77.8802 121.17 77.7633 121.731 77.9269 122.199C77.997 122.456 78.1606 122.689 78.2308 122.689C78.3243 122.689 78.745 122.058 79.1657 121.287C80.1941 119.417 80.6616 119.417 82.4847 121.24C83.6066 122.386 83.9339 122.876 84.3312 124.185C84.8922 126.008 84.9389 126.803 84.5416 128.112C84.1676 129.351 83.5131 129.818 81.4329 130.286C79.7267 130.66 79.6799 130.683 79.4462 131.524C79.3293 131.992 79.2124 132.483 79.2124 132.6C79.2124 133.044 77.9737 134.423 77.0855 134.984C76.5946 135.288 76.1739 135.708 76.1739 135.895C76.1739 136.082 75.9869 136.433 75.7298 136.69C75.4961 136.924 75.239 137.391 75.1455 137.718C74.8884 138.817 72.0368 141.996 71.1253 142.229C70.4241 142.416 69.5826 141.739 69.1386 140.617C68.9749 140.196 68.6477 139.401 68.3906 138.817C68.1335 138.233 67.8764 137.344 67.8296 136.83C67.666 135.007 67.4557 134.259 66.8947 133.581C65.913 132.389 65.6092 131.595 65.6326 130.029V128.533L63.9731 127.551C61.9863 126.382 61.6357 125.751 61.9162 123.928C62.1733 122.432 62.6408 121.521 63.8562 120.165C64.908 119.043 66.7778 118.015 67.8296 118.015C68.5776 118.015 68.7646 118.365 69.1619 120.399C69.5125 122.199 69.98 122.199 69.7696 120.422C69.6761 119.698 69.5125 118.973 69.3957 118.833C69.2087 118.599 69.1152 118.061 68.9516 116.355C68.9048 116.051 67.6894 115.677 66.7077 115.677H65.7027L66.0766 114.719C66.3805 113.948 66.5207 113.807 66.9181 113.924C68.4374 114.368 68.8814 114.345 69.0451 113.807C69.8865 111.19 69.419 110.138 67.5492 110.418L66.5207 110.582L66.6844 109.787C66.7778 109.367 66.8947 108.665 66.9882 108.245C67.1051 107.497 67.4557 107.286 67.8998 107.707C68.0166 107.824 68.5075 108.034 68.9749 108.151C69.8865 108.408 70.0034 108.291 69.8865 107.31C69.8631 107.123 69.9566 106.842 70.1202 106.655C70.2838 106.445 70.4475 105.954 70.4942 105.533C70.5643 104.856 70.4708 104.715 69.8631 104.458C69.419 104.271 68.601 104.201 67.6427 104.295C66.8012 104.341 66.1234 104.388 66.1234 104.341C66.1234 104.318 66.4039 103.804 66.7311 103.196C67.1752 102.378 67.479 102.121 67.8998 102.121C68.2036 102.121 68.9282 102.004 69.5125 101.84C70.4475 101.583 70.6111 101.443 70.8448 100.695C71.2188 99.3628 70.985 99.0122 69.793 99.1291C69.2554 99.1992 68.6477 99.316 68.4374 99.4095C68.1335 99.5498 68.0634 99.4095 68.0868 98.498C68.1101 97.9137 68.2036 97.4462 68.2971 97.4462C68.9516 97.4462 70.7747 96.3944 70.9149 95.9737C71.1487 95.2023 71.2188 93.9869 71.0318 93.7065C70.9617 93.5896 70.0735 93.2857 69.0684 93.0754C67.5725 92.7482 67.035 92.7248 65.9598 92.9585C64.0198 93.3559 61.589 94.6648 59.1581 96.6281C57.9661 97.5864 56.9377 98.3811 56.8676 98.3811C56.5871 98.3811 58.8309 95.366 59.8593 94.3609C61.215 93.052 63.8562 91.6964 65.7728 91.3458C66.5675 91.2055 68.04 91.1354 69.1619 91.2289L71.1487 91.3458L71.1253 90.5978C71.1019 90.1771 71.0785 89.5694 71.0552 89.2188C70.985 87.3489 65.095 87.8398 61.1449 90.0602C59.7659 90.8082 59.4854 91.112 59.088 92.0236C58.457 93.4727 58.0596 93.8934 56.9844 94.1739C56.1664 94.4077 56.0495 94.5245 55.7223 95.6231C55.5353 96.2775 55.3717 97.0021 55.3717 97.1891C55.3717 98.0539 55.9093 99.3862 56.6572 100.368C57.5688 101.56 57.3584 101.723 55.8625 100.952C54.1563 100.087 53.4551 97.3059 54.3199 94.8517C54.6705 93.8934 54.6705 93.8467 54.1095 93.2624C52.7539 91.7898 52.2397 90.294 52.8006 89.2655C52.9642 88.9617 52.8941 88.5643 52.5669 87.8164C52.0994 86.7646 51.9358 84.4974 52.3098 83.913C52.45 83.7027 52.3098 83.2118 51.9358 82.4639C51.258 81.155 51.3281 80.2201 52.1929 78.9112C52.7071 78.1632 52.7071 78.0697 52.4033 77.3218C51.9124 76.1998 52.1228 74.5871 52.9175 73.2314C53.4083 72.4134 53.5719 71.7823 53.6187 70.824C53.642 69.6086 54.3432 67.692 55.1847 66.57C55.395 66.2428 55.3249 65.8688 54.7406 64.5833C54.3432 63.6951 53.7355 61.7318 53.3849 60.2125C52.824 57.8986 52.637 57.4077 52.2163 57.2441C51.7021 57.0337 51.3982 56.239 51.0476 54.0186C50.8139 52.6162 50.5334 52.8032 50.6503 54.2757C50.7204 55.234 50.6269 55.7482 50.2529 56.4962C49.7621 57.4545 47.6585 59.3477 47.0741 59.3477C46.9105 59.3477 46.6067 59.0906 46.3963 58.7634C45.438 57.3142 42.3995 58.5063 37.3041 62.3395C32.4425 65.9857 14.1411 81.8328 11.5701 84.5909L10.1911 86.0868L11.1026 86.8815C13.6971 89.1019 15.8007 90.738 21.1298 94.6648C30.3389 101.466 31.7179 102.425 34.6396 104.108C36.8366 105.393 37.7015 105.744 38.8467 105.907C40.8569 106.188 41.932 106.749 41.932 107.543C41.9554 107.894 42.0255 108.245 42.119 108.338C42.3761 108.595 42.306 109.25 42.0021 109.554C41.8619 109.694 41.7217 110.021 41.6983 110.255C41.6749 110.629 41.8152 110.675 42.9838 110.582C44.1759 110.488 44.3628 110.535 44.7134 111.026C44.9472 111.377 45.0874 112.055 45.0874 112.919C45.0874 113.644 45.1809 114.298 45.3212 114.392C45.438 114.462 45.6016 115.163 45.6951 115.934C45.7886 116.682 45.9289 117.384 46.0224 117.43C46.1392 117.5 46.5833 117.033 47.0508 116.425C49.7855 112.686 53.6654 110.582 57.335 110.816C59.9295 110.979 61.7292 111.984 64.4171 114.719C65.6092 115.934 66.5909 117.056 66.5909 117.22C66.5909 117.384 65.9364 118.038 65.1183 118.669C60.5839 122.292 59.3685 124.84 59.3218 130.823C59.2984 134.516 59.6256 135.054 63.8094 138.42C65.6559 139.915 67.5492 141.481 68.0166 141.926C68.5308 142.44 68.9516 142.697 69.1152 142.58C69.4658 142.37 72.2005 142.744 72.5744 143.048C72.738 143.164 73.2756 143.048 73.9768 142.697C74.6079 142.393 75.7999 141.902 76.6414 141.575C82.4847 139.331 82.7184 139.214 83.6534 138.279C85.2661 136.62 86.3179 133.114 86.3179 129.351C86.3179 126.289 85.8738 125.003 83.7469 121.871C83.0457 120.796 82.5081 119.791 82.6016 119.651C82.6717 119.534 83.1392 119.207 83.6066 118.973C84.0741 118.739 85.1493 118.155 85.9907 117.711C89.1227 116.005 91.8808 115.724 94.7323 116.846C96.6957 117.594 99.1265 120.072 100.412 122.572C102.656 126.92 103.147 131.852 101.557 134.189C100.833 135.288 99.1265 136.246 97.5839 136.456C96.8593 136.55 96.1581 136.737 96.0179 136.877C95.8776 137.017 95.5971 137.742 95.3634 138.49L94.9661 139.869H91.8107C88.4215 139.892 87.3931 140.102 85.944 141.131C83.8871 142.58 83.2794 145.572 84.4714 148.4C85.0791 149.849 85.2194 151.228 84.8454 152.21C84.2143 153.846 82.9288 153.963 80.9421 152.607C80.1708 152.093 78.4879 151.252 77.179 150.737C74.7481 149.802 73.4392 149.078 72.5043 148.19C72.1771 147.886 71.9433 147.792 71.8499 147.956C71.6629 148.236 69.8631 148.026 68.788 147.582C68.1569 147.325 67.853 147.348 66.6844 147.746C65.8429 148.026 64.2068 148.283 62.5005 148.4C60.9579 148.517 58.9712 148.821 58.083 149.078C57.1948 149.335 56.2131 149.499 55.9326 149.428C54.764 149.125 54.2731 147.722 54.8107 146.18C54.9743 145.665 55.1379 145.221 55.1379 145.198C55.1379 145.174 54.9743 145.198 54.7873 145.268C54.5069 145.385 54.4367 145.198 54.4367 144.45C54.4367 143.772 54.3199 143.421 54.0628 143.328C53.4784 143.118 50.6503 145.198 50.0192 146.296C49.4582 147.278 48.1259 151.672 48.1259 152.49C48.1259 152.747 48.4532 154.267 48.8271 155.879C49.2245 157.492 49.9491 160.648 50.4867 162.891C52.1228 169.95 52.3331 170.838 53.4317 175.279C55.8859 185.283 59.2984 197.297 59.9996 198.395C60.5138 199.237 63.0381 202.346 63.342 202.533C63.6458 202.72 64.721 201.715 65.7728 200.289C67.7829 197.554 78.5112 179.51 85.2428 167.589L90.0577 159.035L90.1512 156.557C90.2914 152.771 89.8006 151.205 87.7437 149.031C86.949 148.213 86.4582 148.283 86.1076 149.335C85.9673 149.779 85.757 150.153 85.6401 150.153C85.2194 150.153 84.5416 147.535 84.5182 145.829C84.4714 143.772 85.0558 142.487 86.5283 141.295C87.2762 140.687 87.6502 140.57 89.0292 140.5C90.4784 140.406 90.7589 140.476 92.021 141.154C92.8157 141.575 93.4935 142.042 93.5637 142.206C93.6338 142.393 93.3767 142.907 92.9793 143.398C92.6054 143.866 92.3015 144.31 92.3015 144.356C92.3015 144.403 92.5586 144.941 92.8625 145.548C93.1663 146.156 93.6104 147.255 93.8441 148.003C94.2181 149.195 94.335 149.358 94.7791 149.241C95.0596 149.171 95.5971 149.218 95.9945 149.358C97.3969 149.849 97.841 151.322 97.3501 153.846C97.1631 154.781 96.8827 156.37 96.7424 157.399C96.6022 158.427 96.275 159.993 95.9945 160.905C95.5504 162.33 95.2933 162.728 93.9376 164.06C92.1379 165.813 91.5068 166.678 88.3514 171.703C83.1158 180.071 75.426 194.399 73.299 199.775C72.4342 201.925 72.4342 201.925 72.4342 205.501C72.4342 208.89 72.4108 209.147 71.8265 210.293C71.4993 210.97 71.1253 211.508 70.985 211.508C70.8682 211.508 70.8448 211.718 70.9149 211.975C71.0084 212.303 70.8448 212.723 70.3306 213.378C69.2554 214.757 66.6376 216.954 66.0533 217.001C65.7494 217.024 65.5157 217.211 65.4689 217.491C65.3521 218.052 64.5106 218.987 64.0899 218.987C63.8562 218.987 63.8094 219.151 63.9029 219.431C63.9964 219.759 63.8094 220.156 63.2485 220.787C62.7343 221.348 62.3603 222.096 62.1967 222.844C61.028 228.08 61.2617 241.309 62.7576 255.567C63.7627 265.196 64.16 267.767 64.8612 268.796C65.913 270.315 66.1935 274.335 65.3287 274.99C64.9314 275.27 63.8796 275.13 62.1499 274.616C61.0748 274.312 59.4386 274.312 57.9427 274.663C56.6338 274.966 56.1897 274.733 56.4001 273.845C56.517 273.354 56.2365 273.33 55.8391 273.798C55.4184 274.312 54.5069 274.242 54.1796 273.634C53.8758 273.097 53.9693 270.549 54.4601 266.085C54.9042 261.714 54.5302 257.086 53.1278 250.541C52.8707 249.232 52.7071 246.498 52.5669 239.953C52.4734 235.092 52.3331 231.048 52.263 231.001C52.0994 230.838 49.7855 233.315 46.6534 236.985C43.7084 240.421 42.6098 241.449 38.5429 244.581C35.3407 247.059 31.227 251.009 29.6377 253.112C29.0066 253.954 27.6977 256.128 26.716 257.974C24.8929 261.41 24.0047 262.695 23.4905 262.695C23.3269 262.695 22.7659 262.134 22.2751 261.457C21.5271 260.475 20.9662 260.031 19.3768 259.236C16.4785 257.764 16.3382 257.647 16.3382 256.852C16.3382 256.315 16.6888 255.777 17.9276 254.491C19.4235 252.902 19.5871 252.809 20.8259 252.645C23.1399 252.318 26.9965 250.097 30.596 247.012C38.1455 240.514 45.251 231.586 49.505 223.311C50.323 221.675 50.697 220.67 50.697 220.039C50.697 219.548 50.8606 218.964 51.0476 218.754C51.3515 218.426 51.3748 218.239 51.1411 217.749C50.7905 216.977 51.3047 215.855 52.0527 215.762C52.4266 215.715 52.5669 215.575 52.4734 215.341C52.4033 215.154 52.263 214.149 52.1929 213.097C52.0059 210.9 52.2163 210.573 53.829 210.573H54.7873L53.829 210.129C53.2914 209.895 52.5669 209.287 52.1929 208.82C51.6319 208.072 51.5151 207.675 51.445 206.272C51.3748 204.87 51.4917 204.192 52.1929 201.972C53.1278 199.003 53.198 198.185 52.6837 194.656C51.3515 185.19 47.7753 169.693 44.8069 160.577C43.9421 157.913 43.7551 157.539 42.6332 156.37C40.3193 153.916 39.9219 152.514 40.5063 148.938C40.6932 147.675 40.9737 145.782 41.0906 144.73C41.3243 142.79 41.7684 141.785 42.5397 141.388C43.2176 141.014 44.4563 141.131 45.438 141.622C45.9522 141.879 46.4431 142.089 46.5366 142.089C46.6301 142.089 47.1209 141.481 47.6351 140.734C48.1259 140.009 48.8271 139.144 49.1544 138.84C49.8322 138.209 49.9257 137.461 49.4349 136.503C49.2479 136.152 49.1777 135.755 49.2479 135.638C49.5751 135.171 50.9307 134.797 52.3098 134.797C54.2498 134.797 55.6755 135.498 56.5637 136.9C57.148 137.835 57.2415 138.209 57.2415 139.612C57.2415 141.014 57.1013 141.528 56.4468 142.907C55.7456 144.333 55.7223 144.45 56.2131 143.842C59.0413 140.43 58.1531 136.293 54.2264 134.516C53.4317 134.166 52.0527 133.722 51.1177 133.535C48.944 133.09 48.5233 132.67 48.7337 131.104C48.8271 130.403 48.7804 129.818 48.5934 129.561C48.3597 129.164 48.3363 129.187 48.4532 129.701C48.57 130.262 48.5467 130.262 48.2428 129.842C48.0558 129.584 47.8922 129.304 47.8922 129.187C47.8922 129.094 47.4949 128.813 47.004 128.556C45.7652 127.925 44.4563 126.406 44.1525 125.237C43.8253 124.068 44.0356 122.362 44.6667 120.633C45.1342 119.394 45.1342 119.37 44.6667 118.88C44.3395 118.506 44.1992 117.991 44.1759 117.08C44.1291 115.374 43.8019 114.602 42.5631 113.293C41.6515 112.358 41.4646 112.241 41.0906 112.475C40.8335 112.639 40.6465 112.826 40.6465 112.943C40.6465 113.036 40.7634 113.06 40.8802 112.989C41.1841 112.802 42.2826 113.48 42.2826 113.831C42.2826 113.971 42.5397 114.298 42.8436 114.532C43.6383 115.163 43.9889 116.262 43.5448 116.729C43.0306 117.22 42.493 117.173 42.3527 116.589C42.2826 116.308 42.1424 116.215 42.0723 116.355C41.8385 116.729 40.553 116.285 40.4128 115.771C40.2959 115.35 40.2725 115.35 39.7817 115.864L39.2675 116.379L40.0855 116.729C40.9503 117.08 40.9503 117.127 40.1323 118.248C39.8752 118.599 39.5713 119.838 39.3376 121.404C39.1039 122.853 38.8 124.162 38.5896 124.372C38.3325 124.676 38.3092 124.793 38.5429 124.793C38.7533 124.793 38.8 125.19 38.6831 126.476C38.5195 128.299 38.9169 130.636 39.4077 130.8C39.8051 130.94 40.179 129.374 40.179 127.528V125.962H40.9737C41.4178 125.962 41.8619 126.078 41.932 126.195C42.0255 126.336 41.8152 127.247 41.4879 128.252C40.7634 130.426 40.7634 131.945 41.4646 132.132C41.7217 132.179 42.4462 132.436 43.1007 132.67L44.2694 133.09L43.2877 133.207C42.7267 133.301 42.2359 133.394 42.1891 133.464C42.119 133.535 42.6332 134.025 43.3578 134.61C44.059 135.171 44.5966 135.638 44.5498 135.685C44.5265 135.732 43.9655 135.591 43.3344 135.381C42.68 135.171 42.0255 134.96 41.8619 134.914C41.6515 134.867 41.6048 134.656 41.6983 134.329C41.8385 133.792 41.8385 133.792 41.4646 134.259C41.114 134.727 41.0906 134.703 40.9737 134.189C40.8802 133.909 40.74 133.675 40.6231 133.675C40.2491 133.675 40.3894 134.049 40.9971 134.61C41.3243 134.914 41.5814 135.288 41.5814 135.475C41.5814 135.638 41.6749 135.778 41.7918 135.778C41.9086 135.778 42.0489 136.269 42.119 136.877C42.1891 137.508 42.306 138.256 42.3995 138.583C42.493 138.981 42.3995 138.887 42.0489 138.279C41.7684 137.789 41.3477 137.181 41.114 136.947C40.8569 136.69 40.5997 136.222 40.5063 135.895C40.2959 135.077 39.9453 135.171 39.9219 136.059C39.8752 137.041 39.8518 137.157 39.5246 137.999C38.9169 139.495 38.7533 139.682 38.8935 138.77C38.9636 138.303 38.9169 137.859 38.7766 137.765C38.5195 137.602 38.5429 136.48 38.8234 136.106C38.9402 135.942 39.0805 135.311 39.174 134.656C39.2908 133.605 39.2441 133.394 38.5195 132.436C38.0754 131.828 37.5846 131.361 37.4443 131.337C37.1405 131.337 37.0704 131.057 36.7899 129.397C36.7198 128.93 36.2991 127.831 35.855 127.013C35.1538 125.658 35.107 125.471 35.4576 125.26C35.8316 125.05 35.8316 125.05 35.481 125.027C34.92 125.027 34.7798 124.466 35.2005 123.881C35.855 122.923 36.9301 119.581 37.0704 118.038C37.1405 117.197 37.3041 116.308 37.421 116.075C37.608 115.701 37.6781 115.701 38.1455 116.028C38.8467 116.519 39.2441 116.472 38.613 115.958C38.1222 115.584 37.8651 114.532 38.0988 113.924C38.1455 113.784 37.6313 113.176 36.9301 112.522C36.2523 111.891 35.4576 110.886 35.1538 110.278C34.289 108.619 30.6895 105.533 25.5006 102.074C15.5436 95.4127 12.0609 93.6597 8.01734 93.239C4.114 92.8416 2.68823 92.2807 1.28583 90.6446C0.0937901 89.2422 0.140537 88.985 1.44944 89.6395L2.19739 90.0135L1.58968 89.359C0.58463 88.2371 0.280777 87.5826 0.140537 86.1569L0.000296862 84.8012L0.911856 84.2169C1.58968 83.7494 1.84679 83.4222 1.89353 82.8846C1.98703 81.9029 2.85184 81.4822 5.98386 80.8745C7.29277 80.6174 8.60167 80.2902 8.90553 80.1266C10.2846 79.402 22.649 70.1695 26.0382 67.318C33.541 61.0306 37.0937 57.361 37.7716 55.1639C38.3325 53.4576 39.7817 51.8682 40.8335 51.8682C41.3243 51.8682 41.6515 51.7046 41.8152 51.4008C42.1658 50.7463 43.2643 50.2321 44.3161 50.2087C45.0874 50.2087 45.1342 50.1854 44.6667 49.9984C43.5448 49.5309 44.433 48.3622 45.9289 48.3622C46.4197 48.3622 47.6819 48.5259 48.6869 48.7128C50.1828 48.9933 50.8139 49.0167 51.9124 48.8063C53.7122 48.4557 55.0444 48.6427 55.8158 49.3907C56.3534 49.9049 56.6806 49.9984 57.7558 49.9984C58.8543 49.9984 59.3919 49.8348 60.9813 48.9933C62.6641 48.1285 63.1082 48.0116 64.5574 47.9649C65.5624 47.9415 66.8012 47.7312 67.6193 47.4507C68.4607 47.1468 69.5826 46.9598 70.4942 46.9598C71.8499 46.9598 72.0836 46.8897 72.9017 46.1885C73.6496 45.6042 73.8366 45.277 73.8366 44.6693C73.8366 43.8979 73.8132 43.8979 73.0653 44.0382C72.6679 44.1317 72.1537 44.2485 71.92 44.2953C71.359 44.4589 71.172 43.9447 71.6161 43.4538C71.8265 43.2201 72.4809 42.8228 73.0419 42.589C74.0002 42.1917 74.0703 42.1216 73.9301 41.4671C73.86 41.0698 73.7665 40.7425 73.7197 40.6958C73.6963 40.6724 73.2055 40.9062 72.6445 41.2334C71.4759 41.8878 71.0318 41.958 71.0318 41.4905C71.0318 41.1866 72.5277 39.7141 73.5327 39.0129C73.9301 38.7558 74.0236 38.4987 73.9067 38.0312C73.7898 37.4002 73.7665 37.4002 73.112 37.7274C72.2706 38.1715 72.2005 38.1715 72.2005 37.6339C72.2005 37.3768 72.5043 36.8859 72.8783 36.5353L73.5795 35.8809L72.7147 35.0395C72.2238 34.5954 71.1253 33.006 70.2371 31.5568C68.6945 28.9858 68.6477 28.8455 68.7646 27.7002C68.8347 27.0458 69.0684 25.9239 69.2788 25.2227C69.7229 23.7034 69.5826 22.9555 68.8113 22.6049C68.0634 22.2776 67.9699 21.9738 68.2737 20.7817C68.4841 19.9637 68.4607 19.6832 68.1569 19.1456C67.853 18.6314 67.8296 18.3509 68.0166 17.7198C68.1569 17.2757 68.2737 16.2941 68.3205 15.4994C68.3672 14.0269 68.7412 13.2088 70.167 11.3623C71.0084 10.2871 71.4759 9.04834 71.4993 7.90305C71.4993 6.31367 72.2005 4.84115 73.5795 3.4855C76.618 0.517086 81.2927 -0.65158 86.1076 0.353473ZM198.299 19.3326C198.159 21.3193 198.533 20.3143 198.744 18.1639C198.837 17.1121 198.814 16.8317 198.65 17.229C198.533 17.5095 198.37 18.4678 198.299 19.3326ZM198.65 23.9605C198.65 24.2877 198.72 24.2877 199.001 24.054C199.188 23.8904 199.351 23.7268 199.351 23.68C199.351 23.6333 199.188 23.5865 199.001 23.5865C198.814 23.5865 198.65 23.7502 198.65 23.9605ZM198.183 25.5733C198.346 25.7836 198.533 25.8771 198.58 25.8304C198.744 25.6668 198.416 25.2227 198.136 25.2227C197.996 25.2227 197.996 25.3629 198.183 25.5733ZM171.444 36.699C169.41 37.3534 167.797 37.9144 167.844 37.9611C168.008 38.1247 176.212 35.577 176.212 35.3667C176.212 35.2031 176.048 35.2732 171.444 36.699ZM68.9516 48.6427C66.7077 49.1569 67.6193 49.5543 71.1019 49.601C73.486 49.6478 73.6262 49.6244 73.5561 49.1803C73.4392 48.409 71.1019 48.1285 68.9516 48.6427ZM78.6749 49.5075C78.5814 49.8815 78.7684 49.9516 80.3577 50.0919C81.3394 50.162 82.9054 50.4425 83.8404 50.6996C85.8505 51.2605 85.8972 51.2605 85.4999 50.7931C84.7052 49.8348 82.4847 49.1336 80.124 49.0868C79.0255 49.0634 78.7917 49.1336 78.6749 49.5075ZM45.3212 50.2321C45.3212 50.349 45.4848 50.4658 45.6951 50.4658C45.8821 50.4658 46.4431 50.8866 46.8872 51.4008C47.3546 51.915 47.8221 52.3357 47.9156 52.3357C48.0091 52.3357 48.1961 52.0085 48.3363 51.5878C48.57 50.9099 48.6168 50.8866 49.0141 51.2372C49.5517 51.728 49.7621 51.728 49.7621 51.3073C49.7621 50.9099 49.318 50.7463 47.0975 50.349C46.186 50.1854 45.4146 50.0217 45.3679 50.0217C45.3445 49.9984 45.3212 50.0919 45.3212 50.2321ZM69.8398 51.4475C70.0034 51.8916 70.3072 52.0319 71.4525 52.2188C72.2238 52.3357 72.9484 52.5227 73.0419 52.6162C73.3925 52.9902 73.6029 52.7798 73.3691 52.3357C73.2289 52.0786 73.1821 51.7514 73.2523 51.6345C73.4159 51.354 72.1771 51.0735 70.2838 50.9567C69.7229 50.9333 69.6761 50.9801 69.8398 51.4475ZM90.0577 51.4475C88.2112 51.7747 88.1177 52.1721 89.5434 53.5044L90.5485 54.4159L90.7121 53.4576C90.8056 52.8967 91.1562 52.2188 91.5302 51.8215C92.2314 51.0735 92.1379 51.0502 90.0577 51.4475ZM78.5346 52.2422C78.2308 52.9434 78.3476 53.2239 78.7917 52.8733C78.9553 52.7331 79.7968 52.4993 80.6616 52.3123C81.5498 52.1487 82.251 51.9384 82.251 51.8215C82.251 51.728 81.4797 51.6345 80.5447 51.6345C78.9086 51.6345 78.8151 51.6579 78.5346 52.2422ZM82.7652 53.4109C80.124 54.1121 80.0305 54.1822 80.3577 54.5094C80.498 54.6497 80.6148 54.9535 80.6148 55.1872C80.6148 55.7248 80.872 55.7248 81.5732 55.1872C82.438 54.5094 82.9288 54.3692 84.9389 54.2289C86.4348 54.1121 86.8088 54.0186 86.8789 53.6914C86.9724 53.2706 85.8271 52.5227 85.3363 52.6863C85.196 52.7331 84.0273 53.0603 82.7652 53.4109ZM70.3306 54.2991C70.3306 54.9068 70.4475 55.1171 70.8448 55.2106C71.4759 55.3976 71.4993 55.3509 71.5694 54.5328C71.6161 54.0186 71.4993 53.855 71.0318 53.7147C70.7046 53.6212 70.4241 53.5511 70.3773 53.5277C70.354 53.5044 70.3306 53.855 70.3306 54.2991ZM70.0969 57.361C70.0969 57.5947 70.3306 57.7116 70.8448 57.7116C71.5694 57.6882 71.5927 57.6882 71.172 57.361C70.5877 56.9169 70.0969 56.9169 70.0969 57.361ZM69.8631 58.74C69.8631 58.9036 69.793 59.3944 69.7229 59.7918C69.5593 60.6332 69.8164 60.7267 70.8916 60.1658C71.2422 59.9788 71.7096 59.8152 71.8732 59.8152C72.1537 59.8152 72.1537 59.6983 71.8499 59.114C71.546 58.5296 71.3356 58.4128 70.6812 58.4128C70.1436 58.4128 69.8631 58.5296 69.8631 58.74ZM69.0918 62.7836C69.0451 62.9004 68.9282 63.251 68.8581 63.5783L68.6945 64.186L70.167 63.7185C71.8499 63.1809 71.8265 63.2043 71.6161 62.8771C71.4525 62.5966 69.232 62.5265 69.0918 62.7836ZM79.4462 63.5315C79.4462 63.6484 79.6098 63.7886 79.7968 63.8821C80.1474 63.999 80.2642 63.7653 79.9838 63.4848C79.7734 63.251 79.4462 63.2744 79.4462 63.5315ZM67.9699 67.7855C67.7362 67.9023 67.3622 68.6269 67.1051 69.3982C66.661 70.7071 66.6376 70.8006 67.035 70.8006C67.6193 70.8006 69.9332 70.0994 70.1904 69.8423C70.3306 69.7254 70.6578 69.632 70.9383 69.632C71.3356 69.632 71.4759 69.445 71.5694 68.7671C71.733 67.7621 71.7564 67.7621 70.7513 67.5284C69.9332 67.318 68.601 67.4349 67.9699 67.7855ZM79.3059 68.2997C79.2358 68.3464 79.119 68.7905 79.0488 69.258C78.9553 69.9358 79.0021 70.0994 79.2826 70.0994C79.4929 70.0994 80.0539 70.3565 80.5214 70.6837C81.9471 71.6421 84.822 72.3199 85.1493 71.7589C85.383 71.4083 83.1859 68.8373 82.2977 68.3932C81.503 68.0192 79.6565 67.9491 79.3059 68.2997ZM55.8391 69.8891C55.8391 70.0293 55.9326 70.0527 56.0729 69.9826C56.1897 69.9124 56.3066 69.7254 56.3066 69.6086C56.3066 69.4683 56.1897 69.445 56.0729 69.5151C55.9326 69.5852 55.8391 69.7722 55.8391 69.8891ZM56.4001 72.0394L55.582 72.7873L56.1196 73.582C57.0078 74.9143 57.148 74.9143 59.462 73.8859C61.402 72.9977 61.4955 72.9276 60.9813 72.6939C60.654 72.577 59.9996 72.4134 59.5321 72.3199C59.0647 72.2498 58.4336 71.9927 58.1297 71.7355C57.4052 71.1278 57.3584 71.1512 56.4001 72.0394ZM67.0116 72.8107C66.1468 73.0678 65.6326 73.3483 65.5391 73.6288C65.3754 74.143 64.8612 74.2599 63.8094 74.0495C63.1784 73.9093 62.6174 74.0261 61.1683 74.6105C60.1632 75.0312 59.3451 75.4519 59.3451 75.5454C59.3451 75.6623 60.3268 75.709 61.5189 75.6856C62.7109 75.6389 63.8328 75.709 63.9964 75.8025C64.5808 76.1765 68.227 75.1247 69.4424 74.2599C69.8164 74.0028 70.2605 73.8625 70.4475 73.9093C70.6578 74.0028 70.8448 73.7924 71.0084 73.3249C71.1487 72.9276 71.2655 72.5536 71.2655 72.5302C71.2655 72.2731 68.1802 72.4835 67.0116 72.8107ZM78.8618 73.8158C78.9553 74.2131 79.1657 74.5403 79.3293 74.5403C79.4929 74.5403 80.1708 74.8909 80.8252 75.335C82.2977 76.3401 84.3546 77.1114 85.3596 77.088C85.7803 77.0647 86.9724 77.1815 88.0476 77.3451C89.1227 77.5088 90.0343 77.5789 90.1044 77.5088C90.3615 77.2516 84.9155 74.3066 84.2143 74.3066C84.0741 74.3066 83.443 74.0729 82.8119 73.7924C81.877 73.3717 79.0722 72.8575 78.7917 73.0445C78.745 73.0912 78.7684 73.4184 78.8618 73.8158ZM53.9693 75.8726C53.9693 76.9945 53.9926 77.0179 54.7873 76.5037L55.3483 76.1297L54.8341 75.2415C54.2498 74.1897 53.9693 74.4001 53.9693 75.8726ZM94.6388 77.6957C94.148 78.5138 94.148 78.5606 94.522 78.9813C95.0829 79.6124 95.2699 79.5656 95.4569 78.7709C95.5738 78.1866 95.4102 76.8777 95.2232 76.8777C95.1764 76.8777 94.9193 77.2516 94.6388 77.6957ZM65.2352 78.1866C63.5523 78.7709 63.2251 78.9345 63.9964 78.841C65.1183 78.6774 67.9465 77.7659 68.6243 77.3451C69.3255 76.901 67.7595 77.2984 65.2352 78.1866ZM55.1379 78.2333C55.1379 78.3268 55.5119 78.654 55.956 78.9579C56.8676 79.5656 57.1714 79.5422 59.1348 78.654L60.3969 78.0697L59.5789 78.0463C59.1348 78.0463 58.2232 77.836 57.5921 77.6256C56.4702 77.2283 56.4001 77.2283 55.769 77.649C55.4184 77.8827 55.1379 78.1398 55.1379 78.2333ZM80.3811 77.9295C80.3811 78.2567 86.1543 80.781 86.3647 80.5473C86.4114 80.5005 85.4297 79.9863 84.191 79.402C80.5447 77.7191 80.3811 77.6724 80.3811 77.9295ZM69.0451 81.4121L67.1986 83.4923L68.1335 83.3521C68.6243 83.2586 69.606 83.1183 70.2605 83.0482C71.6395 82.8612 71.5694 83.0249 71.5927 80.3603C71.6161 78.4904 71.6629 78.4671 69.0451 81.4121ZM90.5251 79.8695L89.0292 80.0331L90.5018 80.8278C92.0444 81.6692 92.6287 81.6926 93.5637 80.968C94.0078 80.6174 94.0078 80.6174 93.4702 80.0331C93.0962 79.6357 92.769 79.4955 92.4651 79.589C92.2314 79.6591 91.3666 79.7993 90.5251 79.8695ZM77.7633 82.1367L77.9269 83.282L79.6098 83.7962L81.2927 84.3104L79.6332 81.8094L77.9503 79.3319L77.7867 80.1733C77.6698 80.6174 77.6698 81.5056 77.7633 82.1367ZM64.2068 80.0564C63.8562 80.1266 63.4588 80.3369 63.3186 80.5239C62.5707 81.3887 65.0482 81.0849 66.1701 80.1499L66.7077 79.6825L65.7728 79.8227C65.2586 79.8695 64.5574 79.9863 64.2068 80.0564ZM53.5018 81.0148C53.5018 81.9029 53.642 81.9497 54.4134 81.2952L54.9743 80.8278L54.4367 80.2668C53.7823 79.589 53.5018 79.8227 53.5018 81.0148ZM83.069 81.4355C84.0273 82.2068 85.2428 82.6275 85.5934 82.2769C85.7803 82.0899 85.7803 81.9497 85.5934 81.7627C85.2428 81.4121 83.6534 80.8745 82.9522 80.8511H82.3678L83.069 81.4355ZM58.6439 81.2251C57.9661 81.342 55.6054 82.7911 55.6054 83.095C55.6054 83.1417 55.956 83.2586 56.3534 83.3755C56.9844 83.5391 57.4986 83.4222 59.0647 82.8145C61.3319 81.9263 62.2201 81.3887 62.0097 81.0615C61.8695 80.8044 60.2567 80.8979 58.6439 81.2251ZM93.9376 83.2118C93.9376 83.282 94.1947 83.5858 94.4986 83.8663L95.0596 84.4039L95.2232 83.8897C95.3167 83.6092 95.3167 83.1417 95.2465 82.8145C95.1063 82.2535 95.0829 82.2535 94.522 82.6509C94.2181 82.8846 93.9376 83.1417 93.9376 83.2118ZM86.6919 82.721C86.6919 83.0015 88.328 84.1234 89.894 84.9181C90.642 85.2921 91.5068 85.5258 92.1145 85.5258H93.1196L92.0678 84.4974C91.3666 83.8195 90.5485 83.3053 89.6136 83.0015C88.1177 82.4873 86.6919 82.347 86.6919 82.721ZM62.3837 84.0533L61.7993 84.6376L62.3837 84.474C62.7109 84.3805 63.2251 84.0533 63.5523 83.7261L64.1367 83.1417L63.5523 83.3053C63.2251 83.3988 62.7109 83.7261 62.3837 84.0533ZM67.8063 84.3805C66.0299 84.6376 65.7962 84.7311 64.7677 85.6427C64.16 86.2036 63.7159 86.6945 63.7861 86.7646C63.8562 86.8113 64.6976 86.7646 65.6793 86.6477C66.7311 86.5309 68.2737 86.5309 69.3957 86.6477C70.4241 86.7412 71.3123 86.788 71.359 86.7178C71.3824 86.6477 71.359 85.9699 71.3123 85.2219L71.2188 83.8429L70.4942 83.9832C70.0735 84.0533 68.8814 84.2169 67.8063 84.3805ZM84.8454 85.0116C85.009 85.2687 85.4064 85.6193 85.7102 85.7595C86.7153 86.2036 86.575 85.7595 85.4297 84.8713C84.6584 84.2636 84.4247 84.3338 84.8454 85.0116ZM77.7399 85.5492C77.6464 86.227 77.6464 86.8347 77.6932 86.9282C77.7399 87.0217 78.7216 87.1619 79.8435 87.2321C80.9888 87.3022 82.4613 87.5125 83.1158 87.6995C83.7936 87.8865 84.3546 87.9566 84.3546 87.8865C84.3546 87.8164 83.9105 87.2554 83.3495 86.6477C82.4613 85.6427 82.1809 85.5024 80.2642 84.9648C79.0956 84.661 78.0905 84.3805 78.0204 84.3805C77.9503 84.3571 77.81 84.8947 77.7399 85.5492ZM53.9693 85.9465C53.9693 87.4424 54.1563 87.4892 56.143 86.5776C57.1247 86.1335 58.2466 85.6894 58.6439 85.6193C59.0179 85.5258 59.3451 85.3856 59.3451 85.2921C59.3451 85.1518 56.7273 85.4089 56.1196 85.6427C55.956 85.6894 55.4885 85.5492 55.0912 85.2921C54.1796 84.7311 53.9693 84.848 53.9693 85.9465ZM58.1064 86.4374C55.3016 87.3957 54.9042 87.6761 56.5637 87.5593C57.9194 87.4658 60.0697 86.5776 60.2333 86.04C60.3502 85.666 60.3736 85.666 58.1064 86.4374ZM91.1328 87.5359C89.3798 87.0451 88.9357 87.0684 90.1278 87.606C90.642 87.8631 91.6704 88.4241 92.395 88.8916C93.1196 89.359 93.774 89.733 93.8208 89.733C94.1012 89.733 94.4051 88.4241 94.2882 87.8398C94.148 87.2087 94.148 87.2087 93.3066 87.5593C92.5352 87.8631 92.3249 87.8631 91.1328 87.5359ZM87.8606 87.606C87.8606 87.7229 88.2579 88.1436 88.7254 88.5643C89.5668 89.2422 90.2914 89.5226 92.0678 89.8499C92.8625 89.9901 92.8625 89.9667 92.4184 89.5928C91.9743 89.2188 88.3982 87.4424 88.0242 87.419C87.9307 87.3957 87.8606 87.4892 87.8606 87.606ZM53.7122 90.5043C54.016 90.8082 54.0394 90.3874 53.7823 89.4993L53.6187 88.9149L53.5486 89.5928C53.5018 89.9667 53.5719 90.3641 53.7122 90.5043ZM93.774 92.4209C93.6338 92.865 93.6104 93.239 93.7273 93.239C93.9844 93.239 94.4051 92.4443 94.4051 91.9768C94.4051 91.3224 94.0311 91.5795 93.774 92.4209ZM40.3193 113.924C40.2491 114.111 40.2959 114.275 40.4128 114.275C40.553 114.275 40.6465 114.111 40.6465 113.924C40.6465 113.737 40.5997 113.574 40.553 113.574C40.5063 113.574 40.4128 113.737 40.3193 113.924ZM37.8651 120.118C37.7482 120.562 37.5846 121.357 37.5145 121.871C37.2807 123.274 37.7482 122.362 38.0754 120.703C38.239 119.931 38.4027 119.16 38.4728 118.95C38.5663 118.646 38.5663 118.646 38.3325 118.95C38.1923 119.137 37.9819 119.674 37.8651 120.118ZM41.3944 132.997C41.4646 133.184 41.558 133.067 41.6515 132.763C41.745 132.366 41.7217 132.272 41.5347 132.459C41.4178 132.576 41.3477 132.833 41.3944 132.997ZM62.3135 142.837C62.2434 143.258 62.2434 144.029 62.3369 144.543C62.5005 145.432 62.5473 145.478 63.3186 145.432C64.9781 145.315 66.3571 145.081 66.3571 144.894C66.3571 144.707 65.1183 143.492 64.0198 142.58C63.1082 141.832 62.4538 141.949 62.3135 142.837ZM75.9168 145.268C75.1455 145.619 74.5378 146.039 74.5378 146.203C74.5378 146.367 74.8884 146.6 75.3325 146.764C75.7532 146.904 76.3142 147.231 76.5245 147.465C76.7583 147.722 77.1322 147.933 77.3893 147.933C78.1606 147.933 79.3059 145.385 78.8618 144.66C78.6281 144.286 77.6231 144.497 75.9168 145.268ZM64.721 212.653C64.721 213.027 64.9547 213.518 65.2586 213.799L65.7962 214.313L66.0533 213.354C66.287 212.466 66.2636 212.419 65.6793 212.116C64.9314 211.718 64.721 211.835 64.721 212.653ZM55.1146 244.581C55.395 248.555 55.769 250.728 56.7974 254.375C57.1948 255.754 57.6623 258.068 57.8259 259.517L58.1064 262.111L58.1531 258.956C58.1998 253.743 57.4519 245.726 56.0729 236.4C55.8158 234.718 55.6054 233.198 55.582 233.011C55.5587 232.824 55.395 234.554 55.2081 236.868C54.9276 240.21 54.9042 241.8 55.1146 244.581Z" fill="black"/>
<path d="M210.312 3.9534C210.312 4.02352 210.125 4.6546 209.868 5.3558C209.54 6.33748 209.33 6.61796 209.003 6.57121C208.605 6.52446 208.605 6.52446 209.003 6.7582C209.4 7.0153 209.377 7.08542 208.699 7.83337C208.325 8.27746 207.787 9.07215 207.507 9.60974C207.016 10.568 206.782 10.8953 206.105 11.6198C205.59 12.1341 205.123 13.1391 204.632 14.635C204.188 15.9673 203.907 16.1075 202.972 15.4998L202.412 15.1258L203.557 13.6299C204.328 12.6249 204.772 11.7835 204.866 11.1758C204.959 10.6382 205.17 10.1707 205.333 10.1006C205.52 10.0305 205.66 9.84347 205.66 9.67986C205.66 9.49287 205.988 9.14227 206.362 8.86179C206.759 8.58131 207.46 7.66976 207.928 6.85169C208.418 6.03362 208.933 5.3558 209.096 5.3558C209.26 5.3558 209.4 5.28568 209.4 5.16881C209.4 5.07532 209.611 4.74809 209.868 4.42087C210.125 4.09364 210.335 3.88328 210.312 3.9534Z" fill="black"/>
<path d="M210.147 13.536C210.287 14.8917 210.124 15.3124 209.539 15.1021C209.165 14.9618 209.002 14.0035 209.352 14.0035C209.469 14.0035 209.656 13.6062 209.773 13.1153L210.007 12.2505L210.147 13.536Z" fill="black"/>
<path d="M42.5156 117.944C42.5156 118.177 42.352 119.182 42.165 120.187C41.7443 122.385 41.7209 123.717 42.0949 124.301C42.4923 124.956 42.165 125.493 41.3937 125.493C40.4821 125.493 40.0381 124.956 40.3653 124.231C40.786 123.296 41.16 120.094 40.9964 118.785L40.8561 117.546H41.6742C42.3286 117.546 42.5156 117.64 42.5156 117.944Z" fill="black"/>
<path d="M15.6819 250.54C16.8038 250.867 17.7621 251.568 17.9023 252.176C18.0192 252.597 17.7854 253.228 17.0842 254.537C16.5467 255.542 16.1026 256.617 16.1026 256.921C16.1026 257.365 16.6402 257.996 18.2295 259.469C20.7071 261.736 22.1095 263.489 22.3199 264.541C22.4134 264.961 22.7172 265.569 23.0211 265.873C23.7223 266.574 23.7223 266.808 22.9042 268C22.3432 268.841 22.2497 269.145 22.3666 270.15C22.4835 271.412 22.016 272.511 21.3616 272.511C20.9408 272.511 20.9408 272.511 21.3616 273.376C21.5486 273.773 21.7355 274.988 21.8057 276.274C21.8758 277.489 21.9926 279.663 22.0861 281.089C22.203 283.169 22.1796 283.8 21.9225 284.104C21.642 284.455 21.642 284.478 22.0628 284.361C22.5069 284.198 22.5302 284.338 22.6003 288.007C22.6237 290.088 22.6938 292.518 22.7172 293.43C22.7406 294.318 22.6705 295.113 22.5536 295.183C22.4367 295.253 22.2264 294.762 22.0628 294.131C21.7589 292.986 21.7122 292.331 21.7122 288.989C21.6888 288.078 21.642 286.886 21.5719 286.301C21.4551 285.39 21.4083 285.319 21.1746 285.717C20.9408 286.138 20.824 288.265 20.7772 292.402C20.7772 293.43 20.6837 293.757 20.3799 293.874C20.1695 293.968 19.9124 293.944 19.7722 293.804C19.5852 293.617 19.5384 291.093 19.6787 287.704C19.6787 287.119 19.6319 286.325 19.5151 285.951L19.3281 285.249L19.0009 286.301C18.8139 286.886 18.6269 288.031 18.5801 288.872C18.5334 289.714 18.4633 290.392 18.4399 290.392C18.4165 290.392 18.3932 291.233 18.3698 292.261C18.323 294.014 18.2997 294.131 17.7854 294.201C17.3414 294.271 17.2712 294.178 17.2712 293.383C17.2712 292.892 17.1777 292.121 17.0375 291.677C16.9206 291.256 16.8973 290.836 16.9908 290.765C17.1777 290.602 17.2479 290.134 17.4582 287.002C17.5751 285.39 17.692 284.805 17.9257 284.852C18.136 284.875 18.1127 284.735 17.8322 284.314C17.4816 283.753 17.4816 283.613 17.8322 282.351C18.136 281.276 18.1828 280.481 18.0659 278.635C17.9257 276.555 17.9491 276.251 18.2763 276.11C18.6269 275.994 18.6269 275.923 18.323 275.479C18.136 275.199 17.9724 274.731 17.9724 274.428C17.9724 274.124 17.8789 273.937 17.7387 274.03C17.5985 274.124 17.5517 274.381 17.6218 274.615C17.692 274.848 17.5985 275.713 17.3881 276.531C17.1076 277.536 17.0141 278.845 17.0375 280.692C17.0842 284.104 17.0842 284.081 16.6402 285.6C16.4298 286.301 16.2428 287.774 16.2428 288.849C16.2194 290.415 16.1493 290.836 15.8455 290.952C15.5416 291.069 15.4949 291.537 15.5182 293.851C15.5182 295.37 15.4481 296.679 15.3313 296.749C14.9339 296.983 14.7235 296.445 14.5833 294.716C14.4898 293.757 14.3262 292.589 14.2093 292.144C13.9289 291.023 13.9289 290.976 14.5132 290.976C15.004 290.976 15.004 290.952 14.6534 290.602C14.3262 290.251 14.3262 290.134 14.6067 289.41C14.8872 288.779 14.9105 288.031 14.7937 286.044C14.6534 283.683 14.6768 283.496 15.0508 283.496C15.4247 283.496 15.4481 283.45 15.1209 283.076C14.5132 282.421 14.4431 281.743 14.7937 280.668C14.9807 280.107 15.2144 279.196 15.3079 278.658C15.4715 277.56 15.191 275.222 14.9573 275.783C14.8872 275.994 14.4898 276.625 14.0925 277.186C13.1108 278.611 13.0173 279.055 12.8537 283.426C12.7836 285.506 12.6433 287.259 12.5498 287.353C12.1759 287.727 9.79178 285.834 9.79178 285.133C9.79178 284.922 10.0723 283.964 10.3995 283.006C11.1474 280.808 11.3344 278.261 10.9604 275.246C10.68 273.119 10.7033 272.885 11.0539 272.628C11.4045 272.371 11.4045 272.324 11.0773 272.184C10.8669 272.114 10.493 271.599 10.2592 271.062C9.69828 269.8 9.65154 267.836 10.1658 264.284C10.6566 260.754 10.5164 257.248 9.79178 255.332C8.92697 253.064 8.92697 252.316 9.72166 251.498C10.0956 251.124 10.8202 250.704 11.3344 250.563C12.3862 250.283 14.7469 250.26 15.6819 250.54ZM17.2712 266.457C17.2712 266.551 17.4115 266.668 17.5751 266.738C17.8088 266.831 17.8789 266.691 17.7854 266.27C17.7153 265.85 17.6218 265.779 17.4816 266.013C17.3647 266.177 17.2712 266.387 17.2712 266.457ZM18.1594 269.94C17.7854 269.94 18.3932 270.571 18.9074 270.711C19.3281 270.828 19.3281 270.781 18.9541 269.987C18.697 269.449 18.5334 269.309 18.4866 269.566C18.4399 269.776 18.2997 269.94 18.1594 269.94ZM15.7753 270.057C15.7052 270.244 15.7052 270.735 15.7753 271.109C15.9623 272.02 15.7052 273.049 15.3079 272.908C15.0975 272.815 15.0274 272.955 15.0975 273.306C15.191 273.703 15.378 273.82 16.0091 273.843C16.7804 273.867 16.8038 273.843 16.4765 273.469C16.0324 273.002 15.939 270.174 16.3597 270.174C16.4765 270.174 16.5233 270.057 16.4532 269.94C16.2428 269.589 15.939 269.659 15.7753 270.057ZM20.1228 272.394C20.1929 273.025 20.4266 273.165 20.6136 272.651C20.6837 272.488 20.6136 272.207 20.4734 272.067C20.0994 271.693 20.076 271.74 20.1228 272.394ZM14.1158 272.277C14.186 272.394 14.3729 272.511 14.4898 272.511C14.6301 272.511 14.6534 272.394 14.5833 272.277C14.5132 272.137 14.3262 272.043 14.2093 272.043C14.0691 272.043 14.0457 272.137 14.1158 272.277ZM19.8189 276.251C19.7956 276.368 19.7722 276.555 19.7488 276.648C19.3047 278.424 19.0944 280.645 19.2346 282.234C19.3515 283.8 19.3047 284.198 19.0009 284.455C18.6736 284.712 18.6736 284.759 19.0242 284.969C19.5384 285.249 20.1228 284.735 19.889 284.221C19.7956 284.011 19.7488 282.351 19.7956 280.528C19.8657 277.326 19.889 277.209 20.3331 277.419C20.8006 277.676 20.9876 277.349 20.5435 277.069C20.4033 276.999 20.3098 276.718 20.3098 276.461C20.3098 276.017 19.8657 275.807 19.8189 276.251ZM20.5902 281.977C20.637 284.174 20.7305 284.665 21.011 284.665C21.3148 284.665 21.3382 284.291 21.2213 282.047C21.0343 279.032 21.0811 279.289 20.7539 279.289C20.5902 279.289 20.5201 280.131 20.5902 281.977Z" fill="black"/>
<path d="M61.4457 275.011C62.8247 275.245 64.9751 276.087 65.1854 276.484C65.3023 276.718 65.3491 277.232 65.2789 277.606C65.2088 277.98 65.3724 279.382 65.6295 280.715C66.097 282.982 66.097 283.239 65.7698 284.361C65.2789 285.974 63.9233 287.236 62.6378 287.236C62.1235 287.236 61.6093 287.376 61.4457 287.586C61.3055 287.773 60.7211 288.171 60.1602 288.498C58.7578 289.339 58.0566 290.251 57.4723 292.051C56.9113 293.71 56.8879 293.71 55.1349 293.266C54.9479 293.219 55.1349 293.313 55.5323 293.5C55.953 293.687 56.3036 293.921 56.3036 294.037C56.3036 294.131 55.8829 294.552 55.392 294.972C54.8778 295.37 54.4337 295.931 54.387 296.211C54.2935 296.819 53.7559 296.936 53.1482 296.492C52.7742 296.211 52.7275 296.071 52.9378 295.72C53.0781 295.487 53.2884 294.832 53.3819 294.271C53.4754 293.734 53.6858 293.219 53.8728 293.149C54.0831 293.079 54.1532 292.845 54.0831 292.588C53.9663 292.261 54.3636 291.7 55.579 290.415C57.332 288.568 57.5424 288.124 57.4255 286.535L57.3554 285.529L56.1633 286.628C55.4855 287.212 54.8778 287.984 54.7843 288.334C54.574 289.246 54.2467 289.573 53.5689 289.573C53.1248 289.573 53.0313 289.667 53.1482 290.017C53.2417 290.344 53.0781 290.601 52.5171 290.999C51.2316 291.864 50.2265 292.915 50.2265 293.36C50.2265 293.64 50.0629 293.78 49.7123 293.78C49.315 293.78 49.2682 293.85 49.4786 294.061C49.8759 294.458 49.8292 294.645 49.2215 294.809C48.941 294.879 48.4502 295.183 48.1229 295.463C47.4217 296.094 46.6037 296.585 46.2531 296.585C45.7389 296.585 46.0895 296.024 47.4217 294.785C48.4735 293.78 48.8008 293.36 48.6839 293.009C48.5904 292.682 48.7774 292.378 49.3617 291.887C49.8292 291.513 50.4836 290.625 50.8342 289.924C51.1615 289.222 51.5354 288.638 51.6523 288.638C51.7692 288.638 51.8627 288.498 51.8627 288.311C51.8627 288.124 52.3769 287.61 53.0313 287.142C53.7559 286.605 54.4571 285.833 54.9246 285.015C55.3219 284.314 55.7426 283.66 55.8595 283.59C55.9764 283.519 56.0699 283.356 56.0699 283.239C56.0699 283.122 55.8127 283.192 55.4855 283.403C55.1817 283.59 54.8077 283.706 54.6441 283.613C54.4805 283.496 54.4337 283.59 54.5272 283.893C54.6441 284.244 54.3636 284.618 53.3118 285.553C52.5405 286.207 51.7925 287.049 51.6289 287.446C51.4653 287.843 51.1381 288.217 50.9044 288.288C50.6472 288.381 50.507 288.521 50.5771 288.638C50.6472 288.755 50.2265 289.293 49.6422 289.83C49.0812 290.368 48.5437 291.022 48.4502 291.279C48.2632 291.864 47.8892 292.261 46.814 292.986C45.8323 293.663 45.622 293.687 45.5051 293.149C45.4584 292.892 45.7856 292.378 46.2998 291.864C46.7907 291.396 47.188 290.905 47.188 290.788C47.188 290.672 47.3282 290.508 47.5152 290.438C47.7022 290.368 48.1463 289.807 48.4969 289.176C48.8475 288.568 49.7824 287.423 50.5771 286.651C51.9562 285.319 53.4988 283.309 53.4988 282.842C53.4988 282.725 53.1482 282.701 52.7508 282.748C52.0029 282.865 52.0029 282.865 52.5171 283.099C53.0547 283.332 53.008 283.403 51.2783 285.062C50.2733 285.997 49.3617 286.768 49.2448 286.768C49.1046 286.768 49.0579 286.932 49.1514 287.119C49.2215 287.353 48.9176 287.703 48.2398 288.171C47.6555 288.568 47.188 288.989 47.188 289.106C47.188 289.456 44.8039 291.677 44.4533 291.677C44.2897 291.677 44.0793 291.513 44.0092 291.326C43.869 290.952 44.2196 290.485 46.0193 288.755C47.2114 287.61 48.0762 286.301 47.6555 286.301C47.4919 286.301 46.8841 286.792 46.2764 287.376C45.6921 287.96 44.9208 288.591 44.5702 288.778C44.2196 288.965 43.8924 289.293 43.8222 289.503C43.7054 289.9 41.8823 290.648 41.6485 290.438C41.4615 290.251 43.1444 288.638 43.5418 288.638C43.7521 288.638 44.0326 288.381 44.1962 288.054C44.3365 287.75 44.5234 287.54 44.6169 287.586C44.7338 287.656 44.874 287.54 44.9442 287.353C45.0143 287.142 45.3415 286.885 45.6454 286.768C45.9726 286.651 46.4868 286.184 46.7673 285.74C47.3049 284.898 47.6555 284.688 47.6555 285.179C47.6555 285.342 47.7723 285.296 47.9359 285.085C48.5203 284.337 53.3352 280.457 53.826 280.317C54.2467 280.224 54.3169 280.06 54.2467 279.382C54.1766 278.728 54.2701 278.494 54.8778 277.957C55.392 277.489 55.6024 277.115 55.6024 276.601C55.6024 275.409 56.7009 274.825 57.2151 275.713C57.4255 276.087 57.4489 276.087 57.4723 275.736C57.4723 275.035 59.459 274.684 61.4457 275.011ZM57.706 276.554C57.706 276.601 57.9397 276.835 58.2202 277.092L58.7578 277.536L58.3137 276.998C57.893 276.507 57.706 276.367 57.706 276.554ZM60.0667 279.382C59.8797 279.616 59.8797 279.756 60.1368 279.967C60.3939 280.177 60.4874 280.107 60.5575 279.639C60.6978 278.985 60.4874 278.891 60.0667 279.382ZM56.9347 280.457C56.4672 280.457 56.4672 280.457 56.9113 280.808C57.5424 281.276 57.8696 281.229 58.0098 280.668C58.1033 280.317 58.0566 280.224 57.7761 280.317C57.5891 280.387 57.2151 280.457 56.9347 280.457ZM54.7843 280.715C54.5272 281.112 54.7376 281.135 55.2284 280.785C55.6258 280.504 55.6258 280.457 55.3219 280.457C55.1115 280.457 54.8544 280.574 54.7843 280.715ZM58.3371 283.449C57.893 283.87 57.6125 283.963 57.1918 283.847L56.6542 283.683L57.2151 284.267C57.6592 284.758 57.8462 284.828 58.1735 284.618C58.4072 284.454 58.5241 284.197 58.4539 284.01C58.3838 283.8 58.5942 283.449 58.9915 283.145C59.4122 282.795 59.5759 282.514 59.459 282.304C59.3187 282.094 59.2253 282.117 59.085 282.468C58.9915 282.701 58.6643 283.169 58.3371 283.449ZM49.4318 284.828C48.7306 285.459 48.1463 286.02 48.1463 286.114C48.0996 286.605 48.8942 286.161 50.133 285.015C51.886 283.403 51.255 283.239 49.4318 284.828Z" fill="black"/>
<path d="M10.4929 286.652C10.6565 286.839 11.0538 287.143 11.381 287.307C12.4095 287.798 12.4796 288.171 11.7784 289.831C11.4278 290.649 11.0772 291.677 11.0304 292.075C10.8902 293.033 10.2124 293.103 9.65142 292.262C9.3242 291.771 9.30083 291.561 9.53456 291.046C9.69817 290.696 9.81504 289.691 9.79166 288.779C9.74492 286.489 9.76829 286.302 10.002 286.302C10.1189 286.302 10.3293 286.465 10.4929 286.652Z" fill="black"/>
<path d="M44.0348 291.701C44.1283 291.841 44.1517 291.958 44.1283 291.981C44.0815 292.005 43.8011 292.145 43.544 292.308C42.8895 292.682 42.6324 292.425 43.1466 291.864C43.5673 291.374 43.8244 291.327 44.0348 291.701Z" fill="black"/>
<path d="M9.65247 292.59C9.8862 292.847 10.3069 293.081 10.5874 293.128C10.9614 293.175 11.1016 293.385 11.1484 293.969C11.1951 294.46 11.1016 294.764 10.8913 294.858C10.6108 294.951 10.564 295.278 10.6575 296.377C10.7744 297.662 10.751 297.756 10.3069 297.756C9.55897 297.756 9.09151 296.868 9.09151 295.489C9.09151 294.53 8.99802 294.25 8.74091 294.25C8.46043 294.25 8.41368 294.086 8.53055 293.595C8.90452 291.936 8.99802 291.842 9.65247 292.59Z" fill="black"/>
<path d="M45.4127 293.453C45.5062 293.664 45.5296 293.851 45.5062 293.874C45.4595 293.897 45.2024 294.038 44.9219 294.178C44.2908 294.552 44.1506 294.552 44.1506 294.248C44.1506 293.967 44.8985 293.079 45.1089 293.079C45.2024 293.079 45.3426 293.243 45.4127 293.453Z" fill="black"/>
<path d="M20.6828 294.623C20.6126 294.834 20.5425 295.254 20.5425 295.581C20.5425 296.259 20.0283 296.213 19.9582 295.511C19.9114 295.278 19.8179 294.88 19.7245 294.647C19.5842 294.319 19.6777 294.249 20.1919 294.249C20.6828 294.249 20.7996 294.343 20.6828 294.623Z" fill="black"/>
<path d="M18.3926 295.534C18.3692 296.259 18.2757 296.586 18.042 296.586C17.8784 296.586 17.7381 296.352 17.7381 296.048C17.7381 295.768 17.6446 295.371 17.5044 295.184C17.3642 294.973 17.3875 294.786 17.5745 294.669C18.1822 294.272 18.3926 294.506 18.3926 295.534Z" fill="black"/>
<path d="M52.7745 296.61C53.0784 296.843 53.5225 297.054 53.7562 297.054C54.2704 297.054 54.2938 297.077 53.9198 297.872C53.7562 298.269 53.5225 298.433 53.2654 298.339C53.055 298.269 52.6811 298.409 52.4473 298.69C51.9331 299.251 51.4189 299.274 50.7878 298.807C50.3671 298.456 50.3671 298.433 51.0215 297.895C51.3955 297.591 51.6293 297.241 51.5591 297.1C51.4656 296.984 51.5825 296.726 51.8162 296.516C52.1668 296.189 52.2603 296.189 52.7745 296.61Z" fill="black"/>
</g>
</svg>
