<svg width="206" height="293" viewBox="0 0 206 293" fill="none" xmlns="http://www.w3.org/2000/svg">
<g opacity="0.5">
<path d="M121.3 0.344971C120.432 0.527588 118.72 1.16672 117.533 1.76019C115.753 2.62759 115.022 3.15262 113.402 4.77328C110.64 7.48962 109.521 10.0005 109.521 13.356C109.521 15.0223 109.909 16.0952 111.142 17.6702C111.964 18.7202 112.101 19.0854 112.374 21.0485C112.717 23.2855 113.333 24.8376 114.064 25.3627C114.315 25.5224 114.726 26.0931 114.999 26.6181C115.342 27.3257 115.684 27.6453 116.186 27.7594C116.643 27.8964 117.031 28.2388 117.396 28.8551C117.853 29.6997 117.967 29.7681 118.743 29.6997C119.93 29.6084 120.387 29.9279 121.094 31.4116C122.35 34.0595 122.601 34.2421 126.047 35.1323L127.143 35.4291L126.664 35.9084C126.07 36.5704 126.436 36.9585 127.486 36.7987C127.965 36.7302 128.262 36.7758 128.262 36.9128C128.262 37.0498 128.33 37.3008 128.399 37.4835C128.49 37.7345 128.125 38.0769 127.257 38.6476C126.184 39.3324 125.522 40.0172 125.522 40.4737C125.522 40.7248 126.458 40.6107 127.28 40.2683C127.942 39.9944 128.147 39.9715 128.307 40.1998C128.695 40.8389 128.444 41.2041 127.052 41.8889C126.23 42.2998 125.614 42.7563 125.545 43.0074C125.477 43.3727 125.614 43.3955 126.961 43.2585C128.33 43.1216 128.444 43.1444 128.558 43.6009C128.695 44.1259 128.536 44.7194 128.262 44.7194C128.147 44.7194 127.691 45.0846 127.234 45.4955C126.618 46.0662 126.047 46.3629 125.112 46.5683C123.08 46.9792 121.573 47.6184 120.546 48.4858L119.61 49.3075L117.373 48.851C116.141 48.5999 114.109 48.326 112.854 48.2347C110.754 48.0977 110.457 48.0064 109.11 47.2075C107.512 46.2488 106.896 46.1346 106.211 46.6597C105.8 47.002 105.8 47.0249 106.577 47.7097C107.056 48.1434 107.193 48.3488 106.919 48.2575C106.668 48.1434 106.006 48.0292 105.458 47.9608C104.819 47.8923 104.294 47.6868 104.088 47.4357C103.472 46.6825 101.669 46.614 100.185 47.2531C99.0667 47.7553 98.6102 47.801 95.8482 47.7781C92.584 47.7553 88.772 47.3444 83.2252 46.4086C77.0849 45.3814 63.8685 42.4368 62.7043 41.8433C62.2934 41.6378 61.1749 40.8389 60.2391 40.0857C59.3032 39.3324 58.1847 38.5791 57.7738 38.3965C57.089 38.1226 56.9521 38.1226 56.3814 38.5563C55.7651 38.9672 55.651 38.99 54.8292 38.6933C53.8477 38.3509 53.6194 38.4193 53.2085 39.127C52.9803 39.5378 52.9575 39.4922 52.9346 38.7161C52.9346 38.1454 52.8205 37.8715 52.6151 37.8715C52.4553 37.8715 52.1814 37.7345 52.0444 37.5519C51.8846 37.3693 50.7661 37.0041 49.5563 36.7302C46.703 36.091 43.9867 35.3149 36.2714 32.9182C18.3527 27.3714 14.6777 26.3442 14.0385 26.6409C13.6961 26.8007 13.4679 26.7779 13.2624 26.5496C13.057 26.3442 13.057 26.2301 13.2168 26.2301C13.3765 26.2301 13.445 25.9105 13.3994 25.4311C13.3765 24.929 13.4679 24.5409 13.6505 24.4268C14.0613 24.1757 13.3994 22.8746 12.6918 22.555C12.2352 22.3496 12.2352 22.3496 12.8287 22.4181C13.1711 22.4865 13.5135 22.4181 13.582 22.3268C13.6505 22.2126 13.4907 21.2311 13.2168 20.1582C12.8515 18.6974 12.7374 17.6017 12.7602 15.981C12.8287 13.1734 12.8287 13.219 12.3722 13.219C12.0298 13.219 12.0298 13.1734 12.2809 13.0136C12.5548 12.831 12.4863 12.6484 11.9385 11.9636C10.6146 10.2973 10.2265 9.65811 10.0211 8.85919C9.86129 8.31137 9.38194 7.69507 8.51453 6.94177C7.82974 6.32547 7.05365 5.45807 6.80256 5.02438C6.55147 4.56784 6.09494 3.79175 5.77537 3.28958C5.25037 2.46783 5.20471 2.44501 5.29602 2.99283C5.34167 3.35806 5.29602 3.63196 5.20471 3.63196C5.09058 3.63196 4.99928 3.56348 4.99928 3.44934C4.99928 3.35806 4.79384 3.03848 4.54275 2.7189C4.10905 2.14825 4.10905 2.14825 4.4971 3.63196C4.77101 4.68198 5.09058 5.32111 5.59276 5.80048C6.00364 6.16568 6.64277 6.9646 7.03082 7.55811C7.4417 8.17441 7.85257 8.65378 7.9667 8.65378C8.10366 8.65378 8.19497 8.76788 8.19497 8.90485C8.19497 9.04181 8.44606 9.47552 8.7428 9.86356C9.24498 10.5712 10.3635 13.219 10.1352 13.219C10.0667 13.219 9.6102 12.3973 9.10802 11.3929C8.53736 10.2516 7.98953 9.47552 7.66996 9.33856C7.39604 9.22443 7.25909 9.13312 7.39604 9.13312C7.51018 9.11029 7.008 8.51682 6.25473 7.78638C4.70253 6.27982 3.24165 4.56784 2.64816 3.54065L2.23729 2.83304L2.39707 3.51782C2.48838 3.88306 2.62533 4.59067 2.71664 5.07004C2.87642 5.86896 3.83513 7.05591 4.31449 7.05591C4.51992 7.05591 4.83949 7.51245 6.02646 9.42987C6.41451 10.0918 6.43734 10.0918 6.77973 9.65811C7.07647 9.27008 7.0993 9.27008 6.98517 9.63528C6.89386 9.88638 7.07647 10.3886 7.51018 10.9592C7.8754 11.4614 8.4004 12.5571 8.67432 13.4016C8.94824 14.2462 9.24498 15.0223 9.33628 15.1593C9.42759 15.2734 9.5189 15.6386 9.5189 15.9582C9.5189 16.2778 9.67868 17.1452 9.88412 17.8984C10.3406 19.7017 10.5917 21.8931 10.3406 21.8931C10.2037 21.8931 9.9526 21.6191 9.74716 21.2539C9.33628 20.5691 8.42323 16.9854 8.42323 16.0952C8.42323 15.3647 7.69279 15.1136 6.93952 15.593C6.2319 16.0495 6.2319 16.2778 6.89386 16.8028C7.39604 17.2137 8.14931 19.4278 8.60584 21.8931C8.78845 22.8974 8.81128 22.9202 9.54172 22.8518C10.0439 22.8061 10.2493 22.8518 10.1352 23.0115C10.0667 23.1485 9.83846 23.2626 9.65585 23.2626C9.47324 23.2626 9.33628 23.3768 9.33628 23.5365C9.33628 23.6963 9.1765 23.6507 8.92541 23.4224C8.44606 22.9887 7.73844 23.2855 7.73844 23.9474C7.73844 24.4039 8.94824 25.5453 9.45042 25.5453C9.6102 25.5453 9.86129 25.6822 9.99825 25.8648C10.3406 26.2757 11.2994 26.4583 11.5961 26.1616C11.9613 25.7964 11.8928 26.2757 11.5276 26.7551C11.345 26.9833 11.1396 27.0746 11.0711 26.9605C11.0026 26.8464 10.5689 26.6638 10.1352 26.5953C9.08519 26.3898 7.57865 25.0431 7.39604 24.1529C7.30474 23.7648 7.0993 23.3996 6.93952 23.3311C6.75691 23.2855 6.6656 23.1028 6.73408 22.9431C6.80256 22.7833 6.48299 22.3724 6.02646 22.03C5.41015 21.5507 5.13623 21.0941 4.81667 20.0213C4.56558 19.1311 4.26883 18.5604 3.97209 18.4234C3.31013 18.1267 2.35142 16.6886 2.05468 15.5701C1.75793 14.5201 1.46119 14.1777 1.25575 14.7027C1.18727 14.8854 0.981837 15.0452 0.7764 15.0452C0.319873 15.0452 0.342699 15.2506 0.890532 15.8441C1.16445 16.1408 1.43836 16.8712 1.5525 17.5789C1.66663 18.2408 1.87207 18.8343 2.00902 18.88C2.14598 18.9256 2.26011 19.1539 2.26011 19.405C2.26011 19.6789 2.46555 19.8843 2.8536 19.9756C3.2873 20.0898 3.60687 20.455 3.99492 21.2996C4.29166 21.9387 4.54275 22.5778 4.54275 22.692C4.54275 22.8289 4.70253 23.1713 4.90797 23.4452C5.25037 23.9702 5.29602 23.9702 5.72972 23.5594C6.16342 23.1713 6.16342 23.1713 5.91233 23.7648C5.66124 24.267 5.70689 24.4953 6.25473 25.4083C6.59712 25.979 7.008 26.5268 7.16778 26.6409C7.32756 26.7322 7.73844 27.3942 8.05801 28.1018C8.58301 29.3344 8.67432 29.4258 9.38194 29.4258C9.79281 29.4258 10.4548 29.2203 10.8657 28.9692C11.5504 28.5583 11.6189 28.5583 11.8244 28.9236C12.0298 29.266 12.1211 29.266 12.5548 29.0149C13.057 28.6953 13.057 28.7181 12.8972 29.8138C12.7602 30.9095 12.7831 30.9323 13.4907 31.2975C13.9016 31.4801 14.6777 31.8682 15.2027 32.1421C16.1385 32.5986 16.8462 32.804 22.5299 34.2193C28.3963 35.6573 37.7323 38.6704 41.1562 40.1998C43.941 41.4552 45.2193 42.2998 47.1139 44.1487C48.8487 45.8151 49.8531 46.5455 50.4922 46.5455C50.9487 46.5455 50.9716 46.4542 50.6292 45.5183C50.4009 44.8792 50.4237 44.6738 50.9259 43.7835C51.2455 43.2357 51.6564 42.3683 51.8161 41.8661L52.0901 40.9531L52.2727 41.6378C52.4325 42.14 52.3411 42.5966 51.9074 43.5324C51.5879 44.2172 51.3368 44.8107 51.3368 44.8792C51.3368 44.9249 51.7933 45.427 52.364 46.0205C52.9803 46.6368 53.3912 47.2531 53.3912 47.5727C53.3912 48.5086 54.464 48.6227 55.9249 47.8238C58.3901 46.477 60.8326 46.477 70.0544 47.801C81.9013 49.4673 85.5078 49.9923 87.4024 50.3119C95.7341 51.6814 100.345 52.9597 101.943 54.375C102.628 54.9913 102.719 55.1739 102.65 55.9956C102.582 56.9087 102.605 56.9315 103.495 57.2283C104.819 57.6848 107.307 57.5022 108.106 56.9087C109.042 56.2239 109.681 55.151 109.864 54.0554C110.046 52.8913 109.749 52.4576 109.065 52.9141C108.357 53.3478 108.083 52.9597 108.38 51.8641C108.585 51.1336 108.768 50.9282 109.453 50.6771C110.137 50.426 110.32 50.426 110.48 50.6771C110.777 51.1564 110.708 52.6402 110.343 54.1924C109.909 56.0184 109.909 57.0456 110.343 57.0456C110.777 57.0456 110.777 56.9087 110.229 59.7848C109.43 64.0077 109.635 67.6599 110.936 71.5632L111.393 72.9556L110.914 73.96C110.343 75.2154 110.343 76.9502 110.891 78.16C111.279 79.0502 111.279 79.0959 110.868 79.7579C110.274 80.7394 110.32 82.3829 110.959 83.2047C111.393 83.7296 111.484 84.1405 111.484 85.4644C111.484 86.7656 111.598 87.2677 112.078 88.1123C112.511 88.9112 112.626 89.2765 112.443 89.5732C112.055 90.2808 112.443 91.5363 113.333 92.4493C114.155 93.2939 114.155 93.2939 113.767 94.0243C113.561 94.4124 113.333 95.4624 113.265 96.3298C113.036 99.0918 114.086 100.781 116.232 101.032L117.191 101.146L116.438 100.53C114.726 99.1374 114.086 96.7407 114.908 94.8004C115.205 94.0472 115.296 94.0015 116.004 94.1385C116.917 94.3211 117.967 93.8645 118.492 93.0656C118.675 92.7689 118.971 92.0156 119.108 91.3537C119.314 90.5319 119.542 90.121 119.839 90.0297C120.09 89.9384 120.638 89.5504 121.048 89.1395C122.121 88.0438 124.084 87.3819 126.55 87.2449C128.969 87.108 129.289 87.2906 129.471 88.7058L129.586 89.6873H127.965C123.354 89.7102 119.405 91.97 117.236 95.8504C115.867 98.3157 116.004 98.3385 118.241 96.1244C120.683 93.7048 122.144 92.6319 123.879 91.97C125.089 91.5134 127.052 91.3765 128.467 91.6504C129.129 91.7874 129.175 91.8558 129.175 92.883C129.175 93.933 129.152 93.9559 128.284 94.207C127.805 94.3667 127.189 94.4809 126.915 94.4809C126.55 94.4809 126.436 94.6178 126.436 95.0744C126.436 95.3939 126.321 95.8504 126.184 96.1015C125.956 96.5352 126.002 96.5581 126.983 96.4211C127.554 96.3298 128.262 96.307 128.558 96.3983C129.038 96.5124 129.106 96.6494 129.038 97.3342C128.878 99.3429 128.809 99.4342 127.143 99.8679C125.659 100.256 125.591 100.302 125.112 101.306C124.86 101.877 124.655 102.356 124.678 102.379C124.701 102.402 125.317 102.31 126.025 102.173C126.869 102.036 127.6 102.014 128.079 102.151L128.832 102.379L128.809 103.84C128.741 106.396 128.878 106.191 127.531 105.666C126.892 105.415 126.321 105.255 126.276 105.301C126.116 105.46 125.568 107.834 125.659 107.994C125.728 108.085 126.253 108.085 126.869 108.017C127.874 107.903 128.011 107.948 128.284 108.428C128.444 108.725 128.581 109.592 128.604 110.368L128.65 111.76L127.622 111.555C127.052 111.464 126.527 111.327 126.481 111.258C126.321 111.098 125.568 112.81 125.682 113.016C125.728 113.13 126.299 113.198 126.938 113.198C128.49 113.198 128.992 113.609 128.672 114.705C128.536 115.207 128.536 115.755 128.695 116.234C129.334 118.334 129.449 118.882 129.289 119.339C129.22 119.59 129.061 119.818 128.992 119.818C128.901 119.818 128.49 119.202 128.079 118.449C127.075 116.622 126.618 116.622 124.838 118.403C123.742 119.521 123.422 120.001 123.034 121.279C122.487 123.059 122.441 123.836 122.829 125.114C123.194 126.324 123.833 126.78 125.865 127.237C127.531 127.602 127.577 127.625 127.805 128.446C127.919 128.903 128.033 129.382 128.033 129.496C128.033 129.93 129.243 131.277 130.111 131.825C130.59 132.122 131.001 132.532 131.001 132.715C131.001 132.898 131.183 133.24 131.434 133.491C131.663 133.719 131.914 134.176 132.005 134.495C132.256 135.568 135.041 138.673 135.931 138.901C136.616 139.084 137.438 138.422 137.872 137.326C138.031 136.915 138.351 136.139 138.602 135.568C138.853 134.998 139.104 134.13 139.15 133.628C139.31 131.848 139.515 131.117 140.063 130.455C141.022 129.291 141.318 128.515 141.295 126.986V125.525L142.916 124.566C144.856 123.425 145.199 122.808 144.925 121.028C144.674 119.567 144.217 118.677 143.03 117.353C142.003 116.257 140.177 115.253 139.15 115.253C138.419 115.253 138.237 115.595 137.849 117.581C137.506 119.339 137.05 119.339 137.255 117.604C137.346 116.896 137.506 116.189 137.62 116.052C137.803 115.824 137.894 115.299 138.054 113.632C138.1 113.335 139.287 112.97 140.245 112.97H141.227L140.862 112.034C140.565 111.281 140.428 111.144 140.04 111.258C138.556 111.692 138.123 111.669 137.963 111.144C137.141 108.588 137.598 107.56 139.424 107.834L140.428 107.994L140.268 107.218C140.177 106.807 140.063 106.122 139.972 105.711C139.857 104.981 139.515 104.776 139.081 105.186C138.967 105.301 138.488 105.506 138.031 105.62C137.141 105.871 137.027 105.757 137.141 104.798C137.164 104.616 137.073 104.342 136.913 104.159C136.753 103.954 136.593 103.474 136.548 103.064C136.479 102.402 136.57 102.265 137.164 102.014C137.598 101.831 138.397 101.762 139.332 101.854C140.154 101.899 140.816 101.945 140.816 101.899C140.816 101.877 140.542 101.374 140.223 100.781C139.789 99.982 139.492 99.7309 139.081 99.7309C138.785 99.7309 138.077 99.6168 137.506 99.457C136.593 99.2059 136.433 99.069 136.205 98.3385C135.84 97.0374 136.068 96.695 137.232 96.8092C137.757 96.8776 138.351 96.9918 138.556 97.0831C138.853 97.22 138.922 97.0831 138.899 96.1928C138.876 95.6222 138.785 95.1656 138.693 95.1656C138.054 95.1656 136.274 94.1385 136.137 93.7276C135.908 92.9743 135.84 91.7874 136.023 91.5134C136.091 91.3993 136.958 91.1026 137.94 90.8971C139.401 90.5776 139.926 90.5547 140.976 90.783C142.87 91.1711 145.244 92.4493 147.618 94.3667C148.783 95.3026 149.787 96.0787 149.855 96.0787C150.129 96.0787 147.938 93.1341 146.934 92.1526C145.61 90.8743 143.03 89.5504 141.159 89.208C140.382 89.071 138.944 89.0025 137.849 89.0938L135.908 89.208L135.931 88.4775C135.954 88.0667 135.977 87.4732 136 87.1308C136.068 85.3047 141.82 85.784 145.678 87.9525C147.025 88.683 147.299 88.9797 147.687 89.8699C148.303 91.2852 148.691 91.696 149.741 91.97C150.54 92.1982 150.654 92.3124 150.974 93.3852C151.156 94.0243 151.316 94.7319 151.316 94.9146C151.316 95.7591 150.791 97.0602 150.061 98.019C149.171 99.1831 149.376 99.3429 150.837 98.5896C152.503 97.745 153.188 95.0287 152.343 92.6319C152.001 91.696 152.001 91.6504 152.549 91.0797C153.873 89.6417 154.375 88.1808 153.827 87.1764C153.667 86.8797 153.736 86.4916 154.055 85.7612C154.512 84.734 154.672 82.5199 154.306 81.9492C154.17 81.7438 154.306 81.2644 154.672 80.534C155.334 79.2557 155.265 78.3426 154.421 77.0644C153.918 76.3339 153.918 76.2426 154.215 75.5122C154.695 74.4165 154.489 72.8415 153.713 71.5175C153.234 70.7186 153.074 70.1023 153.028 69.1664C153.005 67.9795 152.321 66.1077 151.499 65.012C151.293 64.6925 151.362 64.3273 151.933 63.0718C152.321 62.2044 152.914 60.287 153.256 58.8033C153.804 56.5435 153.987 56.0641 154.398 55.9043C154.9 55.6989 155.197 54.9228 155.539 52.7543C155.767 51.3847 156.041 51.5673 155.927 53.0054C155.859 53.9413 155.95 54.4434 156.315 55.1739C156.795 56.1098 158.849 57.9587 159.42 57.9587C159.579 57.9587 159.876 57.7076 160.082 57.388C161.017 55.9728 163.985 57.1369 168.961 60.8805C173.709 64.4414 191.582 79.9176 194.093 82.6112L195.44 84.0721L194.549 84.8481C192.016 87.0166 189.961 88.6145 184.757 92.4493C175.763 99.0918 174.417 100.028 171.563 101.671C169.418 102.927 168.573 103.269 167.454 103.429C165.491 103.703 164.441 104.251 164.441 105.027C164.419 105.369 164.35 105.711 164.259 105.803C164.008 106.054 164.076 106.693 164.373 106.99C164.51 107.127 164.647 107.446 164.67 107.674C164.692 108.04 164.556 108.085 163.414 107.994C162.25 107.903 162.067 107.948 161.725 108.428C161.497 108.77 161.36 109.432 161.36 110.277C161.36 110.984 161.269 111.623 161.132 111.715C161.017 111.783 160.858 112.468 160.766 113.221C160.675 113.952 160.538 114.637 160.447 114.682C160.333 114.751 159.899 114.294 159.442 113.701C156.772 110.048 152.983 107.994 149.399 108.222C146.865 108.382 145.107 109.364 142.482 112.034C141.318 113.221 140.36 114.317 140.36 114.477C140.36 114.637 140.999 115.276 141.798 115.892C146.226 119.43 147.413 121.918 147.459 127.762C147.481 131.368 147.162 131.893 143.076 135.18C141.273 136.641 139.424 138.171 138.967 138.604C138.465 139.106 138.054 139.357 137.894 139.243C137.552 139.038 134.881 139.403 134.516 139.7C134.356 139.814 133.831 139.7 133.146 139.357C132.53 139.061 131.366 138.581 130.544 138.262C124.838 136.07 124.609 135.956 123.696 135.043C122.121 133.423 121.094 129.999 121.094 126.324C121.094 123.333 121.528 122.078 123.605 119.019C124.29 117.969 124.815 116.988 124.724 116.851C124.655 116.737 124.199 116.417 123.742 116.189C123.285 115.96 122.235 115.39 121.414 114.956C118.355 113.29 115.661 113.016 112.877 114.112C110.959 114.842 108.585 117.262 107.33 119.704C105.139 123.95 104.659 128.766 106.211 131.049C106.919 132.122 108.585 133.057 110.092 133.263C110.799 133.354 111.484 133.537 111.621 133.674C111.758 133.811 112.032 134.518 112.26 135.249L112.648 136.595H115.73C119.04 136.618 120.044 136.824 121.459 137.828C123.468 139.243 124.062 142.165 122.897 144.927C122.304 146.342 122.167 147.689 122.532 148.648C123.149 150.246 124.404 150.36 126.344 149.036C127.097 148.534 128.741 147.712 130.019 147.21C132.393 146.297 133.671 145.589 134.585 144.722C134.904 144.425 135.132 144.334 135.224 144.493C135.406 144.767 137.164 144.562 138.214 144.128C138.83 143.877 139.127 143.9 140.268 144.288C141.09 144.562 142.688 144.813 144.354 144.927C145.861 145.041 147.801 145.338 148.668 145.589C149.536 145.84 150.494 146 150.768 145.931C151.91 145.635 152.389 144.265 151.864 142.759C151.704 142.256 151.544 141.823 151.544 141.8C151.544 141.777 151.704 141.8 151.887 141.868C152.161 141.983 152.229 141.8 152.229 141.069C152.229 140.408 152.343 140.065 152.595 139.974C153.165 139.768 155.927 141.8 156.543 142.873C157.091 143.831 158.392 148.123 158.392 148.922C158.392 149.173 158.073 150.657 157.708 152.232C157.32 153.807 156.612 156.888 156.087 159.079C154.489 165.973 154.284 166.84 153.211 171.177C150.814 180.947 147.481 192.68 146.797 193.753C146.294 194.574 143.829 197.61 143.532 197.793C143.236 197.976 142.186 196.994 141.159 195.602C139.195 192.931 128.718 175.309 122.144 163.668L117.442 155.313L117.351 152.894C117.214 149.196 117.693 147.666 119.702 145.543C120.478 144.745 120.957 144.813 121.3 145.84C121.437 146.274 121.642 146.639 121.756 146.639C122.167 146.639 122.829 144.083 122.852 142.416C122.897 140.408 122.327 139.152 120.889 137.988C120.158 137.394 119.793 137.28 118.446 137.212C117.031 137.12 116.757 137.189 115.525 137.851C114.748 138.262 114.086 138.718 114.018 138.878C113.949 139.061 114.201 139.563 114.589 140.042C114.954 140.499 115.251 140.933 115.251 140.978C115.251 141.024 114.999 141.549 114.703 142.142C114.406 142.736 113.972 143.809 113.744 144.539C113.379 145.703 113.265 145.863 112.831 145.749C112.557 145.68 112.032 145.726 111.644 145.863C110.274 146.342 109.841 147.78 110.32 150.246C110.503 151.159 110.777 152.711 110.914 153.715C111.051 154.72 111.37 156.249 111.644 157.139C112.078 158.532 112.329 158.92 113.653 160.221C115.41 161.933 116.027 162.777 119.108 167.685C124.221 175.857 131.731 189.849 133.808 195.099C134.653 197.199 134.653 197.199 134.653 200.692C134.653 204.002 134.676 204.253 135.246 205.371C135.566 206.033 135.931 206.558 136.068 206.558C136.182 206.558 136.205 206.764 136.137 207.015C136.045 207.334 136.205 207.745 136.707 208.384C137.757 209.731 140.314 211.877 140.885 211.922C141.181 211.945 141.41 212.128 141.455 212.402C141.569 212.95 142.391 213.863 142.802 213.863C143.03 213.863 143.076 214.022 142.985 214.296C142.893 214.616 143.076 215.004 143.624 215.62C144.126 216.168 144.491 216.899 144.651 217.629C145.792 222.742 145.564 235.662 144.103 249.586C143.122 258.99 142.734 261.501 142.049 262.506C141.022 263.989 140.748 267.916 141.592 268.555C141.98 268.829 143.007 268.692 144.697 268.189C145.747 267.893 147.344 267.893 148.805 268.235C150.084 268.532 150.517 268.304 150.312 267.436C150.198 266.957 150.472 266.934 150.86 267.391C151.271 267.893 152.161 267.824 152.48 267.231C152.777 266.706 152.686 264.218 152.206 259.858C151.773 255.589 152.138 251.07 153.508 244.678C153.759 243.4 153.918 240.729 154.055 234.338C154.147 229.59 154.284 225.641 154.352 225.595C154.512 225.436 156.772 227.855 159.83 231.439C162.707 234.794 163.779 235.799 167.751 238.858C170.878 241.277 174.896 245.135 176.448 247.189C177.064 248.011 178.343 250.134 179.301 251.937C181.082 255.293 181.949 256.548 182.451 256.548C182.611 256.548 183.159 256 183.638 255.338C184.369 254.379 184.917 253.946 186.469 253.17C189.299 251.732 189.436 251.618 189.436 250.841C189.436 250.316 189.094 249.791 187.884 248.536C186.423 246.984 186.263 246.892 185.054 246.733C182.794 246.413 179.027 244.245 175.512 241.232C168.139 234.886 161.2 226.166 157.046 218.086C156.247 216.488 155.882 215.506 155.882 214.89C155.882 214.411 155.722 213.84 155.539 213.634C155.242 213.315 155.22 213.132 155.448 212.653C155.79 211.9 155.288 210.804 154.558 210.713C154.192 210.667 154.055 210.53 154.147 210.302C154.215 210.119 154.352 209.138 154.421 208.11C154.603 205.965 154.398 205.645 152.823 205.645H151.887L152.823 205.212C153.348 204.983 154.055 204.39 154.421 203.933C154.968 203.203 155.083 202.815 155.151 201.445C155.22 200.076 155.105 199.414 154.421 197.245C153.508 194.346 153.439 193.547 153.941 190.1C155.242 180.856 158.735 165.722 161.634 156.82C162.478 154.217 162.661 153.852 163.757 152.711C166.016 150.314 166.404 148.945 165.834 145.452C165.651 144.219 165.377 142.371 165.263 141.343C165.035 139.449 164.601 138.467 163.848 138.079C163.186 137.714 161.976 137.828 161.017 138.307C160.515 138.559 160.036 138.764 159.945 138.764C159.853 138.764 159.374 138.171 158.872 137.44C158.392 136.732 157.708 135.888 157.388 135.591C156.726 134.975 156.635 134.244 157.114 133.309C157.297 132.966 157.365 132.578 157.297 132.464C156.977 132.007 155.653 131.642 154.306 131.642C152.412 131.642 151.019 132.327 150.152 133.697C149.581 134.61 149.49 134.975 149.49 136.344C149.49 137.714 149.627 138.216 150.266 139.563C150.951 140.955 150.974 141.069 150.494 140.476C147.732 137.143 148.6 133.103 152.435 131.368C153.211 131.026 154.558 130.592 155.471 130.41C157.593 129.976 158.004 129.565 157.799 128.036C157.708 127.351 157.753 126.78 157.936 126.529C158.164 126.141 158.187 126.164 158.073 126.666C157.959 127.214 157.982 127.214 158.278 126.803C158.461 126.552 158.621 126.278 158.621 126.164C158.621 126.073 159.009 125.799 159.488 125.548C160.698 124.931 161.976 123.448 162.273 122.306C162.592 121.165 162.387 119.499 161.771 117.809C161.314 116.6 161.314 116.577 161.771 116.097C162.09 115.732 162.227 115.23 162.25 114.34C162.296 112.673 162.615 111.92 163.825 110.642C164.715 109.729 164.898 109.615 165.263 109.843C165.514 110.003 165.697 110.185 165.697 110.3C165.697 110.391 165.583 110.414 165.469 110.345C165.172 110.163 164.099 110.825 164.099 111.167C164.099 111.304 163.848 111.623 163.551 111.852C162.775 112.468 162.433 113.541 162.866 113.997C163.369 114.477 163.894 114.431 164.031 113.86C164.099 113.587 164.236 113.495 164.304 113.632C164.533 113.997 165.788 113.564 165.925 113.062C166.039 112.651 166.062 112.651 166.541 113.153L167.044 113.655L166.245 113.997C165.4 114.34 165.4 114.385 166.199 115.481C166.45 115.824 166.747 117.033 166.975 118.563C167.203 119.978 167.5 121.256 167.706 121.462C167.957 121.758 167.979 121.872 167.751 121.872C167.546 121.872 167.5 122.261 167.614 123.516C167.774 125.296 167.386 127.579 166.907 127.739C166.519 127.876 166.153 126.346 166.153 124.543V123.014H165.377C164.944 123.014 164.51 123.128 164.441 123.242C164.35 123.379 164.556 124.269 164.875 125.251C165.583 127.374 165.583 128.857 164.898 129.04C164.647 129.086 163.939 129.337 163.3 129.565L162.159 129.976L163.117 130.09C163.665 130.181 164.145 130.273 164.19 130.341C164.259 130.41 163.757 130.889 163.049 131.46C162.364 132.007 161.839 132.464 161.885 132.51C161.908 132.555 162.455 132.418 163.072 132.213C163.711 132.007 164.35 131.802 164.51 131.756C164.715 131.711 164.761 131.505 164.67 131.186C164.533 130.661 164.533 130.661 164.898 131.117C165.24 131.574 165.263 131.551 165.377 131.049C165.469 130.775 165.606 130.547 165.72 130.547C166.085 130.547 165.948 130.912 165.354 131.46C165.035 131.756 164.784 132.122 164.784 132.304C164.784 132.464 164.692 132.601 164.578 132.601C164.464 132.601 164.327 133.08 164.259 133.674C164.19 134.29 164.076 135.02 163.985 135.34C163.894 135.728 163.985 135.637 164.327 135.043C164.601 134.564 165.012 133.97 165.24 133.742C165.491 133.491 165.742 133.035 165.834 132.715C166.039 131.916 166.382 132.007 166.404 132.875C166.45 133.834 166.473 133.948 166.793 134.769C167.386 136.23 167.546 136.413 167.409 135.523C167.34 135.066 167.386 134.632 167.523 134.541C167.774 134.381 167.751 133.286 167.477 132.92C167.363 132.761 167.226 132.144 167.135 131.505C167.021 130.478 167.066 130.273 167.774 129.337C168.208 128.743 168.687 128.287 168.824 128.264C169.121 128.264 169.189 127.99 169.463 126.369C169.532 125.913 169.943 124.84 170.376 124.041C171.061 122.717 171.107 122.534 170.764 122.329C170.399 122.124 170.399 122.124 170.741 122.101C171.289 122.101 171.426 121.553 171.015 120.982C170.376 120.046 169.326 116.782 169.189 115.276C169.121 114.454 168.961 113.587 168.847 113.358C168.664 112.993 168.596 112.993 168.139 113.313C167.454 113.792 167.066 113.746 167.683 113.244C168.162 112.879 168.413 111.852 168.185 111.258C168.139 111.121 168.641 110.528 169.326 109.889C169.988 109.272 170.764 108.291 171.061 107.697C171.906 106.077 175.421 103.064 180.488 99.6853C190.212 93.1798 193.613 91.4678 197.562 91.0569C201.374 90.6689 202.767 90.121 204.136 88.5232C205.301 87.1536 205.255 86.9025 203.977 87.5417L203.246 87.9069L203.84 87.2677C204.821 86.1721 205.118 85.5329 205.255 84.1405L205.392 82.8166L204.502 82.2459C203.84 81.7894 203.589 81.4698 203.543 80.9448C203.452 79.9861 202.607 79.5753 199.548 78.9818C198.27 78.7307 196.992 78.4111 196.695 78.2513C195.348 77.5437 183.273 68.5273 179.963 65.7425C172.636 59.6022 169.166 56.0184 168.504 53.8728C167.957 52.2065 166.541 50.6543 165.514 50.6543C165.035 50.6543 164.715 50.4945 164.556 50.1977C164.213 49.5586 163.14 49.0564 162.113 49.0336C161.36 49.0336 161.314 49.0108 161.771 48.8282C162.866 48.3716 161.999 47.2303 160.538 47.2303C160.059 47.2303 158.826 47.3901 157.845 47.5727C156.384 47.8466 155.767 47.8694 154.695 47.664C152.937 47.3216 151.636 47.5042 150.883 48.2347C150.358 48.7368 150.038 48.8282 148.988 48.8282C147.915 48.8282 147.39 48.6684 145.838 47.8466C144.194 47.002 143.761 46.8879 142.345 46.8423C141.364 46.8194 140.154 46.614 139.355 46.3401C138.533 46.0433 137.438 45.8607 136.548 45.8607C135.224 45.8607 134.995 45.7923 134.196 45.1075C133.466 44.5368 133.283 44.2172 133.283 43.6237C133.283 42.8705 133.306 42.8705 134.037 43.0074C134.425 43.0987 134.927 43.2129 135.155 43.2585C135.703 43.4183 135.886 42.9161 135.452 42.4368C135.246 42.2085 134.607 41.8205 134.06 41.5922C133.124 41.2041 133.055 41.1357 133.192 40.4965C133.261 40.1085 133.352 39.7889 133.398 39.7433C133.42 39.7204 133.9 39.9487 134.448 40.2683C135.589 40.9074 136.023 40.9759 136.023 40.5194C136.023 40.2226 134.562 38.7846 133.58 38.0998C133.192 37.8487 133.101 37.5976 133.215 37.1411C133.329 36.5247 133.352 36.5247 133.991 36.8443C134.813 37.278 134.881 37.278 134.881 36.753C134.881 36.5019 134.585 36.0226 134.219 35.6802L133.535 35.041L134.379 34.2193C134.858 33.7856 135.931 32.2334 136.799 30.8182C138.305 28.3073 138.351 28.1703 138.237 27.0518C138.168 26.4127 137.94 25.317 137.735 24.6322C137.301 23.1485 137.438 22.4181 138.191 22.0757C138.922 21.7561 139.013 21.4594 138.716 20.2952C138.511 19.4963 138.533 19.2224 138.83 18.6974C139.127 18.1952 139.15 17.9213 138.967 17.3049C138.83 16.8712 138.716 15.9126 138.67 15.1364C138.625 13.6984 138.26 12.8995 136.867 11.0962C136.045 10.0462 135.589 8.83636 135.566 7.7179C135.566 6.16568 134.881 4.72763 133.535 3.40369C130.567 0.504761 126.002 -0.636566 121.3 0.344971ZM11.7331 18.88C11.87 20.8202 11.5048 19.8387 11.2994 17.7386C11.208 16.7115 11.2309 16.4375 11.3907 16.8256C11.5048 17.0995 11.6646 18.0354 11.7331 18.88ZM11.3907 23.3996C11.3907 23.7192 11.3222 23.7192 11.0483 23.4909C10.8657 23.3311 10.7059 23.1713 10.7059 23.1257C10.7059 23.08 10.8657 23.0344 11.0483 23.0344C11.2309 23.0344 11.3907 23.1942 11.3907 23.3996ZM11.8472 24.9746C11.6874 25.1801 11.5048 25.2713 11.4591 25.2257C11.2994 25.0659 11.6189 24.6322 11.8928 24.6322C12.0298 24.6322 12.0298 24.7692 11.8472 24.9746ZM37.9605 35.84C39.9464 36.4791 41.5215 37.0269 41.4758 37.0726C41.316 37.2324 33.304 34.7443 33.304 34.5388C33.304 34.3791 33.4637 34.4475 37.9605 35.84ZM138.054 47.5042C140.245 48.0064 139.355 48.3945 135.954 48.4401C133.626 48.4858 133.489 48.4629 133.557 48.0292C133.671 47.276 135.954 47.002 138.054 47.5042ZM128.558 48.3488C128.65 48.714 128.467 48.7825 126.915 48.9195C125.956 48.9879 124.427 49.2619 123.514 49.5129C121.551 50.0608 121.505 50.0608 121.893 49.6042C122.669 48.6684 124.838 47.9836 127.143 47.9379C128.216 47.9151 128.444 47.9836 128.558 48.3488ZM161.132 49.0564C161.132 49.1705 160.972 49.2847 160.766 49.2847C160.584 49.2847 160.036 49.6956 159.602 50.1977C159.146 50.6999 158.689 51.1108 158.598 51.1108C158.507 51.1108 158.324 50.7912 158.187 50.3803C157.959 49.7184 157.913 49.6956 157.525 50.0379C157 50.5173 156.795 50.5173 156.795 50.1064C156.795 49.7184 157.228 49.5586 159.397 49.1705C160.287 49.0108 161.04 48.851 161.086 48.851C161.109 48.8282 161.132 48.9195 161.132 49.0564ZM137.187 50.2434C137.027 50.6771 136.73 50.814 135.612 50.9967C134.858 51.1108 134.151 51.2934 134.06 51.3847C133.717 51.7499 133.512 51.5445 133.74 51.1108C133.877 50.8597 133.923 50.5401 133.854 50.426C133.694 50.1521 134.904 49.8782 136.753 49.764C137.301 49.7412 137.346 49.7869 137.187 50.2434ZM117.442 50.2434C119.245 50.563 119.337 50.951 117.944 52.2521L116.963 53.1423L116.803 52.2065C116.711 51.6586 116.369 50.9967 116.004 50.6086C115.319 49.8782 115.41 49.8553 117.442 50.2434ZM128.695 51.0195C128.992 51.7043 128.878 51.9782 128.444 51.6358C128.284 51.4988 127.463 51.2706 126.618 51.088C125.751 50.9282 125.066 50.7227 125.066 50.6086C125.066 50.5173 125.819 50.426 126.732 50.426C128.33 50.426 128.421 50.4488 128.695 51.0195ZM124.564 52.1608C127.143 52.8456 127.234 52.9141 126.915 53.2336C126.778 53.3706 126.664 53.6673 126.664 53.8956C126.664 54.4206 126.413 54.4206 125.728 53.8956C124.883 53.2336 124.404 53.0967 122.441 52.9597C120.98 52.8456 120.615 52.7543 120.546 52.4347C120.455 52.0238 121.573 51.2934 122.053 51.4532C122.19 51.4988 123.331 51.8184 124.564 52.1608ZM136.707 53.0282C136.707 53.6217 136.593 53.8271 136.205 53.9184C135.589 54.101 135.566 54.0554 135.498 53.2565C135.452 52.7543 135.566 52.5945 136.023 52.4576C136.342 52.3662 136.616 52.2978 136.662 52.2749C136.685 52.2521 136.707 52.5945 136.707 53.0282ZM136.936 56.0184C136.936 56.2467 136.707 56.3609 136.205 56.3609C135.498 56.338 135.475 56.338 135.886 56.0184C136.456 55.5847 136.936 55.5847 136.936 56.0184ZM137.164 57.3652C137.164 57.525 137.232 58.0043 137.301 58.3924C137.461 59.2141 137.21 59.3055 136.16 58.7576C135.817 58.575 135.361 58.4152 135.201 58.4152C134.927 58.4152 134.927 58.3011 135.224 57.7304C135.52 57.1598 135.726 57.0456 136.365 57.0456C136.89 57.0456 137.164 57.1598 137.164 57.3652ZM137.917 61.3142C137.963 61.4283 138.077 61.7707 138.145 62.0903L138.305 62.6837L136.867 62.2272C135.224 61.7022 135.246 61.725 135.452 61.4055C135.612 61.1316 137.78 61.0631 137.917 61.3142ZM127.805 62.0446C127.805 62.1587 127.645 62.2957 127.463 62.387C127.12 62.5011 127.006 62.2729 127.28 61.999C127.486 61.7707 127.805 61.7935 127.805 62.0446ZM139.013 66.199C139.241 66.3131 139.606 67.0208 139.857 67.774C140.291 69.0523 140.314 69.1436 139.926 69.1436C139.355 69.1436 137.095 68.4588 136.844 68.2077C136.707 68.0936 136.388 68.0023 136.114 68.0023C135.726 68.0023 135.589 67.8197 135.498 67.1577C135.338 66.1762 135.315 66.1762 136.296 65.9479C137.095 65.7425 138.397 65.8566 139.013 66.199ZM127.942 66.7012C128.011 66.7468 128.125 67.1805 128.193 67.6371C128.284 68.299 128.239 68.4588 127.965 68.4588C127.759 68.4588 127.212 68.7099 126.755 69.0295C125.363 69.9654 122.555 70.6273 122.235 70.0795C122.007 69.7371 124.153 67.2262 125.02 66.7925C125.796 66.4273 127.6 66.3588 127.942 66.7012ZM150.86 68.2534C150.86 68.3903 150.768 68.4132 150.631 68.3447C150.517 68.2762 150.403 68.0936 150.403 67.9795C150.403 67.8425 150.517 67.8197 150.631 67.8882C150.768 67.9566 150.86 68.1393 150.86 68.2534ZM150.312 70.3534L151.111 71.0838L150.586 71.8599C149.718 73.161 149.581 73.161 147.322 72.1567C145.427 71.2893 145.336 71.2208 145.838 70.9925C146.157 70.8784 146.797 70.7186 147.253 70.6273C147.71 70.5588 148.326 70.3078 148.623 70.0567C149.33 69.4632 149.376 69.486 150.312 70.3534ZM139.949 71.1067C140.793 71.3578 141.295 71.6317 141.387 71.9056C141.547 72.4078 142.049 72.5219 143.076 72.3165C143.692 72.1795 144.24 72.2936 145.655 72.8643C146.637 73.2752 147.436 73.6861 147.436 73.7774C147.436 73.8915 146.477 73.9371 145.313 73.9143C144.149 73.8687 143.053 73.9371 142.893 74.0284C142.323 74.3937 138.762 73.3665 137.575 72.5219C137.21 72.2708 136.776 72.1339 136.593 72.1795C136.388 72.2708 136.205 72.0654 136.045 71.6089C135.908 71.2208 135.794 70.8556 135.794 70.8328C135.794 70.5817 138.807 70.7871 139.949 71.1067ZM128.376 72.0882C128.284 72.4763 128.079 72.7958 127.919 72.7958C127.759 72.7958 127.097 73.1382 126.458 73.5719C125.02 74.5535 123.012 75.3067 122.03 75.2839C121.619 75.2611 120.455 75.3752 119.405 75.535C118.355 75.6948 117.465 75.7633 117.396 75.6948C117.145 75.4437 122.464 72.5676 123.149 72.5676C123.285 72.5676 123.902 72.3393 124.518 72.0654C125.431 71.6545 128.17 71.1523 128.444 71.3349C128.49 71.3806 128.467 71.7002 128.376 72.0882ZM152.686 74.0969C152.686 75.1926 152.663 75.2154 151.887 74.7132L151.339 74.348L151.841 73.4806C152.412 72.4534 152.686 72.6589 152.686 74.0969ZM112.968 75.8774C113.447 76.6763 113.447 76.722 113.082 77.1328C112.534 77.7491 112.352 77.7035 112.169 76.9274C112.055 76.3567 112.215 75.0785 112.397 75.0785C112.443 75.0785 112.694 75.4437 112.968 75.8774ZM141.684 76.3567C143.327 76.9274 143.647 77.0872 142.893 76.9959C141.798 76.8361 139.036 75.9459 138.374 75.535C137.689 75.1013 139.218 75.4893 141.684 76.3567ZM151.544 76.4024C151.544 76.4937 151.179 76.8133 150.746 77.11C149.855 77.7035 149.559 77.6807 147.641 76.8133L146.409 76.2426L147.207 76.2198C147.641 76.2198 148.531 76.0143 149.148 75.8089C150.243 75.4209 150.312 75.4209 150.928 75.8317C151.271 76.06 151.544 76.3111 151.544 76.4024ZM126.892 76.1057C126.892 76.4252 121.254 78.8905 121.048 78.6622C121.003 78.6165 121.962 78.1144 123.171 77.5437C126.732 75.9002 126.892 75.8546 126.892 76.1057ZM137.963 79.5068L139.766 81.5383L138.853 81.4014C138.374 81.3101 137.415 81.1731 136.776 81.1046C135.429 80.922 135.498 81.0818 135.475 78.4796C135.452 76.6535 135.406 76.6307 137.963 79.5068ZM116.985 78.0002L118.446 78.16L117.008 78.9361C115.502 79.7579 114.931 79.7807 114.018 79.0731C113.584 78.7307 113.584 78.7307 114.109 78.16C114.474 77.772 114.794 77.635 115.091 77.7263C115.319 77.7948 116.164 77.9318 116.985 78.0002ZM129.449 80.2144L129.289 81.3329L127.645 81.8351L126.002 82.3372L127.622 79.8948L129.266 77.4752L129.426 78.297C129.54 78.7307 129.54 79.5981 129.449 80.2144ZM142.688 78.1828C143.03 78.2513 143.418 78.4568 143.555 78.6394C144.286 79.4839 141.866 79.1872 140.77 78.2742L140.245 77.8176L141.159 77.9546C141.661 78.0002 142.345 78.1144 142.688 78.1828ZM153.142 79.1187C153.142 79.9861 153.005 80.0318 152.252 79.3926L151.704 78.9361L152.229 78.3883C152.868 77.7263 153.142 77.9546 153.142 79.1187ZM124.267 79.5296C123.331 80.2829 122.144 80.6937 121.802 80.3513C121.619 80.1687 121.619 80.0318 121.802 79.8492C122.144 79.5068 123.696 78.9818 124.381 78.9589H124.952L124.267 79.5296ZM148.121 79.3242C148.783 79.4383 151.088 80.8535 151.088 81.1503C151.088 81.1959 150.746 81.3101 150.358 81.4242C149.741 81.584 149.239 81.4698 147.71 80.8764C145.496 80.009 144.628 79.4839 144.834 79.1644C144.971 78.9133 146.546 79.0046 148.121 79.3242ZM113.653 81.2644C113.653 81.3329 113.402 81.6296 113.105 81.9035L112.557 82.4285L112.397 81.9264C112.306 81.6525 112.306 81.1959 112.374 80.8764C112.511 80.3285 112.534 80.3285 113.082 80.7166C113.379 80.9448 113.653 81.1959 113.653 81.2644ZM120.729 80.785C120.729 81.059 119.131 82.1546 117.602 82.9307C116.871 83.2959 116.027 83.5242 115.433 83.5242H114.452L115.479 82.5199C116.164 81.8579 116.963 81.3557 117.876 81.059C119.337 80.5568 120.729 80.4198 120.729 80.785ZM144.468 82.0862L145.039 82.6568L144.468 82.497C144.149 82.4057 143.647 82.0862 143.327 81.7666L142.756 81.1959L143.327 81.3557C143.647 81.447 144.149 81.7666 144.468 82.0862ZM139.173 82.4057C140.907 82.6568 141.136 82.7481 142.14 83.6384C142.734 84.1862 143.167 84.6655 143.099 84.734C143.03 84.7797 142.209 84.734 141.25 84.6199C140.223 84.5058 138.716 84.5058 137.62 84.6199C136.616 84.7112 135.749 84.7568 135.703 84.6884C135.68 84.6199 135.703 83.9579 135.749 83.2275L135.84 81.8807L136.548 82.0177C136.958 82.0862 138.123 82.2459 139.173 82.4057ZM122.532 83.022C122.372 83.2731 121.984 83.6155 121.688 83.7525C120.706 84.1862 120.843 83.7525 121.962 82.8851C122.715 82.2916 122.943 82.3601 122.532 83.022ZM129.471 83.547C129.563 84.209 129.563 84.8025 129.517 84.8938C129.471 84.9851 128.513 85.1221 127.417 85.1905C126.299 85.259 124.86 85.4644 124.221 85.6471C123.559 85.8297 123.012 85.8982 123.012 85.8297C123.012 85.7612 123.445 85.2134 123.993 84.6199C124.86 83.6384 125.134 83.5014 127.006 82.9764C128.147 82.6796 129.129 82.4057 129.197 82.4057C129.266 82.3829 129.403 82.9079 129.471 83.547ZM152.686 83.9351C152.686 85.396 152.503 85.4416 150.563 84.5514C149.604 84.1177 148.509 83.684 148.121 83.6155C147.755 83.5242 147.436 83.3873 147.436 83.2959C147.436 83.159 149.992 83.4101 150.586 83.6384C150.746 83.684 151.202 83.547 151.59 83.2959C152.48 82.7481 152.686 82.8622 152.686 83.9351ZM148.646 84.4144C151.385 85.3503 151.773 85.6242 150.152 85.5101C148.828 85.4188 146.728 84.5514 146.568 84.0264C146.454 83.6612 146.431 83.6612 148.646 84.4144ZM116.392 85.4873C118.104 85.0079 118.538 85.0307 117.373 85.5558C116.871 85.8069 115.867 86.3547 115.159 86.8112C114.452 87.2677 113.813 87.633 113.767 87.633C113.493 87.633 113.196 86.3547 113.31 85.784C113.447 85.1677 113.447 85.1677 114.269 85.5101C115.022 85.8069 115.228 85.8069 116.392 85.4873ZM119.588 85.5558C119.588 85.6699 119.2 86.0808 118.743 86.4916C117.921 87.1536 117.214 87.4275 115.479 87.7471C114.703 87.884 114.703 87.8612 115.136 87.496C115.57 87.1308 119.063 85.396 119.428 85.3732C119.519 85.3503 119.588 85.4416 119.588 85.5558ZM152.937 88.3862C152.64 88.683 152.617 88.2721 152.868 87.4047L153.028 86.834L153.097 87.496C153.142 87.8612 153.074 88.2493 152.937 88.3862ZM113.813 90.258C113.949 90.6917 113.972 91.0569 113.858 91.0569C113.607 91.0569 113.196 90.2808 113.196 89.8243C113.196 89.1852 113.561 89.4362 113.813 90.258ZM166.016 111.258C166.085 111.441 166.039 111.601 165.925 111.601C165.788 111.601 165.697 111.441 165.697 111.258C165.697 111.076 165.742 110.916 165.788 110.916C165.834 110.916 165.925 111.076 166.016 111.258ZM168.413 117.307C168.527 117.741 168.687 118.517 168.756 119.019C168.984 120.389 168.527 119.499 168.208 117.878C168.048 117.125 167.888 116.371 167.82 116.166C167.728 115.869 167.728 115.869 167.957 116.166C168.094 116.349 168.299 116.874 168.413 117.307ZM164.966 129.885C164.898 130.067 164.807 129.953 164.715 129.656C164.624 129.268 164.647 129.177 164.829 129.36C164.944 129.474 165.012 129.725 164.966 129.885ZM144.537 139.494C144.605 139.905 144.605 140.659 144.514 141.161C144.354 142.028 144.309 142.074 143.555 142.028C141.935 141.914 140.588 141.686 140.588 141.503C140.588 141.321 141.798 140.134 142.87 139.243C143.761 138.513 144.4 138.627 144.537 139.494ZM131.252 141.868C132.005 142.211 132.599 142.622 132.599 142.781C132.599 142.941 132.256 143.169 131.823 143.329C131.412 143.466 130.864 143.786 130.658 144.014C130.43 144.265 130.065 144.471 129.814 144.471C129.061 144.471 127.942 141.983 128.376 141.275C128.604 140.91 129.586 141.115 131.252 141.868ZM142.186 207.677C142.186 208.042 141.957 208.521 141.661 208.795L141.136 209.297L140.885 208.362C140.656 207.494 140.679 207.449 141.25 207.152C141.98 206.764 142.186 206.878 142.186 207.677ZM151.567 238.858C151.293 242.738 150.928 244.861 149.924 248.422C149.536 249.769 149.079 252.028 148.919 253.444L148.646 255.977L148.6 252.896C148.554 247.806 149.285 239.976 150.631 230.868C150.883 229.225 151.088 227.741 151.111 227.559C151.134 227.376 151.293 229.065 151.476 231.325C151.75 234.589 151.773 236.141 151.567 238.858Z" fill="black"/>
<path d="M0.00173552 3.86057C0.00173552 3.92905 0.184346 4.54536 0.435436 5.23015C0.755005 6.18886 0.960442 6.46277 1.28001 6.41712C1.66806 6.37147 1.66806 6.37147 1.28001 6.59973C0.891963 6.85082 0.91479 6.9193 1.57675 7.64974C1.94198 8.08345 2.46698 8.85954 2.7409 9.38455C3.22025 10.3204 3.44852 10.64 4.11048 11.3476C4.61266 11.8498 5.06919 12.8313 5.54854 14.2922C5.98224 15.5933 6.25616 15.7303 7.16921 15.1368L7.71704 14.7716L6.59855 13.3107C5.84528 12.3291 5.41158 11.5074 5.32028 10.9139C5.22897 10.3889 5.02353 9.93238 4.86375 9.8639C4.68114 9.79542 4.54418 9.61281 4.54418 9.45303C4.54418 9.27042 4.22461 8.92802 3.85939 8.6541C3.47134 8.38019 2.78655 7.48996 2.33002 6.69104C1.85067 5.89212 1.34849 5.23015 1.18871 5.23015C1.02892 5.23015 0.891963 5.16167 0.891963 5.04754C0.891963 4.95623 0.686526 4.63667 0.435436 4.3171C0.184346 3.99753 -0.0210908 3.79209 0.00173552 3.86057Z" fill="black"/>
<path d="M0.162303 13.2194C0.0253446 14.5433 0.185129 14.9542 0.755788 14.7488C1.12101 14.6118 1.28079 13.6759 0.938399 13.6759C0.824267 13.6759 0.641656 13.2879 0.527525 12.8085L0.299261 11.964L0.162303 13.2194Z" fill="black"/>
<path d="M163.871 115.184C163.871 115.412 164.031 116.394 164.213 117.375C164.624 119.521 164.647 120.822 164.282 121.392C163.894 122.032 164.213 122.557 164.967 122.557C165.857 122.557 166.291 122.032 165.971 121.324C165.56 120.411 165.195 117.284 165.355 116.005L165.492 114.796H164.693C164.054 114.796 163.871 114.887 163.871 115.184Z" fill="black"/>
<path d="M190.077 244.677C188.981 244.997 188.045 245.682 187.908 246.275C187.794 246.686 188.022 247.302 188.707 248.581C189.232 249.562 189.666 250.612 189.666 250.909C189.666 251.343 189.141 251.959 187.589 253.397C185.169 255.611 183.8 257.323 183.594 258.35C183.503 258.761 183.206 259.355 182.909 259.651C182.225 260.336 182.225 260.564 183.023 261.729C183.571 262.55 183.663 262.847 183.548 263.829C183.434 265.061 183.891 266.134 184.53 266.134C184.941 266.134 184.941 266.134 184.53 266.979C184.347 267.367 184.165 268.554 184.096 269.809C184.028 270.996 183.914 273.119 183.822 274.511C183.708 276.543 183.731 277.159 183.982 277.456C184.256 277.798 184.256 277.821 183.845 277.707C183.412 277.547 183.389 277.684 183.32 281.268C183.297 283.299 183.229 285.673 183.206 286.564C183.183 287.431 183.252 288.207 183.366 288.276C183.48 288.344 183.685 287.865 183.845 287.248C184.142 286.13 184.188 285.491 184.188 282.227C184.21 281.336 184.256 280.172 184.325 279.602C184.439 278.711 184.484 278.643 184.713 279.031C184.941 279.442 185.055 281.519 185.101 285.559C185.101 286.564 185.192 286.883 185.489 286.997C185.694 287.089 185.945 287.066 186.082 286.929C186.265 286.746 186.31 284.281 186.173 280.971C186.173 280.4 186.219 279.624 186.333 279.259L186.516 278.574L186.835 279.602C187.018 280.172 187.201 281.291 187.246 282.112C187.292 282.934 187.36 283.596 187.383 283.596C187.406 283.596 187.429 284.418 187.452 285.422C187.497 287.134 187.52 287.248 188.022 287.317C188.456 287.385 188.525 287.294 188.525 286.518C188.525 286.039 188.616 285.285 188.753 284.852C188.867 284.441 188.89 284.03 188.799 283.961C188.616 283.802 188.547 283.345 188.342 280.286C188.228 278.711 188.114 278.141 187.885 278.186C187.68 278.209 187.703 278.072 187.977 277.661C188.319 277.113 188.319 276.977 187.977 275.744C187.68 274.694 187.634 273.918 187.749 272.115C187.885 270.083 187.863 269.786 187.543 269.649C187.201 269.535 187.201 269.467 187.497 269.033C187.68 268.759 187.84 268.303 187.84 268.006C187.84 267.709 187.931 267.526 188.068 267.618C188.205 267.709 188.251 267.96 188.182 268.188C188.114 268.417 188.205 269.261 188.41 270.06C188.684 271.042 188.776 272.32 188.753 274.123C188.707 277.456 188.707 277.433 189.141 278.917C189.346 279.602 189.529 281.04 189.529 282.09C189.552 283.619 189.62 284.03 189.917 284.144C190.214 284.258 190.259 284.715 190.237 286.974C190.237 288.458 190.305 289.736 190.419 289.805C190.807 290.033 191.013 289.508 191.15 287.819C191.241 286.883 191.401 285.742 191.515 285.308C191.789 284.212 191.789 284.167 191.218 284.167C190.739 284.167 190.739 284.144 191.081 283.802C191.401 283.459 191.401 283.345 191.127 282.637C190.853 282.021 190.83 281.291 190.944 279.35C191.081 277.045 191.058 276.862 190.693 276.862C190.328 276.862 190.305 276.817 190.625 276.452C191.218 275.812 191.287 275.15 190.944 274.1C190.762 273.553 190.533 272.662 190.442 272.137C190.282 271.065 190.556 268.782 190.784 269.33C190.853 269.535 191.241 270.151 191.629 270.699C192.588 272.092 192.679 272.525 192.839 276.794C192.907 278.825 193.044 280.537 193.136 280.629C193.501 280.994 195.829 279.145 195.829 278.46C195.829 278.255 195.555 277.319 195.236 276.383C194.505 274.237 194.323 271.749 194.688 268.805C194.962 266.727 194.939 266.499 194.596 266.248C194.254 265.997 194.254 265.951 194.574 265.814C194.779 265.746 195.144 265.244 195.373 264.719C195.92 263.486 195.966 261.569 195.464 258.099C194.984 254.652 195.121 251.228 195.829 249.357C196.674 247.142 196.674 246.412 195.898 245.613C195.532 245.248 194.825 244.837 194.323 244.7C193.295 244.426 190.99 244.403 190.077 244.677ZM188.525 260.222C188.525 260.313 188.388 260.427 188.228 260.496C188 260.587 187.931 260.45 188.022 260.039C188.091 259.628 188.182 259.56 188.319 259.788C188.433 259.948 188.525 260.154 188.525 260.222ZM187.657 263.623C188.022 263.623 187.429 264.239 186.927 264.376C186.516 264.491 186.516 264.445 186.881 263.669C187.132 263.144 187.292 263.007 187.338 263.258C187.383 263.463 187.52 263.623 187.657 263.623ZM189.986 263.737C190.054 263.92 190.054 264.399 189.986 264.764C189.803 265.655 190.054 266.659 190.442 266.522C190.647 266.431 190.716 266.568 190.647 266.91C190.556 267.298 190.374 267.412 189.757 267.435C189.004 267.458 188.981 267.435 189.301 267.07C189.734 266.613 189.826 263.851 189.415 263.851C189.301 263.851 189.255 263.737 189.324 263.623C189.529 263.281 189.826 263.349 189.986 263.737ZM185.74 266.02C185.671 266.636 185.443 266.773 185.26 266.271C185.192 266.111 185.26 265.837 185.397 265.7C185.763 265.335 185.785 265.381 185.74 266.02ZM191.606 265.906C191.538 266.02 191.355 266.134 191.241 266.134C191.104 266.134 191.081 266.02 191.15 265.906C191.218 265.769 191.401 265.677 191.515 265.677C191.652 265.677 191.675 265.769 191.606 265.906ZM186.037 269.786C186.059 269.9 186.082 270.083 186.105 270.174C186.539 271.909 186.744 274.078 186.607 275.63C186.493 277.159 186.539 277.547 186.835 277.798C187.155 278.049 187.155 278.095 186.813 278.3C186.31 278.574 185.74 278.072 185.968 277.57C186.059 277.365 186.105 275.744 186.059 273.963C185.991 270.836 185.968 270.722 185.534 270.928C185.078 271.179 184.895 270.859 185.329 270.585C185.466 270.517 185.557 270.243 185.557 269.992C185.557 269.558 185.991 269.353 186.037 269.786ZM185.283 275.379C185.238 277.524 185.146 278.004 184.872 278.004C184.576 278.004 184.553 277.638 184.667 275.447C184.85 272.503 184.804 272.754 185.123 272.754C185.283 272.754 185.352 273.575 185.283 275.379Z" fill="black"/>
<path d="M145.384 268.576C144.037 268.804 141.937 269.626 141.732 270.014C141.618 270.242 141.572 270.745 141.641 271.11C141.709 271.475 141.549 272.845 141.298 274.146C140.842 276.36 140.842 276.611 141.161 277.707C141.641 279.282 142.965 280.514 144.22 280.514C144.722 280.514 145.224 280.651 145.384 280.857C145.521 281.039 146.092 281.427 146.64 281.747C148.009 282.569 148.694 283.459 149.265 285.216C149.813 286.837 149.835 286.837 151.547 286.403C151.73 286.358 151.547 286.449 151.159 286.632C150.748 286.814 150.406 287.043 150.406 287.157C150.406 287.248 150.817 287.659 151.296 288.07C151.798 288.458 152.232 289.006 152.278 289.28C152.369 289.873 152.894 289.987 153.488 289.554C153.853 289.28 153.898 289.143 153.693 288.8C153.556 288.572 153.351 287.933 153.259 287.385C153.168 286.86 152.963 286.358 152.78 286.289C152.575 286.221 152.506 285.993 152.575 285.742C152.689 285.422 152.301 284.874 151.114 283.619C149.402 281.815 149.196 281.382 149.31 279.829L149.379 278.848L150.543 279.921C151.205 280.491 151.798 281.245 151.89 281.587C152.095 282.477 152.415 282.797 153.077 282.797C153.51 282.797 153.602 282.888 153.488 283.231C153.396 283.55 153.556 283.801 154.104 284.189C155.359 285.034 156.341 286.061 156.341 286.495C156.341 286.769 156.501 286.906 156.843 286.906C157.231 286.906 157.277 286.974 157.071 287.18C156.683 287.568 156.729 287.75 157.322 287.91C157.596 287.978 158.076 288.275 158.395 288.549C159.08 289.165 159.879 289.645 160.221 289.645C160.724 289.645 160.381 289.097 159.08 287.887C158.053 286.906 157.733 286.495 157.847 286.152C157.939 285.833 157.756 285.536 157.185 285.057C156.729 284.691 156.09 283.824 155.747 283.139C155.428 282.455 155.063 281.884 154.948 281.884C154.834 281.884 154.743 281.747 154.743 281.564C154.743 281.382 154.241 280.879 153.602 280.423C152.894 279.898 152.209 279.145 151.753 278.346C151.365 277.661 150.954 277.022 150.84 276.953C150.726 276.885 150.634 276.725 150.634 276.611C150.634 276.497 150.885 276.565 151.205 276.771C151.502 276.953 151.867 277.067 152.027 276.976C152.186 276.862 152.232 276.953 152.141 277.25C152.027 277.592 152.301 277.958 153.328 278.871C154.081 279.51 154.812 280.332 154.971 280.72C155.131 281.108 155.451 281.473 155.679 281.541C155.93 281.633 156.067 281.77 155.998 281.884C155.93 281.998 156.341 282.523 156.912 283.048C157.459 283.573 157.984 284.212 158.076 284.463C158.258 285.034 158.624 285.422 159.674 286.13C160.632 286.792 160.838 286.814 160.952 286.289C160.997 286.038 160.678 285.536 160.176 285.034C159.696 284.577 159.308 284.098 159.308 283.984C159.308 283.87 159.171 283.71 158.989 283.641C158.806 283.573 158.372 283.025 158.03 282.409C157.688 281.815 156.775 280.697 155.998 279.944C154.652 278.643 153.145 276.679 153.145 276.223C153.145 276.109 153.488 276.086 153.876 276.132C154.606 276.246 154.606 276.246 154.104 276.474C153.579 276.702 153.625 276.771 155.314 278.391C156.295 279.304 157.185 280.058 157.3 280.058C157.437 280.058 157.482 280.218 157.391 280.4C157.322 280.628 157.619 280.971 158.281 281.427C158.852 281.815 159.308 282.226 159.308 282.34C159.308 282.683 161.637 284.851 161.979 284.851C162.139 284.851 162.344 284.691 162.413 284.509C162.55 284.144 162.207 283.687 160.45 281.998C159.285 280.879 158.441 279.601 158.852 279.601C159.012 279.601 159.605 280.081 160.199 280.651C160.769 281.222 161.522 281.838 161.865 282.021C162.207 282.203 162.527 282.523 162.595 282.728C162.709 283.116 164.49 283.847 164.718 283.641C164.901 283.459 163.257 281.884 162.869 281.884C162.664 281.884 162.39 281.633 162.23 281.313C162.093 281.016 161.911 280.811 161.819 280.857C161.705 280.925 161.568 280.811 161.5 280.628C161.431 280.423 161.112 280.172 160.815 280.058C160.495 279.944 159.993 279.487 159.719 279.053C159.194 278.232 158.852 278.026 158.852 278.506C158.852 278.665 158.738 278.62 158.578 278.414C158.007 277.684 153.305 273.895 152.826 273.758C152.415 273.666 152.346 273.507 152.415 272.845C152.483 272.205 152.392 271.977 151.798 271.452C151.296 270.996 151.091 270.63 151.091 270.128C151.091 268.964 150.018 268.393 149.516 269.261C149.31 269.626 149.288 269.626 149.265 269.284C149.265 268.599 147.324 268.257 145.384 268.576ZM149.036 270.083C149.036 270.128 148.808 270.357 148.534 270.608L148.009 271.041L148.443 270.516C148.854 270.037 149.036 269.9 149.036 270.083ZM146.731 272.845C146.914 273.073 146.914 273.21 146.663 273.415C146.411 273.621 146.32 273.552 146.252 273.096C146.115 272.457 146.32 272.365 146.731 272.845ZM149.79 273.895C150.246 273.895 150.246 273.895 149.813 274.237C149.196 274.694 148.877 274.648 148.74 274.1C148.648 273.758 148.694 273.666 148.968 273.758C149.151 273.826 149.516 273.895 149.79 273.895ZM151.89 274.146C152.141 274.534 151.935 274.557 151.456 274.214C151.068 273.94 151.068 273.895 151.365 273.895C151.57 273.895 151.821 274.009 151.89 274.146ZM148.42 276.816C148.854 277.227 149.128 277.319 149.539 277.204L150.064 277.045L149.516 277.615C149.082 278.095 148.899 278.163 148.58 277.958C148.352 277.798 148.238 277.547 148.306 277.364C148.374 277.159 148.169 276.816 147.781 276.52C147.37 276.177 147.21 275.903 147.324 275.698C147.461 275.492 147.553 275.515 147.69 275.858C147.781 276.086 148.101 276.542 148.42 276.816ZM157.117 278.163C157.802 278.779 158.372 279.327 158.372 279.419C158.418 279.898 157.642 279.464 156.432 278.346C154.72 276.771 155.337 276.611 157.117 278.163Z" fill="black"/>
<path d="M195.145 279.945C194.985 280.127 194.597 280.424 194.278 280.584C193.273 281.063 193.205 281.428 193.89 283.049C194.232 283.848 194.574 284.852 194.62 285.24C194.757 286.176 195.419 286.245 195.967 285.423C196.286 284.944 196.309 284.738 196.081 284.236C195.921 283.894 195.807 282.912 195.83 282.022C195.875 279.785 195.853 279.602 195.624 279.602C195.51 279.602 195.305 279.762 195.145 279.945Z" fill="black"/>
<path d="M162.388 284.874C162.296 285.011 162.273 285.125 162.296 285.148C162.342 285.171 162.616 285.308 162.867 285.468C163.506 285.833 163.757 285.582 163.255 285.034C162.844 284.555 162.593 284.509 162.388 284.874Z" fill="black"/>
<path d="M195.966 285.743C195.737 285.995 195.326 286.223 195.053 286.268C194.687 286.314 194.55 286.52 194.505 287.09C194.459 287.57 194.55 287.866 194.756 287.958C195.03 288.049 195.075 288.368 194.984 289.441C194.87 290.697 194.893 290.788 195.326 290.788C196.057 290.788 196.513 289.921 196.513 288.574C196.513 287.638 196.605 287.364 196.856 287.364C197.13 287.364 197.175 287.204 197.061 286.725C196.696 285.104 196.605 285.013 195.966 285.743Z" fill="black"/>
<path d="M161.042 286.586C160.951 286.792 160.928 286.974 160.951 286.997C160.996 287.02 161.247 287.157 161.521 287.294C162.138 287.659 162.275 287.659 162.275 287.362C162.275 287.089 161.544 286.221 161.339 286.221C161.247 286.221 161.11 286.381 161.042 286.586Z" fill="black"/>
<path d="M185.193 287.729C185.262 287.935 185.33 288.345 185.33 288.665C185.33 289.327 185.832 289.281 185.901 288.597C185.946 288.368 186.038 287.98 186.129 287.752C186.266 287.432 186.175 287.364 185.673 287.364C185.193 287.364 185.079 287.455 185.193 287.729Z" fill="black"/>
<path d="M187.43 288.618C187.453 289.326 187.544 289.646 187.772 289.646C187.932 289.646 188.069 289.417 188.069 289.121C188.069 288.847 188.16 288.459 188.297 288.276C188.434 288.07 188.411 287.888 188.229 287.774C187.635 287.386 187.43 287.614 187.43 288.618Z" fill="black"/>
<path d="M153.853 289.669C153.556 289.897 153.122 290.102 152.894 290.102C152.392 290.102 152.369 290.125 152.734 290.901C152.894 291.289 153.122 291.449 153.373 291.358C153.579 291.289 153.944 291.426 154.172 291.7C154.675 292.248 155.177 292.271 155.793 291.814C156.204 291.472 156.204 291.449 155.565 290.924C155.2 290.627 154.971 290.285 155.04 290.148C155.131 290.034 155.017 289.783 154.789 289.577C154.446 289.258 154.355 289.258 153.853 289.669Z" fill="black"/>
</g>
</svg>
