<svg width="568" height="815" viewBox="0 0 568 815" fill="none" xmlns="http://www.w3.org/2000/svg">
<path d="M555.093 0.813803C551.873 2.22488 550.634 4.27735 550.964 7.67676L551.212 10.8196L482.672 70.8545C426.188 120.306 413.801 130.825 412.48 130.504C411.572 130.312 407.195 129.671 402.653 129.093C392.496 127.746 382.174 128.452 371.438 131.274L364.254 133.134L287.208 79.9623L210.162 26.7904L209.915 24.1607C209.667 20.6971 208.263 18.7088 205.455 17.5543C199.097 14.9887 192.408 18.1957 192.408 23.7759C192.408 25.1869 193.234 26.4056 195.298 28.0091C197.941 30.0616 198.519 30.254 202.317 29.9974L206.529 29.805L282.832 82.3996C324.782 111.327 359.134 135.123 359.134 135.315C359.217 135.507 357.73 136.277 355.996 137.047C351.207 139.163 343.114 145.257 338.985 149.682C331.14 158.277 327.259 166.743 326.433 177.134L325.938 183.42H322.965C321.313 183.42 295.053 184.574 264.664 185.985C234.193 187.396 171.433 190.283 125.107 192.399C13.4603 197.466 16.1854 197.338 12.6345 198.493C6.27597 200.545 0 207.28 0 212.09C0 213.181 2.22962 229.087 4.95471 247.367C7.67981 265.647 10.6526 285.466 11.561 291.495C12.4694 297.46 16.1854 322.475 19.8189 346.976C31.8753 427.6 32.9488 434.72 39.5551 479.746C43.2712 504.247 46.5743 525.99 46.9872 528.043C48.391 534.457 53.5935 539.203 61.1907 540.935C64.8242 541.769 68.3751 541.833 88.4416 541.192C101.159 540.807 111.646 540.614 111.894 540.807C112.142 540.935 109.169 558.958 105.288 580.83C101.489 602.638 91.6622 658.888 83.4044 705.838C75.2291 752.725 67.5493 796.276 66.3932 802.625C65.2371 808.911 64.4113 814.171 64.5764 814.235C64.7416 814.363 69.7789 794.672 75.8897 770.427C94.4699 695.961 122.877 582.498 128.245 560.883L133.447 540.358L137.493 539.909C139.723 539.652 141.705 539.524 141.787 539.652C141.953 539.781 133.86 586.538 123.868 643.687C113.793 700.771 105.453 748.94 105.288 750.736C104.792 755.354 108.591 740.538 135.016 634.643C148.063 582.433 158.881 539.588 159.046 539.46C159.377 539.203 170.607 538.818 300.008 535.162C346.252 533.88 384.238 532.982 384.486 533.174C384.981 533.495 438.41 746.631 438.575 748.812C438.657 749.71 438.823 749.774 439.07 749.069C439.318 748.235 402.818 537.536 401.745 533.751C401.332 532.404 401.58 532.34 405.709 532.34H410.168L411.489 537.664C415.618 553.891 474.496 789.413 476.313 796.853C477.469 801.727 478.625 805.448 478.708 805.127C478.873 804.806 476.396 789.541 473.175 771.197C466.239 731.366 446.915 621.046 437.749 569.221C434.198 548.76 431.39 531.891 431.556 531.699C431.803 531.571 440.392 531.186 450.714 530.929C462.935 530.544 470.698 530.095 472.927 529.454C477.965 528.171 481.681 525.734 484.158 522.142C486.305 519.128 486.718 516.69 493.407 470.381C512.317 338.831 528.751 224.341 531.063 208.755C532.467 199.006 533.375 190.09 533.127 188.294C532.301 182.329 526.604 177.134 518.924 175.338C515.621 174.569 511.657 174.633 487.709 175.723C472.68 176.429 460.128 177.006 459.797 177.006C459.385 177.006 459.137 176.236 459.137 175.21C459.137 172.195 455.999 163.087 453.356 158.662C447.989 149.426 436.097 139.484 425.28 135.058C420.16 132.942 419.499 132.493 420.49 131.595C421.068 131.018 443.529 111.327 470.285 87.8515C497.123 64.3763 527.182 38.079 537.174 29.2919L555.258 13.4493H558.809C563.103 13.4493 565.994 12.1665 567.315 9.60096C570.453 3.70009 562.195 -2.20077 555.093 0.813803Z" fill="black"/>
<path d="M439.401 751.442C439.401 752.148 439.649 752.34 439.896 751.827C440.144 751.378 440.062 750.801 439.814 750.609C439.566 750.352 439.318 750.737 439.401 751.442Z" fill="black"/>
<path d="M104.215 755.547C104.215 756.445 104.38 756.766 104.628 756.317C104.793 755.932 104.793 755.163 104.628 754.714C104.38 754.329 104.215 754.649 104.215 755.547Z" fill="black"/>
<path d="M479.12 807.5C479.12 808.397 479.285 808.718 479.533 808.269C479.698 807.884 479.698 807.115 479.533 806.666C479.285 806.281 479.12 806.602 479.12 807.5Z" fill="black"/>
</svg>
