<svg width="395" height="728" viewBox="0 0 395 728" fill="none" xmlns="http://www.w3.org/2000/svg">
<path d="M385.287 0.727618C383.052 1.9886 382.192 3.82276 382.421 6.86058L382.593 9.66913L335.02 63.3182C295.815 107.51 287.217 116.91 286.3 116.623C285.67 116.451 282.632 115.878 279.479 115.362C272.429 114.159 265.265 114.789 257.813 117.311L252.827 118.973L199.35 71.4572L145.873 23.9411L145.701 21.5911C145.529 18.496 144.554 16.7192 142.606 15.6874C138.192 13.3948 133.549 16.2606 133.549 21.2472C133.549 22.5082 134.123 23.5972 135.556 25.0302C137.39 26.8643 137.791 27.0363 140.428 26.807L143.351 26.6351L196.312 73.6353C225.429 99.4854 249.273 120.75 249.273 120.922C249.331 121.094 248.299 121.782 247.095 122.47C243.771 124.361 238.154 129.806 235.288 133.761C229.843 141.442 227.149 149.008 226.576 158.293L226.232 163.91H224.168C223.022 163.91 204.795 164.942 183.702 166.203C162.552 167.464 118.991 170.043 86.8358 171.935C9.34273 176.463 11.2342 176.348 8.76956 177.38C4.35612 179.214 0 185.232 0 189.531C0 190.505 1.54757 204.72 3.43904 221.056C5.33051 237.391 7.39394 255.102 8.02443 260.49C8.65492 265.82 11.2342 288.174 13.7562 310.069C22.1245 382.117 22.8696 388.48 27.455 428.716C30.0343 450.612 32.327 470.042 32.6136 471.876C33.588 477.608 37.199 481.85 42.4722 483.397C44.9941 484.142 47.4588 484.2 61.3869 483.626C70.2138 483.282 77.4931 483.111 77.665 483.282C77.837 483.397 75.7736 499.503 73.0796 519.049C70.443 538.536 63.6223 588.804 57.8905 630.76C52.2161 672.659 46.8856 711.578 46.0832 717.252C45.2807 722.869 44.7075 727.569 44.8222 727.626C44.9368 727.741 48.4332 710.145 52.6747 688.479C65.5711 621.933 85.2882 520.539 89.0139 501.223L92.6249 482.881L95.4334 482.48C96.981 482.251 98.3566 482.136 98.4139 482.251C98.5285 482.365 92.9114 524.15 85.976 575.22C78.9833 626.232 73.1943 669.277 73.0796 670.882C72.7357 675.009 75.3723 661.769 93.7139 567.138C102.77 520.481 110.279 482.193 110.393 482.079C110.623 481.85 118.418 481.506 208.234 478.239C240.332 477.092 266.698 476.29 266.87 476.462C267.214 476.748 304.298 667.214 304.413 669.163C304.47 669.965 304.584 670.022 304.756 669.392C304.928 668.647 279.594 480.359 278.849 476.978C278.562 475.774 278.734 475.717 281.6 475.717H284.695L285.612 480.474C288.478 494.975 329.346 705.445 330.607 712.093C331.409 716.45 332.211 719.774 332.269 719.487C332.383 719.201 330.664 705.559 328.428 689.166C323.614 653.572 310.202 554.987 303.839 508.674C301.375 490.39 299.426 475.315 299.541 475.143C299.712 475.029 305.673 474.685 312.838 474.456C321.321 474.112 326.709 473.71 328.257 473.137C331.753 471.991 334.332 469.813 336.052 466.603C337.542 463.909 337.829 461.731 342.471 420.348C355.597 302.79 367.003 200.479 368.608 186.551C369.582 177.838 370.213 169.871 370.041 168.266C369.468 162.936 365.513 158.293 360.182 156.688C357.89 156 355.138 156.058 338.516 157.032C328.085 157.663 319.372 158.178 319.143 158.178C318.856 158.178 318.685 157.491 318.685 156.574C318.685 153.88 316.506 145.741 314.672 141.786C310.947 133.532 302.693 124.648 295.184 120.693C291.631 118.801 291.172 118.4 291.86 117.598C292.261 117.082 307.852 99.4854 326.422 78.5073C345.051 57.5291 365.914 34.029 372.849 26.1765L385.402 12.0191H387.867C390.847 12.0191 392.853 10.8728 393.77 8.5801C395.948 3.3069 390.217 -1.9663 385.287 0.727618Z" fill="black"/>
<path d="M304.986 671.513C304.986 672.144 305.158 672.316 305.33 671.857C305.502 671.456 305.444 670.94 305.272 670.768C305.1 670.539 304.929 670.883 304.986 671.513Z" fill="black"/>
<path d="M72.335 675.181C72.335 675.983 72.4496 676.27 72.6215 675.869C72.7362 675.525 72.7362 674.837 72.6215 674.436C72.4496 674.092 72.335 674.379 72.335 675.181Z" fill="black"/>
<path d="M332.555 721.608C332.555 722.41 332.669 722.697 332.841 722.296C332.956 721.952 332.956 721.264 332.841 720.863C332.669 720.519 332.555 720.805 332.555 721.608Z" fill="black"/>
</svg>
