<svg width="182" height="370" viewBox="0 0 182 370" fill="none" xmlns="http://www.w3.org/2000/svg">
<path d="M118.533 1.46646C118 2.26645 118 12.9331 118.533 25.1998C119.067 37.3331 119.067 48.3998 118.667 49.5998C117.333 53.1998 108.667 52.9331 108.667 49.4665C108.667 47.9998 108.133 46.6664 107.6 46.3998C106.933 46.1331 106 43.7331 105.6 40.9331C104.933 36.7998 105.2 35.8665 106.667 36.5331C109.333 37.4665 109.2 36.2664 106.533 33.7331C104.4 31.5998 98 30.3998 98 32.1331C98 32.6664 98.9333 33.7331 100 34.6664C102.267 36.5331 102.8 45.3331 100.667 45.3331C100 45.3331 99.3333 46.6664 99.3333 48.2664C99.3333 51.9998 98 53.8665 94.9333 55.0665C93.7333 55.5998 92.2667 57.8665 91.7333 60.1331L90.9333 64.3998L81.7333 63.5998C73.4667 62.9331 72.2667 63.0665 68.9333 65.9998L65.3333 69.0665L64.9333 95.1998C64.5333 120.8 64.4 121.333 61.6 121.866C43.6 125.6 13.3333 134 7.46667 136.933C0 140.666 0 140.666 0 146.666C0 152.4 0.266667 152.8 5.6 155.333L11.2 158L11.3333 167.333C11.3333 178.133 13.0667 182.266 18.8 185.6C23.6 188.4 41.3333 194 73.0667 202.666C86.2667 206.266 97.2 209.333 97.4667 209.733C99.0667 211.2 100.267 322.133 98.8 323.733C98.2667 324.133 98 334.266 98 346.133V368L101.467 368.8C103.467 369.333 106.667 369.2 108.533 368.533L112 367.2V332.666C112 313.6 111.733 277.733 111.333 252.8L110.667 207.733L123.333 203.333C144.533 196 159.2 190.133 162 187.6C164.4 185.6 164.667 183.733 164.667 172.266V159.2L173.067 155.866L181.333 152.666L181.733 124.666C182 108 181.6 94.7998 180.8 91.8665C178 82.5331 176.267 81.7331 138.533 74.6664C94.6667 66.2664 97.7333 67.1998 98.2667 63.5998C98.5333 61.3331 99.4667 60.7998 101.867 61.0665C103.6 61.1998 106 60.5331 107.2 59.4665C108.4 58.5331 111.867 57.5998 115.067 57.5998C118.267 57.7331 121.6 56.9331 122.4 56.1331C124.267 54.2664 125.333 24.1331 124 9.86646C123.333 2.93311 122.533 -0.000213623 121.333 -0.000213623C120.267 -0.000213623 119.067 0.666443 118.533 1.46646Z" fill="black"/>
</svg>
