<svg width="449" height="290" viewBox="0 0 449 290" fill="none" xmlns="http://www.w3.org/2000/svg">
<path d="M9.05969 0.720856C8.65969 1.38751 8.65969 3.78751 9.19302 5.92084C9.85969 8.98752 9.59302 9.92084 7.99302 9.92084C4.92635 9.92084 3.99302 12.4542 6.25969 14.9875C9.32635 18.4542 9.72635 34.3208 6.79302 37.5209C3.59302 41.1208 3.85969 48.0542 7.19302 49.9209C10.6597 51.7875 10.793 56.5875 7.32635 56.5875C5.99302 56.5875 4.25969 57.3875 3.59302 58.1875C2.12635 60.1875 2.12635 72.0542 3.72635 73.5209C4.25969 74.0542 4.52635 88.5875 4.52635 105.921C4.39302 123.121 4.79302 138.321 5.19302 139.654C6.25969 142.188 5.99302 144.721 1.72635 188.454C-1.07365 217.121 -0.540313 230.721 3.85969 237.521C5.32635 239.654 5.85969 244.588 5.85969 255.121C5.85969 267.654 5.45969 269.921 3.45969 271.121C-0.273646 273.388 4.12635 275.521 10.5264 274.588C16.9264 273.654 17.8597 272.854 14.793 271.121C13.3264 270.188 12.5264 268.188 12.5264 265.254C12.5264 260.854 12.793 260.588 16.9264 260.588C19.193 260.588 22.1264 259.921 23.193 259.254C24.9264 258.054 24.9264 257.654 22.9264 256.454C21.3264 255.521 20.5264 253.521 20.5264 249.921C20.5264 245.521 21.4597 243.788 27.4597 237.654L34.2597 230.588L33.593 239.654C33.193 244.588 33.3264 248.588 33.993 248.588C34.6597 248.588 35.193 251.254 35.193 254.321C35.193 258.454 34.393 260.854 32.5264 262.588C28.6597 266.054 30.393 267.254 39.0597 267.254C47.993 267.254 52.1264 264.588 47.3264 261.921C44.393 260.454 43.8597 256.321 45.3264 246.854C45.993 242.854 46.6597 242.054 48.6597 242.588C49.8597 242.988 51.3264 242.721 51.8597 241.921C52.2597 241.121 57.993 240.588 65.0597 240.588C75.8597 240.588 77.993 240.988 81.3264 243.521C86.6597 247.521 87.193 248.588 87.193 253.921C87.193 256.988 85.4597 261.121 82.5264 265.921C77.3264 273.921 76.793 277.388 79.8597 283.388C81.8597 286.988 82.393 287.254 86.9264 286.588C95.3264 285.121 95.193 285.388 95.193 275.121C95.193 267.388 95.8597 264.454 98.793 259.121C100.66 255.521 102.793 252.588 103.593 252.588C104.26 252.588 108.26 248.988 112.526 244.721L120.26 236.721L209.326 233.921C275.593 231.921 298.526 231.521 299.193 232.721C299.726 233.521 302.126 234.588 304.526 235.121C308.26 235.788 309.193 236.854 311.46 242.988C313.46 248.321 315.46 250.854 319.993 254.054C327.593 259.254 332.926 267.254 332.66 272.988C331.993 289.521 332.66 290.454 343.593 289.121L351.193 288.188V282.588C351.193 278.188 349.993 275.254 346.26 269.788C343.593 265.921 341.46 261.121 341.46 259.254C341.46 257.388 343.593 251.254 346.126 245.921C348.793 240.454 351.326 234.588 351.86 232.854C352.26 231.254 353.86 229.254 355.46 228.454C357.326 227.521 357.86 226.188 357.326 224.321C356.926 222.321 358.126 219.788 361.193 216.188C363.726 213.254 366.793 208.054 367.993 204.721C373.193 190.854 376.793 183.254 384.393 169.921C391.06 158.454 398.393 142.054 403.593 126.854C404.26 125.254 405.86 124.588 409.993 124.588C416.26 124.588 441.06 119.788 444.793 117.788C447.86 116.054 449.193 110.588 447.46 106.588C446.66 104.854 443.593 102.188 440.793 100.721C421.46 90.8542 319.326 85.2542 198.526 87.3875C134.66 88.4542 108.926 89.7875 66.9264 93.9209C52.393 95.3875 40.2597 96.5875 39.8597 96.5875C38.9264 96.5875 39.0597 79.9209 39.993 71.5209C40.793 64.9875 41.0597 64.5875 44.393 64.8542C46.793 65.1208 47.8597 64.5875 47.8597 63.2542C47.8597 62.1875 48.6597 60.4542 49.593 59.5209C51.7264 57.1208 51.593 54.5875 49.193 52.0542C48.1264 50.9875 47.193 49.3875 47.193 48.5875C47.193 45.3875 43.8597 48.1875 43.4597 51.6542C42.6597 57.9209 40.5264 54.0542 40.5264 46.7209C40.5264 38.3208 43.593 33.5208 50.5264 31.2542C56.6597 29.2542 63.993 32.7209 67.593 39.2542C71.0597 45.7875 73.3264 47.7875 75.8597 46.7209C77.593 46.1875 77.8597 44.9875 77.193 42.8542C76.793 41.2542 76.2597 39.1208 76.2597 38.1875C75.993 35.9209 69.4597 28.7209 64.6597 25.6542C60.793 22.9875 49.8597 22.4542 45.7264 24.7209C43.193 26.0542 43.0597 25.7875 43.993 20.9875C44.5264 18.1875 45.3264 14.9875 45.993 13.7875C46.793 12.1875 46.1264 10.5875 43.993 8.18753C40.6597 4.58752 36.5264 4.58752 32.393 8.18753C30.793 9.52084 27.593 9.92084 22.393 9.65417L14.5264 9.25418L14.793 5.12085C15.0597 1.92084 14.5264 0.720856 12.5264 0.187531C11.0597 -0.212494 9.45969 0.0541992 9.05969 0.720856ZM25.8597 19.9208C25.8597 22.9875 26.2597 23.2542 32.6597 23.2542C39.193 23.2542 39.3264 23.3875 38.9264 26.8542C38.393 32.0542 26.6597 40.7209 21.193 40.3208C19.0597 40.0542 17.193 39.2542 17.193 38.3208C17.193 37.5209 16.793 36.3208 16.2597 35.7875C15.593 35.2542 15.193 30.7209 15.193 25.6542V16.5875H20.5264C25.3264 16.5875 25.8597 16.8542 25.8597 19.9208ZM36.5264 46.4542V52.3208H27.193C22.1264 52.4542 17.8597 51.9209 17.8597 51.3875C17.8597 50.5875 34.393 40.8542 36.2597 40.5875C36.393 40.5875 36.5264 43.2542 36.5264 46.4542ZM35.7264 71.5209C35.4597 75.3875 34.9264 83.2542 34.393 88.8542C33.7264 98.8542 33.593 99.1208 29.4597 100.454C27.193 101.254 23.993 103.254 22.2597 104.854L19.193 107.654V90.0542C19.193 67.3875 20.393 64.5875 30.793 64.5875H36.393L35.7264 71.5209ZM15.193 97.2542C15.0597 122.321 14.6597 127.254 13.0597 127.254C11.4597 127.254 11.193 122.321 11.193 97.2542C11.193 71.2542 11.4597 67.2542 13.193 67.2542C15.0597 67.2542 15.3264 71.1208 15.193 97.2542ZM30.2597 119.788C33.3264 120.454 33.8597 121.254 33.8597 125.254V129.921H27.3264C19.993 129.921 19.193 128.988 19.193 120.454V115.121L22.9264 116.988C24.9264 118.054 28.1264 119.254 30.2597 119.788ZM32.5264 177.921C32.5264 226.188 32.6597 225.521 24.1264 235.788L20.9264 239.654L20.1264 206.454C19.593 188.188 19.193 164.454 19.193 153.521V133.921H25.8597H32.5264V177.921ZM14.1264 188.854C14.393 216.988 14.393 240.321 14.1264 240.988C13.8597 241.521 13.0597 241.654 12.393 241.254C10.793 240.188 10.793 137.921 12.393 137.921C13.193 137.921 13.8597 159.254 14.1264 188.854ZM48.5264 177.921C53.3264 215.654 55.4597 222.454 64.1264 227.121L69.193 229.921L59.193 229.654C53.7264 229.521 48.393 229.788 47.4597 230.454C46.5264 230.988 45.3264 231.121 44.793 230.588C44.2597 230.054 43.593 210.454 43.4597 186.854C43.193 163.254 43.3264 144.188 43.593 144.588C43.993 144.988 46.1264 159.921 48.5264 177.921ZM5.72635 212.188C5.59302 224.854 5.19302 231.654 4.52635 229.254C2.79302 222.454 3.45969 191.254 5.32635 191.254C5.59302 191.254 5.72635 200.721 5.72635 212.188ZM13.993 251.521L13.3264 257.254L12.5264 251.921C11.7264 246.321 12.1264 244.188 13.7264 245.121C14.1264 245.521 14.2597 248.321 13.993 251.521Z" fill="black"/>
</svg>
