<svg width="475" height="43" viewBox="0 0 475 43" fill="none" xmlns="http://www.w3.org/2000/svg">
<g opacity="0.25">
<path d="M442.109 0.191042C441.192 0.523504 440.406 0.916413 439.59 1.46044C437.253 3.01193 436.105 4.73469 435.117 8.21042C434.946 8.82497 434.734 9.4899 434.654 9.70147C434.573 9.90296 434.503 10.3664 434.503 10.719C434.503 11.9884 435.399 13.1571 436.991 13.9731C437.989 14.4869 438.865 14.7085 439.953 14.7085C441.071 14.7085 441.625 14.5171 442.139 13.963C442.482 13.5903 442.552 13.419 442.663 12.8246C442.754 12.2705 442.754 12.0186 442.653 11.6962C442.381 10.7694 441.777 10.6787 439.822 11.263C438.069 11.797 437.535 11.8675 437.031 11.6459C436.528 11.4141 436.316 11.0212 436.246 10.1951C436.135 8.84512 436.628 6.94102 437.505 5.33916C438.059 4.3317 439.54 2.77014 440.467 2.22611C442.22 1.1985 444.074 0.896264 446.33 1.25895C451.136 2.03469 455.277 5.90334 456.687 10.9306C457.1 12.3712 457.16 12.6835 457.281 13.9529C457.523 16.4716 457.15 18.7585 456.183 20.7029C455.7 21.6802 455.075 22.5869 453.221 25.0249C449.181 30.304 447.146 32.4398 443.55 35.1398C440.618 37.3361 438.613 38.3839 437.324 38.3839C436.185 38.3839 434.906 38.0413 429.949 36.4092C423.844 34.4044 419.844 32.9133 414.353 30.5962C411.402 29.357 408.843 28.138 403.473 25.4279C401.065 24.2089 398.234 22.8387 397.176 22.3753C391.293 19.7761 386.255 18.4664 380.473 18.0231C378.438 17.872 373.33 17.9526 370.932 18.1843C369.199 18.3455 368.796 18.4261 366.147 19.0305C363.517 19.6249 361.281 19.8164 360.656 19.494C360.293 19.3126 360.263 19.0708 360.585 18.9399C365.774 16.8141 367.225 16.3104 370.066 15.6556C375.153 14.4869 378.992 14.0134 383.898 13.9328C391.847 13.8018 398.415 14.7388 407.1 17.2473C410.485 18.2246 413.276 19.3227 418.756 21.8414C421.124 22.9294 426.1 24.9947 429.143 26.1533C430.352 26.6066 433.082 27.4126 434.251 27.6544C435.591 27.9264 437.283 28.0372 438.533 27.9063C439.167 27.8458 440.306 27.7552 441.051 27.7048C443.308 27.5335 444.668 27.0902 446.018 26.0626C447.156 25.1962 447.841 24.1384 447.781 23.3425C447.7 22.2242 446.28 22.6171 444.074 24.36C442.885 25.2969 442.059 25.7503 440.598 26.2238L439.288 26.6469L437.273 26.6369C435.45 26.6369 435.147 26.6066 434.1 26.3649C431.319 25.71 428.569 24.7227 423.31 22.4861C421.627 21.7608 419.431 20.8339 418.434 20.4208C417.436 19.9977 416.127 19.4235 415.522 19.1414C411.412 17.2171 408.389 16.1593 403.523 14.9604C401.206 14.3862 399.161 13.9932 396.451 13.6003C392.522 13.0261 390.809 12.885 386.638 12.8246C378.961 12.7037 374.307 13.2779 367.053 15.2123C363.94 16.0485 363.719 16.1291 360.656 17.5798C357.875 18.8996 357.412 19.0406 355.598 19.1313C354.228 19.2018 354.077 19.232 353.483 19.5242C352.334 20.0884 351.81 20.7432 350.944 22.6876C350.531 23.6145 349.896 24.2895 349.211 24.5212C348.687 24.6925 347.831 25.3675 346.431 26.6671C345.171 27.8357 345.201 27.7854 345.473 28.3193C345.776 28.8936 346.108 28.954 346.692 28.5309C347.932 27.6443 350.803 26.0928 351.206 26.0928C351.528 26.0928 351.8 26.2943 351.951 26.6469C352.103 27.0096 352.717 27.4932 353.432 27.8055C354.158 28.1279 355.578 28.3294 357.079 28.3496C358.399 28.3596 358.52 28.3395 358.983 28.1078C359.598 27.7954 359.83 27.4932 359.91 26.8887C359.961 26.4858 359.941 26.385 359.759 26.2037C359.477 25.9216 359.296 25.9619 357.775 26.5563C355.76 27.3522 354.954 27.4428 354.339 26.9693C354.198 26.8585 353.815 26.6369 353.493 26.4858C352.062 25.8108 352.445 24.9242 354.41 24.3701C354.813 24.2492 355.991 23.7656 357.019 23.272C360.616 21.5794 361.875 21.1563 362.741 21.3679C363.87 21.6399 365.461 22.5365 367.809 24.229C368.282 24.5716 369.26 25.1861 369.975 25.6093C372.383 26.9996 380.201 30.8884 384.432 32.7925C386.729 33.8301 389.278 34.9887 390.084 35.3715C392.905 36.7014 397.267 38.2126 403.12 39.885C410.938 42.1115 416.58 42.9376 422.816 42.7764C425.204 42.7159 427.944 42.4641 429.808 42.1518C431.49 41.8697 432.639 41.5372 434.452 40.8219C437.011 39.8245 437.273 39.754 438.432 39.8245C438.956 39.8547 440.003 40.026 440.749 40.1872C442.441 40.57 443.116 40.6607 445.071 40.8018C447.076 40.9428 451.358 40.9428 452.838 40.8118C457.694 40.3585 462.299 39.079 465.472 37.3059C467.93 35.9357 469.421 34.7469 472.484 31.7346C473.552 30.6869 474.136 28.9742 474.076 27.1205C474.056 26.2037 474.005 25.9619 473.794 25.5488C473.471 24.9141 472.968 24.632 472.172 24.632C470.852 24.632 470.63 25.1962 471.134 27.332C471.497 28.8634 471.527 30.1932 471.194 30.8078C470.882 31.4022 469.109 33.1551 467.95 34.0115C466.701 34.9484 464.223 36.4294 462.46 37.2857C460.334 38.3335 458.51 38.8775 455.71 39.3107C454.319 39.5223 453.866 39.5424 450.219 39.5324C446.905 39.5324 445.847 39.4921 443.872 39.3107C440.608 38.9984 439.661 38.8775 439.842 38.7667C445.222 35.6234 447.791 33.7092 450.431 30.9186C452.838 28.3798 454.289 26.5361 455.76 24.1686C457.846 20.8138 458.682 17.9929 458.551 14.7589C458.349 9.84251 456.012 5.41976 451.932 2.22611C451.297 1.72238 449.645 0.906339 448.758 0.654474C446.612 0.0399232 443.207 -0.201867 442.109 0.191042ZM380.654 19.222C383.878 19.4235 387.142 20.1488 392.24 21.7809C396.008 22.9899 398.285 24.0175 403.322 26.7981C407.684 29.2059 420.59 34.9081 422.846 35.4118C423.249 35.5025 424.932 36.0365 426.594 36.5906C429.606 37.598 431.883 38.3033 434.13 38.9077C434.775 39.079 435.309 39.2603 435.309 39.3006C435.309 39.351 435.137 39.4115 434.936 39.4417C434.724 39.482 433.908 39.7036 433.122 39.9454C429.606 41.0335 426.645 41.4163 421.698 41.4062C418.595 41.4062 417.315 41.3458 413.951 40.9932C411.261 40.7212 409.719 40.4592 408.007 39.9958C399.947 37.8197 396.32 36.6913 394.305 35.7342C393.67 35.432 392.743 35.0592 392.24 34.9081C389.751 34.1525 382.729 30.8078 373.501 26.0022C371.043 24.7126 369.985 24.1081 369.451 23.6649C369.048 23.3425 368.655 23.0705 368.585 23.0705C368.333 23.0705 364.484 20.8843 364.484 20.7432C364.484 20.7029 364.786 20.6223 365.169 20.5518C365.542 20.4914 366.62 20.2395 367.557 19.9977C369.612 19.4638 370.962 19.2522 373.048 19.1414C374.942 19.0507 378.458 19.0809 380.654 19.222ZM359.729 20.4208C360.082 20.5115 360.323 20.6123 360.283 20.6526C360.243 20.6929 359.679 20.8943 359.044 21.1059C358.419 21.3074 357.583 21.6298 357.21 21.8212C356.838 22.0126 356.203 22.2947 355.8 22.4559C355.397 22.6171 354.43 23.0503 353.654 23.413C351.639 24.36 351.458 24.3096 353.07 23.2518C354.188 22.5164 354.561 22.2947 356.324 21.257C357.019 20.844 357.724 20.4309 357.885 20.3302C358.228 20.1287 358.651 20.1488 359.729 20.4208ZM354.964 20.4511C354.923 20.5115 354.692 20.6626 354.43 20.7936C354.168 20.9246 353.866 21.1361 353.755 21.257C353.513 21.519 353.029 21.791 352.878 21.7406C352.757 21.7003 353.876 20.8238 354.43 20.5216C354.792 20.3302 355.064 20.2899 354.964 20.4511Z" fill="black"/>
</g>
<g opacity="0.25">
<path d="M32.0648 0.191046C32.9816 0.523508 33.7674 0.916417 34.5835 1.46045C36.9208 3.01193 38.0693 4.73469 39.0566 8.21043C39.2279 8.82498 39.4394 9.4899 39.52 9.70147C39.6006 9.90296 39.6712 10.3664 39.6712 10.719C39.6712 11.9884 38.7745 13.1571 37.1827 13.9731C36.1853 14.4869 35.3089 14.7085 34.2208 14.7085C33.1025 14.7085 32.5484 14.5171 32.0346 13.963C31.6921 13.5903 31.6215 13.419 31.5107 12.8246C31.4201 12.2705 31.4201 12.0186 31.5208 11.6962C31.7928 10.7694 32.3973 10.6787 34.3518 11.263C36.1047 11.797 36.6387 11.8675 37.1424 11.6459C37.6462 11.4142 37.8577 11.0212 37.9282 10.1951C38.0391 8.84513 37.5454 6.94103 36.6689 5.33917C36.1148 4.33171 34.6339 2.77014 33.707 2.22612C31.954 1.19851 30.1003 0.896268 27.8436 1.25895C23.038 2.0347 18.8973 5.90334 17.4869 10.9306C17.0738 12.3712 17.0134 12.6835 16.8925 13.9529C16.6507 16.4716 17.0235 18.7585 17.9906 20.7029C18.4742 21.6802 19.0988 22.5869 20.9526 25.0249C24.9925 30.304 27.0275 32.4398 30.6242 35.1398C33.5559 37.3361 35.5607 38.3839 36.8503 38.3839C37.9887 38.3839 39.2682 38.0413 44.2249 36.4092C50.3301 34.4044 54.3297 32.9133 59.8203 30.5962C62.7722 29.357 65.3312 28.138 70.7009 25.4279C73.1087 24.2089 75.9397 22.8387 76.9975 22.3753C82.8811 19.7761 87.9184 18.4664 93.7012 18.0231C95.7363 17.872 100.844 17.9526 103.242 18.1843C104.975 18.3455 105.378 18.4261 108.027 19.0305C110.657 19.6249 112.893 19.8164 113.518 19.494C113.881 19.3126 113.911 19.0708 113.588 18.9399C108.4 16.8141 106.949 16.3104 104.108 15.6556C99.0206 14.4869 95.1822 14.0134 90.2759 13.9328C82.327 13.8018 75.7584 14.7388 67.0741 17.2473C63.689 18.2246 60.8983 19.3227 55.4177 21.8414C53.0502 22.9294 48.0734 24.9947 45.0308 26.1533C43.8219 26.6066 41.0917 27.4126 39.923 27.6544C38.5831 27.9264 36.8906 28.0372 35.6413 27.9063C35.0066 27.8458 33.8682 27.7552 33.1227 27.7048C30.866 27.5335 29.5059 27.0902 28.1559 26.0626C27.0175 25.1962 26.3324 24.1384 26.3928 23.3425C26.4734 22.2242 27.8939 22.6171 30.1003 24.36C31.2891 25.2969 32.1152 25.7503 33.576 26.2238L34.8857 26.6469L36.9006 26.6369C38.7241 26.6369 39.0264 26.6066 40.0741 26.3649C42.8547 25.71 45.6051 24.7227 50.864 22.4861C52.5465 21.7608 54.7428 20.8339 55.7401 20.4208C56.7375 19.9977 58.0472 19.4235 58.6517 19.1414C62.7621 17.2171 65.7845 16.1593 70.6505 14.9604C72.9677 14.3862 75.0128 13.9932 77.7229 13.6003C81.652 13.0261 83.3647 12.885 87.5356 12.8246C95.2124 12.7037 99.8669 13.278 107.121 15.2123C110.234 16.0485 110.455 16.1291 113.518 17.5798C116.299 18.8996 116.762 19.0406 118.575 19.1313C119.946 19.2018 120.097 19.232 120.691 19.5242C121.84 20.0884 122.363 20.7432 123.23 22.6876C123.643 23.6145 124.278 24.2895 124.963 24.5212C125.487 24.6925 126.343 25.3675 127.743 26.6671C129.003 27.8357 128.972 27.7854 128.7 28.3193C128.398 28.8936 128.066 28.954 127.481 28.5309C126.242 27.6443 123.371 26.0928 122.968 26.0928C122.646 26.0928 122.374 26.2943 122.222 26.6469C122.071 27.0096 121.457 27.4932 120.741 27.8055C120.016 28.1279 118.596 28.3294 117.094 28.3496C115.775 28.3596 115.654 28.3395 115.19 28.1078C114.576 27.7955 114.344 27.4932 114.263 26.8887C114.213 26.4858 114.233 26.385 114.415 26.2037C114.697 25.9216 114.878 25.9619 116.399 26.5563C118.414 27.3522 119.22 27.4428 119.835 26.9693C119.976 26.8585 120.359 26.6369 120.681 26.4858C122.112 25.8108 121.729 24.9242 119.764 24.3701C119.361 24.2492 118.182 23.7656 117.155 23.272C113.558 21.5794 112.299 21.1563 111.433 21.3679C110.304 21.6399 108.712 22.5365 106.365 24.229C105.891 24.5716 104.914 25.1861 104.199 25.6093C101.791 26.9996 93.9732 30.8884 89.7419 32.7925C87.4449 33.8301 84.896 34.9887 84.0901 35.3715C81.2692 36.7014 76.9069 38.2126 71.0535 39.885C63.2356 42.1115 57.5939 42.9376 51.3577 42.7764C48.97 42.7159 46.2297 42.4641 44.3659 42.1518C42.6835 41.8697 41.535 41.5372 39.7215 40.8219C37.1626 39.8245 36.9006 39.754 35.7421 39.8245C35.2182 39.8547 34.1704 40.026 33.4249 40.1872C31.7324 40.57 31.0574 40.6607 29.1029 40.8018C27.0981 40.9428 22.8164 40.9428 21.3354 40.8118C16.4794 40.3585 11.8753 39.079 8.70184 37.3059C6.24364 35.9357 4.7526 34.7469 1.68992 31.7346C0.622012 30.6869 0.0376853 28.9742 0.0981329 27.1205C0.118282 26.2037 0.168655 25.9619 0.380222 25.5488C0.702609 24.9141 1.20634 24.632 2.00223 24.632C3.322 24.632 3.54365 25.1962 3.03992 27.332C2.67723 28.8634 2.64701 30.1932 2.97947 30.8078C3.29178 31.4022 5.06491 33.1551 6.22349 34.0115C7.47274 34.9484 9.95109 36.4294 11.7141 37.2857C13.8399 38.3335 15.6634 38.8775 18.4641 39.3107C19.8544 39.5223 20.3078 39.5424 23.9548 39.5324C27.2693 39.5324 28.3272 39.4921 30.3018 39.3107C33.5659 38.9984 34.513 38.8775 34.3316 38.7667C28.9518 35.6234 26.3828 33.7092 23.7432 30.9186C21.3354 28.3798 19.8846 26.5361 18.4138 24.1686C16.3283 20.8138 15.4921 17.9929 15.6231 14.7589C15.8246 9.84251 18.1619 5.41976 22.2421 2.22612C22.8768 1.72239 24.529 0.906343 25.4156 0.654478C27.5615 0.0399272 30.9667 -0.201863 32.0648 0.191046ZM93.5199 19.222C90.296 19.4235 87.0318 20.1488 81.9341 21.7809C78.1662 22.9899 75.8893 24.0175 70.852 26.7981C66.4897 29.2059 53.5842 34.9081 51.3275 35.4118C50.9245 35.5025 49.242 36.0365 47.5797 36.5906C44.5674 37.598 42.2905 38.3033 40.0439 38.9077C39.3991 39.079 38.8652 39.2603 38.8652 39.3006C38.8652 39.351 39.0365 39.4115 39.2379 39.4417C39.4495 39.482 40.2656 39.7036 41.0514 39.9454C44.5674 41.0335 47.5293 41.4163 52.476 41.4062C55.5789 41.4062 56.8584 41.3458 60.2233 40.9932C62.9133 40.7212 64.4547 40.4592 66.1673 39.9958C74.227 37.8197 77.8539 36.6913 79.8688 35.7342C80.5035 35.432 81.4304 35.0592 81.9341 34.9081C84.4225 34.1525 91.4445 30.8078 100.673 26.0022C103.131 24.7126 104.189 24.1081 104.723 23.6649C105.126 23.3425 105.519 23.0705 105.589 23.0705C105.841 23.0705 109.69 20.8843 109.69 20.7432C109.69 20.7029 109.387 20.6223 109.005 20.5518C108.632 20.4914 107.554 20.2395 106.617 19.9977C104.562 19.4638 103.212 19.2522 101.126 19.1414C99.2322 19.0507 95.7161 19.0809 93.5199 19.222ZM114.445 20.4208C114.092 20.5115 113.85 20.6123 113.891 20.6526C113.931 20.6929 114.495 20.8943 115.13 21.1059C115.755 21.3074 116.591 21.6298 116.963 21.8212C117.336 22.0126 117.971 22.2947 118.374 22.4559C118.777 22.6171 119.744 23.0503 120.52 23.413C122.535 24.36 122.716 24.3096 121.104 23.2518C119.986 22.5164 119.613 22.2947 117.85 21.257C117.155 20.844 116.45 20.4309 116.288 20.3302C115.946 20.1287 115.523 20.1488 114.445 20.4208ZM119.21 20.4511C119.25 20.5115 119.482 20.6626 119.744 20.7936C120.006 20.9246 120.308 21.1361 120.419 21.257C120.661 21.519 121.144 21.791 121.296 21.7406C121.416 21.7003 120.298 20.8238 119.744 20.5216C119.381 20.3302 119.109 20.2899 119.21 20.4511Z" fill="black"/>
</g>
</svg>
