<svg width="83" height="115" viewBox="0 0 83 115" fill="none" xmlns="http://www.w3.org/2000/svg">
<path d="M61.8868 2.44569C58.6868 3.91236 53.6202 5.77903 50.5535 6.57903C47.4868 7.37903 41.6202 9.37903 37.6202 11.1124C33.6202 12.7124 26.8202 15.1124 22.5535 16.3124C15.0868 18.579 14.8202 18.7124 15.2202 22.8457C15.4868 25.9124 16.2868 27.1124 18.0202 26.979C19.7535 26.8457 20.8202 28.579 22.2868 33.6457C23.4868 37.5124 25.4868 41.9124 26.9535 43.5124C29.4868 46.3124 29.4868 46.3124 23.6202 49.5124C17.3535 53.1124 15.7535 52.3124 17.2202 46.4457C17.8868 43.9124 17.4868 43.6457 13.4868 44.0457L8.9535 44.4457L9.3535 51.1124C9.7535 56.8457 9.08683 58.979 5.08683 65.779C-0.246499 74.579 -0.246499 74.579 0.153501 95.1124C0.553501 116.312 -0.2465 114.979 13.4868 114.046C29.4868 112.846 46.4202 107.779 63.6202 99.1124C81.3535 90.179 84.2868 88.0457 81.8868 86.579C80.5535 85.779 80.2868 82.3124 81.0868 70.8457C81.7535 59.779 81.6202 55.9124 80.2868 55.1124C79.0868 54.3124 79.0868 53.9124 80.4202 52.979C82.9535 51.379 81.2202 50.3124 67.6202 44.979C61.7535 42.7124 56.6868 40.579 56.4202 40.3124C56.1535 40.0457 57.4868 38.0457 59.4868 35.6457C64.4202 29.9124 66.4202 25.5124 67.6202 18.4457C68.1535 14.979 69.6202 11.779 71.0868 10.7124C74.4202 8.44569 74.2868 2.97903 71.0868 1.11237C67.8868 -0.487633 68.6868 -0.620972 61.8868 2.44569ZM60.2868 20.7124C59.6202 23.5124 58.1535 26.7124 57.2202 27.9124C55.2202 30.3124 41.8868 37.1124 38.9535 37.1124C37.7535 37.1124 36.1535 37.779 35.2202 38.7124C33.0868 40.8457 30.0202 37.779 28.8202 32.3124C27.8868 27.379 29.7535 25.9124 44.2868 20.579C49.7535 18.579 55.7535 16.179 57.6202 15.1124C61.6202 12.8457 62.1535 14.0457 60.2868 20.7124Z" fill="black"/>
</svg>
