<?xml version="1.0" ?><!DOCTYPE svg  PUBLIC '-//W3C//DTD SVG 1.1//EN'  'http://www.w3.org/Graphics/SVG/1.1/DTD/svg11.dtd'><svg height="512px" style="enable-background:new 0 0 512 512;" version="1.1" viewBox="0 0 512 512" width="512px" xml:space="preserve" xmlns="http://www.w3.org/2000/svg" xmlns:xlink="http://www.w3.org/1999/xlink"><g id="_x35_36_x2C__game_x2C__Boss_x2C__legend_x2C__master_x2C__CEO"><g><path d="M278.824,175.946h9.339h0.086h19.862l-1.301-25.008l-27.554,24.632    C279.144,175.715,278.97,175.83,278.824,175.946 M248.469,150.678l-0.751,25.269h19.976h0.088h6.996    c-0.146-0.116-0.289-0.231-0.434-0.347L248.469,150.678z M284.605,183.059h-13.27v16.479h13.27V183.059z M257.2,257.445    l7.024-54.468v-19.919h-20.15c-1.967,0-3.557-1.591-3.557-3.557l0.924-30.559l-62.388,24.488v84.014h27.292v-58.457    c0-2.053,1.676-3.701,3.701-3.701c2.053,0,3.701,1.648,3.701,3.701v58.457H257.2z M291.718,202.949l5.61,54.496h44.839v-58.457    c0-2.053,1.678-3.701,3.7-3.701c2.054,0,3.731,1.648,3.731,3.701v58.457h27.262v-84.014l-63.054-24.748l1.59,30.645    c0.086,1.938-1.416,3.615-3.354,3.701h-20.325V202.949z M290.186,257.445l-5.232-50.796h-14.078l-6.563,50.796H290.186z     M284.028,57.412c-8.558,5.377-19.746,8.645-31.917,8.645c-3.99,0-7.893-0.348-11.622-1.012c-2.458-0.434-4.887-1.012-7.228-1.734    c-0.926,3.729-1.446,7.633-1.446,11.65c0,13.01,5.263,24.777,13.791,33.306c8.528,8.499,20.295,13.79,33.275,13.79    c13.01,0,24.777-5.291,33.306-13.79l0.174-0.174c8.412-8.528,13.616-20.208,13.616-33.132c0-2.861-0.26-5.666-0.751-8.384    c-0.723,0.087-1.445,0.146-2.169,0.202c-1.849,0.174-3.729,0.26-5.638,0.26c-6.822,0-13.355-1.04-19.254-2.891    C292.932,62.529,288.133,60.217,284.028,57.412z M300.971,33.389c-0.927,7.285-4.771,13.934-10.669,19.282    c3.008,1.792,6.389,3.296,10.062,4.424c5.203,1.618,10.957,2.544,17.057,2.544c1.678,0,3.383-0.086,5.031-0.231l0.838-0.087    c-2.342-6.707-6.188-12.72-11.102-17.635C308.892,38.39,305.104,35.585,300.971,33.389z M235.661,56.314    c1.967,0.578,4.019,1.07,6.129,1.445c3.268,0.578,6.736,0.896,10.321,0.896c11.68,0,22.203-3.324,29.806-8.702l0.059-0.057    l0.088-0.029l0,0c7.111-5.117,11.592-12.027,11.707-19.572c-4.684-1.562-9.685-2.4-14.889-2.4    c-12.98,0-24.747,5.291-33.275,13.791C241.442,45.849,238.031,50.821,235.661,56.314z M482.414,264.557    c-34.028,0-68.057,0-102.085,0c-5.694,0-32.032,1.013-35.472,0c-20.961,0-130.764,1.504-135.823,0c-11.216,0-22.405,0-33.623,0    c-33.97,0-67.94,0-101.911,0v18.156h23.216c128.565,0,257.132,0,385.698,0V264.557z M100.359,439.206h355.225V289.825H100.359    V439.206z M322.509,362.709l-44.552-44.551l-44.521,44.551l44.521,44.522L322.509,362.709z M201.287,340.592l-22.117,22.117    l22.117,22.088l22.087-22.088L201.287,340.592z M327.539,357.68l24.604-24.604c1.387-1.389,3.643-1.389,5.029,0l27.118,27.117    c1.388,1.389,1.388,3.643,0,5.031l-27.118,27.117c-1.387,1.389-3.643,1.389-5.029,0l-24.604-24.602l-47.067,47.036    c-1.387,1.389-3.642,1.389-5.029,0l-47.038-47.036l-24.604,24.602c-1.388,1.389-3.643,1.389-5.031,0l-27.118-27.117    c-1.388-1.389-1.388-3.643,0-5.031l27.118-27.117c1.388-1.389,3.643-1.389,5.031,0l24.604,24.604l47.038-47.039    c1.388-1.388,3.643-1.388,5.029,0L327.539,357.68z M354.657,340.592l-22.087,22.117l22.087,22.088l22.087-22.088L354.657,340.592z     M41.642,465.399c-1.965,0-3.555-1.59-3.555-3.556c0-1.938,1.59-3.557,3.555-3.557h307.204c1.938,0,3.527,1.619,3.527,3.557    c0,1.966-1.59,3.556-3.527,3.556H41.642z M221.524,484.105c-1.967,0-3.557-1.591-3.557-3.557s1.589-3.556,3.557-3.556h212.579    c1.966,0,3.557,1.59,3.557,3.556s-1.591,3.557-3.557,3.557H221.524z M455.845,484.105c-1.937,0-3.557-1.591-3.557-3.557    s1.62-3.556,3.557-3.556h26.597c1.938,0,3.558,1.59,3.558,3.556s-1.62,3.557-3.558,3.557H455.845z M29.557,483.527    c-1.965,0-3.555-1.591-3.555-3.557s1.59-3.556,3.555-3.556h100.724c1.938,0,3.557,1.59,3.557,3.556s-1.62,3.557-3.557,3.557    H29.557z M248.526,140.936l28.36,27.263l30.589-27.32l0.058-0.058l0.059-0.088l0.115-0.086l0,0    c0.23-0.202,0.462-0.347,0.722-0.463l0.029-0.029c0.405-0.174,0.867-0.316,1.331-0.316c0.576-0.029,1.156,0.057,1.646,0.288    l0.059,0.028l70.223,27.582c1.389,0.549,2.256,1.878,2.256,3.295v86.414h21.683L377.006,86.555    c-0.927-5.436-3.209-10.408-6.679-13.848c-2.978-2.979-6.853-4.828-11.508-4.828h-25.903c0.289,2.313,0.463,4.684,0.463,7.082    c0,14.947-6.043,28.478-15.756,38.307l-0.203,0.232c-9.858,9.857-23.476,15.958-38.538,15.958    c-15.033,0-28.65-6.101-38.508-15.958c-9.858-9.859-15.959-23.476-15.959-38.539c0-2.398,0.146-4.77,0.463-7.082h-27.783h-0.088    c-4.596,0.028-8.442,1.85-11.39,4.828c-3.469,3.439-5.782,8.412-6.679,13.848l-28.65,170.891h21.682v-86.414    c0-1.59,1.041-2.949,2.486-3.382l69.299-27.233l0.088-0.029l0.086-0.029l0.723-0.289    C246.04,139.519,247.572,139.924,248.526,140.936z" style="fill-rule:evenodd;clip-rule:evenodd;"/></g></g><g id="Layer_1"/></svg>