<?xml version="1.0" standalone="no"?>
<!DOCTYPE svg PUBLIC "-//W3C//DTD SVG 20010904//EN"
 "http://www.w3.org/TR/2001/REC-SVG-20010904/DTD/svg10.dtd">
<svg version="1.0" xmlns="http://www.w3.org/2000/svg"
 width="24.000000pt" height="24.000000pt" viewBox="0 0 24.000000 24.000000"
 preserveAspectRatio="xMidYMid meet">

<g transform="translate(0.000000,24.000000) scale(0.100000,-0.100000)"
fill="#000000" stroke="none">
<path d="M5 183 c4 -10 10 -26 12 -35 3 -10 12 -18 20 -18 11 0 11 -4 3 -21
-9 -16 -8 -26 5 -45 19 -29 51 -31 60 -4 3 11 10 20 15 20 5 0 12 -9 15 -20
10 -31 41 -24 63 15 7 13 7 26 1 37 -7 13 -6 18 4 18 8 0 17 8 20 18 2 9 8 25
12 35 12 28 -47 22 -84 -9 l-31 -26 -31 26 c-37 31 -96 37 -84 9z"/>
</g>
</svg>
