<?xml version="1.0" standalone="no"?>
<!DOCTYPE svg PUBLIC "-//W3C//DTD SVG 20010904//EN"
 "http://www.w3.org/TR/2001/REC-SVG-20010904/DTD/svg10.dtd">
<svg version="1.0" xmlns="http://www.w3.org/2000/svg"
 width="1280.000000pt" height="1280.000000pt" viewBox="0 0 1280.000000 1280.000000"
 preserveAspectRatio="xMidYMid meet">
<metadata>
Created by potrace 1.15, written by Peter Selinger 2001-2017
</metadata>
<g transform="translate(0.000000,1280.000000) scale(0.100000,-0.100000)"
fill="#000000" stroke="none">
<path d="M3875 9611 c14 -6 -11 -15 -90 -35 -97 -24 -200 -64 -169 -66 7 0 72
15 145 34 245 63 276 66 693 66 209 0 377 -2 374 -5 -3 -3 -165 -26 -359 -51
-195 -24 -457 -58 -584 -74 -126 -17 -259 -30 -294 -30 -63 0 -64 0 -107 -47
-24 -27 -62 -83 -84 -125 l-39 -78 132 -1 c116 -2 124 -3 62 -9 -38 -4 -95 -6
-126 -5 -65 3 -74 0 -83 -37 -8 -33 -17 -32 139 -13 75 10 176 15 270 13 l150
-3 -284 -22 c-156 -13 -285 -24 -287 -26 -2 -1 -6 -22 -10 -45 l-7 -42 64 -1
c110 -2 136 -16 32 -18 -55 -1 -93 -5 -93 -11 0 -6 100 -10 279 -10 280 0 304
2 386 39 34 15 78 30 125 41 25 6 52 14 60 17 8 3 22 8 30 9 79 18 66 22 -69
23 -79 1 -142 3 -140 5 2 2 87 14 189 26 177 21 213 22 850 19 366 -2 850 -1
1075 3 261 5 401 4 385 -2 -25 -9 407 -5 535 6 74 6 55 -11 -25 -21 -50 -7
-117 -31 -108 -40 2 -2 75 10 163 27 163 30 462 51 440 31 -15 -15 -469 -73
-562 -73 -46 0 -83 -3 -83 -7 0 -5 -18 -19 -40 -33 -22 -13 -40 -26 -40 -30 0
-3 109 -4 242 -3 152 1 226 -2 198 -7 -25 -5 -143 -9 -262 -10 -201 -1 -219
-3 -240 -21 l-23 -20 190 6 c105 3 228 7 275 10 l85 4 -85 -14 c-47 -8 -181
-18 -297 -21 -117 -4 -213 -11 -213 -15 0 -4 19 -9 43 -11 40 -4 40 -4 -20
-12 -40 -5 -74 -17 -95 -32 -17 -13 -28 -24 -22 -24 5 0 1 -5 -8 -11 -40 -23
-15 -30 103 -28 66 1 123 -2 127 -6 4 -4 -212 -4 -480 0 -269 3 -488 3 -488
-2 1 -14 27 -43 33 -36 4 3 7 1 7 -5 0 -9 62 -12 228 -13 235 -1 242 -10 16
-24 -65 -4 -125 -10 -132 -14 -8 -5 1 -16 29 -34 31 -20 53 -27 92 -27 37 0
48 -3 37 -10 -8 -5 -25 -10 -38 -10 -32 0 -17 -20 16 -21 24 0 25 -1 7 -9 -72
-29 166 -11 358 27 69 14 174 17 662 20 332 2 574 -1 565 -6 -15 -8 -212 -40
-375 -60 -132 -17 -378 -31 -513 -30 -159 1 -124 11 118 34 204 19 220 22 220
35 0 6 -87 10 -232 10 -192 0 -280 -6 -498 -30 -146 -16 -272 -30 -280 -30
-11 0 -9 -5 6 -20 16 -17 40 -22 120 -29 l99 -8 -87 -2 c-49 0 -88 -5 -88 -9
0 -5 9 -17 20 -27 11 -10 35 -44 52 -74 17 -31 36 -60 42 -64 6 -4 138 -6 294
-5 155 2 282 1 282 -2 0 -9 -391 -51 -473 -50 -75 0 -77 -1 -67 -20 6 -11 15
-18 19 -15 5 2 18 -18 30 -45 l22 -50 197 -1 c113 -1 184 -5 167 -9 -16 -4
-103 -8 -192 -9 -90 0 -163 -3 -163 -5 0 -2 7 -20 15 -40 l15 -36 167 0 c91 0
164 -2 161 -5 -3 -3 -73 -9 -157 -14 -83 -4 -154 -11 -158 -14 -3 -4 -1 -18 5
-32 11 -24 14 -24 139 -28 l128 -3 -127 -2 c-135 -2 -134 -2 -122 -49 6 -22
11 -23 113 -25 l106 -1 -102 -10 c-92 -9 -103 -12 -103 -29 0 -19 5 -20 93
-14 85 5 90 5 62 -9 -16 -8 -56 -20 -88 -27 -49 -10 -57 -15 -55 -33 3 -20 8
-20 308 -20 l305 0 3 23 c3 22 2 22 -129 22 -73 0 -130 2 -128 4 2 3 61 12
132 22 122 17 127 19 127 41 l0 24 -102 -5 c-65 -4 -94 -2 -78 3 14 5 60 9
103 10 l77 1 0 75 0 75 -42 1 -43 2 40 6 c39 6 40 7 43 49 l3 42 147 2 c81 1
305 2 497 2 l350 1 3 32 c3 31 2 32 -45 36 l-48 3 48 2 47 2 0 54 c0 52 -1 55
-27 59 l-28 4 28 2 27 1 0 130 0 130 -24 0 c-13 0 -38 6 -56 14 -31 13 -31 13
-9 19 13 4 39 7 57 7 30 0 32 2 32 38 l0 39 -134 -5 c-128 -4 -136 -3 -173 19
l-38 24 173 3 c144 2 172 5 172 17 0 13 -30 15 -197 15 -108 0 -194 2 -192 4
12 12 210 36 294 36 l95 0 0 31 c0 28 -2 31 -22 24 -13 -4 -114 -9 -225 -12
-179 -5 -203 -3 -203 10 0 9 8 18 18 21 43 13 197 26 309 26 75 0 123 4 123
10 0 6 -15 10 -32 11 l-33 1 33 10 c39 13 41 25 5 31 l-28 4 28 2 c26 1 27 3
27 55 0 30 2 60 5 68 4 10 -5 13 -37 11 -36 -2 -30 1 32 17 83 22 264 38 241
22 -8 -6 -46 -13 -85 -17 -39 -3 -87 -10 -106 -15 -67 -15 210 -11 300 5 72
13 380 35 475 34 56 -1 -4 -16 -110 -28 -55 -6 -126 -16 -157 -22 -70 -14 -78
-36 -15 -42 l42 -4 -42 -1 c-39 -2 -43 -5 -43 -27 l0 -25 143 -1 c123 -1 133
-3 77 -10 -36 -4 -100 -13 -142 -20 -76 -11 -78 -12 -78 -40 l0 -29 368 -1
c207 0 354 -4 337 -9 -32 -8 -444 -30 -580 -30 -105 0 -125 -6 -125 -36 0 -22
4 -24 48 -25 35 0 42 -3 27 -9 -11 -5 -32 -9 -47 -9 -23 -1 -28 -6 -28 -26 l0
-25 397 0 c218 0 394 -2 391 -5 -2 -3 -181 -5 -396 -5 -332 -1 -392 -3 -392
-15 0 -12 39 -15 233 -18 l232 -2 -232 -3 -233 -2 0 -38 0 -37 103 12 c63 7
269 12 540 12 l438 1 -3 23 c-3 22 -5 22 -203 27 l-200 6 203 2 c126 1 202 6
202 12 0 6 -18 10 -41 10 -24 0 -38 4 -34 10 3 6 22 10 41 10 24 0 34 5 34 15
0 13 -62 15 -497 16 -327 1 -484 4 -458 10 45 11 374 27 723 35 189 5 232 9
232 20 0 10 -15 14 -56 14 -72 0 -69 21 4 34 49 8 52 11 52 38 0 30 -1 30 -42
23 -67 -11 -1034 -18 -1023 -7 31 28 541 72 833 72 l235 0 -7 38 c-4 20 -8 44
-10 52 -3 13 -38 15 -252 13 -236 -2 -245 -1 -174 12 41 7 149 19 240 26 91 7
167 13 168 15 2 1 -1 19 -8 38 -7 22 -18 36 -28 36 -9 0 -116 -7 -237 -15
-379 -25 -420 -27 -413 -20 14 15 372 66 501 72 75 3 137 9 137 14 0 4 -21 34
-46 68 -31 42 -53 61 -67 61 -12 0 -29 5 -37 10 -13 8 -12 10 3 10 9 0 17 5
17 10 0 13 -17 13 -124 -5 -65 -11 -144 -15 -275 -13 l-185 3 220 49 c120 27
223 51 228 54 5 3 0 9 -12 13 -14 5 -120 -13 -307 -53 l-285 -61 -68 66 c-59
56 -66 66 -48 71 46 12 213 28 376 35 98 4 -1001 8 -2485 9 -1463 0 -2651 -3
-2640 -7z m2040 -11 c-25 -11 -491 -117 -595 -136 -83 -15 -420 -19 -404 -5
26 24 545 126 734 144 78 8 284 5 265 -3z m473 0 c46 -8 160 -75 149 -87 -3
-2 -67 -16 -143 -30 -133 -25 -157 -26 -554 -29 -269 -2 -408 0 -395 6 31 15
510 121 645 143 51 9 249 7 298 -3z m637 0 c-11 -5 -85 -21 -165 -35 -80 -14
-173 -30 -207 -36 l-63 -11 -60 38 c-33 22 -60 42 -60 47 0 4 129 7 288 6 178
0 279 -4 267 -9z m-1770 -12 c-33 -5 -251 -36 -485 -70 -391 -56 -442 -62
-640 -66 -118 -2 -213 -1 -210 2 7 6 760 104 1070 139 19 2 100 4 180 4 124 1
136 -1 85 -9z m1990 4 c-6 -5 -68 -17 -140 -26 -71 -10 -143 -20 -160 -22 -75
-11 10 11 124 31 136 25 191 30 176 17z m845 0 c0 -4 -77 -18 -171 -31 -169
-24 -171 -24 -197 -4 -54 41 -45 43 167 43 111 0 201 -3 201 -8z m217 -8 c-3
-3 -12 -4 -19 -1 -8 3 -5 6 6 6 11 1 17 -2 13 -5z m-678 -25 c76 -26 66 -38
-31 -41 -48 -1 -74 4 -113 22 l-50 24 45 6 c75 11 84 11 149 -11z m629 14
c-10 -2 -26 -2 -35 0 -10 3 -2 5 17 5 19 0 27 -2 18 -5z m-103 -12 c-16 -14
-300 -58 -321 -50 -24 9 -36 6 141 33 178 28 192 29 180 17z m485 -67 l65 -66
-115 6 c-239 12 -268 16 -274 39 -3 12 -4 22 -3 23 9 6 226 63 242 63 13 1 46
-25 85 -65z m-1185 32 l50 -23 -45 -6 c-171 -26 -337 -39 -545 -44 -138 -3
-236 -2 -232 3 11 12 584 91 662 92 42 1 75 -6 110 -22z m-2540 -36 c-128 -33
-166 -39 -255 -39 -58 0 -99 3 -92 6 18 7 442 71 472 71 14 0 -42 -17 -125
-38z m2865 10 c11 -7 7 -10 -17 -10 -18 0 -33 5 -33 10 0 13 30 13 50 0z m415
-11 c-94 -30 -178 -43 -221 -34 -21 4 -33 10 -27 12 24 9 238 41 273 41 31 0
28 -2 -25 -19z m-485 2 c0 -5 -9 -12 -19 -16 -24 -7 -73 4 -65 16 7 12 84 12
84 0z m-122 -20 c21 -13 -37 -21 -142 -20 -99 1 -102 5 -11 18 81 12 137 12
153 2z m702 -6 c0 -12 -13 -15 -57 -14 l-58 1 35 13 c48 18 80 18 80 0z
m-4275 -46 c-22 -4 -128 -7 -235 -7 -117 1 -175 4 -145 8 74 10 429 10 380 -1z
m1755 1 c10 -6 -87 -9 -280 -8 l-295 3 270 5 c149 3 275 6 280 8 6 1 17 -3 25
-8z m-1837 -147 c-72 -2 -194 -2 -270 0 -76 1 -16 3 132 3 149 0 211 -2 138
-3z m405 0 c-26 -2 -71 -2 -100 0 -29 2 -8 3 47 3 55 0 79 -1 53 -3z m2111 3
c-12 -12 -382 -56 -473 -56 -99 0 -104 1 -99 20 3 11 4 21 2 22 -2 1 -128 5
-279 8 -224 5 -171 6 289 8 310 1 562 0 560 -2z m456 -6 c3 -5 5 -10 3 -10 -2
0 -68 -7 -148 -14 -191 -20 -427 -31 -417 -20 28 29 546 70 562 44z m118 3
c-13 -2 -35 -2 -50 0 -16 2 -5 4 22 4 28 0 40 -2 28 -4z m1362 2 c-5 -2 -92
-15 -192 -29 -146 -21 -222 -26 -384 -26 -111 0 -200 3 -197 6 4 3 62 16 130
29 109 21 152 23 388 23 146 0 261 -1 255 -3z m804 1 c-12 -12 -387 -69 -484
-73 -93 -5 -113 -3 -123 10 -12 13 -35 15 -155 11 -177 -6 -155 7 53 30 85 10
164 19 175 20 33 5 539 6 534 2z m-1759 -36 c-87 -14 -155 -21 -149 -15 8 7
114 23 159 23 31 0 30 -1 -10 -8z m-3570 -10 c-32 -10 -180 -11 -245 0 -35 5
-4 7 110 8 94 0 150 -3 135 -8z m855 0 c-65 -11 -490 -10 -450 0 17 4 136 8
265 7 149 0 217 -3 185 -7z m1055 0 c-34 -11 -770 -11 -745 0 11 5 189 8 395
8 206 0 364 -4 350 -8z m2015 -79 c-6 -6 -119 -24 -253 -40 -245 -31 -279 -35
-271 -27 4 4 395 60 479 69 19 2 39 5 45 5 6 1 6 -1 0 -7z m280 0 c-19 -17
-228 -52 -338 -56 l-112 -4 85 14 c47 8 126 24 175 34 94 20 206 28 190 12z
m1045 -22 c-58 -10 -148 -20 -200 -23 -89 -5 -85 -4 65 18 190 28 287 32 135
5z m328 -46 c-15 -2 -42 -2 -60 0 -18 2 -6 4 27 4 33 0 48 -2 33 -4z m-253
-14 c-186 -9 -347 -9 -285 1 25 4 131 7 235 7 l190 0 -140 -8z m-5588 -26
c-20 -2 -52 -2 -70 0 -17 2 0 4 38 4 39 0 53 -2 32 -4z m3931 -40 c-10 -2 -28
-2 -40 0 -13 2 -5 4 17 4 22 1 32 -1 23 -4z m392 -30 c-143 -30 -190 -35 -350
-40 -102 -3 -182 -2 -179 1 3 3 61 13 128 21 67 7 129 19 138 26 24 20 86 26
263 27 l165 0 -165 -35z m-331 -68 c-3 -2 -74 -14 -159 -26 -115 -16 -218 -23
-400 -25 -135 -2 -239 -1 -231 2 7 4 77 17 155 29 118 19 182 23 390 24 137 1
247 -1 245 -4z m41 -40 c0 -12 -16 -15 -82 -15 -92 0 -97 5 -17 19 82 13 99
13 99 -4z m1733 -12 c-24 -2 -62 -2 -85 0 -24 2 -5 4 42 4 47 0 66 -2 43 -4z
m-1978 -53 c4 -7 -67 -9 -207 -8 l-213 2 200 6 c110 3 203 7 207 8 4 1 10 -2
13 -8z m253 -7 c-10 -2 -26 -2 -35 0 -10 3 -2 5 17 5 19 0 27 -2 18 -5z
m-1070 -60 c-10 -2 -28 -2 -40 0 -13 2 -5 4 17 4 22 1 32 -1 23 -4z m1187 -18
l30 -24 -440 0 c-405 1 -434 2 -370 15 108 22 259 31 515 33 l235 1 30 -25z
m-1045 -7 c-14 -6 -112 -12 -220 -13 l-195 -3 155 9 c85 4 171 10 190 12 19 2
49 4 65 5 l30 1 -25 -11z m-425 -93 c-115 -17 -185 -17 -85 0 41 6 98 12 125
12 39 0 29 -2 -40 -12z m1585 5 c-14 -4 -36 -8 -50 -8 l-25 0 25 8 c14 4 36 8
50 8 l25 0 -25 -8z m-83 -16 c-3 -3 -12 -4 -19 -1 -8 3 -5 6 6 6 11 1 17 -2
13 -5z m-1017 -14 c-157 -37 -263 -50 -400 -49 -130 1 -138 2 -80 11 127 17
416 46 465 46 48 0 48 0 15 -8z m1211 -4 c27 -11 29 -14 13 -19 -55 -16 -201
-28 -294 -25 l-105 3 145 26 c173 32 198 33 241 15z m-571 -36 c-14 -4 -43 -8
-65 -8 l-40 1 35 7 c19 4 49 8 65 8 29 0 29 0 5 -8z m663 -7 c-7 -2 -19 -2
-25 0 -7 3 -2 5 12 5 14 0 19 -2 13 -5z m-975 -40 c-60 -2 -156 -2 -215 0 -60
1 -11 3 107 3 118 0 167 -2 108 -3z m474 0 c-40 -2 -103 -2 -140 0 -37 2 -4 3
73 3 77 0 107 -2 67 -3z m416 0 c-38 -2 -98 -2 -135 0 -38 2 -7 3 67 3 74 0
105 -1 68 -3z m-1180 -40 c-98 -2 -258 -2 -355 0 -98 1 -18 2 177 2 195 0 275
-1 178 -2z m544 0 c-40 -2 -103 -2 -140 0 -37 2 -4 3 73 3 77 0 107 -2 67 -3z
m401 0 c-34 -2 -93 -2 -130 0 -37 2 -9 3 62 3 72 0 102 -1 68 -3z m-1008 -103
c4 -6 -19 -9 -62 -8 -64 1 -66 1 -23 8 69 11 78 11 85 0z m1078 -41 c-8 -8
-125 -14 -375 -20 -200 -4 -426 -10 -503 -13 l-140 -5 95 15 c68 12 207 18
495 23 220 4 409 8 420 9 14 2 16 -1 8 -9z m-390 -126 c-167 -2 -439 -2 -605
0 -167 1 -31 2 302 2 333 0 469 -1 303 -2z m-448 -203 c-4 -6 -95 -9 -248 -8
-198 2 -220 3 -122 8 215 11 377 11 370 0z m48 -47 c-29 -2 -78 -2 -110 0 -32
2 -8 3 52 3 61 0 87 -1 58 -3z m-238 -133 c-16 -4 -41 -8 -55 -8 -23 -1 -23 0
-5 8 11 5 36 8 55 8 l35 0 -30 -8z"/>
<path d="M3515 8875 c-77 -7 -153 -14 -168 -14 -25 -1 -28 -5 -25 -27 l3 -27
129 1 c77 0 133 5 139 11 8 8 -26 11 -118 12 l-130 1 165 17 c91 9 174 21 185
28 18 11 18 12 -10 11 -16 0 -93 -6 -170 -13z"/>
<path d="M4289 8856 c-2 -2 -17 -6 -34 -8 -16 -3 -57 -13 -90 -23 -78 -25 -57
-28 148 -23 86 2 157 0 157 -4 0 -4 -89 -8 -197 -8 -153 -1 -204 -4 -223 -15
-23 -13 -17 -14 75 -15 l100 -1 -65 -24 c-46 -18 -86 -25 -137 -25 -70 0 -72
-1 -127 -46 -56 -45 -67 -60 -43 -61 267 -7 525 -17 550 -22 19 -4 -103 -18
-303 -34 -330 -27 -335 -28 -357 -53 -13 -14 -23 -28 -23 -32 0 -4 64 -4 142
-1 79 4 377 6 663 6 400 -1 481 -3 350 -9 -93 -4 -393 -10 -665 -13 -485 -6
-495 -6 -512 -26 -38 -46 -29 -49 134 -49 83 0 149 -3 145 -6 -3 -3 -76 -9
-163 -13 l-157 -6 -28 -65 c-15 -36 -25 -67 -22 -70 2 -3 113 -7 246 -10 l242
-6 -242 -2 -242 -2 -10 -37 c-19 -72 -30 -127 -26 -132 3 -2 116 1 252 8 253
11 1021 16 1011 5 -4 -3 -75 -16 -160 -30 -146 -23 -175 -24 -635 -24 -421 0
-483 -2 -483 -15 0 -13 43 -15 303 -18 l302 -2 -302 -3 c-234 -1 -303 -5 -303
-14 0 -7 -3 -23 -6 -35 -6 -23 -6 -23 112 -24 96 -1 109 -3 69 -9 -27 -5 -80
-9 -117 -9 -62 -1 -68 -3 -68 -22 0 -19 4 -20 38 -14 53 11 1905 15 1862 5
-114 -28 -759 -59 -1422 -67 l-478 -6 0 -33 0 -34 173 -1 172 -2 -140 -13
c-77 -7 -155 -13 -172 -13 -28 -1 -33 -5 -33 -26 l0 -25 853 -1 c468 -1 830
-5 802 -9 -54 -9 -774 -35 -1200 -45 -143 -3 -302 -8 -353 -11 l-93 -6 3 -27
3 -26 360 -3 360 -4 -170 -32 c-93 -18 -250 -48 -348 -67 -141 -27 -177 -37
-175 -49 2 -10 20 -17 53 -21 l50 -6 -47 -1 c-27 -1 -48 -4 -48 -6 0 -3 4 -15
9 -28 l9 -23 513 37 c435 31 566 37 848 37 184 1 332 -1 329 -4 -2 -3 -94 -25
-204 -50 l-199 -45 -642 0 -642 0 8 -22 8 -23 354 -5 354 -5 -352 -3 c-194 -1
-353 -5 -353 -8 0 -3 5 -14 10 -25 10 -18 25 -19 367 -19 196 0 354 -3 350 -6
-3 -4 -52 -15 -109 -25 -82 -15 -153 -19 -341 -19 -186 0 -238 -3 -235 -12 3
-9 42 -15 129 -18 100 -4 114 -6 74 -12 -27 -3 -80 -6 -118 -5 -37 1 -67 -1
-67 -5 0 -21 15 -38 34 -39 16 -1 17 -2 4 -6 -21 -5 -21 -8 -8 -34 10 -18 25
-19 382 -19 204 0 369 -2 366 -5 -3 -3 -43 -12 -89 -20 -60 -11 -160 -15 -351
-15 -208 0 -268 -3 -268 -12 0 -7 13 -34 29 -59 l29 -46 129 3 c99 2 115 1 68
-6 -33 -4 -88 -8 -122 -9 -35 -1 -63 -3 -63 -6 0 -3 7 -17 16 -30 l16 -25 536
0 c294 0 533 -2 530 -5 -4 -4 -261 -27 -851 -77 -173 -14 -178 -31 -11 -38 86
-4 101 -7 54 -9 -36 -1 -84 -6 -107 -9 l-42 -7 30 -32 29 -33 402 -1 c235 -1
386 -5 363 -9 -46 -10 -350 -36 -510 -45 -60 -3 -128 -8 -149 -12 -70 -10 -13
-26 73 -20 46 3 64 2 46 -3 -16 -4 -47 -8 -67 -9 -21 0 -38 -5 -38 -10 0 -4
21 -25 47 -45 l46 -36 116 -2 c64 -1 87 -3 51 -5 -93 -4 -135 -12 -123 -24 7
-7 102 -4 274 6 145 9 377 18 514 21 138 3 259 7 270 9 11 2 37 24 58 49 l37
45 -157 -4 -158 -4 120 14 c66 7 141 14 166 14 30 1 51 7 60 17 12 15 7 16
-56 10 -479 -45 -757 -68 -885 -71 -85 -3 -150 -3 -145 0 16 7 391 62 585 86
96 12 258 24 358 28 l184 6 25 43 25 42 -628 2 c-426 1 -566 4 -434 8 206 7
1090 78 1102 89 3 3 8 15 10 25 3 19 -14 19 -870 19 -480 0 -869 3 -865 7 22
19 410 30 1055 30 454 0 699 3 703 10 4 7 -214 10 -646 10 -359 0 -650 2 -648
5 15 15 530 35 896 35 l411 0 11 31 c21 60 19 62 -61 54 -52 -4 -69 -3 -58 4
8 6 33 11 55 11 72 1 82 7 90 57 3 25 4 47 1 51 -4 3 -93 5 -199 3 -130 -1
-189 1 -182 8 6 6 88 12 200 13 187 3 190 3 193 25 3 19 -2 22 -40 26 l-43 4
43 1 42 2 0 64 0 64 -197 -4 c-220 -4 -215 1 35 36 119 17 162 27 162 37 0 10
-9 12 -32 8 -179 -30 -523 -75 -576 -74 -64 1 -59 3 143 50 193 45 220 49 338
49 l129 0 -7 49 c-4 32 -3 51 4 56 34 20 -26 25 -317 26 -292 1 -312 2 -252
14 44 9 148 14 317 14 220 1 252 3 247 16 -5 12 -28 15 -113 16 -85 1 -98 3
-66 10 22 5 70 11 108 15 37 3 67 10 67 16 0 14 -136 5 -325 -22 -109 -16
-190 -20 -370 -19 -126 0 -224 3 -216 6 28 11 723 89 727 81 3 -4 44 -8 90 -8
l86 0 -7 33 c-4 17 -8 33 -9 34 -1 1 -31 -2 -66 -7 -37 -6 -443 -9 -940 -8
-896 1 -905 2 -290 32 507 26 811 36 1035 36 116 0 216 4 223 9 8 4 12 19 10
32 -3 27 29 26 -318 16 l-215 -6 135 14 c74 8 190 18 258 21 112 6 138 13 112
29 -5 3 -7 12 -3 20 4 13 -101 15 -838 16 -480 0 -835 4 -824 9 11 5 387 9
836 9 l817 1 -16 35 -16 35 -106 2 -105 2 103 3 c76 3 102 7 99 16 -3 9 -108
13 -428 17 l-424 5 150 25 c120 19 201 25 406 30 252 5 256 5 247 25 -21 48
-66 111 -87 122 -19 9 -20 12 -7 15 14 2 10 12 -20 56 l-37 52 -115 0 c-63 0
-113 2 -111 4 2 3 50 6 107 7 56 2 101 6 100 11 -2 4 -34 44 -72 88 -64 75
-71 80 -110 81 l-41 2 35 7 c29 5 32 8 16 15 -10 4 -154 3 -320 -4 -313 -12
-952 -24 -926 -16 8 2 74 9 145 15 72 6 236 20 365 31 191 16 279 19 470 14
165 -4 231 -3 220 4 -8 6 -40 11 -70 11 -30 0 -62 5 -70 10 -11 7 0 10 38 10
49 0 68 12 39 23 -7 3 -85 -2 -172 -10 -137 -12 -214 -13 -527 -2 -202 7 -366
14 -364 17 3 2 234 4 515 4 311 0 511 3 511 9 0 5 -21 23 -47 39 -27 16 -53
33 -59 38 -6 5 -20 13 -32 16 -12 4 -22 12 -22 17 0 5 -3 8 -7 7 -8 -1 -59 20
-123 50 -23 11 -74 19 -150 23 -63 3 -92 7 -65 8 38 2 45 4 30 11 -20 9 -258
14 -266 6z m141 -116 c-58 -10 -139 -21 -180 -24 l-75 -6 45 16 c59 20 147 31
240 32 l75 0 -105 -18z m113 -377 c-13 -2 -35 -2 -50 0 -16 2 -5 4 22 4 28 0
40 -2 28 -4z m684 -9 c-3 -3 -12 -4 -19 -1 -8 3 -5 6 6 6 11 1 17 -2 13 -5z
m-572 -34 c-4 -6 -108 -9 -278 -8 l-272 2 210 6 c116 3 241 6 278 7 43 2 66
-1 62 -7z m208 -7 c-7 -2 -19 -2 -25 0 -7 3 -2 5 12 5 14 0 19 -2 13 -5z
m-473 -33 c-14 -4 -126 -8 -250 -8 -127 0 -214 3 -200 8 14 4 126 8 250 8 127
0 214 -3 200 -8z m533 -87 c-122 -2 -324 -2 -450 0 -125 1 -25 2 222 2 248 0
350 -1 228 -2z m-43 -80 c-206 -7 -1140 -7 -1140 0 0 4 276 6 613 5 336 -1
574 -3 527 -5z m-115 -578 c-5 -3 -74 -11 -152 -20 -108 -11 -244 -15 -565
-13 -357 1 -399 2 -268 9 261 15 1007 32 985 24z m245 -76 c-25 -5 -85 -16
-135 -23 -49 -8 -151 -26 -225 -39 -252 -47 -365 -57 -628 -56 l-247 1 145 29
c477 96 485 97 825 97 212 0 296 -3 265 -9z m640 -49 c-14 -5 -104 -14 -200
-20 -96 -6 -231 -15 -300 -20 -69 -5 -210 -9 -315 -9 l-190 1 90 21 c77 17
141 21 450 26 198 4 389 7 425 8 47 1 58 -1 40 -7z m-55 -40 c-11 -5 -45 -8
-75 -8 l-55 1 55 7 c30 4 64 7 75 8 l20 1 -20 -9z m-790 -289 c50 -5 71 -9 48
-9 -23 -1 -45 -6 -48 -12 -4 -6 -96 -10 -248 -9 l-242 1 95 18 c101 19 247 23
395 11z m363 -8 c-26 -2 -71 -2 -100 0 -29 2 -8 3 47 3 55 0 79 -1 53 -3z
m310 0 c-10 -2 -28 -2 -40 0 -13 2 -5 4 17 4 22 1 32 -1 23 -4z m-893 -63
c-165 -10 -495 -11 -495 0 0 6 104 9 293 8 171 -1 255 -4 202 -8z m540 0 c-74
-12 -225 -12 -225 0 0 6 52 9 138 9 105 -1 125 -3 87 -9z m-486 -54 c-2 -2
-112 -5 -244 -8 -132 -3 -220 -2 -195 2 46 7 447 13 439 6z m1006 -27 c-22 -4
-211 -7 -420 -6 -260 1 -333 3 -230 7 238 9 695 9 650 -1z m-718 -39 c-73 -9
-386 -21 -371 -14 28 12 149 21 284 21 109 0 131 -1 87 -7z m381 -17 c-21 -2
-57 -2 -80 0 -24 2 -7 4 37 4 44 0 63 -2 43 -4z m-39 -228 c-7 -6 -586 -52
-759 -60 -80 -4 -143 -4 -140 -2 5 5 231 25 525 47 77 6 158 12 180 13 69 6
199 7 194 2z m-302 -132 c-159 -2 -415 -2 -570 0 -155 1 -25 2 288 2 314 0
440 -1 282 -2z m328 -203 c-55 -4 -183 -7 -285 -7 l-185 1 145 6 c80 3 208 6
285 6 l140 1 -100 -7z"/>
<path d="M3428 8792 l-107 -3 1 -30 c1 -29 3 -30 32 -25 17 3 54 8 81 12 51 7
125 38 109 45 -5 2 -57 3 -116 1z"/>
<path d="M3327 8703 c-4 -3 -7 -20 -7 -37 0 -23 3 -27 12 -18 7 7 19 12 28 12
8 0 29 11 45 25 l30 24 -51 1 c-28 0 -54 -3 -57 -7z"/>
<path d="M9595 8574 c-11 -2 -211 -15 -445 -29 -234 -14 -451 -28 -482 -31
l-58 -6 0 -184 0 -184 468 -1 c358 0 476 -4 507 -14 22 -7 34 -13 28 -14 -8
-1 -13 -17 -13 -46 l0 -45 38 -1 37 -1 -37 -10 c-30 -8 -38 -15 -38 -33 0 -20
6 -24 38 -28 l37 -4 -37 -1 c-36 -2 -38 -4 -38 -37 0 -35 0 -35 44 -35 l45 0
0 126 c0 119 -2 126 -22 134 l-22 9 23 0 c18 1 23 6 20 24 -3 21 -8 22 -138
27 l-135 6 138 2 137 2 0 25 c0 24 -3 25 -54 25 -30 0 -58 5 -61 10 -3 6 -57
11 -123 11 -136 2 -130 4 78 33 l155 21 3 57 3 57 -68 4 -68 3 68 2 c55 2 67
5 67 19 0 15 -15 15 -152 9 -207 -8 -621 -16 -580 -10 19 3 32 11 32 20 0 9
-12 14 -32 15 -40 2 88 12 352 29 345 22 373 24 378 38 4 12 -41 15 -93 6z
m-390 -265 c-115 -18 -218 -18 -199 1 11 11 83 16 219 17 l100 1 -120 -19z
m-447 -6 c-10 -2 -26 -2 -35 0 -10 3 -2 5 17 5 19 0 27 -2 18 -5z m192 -9 c60
-13 8 -24 -105 -23 l-110 2 75 12 c96 16 101 16 140 9z m302 -101 c-40 -2
-103 -2 -140 0 -37 2 -4 3 73 3 77 0 107 -2 67 -3z"/>
<path d="M9600 7840 c0 -5 20 -10 45 -10 25 0 45 5 45 10 0 6 -20 10 -45 10
-25 0 -45 -4 -45 -10z"/>
<path d="M9602 7738 c2 -6 22 -11 43 -11 21 0 41 5 43 11 2 8 -12 12 -43 12
-31 0 -45 -4 -43 -12z"/>
<path d="M6785 7673 c-272 -15 -295 -17 -279 -33 7 -7 63 -7 160 -1 82 6 215
13 297 17 115 5 147 9 147 20 0 9 -11 14 -32 13 -18 -1 -150 -8 -293 -16z"/>
<path d="M9631 7671 c-14 -4 -26 -12 -29 -19 -3 -10 5 -12 34 -6 45 8 54 12
54 25 0 10 -23 10 -59 0z"/>
<path d="M6985 7634 c-38 -8 -161 -17 -272 -20 l-203 -7 0 -39 c0 -40 0 -40
38 -37 63 3 80 -4 22 -10 -54 -6 -55 -7 -58 -40 l-3 -34 93 6 c51 4 194 9 318
11 168 3 200 2 125 -4 -55 -5 -198 -12 -317 -16 -120 -3 -218 -11 -218 -15 0
-5 12 -9 26 -9 14 0 23 -4 19 -10 -3 -5 -15 -10 -26 -10 -10 0 -19 -4 -19 -10
0 -13 20 -13 158 5 120 15 820 27 785 13 -56 -21 -485 -62 -708 -68 -218 -5
-240 -7 -243 -22 -2 -12 3 -18 15 -19 15 0 14 -2 -4 -9 -42 -17 -23 -23 60
-17 l82 5 -79 -11 c-116 -17 -113 -37 6 -38 80 -1 87 -3 48 -10 -25 -4 -68 -8
-96 -8 -45 -1 -52 -4 -58 -23 -13 -51 -13 -51 99 -45 61 3 107 2 110 -4 4 -5
-40 -9 -109 -9 -64 0 -116 -4 -116 -9 0 -5 -3 -16 -6 -25 -5 -13 4 -16 52 -18
l59 -1 -59 -6 -60 -6 -35 -87 c-20 -49 -41 -88 -47 -88 -9 0 -34 -41 -34 -55
0 -3 105 -6 233 -7 l232 -2 -240 -6 c-152 -3 -239 -9 -238 -15 2 -5 47 -12
100 -15 90 -5 94 -6 49 -12 -27 -5 -75 -8 -107 -8 -47 0 -60 -4 -69 -19 -15
-29 -14 -29 33 -20 45 9 539 22 522 14 -14 -6 -465 -45 -529 -45 l-54 0 -51
-65 c-28 -35 -51 -66 -51 -68 0 -2 30 0 68 5 37 4 227 22 422 39 335 30 386
33 908 36 537 4 552 5 552 24 0 18 -9 19 -197 19 -108 0 -194 2 -191 5 3 4
340 35 381 35 4 0 7 11 7 25 l0 25 -282 3 -283 2 283 3 282 2 0 43 0 42 -178
2 c-97 1 -190 6 -207 12 -27 8 -25 9 25 10 30 1 124 6 208 13 l152 11 0 64 0
63 -382 2 c-416 2 -380 10 105 23 l277 8 0 65 0 65 -102 -7 c-183 -11 -536
-16 -498 -7 55 14 302 31 458 31 l142 0 0 58 0 57 -207 -2 -208 -1 180 18 c99
10 192 19 208 19 23 1 27 5 27 31 0 30 0 30 -57 31 -64 1 -62 4 10 14 44 6 47
8 47 36 l0 29 -419 0 c-231 0 -428 3 -438 7 -41 16 275 44 565 49 278 6 292 7
292 25 0 18 -13 19 -327 21 -181 1 -408 1 -506 -1 -161 -3 -177 -2 -171 13 8
20 -21 20 -121 0z m-70 -70 c-44 -8 -98 -13 -120 -11 -37 2 -35 3 25 13 36 6
90 11 120 12 55 0 54 -1 -25 -14z m360 0 c-55 -7 -147 -15 -205 -18 l-105 -5
100 18 c57 11 145 19 205 19 l105 0 -100 -14z m-467 -51 c-10 -2 -26 -2 -35 0
-10 3 -2 5 17 5 19 0 27 -2 18 -5z m265 -10 c-13 -2 -35 -2 -50 0 -16 2 -5 4
22 4 28 0 40 -2 28 -4z m782 -49 c-63 -8 -193 -12 -355 -12 l-255 1 230 12
c127 6 286 12 355 12 l125 1 -100 -14z m40 -42 c-20 -17 -429 -65 -585 -68
l-155 -3 230 30 c195 25 352 41 490 48 16 0 25 -3 20 -7z m-280 -112 c-92 -12
-293 -12 -275 0 8 5 86 9 175 8 122 -1 146 -3 100 -8z m-897 -17 c-10 -2 -26
-2 -35 0 -10 3 -2 5 17 5 19 0 27 -2 18 -5z m268 -14 c-20 -12 -235 -26 -225
-15 5 6 144 21 219 24 23 1 23 0 6 -9z m202 -6 c-10 -2 -28 -2 -40 0 -13 2 -5
4 17 4 22 1 32 -1 23 -4z m677 -3 c-38 -4 -108 -7 -155 -7 l-85 0 65 7 c36 4
106 7 155 7 l90 0 -70 -7z m-396 -35 c-3 -2 -51 -11 -107 -20 -95 -14 -432
-22 -420 -10 11 11 259 33 392 34 77 0 137 -1 135 -4z m306 -86 c-49 -4 -205
-6 -345 -6 -168 1 -223 3 -160 7 52 3 208 6 345 7 179 0 225 -2 160 -8z m-897
-66 c-32 -2 -84 -2 -115 0 -32 2 -6 3 57 3 63 0 89 -1 58 -3z m1067 -64 c-87
-11 -1253 -10 -1235 1 9 6 274 9 655 9 366 -1 614 -5 580 -10z m-1032 -126
c-40 -2 -107 -2 -150 0 -43 1 -10 3 72 3 83 0 118 -2 78 -3z m515 -60 c-87 -2
-229 -2 -315 0 -87 1 -16 3 157 3 173 0 244 -2 158 -3z m-219 -37 c-2 -2 -130
-6 -284 -8 -154 -3 -269 -2 -255 2 24 8 548 14 539 6z m736 -42 c-148 -27
-1033 -70 -1014 -50 3 4 80 17 170 30 149 22 196 24 514 24 193 -1 341 -2 330
-4z m-1216 -99 c-7 -6 -279 -28 -285 -22 -8 8 131 24 215 26 41 0 72 -1 70 -4z"/>
<path d="M9447 7623 c-4 -4 -194 -5 -422 -4 -414 2 -415 2 -415 -18 0 -20 6
-21 128 -22 l127 -2 -127 -15 -128 -16 0 -37 c0 -35 2 -38 33 -42 l32 -4 -32
-1 c-32 -2 -33 -4 -33 -43 0 -40 1 -41 28 -36 117 23 513 43 494 25 -4 -3 -78
-20 -164 -37 -112 -22 -187 -31 -258 -31 l-100 0 0 -35 0 -35 78 -1 c87 -1 66
-16 -25 -18 -45 -1 -53 -4 -53 -19 0 -17 8 -19 78 -16 42 1 61 0 42 -2 -116
-14 -120 -15 -120 -35 0 -18 9 -19 148 -20 l147 -2 -75 -13 c-41 -7 -108 -13
-147 -13 -71 -1 -73 -2 -73 -26 l0 -25 308 -1 c364 -2 330 -16 -60 -25 -198
-5 -248 -9 -248 -19 0 -9 15 -15 38 -18 l37 -4 -37 -1 -38 -2 0 -55 0 -56 33
5 c71 11 162 15 142 7 -11 -5 -55 -12 -97 -16 -67 -7 -78 -10 -78 -26 0 -17 9
-19 83 -19 85 0 226 15 476 50 150 21 498 28 456 10 -72 -32 -639 -90 -877
-90 l-138 0 0 -34 0 -34 73 -8 72 -8 -50 -8 c-97 -17 -95 -16 -95 -46 l0 -28
103 3 c56 2 135 4 175 6 193 7 -213 -61 -437 -73 -881 -47 -1206 -53 -701 -12
373 30 383 31 370 47 -6 7 -18 11 -28 9 -9 -2 -235 -22 -502 -44 -478 -39
-492 -40 -966 -40 -416 0 -483 -2 -494 -15 -11 -13 23 -15 296 -17 l309 -2
-317 -6 -316 -5 -26 -24 c-14 -14 -26 -29 -26 -34 0 -5 41 -8 99 -5 55 2 98 1
96 -2 -2 -4 -59 -15 -127 -25 -106 -17 -126 -23 -153 -47 l-30 -28 280 4 c294
5 294 1 1 -29 -82 -8 -192 -15 -246 -15 -92 0 -98 -1 -121 -27 -21 -23 -22
-25 -4 -18 11 4 155 9 320 11 281 3 295 2 220 -11 -52 -9 -167 -14 -330 -14
l-251 -1 -34 -30 -35 -29 40 -2 c38 -1 37 -2 -16 -11 -45 -8 -64 -17 -90 -44
l-33 -34 235 -1 c136 0 226 -4 214 -9 -41 -17 -245 -44 -379 -49 l-139 -6 -25
-32 -25 -33 299 -1 299 -1 -115 -13 c-63 -8 -201 -14 -306 -14 l-192 -1 -16
-25 c-9 -13 -16 -28 -16 -32 0 -4 111 -5 247 -2 273 7 687 9 663 3 -8 -2 -114
-18 -235 -35 -182 -26 -262 -32 -462 -36 -199 -4 -243 -8 -243 -19 0 -11 18
-14 73 -16 l72 -2 -75 -5 -75 -6 -3 -44 -3 -44 96 5 c55 3 91 2 83 -3 -7 -5
-50 -9 -95 -9 l-83 0 0 -27 c0 -36 16 -94 33 -116 12 -17 20 -17 137 -2 126
15 187 19 179 10 -5 -4 -266 -45 -290 -45 -6 0 -2 -14 8 -31 18 -30 19 -31 78
-25 69 7 930 17 900 10 -29 -6 -587 -63 -753 -77 -207 -17 -179 -31 74 -37
231 -6 229 -13 -9 -32 l-157 -12 22 -23 23 -22 222 9 c326 13 959 24 952 16
-4 -4 -65 -14 -135 -21 -93 -11 -257 -15 -579 -15 l-450 -1 67 -64 68 -65 147
-2 148 -2 -138 -3 c-121 -3 -137 -5 -127 -18 7 -8 16 -15 20 -15 4 0 26 -18
49 -40 l42 -40 311 0 c171 0 309 -2 306 -5 -13 -14 -261 -49 -382 -54 l-140
-6 57 -42 56 -43 168 -2 168 -2 -159 -6 -158 -5 52 -44 52 -44 161 22 c145 20
199 22 512 19 l350 -3 -150 -18 c-140 -17 -521 -36 -749 -37 -86 0 -97 -2 -86
-15 10 -12 36 -14 149 -10 l136 4 -123 -16 -124 -16 41 -40 c36 -37 45 -41 88
-41 47 1 48 1 6 -3 -24 -2 -43 -6 -43 -9 0 -2 21 -30 47 -62 32 -40 55 -59 77
-63 23 -5 25 -7 9 -8 -13 0 -23 -3 -23 -6 0 -3 10 -21 23 -40 15 -24 27 -33
37 -28 8 4 166 8 350 9 373 2 326 -9 -93 -21 -179 -6 -257 -11 -254 -19 3 -8
128 -13 408 -16 435 -5 439 -4 -123 -32 -137 -7 -248 -16 -248 -20 0 -4 11
-31 24 -60 13 -29 27 -63 31 -75 4 -14 15 -23 28 -24 17 -1 18 -2 5 -6 -21 -5
-22 -12 -8 -47 9 -25 12 -26 107 -27 l98 -2 -70 -9 c-118 -15 -118 -15 -110
-46 4 -15 8 -28 9 -29 1 -1 60 4 132 12 71 7 226 21 344 30 118 8 271 20 340
26 148 11 617 24 610 16 -10 -11 -238 -36 -460 -52 -124 -8 -382 -27 -574 -40
-193 -14 -358 -25 -368 -25 -10 0 -18 -7 -18 -16 0 -15 12 -16 113 -9 61 4
110 5 107 2 -3 -3 -50 -10 -105 -17 -55 -7 -101 -13 -103 -15 -2 -2 2 -47 9
-100 l12 -97 46 6 c25 3 75 8 111 11 52 4 59 3 35 -5 -16 -6 -67 -13 -112 -17
-70 -5 -83 -9 -83 -24 0 -51 -12 -49 339 -49 214 0 321 -4 311 -10 -9 -6 -143
-10 -327 -10 l-313 0 0 -59 0 -59 48 4 c35 3 42 2 27 -5 -11 -5 -30 -10 -42
-10 -21 -1 -40 -17 -30 -27 2 -2 58 7 123 21 107 23 137 25 299 23 l180 -3
-233 -44 c-223 -42 -285 -47 -363 -29 -6 2 -14 -3 -16 -9 -3 -8 4 -13 19 -14
l23 0 -22 -11 c-12 -6 -25 -24 -28 -39 l-7 -29 -279 0 c-220 0 -279 3 -279 13
0 10 -67 12 -327 10 -181 -2 -323 -1 -318 2 36 16 271 57 403 70 214 20 242
25 242 37 0 7 -25 9 -77 5 -89 -7 -73 7 20 19 l59 7 -6 36 c-15 84 -17 90 -39
94 -21 4 -21 4 1 6 13 0 21 5 18 9 -3 5 -8 23 -11 40 -13 78 -18 82 -91 82
-78 0 -77 13 0 20 50 5 53 6 45 28 l-8 22 -362 0 c-199 0 -359 3 -355 7 4 4
164 6 356 5 312 -3 349 -1 344 13 -5 12 -30 15 -148 17 -117 1 -130 2 -76 8
36 4 93 8 128 9 48 1 62 4 62 16 0 25 -26 28 -133 16 -135 -15 -519 -43 -524
-38 -9 9 531 77 611 77 6 0 3 7 -6 16 -14 14 -31 14 -199 -5 -101 -11 -236
-25 -299 -31 -63 -5 -241 -22 -395 -37 -280 -26 -731 -42 -615 -22 199 35 578
111 595 119 28 14 360 57 535 70 80 6 173 13 207 16 l62 5 -51 46 -52 46 -395
-6 c-239 -4 -388 -3 -376 3 11 5 183 9 383 9 199 1 362 5 362 9 0 4 -14 16
-31 26 -29 17 -51 18 -292 13 -231 -6 -257 -5 -222 8 29 10 100 14 250 15
l210 1 -35 29 c-23 20 -46 30 -69 30 -27 0 -31 3 -22 14 9 11 -1 21 -49 53
-57 37 -63 39 -113 32 -28 -4 -101 -7 -162 -7 -98 0 -104 1 -60 10 28 5 95 12
150 16 l100 7 -75 50 c-135 91 -128 89 -275 76 -148 -14 -733 -27 -724 -17 18
19 402 56 583 56 60 0 107 3 103 6 -14 15 -225 34 -374 34 -160 0 -336 -17
-443 -44 l-55 -14 90 -2 90 -3 -75 -12 c-41 -7 -115 -16 -165 -20 -49 -4 -106
-11 -125 -17 -39 -11 -221 -88 -232 -97 -4 -4 221 -5 500 -4 469 2 499 1 407
-12 -72 -10 -221 -14 -533 -14 -328 -1 -439 -4 -455 -13 -18 -11 29 -14 268
-18 l290 -5 -308 -3 c-292 -2 -308 -3 -327 -22 -11 -11 -24 -20 -28 -20 -4 0
-28 -14 -52 -32 -43 -32 -43 -33 -19 -39 21 -7 21 -7 -7 -6 -30 1 -90 -37
-125 -79 -13 -16 -12 -17 11 -10 73 20 1624 36 1573 16 -12 -5 -291 -14 -620
-20 -329 -6 -687 -13 -797 -17 -189 -6 -200 -7 -225 -29 l-26 -23 264 -1 c145
0 262 -2 260 -4 -2 -2 -107 -11 -234 -20 -273 -19 -295 -22 -295 -41 0 -13 72
-15 518 -16 284 0 513 -2 507 -4 -34 -13 -390 -35 -569 -35 -250 0 -456 -10
-456 -21 0 -5 123 -10 273 -12 l272 -2 -272 -3 c-174 -1 -273 -6 -273 -12 0
-6 93 -10 258 -11 248 -1 255 -2 202 -16 -37 -11 -120 -17 -253 -20 -144 -4
-197 -8 -194 -16 2 -8 38 -14 93 -17 l89 -5 -53 -12 c-30 -7 -67 -13 -83 -13
-34 0 -35 -8 -12 -72 21 -58 5 -57 303 -23 193 22 252 25 585 24 366 -1 406
-6 235 -29 -41 -5 -257 -17 -480 -25 -581 -22 -613 -24 -599 -41 8 -10 42 -14
128 -15 l116 -2 -109 -8 c-60 -5 -110 -10 -112 -12 -9 -8 100 -117 116 -117
13 0 17 -5 14 -15 -7 -19 -4 -19 104 0 67 12 151 15 347 13 l260 -3 -245 -53
c-271 -59 -309 -70 -243 -71 23 -1 154 24 290 54 340 74 353 76 638 73 l250
-3 -190 -33 c-375 -66 -583 -93 -775 -99 -128 -4 -176 -9 -155 -15 40 -11
5280 -10 5325 1 22 6 -132 10 -425 11 -253 1 -525 5 -605 9 l-145 6 115 13
c115 14 469 64 862 122 167 24 239 30 376 30 l170 0 36 43 35 42 -217 5 -217
5 115 23 c76 14 152 22 225 22 103 0 149 9 132 26 -4 4 1 16 10 27 18 20 17
20 -22 13 -212 -35 -227 -36 -615 -29 -212 3 -380 7 -375 9 6 1 31 5 58 9 31
4 47 11 47 21 0 12 -41 14 -262 14 -144 0 -258 3 -254 8 4 4 331 9 727 12 469
3 719 8 719 15 0 6 -204 12 -582 15 -693 6 -638 19 121 29 366 5 475 9 479 19
2 8 -9 12 -37 12 -24 0 -41 5 -41 11 0 11 -233 9 -715 -6 -207 -6 -116 11 130
24 282 16 589 43 600 53 6 5 0 11 -15 16 -20 6 -14 8 29 12 31 3 56 10 59 18
3 9 -40 12 -194 12 -108 0 -195 2 -192 5 3 4 340 35 381 35 4 0 7 7 7 15 0 10
-11 15 -32 16 l-33 1 29 7 c16 3 31 12 34 19 5 15 12 16 -104 -8 -99 -21 -456
-60 -719 -79 -77 -5 -234 -7 -350 -4 -209 6 -210 6 -170 24 28 12 118 23 305
39 146 12 357 31 470 42 113 11 286 23 385 27 l180 6 1 43 c2 47 2 47 -68 26
-10 -3 -18 -1 -18 5 0 7 -40 11 -112 12 -94 1 -104 3 -63 9 28 5 99 9 158 9
l108 1 -3 33 -3 32 -404 -2 c-413 -2 -504 7 -256 26 72 6 250 13 398 17 251 6
267 8 267 25 0 17 -10 19 -112 20 -113 2 -113 2 -43 10 144 17 155 20 155 35
0 12 -61 14 -412 15 -339 0 -406 3 -373 13 23 7 40 18 40 26 0 12 -25 16 -130
20 -115 4 -123 6 -70 12 33 4 107 10 165 13 58 3 164 10 235 15 72 5 202 14
290 20 220 14 255 19 255 36 0 12 -34 14 -194 14 -163 0 -195 2 -200 15 -5 13
21 15 194 15 l200 0 0 25 0 25 -277 2 c-307 2 -304 4 36 21 162 8 236 16 238
24 3 7 -9 13 -29 16 l-33 4 33 1 c21 1 32 7 32 17 0 13 -40 15 -297 15 -163 0
-294 3 -291 6 17 16 213 34 389 34 l196 0 2 46 c1 46 1 46 -26 40 -16 -3 -129
-8 -253 -11 -213 -4 -221 -4 -155 10 44 9 138 14 253 14 155 1 182 3 182 16 0
12 -15 15 -67 16 -70 1 -61 8 30 23 36 7 37 8 37 51 l0 45 -167 1 c-121 1
-154 4 -118 9 28 5 103 9 168 9 l118 1 -3 33 -3 32 -195 5 -195 6 198 2 c167
2 197 4 197 17 0 13 -25 15 -162 15 -133 1 -159 3 -143 13 12 7 76 14 159 17
95 3 141 9 143 17 3 7 -10 13 -34 16 l-38 4 38 1 37 2 0 51 0 52 -52 -8 c-188
-25 -357 -37 -600 -42 -153 -3 -278 -3 -278 0 0 4 17 15 38 26 25 13 103 28
226 45 159 22 226 26 427 26 206 0 239 2 239 15 0 12 -20 15 -117 16 -127 1
-112 11 40 24 55 6 77 11 77 21 0 12 -49 14 -272 14 l-273 1 40 21 c27 14 77
25 165 34 69 7 152 18 185 24 33 6 80 14 105 18 33 5 46 12 48 26 4 21 12 21
-223 0 l-60 -5 44 20 c35 17 63 21 142 21 99 0 99 0 99 25 0 24 -2 24 -47 19
-36 -4 -44 -3 -33 5 8 6 30 11 48 11 27 0 32 3 32 25 0 25 -1 25 -72 21 l-73
-5 70 12 c69 12 70 13 73 45 3 26 -1 34 -20 41 l-23 10 23 0 c12 1 22 6 22 12
0 7 -35 9 -107 5 l-108 -5 85 10 c123 15 130 17 130 39 0 14 -9 21 -33 25 -18
4 -506 5 -1084 3 -579 -2 -1049 0 -1045 3 10 10 444 18 1350 25 715 6 812 9
812 22 0 13 -83 14 -727 10 -652 -4 -718 -3 -633 10 69 10 266 16 724 20 490
6 630 10 634 20 3 9 -85 12 -415 13 -230 0 -413 2 -408 4 40 15 344 39 559 44
194 5 260 9 264 19 2 6 -7 16 -20 21 l-23 10 23 0 c12 1 22 6 22 11 0 12 -43
12 -135 0 -38 -5 -101 -6 -140 -2 l-70 7 65 6 c36 4 99 7 141 8 42 0 91 4 108
7 28 6 31 10 31 41 l0 35 -97 -6 c-186 -11 -1202 -16 -1148 -4 29 6 302 13
644 16 459 6 595 10 598 19 4 10 -87 13 -419 15 l-423 3 205 28 c113 15 288
39 390 52 280 38 250 28 248 84 -2 41 -5 49 -23 50 -11 1 -78 5 -150 9 l-130
7 85 13 c47 8 114 17 150 20 l65 7 3 42 3 42 -43 4 -43 4 43 1 c38 2 43 5 40
24 -3 21 -7 21 -148 20 l-145 -1 110 23 c61 13 127 26 148 30 32 6 38 11 35
29 -3 22 -6 22 -233 27 -126 3 -207 7 -180 8 28 1 115 13 195 27 80 14 162 28
183 31 34 6 37 9 37 40 0 33 -1 34 -42 35 l-43 2 40 6 c26 4 40 11 40 21 0 12
-23 14 -139 11 -98 -2 -136 0 -132 8 5 7 55 11 142 11 131 0 164 9 112 30
l-23 9 23 0 c19 1 22 6 22 39 l0 37 -377 -2 c-359 -1 -374 0 -303 14 51 10
170 16 378 20 169 3 302 9 302 14 0 5 -84 9 -187 10 -188 1 -188 1 -118 15 39
7 123 16 188 20 l117 7 0 29 0 28 -76 0 c-47 0 -73 4 -69 10 3 6 37 10 76 10
l69 0 0 36 0 36 -62 -6 -63 -5 60 12 60 12 2 63 1 62 -41 1 -42 1 42 9 c38 9
41 12 40 42 l-2 32 -98 -1 c-82 -1 -96 1 -86 12 9 11 6 14 -18 14 -16 0 -33
-3 -36 -7z m58 -48 c-17 -6 -335 -44 -430 -51 -49 -3 -86 -2 -82 2 14 15 310
52 417 52 58 0 101 -1 95 -3z m-547 -22 c-10 -2 -26 -2 -35 0 -10 3 -2 5 17 5
19 0 27 -2 18 -5z m-103 -14 c-22 -4 -58 -7 -80 -7 -39 1 -38 1 10 8 28 4 64
7 80 7 25 1 23 -1 -10 -8z m105 -80 c-14 -6 -77 -12 -140 -14 l-115 -4 80 13
c101 17 212 20 175 5z m365 -9 c-4 -6 -61 -9 -143 -9 -90 1 -123 4 -97 9 64
11 247 11 240 0z m288 -7 c-35 -2 -91 -2 -125 0 -35 2 -7 3 62 3 69 0 97 -1
63 -3z m-8 -31 c-6 -5 -95 -23 -200 -41 -148 -24 -218 -31 -315 -30 l-125 1
125 30 c101 24 158 31 300 37 96 4 186 8 200 9 14 1 20 -2 15 -6z m-172 -69
c-7 -2 -19 -2 -25 0 -7 3 -2 5 12 5 14 0 19 -2 13 -5z m-468 -43 c-75 -12
-243 -12 -225 0 8 5 74 9 145 9 101 -1 119 -3 80 -9z m274 6 c-2 -2 -26 -6
-54 -10 -36 -5 -46 -4 -35 3 13 10 99 16 89 7z m174 -3 c-7 -2 -21 -2 -30 0
-10 3 -4 5 12 5 17 0 24 -2 18 -5z m-410 -40 c-13 -2 -35 -2 -50 0 -16 2 -5 4
22 4 28 0 40 -2 28 -4z m552 -3 c-41 -10 -258 -10 -225 0 14 4 77 8 140 8 73
0 104 -3 85 -8z m-237 -36 c-3 -3 -48 -12 -99 -19 -89 -14 -409 -21 -397 -9 3
3 41 11 84 18 77 13 423 22 412 10z m237 -159 c-38 -7 -122 -13 -185 -13
l-115 1 85 12 c47 7 130 12 185 13 l100 0 -70 -13z m-355 -55 c-104 -12 -293
-12 -285 0 4 6 69 9 178 9 133 -1 157 -3 107 -9z m245 -40 c-29 -12 -268 -12
-260 0 4 6 62 10 143 9 86 0 130 -4 117 -9z m-409 -60 c-16 -5 -61 -11 -100
-14 l-71 -5 70 13 c39 8 84 14 100 14 l30 0 -29 -8z m-189 -26 c-3 -3 -12 -4
-19 -1 -8 3 -5 6 6 6 11 1 17 -2 13 -5z m772 -98 c-2 -2 -78 -19 -169 -37
-134 -27 -185 -33 -270 -31 -58 1 -121 5 -140 10 -31 7 -26 9 48 16 57 5 82
11 79 19 -2 9 -64 14 -208 17 -155 4 -99 6 230 8 239 1 432 0 430 -2z m-666
-72 c127 -11 76 -24 -95 -24 -164 0 -192 6 -96 20 73 10 103 11 191 4z m502
-63 l40 -9 -35 -1 c-19 -1 -158 -8 -309 -16 -151 -8 -276 -13 -278 -11 -2 2
38 11 89 20 51 9 113 21 138 26 50 10 293 4 355 -9z m-707 -78 c-15 -2 -42 -2
-60 0 -18 2 -6 4 27 4 33 0 48 -2 33 -4z m-110 -10 c-10 -2 -28 -2 -40 0 -13
2 -5 4 17 4 22 1 32 -1 23 -4z m-310 -8 c-3 -3 -72 -13 -154 -21 -112 -12
-277 -17 -669 -19 l-520 -2 400 7 c220 4 486 13 590 19 373 23 359 22 353 16z
m635 -2 c-7 -2 -21 -2 -30 0 -10 3 -4 5 12 5 17 0 24 -2 18 -5z m-288 -33
c-235 -26 -630 -48 -590 -31 11 4 101 14 200 20 99 7 252 18 340 25 275 22
300 15 50 -14z m554 16 c-16 -16 -523 -65 -536 -52 -7 7 44 15 202 31 216 22
343 30 334 21z m261 -47 c-129 -11 -278 -11 -260 1 8 5 88 9 180 8 148 -1 156
-2 80 -9z m-2035 -35 c-94 -16 -507 -57 -655 -64 -198 -10 -687 -13 -678 -5
13 13 307 58 423 65 129 7 948 10 910 4z m550 -10 c-158 -20 -345 -33 -545
-37 -102 -2 -177 -2 -167 0 10 3 107 15 215 28 143 16 251 23 397 23 l200 -1
-100 -13z m443 9 c-16 -2 -40 -2 -55 0 -16 2 -3 4 27 4 30 0 43 -2 28 -4z
m-105 -10 c-13 -2 -33 -2 -45 0 -13 2 -3 4 22 4 25 0 35 -2 23 -4z m597 -20
c-58 -8 -276 -38 -485 -69 -209 -30 -398 -54 -420 -53 -55 1 637 117 760 128
55 4 134 8 175 8 l75 0 -105 -14z m367 11 c-3 -3 -12 -4 -19 -1 -8 3 -5 6 6 6
11 1 17 -2 13 -5z m218 -10 c-44 -8 -89 -12 -100 -10 -13 2 -9 4 10 5 17 1 39
6 50 11 11 5 43 8 70 8 46 0 44 -1 -30 -14z m-282 -1 c-7 -2 -21 -2 -30 0 -10
3 -4 5 12 5 17 0 24 -2 18 -5z m-744 -7 c-7 -8 -411 -73 -584 -96 -135 -17
-212 -20 -490 -19 -181 1 -323 3 -315 5 20 5 862 80 1050 94 234 17 345 22
339 16z m886 -11 c-5 -2 -95 -15 -200 -29 -104 -14 -275 -37 -379 -51 -166
-22 -429 -35 -414 -20 2 3 137 19 299 35 162 17 366 39 454 49 148 17 264 25
240 16z m-2267 -60 c-17 -18 -251 -37 -488 -40 -146 -2 -254 -1 -240 1 111 21
374 42 539 43 107 1 192 -1 189 -4z m282 -91 c-58 -8 -195 -12 -425 -12 -305
1 -332 2 -265 13 50 8 193 12 425 12 323 0 344 -1 265 -13z m370 0 c-41 -7
-115 -12 -165 -12 l-90 1 90 12 c50 7 124 12 165 12 l75 0 -75 -13z m510 0
c-47 -7 -128 -12 -180 -12 l-95 0 70 13 c39 7 120 12 180 12 l110 0 -85 -13z
m-1452 -69 c-2 -3 -93 -16 -202 -30 -164 -21 -238 -25 -453 -25 -141 0 -254 2
-251 5 3 3 79 16 169 29 141 21 204 24 453 25 159 1 287 -1 284 -4z m451 0
c-14 -14 -566 -62 -578 -50 -2 3 2 5 10 6 8 0 93 11 189 24 155 20 392 33 379
20z m526 0 c-5 -2 -114 -20 -242 -40 -190 -29 -257 -35 -375 -34 -108 1 -134
3 -108 10 91 25 782 85 725 64z m1075 -4 l45 -8 -40 -2 c-22 -1 -305 -15 -630
-31 -567 -29 -724 -34 -698 -24 6 3 107 20 225 39 l213 33 420 0 c231 0 440
-3 465 -7z m417 -40 c16 -4 -158 -11 -385 -16 -422 -7 -548 -3 -265 10 87 4
214 11 283 15 131 9 321 4 367 -9z m-2682 -60 c-38 -16 -261 -33 -385 -29
l-125 3 110 16 c113 17 437 25 400 10z m512 2 c-16 -16 -195 -32 -337 -32
-170 1 -172 3 -25 23 103 14 373 21 362 9z m1113 -9 c-144 -12 -886 -28 -830
-18 95 18 391 31 665 31 l320 0 -155 -13z m560 0 c-52 -7 -178 -15 -280 -18
-102 -2 -169 -2 -150 0 66 9 395 31 460 31 65 0 65 0 -30 -13z m-2310 -64
c-141 -10 -302 -10 -240 0 25 4 113 7 195 7 l150 0 -105 -7z m725 -6 c-88 -6
-234 -12 -325 -12 l-165 1 95 12 c52 7 199 12 325 12 l230 0 -160 -13z m1050
11 c-19 -8 -633 -46 -890 -55 -487 -18 -960 -30 -1090 -29 -245 4 -28 18 405
28 223 5 473 14 555 21 380 30 528 37 770 38 143 0 256 -1 250 -3z m1320 -120
c-17 -7 -424 -54 -550 -65 -127 -10 -698 -12 -631 -1 50 8 61 31 14 31 -18 -1
-82 -8 -143 -16 -76 -11 -253 -18 -570 -25 -253 -5 -566 -11 -695 -14 -274 -5
-267 2 35 40 146 19 213 31 220 41 8 12 178 14 1170 13 638 0 1156 -2 1150 -4z
m-2770 -55 c-244 -36 -274 -39 -490 -39 -126 0 -224 3 -217 6 7 3 120 20 250
38 214 30 260 33 477 33 l240 0 -260 -38z m2770 -70 c-11 -4 -76 -17 -145 -29
-119 -20 -153 -21 -705 -19 -319 1 -492 4 -385 5 107 2 204 7 215 12 46 21
101 24 545 31 256 3 472 7 480 7 8 1 6 -2 -5 -7z m-3452 -7 c-62 -2 -164 -2
-225 0 -62 1 -12 3 112 3 124 0 174 -2 113 -3z m-545 -40 c-15 -2 -42 -2 -60
0 -18 2 -6 4 27 4 33 0 48 -2 33 -4z m1085 0 c-29 -2 -77 -2 -105 0 -29 2 -6
3 52 3 58 0 81 -1 53 -3z m505 0 c-43 -2 -113 -2 -155 0 -43 1 -8 3 77 3 85 0
120 -2 78 -3z m-999 -37 c-2 -2 -44 -6 -94 -9 -56 -3 -73 -2 -45 2 49 9 146
13 139 7z m716 -8 c-35 -11 -463 -24 -453 -13 5 6 276 20 443 23 40 0 40 0 10
-10z m2640 0 c-13 -8 -83 -13 -195 -15 -96 -1 -170 0 -165 2 25 12 140 23 255
23 101 1 121 -1 105 -10z m-834 -8 c-34 -8 -326 -15 -371 -9 -21 3 189 12 355
16 45 1 47 0 16 -7z m-2844 -46 c-3 -3 -12 -4 -19 -1 -8 3 -5 6 6 6 11 1 17
-2 13 -5z m303 -4 c-30 -5 -73 -8 -95 -8 l-40 1 45 7 c25 4 68 7 95 7 l50 0
-55 -7z m1520 -1 c-638 -24 -1159 -34 -1147 -23 3 3 46 12 94 19 64 9 249 13
673 12 452 0 539 -2 380 -8z m1148 6 c-6 -6 -546 -45 -603 -44 -77 3 381 47
494 48 63 0 112 -1 109 -4z m582 0 c0 -2 -21 -14 -47 -25 -37 -16 -104 -27
-289 -46 -133 -13 -317 -35 -410 -49 -192 -28 -245 -31 -170 -8 29 9 50 22 53
32 6 25 216 58 481 76 119 8 237 16 262 18 82 6 120 7 120 2z m-3655 -15
c-114 -15 -220 -22 -213 -15 9 9 135 22 213 22 l60 0 -60 -7z m2145 -32 c-149
-18 -239 -20 -925 -23 -418 -2 -742 0 -720 5 22 4 279 11 570 15 292 4 625 10
740 14 116 4 275 8 355 8 l145 1 -165 -20z m-1855 -18 c-16 -4 -52 -8 -80 -7
l-50 0 40 7 c22 4 58 7 80 7 38 1 38 0 10 -7z m-362 -7 c-13 -2 -35 -2 -50 0
-16 2 -5 4 22 4 28 0 40 -2 28 -4z m1242 -34 c-425 -27 -1312 -57 -1265 -43 8
2 89 15 180 28 158 23 188 24 690 24 381 -1 489 -3 395 -9z m1552 5 c-13 -13
-196 -54 -242 -53 -65 1 -55 4 95 33 136 26 156 29 147 20z m-257 -15 c-162
-33 -261 -39 -599 -37 -384 1 -351 8 134 27 160 7 297 14 305 15 8 2 58 4 110
4 83 0 89 -1 50 -9z m900 -19 c-27 -15 -54 -19 -120 -18 l-85 1 100 17 c134
24 149 24 105 0z m-2195 -10 c-27 -5 -122 -8 -210 -7 l-160 1 115 6 c63 3 158
6 210 7 80 0 87 -1 45 -7z m730 -51 c-27 -5 -232 -13 -455 -18 -223 -5 -441
-12 -485 -15 -100 -7 -89 -1 45 23 92 16 156 19 525 19 266 -1 402 -4 370 -9z
m828 4 c-7 -2 -19 -2 -25 0 -7 3 -2 5 12 5 14 0 19 -2 13 -5z m497 -8 c-20
-11 -71 -14 -240 -13 -204 0 -211 1 -145 13 39 7 147 13 240 13 152 1 167 0
145 -13z m360 -1 c-47 -7 -139 -13 -205 -13 -109 0 -118 1 -95 14 19 11 66 14
205 13 l180 -1 -85 -13z m-2757 -11 c-7 -2 -19 -2 -25 0 -7 3 -2 5 12 5 14 0
19 -2 13 -5z m-108 -19 c-38 -7 -106 -12 -150 -12 l-80 1 100 12 c55 7 123 12
150 12 49 1 49 1 -20 -13z m-242 -21 c-7 -2 -21 -2 -30 0 -10 3 -4 5 12 5 17
0 24 -2 18 -5z m677 -3 c-41 -5 -167 -10 -280 -13 -113 -3 -182 -3 -155 0 85
7 356 20 435 20 l75 0 -75 -7z m1954 0 c-13 -13 -71 -23 -337 -60 l-218 -30
-482 1 -482 2 195 12 c178 12 325 31 530 69 92 17 811 23 794 6z m109 3 c-7
-2 -21 -2 -30 0 -10 3 -4 5 12 5 17 0 24 -2 18 -5z m-1463 -29 c-80 -13 -233
-28 -340 -33 -401 -22 -1108 -38 -1035 -25 69 13 464 36 780 45 204 6 431 17
505 24 216 20 254 16 90 -11z m418 19 c-10 -2 -26 -2 -35 0 -10 3 -2 5 17 5
19 0 27 -2 18 -5z m-93 -14 c-22 -4 -53 -7 -70 -7 -26 1 -24 2 10 8 22 4 54 7
70 7 25 1 23 -1 -10 -8z m-117 -16 c-10 -2 -26 -2 -35 0 -10 3 -2 5 17 5 19 0
27 -2 18 -5z m1032 -18 c0 -2 -13 -11 -30 -20 -19 -10 -54 -15 -102 -14 -81 1
-74 5 46 24 44 7 82 13 84 14 1 0 2 -1 2 -4z m790 -55 c-38 -12 -99 -12 -80 0
8 5 35 9 60 9 37 -1 41 -2 20 -9z m-1442 -5 c-3 -3 -59 -12 -124 -20 -91 -12
-230 -15 -604 -14 -267 1 -476 4 -465 6 127 25 255 31 709 32 269 1 487 -1
484 -4z m412 -5 c-101 -10 -292 -10 -230 0 25 4 104 7 175 7 115 0 122 -1 55
-7z m595 -12 c-16 -5 -88 -11 -160 -13 -71 -2 -116 -1 -100 1 44 7 215 21 255
22 l35 0 -30 -10z m265 3 c0 -10 -136 -26 -166 -19 -10 3 10 9 46 15 86 14
120 15 120 4z m-846 -66 c-16 -12 -86 -14 -444 -13 -243 0 -404 4 -375 8 28 5
142 9 255 10 113 2 288 5 390 9 102 3 187 5 189 3 3 -1 -4 -9 -15 -17z m271
17 c-11 -10 -153 -32 -204 -32 -28 0 -33 3 -23 13 11 10 69 17 207 25 16 1 25
-2 20 -6z m-1690 -17 c-85 -8 -276 -13 -485 -12 -190 0 -320 2 -290 4 100 7
612 20 765 20 l150 0 -140 -12z m1883 8 c-10 -2 -26 -2 -35 0 -10 3 -2 5 17 5
19 0 27 -2 18 -5z m342 -8 c-17 -10 -55 -14 -120 -14 -52 0 -90 2 -85 5 15 6
145 21 190 22 40 1 40 1 15 -13z m-1902 -12 c-15 -2 -42 -2 -60 0 -18 2 -6 4
27 4 33 0 48 -2 33 -4z m-1095 -40 c-62 -2 -165 -2 -230 0 -65 1 -14 3 112 3
127 0 180 -2 118 -3z m749 0 c-40 -2 -103 -2 -140 0 -37 2 -4 3 73 3 77 0 107
-2 67 -3z m995 0 c-137 -2 -357 -2 -490 0 -133 1 -21 2 248 2 270 0 378 -1
242 -2z m630 0 c-20 -2 -52 -2 -70 0 -17 2 0 4 38 4 39 0 53 -2 32 -4z m316 0
c-23 -2 -64 -2 -90 0 -26 2 -7 3 42 3 50 0 71 -1 48 -3z m-2260 -40 c-29 -2
-78 -2 -110 0 -32 2 -8 3 52 3 61 0 87 -1 58 -3z m982 -3 c-197 -12 -727 -11
-720 0 4 6 154 9 423 8 281 -1 378 -4 297 -8z m615 0 c-20 -13 -43 -13 -35 0
3 6 16 10 28 10 18 0 19 -2 7 -10z m138 3 c-16 -2 -40 -2 -55 0 -16 2 -3 4 27
4 30 0 43 -2 28 -4z m591 3 c-2 -2 -42 -7 -88 -10 -58 -5 -81 -4 -76 3 3 6 40
11 87 11 45 0 79 -2 77 -4z m396 -7 c-198 -10 -295 -10 -295 1 0 6 76 9 213 8
209 -1 210 -2 82 -9z m-3360 -39 c-16 -4 -46 -8 -65 -8 -32 0 -33 1 -10 8 14
4 43 8 65 8 38 0 39 -1 10 -8z m470 0 c34 -5 -5 -7 -125 -7 -100 -1 -162 3
-145 7 39 10 207 10 270 0z m725 0 c-70 -10 -287 -10 -365 0 -38 4 28 7 180 7
151 0 220 -3 185 -7z m575 0 c-16 -4 -86 -7 -155 -7 -85 0 -111 2 -80 7 63 10
273 10 235 0z m360 0 c-41 -11 -218 -11 -185 0 14 4 68 8 120 8 64 0 85 -3 65
-8z m362 4 c-3 -3 -12 -4 -19 -1 -8 3 -5 6 6 6 11 1 17 -2 13 -5z m-1622 -44
c-11 -5 -234 -8 -495 -8 -261 0 -461 4 -445 8 42 11 965 11 940 0z m660 0
c-39 -10 -155 -10 -225 0 -40 5 -13 7 100 7 90 1 142 -3 125 -7z m370 0 c-41
-10 -228 -10 -195 0 14 4 70 8 125 8 66 0 90 -3 70 -8z m1622 -37 c-4 -3 -66
-16 -139 -29 -130 -23 -148 -23 -803 -23 -425 0 -664 3 -654 9 16 9 263 37
384 43 123 6 1218 7 1212 0z m-2377 -22 c-36 -20 -188 -31 -428 -30 -141 0
-252 2 -247 5 58 24 717 49 675 25z m307 -1 c-15 -5 -74 -11 -130 -14 l-102
-5 80 13 c94 16 197 20 152 6z m136 -95 l-103 -33 -299 -4 c-165 -1 -297 -1
-294 2 14 15 530 68 658 68 l140 0 -102 -33z m382 21 c50 -12 49 -12 -130 -34
-99 -12 -200 -22 -225 -21 -42 0 -38 2 60 34 115 37 203 43 295 21z m1044 10
c-7 -7 -321 -35 -464 -41 -71 -3 -157 -8 -190 -10 -52 -5 -58 -4 -42 8 9 8 17
20 17 27 0 9 -25 11 -107 6 -60 -3 -124 -2 -143 3 -22 6 138 9 449 10 266 1
482 -1 480 -3z m-2777 -23 c-40 -2 -103 -2 -140 0 -37 2 -4 3 73 3 77 0 107
-2 67 -3z m1938 -33 c0 -6 -39 -10 -97 -10 -54 0 -115 -3 -135 -6 -25 -4 -38
-3 -38 4 0 11 52 16 198 20 42 1 72 -2 72 -8z m920 0 c0 -5 -21 -10 -47 -10
-27 0 -100 -3 -163 -6 -67 -4 -112 -3 -107 2 5 5 75 11 155 15 81 3 150 6 155
7 4 1 7 -2 7 -8z m-484 -51 c-37 -4 -78 -4 -90 1 -14 6 9 9 69 8 l90 -1 -69
-8z m-176 -9 c0 -5 -16 -10 -35 -10 -19 0 -35 5 -35 10 0 6 16 10 35 10 19 0
35 -4 35 -10z m-803 -10 c-36 -11 -314 -25 -305 -16 12 14 104 24 218 24 78 0
106 -2 87 -8z m253 0 c-36 -11 -112 -11 -85 0 11 5 40 8 65 8 37 0 41 -1 20
-8z m205 0 c-16 -4 -39 -8 -50 -9 -16 -1 -17 1 -5 9 8 5 31 9 50 9 l35 -1 -30
-8z m215 0 c-8 -5 -28 -9 -45 -9 -26 0 -27 2 -10 9 11 5 31 9 45 9 20 1 22 -1
10 -9z m523 3 c-7 -2 -19 -2 -25 0 -7 3 -2 5 12 5 14 0 19 -2 13 -5z m-60 -10
c-7 -2 -19 -2 -25 0 -7 3 -2 5 12 5 14 0 19 -2 13 -5z m-222 -34 c-24 -10
-304 -23 -285 -14 17 9 161 22 239 23 54 1 64 -1 46 -9z m684 1 c-47 -12 -477
-12 -470 0 4 6 98 10 253 9 136 -1 234 -5 217 -9z m-1816 -5 c-14 -13 -257
-57 -339 -61 l-95 -4 85 26 c50 15 126 29 185 33 137 11 169 12 164 6z m181
-6 c-25 -4 -58 -7 -75 -7 l-30 0 30 8 c17 4 50 8 75 8 l45 -1 -45 -8z m-542
-4 c-3 -3 -46 -17 -96 -31 -85 -23 -104 -24 -294 -22 l-203 3 215 23 c279 29
388 37 378 27z m1732 -24 c43 -12 -156 -31 -317 -30 -117 1 -139 3 -103 10
121 25 362 36 420 20z m153 2 c-7 -2 -21 -2 -30 0 -10 3 -4 5 12 5 17 0 24 -2
18 -5z m-758 -23 c-16 -4 -70 -7 -120 -7 l-90 1 75 6 c41 4 95 7 120 7 40 1
41 0 15 -7z m-770 -76 c-49 -8 -99 -12 -110 -11 -32 5 85 25 145 25 50 -1 46
-2 -35 -14z m305 1 c-41 -8 -102 -13 -135 -13 l-60 1 60 12 c33 7 94 13 135
13 l75 0 -75 -13z m390 -1 c-52 -7 -140 -13 -195 -12 l-100 1 70 12 c39 7 126
13 195 13 l125 0 -95 -14z m528 9 c-21 -2 -55 -2 -75 0 -21 2 -4 4 37 4 41 0
58 -2 38 -4z m498 -8 c17 -13 -4 -14 -191 -13 l-210 1 145 12 c207 17 234 17
256 0z m-2116 -5 c-14 -4 -50 -8 -80 -8 -49 1 -51 1 -20 8 19 4 55 8 80 8 36
0 40 -2 20 -8z m1493 3 c-7 -2 -19 -2 -25 0 -7 3 -2 5 12 5 14 0 19 -2 13 -5z
m-1860 -50 c-7 -2 -19 -2 -25 0 -7 3 -2 5 12 5 14 0 19 -2 13 -5z m707 1 c-26
-7 -530 -64 -619 -70 -158 -12 -78 5 169 35 135 17 261 32 280 34 46 5 189 6
170 1z m310 -4 c-25 -4 -88 -10 -140 -13 l-95 -6 70 14 c39 7 102 13 140 13
65 0 67 -1 25 -8z m1388 5 c-2 -3 -85 -10 -184 -15 -98 -6 -262 -20 -364 -32
-153 -18 -253 -22 -580 -24 -271 -1 -370 1 -315 7 44 5 170 20 280 34 110 14
220 26 245 28 75 6 924 7 918 2z m-4093 -105 c-224 -11 -658 -20 -651 -13 12
13 194 20 491 20 262 0 287 -1 160 -7z m2994 5 c-3 -2 -63 -11 -134 -20 -91
-11 -259 -17 -560 -20 -236 -3 -425 -3 -419 0 7 3 79 14 160 24 120 15 227 19
553 20 222 0 402 -1 400 -4z m781 -4 c-33 -20 -178 -33 -410 -36 l-245 -4 130
24 c108 19 165 23 335 24 123 0 199 -3 190 -8z m-827 -38 c-7 -2 -21 -2 -30 0
-10 3 -4 5 12 5 17 0 24 -2 18 -5z m-60 -10 c-7 -2 -21 -2 -30 0 -10 3 -4 5
12 5 17 0 24 -2 18 -5z m-2903 -28 c-41 -8 -111 -13 -155 -13 l-80 1 90 12
c50 7 119 12 155 12 l65 1 -75 -13z m4220 -1 c-77 -10 -211 -13 -500 -11 -353
2 -384 3 -290 13 58 6 283 11 500 11 378 1 391 0 290 -13z m-1105 -4 c-27 -5
-104 -8 -170 -8 -84 1 -106 3 -75 8 25 4 101 7 170 7 95 0 113 -2 75 -7z
m-482 -7 c-29 -2 -78 -2 -110 0 -32 2 -8 3 52 3 61 0 87 -1 58 -3z m935 -40
c-114 -2 -303 -2 -420 0 -117 1 -24 2 207 2 231 0 327 -1 213 -2z m-3238 -33
c-52 -13 -307 -24 -297 -14 7 8 145 17 297 21 l35 1 -35 -8z m-610 -10 c-105
-10 -361 -10 -330 0 14 4 111 8 215 7 142 0 171 -2 115 -7z m3715 0 c-110 -12
-953 -11 -935 0 9 6 205 9 510 8 272 -1 464 -4 425 -8z m-4202 -37 c-90 -2
-236 -2 -325 0 -90 1 -17 3 162 3 179 0 252 -2 163 -3z m5130 0 c-68 -2 -178
-2 -245 0 -68 1 -13 3 122 3 135 0 190 -2 123 -3z m-4241 -45 c-17 -17 -285
-26 -757 -26 -252 0 -356 3 -325 9 73 15 360 26 739 27 284 2 353 -1 343 -10z
m1973 2 c-43 -9 -380 -22 -355 -14 42 13 148 22 265 22 90 0 118 -3 90 -8z
m683 5 c-6 -6 -126 -21 -243 -30 l-80 -6 35 19 c29 16 57 20 164 21 71 0 127
-1 124 -4z m329 -1 c-7 -8 -197 -33 -246 -34 -66 0 -22 12 91 25 136 15 163
17 155 9z m933 -4 c-19 -4 -222 -10 -450 -13 -357 -4 -404 -3 -335 8 89 14
846 19 785 5z m-5372 -27 c-10 -2 -26 -2 -35 0 -10 3 -2 5 17 5 19 0 27 -2 18
-5z m4567 -52 c-19 -16 -251 -33 -510 -36 -253 -4 -258 -4 -185 11 48 10 174
18 355 23 154 4 296 8 315 9 19 1 30 -2 25 -7z m-897 -24 c-122 -15 -171 -18
-220 -10 l-63 9 105 10 c58 6 157 11 220 11 l115 0 -157 -20z m1717 4 c-6 -4
-84 -14 -175 -21 -197 -14 -139 -13 -365 -10 -179 3 -185 3 -100 12 50 4 200
12 335 17 135 4 261 9 280 9 19 1 30 -2 25 -7z m-3550 -22 c-22 -4 -96 -7
-165 -7 l-125 2 95 6 c52 3 127 7 165 7 61 1 65 0 30 -8z m-1005 -55 c-36 -7
-84 -13 -108 -14 -28 0 -45 -5 -48 -15 -5 -13 -58 -15 -393 -14 -218 0 -375 4
-361 9 14 4 138 16 275 25 138 9 257 18 265 20 8 1 110 3 225 3 201 0 207 -1
145 -14z m380 5 c-117 -10 -213 -10 -180 1 14 4 79 8 145 7 l120 0 -85 -8z
m2369 7 c-2 -2 -58 -6 -124 -9 -68 -3 -105 -2 -85 2 35 8 217 14 209 7z m951
-46 c-8 -5 -46 -9 -85 -8 l-70 1 60 7 c100 11 112 11 95 0z m150 -49 l95 -6
-70 -8 c-229 -26 -426 -50 -620 -74 -196 -24 -259 -27 -580 -29 -198 -1 -353
-1 -345 1 8 3 139 18 290 35 151 17 336 40 410 52 74 11 187 24 250 28 148 9
448 10 570 1z m670 -12 c-233 -8 -254 -9 -497 -40 -90 -11 -171 -19 -180 -17
-20 4 285 45 422 57 50 5 176 8 280 8 l190 0 -215 -8z m-4440 -20 c-25 -5
-168 -27 -319 -49 -212 -31 -301 -40 -395 -39 l-121 1 65 14 c36 8 184 25 330
39 146 15 299 30 340 34 41 5 91 8 110 8 32 1 31 0 -10 -8z m2745 0 c-22 -4
-58 -7 -80 -7 -39 1 -38 1 10 8 28 4 64 7 80 7 25 1 23 -1 -10 -8z m-137 -16
c-10 -2 -26 -2 -35 0 -10 3 -2 5 17 5 19 0 27 -2 18 -5z m2002 -3 c-74 -8
-335 -20 -305 -14 40 9 212 21 290 21 l80 0 -65 -7z m-2082 -7 c-10 -2 -26 -2
-35 0 -10 3 -2 5 17 5 19 0 27 -2 18 -5z m-2529 -7 c-7 -7 -229 -38 -242 -33
-6 2 35 11 93 19 112 16 156 21 149 14z m4161 -13 c-14 -2 -71 -13 -128 -24
-74 -13 -142 -19 -240 -18 -165 2 -131 12 93 28 83 6 166 13 185 15 52 4 119
4 90 -1z m-4432 -30 c-10 -2 -26 -2 -35 0 -10 3 -2 5 17 5 19 0 27 -2 18 -5z
m907 -3 c-16 -4 -61 -7 -100 -7 -68 0 -68 0 -20 7 28 4 73 7 100 7 42 1 45 -1
20 -7z m-978 -6 c-3 -3 -12 -4 -19 -1 -8 3 -5 6 6 6 11 1 17 -2 13 -5z m-607
-50 c-52 -7 -108 -12 -125 -12 -28 0 -28 1 10 13 22 8 78 13 125 13 l85 -1
-95 -13z m775 10 c-48 -7 -273 -9 -269 -2 3 4 69 7 147 7 78 -1 133 -3 122 -5z
m-567 -61 c-21 -2 -57 -2 -80 0 -24 2 -7 4 37 4 44 0 63 -2 43 -4z m1525 0
c-7 -2 -21 -2 -30 0 -10 3 -4 5 12 5 17 0 24 -2 18 -5z m2632 -4 c-59 -12
-688 -11 -680 1 4 6 135 10 363 9 217 -1 341 -5 317 -10z m-3176 -33 c-2 -2
-44 -6 -94 -9 -54 -3 -80 -2 -65 3 24 8 168 14 159 6z m786 -7 c-16 -5 -106
-14 -200 -19 -93 -5 -206 -14 -250 -20 -142 -18 -395 -30 -610 -29 -272 1
-227 12 171 39 170 12 359 25 419 29 166 12 507 11 470 0z m2225 -2 c-18 -8
-143 -12 -425 -13 -348 -2 -392 0 -340 11 82 18 803 20 765 2z m640 1 c-19 -5
-161 -12 -315 -13 -249 -3 -274 -2 -225 9 68 17 598 20 540 4z m695 -57 c-14
-12 -93 -25 -80 -13 11 11 38 19 70 21 11 1 15 -3 10 -8z m-3227 -8 c-86 -2
-230 -2 -320 0 -90 1 -19 3 157 3 176 0 249 -2 163 -3z m1914 -15 c-27 -6 -71
-6 -120 0 l-77 9 120 1 c100 0 113 -2 77 -10z m898 3 c-29 -17 -210 -31 -389
-31 -179 0 -181 0 -169 20 12 19 23 20 293 20 159 0 274 -4 265 -9z m275 -12
c-32 -10 -197 -23 -180 -14 11 6 145 22 185 23 23 0 22 -1 -5 -9z m-3460 -9
c4 -6 -44 -10 -137 -10 -79 0 -181 -3 -228 -6 -49 -4 -82 -3 -77 2 5 5 93 12
195 15 103 3 199 6 214 7 15 1 30 -2 33 -8z m-1482 -7 c-18 -2 -48 -2 -65 0
-18 2 -4 4 32 4 36 0 50 -2 33 -4z m876 3 c-2 -2 -65 -6 -139 -8 -74 -3 -119
-2 -100 2 35 7 247 13 239 6z m2629 -3 c-16 -2 -40 -2 -55 0 -16 2 -3 4 27 4
30 0 43 -2 28 -4z m-3671 -10 c-20 -2 -52 -2 -70 0 -17 2 0 4 38 4 39 0 53 -2
32 -4z m-210 -90 c-20 -2 -52 -2 -70 0 -17 2 0 4 38 4 39 0 53 -2 32 -4z
m5118 -8 c-321 -52 -911 -130 -1050 -140 l-80 -5 145 39 c80 21 189 50 244 65
54 14 120 26 147 26 30 0 53 6 61 15 11 12 62 14 313 13 281 0 295 -1 220 -13z
m-1020 -23 c-6 -5 -66 -35 -135 -68 l-125 -59 -125 -4 c-120 -3 -323 13 -365
30 -11 4 -14 8 -7 8 8 1 117 19 244 42 126 22 266 44 311 48 115 11 213 13
202 3z m208 0 c12 -5 -40 -22 -149 -50 -91 -24 -168 -41 -170 -39 -7 7 156 78
200 87 52 10 96 11 119 2z m-2754 -6 c-8 -8 -875 -127 -913 -125 -11 0 143 29
344 64 275 47 391 63 469 64 57 0 102 -1 100 -3z m706 -7 c-95 -28 -277 -53
-660 -89 -349 -33 -463 -40 -602 -38 l-173 3 423 60 c232 32 445 62 472 66 80
10 575 9 540 -2z m-555 -115 c-41 -7 -104 -12 -140 -12 -63 1 -62 1 35 13 138
17 203 16 105 -1z m1620 2 l75 -13 -55 -2 c-30 0 -86 2 -125 6 -61 6 -66 8
-35 14 51 9 57 9 140 -5z"/>
<path d="M6482 7570 c0 -19 2 -27 5 -17 2 9 2 25 0 35 -3 9 -5 1 -5 -18z"/>
<path d="M3320 6205 c0 -26 7 -29 35 -19 14 6 14 8 -1 25 -23 26 -34 24 -34
-6z"/>
<path d="M4780 6220 c-363 -4 -441 -7 -423 -17 12 -7 46 -14 75 -14 46 -1 49
-2 18 -8 l-35 -6 43 -23 43 -22 271 25 c149 14 273 24 274 22 6 -5 -148 -37
-178 -37 -15 0 -33 -7 -42 -15 -11 -12 -42 -15 -133 -16 -75 0 -111 -4 -98 -9
11 -5 115 -9 231 -9 176 -1 221 2 265 17 l54 17 -75 5 -75 5 55 13 c30 7 78
15 105 18 77 8 87 11 124 39 l35 25 -45 -2 c-24 -2 -244 -5 -489 -8z"/>
<path d="M3320 6110 c0 -19 7 -20 103 -20 l102 0 -30 20 c-23 15 -47 20 -102
20 -66 0 -73 -2 -73 -20z"/>
<path d="M3438 6042 c-83 -11 -118 -20 -118 -29 0 -10 38 -13 183 -13 162 1
180 2 163 15 -11 8 -30 15 -44 15 -13 0 -21 4 -18 9 6 9 -18 22 -37 20 -7 -1
-65 -9 -129 -17z"/>
<path d="M3320 5940 l0 -40 328 0 327 0 -115 40 -115 39 -212 1 -213 0 0 -40z"/>
<path d="M3663 5883 c-217 -2 -343 -7 -343 -13 0 -6 105 -10 287 -10 158 0
283 -4 278 -8 -6 -5 -47 -18 -91 -30 -70 -19 -108 -22 -278 -22 -164 0 -196
-2 -196 -14 0 -11 14 -16 48 -19 l47 -3 -47 -2 c-34 -1 -48 -6 -48 -16 0 -8
10 -17 23 -19 l22 -4 -22 -2 c-21 -1 -23 -6 -23 -57 l0 -56 83 6 c116 8 1173
19 1167 13 -3 -3 -59 -13 -125 -21 -94 -13 -223 -16 -622 -16 -329 0 -503 -3
-503 -10 0 -6 145 -10 413 -11 226 -1 399 -5 382 -9 -16 -4 -202 -8 -412 -9
-382 -1 -383 -1 -383 -22 0 -23 -4 -23 380 -3 74 3 101 2 90 -5 -8 -6 -44 -11
-80 -11 -36 0 -138 -5 -227 -12 -159 -12 -163 -13 -163 -34 0 -20 6 -23 48
-27 l47 -3 -47 -2 c-36 -2 -48 -6 -48 -17 0 -13 9 -15 48 -10 177 20 396 35
516 34 l141 -1 -205 -44 c-167 -36 -232 -45 -352 -50 -82 -4 -148 -11 -148
-15 0 -5 21 -9 48 -10 l47 -1 -45 -12 c-35 -9 -46 -17 -48 -35 l-4 -23 121 4
c67 1 121 0 121 -4 0 -5 -54 -8 -120 -8 -73 0 -120 -4 -120 -10 0 -5 5 -10 11
-10 6 0 7 -5 2 -12 -4 -7 -8 -28 -10 -45 l-2 -33 137 -2 c146 -1 132 -6 -33
-10 l-100 -3 -3 -32 -3 -33 58 -2 c36 -1 45 -3 23 -5 -77 -8 -80 -10 -80 -55
l0 -41 153 7 c83 3 401 9 704 12 305 4 550 11 547 15 -3 5 -139 10 -302 10
-185 1 -282 4 -257 10 22 4 154 8 293 8 166 1 251 4 247 11 -4 6 -62 10 -138
11 -98 1 -122 3 -92 10 22 4 77 8 123 8 45 1 82 3 82 6 0 4 -7 20 -16 37 l-16
30 -208 -3 c-115 -2 -212 -1 -216 4 -4 4 88 7 205 7 178 0 212 2 208 14 -3 8
-11 32 -18 55 l-12 41 -221 1 c-124 1 -208 5 -191 9 17 4 115 8 219 9 167 1
187 3 182 17 -3 9 -6 27 -6 40 0 24 -2 24 -92 25 -108 1 -94 17 15 18 65 1 67
2 67 27 0 23 -3 25 -27 20 -101 -20 -276 -37 -522 -51 -374 -21 -378 -18 -59
45 199 39 214 40 407 40 172 0 201 2 201 15 0 11 -14 15 -57 16 l-58 2 63 9
c60 9 62 11 62 39 l0 29 -147 1 c-177 2 -147 16 36 18 96 1 122 4 118 14 -3 7
1 21 9 32 31 43 25 44 -188 48 l-203 2 208 3 c117 1 207 6 207 11 0 5 3 16 6
25 5 13 -9 16 -93 19 l-98 3 101 2 c80 2 103 5 108 17 4 12 -3 15 -32 17 l-37
1 35 4 c34 5 60 18 60 33 0 4 -60 5 -132 4 -107 -2 -121 -1 -73 6 33 5 95 11
138 15 42 4 77 10 77 14 0 9 -101 5 -390 -14 -284 -20 -356 -18 -185 5 72 9
123 19 115 22 -22 9 -205 38 -216 36 -5 -2 -163 -4 -351 -5z m382 -33 c-11 -5
-33 -8 -50 -8 l-30 0 30 8 c17 4 39 8 50 8 l20 1 -20 -9z m268 -87 c-90 -2
-236 -2 -325 0 -90 1 -17 3 162 3 179 0 252 -2 163 -3z m-120 -40 c-116 -2
-310 -2 -430 0 -120 1 -24 2 212 2 237 0 335 -1 218 -2z m-143 -44 c-82 -8
-711 -20 -670 -13 48 9 376 21 560 21 144 0 168 -2 110 -8z m240 -200 c-25 -4
-65 -7 -90 -7 l-45 1 50 7 c28 4 68 7 90 7 l40 0 -45 -8z m-610 -176 c-43 -15
-271 -31 -259 -19 13 13 148 34 224 34 l80 0 -45 -15z m265 6 c-16 -5 -68 -11
-115 -14 l-85 -4 50 13 c58 16 201 21 150 5z m430 0 c-22 -4 -98 -8 -170 -7
-82 0 -117 3 -95 8 19 4 96 7 170 8 96 0 124 -3 95 -9z m-400 -59 c-41 -10
-238 -10 -205 0 14 4 72 8 130 8 68 0 94 -3 75 -8z m-335 -46 c0 -2 -35 -3
-77 -2 -70 1 -73 2 -28 7 48 6 105 3 105 -5z m588 -1 c-71 -2 -185 -2 -255 0
-71 1 -13 3 127 3 140 0 198 -2 128 -3z m70 -40 c-10 -2 -28 -2 -40 0 -13 2
-5 4 17 4 22 1 32 -1 23 -4z m-559 -77 c-2 -2 -40 -6 -84 -10 -52 -4 -73 -2
-60 3 19 9 153 15 144 7z m850 0 c-11 -9 -680 -15 -674 -6 4 6 131 10 342 10
185 0 334 -2 332 -4z m-876 -43 c-13 -2 -33 -2 -45 0 -13 2 -3 4 22 4 25 0 35
-2 23 -4z m532 -3 c-16 -4 -64 -7 -105 -7 -74 0 -75 0 -20 7 30 4 78 7 105 7
42 1 45 -1 20 -7z m-360 -40 c-27 -5 -140 -8 -250 -7 -128 0 -176 3 -135 7 96
10 447 9 385 0z"/>
<path d="M4535 4929 c-71 -4 -374 -11 -672 -15 l-543 -7 0 -24 0 -23 751 0
750 0 -33 40 c-37 45 -16 42 -253 29z"/>
<path d="M3327 4843 c-4 -3 -7 -10 -7 -15 0 -4 309 -9 688 -11 l687 -2 -687
-3 c-604 -2 -688 -4 -688 -17 0 -13 93 -15 780 -15 840 0 818 -1 754 49 -26
21 -33 21 -774 21 -411 0 -750 -3 -753 -7z"/>
<path d="M3870 4729 c-41 -4 -158 -15 -260 -24 -255 -22 -290 -26 -290 -36 0
-5 18 -9 40 -9 76 0 465 40 545 56 124 25 113 29 -35 13z"/>
<path d="M3320 4615 c0 -25 1 -25 79 -25 59 0 94 6 142 25 l64 24 -142 1 -143
0 0 -25z"/>
<path d="M3327 4553 c-24 -23 9 -31 39 -8 18 14 18 14 -7 15 -14 0 -29 -3 -32
-7z"/>
</g>
</svg>
